<?xml version="1.0" encoding="UTF-8"?>
<svg version="1.1" xmlns="http://www.w3.org/2000/svg" width="803" height="780">
<path d="M0 0 C1.64054855 -0.00101212 1.64054855 -0.00101212 3.3142395 -0.00204468 C20.22183361 0.01451273 36.77877208 0.51687486 53.5 3.25 C55.12953613 3.51538574 55.12953613 3.51538574 56.79199219 3.78613281 C111.72115239 13.03954677 166.681777 34.24615181 210.5 69.25 C211.59624226 70.09558632 212.6939834 70.93923189 213.79296875 71.78125 C226.72640819 81.7328383 238.79444922 92.37073743 250.375 103.875 C251.24261963 104.73335449 252.11023926 105.59170898 253.00415039 106.47607422 C258.17883997 111.67602551 262.93795316 117.07087268 267.52587891 122.79443359 C269.08877645 124.73848795 270.67419997 126.63414452 272.328125 128.5 C280.25582697 137.50177772 286.95152225 147.2131169 293.5 157.25 C294.03915039 158.07532227 294.57830078 158.90064453 295.13378906 159.75097656 C322.93243168 202.66084764 340.72971427 250.22270447 348.375 300.75 C348.53059387 301.77725189 348.53059387 301.77725189 348.68933105 302.82525635 C350.00108872 311.61530571 350.94422746 320.380247 351.5 329.25 C352.26280273 329.53359375 353.02560547 329.8171875 353.81152344 330.109375 C357.2919177 331.58598252 359.91927501 333.80266797 362.75 336.25 C363.32210205 336.74274414 363.8942041 337.23548828 364.48364258 337.74316406 C388.40820127 358.68848879 403.25239231 390.61576045 405.5 422.25 C405.69011502 427.56290433 405.74561582 432.87187068 405.75 438.1875 C405.75101212 439.29023758 405.75101212 439.29023758 405.75204468 440.41525269 C405.70093424 475.48800115 393.94520387 508.67447959 369.5 534.25 C366.62983218 537.11087925 363.68021801 539.73989936 360.5 542.25 C359.7575 542.84039063 359.015 543.43078125 358.25 544.0390625 C346.8892986 552.52221782 331.0148605 560.25 316.5 560.25 C316.40203125 560.89582031 316.3040625 561.54164063 316.203125 562.20703125 C310.7608492 585.7599915 296.64661076 609.21749461 283.5 629.25 C282.984375 630.03987305 282.46875 630.82974609 281.9375 631.64355469 C275.50387287 641.43705079 268.79392569 650.71123548 261.01611328 659.47900391 C259.09927952 661.71808798 257.28248968 664.0310548 255.4453125 666.3359375 C250.5499664 672.33832245 245.23647368 677.81743678 239.74414062 683.26660156 C238.12653713 684.87347307 236.51993087 686.49078494 234.9140625 688.109375 C228.43151487 694.60046525 221.71073034 700.56228925 214.5 706.25 C213.40010606 707.15483885 212.30204454 708.06191704 211.20703125 708.97265625 C193.68521543 723.13671519 174.56009708 735.04514783 154.5 745.25 C153.63842285 745.69037598 152.7768457 746.13075195 151.88916016 746.58447266 C121.56541802 761.93225612 89.03068091 771.9099286 55.5 777.25 C54.5203125 777.41371094 53.540625 777.57742188 52.53125 777.74609375 C20.37418653 782.9203021 -15.40613529 782.75515198 -47.5 777.25 C-48.53833984 777.07307617 -49.57667969 776.89615234 -50.64648438 776.71386719 C-111.30839431 766.03810857 -168.24768909 740.24775511 -214.5 699.25 C-215.44488281 698.41597656 -216.38976562 697.58195313 -217.36328125 696.72265625 C-229.93373062 685.41095282 -242.11126905 673.61506445 -252.5 660.25 C-253.37677847 659.19375805 -254.25721578 658.14054623 -255.140625 657.08984375 C-273.46523316 635.10467919 -308.5 590.33240758 -308.5 560.25 C-309.325 560.30800781 -310.15 560.36601563 -311 560.42578125 C-328.72901264 561.11832081 -342.96488644 554.3287411 -356.5 543.25 C-357.07234375 542.82460938 -357.6446875 542.39921875 -358.234375 541.9609375 C-380.82310233 524.42778248 -392.719835 491.01674995 -396.72583008 463.73583984 C-401.3240288 425.2521143 -396.0921772 382.44564815 -372.4921875 350.53515625 C-370.539029 348.06585891 -368.53390075 345.65293842 -366.5 343.25 C-366.00886719 342.62480469 -365.51773437 341.99960937 -365.01171875 341.35546875 C-360.8905185 336.2126752 -355.9130711 331.99825966 -350.5 328.25 C-349.84 328.25 -349.18 328.25 -348.5 328.25 C-348.51957764 327.53166992 -348.53915527 326.81333984 -348.55932617 326.07324219 C-348.67648012 318.3894308 -348.00317747 311.08394002 -346.8125 303.5 C-346.63098389 302.32679199 -346.44946777 301.15358398 -346.26245117 299.94482422 C-335.68054834 233.2361493 -307.57135071 167.42063027 -260.87890625 117.8046875 C-258.938132 115.72050629 -257.07025704 113.60489444 -255.2109375 111.44921875 C-251.49609468 107.18685711 -247.57088312 103.17269094 -243.5625 99.1875 C-242.89798828 98.51912109 -242.23347656 97.85074219 -241.54882812 97.16210938 C-221.98988626 77.6411092 -199.32671961 61.13841417 -175.5 47.25 C-174.80003906 46.83685547 -174.10007813 46.42371094 -173.37890625 45.99804688 C-131.33468175 21.2960863 -83.88570435 6.55480598 -35.5 1.25 C-34.27216797 1.10643066 -34.27216797 1.10643066 -33.01953125 0.95996094 C-22.05549303 -0.14996891 -11.0080226 0.00609302 0 0 Z M-198.5 123.25 C-199.02287598 123.71647949 -199.54575195 124.18295898 -200.08447266 124.66357422 C-210.1398659 133.65520442 -219.85346711 142.8821732 -228.265625 153.45703125 C-230.55473871 156.31842339 -232.92850025 159.09240157 -235.3125 161.875 C-270.20916172 203.76183154 -294.18318044 258.96247401 -299.5 313.25 C-297.44218209 310.63132656 -295.8091509 308.08335716 -294.37109375 305.08203125 C-293.78630249 303.87885254 -293.78630249 303.87885254 -293.18969727 302.65136719 C-292.77647217 301.79704102 -292.36324707 300.94271484 -291.9375 300.0625 C-279.33506963 274.50094485 -263.12604578 251.74048958 -244.5 230.25 C-243.80777344 229.44433594 -243.11554688 228.63867188 -242.40234375 227.80859375 C-231.74252403 215.6699551 -220.26447664 204.15997342 -207.5 194.25 C-206.37374152 193.32602903 -205.25021428 192.39872248 -204.12890625 191.46875 C-194.69653861 183.69002681 -184.81177108 176.81074934 -174.5 170.25 C-173.87689941 169.85216309 -173.25379883 169.45432617 -172.61181641 169.04443359 C-134.76081389 145.08770855 -91.74102179 129.14560322 -47.5 122.25 C-46.54818848 122.09901855 -45.59637695 121.94803711 -44.61572266 121.79248047 C-3.35121089 115.57159863 39.95064369 117.90777889 80.5 127.25 C81.46212402 127.47026855 82.42424805 127.69053711 83.41552734 127.91748047 C134.68601331 139.89770432 183.1311424 165.34779379 222.5 200.25 C223.45648437 201.095625 224.41296875 201.94125 225.3984375 202.8125 C237.60903943 213.81186259 249.39742476 225.2635336 259.5 238.25 C260.46097649 239.4356774 261.42470348 240.61912888 262.390625 241.80078125 C275.49028527 257.86792828 286.55322674 275.07657217 296.5 293.25 C296.83 293.25 297.16 293.25 297.5 293.25 C297.0225174 285.75228835 295.56586409 278.83721195 293.5 271.625 C293.19239746 270.54323486 292.88479492 269.46146973 292.56787109 268.34692383 C276.09297164 211.86448011 242.84362595 156.31650093 196.23046875 119.43359375 C194.44905585 118.00897314 192.69912964 116.54378927 190.98828125 115.03515625 C175.60603017 101.53919581 157.66323963 90.58826632 139.5 81.25 C138.61924805 80.78674316 137.73849609 80.32348633 136.83105469 79.84619141 C45.49394972 32.13535759 -70.38780608 37.4655864 -198.5 123.25 Z M297.5 293.25 C298.5 295.25 298.5 295.25 298.5 295.25 Z " fill="#D7CDFE" transform="translate(397.5,-0.25)"/>
<path d="M0 0 C1.64054855 -0.00101212 1.64054855 -0.00101212 3.3142395 -0.00204468 C20.22183361 0.01451273 36.77877208 0.51687486 53.5 3.25 C55.12953613 3.51538574 55.12953613 3.51538574 56.79199219 3.78613281 C111.72115239 13.03954677 166.681777 34.24615181 210.5 69.25 C211.59624226 70.09558632 212.6939834 70.93923189 213.79296875 71.78125 C226.72640819 81.7328383 238.79444922 92.37073743 250.375 103.875 C251.24261963 104.73335449 252.11023926 105.59170898 253.00415039 106.47607422 C258.17883997 111.67602551 262.93795316 117.07087268 267.52587891 122.79443359 C269.08877645 124.73848795 270.67419997 126.63414452 272.328125 128.5 C280.25582697 137.50177772 286.95152225 147.2131169 293.5 157.25 C294.03915039 158.07532227 294.57830078 158.90064453 295.13378906 159.75097656 C322.93243168 202.66084764 340.72971427 250.22270447 348.375 300.75 C348.53059387 301.77725189 348.53059387 301.77725189 348.68933105 302.82525635 C350.00108872 311.61530571 350.94422746 320.380247 351.5 329.25 C352.26280273 329.53359375 353.02560547 329.8171875 353.81152344 330.109375 C357.2919177 331.58598252 359.91927501 333.80266797 362.75 336.25 C363.32210205 336.74274414 363.8942041 337.23548828 364.48364258 337.74316406 C388.40820127 358.68848879 403.25239231 390.61576045 405.5 422.25 C405.69011502 427.56290433 405.74561582 432.87187068 405.75 438.1875 C405.75101212 439.29023758 405.75101212 439.29023758 405.75204468 440.41525269 C405.70093424 475.48800115 393.94520387 508.67447959 369.5 534.25 C366.62983218 537.11087925 363.68021801 539.73989936 360.5 542.25 C359.7575 542.84039063 359.015 543.43078125 358.25 544.0390625 C346.8892986 552.52221782 331.0148605 560.25 316.5 560.25 C316.40203125 560.89582031 316.3040625 561.54164063 316.203125 562.20703125 C310.7608492 585.7599915 296.64661076 609.21749461 283.5 629.25 C282.984375 630.03987305 282.46875 630.82974609 281.9375 631.64355469 C275.50387287 641.43705079 268.79392569 650.71123548 261.01611328 659.47900391 C259.09927952 661.71808798 257.28248968 664.0310548 255.4453125 666.3359375 C250.5499664 672.33832245 245.23647368 677.81743678 239.74414062 683.26660156 C238.12653713 684.87347307 236.51993087 686.49078494 234.9140625 688.109375 C228.43151487 694.60046525 221.71073034 700.56228925 214.5 706.25 C213.40010606 707.15483885 212.30204454 708.06191704 211.20703125 708.97265625 C193.68521543 723.13671519 174.56009708 735.04514783 154.5 745.25 C153.63842285 745.69037598 152.7768457 746.13075195 151.88916016 746.58447266 C121.56541802 761.93225612 89.03068091 771.9099286 55.5 777.25 C54.5203125 777.41371094 53.540625 777.57742188 52.53125 777.74609375 C20.37418653 782.9203021 -15.40613529 782.75515198 -47.5 777.25 C-48.53833984 777.07307617 -49.57667969 776.89615234 -50.64648438 776.71386719 C-111.30839431 766.03810857 -168.24768909 740.24775511 -214.5 699.25 C-215.44488281 698.41597656 -216.38976562 697.58195313 -217.36328125 696.72265625 C-229.93373062 685.41095282 -242.11126905 673.61506445 -252.5 660.25 C-253.37677847 659.19375805 -254.25721578 658.14054623 -255.140625 657.08984375 C-273.46523316 635.10467919 -308.5 590.33240758 -308.5 560.25 C-309.325 560.30800781 -310.15 560.36601563 -311 560.42578125 C-328.72901264 561.11832081 -342.96488644 554.3287411 -356.5 543.25 C-357.07234375 542.82460938 -357.6446875 542.39921875 -358.234375 541.9609375 C-380.82310233 524.42778248 -392.719835 491.01674995 -396.72583008 463.73583984 C-401.3240288 425.2521143 -396.0921772 382.44564815 -372.4921875 350.53515625 C-370.539029 348.06585891 -368.53390075 345.65293842 -366.5 343.25 C-366.00886719 342.62480469 -365.51773437 341.99960937 -365.01171875 341.35546875 C-360.8905185 336.2126752 -355.9130711 331.99825966 -350.5 328.25 C-349.84 328.25 -349.18 328.25 -348.5 328.25 C-348.51957764 327.53166992 -348.53915527 326.81333984 -348.55932617 326.07324219 C-348.67648012 318.3894308 -348.00317747 311.08394002 -346.8125 303.5 C-346.63098389 302.32679199 -346.44946777 301.15358398 -346.26245117 299.94482422 C-335.68054834 233.2361493 -307.57135071 167.42063027 -260.87890625 117.8046875 C-258.938132 115.72050629 -257.07025704 113.60489444 -255.2109375 111.44921875 C-251.49609468 107.18685711 -247.57088312 103.17269094 -243.5625 99.1875 C-242.89798828 98.51912109 -242.23347656 97.85074219 -241.54882812 97.16210938 C-221.98988626 77.6411092 -199.32671961 61.13841417 -175.5 47.25 C-174.80003906 46.83685547 -174.10007813 46.42371094 -173.37890625 45.99804688 C-131.33468175 21.2960863 -83.88570435 6.55480598 -35.5 1.25 C-34.27216797 1.10643066 -34.27216797 1.10643066 -33.01953125 0.95996094 C-22.05549303 -0.14996891 -11.0080226 0.00609302 0 0 Z M-198.5 123.25 C-199.02287598 123.71647949 -199.54575195 124.18295898 -200.08447266 124.66357422 C-210.1398659 133.65520442 -219.85346711 142.8821732 -228.265625 153.45703125 C-230.55473871 156.31842339 -232.92850025 159.09240157 -235.3125 161.875 C-270.20916172 203.76183154 -294.18318044 258.96247401 -299.5 313.25 C-297.44218209 310.63132656 -295.8091509 308.08335716 -294.37109375 305.08203125 C-293.78630249 303.87885254 -293.78630249 303.87885254 -293.18969727 302.65136719 C-292.77647217 301.79704102 -292.36324707 300.94271484 -291.9375 300.0625 C-279.33506963 274.50094485 -263.12604578 251.74048958 -244.5 230.25 C-243.80777344 229.44433594 -243.11554688 228.63867188 -242.40234375 227.80859375 C-231.74252403 215.6699551 -220.26447664 204.15997342 -207.5 194.25 C-206.37374152 193.32602903 -205.25021428 192.39872248 -204.12890625 191.46875 C-194.69653861 183.69002681 -184.81177108 176.81074934 -174.5 170.25 C-173.87689941 169.85216309 -173.25379883 169.45432617 -172.61181641 169.04443359 C-134.76081389 145.08770855 -91.74102179 129.14560322 -47.5 122.25 C-46.54818848 122.09901855 -45.59637695 121.94803711 -44.61572266 121.79248047 C-3.35121089 115.57159863 39.95064369 117.90777889 80.5 127.25 C81.46212402 127.47026855 82.42424805 127.69053711 83.41552734 127.91748047 C134.68601331 139.89770432 183.1311424 165.34779379 222.5 200.25 C223.45648437 201.095625 224.41296875 201.94125 225.3984375 202.8125 C237.60903943 213.81186259 249.39742476 225.2635336 259.5 238.25 C260.46097649 239.4356774 261.42470348 240.61912888 262.390625 241.80078125 C275.49028527 257.86792828 286.55322674 275.07657217 296.5 293.25 C296.83 293.25 297.16 293.25 297.5 293.25 C297.0225174 285.75228835 295.56586409 278.83721195 293.5 271.625 C293.19239746 270.54323486 292.88479492 269.46146973 292.56787109 268.34692383 C276.09297164 211.86448011 242.84362595 156.31650093 196.23046875 119.43359375 C194.44905585 118.00897314 192.69912964 116.54378927 190.98828125 115.03515625 C175.60603017 101.53919581 157.66323963 90.58826632 139.5 81.25 C138.61924805 80.78674316 137.73849609 80.32348633 136.83105469 79.84619141 C45.49394972 32.13535759 -70.38780608 37.4655864 -198.5 123.25 Z M-135.5 155.25 C-137.17280884 156.04894855 -138.84599615 156.8471051 -140.51953125 157.64453125 C-167.25190887 170.53545508 -192.17604674 187.46681152 -213.83984375 207.7734375 C-215.99920973 209.78377235 -218.1878842 211.71822753 -220.4375 213.625 C-230.05697905 222.00196301 -238.61141534 231.24068282 -246.5 241.25 C-247.38267458 242.31088123 -248.26823778 243.36936386 -249.15625 244.42578125 C-262.39940144 260.3288819 -273.94611325 277.89306093 -283.5 296.25 C-283.83402832 296.88776367 -284.16805664 297.52552734 -284.51220703 298.18261719 C-295.32433934 318.96049054 -304.59075401 340.54605489 -310.5 363.25 C-310.69835449 363.99330566 -310.89670898 364.73661133 -311.10107422 365.50244141 C-314.07080961 376.65974401 -316.49957189 387.7826528 -318.19580078 399.20410156 C-318.48291809 401.13511524 -318.78588387 403.06375327 -319.08984375 404.9921875 C-321.31684409 419.58960581 -321.70763061 434.07947224 -321.6875 448.8125 C-321.68656342 449.70039215 -321.68562683 450.5882843 -321.68466187 451.50308228 C-321.65492296 464.51714846 -321.46115109 477.36043929 -319.5 490.25 C-319.33338867 491.35311523 -319.16677734 492.45623047 -318.99511719 493.59277344 C-313.18004222 531.12461311 -302.449036 566.64195019 -284.5 600.25 C-284.0757373 601.04921875 -283.65147461 601.8484375 -283.21435547 602.671875 C-277.77707623 612.87039521 -272.23082724 622.83942285 -265.5 632.25 C-264.87375732 633.12881836 -264.87375732 633.12881836 -264.23486328 634.02539062 C-258.28256702 642.35046036 -252.0989602 650.42332628 -245.5 658.25 C-244.61177903 659.32535556 -243.72376827 660.40088476 -242.8359375 661.4765625 C-232.59754593 673.76824823 -221.51779473 685.43847081 -208.9140625 695.328125 C-206.64958685 697.13091144 -204.55136896 699.0248792 -202.4375 701 C-168.71984547 731.18418807 -124.05415253 752.2131714 -80.6875 763.75 C-79.96698456 763.94287598 -79.24646912 764.13575195 -78.50411987 764.33447266 C-62.36254564 768.61280791 -46.06996696 771.2570899 -29.5 773.25 C-28.6342334 773.36053711 -27.7684668 773.47107422 -26.87646484 773.58496094 C-16.97236903 774.6834614 -6.95161329 774.49398934 3 774.5 C4.00276978 774.50067474 5.00553955 774.50134949 6.03869629 774.50204468 C30.78146971 774.47564067 54.35185064 771.74504906 78.5 766.25 C79.44230469 766.04036621 80.38460938 765.83073242 81.35546875 765.61474609 C98.33951728 761.76846314 114.38099663 755.73373361 130.5 749.25 C131.32113281 748.92386719 132.14226562 748.59773437 132.98828125 748.26171875 C178.74588209 729.94194803 224.2333808 696.13345029 254.5 657.25 C255.5196604 656.01510066 256.54342598 654.78358448 257.5703125 653.5546875 C264.85052394 644.81395298 271.40952204 635.85337864 277.5 626.25 C278.4590625 624.77273438 278.4590625 624.77273438 279.4375 623.265625 C296.2887943 596.72483648 308.7254933 568.40135981 317.5 538.25 C317.87463379 536.96488525 317.87463379 536.96488525 318.25683594 535.65380859 C326.06838588 508.42172707 329.68783274 480.72169943 329.68530273 452.42358398 C329.68747673 449.71647096 329.70566526 447.00977513 329.72460938 444.30273438 C329.86702478 400.618917 320.29263192 355.77127314 301.47070312 316.30322266 C300.48955212 314.22790073 299.54599322 312.13872474 298.609375 310.04296875 C287.15940714 284.66918417 271.41024956 261.49238901 253.5 240.25 C252.61177903 239.17464444 251.72376827 238.09911524 250.8359375 237.0234375 C240.67330663 224.82270617 229.68167738 213.1084431 217.125 203.33984375 C214.92712399 201.59004663 212.83588633 199.78793467 210.73828125 197.921875 C154.04582331 148.0524041 76.09927457 123.94276915 1.5625 124 C0.70837524 124.00059418 -0.14574951 124.00118835 -1.02575684 124.00180054 C-47.2893624 124.12503781 -93.93038617 134.79623163 -135.5 155.25 Z M297.5 293.25 C298.5 295.25 298.5 295.25 298.5 295.25 Z " fill="#020104" transform="translate(397.5,-0.25)"/>
<path d="M0 0 C1.12108259 -0.00322445 2.24216517 -0.00644889 3.39721996 -0.00977105 C4.61870728 -0.00822245 5.84019461 -0.00667385 7.09869671 -0.00507832 C9.05696653 -0.00847665 9.05696653 -0.00847665 11.05479735 -0.01194364 C14.67237571 -0.01805416 18.28993092 -0.01792892 21.90751326 -0.01674926 C25.81150552 -0.01654507 29.71549038 -0.02206581 33.61947918 -0.02680683 C41.26583975 -0.03510983 48.91219261 -0.03786151 56.55855731 -0.03841921 C62.77449038 -0.03889453 68.99042092 -0.0409501 75.20635319 -0.04411983 C92.83332371 -0.05292543 110.46028814 -0.05753936 128.08726088 -0.05678936 C129.51238336 -0.05672943 129.51238336 -0.05672943 130.9662962 -0.05666828 C132.39316058 -0.05660696 132.39316058 -0.05660696 133.84885051 -0.0565444 C149.26506507 -0.05613795 164.6812552 -0.06570749 180.09746269 -0.07980665 C195.93030159 -0.09417248 211.76312857 -0.10107672 227.59597415 -0.10021287 C236.48346659 -0.09988098 245.37093342 -0.10262486 254.25841999 -0.11339092 C261.8253561 -0.12249863 269.392255 -0.12466894 276.95919422 -0.1178815 C280.81850976 -0.11461768 284.67775391 -0.11455464 288.53706264 -0.12323475 C292.72440935 -0.13255565 296.91159091 -0.12632013 301.09894085 -0.11860371 C302.92113359 -0.12631905 302.92113359 -0.12631905 304.78013831 -0.13419026 C314.38992533 -0.09504311 322.343281 1.08716712 330.78929424 5.75363445 C331.43511456 6.10699871 332.08093487 6.46036297 332.74632549 6.82443523 C347.28245517 15.03560067 355.22168708 27.13570471 359.83929729 43.02069378 C360.32919324 45.31553512 360.42332226 47.39248623 360.43455791 49.73849773 C360.44412769 51.10109219 360.44412769 51.10109219 360.4538908 52.4912138 C360.45556004 53.95529171 360.45556004 53.95529171 360.45726299 55.44894695 C360.46059139 56.46278454 360.46391979 57.47662212 360.46734905 58.52118206 C360.4724105 60.66799752 360.47475762 62.81482084 360.47459698 64.96164227 C360.47677217 68.2205664 360.49490509 71.4791457 360.51390362 74.73800945 C360.51684008 76.82915414 360.51882318 78.92030042 360.51976299 81.01144695 C360.52694851 81.97535351 360.53413403 82.93926006 360.54153728 83.93237591 C360.49090226 99.19398794 355.60798241 113.18492857 345.10570049 124.4762907 C331.7822906 137.24544675 317.12910003 140.28171383 299.36636639 140.26907635 C298.06070432 140.27204747 296.75504224 140.27501859 295.40981466 140.27807975 C291.79642865 140.28611874 288.18306254 140.28793758 284.56966865 140.28867722 C280.66839976 140.29053313 276.76714107 140.29808305 272.86587811 140.30481243 C264.34110108 140.3183731 255.81632878 140.32441662 247.29154277 140.32882309 C241.9664597 140.33158872 236.64137843 140.3358266 231.31629658 140.34032726 C216.56554529 140.35251578 201.81479544 140.36281669 187.06403923 140.36620235 C186.1206651 140.36642192 185.17729096 140.36664149 184.20532973 140.36686771 C183.25973767 140.36708598 182.31414561 140.36730426 181.33989924 140.36752915 C179.42386099 140.36797262 177.50782273 140.36841918 175.59178448 140.36886883 C174.64136937 140.36909026 173.69095425 140.36931169 172.71173868 140.36953983 C157.30918496 140.37348848 141.90667853 140.39094641 126.50414308 140.41422835 C110.68143767 140.43795197 94.85875598 140.45040462 79.0360325 140.45157027 C70.1557732 140.45248634 61.27557558 140.4582216 52.39533329 140.47638988 C44.83466034 140.49180433 37.27406813 140.49690331 29.71338245 140.48865178 C25.85795177 140.48475036 22.00268364 140.48565002 18.14727306 140.49970913 C13.9624562 140.51482961 9.77800413 140.5065668 5.59317303 140.49612713 C4.38197282 140.50418353 3.17077262 140.51223994 1.92286938 140.52054048 C-13.09583854 140.43297728 -26.52119723 135.04738335 -37.45679951 124.62082195 C-41.19212032 120.49060587 -44.00758518 115.97983484 -46.71070576 111.12863445 C-47.12191669 110.41578289 -47.53312763 109.70293133 -47.95679951 108.9684782 C-52.36818532 100.84054025 -53.0202804 92.49792988 -53.01148701 83.3903532 C-53.01577213 82.3883337 -53.02005726 81.3863142 -53.02447224 80.35393047 C-53.03018421 78.24539218 -53.03073908 76.13683418 -53.02637959 74.02829266 C-53.02322487 70.83547936 -53.04670086 67.64359886 -53.07203388 64.45090008 C-53.13222884 45.23997502 -50.54631548 29.56179542 -36.71070576 15.12863445 C-26.22770432 5.69693688 -14.22599361 0.01038539 0 0 Z " fill="#0A0325" transform="translate(247.7107057571411,295.8713655471802)"/>
<path d="M0 0 C-1.36880302 4.18245368 -2.75587092 8.34307084 -4.2890625 12.46875 C-10.82033173 30.09490383 -15.84375574 48.46460377 -19 67 C-19.1232666 67.69512695 -19.2465332 68.39025391 -19.37353516 69.10644531 C-20.36412561 74.72264125 -21.22507027 80.35011831 -22 86 C-22.10731445 86.76973145 -22.21462891 87.53946289 -22.32519531 88.33251953 C-26.10821746 116.95738714 -25.56080304 147.52191486 -21 176 C-20.83371094 177.05574219 -20.66742188 178.11148438 -20.49609375 179.19921875 C-17.80642688 195.71576567 -13.51928059 211.62586544 -8.6550293 227.61523438 C-8 230 -8 230 -8 232 C-22.11134143 233.14674558 -36.42048204 227.42880043 -47.203125 218.41796875 C-50.26193565 215.7313364 -53.14005369 212.89698159 -56 210 C-57.11181641 208.88625 -57.11181641 208.88625 -58.24609375 207.75 C-83.17497788 181.31469208 -89.92193993 142.29810388 -89.13183594 107.39208984 C-87.82536383 73.7770464 -75.86923513 40.00293029 -51.0078125 16.625 C-46.63082259 12.80508153 -42.10571669 9.75546615 -37 7 C-36.11699219 6.51789063 -35.23398437 6.03578125 -34.32421875 5.5390625 C-23.38490535 0.06149023 -12.04111361 -0.35473002 0 0 Z " fill="#D6CCFD" transform="translate(95,322)"/>
<path d="M0 0 C18.3112092 -0.77099828 36.79372437 8.96948182 50 21 C50.96550781 21.87269531 51.93101562 22.74539063 52.92578125 23.64453125 C74.78785992 44.07217277 87.37357879 74.8904217 89.21948242 104.5234375 C89.73407641 120.45535354 89.21859987 135.59582449 85 151 C84.73509766 152.02939697 84.73509766 152.02939697 84.46484375 153.07958984 C79.96778198 170.35580213 72.01511661 186.00320528 61 200 C60.21882812 201.03833984 60.21882812 201.03833984 59.421875 202.09765625 C51.18803324 212.48460031 39.23448371 220.14565309 27.375 225.75 C26.75334961 226.04406738 26.13169922 226.33813477 25.49121094 226.64111328 C19.80103163 229.24496587 14.3308786 231.38368961 8 231 C8.37511719 229.8346875 8.75023437 228.669375 9.13671875 227.46875 C14.73326694 209.7003534 18.36678602 191.70395067 21.25 173.3125 C21.41322754 172.27464355 21.57645508 171.23678711 21.74462891 170.16748047 C23.76403476 156.71552773 24.16151176 143.42012765 24.13037109 129.84399414 C24.12501655 127.07107053 24.13034366 124.29830931 24.13671875 121.52539062 C24.14385027 107.34333924 23.47056884 93.5114546 21.125 79.5 C20.94646484 78.41267578 20.76792969 77.32535156 20.58398438 76.20507812 C19.28361279 68.40750942 17.78921384 60.70099773 16 53 C15.74992188 51.78957031 15.49984375 50.57914062 15.2421875 49.33203125 C12.53575884 36.56615643 8.25886912 24.32779344 4.02685547 12 C2.66040974 8.00787326 1.32795404 4.00507546 0 0 Z " fill="#D6CCFD" transform="translate(708,322)"/>
<path d="M0 0 C1.12108259 -0.00322445 2.24216517 -0.00644889 3.39721996 -0.00977105 C4.61870728 -0.00822245 5.84019461 -0.00667385 7.09869671 -0.00507832 C9.05696653 -0.00847665 9.05696653 -0.00847665 11.05479735 -0.01194364 C14.67237571 -0.01805416 18.28993092 -0.01792892 21.90751326 -0.01674926 C25.81150552 -0.01654507 29.71549038 -0.02206581 33.61947918 -0.02680683 C41.26583975 -0.03510983 48.91219261 -0.03786151 56.55855731 -0.03841921 C62.77449038 -0.03889453 68.99042092 -0.0409501 75.20635319 -0.04411983 C92.83332371 -0.05292543 110.46028814 -0.05753936 128.08726088 -0.05678936 C129.51238336 -0.05672943 129.51238336 -0.05672943 130.9662962 -0.05666828 C132.39316058 -0.05660696 132.39316058 -0.05660696 133.84885051 -0.0565444 C149.26506507 -0.05613795 164.6812552 -0.06570749 180.09746269 -0.07980665 C195.93030159 -0.09417248 211.76312857 -0.10107672 227.59597415 -0.10021287 C236.48346659 -0.09988098 245.37093342 -0.10262486 254.25841999 -0.11339092 C261.8253561 -0.12249863 269.392255 -0.12466894 276.95919422 -0.1178815 C280.81850976 -0.11461768 284.67775391 -0.11455464 288.53706264 -0.12323475 C292.72440935 -0.13255565 296.91159091 -0.12632013 301.09894085 -0.11860371 C302.92113359 -0.12631905 302.92113359 -0.12631905 304.78013831 -0.13419026 C314.38992533 -0.09504311 322.343281 1.08716712 330.78929424 5.75363445 C331.43511456 6.10699871 332.08093487 6.46036297 332.74632549 6.82443523 C347.28245517 15.03560067 355.22168708 27.13570471 359.83929729 43.02069378 C360.32919324 45.31553512 360.42332226 47.39248623 360.43455791 49.73849773 C360.44412769 51.10109219 360.44412769 51.10109219 360.4538908 52.4912138 C360.45556004 53.95529171 360.45556004 53.95529171 360.45726299 55.44894695 C360.46059139 56.46278454 360.46391979 57.47662212 360.46734905 58.52118206 C360.4724105 60.66799752 360.47475762 62.81482084 360.47459698 64.96164227 C360.47677217 68.2205664 360.49490509 71.4791457 360.51390362 74.73800945 C360.51684008 76.82915414 360.51882318 78.92030042 360.51976299 81.01144695 C360.52694851 81.97535351 360.53413403 82.93926006 360.54153728 83.93237591 C360.49090226 99.19398794 355.60798241 113.18492857 345.10570049 124.4762907 C331.7822906 137.24544675 317.12910003 140.28171383 299.36636639 140.26907635 C298.06070432 140.27204747 296.75504224 140.27501859 295.40981466 140.27807975 C291.79642865 140.28611874 288.18306254 140.28793758 284.56966865 140.28867722 C280.66839976 140.29053313 276.76714107 140.29808305 272.86587811 140.30481243 C264.34110108 140.3183731 255.81632878 140.32441662 247.29154277 140.32882309 C241.9664597 140.33158872 236.64137843 140.3358266 231.31629658 140.34032726 C216.56554529 140.35251578 201.81479544 140.36281669 187.06403923 140.36620235 C186.1206651 140.36642192 185.17729096 140.36664149 184.20532973 140.36686771 C183.25973767 140.36708598 182.31414561 140.36730426 181.33989924 140.36752915 C179.42386099 140.36797262 177.50782273 140.36841918 175.59178448 140.36886883 C174.64136937 140.36909026 173.69095425 140.36931169 172.71173868 140.36953983 C157.30918496 140.37348848 141.90667853 140.39094641 126.50414308 140.41422835 C110.68143767 140.43795197 94.85875598 140.45040462 79.0360325 140.45157027 C70.1557732 140.45248634 61.27557558 140.4582216 52.39533329 140.47638988 C44.83466034 140.49180433 37.27406813 140.49690331 29.71338245 140.48865178 C25.85795177 140.48475036 22.00268364 140.48565002 18.14727306 140.49970913 C13.9624562 140.51482961 9.77800413 140.5065668 5.59317303 140.49612713 C4.38197282 140.50418353 3.17077262 140.51223994 1.92286938 140.52054048 C-13.09583854 140.43297728 -26.52119723 135.04738335 -37.45679951 124.62082195 C-41.19212032 120.49060587 -44.00758518 115.97983484 -46.71070576 111.12863445 C-47.12191669 110.41578289 -47.53312763 109.70293133 -47.95679951 108.9684782 C-52.36818532 100.84054025 -53.0202804 92.49792988 -53.01148701 83.3903532 C-53.01577213 82.3883337 -53.02005726 81.3863142 -53.02447224 80.35393047 C-53.03018421 78.24539218 -53.03073908 76.13683418 -53.02637959 74.02829266 C-53.02322487 70.83547936 -53.04670086 67.64359886 -53.07203388 64.45090008 C-53.13222884 45.23997502 -50.54631548 29.56179542 -36.71070576 15.12863445 C-26.22770432 5.69693688 -14.22599361 0.01038539 0 0 Z M-36.71070576 24.12863445 C-46.3973542 37.40293047 -47.33987008 50.12992942 -47.17725849 66.02804852 C-47.14826774 69.122019 -47.15668787 72.21427319 -47.16969013 75.30832195 C-47.15188691 92.56667395 -45.39258914 107.21989777 -33.14820576 120.37863445 C-21.09084751 131.7822805 -8.59468642 134.43711862 7.39457989 134.39605999 C8.69575056 134.4005911 9.99692123 134.40512222 11.33752131 134.40979064 C14.92921707 134.42196588 18.52081929 134.42176668 22.11253095 134.41940188 C25.99406271 134.41899233 29.87556504 134.43004606 33.75708294 134.43951702 C41.35424598 134.45609779 48.95137798 134.46162524 56.54855761 134.46274178 C62.72672582 134.46369362 68.90488384 134.46781069 75.08304882 134.47414303 C92.61669861 134.49174727 110.15032395 134.50098315 127.68398264 134.49948208 C128.6283302 134.49940217 129.57267775 134.49932226 130.5456419 134.49923992 C131.49114846 134.49915816 132.43665502 134.4990764 133.4108133 134.49899216 C148.73040201 134.49817944 164.04989236 134.51731577 179.36945263 134.54551665 C195.11653013 134.57427477 210.86355971 134.58805535 226.61066413 134.5863291 C235.44461553 134.58566622 244.27846379 134.59111368 253.11239147 134.6126852 C260.63415958 134.63093554 268.1557778 134.63521278 275.67755851 134.62166636 C279.51114095 134.61515614 283.34443616 134.61494847 287.17799091 134.63237286 C291.34423375 134.65111372 295.50981746 134.63849855 299.67607403 134.62311077 C300.87328052 134.6333979 302.07048701 134.64368502 303.30397248 134.65428388 C317.76881874 134.5367077 330.26152243 129.86814796 340.97679424 120.12863445 C350.86563455 109.76639221 354.60377425 96.65576702 354.59007549 82.6716032 C354.59436062 81.68799313 354.59864574 80.70438305 354.60306072 79.69096661 C354.60877748 77.61933438 354.60932397 75.54768209 354.60496807 73.47604656 C354.60181399 70.33579888 354.62528087 67.19649997 354.65062237 64.05636883 C354.65289648 62.03228146 354.65359834 60.00819159 354.65257549 57.9841032 C354.66639011 56.59761829 354.66639011 56.59761829 354.68048382 55.18312359 C354.58653893 41.69493055 349.94073443 29.8114784 340.78929424 19.87863445 C328.9105488 8.6269721 315.04583037 5.8204833 299.17727947 5.86120892 C297.87540324 5.8566778 296.573527 5.85214669 295.23219997 5.84747827 C291.63857361 5.83530302 288.04504074 5.83550222 284.45139849 5.83786702 C280.56784086 5.83827658 276.68431264 5.82722293 272.80076885 5.81775188 C265.1999308 5.8011715 257.59912379 5.7956437 249.99826916 5.79452713 C243.81770868 5.79357534 237.6371584 5.78945854 231.45660114 5.78312588 C213.9178857 5.76552232 196.37919468 5.75628574 178.84047034 5.75778683 C177.89586006 5.75786674 176.95124978 5.75794665 175.97801495 5.75802898 C174.55936164 5.75815163 174.55936164 5.75815163 173.11204866 5.75827675 C157.7853179 5.75908962 142.45868541 5.73994938 127.13198306 5.71175225 C111.37926033 5.68300092 95.62658549 5.66921316 79.87383586 5.6709398 C71.03600397 5.67160288 62.19827515 5.66614662 53.36046696 5.6445837 C45.83610843 5.62634238 38.3118997 5.62204882 30.7875286 5.63560255 C26.95204484 5.64211708 23.11684825 5.64230462 19.2813921 5.62489605 C15.11479914 5.60617972 10.94886644 5.618759 6.78225994 5.63415813 C5.58214061 5.62387101 4.38202128 5.61358388 3.14553469 5.60298502 C-12.55973559 5.73086891 -26.62223633 11.95289549 -36.71070576 24.12863445 Z " fill="#010102" transform="translate(247.7107057571411,295.8713655471802)"/>
<path d="M0 0 C3.31775918 2.86415929 5.7291492 5.9924279 8 9.7265625 C8.41378906 10.39300781 8.82757813 11.05945313 9.25390625 11.74609375 C12.8073462 18.41962732 13.14601931 25.33590738 12 32.7265625 C8.35356945 43.34637835 2.72342529 50.84654806 -7.25 56.1015625 C-14.68475913 59.6346092 -23.69297083 60.10245895 -31.63671875 58.04296875 C-33.89866556 57.09160892 -35.91597875 56.02050993 -38 54.7265625 C-39.04607422 54.09041016 -39.04607422 54.09041016 -40.11328125 53.44140625 C-47.6987286 48.31301529 -52.24432214 41.14968957 -54.52734375 32.33203125 C-56.43637407 21.80869883 -54.27463222 14.33368859 -48.375 5.6015625 C-42.88775077 -1.29196669 -36.06417631 -5.83725603 -27.296875 -7.0625 C-17.22539901 -7.98743147 -8.26222788 -5.99011521 0 0 Z " fill="#FCFCFC" transform="translate(319,340.2734375)"/>
<path d="M0 0 C6.80504378 4.86590741 12.75649753 11.98370097 14.3125 20.375 C15.12384336 28.93467245 14.76781021 35.92892792 10.3125 43.375 C9.714375 44.426875 9.11625 45.47875 8.5 46.5625 C3.45953418 53.04309891 -2.13035762 56.37369091 -9.6875 59.375 C-10.6775 59.87 -10.6775 59.87 -11.6875 60.375 C-20.1833264 61.06324092 -27.34963829 60.93100311 -34.6875 56.375 C-35.73357422 55.73884766 -35.73357422 55.73884766 -36.80078125 55.08984375 C-44.3862286 49.96145279 -48.93182214 42.79812707 -51.21484375 33.98046875 C-53.12387407 23.45713633 -50.96213222 15.98212609 -45.0625 7.25 C-33.54393177 -7.36747237 -15.53292878 -9.46168251 0 0 Z " fill="#FCFCFC" transform="translate(536.6875,338.625)"/>
<path d="M0 0 C9.55264061 6.03494525 17.00560963 13.92719717 19.875 25.0859375 C22.02297739 37.1187817 20.07269281 47.67065439 13.4375 58.0234375 C6.94453725 66.61179375 -1.96137652 71.55446385 -12.4375 73.7109375 C-23.24770765 74.88517058 -32.62960221 73.29401576 -41.625 67.0234375 C-50.99176451 59.30737329 -57.35474088 50.69575599 -58.84375 38.33984375 C-59.21357928 25.25713292 -54.94643552 15.52552983 -46.1875 5.9609375 C-33.96484302 -5.71969478 -14.80373988 -7.8289009 0 0 Z M-24.69921875 1.88671875 C-33.37618808 3.01731287 -39.97780276 7.68082423 -45.6171875 14.25 C-51.43888347 22.2457733 -53.28280077 28.86251268 -52.4375 38.7109375 C-50.85462035 47.62294895 -46.7615153 55.35118729 -39.625 61.0234375 C-38.25098339 61.95238658 -36.85460556 62.84914872 -35.4375 63.7109375 C-34.77105469 64.12472656 -34.10460937 64.53851563 -33.41796875 64.96484375 C-26.05500456 68.88538313 -17.60707153 68.97666478 -9.59765625 67.015625 C0.1794905 63.43016903 6.45479391 57.68522483 11.5625 48.7109375 C12.18125 47.6590625 12.8 46.6071875 13.4375 45.5234375 C15.85427545 37.33325402 15.88593094 28.37323463 11.81640625 20.73046875 C11.40261719 20.06402344 10.98882812 19.39757812 10.5625 18.7109375 C9.92634766 17.66486328 9.92634766 17.66486328 9.27734375 16.59765625 C3.81307902 8.51541511 -3.48710485 4.37718824 -12.87890625 2.17578125 C-16.96470217 1.43347634 -20.58800668 1.5671945 -24.69921875 1.88671875 Z " fill="#040405" transform="translate(316.4375,331.2890625)"/>
<path d="M0 0 C7.91501143 6.52904951 13.83815136 16.41743456 15.00390625 26.6328125 C15.36280003 37.16808151 13.20458719 46.88240391 6.625 55.3125 C6.068125 56.1375 5.51125 56.9625 4.9375 57.8125 C-1.84794519 65.14811643 -11.47289385 69.68988733 -21.40625 70.5859375 C-32.66814176 70.91567757 -41.85209242 68.15542733 -50.63671875 60.953125 C-57.96660535 54.03502978 -62.55673909 44.98209834 -63.7890625 34.9375 C-64.11750075 22.27769848 -60.23767475 13.12587876 -52.0625 3.625 C-36.39170145 -9.8591755 -17.60751106 -11.9079699 0 0 Z M-50.359375 10.7109375 C-56.26121527 18.83206481 -58.23538809 25.28829588 -57.375 35.3125 C-55.51757672 45.77026135 -50.25076875 53.71970343 -41.64453125 59.87109375 C-33.94023628 64.76418299 -26.43924851 65.25734148 -17.375 64.3125 C-14.07867841 63.3795788 -11.30726779 62.06700392 -8.375 60.3125 C-7.323125 59.714375 -6.27125 59.11625 -5.1875 58.5 C1.29309891 53.45953418 4.62369091 47.86964238 7.625 40.3125 C8.12 39.3225 8.12 39.3225 8.625 38.3125 C9.31324092 29.8166736 9.18100311 22.65036171 4.625 15.3125 C3.98884766 14.26642578 3.98884766 14.26642578 3.33984375 13.19921875 C-1.78854721 5.6137714 -8.95187293 1.06817786 -17.76953125 -1.21484375 C-30.62558473 -3.54705135 -41.97011861 0.57116698 -50.359375 10.7109375 Z " fill="#040405" transform="translate(542.375,334.6875)"/>
</svg>
