<?xml version="1.0" encoding="UTF-8"?>
<svg version="1.1" xmlns="http://www.w3.org/2000/svg" width="609" height="960">
<path d="M0 0 C0.88520325 0.00270905 1.77040649 0.00541809 2.68243408 0.00820923 C17.72004572 0.07759177 32.1473849 1.20278017 46.875 4.4375 C47.70966797 4.61410156 48.54433594 4.79070313 49.40429688 4.97265625 C84.93794749 12.70358749 116.45287242 30.28297847 144.875 52.4375 C145.83792969 53.18515625 146.80085938 53.9328125 147.79296875 54.703125 C161.17208641 65.37479935 173.74992033 77.4364265 184.875 90.4375 C185.67679687 91.35015625 186.47859375 92.2628125 187.3046875 93.203125 C195.11868364 102.17052644 202.07232639 111.68794567 208.875 121.4375 C209.55393311 122.40840576 209.55393311 122.40840576 210.24658203 123.39892578 C256.342733 189.75712113 280.9396141 271.19399232 289.84814453 366.34033203 C290.61273204 375.76851054 291.58139801 385.14933338 292.87353516 394.52197266 C293.65922189 400.50644963 294.08571731 406.47264877 294.37974548 412.49742126 C294.42276289 413.37278973 294.4657803 414.24815819 294.51010126 415.15005296 C294.97487757 424.99815886 295.21969138 434.84939547 295.44750977 444.70532227 C295.49670596 446.74998476 295.54612064 448.79464201 295.59573364 450.83929443 C295.72834262 456.33402893 295.85762932 461.82883658 295.9860394 467.32367063 C296.09440795 471.949081 296.20435391 476.5744534 296.31425327 481.19982761 C296.5741811 492.14219468 296.83129548 503.0846254 297.08666992 514.02709961 C297.34785144 525.21611811 297.61397505 536.40501128 297.88255268 547.59385449 C298.11487686 557.28042963 298.34392374 566.96707878 298.57050556 576.65378994 C298.70502412 582.40307974 298.84068646 588.1523359 298.97958565 593.90152168 C299.4801129 614.67009286 299.97087954 635.43511697 299.98413086 656.21069336 C299.98531516 656.91045638 299.98649946 657.6102194 299.98771966 658.33118737 C300.06044884 740.72153173 266.12342422 816.15138822 208.875 874.4375 C200.43724568 882.81834279 191.34653267 890.26445485 181.875 897.4375 C181.30088379 897.87916504 180.72676758 898.32083008 180.13525391 898.77587891 C165.07195017 910.34905953 148.93097564 920.49419549 131.72509766 928.56542969 C129.90537157 929.42318392 128.09898066 930.30904711 126.29296875 931.1953125 C95.00308071 946.43975959 60.51240759 955.40716729 25.875 958.4375 C24.63878906 958.54835938 23.40257812 958.65921875 22.12890625 958.7734375 C-56.34266841 964.71703681 -136.17317976 940.24276598 -196.12890625 888.86328125 C-197.77092039 887.38672197 -199.40219713 885.89808307 -201.01953125 884.39453125 C-202.92891744 882.61975856 -204.88420568 880.93194992 -206.875 879.25 C-215.89300748 871.3890892 -224.54443999 862.69359152 -232.125 853.4375 C-232.54426758 852.93202637 -232.96353516 852.42655273 -233.39550781 851.90576172 C-239.86852909 844.08179118 -245.92627657 836.0808516 -251.55957031 827.62890625 C-253.88562945 824.09311498 -253.88562945 824.09311498 -256.66650391 820.92114258 C-258.94906255 818.59922948 -260.04132341 815.79894683 -261.4375 812.875 C-263.44588658 808.67564625 -265.54815041 804.69802612 -267.99609375 800.73828125 C-291.65336474 761.7449288 -302.32205799 712.74960241 -303.5546875 667.5859375 C-303.58950729 666.39849945 -303.62432709 665.2110614 -303.66020203 663.98764038 C-303.75686173 660.64243967 -303.85001597 657.29717818 -303.94127274 653.951828 C-304.00051944 651.79357765 -304.06120205 649.635372 -304.12228394 647.47717285 C-304.78524293 623.9944298 -305.34308957 600.50919235 -305.88671875 577.0234375 C-305.90318482 576.31263959 -305.9196509 575.60184169 -305.93661594 574.86950445 C-306.27215095 560.38254931 -306.60529819 545.89554223 -306.92937368 531.40832579 C-307.05399596 525.8381218 -307.17987483 520.26794706 -307.30655771 514.69778955 C-307.38039525 511.446809 -307.45322551 508.1958109 -307.52457237 504.94477463 C-307.85355008 489.95627001 -308.29559475 474.97919249 -308.91044617 459.9995575 C-309.21233997 452.50104188 -309.3674043 445.00488662 -309.375 437.5 C-309.37651062 436.40735336 -309.37651062 436.40735336 -309.37805176 435.29263306 C-309.30516377 354.74175859 -292.6578436 273.73353525 -259.125 200.4375 C-258.66899414 199.43509277 -258.21298828 198.43268555 -257.74316406 197.39990234 C-241.14222163 161.1501437 -219.46064999 127.3944252 -193.125 97.4375 C-191.92423828 96.06851563 -191.92423828 96.06851563 -190.69921875 94.671875 C-178.51858842 81.10837373 -165.7444714 67.39169082 -151.125 56.4375 C-149.91854731 55.50353804 -148.71287891 54.56856246 -147.5078125 53.6328125 C-104.89611067 20.80093213 -54.2736319 -0.39377129 0 0 Z " fill="#AEDCD4" transform="translate(309.125,0.5625)"/>
<path d="M0 0 C2.64017635 0.81779841 5.30270591 1.3809489 8 2 C8 2.66 8 3.32 8 4 C9.12921875 4.20882812 10.2584375 4.41765625 11.421875 4.6328125 C16.7413344 5.96619241 20.79099099 8.77598874 25.25 11.875 C26.03890625 12.40480469 26.8278125 12.93460938 27.640625 13.48046875 C35.38510869 18.75247369 35.38510869 18.75247369 38 22 C38 22.99 38 23.98 38 25 C38.9075 25.268125 39.815 25.53625 40.75 25.8125 C43.72991834 26.90131632 45.68590359 27.86391101 48 30 C48 30.66 48 31.32 48 32 C48.66 32 49.32 32 50 32 C50 32.66 50 33.32 50 34 C50.66 34 51.32 34 52 34 C52 34.66 52 35.32 52 36 C52.66 36 53.32 36 54 36 C54.33 36.66 54.66 37.32 55 38 C55.680625 38.37125 56.36125 38.7425 57.0625 39.125 C64.11131697 43.62424488 69.25551863 50.36068732 74.3359375 56.8984375 C75.97672447 59.05366199 75.97672447 59.05366199 78 61 C78 62.32 78 63.64 78 65 C78.66 65 79.32 65 80 65 C81.2890625 66.4609375 81.2890625 66.4609375 82.625 68.375 C83.07101562 69.00148438 83.51703125 69.62796875 83.9765625 70.2734375 C85 72 85 72 85 74 C85.66 74 86.32 74 87 74 C87.51949219 75.0621875 88.03898437 76.124375 88.57421875 77.21875 C92.93346374 86.21101582 92.93346374 86.21101582 98 94.8125 C100 98 100 98 100 101 C100.66 101 101.32 101 102 101 C102.29003906 101.99580078 102.29003906 101.99580078 102.5859375 103.01171875 C102.84632813 103.89472656 103.10671875 104.77773438 103.375 105.6875 C103.75785156 106.99267578 103.75785156 106.99267578 104.1484375 108.32421875 C104.95738276 110.99067902 104.95738276 110.99067902 106.01171875 113.46875 C107.4470563 117.14502957 108.23363953 120.93065787 109.12109375 124.76953125 C109.95413199 128.10135642 109.95413199 128.10135642 111.46875 131.54296875 C113.69017126 137.31481383 114.25635744 143.40251018 115.0625 149.5 C116.14009095 158.34533358 116.14009095 158.34533358 118.1015625 167.015625 C119.61058341 172.64733532 119.33842016 178.46141753 119.3125 184.25 C119.30831055 185.54180176 119.30412109 186.83360352 119.29980469 188.16455078 C119.20762856 198.76385078 118.58190631 209.31041425 117.75 219.875 C117.6955069 220.61528442 117.64101379 221.35556885 117.58486938 222.11828613 C116.78083004 232.77147424 114.89578325 242.72172366 112 253 C111.69803711 254.08168457 111.39607422 255.16336914 111.08496094 256.27783203 C110.24352768 259.23328336 109.37758024 262.18009819 108.5 265.125 C107.8913885 267.18083022 107.28331332 269.23681928 106.67578125 271.29296875 C106.38783691 272.26669434 106.09989258 273.24041992 105.80322266 274.24365234 C105.08899471 276.69460479 104.40030314 279.14989521 103.73046875 281.61328125 C103.38628906 282.87527344 103.04210937 284.13726562 102.6875 285.4375 C102.40261719 286.50871094 102.11773437 287.57992188 101.82421875 288.68359375 C101 291 101 291 99 292 C97.94558944 294.07979206 97.94558944 294.07979206 97 296.5 C95.22222222 300.88888889 95.22222222 300.88888889 93 302 C92.27301805 303.98267806 91.54842771 305.96631671 90.84375 307.95703125 C89.69808721 310.73102033 87.91104096 312.69550943 86 315 C85.20621098 316.3829077 84.43774068 317.78049124 83.6875 319.1875 C79.56117893 326.78396876 74.56210532 333.6319264 68.76953125 340.0390625 C67.51448442 341.42986495 66.285071 342.84399326 65.07421875 344.2734375 C64.45160156 345.00820313 63.82898438 345.74296875 63.1875 346.5 C62.62417969 347.1703125 62.06085938 347.840625 61.48046875 348.53125 C60 350 60 350 58 350 C57.87625 350.639375 57.7525 351.27875 57.625 351.9375 C57.315625 352.9584375 57.315625 352.9584375 57 354 C56.34 354.33 55.68 354.66 55 355 C54.57847656 355.74636719 54.15695312 356.49273438 53.72265625 357.26171875 C51.68942671 360.49367773 49.40900005 362.42659517 46.4375 364.8125 C45.46683594 365.60269531 44.49617188 366.39289063 43.49609375 367.20703125 C41 369 41 369 39 369 C38.67 369.99 38.34 370.98 38 372 C35.98544554 373.55908997 33.99695996 374.97881185 31.875 376.375 C30.68846317 377.17267318 29.50226252 377.97084668 28.31640625 378.76953125 C27.22199219 379.50558594 26.12757813 380.24164062 25 381 C23.59914438 382.01393044 22.20192837 383.03296603 20.8125 384.0625 C18 386 18 386 16 386 C16 386.66 16 387.32 16 388 C10.53003104 390.88979492 5.07094635 393.14882045 -0.77734375 395.16796875 C-2.9410485 395.80293883 -2.9410485 395.80293883 -4 397 C-5.66617115 397.04063832 -7.33388095 397.042721 -9 397 C-9 397.66 -9 398.32 -9 399 C-19.56293727 405.06807035 -32.0725591 407.94354467 -44 410 C-45.2065625 410.2578125 -46.413125 410.515625 -47.65625 410.78125 C-66.13694463 414.55095476 -85.04095424 413.55790764 -103.73626709 412.04180908 C-105.74395326 411.88050719 -107.75308606 411.73753482 -109.76220703 411.59521484 C-118.04436746 410.82977933 -124.54134448 408.90661854 -131.96484375 405.36254883 C-134.75206206 404.11130483 -137.19922551 403.37699848 -140.1875 402.8125 C-144.10617109 401.97737337 -144.49866048 401.69899305 -147 399 C-150.21933245 397.17083383 -153.10542937 395.97140899 -156.6875 395 C-159.99006409 394.00299952 -160.82819909 393.46795558 -163 391 C-165.63989916 389.24006723 -168.07823596 387.97126026 -171.0625 386.875 C-180.93955113 382.75240474 -189.30142443 374.23412769 -197 367 C-197.57105469 366.48179687 -198.14210938 365.96359375 -198.73046875 365.4296875 C-200.125 364.125 -200.125 364.125 -202 362 C-202 361.01 -202 360.02 -202 359 C-202.56976563 358.92910156 -203.13953125 358.85820313 -203.7265625 358.78515625 C-206.85847554 357.70351618 -208.20952684 355.92589459 -210.375 353.4375 C-211.55449219 352.08591797 -211.55449219 352.08591797 -212.7578125 350.70703125 C-215.1882068 347.77277472 -217.4394138 344.74820897 -219.66796875 341.66015625 C-221.05210653 339.79633704 -221.05210653 339.79633704 -223.5625 338.0625 C-227.12109423 335.05138181 -229.08628939 331.21830679 -231 327 C-231 326.34 -231 325.68 -231 325 C-231.66 325 -232.32 325 -233 325 C-239.10504194 316.54817314 -242.54873741 306.77702009 -246.0625 297.0625 C-246.81648385 294.82959215 -246.81648385 294.82959215 -249 294 C-250.02835568 291.23397101 -250.91902312 288.51440006 -251.75 285.6875 C-252.00950439 284.81464355 -252.26900879 283.94178711 -252.53637695 283.04248047 C-255.71953 271.97855699 -257.99322704 260.70579668 -260.28930664 249.43115234 C-261.27026238 244.69520182 -262.32066543 239.97488566 -263.37548828 235.25488281 C-267.300496 214.79819676 -265.39458885 192.52504728 -263 172 C-262.34 172 -261.68 172 -261 172 C-260.89042969 170.80503906 -260.78085937 169.61007812 -260.66796875 168.37890625 C-259.22949769 153.65354589 -259.22949769 153.65354589 -256.64453125 147.12109375 C-255.83360755 144.45241756 -255.75040149 141.97141312 -255.625 139.1875 C-255.27825543 133.40350553 -253.58773166 128.94124201 -251.203125 123.69921875 C-250.20419104 121.45810393 -249.43741047 119.36357265 -248.8125 117 C-248.11358202 114.41937976 -247.29998882 112.32140861 -246 110 C-245.34 110 -244.68 110 -244 110 C-243.773125 109.113125 -243.54625 108.22625 -243.3125 107.3125 C-240.3581114 97.19782238 -236.80828393 89.06781645 -230 81 C-228.97695052 79.34738161 -227.97383946 77.68208635 -227 76 C-225.81292094 74.33079668 -224.60397183 72.68056951 -223.37890625 71.0390625 C-221.85203982 68.86111009 -221.85203982 68.86111009 -220.3046875 65.78515625 C-217.71494076 61.20034985 -214.19174433 57.59074556 -210.5625 53.8125 C-209.57926758 52.76545898 -209.57926758 52.76545898 -208.57617188 51.69726562 C-205.22432833 48.1638779 -201.8385534 45.00877824 -198 42 C-196.92544408 40.7994794 -195.8821428 39.57011024 -194.875 38.3125 C-190.48438606 33.17576865 -185.3141345 29.13999288 -180 25 C-179.21496094 24.37222656 -178.42992187 23.74445313 -177.62109375 23.09765625 C-172.38573529 19 -172.38573529 19 -169 19 C-169 18.34 -169 17.68 -169 17 C-168.46890625 16.75765625 -167.9378125 16.5153125 -167.390625 16.265625 C-162.89327995 14.15760725 -162.89327995 14.15760725 -159.0625 11.0625 C-151.82875663 3.82875663 -140.47260341 0.63242698 -130.875 -2 C-126.99101809 -3.06610914 -123.4592696 -4.10430675 -119.9375 -6.0625 C-114.63080243 -8.92253069 -108.8670083 -9.84277461 -103 -11 C-101.16115234 -11.42152344 -101.16115234 -11.42152344 -99.28515625 -11.8515625 C-69.66246118 -18.16792651 -25.83723061 -17.22482041 0 0 Z " fill="#FEFEFE" transform="translate(383,156)"/>
<path d="M0 0 C0.88520325 0.00270905 1.77040649 0.00541809 2.68243408 0.00820923 C17.72004572 0.07759177 32.1473849 1.20278017 46.875 4.4375 C47.70966797 4.61410156 48.54433594 4.79070313 49.40429688 4.97265625 C84.93794749 12.70358749 116.45287242 30.28297847 144.875 52.4375 C145.83792969 53.18515625 146.80085938 53.9328125 147.79296875 54.703125 C161.17208641 65.37479935 173.74992033 77.4364265 184.875 90.4375 C185.67679687 91.35015625 186.47859375 92.2628125 187.3046875 93.203125 C195.11868364 102.17052644 202.07232639 111.68794567 208.875 121.4375 C209.55393311 122.40840576 209.55393311 122.40840576 210.24658203 123.39892578 C256.342733 189.75712113 280.9396141 271.19399232 289.84814453 366.34033203 C290.61273204 375.76851054 291.58139801 385.14933338 292.87353516 394.52197266 C293.65922189 400.50644963 294.08571731 406.47264877 294.37974548 412.49742126 C294.42276289 413.37278973 294.4657803 414.24815819 294.51010126 415.15005296 C294.97487757 424.99815886 295.21969138 434.84939547 295.44750977 444.70532227 C295.49670596 446.74998476 295.54612064 448.79464201 295.59573364 450.83929443 C295.72834262 456.33402893 295.85762932 461.82883658 295.9860394 467.32367063 C296.09440795 471.949081 296.20435391 476.5744534 296.31425327 481.19982761 C296.5741811 492.14219468 296.83129548 503.0846254 297.08666992 514.02709961 C297.34785144 525.21611811 297.61397505 536.40501128 297.88255268 547.59385449 C298.11487686 557.28042963 298.34392374 566.96707878 298.57050556 576.65378994 C298.70502412 582.40307974 298.84068646 588.1523359 298.97958565 593.90152168 C299.4801129 614.67009286 299.97087954 635.43511697 299.98413086 656.21069336 C299.98531516 656.91045638 299.98649946 657.6102194 299.98771966 658.33118737 C300.06044884 740.72153173 266.12342422 816.15138822 208.875 874.4375 C200.43724568 882.81834279 191.34653267 890.26445485 181.875 897.4375 C181.30088379 897.87916504 180.72676758 898.32083008 180.13525391 898.77587891 C165.07195017 910.34905953 148.93097564 920.49419549 131.72509766 928.56542969 C129.90537157 929.42318392 128.09898066 930.30904711 126.29296875 931.1953125 C95.00308071 946.43975959 60.51240759 955.40716729 25.875 958.4375 C24.63878906 958.54835938 23.40257812 958.65921875 22.12890625 958.7734375 C-56.34266841 964.71703681 -136.17317976 940.24276598 -196.12890625 888.86328125 C-197.77092039 887.38672197 -199.40219713 885.89808307 -201.01953125 884.39453125 C-202.92891744 882.61975856 -204.88420568 880.93194992 -206.875 879.25 C-215.89300748 871.3890892 -224.54443999 862.69359152 -232.125 853.4375 C-232.54426758 852.93202637 -232.96353516 852.42655273 -233.39550781 851.90576172 C-239.86852909 844.08179118 -245.92627657 836.0808516 -251.55957031 827.62890625 C-253.88562945 824.09311498 -253.88562945 824.09311498 -256.66650391 820.92114258 C-258.94906255 818.59922948 -260.04132341 815.79894683 -261.4375 812.875 C-263.44588658 808.67564625 -265.54815041 804.69802612 -267.99609375 800.73828125 C-291.65336474 761.7449288 -302.32205799 712.74960241 -303.5546875 667.5859375 C-303.58950729 666.39849945 -303.62432709 665.2110614 -303.66020203 663.98764038 C-303.75686173 660.64243967 -303.85001597 657.29717818 -303.94127274 653.951828 C-304.00051944 651.79357765 -304.06120205 649.635372 -304.12228394 647.47717285 C-304.78524293 623.9944298 -305.34308957 600.50919235 -305.88671875 577.0234375 C-305.90318482 576.31263959 -305.9196509 575.60184169 -305.93661594 574.86950445 C-306.27215095 560.38254931 -306.60529819 545.89554223 -306.92937368 531.40832579 C-307.05399596 525.8381218 -307.17987483 520.26794706 -307.30655771 514.69778955 C-307.38039525 511.446809 -307.45322551 508.1958109 -307.52457237 504.94477463 C-307.85355008 489.95627001 -308.29559475 474.97919249 -308.91044617 459.9995575 C-309.21233997 452.50104188 -309.3674043 445.00488662 -309.375 437.5 C-309.37651062 436.40735336 -309.37651062 436.40735336 -309.37805176 435.29263306 C-309.30516377 354.74175859 -292.6578436 273.73353525 -259.125 200.4375 C-258.66899414 199.43509277 -258.21298828 198.43268555 -257.74316406 197.39990234 C-241.14222163 161.1501437 -219.46064999 127.3944252 -193.125 97.4375 C-191.92423828 96.06851563 -191.92423828 96.06851563 -190.69921875 94.671875 C-178.51858842 81.10837373 -165.7444714 67.39169082 -151.125 56.4375 C-149.91854731 55.50353804 -148.71287891 54.56856246 -147.5078125 53.6328125 C-104.89611067 20.80093213 -54.2736319 -0.39377129 0 0 Z M-182.5625 95.1875 C-187.63607805 100.76275024 -192.44495704 106.52782792 -197.125 112.4375 C-198.17187004 113.73047276 -199.21874544 115.0234412 -200.265625 116.31640625 C-209.74899521 128.14797519 -218.05595669 140.60941292 -226.125 153.4375 C-226.76381104 154.44296875 -226.76381104 154.44296875 -227.41552734 155.46875 C-270.47713347 223.50198481 -294.10624766 305.47103787 -300.125 385.4375 C-300.17507202 386.08686523 -300.22514404 386.73623047 -300.2767334 387.40527344 C-302.11943819 411.42825656 -302.43096216 435.35498315 -302.125 459.4375 C-302.1106189 460.59946899 -302.09623779 461.76143799 -302.0814209 462.95861816 C-301.96560473 472.16016798 -301.83123262 481.36135426 -301.6875 490.5625 C-301.66803314 491.85220703 -301.64856628 493.14191406 -301.62850952 494.47070312 C-301.5707282 498.19149957 -301.50704702 501.91214725 -301.44140625 505.6328125 C-301.42467865 506.73247345 -301.40795105 507.8321344 -301.39071655 508.96511841 C-301.28974637 514.31408932 -301.06213396 519.6174794 -300.62280273 524.94995117 C-300.09889952 531.31814614 -299.92431746 537.65551681 -299.84375 544.04296875 C-299.81613586 545.78734978 -299.81613586 545.78734978 -299.78796387 547.56697083 C-299.72989947 551.25293507 -299.67691969 554.93894447 -299.625 558.625 C-299.40900669 573.67085191 -299.11543114 588.69824399 -298.48692322 603.73297119 C-298.17247833 611.50775854 -297.9904372 619.27836172 -297.87890625 627.05859375 C-297.86221893 628.19542099 -297.84553162 629.33224823 -297.82833862 630.50352478 C-297.76285291 635.11240245 -297.70062439 639.72127618 -297.64819336 644.33032227 C-297.31485414 676.7740007 -297.31485414 676.7740007 -293 708.875 C-292.78972168 709.96296875 -292.57944336 711.0509375 -292.36279297 712.171875 C-285.43183542 746.45929751 -273.27448728 783.414844 -253.125 812.4375 C-249.26274461 810.75948127 -246.13821305 808.23410053 -242.875 805.625 C-242.2665625 805.14289062 -241.658125 804.66078125 -241.03125 804.1640625 C-235.68128261 799.91236077 -230.38356029 795.59631328 -225.08886719 791.27612305 C-220.24150639 787.32640003 -215.34227975 783.44962255 -210.4140625 779.6015625 C-205.94063292 776.09973753 -201.52632798 772.52938836 -197.125 768.9375 C-191.60160315 764.42990027 -186.03315564 759.98907358 -180.4140625 755.6015625 C-175.94063292 752.09973753 -171.52632798 748.52938836 -167.125 744.9375 C-161.60160315 740.42990027 -156.03315564 735.98907358 -150.4140625 731.6015625 C-145.24898193 727.55830938 -140.16500757 723.41902753 -135.08374023 719.27124023 C-130.82189091 715.79856518 -126.52368899 712.37923694 -122.1875 709 C-116.9274431 704.89812077 -111.76249637 700.69171962 -106.625 696.4375 C-100.9335006 691.72452568 -95.19175554 687.09297156 -89.36328125 682.55078125 C-84.90410696 679.06896023 -80.50765769 675.51501928 -76.125 671.9375 C-70.60166343 667.42982786 -65.03315403 662.98907233 -59.4140625 658.6015625 C-54.94063078 655.09973586 -50.52640353 651.52929845 -46.125 647.9375 C-38.86198371 642.01247694 -31.51770391 636.19959512 -24.125 630.4375 C-22.70380859 629.32955078 -22.70380859 629.32955078 -21.25390625 628.19921875 C-19.21245497 626.61000785 -17.16975537 625.02245589 -15.125 623.4375 C-17.4316941 621.03853814 -19.82509939 618.81155879 -22.36328125 616.6640625 C-26.47061997 613.1765963 -30.39545828 609.51110767 -34.3125 605.8125 C-35.0542749 605.11390869 -35.7960498 604.41531738 -36.56030273 603.69555664 C-41.51714736 599.00858883 -46.37131727 594.23452077 -51.16333008 589.37988281 C-53.69286496 586.82890007 -56.26087247 584.38643347 -59 582.0625 C-63.64188126 578.12423021 -67.85766796 573.75537857 -72.11474609 569.41064453 C-78.45634777 562.86497618 -78.45634777 562.86497618 -86.4375 558.6875 C-87.654375 558.275 -88.87125 557.8625 -90.125 557.4375 C-89.9084375 558.09492187 -89.691875 558.75234375 -89.46875 559.4296875 C-85.19037666 574.04746306 -85.54394322 588.5659072 -92.55078125 602.21484375 C-95.22950118 606.92856021 -98.02535689 610.83781337 -102.125 614.4375 C-102.61355469 614.91703125 -103.10210937 615.3965625 -103.60546875 615.890625 C-113.97058585 625.64023634 -127.36260522 628.14224974 -141.125 627.74609375 C-153.45542803 627.03990716 -165.24267113 620.33235165 -173.5703125 611.3671875 C-183.1672197 599.45544841 -186.39124595 586.56047606 -185.35253906 571.53515625 C-184.06761125 559.68955563 -177.43767518 548.75689906 -168.96484375 540.6171875 C-159.91045957 533.66760515 -149.72470425 529.52937803 -138.375 528.875 C-137.32892578 528.81022461 -137.32892578 528.81022461 -136.26171875 528.74414062 C-134.54968078 528.63860404 -132.83736439 528.5376009 -131.125 528.4375 C-132.74094832 526.39630212 -134.4106382 524.39677063 -136.125 522.4375 C-136.785 522.4375 -137.445 522.4375 -138.125 522.4375 C-138.40279297 521.8487207 -138.68058594 521.25994141 -138.96679688 520.65332031 C-140.77918365 517.18594629 -143.21253127 514.25451451 -145.625 511.1875 C-146.12386719 510.5378125 -146.62273437 509.888125 -147.13671875 509.21875 C-148.41684193 507.58513436 -149.76605599 506.00615759 -151.125 504.4375 C-151.785 504.4375 -152.445 504.4375 -153.125 504.4375 C-153.351875 503.695 -153.57875 502.9525 -153.8125 502.1875 C-155.39163416 498.87883795 -157.2304706 497.64285574 -160.125 495.4375 C-163.72892478 491.72436538 -165.2050187 487.85747983 -166.99609375 483.109375 C-168.14577424 480.38833189 -169.50241468 478.00571248 -171.0625 475.5 C-174.93109755 469.28086217 -178.03136846 462.77595419 -180.3125 455.8125 C-180.87144234 453.27197997 -180.87144234 453.27197997 -183.125 452.4375 C-184.01953125 450.05859375 -184.01953125 450.05859375 -184.9375 446.875 C-186.39864661 441.88545491 -187.94290415 436.94027665 -189.5625 432 C-195.7323183 412.26519718 -198.35059169 393.09689837 -199.125 372.4375 C-199.17027832 371.37611816 -199.21555664 370.31473633 -199.26220703 369.22119141 C-200.03528843 348.83966056 -197.72017306 328.624797 -195.125 308.4375 C-194.98030273 307.28862305 -194.83560547 306.13974609 -194.68652344 304.95605469 C-193.88566302 299.38875467 -192.62832589 294.74428589 -190.16845703 289.68896484 C-188.23768066 285.52293309 -186.95608296 281.11864769 -185.5625 276.75 C-183.74779606 271.06446416 -181.87559658 265.75262339 -179.125 260.4375 C-178.41741674 257.2008037 -178.41741674 257.2008037 -178.125 254.4375 C-177.135 254.4375 -176.145 254.4375 -175.125 254.4375 C-172.64152173 248.07795603 -172.64152173 248.07795603 -171.125 241.4375 C-170.465 241.4375 -169.805 241.4375 -169.125 241.4375 C-168.67125 240.385625 -168.2175 239.33375 -167.75 238.25 C-167.47414062 237.61449219 -167.19828125 236.97898438 -166.9140625 236.32421875 C-166.25984992 234.75993818 -165.6820307 233.16396326 -165.125 231.5625 C-164.795 230.86125 -164.465 230.16 -164.125 229.4375 C-163.135 229.1075 -162.145 228.7775 -161.125 228.4375 C-158.97490142 226.10822653 -157.95502738 224.02029448 -156.75 221.0625 C-155.42589079 218.10871791 -154.47997098 216.47815671 -152.4375 214.125 C-149.90758603 211.77574032 -149.90758603 211.77574032 -150.125 209.4375 C-149.465 209.4375 -148.805 209.4375 -148.125 209.4375 C-146.98579233 208.10842438 -145.91586085 206.71992489 -144.875 205.3125 C-140.58576735 199.76826964 -135.74748372 194.93891428 -130.69824219 190.08544922 C-130.10688477 189.51068848 -129.51552734 188.93592773 -128.90625 188.34375 C-128.37064453 187.83134766 -127.83503906 187.31894531 -127.28320312 186.79101562 C-125.9082803 185.48113645 -125.9082803 185.48113645 -126.125 183.4375 C-125.60164062 183.21191406 -125.07828125 182.98632812 -124.5390625 182.75390625 C-121.26240757 180.96712193 -118.42061818 178.67955029 -115.5 176.375 C-109.36486486 171.55743243 -109.36486486 171.55743243 -107.125 170.4375 C-107.125 169.7775 -107.125 169.1175 -107.125 168.4375 C-106.568125 168.169375 -106.01125 167.90125 -105.4375 167.625 C-102.92533399 166.33496881 -100.53599474 164.90761874 -98.125 163.4375 C-95.1745492 161.63844464 -92.23931444 159.93698473 -89.125 158.4375 C-89.125 157.7775 -89.125 157.1175 -89.125 156.4375 C-88.196875 156.23125 -87.26875 156.025 -86.3125 155.8125 C-82.9800148 154.87358552 -80.29009866 153.44281279 -77.3125 151.6875 C-67.68495823 146.23945972 -56.72726928 143.41062313 -46.125 140.4375 C-46.125 139.7775 -46.125 139.1175 -46.125 138.4375 C-45.01253906 138.31375 -43.90007812 138.19 -42.75390625 138.0625 C-37.8016406 137.44333053 -32.94631904 136.45327548 -28.0625 135.4375 C-1.54011509 129.94599345 25.41617481 131.45346684 51.5 138.54296875 C54.21300857 139.26204162 56.86601843 139.82475147 59.625 140.3125 C64.46152918 141.33703195 68.59197283 143.70161504 72.94140625 145.984375 C76.22113321 147.60895347 79.48373022 148.72205176 82.9765625 149.78125 C85.49256054 150.65097772 87.59991586 152.07244951 89.875 153.4375 C91.195 153.4375 92.515 153.4375 93.875 153.4375 C93.875 154.0975 93.875 154.7575 93.875 155.4375 C94.47828125 155.76363281 95.0815625 156.08976563 95.703125 156.42578125 C96.50234375 156.86277344 97.3015625 157.29976562 98.125 157.75 C98.91390625 158.17925781 99.7028125 158.60851562 100.515625 159.05078125 C102.875 160.4375 102.875 160.4375 105.046875 162.10546875 C106.76741523 163.63379675 106.76741523 163.63379675 108.875 163.4375 C108.875 164.0975 108.875 164.7575 108.875 165.4375 C109.72771484 165.87449219 109.72771484 165.87449219 110.59765625 166.3203125 C123.14772727 172.98295455 123.14772727 172.98295455 125.875 178.4375 C126.555625 178.80875 127.23625 179.18 127.9375 179.5625 C132.1738432 182.26654885 135.4016413 185.83334537 138.875 189.4375 C140.69214025 191.26806739 142.5280063 193.07418115 144.375 194.875 C146.875 197.4375 146.875 197.4375 148.5625 199.75 C148.995625 200.306875 149.42875 200.86375 149.875 201.4375 C150.535 201.4375 151.195 201.4375 151.875 201.4375 C152.08125 202.0975 152.2875 202.7575 152.5 203.4375 C154.07226515 206.86789669 156.10375229 209.52629976 158.4375 212.47265625 C159.84054547 214.39040591 160.8780813 216.28549761 161.875 218.4375 C162.535 218.4375 163.195 218.4375 163.875 218.4375 C164.14570313 219.17355469 164.41640625 219.90960938 164.6953125 220.66796875 C165.82357571 223.31677212 167.09528833 225.40511067 168.75 227.75 C173.06250646 234.09809345 176.02165293 240.24805066 178.06640625 247.65234375 C178.46666016 248.53599609 178.46666016 248.53599609 178.875 249.4375 C179.865 249.7675 180.855 250.0975 181.875 250.4375 C182.46484375 252.15234375 182.46484375 252.15234375 182.8125 254.375 C183.47517935 257.85269741 184.37725824 260.92389995 185.75 264.1875 C188.24418444 270.13228546 190.0544154 276.2591331 191.875 282.4375 C192.535 282.4375 193.195 282.4375 193.875 282.4375 C194.03935547 283.4584375 194.03935547 283.4584375 194.20703125 284.5 C195.07128723 289.78390645 195.98946089 295.04486963 197.03833008 300.2956543 C198.43498139 307.35237388 199.30858688 314.24660559 199.6640625 321.44921875 C199.79292187 324.33144533 199.79292187 324.33144533 200.37548828 326.67504883 C201.48555942 332.81407861 201.11786851 339.20872818 201.125 345.4375 C201.12667175 346.20282043 201.12834351 346.96814087 201.13006592 347.75665283 C201.13159052 359.40553344 200.26826889 370.52403017 198.25097656 382.0078125 C197.44309913 387.22858926 197.07570282 392.51537721 196.69775391 397.78271484 C196.26407534 402.9022636 195.00172727 406.70661689 192.875 411.4375 C192.0262757 415.24890081 191.37450999 419.06537587 190.71875 422.9140625 C189.89723645 426.34464222 188.76637831 428.50611852 186.875 431.4375 C186.16098768 434.63145026 186.16098768 434.63145026 185.875 437.4375 C185.215 437.4375 184.555 437.4375 183.875 437.4375 C183.813125 438.4275 183.75125 439.4175 183.6875 440.4375 C183.12863372 444.42141821 181.41931777 446.98073127 179.19921875 450.26953125 C177.77710025 452.59777836 176.83259645 454.88521231 175.875 457.4375 C174.33600813 461.5061708 172.43015609 464.93655318 170.03515625 468.5546875 C168.89053281 470.41229186 168.05844733 472.22676533 167.25 474.25 C165.875 477.4375 165.875 477.4375 164.328125 478.87109375 C162.49509097 480.84702559 162.50007184 482.03859085 162.25 484.6875 C161.24444726 490.0273318 158.38621363 491.87838877 154.07421875 494.87109375 C151.45844324 496.73419495 149.63627551 498.75729814 147.875 501.4375 C147.875 502.0975 147.875 502.7575 147.875 503.4375 C147.215 503.4375 146.555 503.4375 145.875 503.4375 C143.50519987 506.39127498 143.50519987 506.39127498 143.875 510.4375 C143.27429688 510.69789063 142.67359375 510.95828125 142.0546875 511.2265625 C139.72215218 512.52241546 138.61907966 513.71775852 137 515.8125 C134.29285593 519.10313878 131.49243931 521.14891595 127.875 523.4375 C125.44482205 525.32763841 123.01545454 527.22105299 120.875 529.4375 C120.875 530.0975 120.875 530.7575 120.875 531.4375 C120.318125 531.705625 119.76125 531.97375 119.1875 532.25 C116.66274666 533.54649496 114.23785516 534.86226323 111.875 536.4375 C111.875 537.0975 111.875 537.7575 111.875 538.4375 C110.225 539.0975 108.575 539.7575 106.875 540.4375 C106.875 541.0975 106.875 541.7575 106.875 542.4375 C106.070625 542.64375 105.26625 542.85 104.4375 543.0625 C100.51028596 544.57826682 97.45274518 546.59346829 94.0234375 549 C91.875 550.4375 91.875 550.4375 89.6640625 551.5 C87.69544639 552.30938288 87.69544639 552.30938288 86.875 554.4375 C84.5609378 555.16825648 82.22671131 555.83888258 79.875 556.4375 C79.875 557.0975 79.875 557.7575 79.875 558.4375 C76.575 559.4275 73.275 560.4175 69.875 561.4375 C69.875 562.0975 69.875 562.7575 69.875 563.4375 C69.28509277 563.71279541 68.69518555 563.98809082 68.08740234 564.27172852 C65.9731876 565.38576244 64.31183658 566.56942184 62.4765625 568.08984375 C61.83936279 568.61352539 61.20216309 569.13720703 60.5456543 569.67675781 C59.87058838 570.23717773 59.19552246 570.79759766 58.5 571.375 C57.06198515 572.55694802 55.62316828 573.73792087 54.18359375 574.91796875 C53.46155762 575.51013184 52.73952148 576.10229492 51.99560547 576.71240234 C48.88272213 579.24471108 45.72648633 581.71954644 42.5625 584.1875 C37.48917214 588.15239359 32.47376272 592.17891237 27.50390625 596.2734375 C25.76771842 597.70263224 24.0256136 599.12467276 22.27734375 600.5390625 C15.54379995 605.99333215 8.98427552 611.63102716 2.453125 617.32421875 C1.56463867 618.09451416 1.56463867 618.09451416 0.65820312 618.88037109 C-0.54456219 619.93065001 -1.73845046 620.99117068 -2.92382812 622.06103516 C-6.49483915 625.23907818 -9.83022975 627.29011487 -14.125 629.4375 C-16.89161109 631.48596949 -19.50206123 633.709483 -22.125 635.9375 C-23.64345842 637.20831425 -25.16300408 638.47783042 -26.68359375 639.74609375 C-27.43495605 640.37370605 -28.18631836 641.00131836 -28.96044922 641.64794922 C-31.99292105 644.15505711 -35.08148894 646.58501341 -38.1875 649 C-43.21741996 652.91859127 -48.18554465 656.9054724 -53.125 660.9375 C-58.64833657 665.44517214 -64.21684597 669.88592767 -69.8359375 674.2734375 C-75.00101807 678.31669062 -80.08499243 682.45597247 -85.16625977 686.60375977 C-89.42810909 690.07643482 -93.72631101 693.49576306 -98.0625 696.875 C-103.3225569 700.97687923 -108.48750363 705.18328038 -113.625 709.4375 C-119.3164994 714.15047432 -125.05824446 718.78202844 -130.88671875 723.32421875 C-135.34589304 726.80603977 -139.74234231 730.35998072 -144.125 733.9375 C-149.64833657 738.44517214 -155.21684597 742.88592767 -160.8359375 747.2734375 C-165.30936708 750.77526247 -169.72367202 754.34561164 -174.125 757.9375 C-179.64839685 762.44509973 -185.21684436 766.88592642 -190.8359375 771.2734375 C-195.30936708 774.77526247 -199.72367202 778.34561164 -204.125 781.9375 C-209.64314777 786.440816 -215.20489369 790.87930908 -220.82055664 795.26025391 C-226.12182205 799.40736371 -231.3378347 803.65670529 -236.53320312 807.93554688 C-240.61888909 811.28219817 -244.79659973 814.41041233 -249.125 817.4375 C-243.61207615 829.67805974 -233.94521837 840.47145265 -225.125 850.4375 C-224.45726562 851.21609375 -223.78953125 851.9946875 -223.1015625 852.796875 C-211.91423866 865.62028968 -199.73340309 878.18801163 -186.125 888.4375 C-184.94073773 889.36112263 -183.75719741 890.28567138 -182.57421875 891.2109375 C-172.52474731 898.99203096 -162.01982182 905.90105973 -151.125 912.4375 C-150.40119141 912.87304199 -149.67738281 913.30858398 -148.93164062 913.75732422 C-103.00775961 941.07846203 -51.02983486 952.58737677 2 952.75 C3.23940338 952.75392761 3.23940338 952.75392761 4.50384521 952.75793457 C19.9369236 952.76312927 34.67969364 951.23663538 49.875 948.4375 C51.62472588 948.14419335 53.37471065 947.85242523 55.125 947.5625 C112.90221102 937.5043505 165.09063552 906.69270201 206.875 866.4375 C207.73996094 865.61378906 208.60492187 864.79007813 209.49609375 863.94140625 C214.22762227 859.34108129 218.44756805 854.45858903 222.56640625 849.3046875 C224.90445822 846.40091399 227.32298706 843.57959802 229.75 840.75 C250.61303852 815.71435377 265.63007393 785.83173533 276.875 755.4375 C277.18163574 754.61411133 277.48827148 753.79072266 277.80419922 752.94238281 C283.86281064 736.44426419 287.38404699 719.39239643 290.125 702.0625 C290.36984131 700.53206055 290.36984131 700.53206055 290.61962891 698.97070312 C292.86249411 684.01826844 293.07582496 669.02365927 293.0625 653.9375 C293.06289276 652.95867859 293.06328552 651.97985718 293.06369019 650.97137451 C293.05727612 637.06157942 292.83086907 623.16195591 292.4609375 609.2578125 C292.44078331 608.49922251 292.42062912 607.74063251 292.3998642 606.95905495 C292.204635 599.65520989 292.00304913 592.35154696 291.79467773 585.04806519 C291.17847258 563.34221028 290.79126397 541.64834885 290.6953125 519.93359375 C290.68460495 517.65391004 290.67383722 515.3742266 290.66300964 513.09454346 C290.65767873 511.96278183 290.65234781 510.8310202 290.64685535 509.66496277 C291.59293603 445.42084119 291.59293603 445.42084119 284.32958984 381.74853516 C283.76785853 378.89281622 283.60466498 376.10122797 283.4453125 373.1953125 C283.3740918 371.97690674 283.30287109 370.75850098 283.22949219 369.50317383 C283.15375977 368.20275146 283.07802734 366.9023291 283 365.5625 C282.17919159 352.42700774 280.91133741 339.44520275 278.875 326.4375 C278.72547882 325.4813681 278.72547882 325.4813681 278.57293701 324.50592041 C263.92057896 231.26339051 227.91183039 142.67890721 132.875 51.4375 C105.23319835 31.60044235 75.19897961 17.44748456 41.875 10.4375 C40.75834961 10.19773437 40.75834961 10.19773437 39.61914062 9.953125 C30.40294383 7.99689659 21.29868039 6.74268298 11.875 6.4375 C11.07271973 6.41026855 10.27043945 6.38303711 9.44384766 6.35498047 C-65.44813831 4.1551235 -132.60870949 41.15980813 -182.5625 95.1875 Z M-56.72265625 153.50390625 C-59.02497548 154.39862868 -61.33584289 155.18350249 -63.6875 155.9375 C-71.49382952 158.48930543 -79.24475488 161.92233914 -86.125 166.4375 C-86.455 167.0975 -86.785 167.7575 -87.125 168.4375 C-88.97265625 169.5078125 -88.97265625 169.5078125 -91.1875 170.5625 C-92.28771484 171.09230469 -92.28771484 171.09230469 -93.41015625 171.6328125 C-93.97605469 171.89835937 -94.54195313 172.16390625 -95.125 172.4375 C-95.125 173.0975 -95.125 173.7575 -95.125 174.4375 C-95.6715625 174.52257812 -96.218125 174.60765625 -96.78125 174.6953125 C-108.38178978 178.36881676 -119.85007085 192.12297788 -128.125 200.4375 C-128.90359375 201.19289062 -129.6821875 201.94828125 -130.484375 202.7265625 C-138.45713904 210.51694305 -146.06066193 218.50046329 -151.0546875 228.5625 C-152.19101182 230.55314115 -153.49691378 231.83932613 -155.125 233.4375 C-156.5753794 235.96370171 -156.5753794 235.96370171 -157.96484375 238.5234375 C-159.125 240.4375 -159.125 240.4375 -161.08984375 242.765625 C-163.32132683 245.69524961 -164.48019148 248.36353621 -165.75 251.8125 C-166.1728125 252.94945312 -166.595625 254.08640625 -167.03125 255.2578125 C-167.88190584 257.73079056 -168.61922542 260.15388877 -169.25 262.6875 C-169.683125 264.04875 -169.683125 264.04875 -170.125 265.4375 C-171.61 265.9325 -171.61 265.9325 -173.125 266.4375 C-175.14395225 269.40654742 -175.69100426 272.72269446 -176.48828125 276.1796875 C-177.18208077 278.63990911 -178.14804967 280.85342742 -179.1875 283.1875 C-181.207849 288.02296764 -181.57568103 292.39407605 -181.8515625 297.58984375 C-182.10430398 300.22196569 -182.59875597 302.12451387 -183.5625 304.5625 C-186.29772338 311.7625733 -186.42730445 319.82851438 -187.125 327.4375 C-187.785 327.4375 -188.445 327.4375 -189.125 327.4375 C-190.7786144 341.6113377 -191.47496371 355.56729404 -191.17822266 369.83740234 C-191.13434159 371.9811334 -191.11639715 374.12537898 -191.10546875 376.26953125 C-190.67840584 389.85645854 -187.05457556 403.22155853 -184.125 416.4375 C-183.83206055 417.78303955 -183.83206055 417.78303955 -183.53320312 419.15576172 C-181.82041969 427.0038647 -179.83357299 434.75098932 -177.5 442.4375 C-177.19050415 443.4725769 -177.19050415 443.4725769 -176.87475586 444.52856445 C-176.35283141 446.18545738 -175.74605271 447.81515822 -175.125 449.4375 C-174.465 449.7675 -173.805 450.0975 -173.125 450.4375 C-172.36131278 452.36331995 -171.60576311 454.29326223 -170.9140625 456.24609375 C-170.19522843 458.24245966 -169.40889281 460.18000642 -168.5625 462.125 C-167.74640884 464.00555789 -166.95074273 465.89615117 -166.22265625 467.8125 C-165.05223294 470.61151944 -163.6712279 473.14074042 -162.125 475.75 C-161.3515625 477.07451172 -161.3515625 477.07451172 -160.5625 478.42578125 C-159.8509375 479.42158203 -159.8509375 479.42158203 -159.125 480.4375 C-158.465 480.4375 -157.805 480.4375 -157.125 480.4375 C-156.815625 481.675 -156.815625 481.675 -156.5 482.9375 C-154.35907458 488.38712835 -150.95364672 492.63040298 -146.8046875 496.73046875 C-144.79525486 498.76040581 -142.96987342 500.76287409 -141.15234375 502.953125 C-140.64509766 503.56414062 -140.13785156 504.17515625 -139.61523438 504.8046875 C-138.57081798 506.07112449 -137.53183166 507.34205721 -136.49804688 508.6171875 C-135.99208984 509.22304688 -135.48613281 509.82890625 -134.96484375 510.453125 C-134.51488037 511.00258789 -134.06491699 511.55205078 -133.60131836 512.11816406 C-131.8361766 513.69561174 -130.43218338 514.04065828 -128.125 514.4375 C-128.05925781 514.99050781 -127.99351562 515.54351563 -127.92578125 516.11328125 C-124.18508967 526.97041046 -107.12288683 536.64702317 -98.125 542.4375 C-95.80851201 543.47592565 -93.47596976 544.4796975 -91.125 545.4375 C-87.79673953 546.87674777 -87.24320073 547.26019891 -85.125 550.4375 C-82.80560793 551.1511591 -80.46976551 551.8122292 -78.125 552.4375 C-75.18509532 553.78985615 -72.49322703 555.18869795 -69.8125 557 C-67.33419318 558.32560597 -65.70777093 558.79787924 -63 559.3125 C-59.3614522 560.00961775 -56.53098783 561.17842037 -53.2578125 562.89453125 C-46.3972282 566.06888272 -39.58525719 566.69520911 -32.125 567.25 C-30.70816759 567.36658157 -29.29133821 567.48320003 -27.87451172 567.59985352 C-3.51698894 569.51427188 22.79443891 570.69401976 45.875 561.4375 C49.43953855 560.40496061 53.01799966 559.44927517 56.60546875 558.5 C59.74845579 557.47862309 62.20069907 556.37145774 64.875 554.4375 C64.875 553.7775 64.875 553.1175 64.875 552.4375 C65.535 552.52 66.195 552.6025 66.875 552.6875 C70.44453119 552.39003907 72.6338018 551.18869866 75.75390625 549.51953125 C77.84413535 548.45324495 79.92085329 547.61288847 82.125 546.8125 C84.84765759 545.81419222 87.33661014 544.81246117 89.875 543.4375 C89.875 542.7775 89.875 542.1175 89.875 541.4375 C90.58914063 541.18613281 91.30328125 540.93476562 92.0390625 540.67578125 C95.14265787 539.3206301 97.54195461 537.65409418 100.25 535.625 C103.48659219 533.21178986 106.72772686 530.83775255 110.0625 528.5625 C111.4546875 527.510625 111.4546875 527.510625 112.875 526.4375 C112.875 525.7775 112.875 525.1175 112.875 524.4375 C113.59171875 524.19902344 114.3084375 523.96054687 115.046875 523.71484375 C118.31428911 522.2390918 120.47951458 520.41182728 123.125 518 C124.43210937 516.82630859 124.43210937 516.82630859 125.765625 515.62890625 C128.08019341 513.53871219 128.08019341 513.53871219 128.875 510.4375 C129.865 509.7775 130.855 509.1175 131.875 508.4375 C131.875 507.4475 131.875 506.4575 131.875 505.4375 C132.865 505.1075 133.855 504.7775 134.875 504.4375 C136.55715965 502.81581888 136.55715965 502.81581888 138.1875 500.8125 C138.80238281 500.08546875 139.41726563 499.3584375 140.05078125 498.609375 C140.65277344 497.89265625 141.25476563 497.1759375 141.875 496.4375 C142.38417969 495.86515625 142.89335937 495.2928125 143.41796875 494.703125 C151.05801396 486.10039313 156.95451707 476.25777929 162.875 466.4375 C163.43703125 465.52871094 163.9990625 464.61992187 164.578125 463.68359375 C165.95792244 461.54318989 165.95792244 461.54318989 166.375 459.3125 C166.875 457.4375 166.875 457.4375 168.25 456.125 C170.64538004 453.63748996 171.53283714 450.58866498 172.875 447.4375 C173.535 447.1075 174.195 446.7775 174.875 446.4375 C175.66997548 444.46705393 175.66997548 444.46705393 176.27734375 442.0625 C176.52806641 441.15886719 176.77878906 440.25523437 177.03710938 439.32421875 C177.29298828 438.37160156 177.54886719 437.41898437 177.8125 436.4375 C179.43626278 430.49893025 181.07666876 424.60701385 183.13110352 418.80078125 C183.99060205 416.07024439 184.67351039 413.30681493 185.35398865 410.52703857 C185.83528961 408.59676025 186.35774263 406.676868 186.88378906 404.75830078 C189.51635555 394.95192678 190.88239228 385.42623432 191.625 375.3125 C191.68504211 374.54346344 191.74508423 373.77442688 191.8069458 372.98208618 C194.35848959 343.80263197 194.35848959 343.80263197 190.72265625 314.99609375 C189.85046826 311.33451193 189.33173228 307.73153502 188.84472656 304.00390625 C187.74935087 295.65050293 186.09154101 288.34241636 183.00390625 280.48046875 C181.68873654 276.93542653 180.98435725 273.47534413 180.33984375 269.76171875 C179.42425797 265.18378985 177.96509927 260.61769854 175.875 256.4375 C175.215 256.4375 174.555 256.4375 173.875 256.4375 C173.75044434 255.85266846 173.62588867 255.26783691 173.49755859 254.6652832 C172.87640898 252.44254194 172.07305518 250.78030499 170.9140625 248.79296875 C170.52476562 248.11556641 170.13546875 247.43816406 169.734375 246.74023438 C169.12335938 245.69319336 169.12335938 245.69319336 168.5 244.625 C165.61002005 239.66076025 163.03407988 234.76555196 160.875 229.4375 C160.215 229.4375 159.555 229.4375 158.875 229.4375 C158.606875 228.695 158.33875 227.9525 158.0625 227.1875 C156.92223249 224.54688051 155.78119694 222.58197156 153.875 220.4375 C153.215 220.4375 152.555 220.4375 151.875 220.4375 C151.78476562 219.70144531 151.69453125 218.96539062 151.6015625 218.20703125 C150.74678562 214.94876883 149.55260925 213.55651981 147.25 211.125 C146.17105469 209.96484375 146.17105469 209.96484375 145.0703125 208.78125 C144.34585937 208.0078125 143.62140625 207.234375 142.875 206.4375 C141.61914159 205.00511531 140.36872312 203.56793418 139.125 202.125 C134.74334385 196.75372488 134.74334385 196.75372488 128.875 193.4375 C128.545 192.7775 128.215 192.1175 127.875 191.4375 C127.215 191.4375 126.555 191.4375 125.875 191.4375 C125.875 190.7775 125.875 190.1175 125.875 189.4375 C125.215 189.4375 124.555 189.4375 123.875 189.4375 C123.875 188.7775 123.875 188.1175 123.875 187.4375 C123.215 187.4375 122.555 187.4375 121.875 187.4375 C121.648125 186.81875 121.42125 186.2 121.1875 185.5625 C119.47309523 182.78679703 117.93397305 182.40741828 114.875 181.4375 C113.885 181.1075 112.895 180.7775 111.875 180.4375 C111.5241963 179.10865627 111.19269348 177.77464612 110.875 176.4375 C106.73288026 171.76925364 101.06889249 168.40086783 95.8125 165.125 C94.7905957 164.46274414 94.7905957 164.46274414 93.74804688 163.78710938 C89.78998736 161.30429203 86.63624151 159.8311752 81.875 159.4375 C81.875 158.7775 81.875 158.1175 81.875 157.4375 C81.34132813 157.27894531 80.80765625 157.12039062 80.2578125 156.95703125 C75.92199623 155.59927564 71.91152758 154.03168594 67.875 151.9375 C58.3016514 147.04835867 48.40321518 145.15448463 37.875 143.4375 C36.658125 143.22867188 35.44125 143.01984375 34.1875 142.8046875 C2.90421524 138.25322599 -27.4820704 141.63213601 -56.72265625 153.50390625 Z " fill="#0F1010" transform="translate(309.125,0.5625)"/>
<path d="M0 0 C0.88520325 0.00270905 1.77040649 0.00541809 2.68243408 0.00820923 C17.72004572 0.07759177 32.1473849 1.20278017 46.875 4.4375 C47.70966797 4.61410156 48.54433594 4.79070313 49.40429688 4.97265625 C84.93794749 12.70358749 116.45287242 30.28297847 144.875 52.4375 C145.83792969 53.18515625 146.80085938 53.9328125 147.79296875 54.703125 C161.17208641 65.37479935 173.74992033 77.4364265 184.875 90.4375 C185.67679687 91.35015625 186.47859375 92.2628125 187.3046875 93.203125 C195.11868364 102.17052644 202.07232639 111.68794567 208.875 121.4375 C209.55393311 122.40840576 209.55393311 122.40840576 210.24658203 123.39892578 C256.342733 189.75712113 280.9396141 271.19399232 289.84814453 366.34033203 C290.61273204 375.76851054 291.58139801 385.14933338 292.87353516 394.52197266 C293.65922189 400.50644963 294.08571731 406.47264877 294.37974548 412.49742126 C294.42276289 413.37278973 294.4657803 414.24815819 294.51010126 415.15005296 C294.97487757 424.99815886 295.21969138 434.84939547 295.44750977 444.70532227 C295.49670596 446.74998476 295.54612064 448.79464201 295.59573364 450.83929443 C295.72834262 456.33402893 295.85762932 461.82883658 295.9860394 467.32367063 C296.09440795 471.949081 296.20435391 476.5744534 296.31425327 481.19982761 C296.5741811 492.14219468 296.83129548 503.0846254 297.08666992 514.02709961 C297.34785144 525.21611811 297.61397505 536.40501128 297.88255268 547.59385449 C298.11487686 557.28042963 298.34392374 566.96707878 298.57050556 576.65378994 C298.70502412 582.40307974 298.84068646 588.1523359 298.97958565 593.90152168 C299.4801129 614.67009286 299.97087954 635.43511697 299.98413086 656.21069336 C299.98531516 656.91045638 299.98649946 657.6102194 299.98771966 658.33118737 C300.06044884 740.72153173 266.12342422 816.15138822 208.875 874.4375 C200.43724568 882.81834279 191.34653267 890.26445485 181.875 897.4375 C181.30088379 897.87916504 180.72676758 898.32083008 180.13525391 898.77587891 C165.07195017 910.34905953 148.93097564 920.49419549 131.72509766 928.56542969 C129.90537157 929.42318392 128.09898066 930.30904711 126.29296875 931.1953125 C95.00308071 946.43975959 60.51240759 955.40716729 25.875 958.4375 C24.63878906 958.54835938 23.40257812 958.65921875 22.12890625 958.7734375 C-56.34266841 964.71703681 -136.17317976 940.24276598 -196.12890625 888.86328125 C-197.77092039 887.38672197 -199.40219713 885.89808307 -201.01953125 884.39453125 C-202.92891744 882.61975856 -204.88420568 880.93194992 -206.875 879.25 C-215.89300748 871.3890892 -224.54443999 862.69359152 -232.125 853.4375 C-232.54426758 852.93202637 -232.96353516 852.42655273 -233.39550781 851.90576172 C-239.86852909 844.08179118 -245.92627657 836.0808516 -251.55957031 827.62890625 C-253.88562945 824.09311498 -253.88562945 824.09311498 -256.66650391 820.92114258 C-258.94906255 818.59922948 -260.04132341 815.79894683 -261.4375 812.875 C-263.44588658 808.67564625 -265.54815041 804.69802612 -267.99609375 800.73828125 C-291.65336474 761.7449288 -302.32205799 712.74960241 -303.5546875 667.5859375 C-303.58950729 666.39849945 -303.62432709 665.2110614 -303.66020203 663.98764038 C-303.75686173 660.64243967 -303.85001597 657.29717818 -303.94127274 653.951828 C-304.00051944 651.79357765 -304.06120205 649.635372 -304.12228394 647.47717285 C-304.78524293 623.9944298 -305.34308957 600.50919235 -305.88671875 577.0234375 C-305.90318482 576.31263959 -305.9196509 575.60184169 -305.93661594 574.86950445 C-306.27215095 560.38254931 -306.60529819 545.89554223 -306.92937368 531.40832579 C-307.05399596 525.8381218 -307.17987483 520.26794706 -307.30655771 514.69778955 C-307.38039525 511.446809 -307.45322551 508.1958109 -307.52457237 504.94477463 C-307.85355008 489.95627001 -308.29559475 474.97919249 -308.91044617 459.9995575 C-309.21233997 452.50104188 -309.3674043 445.00488662 -309.375 437.5 C-309.37651062 436.40735336 -309.37651062 436.40735336 -309.37805176 435.29263306 C-309.30516377 354.74175859 -292.6578436 273.73353525 -259.125 200.4375 C-258.66899414 199.43509277 -258.21298828 198.43268555 -257.74316406 197.39990234 C-241.14222163 161.1501437 -219.46064999 127.3944252 -193.125 97.4375 C-191.92423828 96.06851563 -191.92423828 96.06851563 -190.69921875 94.671875 C-178.51858842 81.10837373 -165.7444714 67.39169082 -151.125 56.4375 C-149.91854731 55.50353804 -148.71287891 54.56856246 -147.5078125 53.6328125 C-104.89611067 20.80093213 -54.2736319 -0.39377129 0 0 Z M-182.5625 95.1875 C-187.63607805 100.76275024 -192.44495704 106.52782792 -197.125 112.4375 C-198.17187004 113.73047276 -199.21874544 115.0234412 -200.265625 116.31640625 C-209.74899521 128.14797519 -218.05595669 140.60941292 -226.125 153.4375 C-226.76381104 154.44296875 -226.76381104 154.44296875 -227.41552734 155.46875 C-270.47713347 223.50198481 -294.10624766 305.47103787 -300.125 385.4375 C-300.17507202 386.08686523 -300.22514404 386.73623047 -300.2767334 387.40527344 C-302.11943819 411.42825656 -302.43096216 435.35498315 -302.125 459.4375 C-302.1106189 460.59946899 -302.09623779 461.76143799 -302.0814209 462.95861816 C-301.96560473 472.16016798 -301.83123262 481.36135426 -301.6875 490.5625 C-301.66803314 491.85220703 -301.64856628 493.14191406 -301.62850952 494.47070312 C-301.5707282 498.19149957 -301.50704702 501.91214725 -301.44140625 505.6328125 C-301.42467865 506.73247345 -301.40795105 507.8321344 -301.39071655 508.96511841 C-301.28974637 514.31408932 -301.06213396 519.6174794 -300.62280273 524.94995117 C-300.09889952 531.31814614 -299.92431746 537.65551681 -299.84375 544.04296875 C-299.81613586 545.78734978 -299.81613586 545.78734978 -299.78796387 547.56697083 C-299.72989947 551.25293507 -299.67691969 554.93894447 -299.625 558.625 C-299.40900669 573.67085191 -299.11543114 588.69824399 -298.48692322 603.73297119 C-298.17247833 611.50775854 -297.9904372 619.27836172 -297.87890625 627.05859375 C-297.86221893 628.19542099 -297.84553162 629.33224823 -297.82833862 630.50352478 C-297.76285291 635.11240245 -297.70062439 639.72127618 -297.64819336 644.33032227 C-297.31485414 676.7740007 -297.31485414 676.7740007 -293 708.875 C-292.78972168 709.96296875 -292.57944336 711.0509375 -292.36279297 712.171875 C-285.43183542 746.45929751 -273.27448728 783.414844 -253.125 812.4375 C-249.26274461 810.75948127 -246.13821305 808.23410053 -242.875 805.625 C-242.2665625 805.14289062 -241.658125 804.66078125 -241.03125 804.1640625 C-235.68128261 799.91236077 -230.38356029 795.59631328 -225.08886719 791.27612305 C-220.24150639 787.32640003 -215.34227975 783.44962255 -210.4140625 779.6015625 C-205.94063292 776.09973753 -201.52632798 772.52938836 -197.125 768.9375 C-191.60160315 764.42990027 -186.03315564 759.98907358 -180.4140625 755.6015625 C-175.94063292 752.09973753 -171.52632798 748.52938836 -167.125 744.9375 C-161.60160315 740.42990027 -156.03315564 735.98907358 -150.4140625 731.6015625 C-145.24898193 727.55830938 -140.16500757 723.41902753 -135.08374023 719.27124023 C-130.82189091 715.79856518 -126.52368899 712.37923694 -122.1875 709 C-116.9274431 704.89812077 -111.76249637 700.69171962 -106.625 696.4375 C-100.9335006 691.72452568 -95.19175554 687.09297156 -89.36328125 682.55078125 C-84.90410696 679.06896023 -80.50765769 675.51501928 -76.125 671.9375 C-70.60166343 667.42982786 -65.03315403 662.98907233 -59.4140625 658.6015625 C-54.94063078 655.09973586 -50.52640353 651.52929845 -46.125 647.9375 C-38.86198371 642.01247694 -31.51770391 636.19959512 -24.125 630.4375 C-22.70380859 629.32955078 -22.70380859 629.32955078 -21.25390625 628.19921875 C-19.21245497 626.61000785 -17.16975537 625.02245589 -15.125 623.4375 C-17.4316941 621.03853814 -19.82509939 618.81155879 -22.36328125 616.6640625 C-26.47061997 613.1765963 -30.39545828 609.51110767 -34.3125 605.8125 C-35.0542749 605.11390869 -35.7960498 604.41531738 -36.56030273 603.69555664 C-41.51488303 599.01072988 -46.3670518 594.23903667 -51.15673828 589.38647461 C-54.32467082 586.19158328 -57.60909677 583.21647589 -61.03515625 580.3046875 C-65.5976012 576.22833482 -69.83584962 571.79761058 -74.125 567.4375 C-60.64434471 570.7540382 -53.07103194 576.35878221 -43.86865234 586.59887695 C-42.15257134 588.40842694 -40.37121729 590.01733563 -38.47265625 591.6328125 C-32.53431075 596.70922093 -27.12355257 602.33313243 -21.625 607.875 C-20.50544368 608.9995833 -19.38565371 610.12393405 -18.265625 611.24804688 C-15.54938466 613.97519344 -12.83631708 616.70545907 -10.125 619.4375 C-6.49098423 617.72627436 -3.99862897 615.63816113 -1.0625 612.875 C2.62863459 609.4421517 6.37910259 606.15811908 10.3125 603 C14.8412304 599.34738245 19.11988214 595.50287268 23.37451172 591.54125977 C27.63284738 587.60038893 32.06337798 583.934596 36.59765625 580.3125 C38.83329595 578.60141084 38.83329595 578.60141084 40.171875 576.82421875 C43.01833965 574.50656978 46.55324604 574.03766661 50.0625 573.25 C50.81208984 573.07275391 51.56167969 572.89550781 52.33398438 572.71289062 C54.17874819 572.27813737 56.02660066 571.85652724 57.875 571.4375 C51.39137061 577.00566677 44.87186522 582.50222184 38.125 587.75 C25.86100505 597.3043674 13.94760881 607.27086316 2.2421875 617.5 C1.68756836 617.98210938 1.13294922 618.46421875 0.56152344 618.9609375 C-0.59973008 619.97762269 -1.75228421 621.00430226 -2.89746094 622.0390625 C-6.47742704 625.22474193 -9.82007505 627.28503752 -14.125 629.4375 C-16.89161109 631.48596949 -19.50206123 633.709483 -22.125 635.9375 C-23.64345842 637.20831425 -25.16300408 638.47783042 -26.68359375 639.74609375 C-27.43495605 640.37370605 -28.18631836 641.00131836 -28.96044922 641.64794922 C-31.99292105 644.15505711 -35.08148894 646.58501341 -38.1875 649 C-43.21741996 652.91859127 -48.18554465 656.9054724 -53.125 660.9375 C-58.64833657 665.44517214 -64.21684597 669.88592767 -69.8359375 674.2734375 C-75.00101807 678.31669062 -80.08499243 682.45597247 -85.16625977 686.60375977 C-89.42810909 690.07643482 -93.72631101 693.49576306 -98.0625 696.875 C-103.3225569 700.97687923 -108.48750363 705.18328038 -113.625 709.4375 C-119.3164994 714.15047432 -125.05824446 718.78202844 -130.88671875 723.32421875 C-135.34589304 726.80603977 -139.74234231 730.35998072 -144.125 733.9375 C-149.64833657 738.44517214 -155.21684597 742.88592767 -160.8359375 747.2734375 C-165.30936708 750.77526247 -169.72367202 754.34561164 -174.125 757.9375 C-179.64839685 762.44509973 -185.21684436 766.88592642 -190.8359375 771.2734375 C-195.30936708 774.77526247 -199.72367202 778.34561164 -204.125 781.9375 C-209.64314777 786.440816 -215.20489369 790.87930908 -220.82055664 795.26025391 C-226.12182205 799.40736371 -231.3378347 803.65670529 -236.53320312 807.93554688 C-240.61888909 811.28219817 -244.79659973 814.41041233 -249.125 817.4375 C-243.61207615 829.67805974 -233.94521837 840.47145265 -225.125 850.4375 C-224.45726562 851.21609375 -223.78953125 851.9946875 -223.1015625 852.796875 C-211.91423866 865.62028968 -199.73340309 878.18801163 -186.125 888.4375 C-184.94073773 889.36112263 -183.75719741 890.28567138 -182.57421875 891.2109375 C-172.52474731 898.99203096 -162.01982182 905.90105973 -151.125 912.4375 C-150.40119141 912.87304199 -149.67738281 913.30858398 -148.93164062 913.75732422 C-103.00775961 941.07846203 -51.02983486 952.58737677 2 952.75 C3.23940338 952.75392761 3.23940338 952.75392761 4.50384521 952.75793457 C19.9369236 952.76312927 34.67969364 951.23663538 49.875 948.4375 C51.62472588 948.14419335 53.37471065 947.85242523 55.125 947.5625 C112.90221102 937.5043505 165.09063552 906.69270201 206.875 866.4375 C207.73996094 865.61378906 208.60492187 864.79007813 209.49609375 863.94140625 C214.22762227 859.34108129 218.44756805 854.45858903 222.56640625 849.3046875 C224.90445822 846.40091399 227.32298706 843.57959802 229.75 840.75 C250.61303852 815.71435377 265.63007393 785.83173533 276.875 755.4375 C277.18163574 754.61411133 277.48827148 753.79072266 277.80419922 752.94238281 C283.86281064 736.44426419 287.38404699 719.39239643 290.125 702.0625 C290.36984131 700.53206055 290.36984131 700.53206055 290.61962891 698.97070312 C292.86249411 684.01826844 293.07582496 669.02365927 293.0625 653.9375 C293.06289276 652.95867859 293.06328552 651.97985718 293.06369019 650.97137451 C293.05727612 637.06157942 292.83086907 623.16195591 292.4609375 609.2578125 C292.44078331 608.49922251 292.42062912 607.74063251 292.3998642 606.95905495 C292.204635 599.65520989 292.00304913 592.35154696 291.79467773 585.04806519 C291.17847258 563.34221028 290.79126397 541.64834885 290.6953125 519.93359375 C290.68460495 517.65391004 290.67383722 515.3742266 290.66300964 513.09454346 C290.65767873 511.96278183 290.65234781 510.8310202 290.64685535 509.66496277 C291.59293603 445.42084119 291.59293603 445.42084119 284.32958984 381.74853516 C283.76785853 378.89281622 283.60466498 376.10122797 283.4453125 373.1953125 C283.3740918 371.97690674 283.30287109 370.75850098 283.22949219 369.50317383 C283.15375977 368.20275146 283.07802734 366.9023291 283 365.5625 C282.17919159 352.42700774 280.91133741 339.44520275 278.875 326.4375 C278.72547882 325.4813681 278.72547882 325.4813681 278.57293701 324.50592041 C263.92057896 231.26339051 227.91183039 142.67890721 132.875 51.4375 C105.23319835 31.60044235 75.19897961 17.44748456 41.875 10.4375 C40.75834961 10.19773437 40.75834961 10.19773437 39.61914062 9.953125 C30.40294383 7.99689659 21.29868039 6.74268298 11.875 6.4375 C11.07271973 6.41026855 10.27043945 6.38303711 9.44384766 6.35498047 C-65.44813831 4.1551235 -132.60870949 41.15980813 -182.5625 95.1875 Z " fill="#030404" transform="translate(309.125,0.5625)"/>
<path d="M0 0 C0.71671875 -0.00773438 1.4334375 -0.01546875 2.171875 -0.0234375 C15.02061545 0.02294784 25.506594 5.35435636 34.625 14.25 C41.73411145 23.3959917 45.20883317 31.95931632 45.125 43.5 C45.11855469 44.42659424 45.11210938 45.35318848 45.10546875 46.30786133 C44.78199826 58.46673398 40.16540931 67.61984909 31.625 76.25 C28.46533108 78.94425124 25.21311041 81.16568933 21.625 83.25 C20.54025391 83.90162109 20.54025391 83.90162109 19.43359375 84.56640625 C10.15181194 89.19922604 -3.11348264 88.71285016 -13 86.125 C-17.96364515 84.29720048 -22.15592876 81.39114485 -26.375 78.25 C-27.24125 77.6725 -28.1075 77.095 -29 76.5 C-38.04846409 67.92777087 -42.28811671 57.21689895 -42.89648438 44.88500977 C-43.13108801 32.31556126 -38.94096134 22.49128609 -30.375 13.25 C-21.82162392 4.5935712 -12.24789677 -0.13076046 0 0 Z " fill="#FDFDFD" transform="translate(469.375,523.75)"/>
<path d="M0 0 C2.1875 1.75390625 2.1875 1.75390625 3.1875 4.75390625 C4.50761044 5.13626382 5.8441047 5.46377187 7.1875 5.75390625 C15.16213499 10.58864022 18.73146449 19.08745497 21.1875 27.75390625 C22.61185184 42.21273362 19.43461732 55.39872962 10.1875 66.75390625 C1.1084563 75.81745671 -9.69976979 80.83189868 -22.5 81.00390625 C-35.3336738 80.87008275 -45.27438007 76.26624215 -54.625 67.50390625 C-58.87258969 63.03157637 -61.55622893 58.46979295 -63.8125 52.75390625 C-64.13089844 51.96242188 -64.44929687 51.1709375 -64.77734375 50.35546875 C-68.28784003 40.35783419 -68.03858517 29.48336353 -63.8125 19.75390625 C-57.20365794 6.97301342 -48.44944266 -1.39353204 -34.8125 -6.24609375 C-21.96530539 -9.41618073 -10.88077784 -6.99694464 0 0 Z " fill="#FDFDFD" transform="translate(195.8125,542.24609375)"/>
<path d="M0 0 C1.54262145 0.28657394 3.08405606 0.57953877 4.625 0.875 C5.91277344 1.11863281 5.91277344 1.11863281 7.2265625 1.3671875 C10 2 10 2 12.86328125 3.00390625 C16.43425484 4.1379016 19.84442197 4.61603049 23.5625 5.0625 C30.71103211 5.93356987 30.71103211 5.93356987 33.23657227 6.51416016 C36.75089648 7.13201555 40.21616181 7.20044433 43.7734375 7.23828125 C44.52599823 7.24789383 45.27855896 7.25750641 46.05392456 7.26741028 C48.49432913 7.2921493 50.93448448 7.30468204 53.375 7.3125 C54.61920715 7.31742462 54.61920715 7.31742462 55.8885498 7.32244873 C69.61805691 7.3400413 82.60309282 6.14185312 96 3 C97.70274549 2.62068818 99.40585854 2.24302168 101.109375 1.8671875 C102.39328125 1.58101562 103.6771875 1.29484375 105 1 C98.1997383 7.87338279 91.09121572 14.36876677 83.5625 20.4375 C79.03296699 24.09076489 74.75346743 27.93588661 70.49829102 31.8984375 C66.27801795 35.80444223 61.87441227 39.44522237 57.375 43.02734375 C55.1101357 44.90852216 53.04485817 46.88413981 51 49 C46.72403882 47.35275662 43.89924223 44.13382147 40.765625 40.92578125 C40.16876892 40.3237236 39.57191284 39.72166595 38.95697021 39.10136414 C37.04982435 37.17644085 35.14947934 35.24498653 33.25 33.3125 C30.75861983 30.7843691 28.26407171 28.25942902 25.765625 25.73828125 C24.86704773 24.83145599 24.86704773 24.83145599 23.95031738 23.90631104 C20.3111636 20.25512049 16.59340638 16.76036784 12.65917969 13.42553711 C9.97383581 11.11833833 7.49988966 8.6318338 5 6.125 C4.51144531 5.6403125 4.02289063 5.155625 3.51953125 4.65625 C0 1.12686012 0 1.12686012 0 0 Z " fill="#FAFAFA" transform="translate(250,571)"/>
<path d="M0 0 C12.73477261 7.89002216 21.14721488 18.30495287 25.57421875 32.83300781 C27.30270701 41.26379751 27.14930381 50.8375105 24.19921875 58.95800781 C23.73902344 60.32505859 23.73902344 60.32505859 23.26953125 61.71972656 C18.38965382 74.86174128 9.69449241 84.40027646 -2.92578125 90.45800781 C-15.04510156 95.68594991 -27.58154072 97.12529373 -40.23828125 92.83300781 C-55.19236594 86.76320926 -65.29486571 76.77203157 -71.80078125 61.95800781 C-73.82995445 56.26955893 -74.15204879 51.11289898 -74.11328125 45.14550781 C-74.10590942 43.81265747 -74.10590942 43.81265747 -74.09838867 42.45288086 C-73.98644744 36.20081933 -73.45888709 30.69392041 -70.80078125 24.95800781 C-70.47207031 24.219375 -70.14335937 23.48074219 -69.8046875 22.71972656 C-64.95702635 13.00763035 -57.28404698 5.15452903 -47.80078125 -0.04199219 C-46.97707031 -0.52796875 -46.15335937 -1.01394531 -45.3046875 -1.51464844 C-32.20262887 -8.18647687 -12.66696232 -7.32952755 0 0 Z M-43.80078125 4.95800781 C-44.55488281 5.37050781 -45.30898438 5.78300781 -46.0859375 6.20800781 C-57.30763794 12.98337411 -63.72404599 22.72780202 -67.80078125 34.95800781 C-68.76460091 49.33630116 -67.32044736 61.71960523 -58.14453125 73.44628906 C-50.09307926 82.07476177 -40.41721531 87.62474368 -28.578125 88.23144531 C-15.42586311 88.62131302 -5.29098888 86.72726501 5.1015625 78.03222656 C9.097614 74.08082368 12.23968868 69.72131467 15.19921875 64.95800781 C15.65683594 64.23484375 16.11445313 63.51167969 16.5859375 62.76660156 C21.32691988 53.46762209 20.64391737 40.22280689 18.3515625 30.28222656 C13.62314987 17.92423966 4.4041992 8.59866105 -7.55078125 3.08300781 C-18.80251865 -0.81182437 -33.31835647 -1.02127192 -43.80078125 4.95800781 Z " fill="#0A0B0B" transform="translate(494.80078125,523.0419921875)"/>
<path d="M0 0 C1.20527344 -0.06058594 2.41054687 -0.12117187 3.65234375 -0.18359375 C8.39791211 0.68071939 9.37012772 2.54965312 12.0625 6.4375 C11.02351563 6.47488281 9.98453125 6.51226563 8.9140625 6.55078125 C-4.72280712 7.14689276 -17.72948289 9.49811492 -27.9375 19.4375 C-36.93429729 31.06505721 -41.2832728 41.61717709 -39.9375 56.4375 C-37.20600916 69.98631537 -30.78481287 79.04936054 -19.9375 87.4375 C-10.10855071 93.78685775 1.43062788 94.8842504 12.8359375 92.97265625 C24.49247805 89.86547115 34.20218463 82.7908856 40.4140625 72.55078125 C46.12554563 61.76392804 48.55867543 49.26275802 44.93359375 37.375 C43.78954693 34.00054256 42.47414986 30.70950272 41.0625 27.4375 C42.73549959 28.08811095 44.40109237 28.75783324 46.0625 29.4375 C46.78953125 29.72625 47.5165625 30.015 48.265625 30.3125 C51.32074134 32.22526849 51.63748493 34.77031548 52.51953125 38.1328125 C55.1535532 54.16434177 52.37636517 68.00224949 43.0625 81.4375 C35.93564731 91.11926214 24.56097566 97.84885083 12.765625 100.1171875 C-3.15050335 102.00320271 -15.92465467 99.24224787 -28.9375 89.4375 C-38.54635763 81.42734312 -45.79637747 69.9573764 -47.16503906 57.33984375 C-48.23504704 41.86174098 -44.66507672 29.11171818 -34.890625 16.875 C-25.94567791 7.02955489 -13.35604223 0.47038356 0 0 Z " fill="#080808" transform="translate(169.9375,528.5625)"/>
<path d="M0 0 C7 8.44827586 7 8.44827586 7 13 C7.66 13 8.32 13 9 13 C9.19335938 13.66386719 9.38671875 14.32773437 9.5859375 15.01171875 C9.84632813 15.89472656 10.10671875 16.77773438 10.375 17.6875 C10.63023437 18.55761719 10.88546875 19.42773438 11.1484375 20.32421875 C11.95738276 22.99067902 11.95738276 22.99067902 13.01171875 25.46875 C14.4470563 29.14502957 15.23363953 32.93065787 16.12109375 36.76953125 C16.95413199 40.10135642 16.95413199 40.10135642 18.46875 43.54296875 C20.69017126 49.31481383 21.25635744 55.40251018 22.0625 61.5 C23.14009095 70.34533358 23.14009095 70.34533358 25.1015625 79.015625 C26.61058341 84.64733532 26.33842016 90.46141753 26.3125 96.25 C26.30621582 98.18770264 26.30621582 98.18770264 26.29980469 100.16455078 C26.20762856 110.76385078 25.58190631 121.31041425 24.75 131.875 C24.6955069 132.61528442 24.64101379 133.35556885 24.58486938 134.11828613 C23.9734869 142.2188507 22.95946235 150.04764944 21.015625 157.9453125 C20.8485907 158.62568573 20.6815564 159.30605896 20.50946045 160.00704956 C19.71992306 163.00277753 19.22795762 164.77204238 17 167 C16.59158359 161.1800661 17.26899716 156.66433263 18.9375 151.0625 C21.41816833 142.37908041 21.8773607 133.98509079 22 125 C22.02046387 123.69192383 22.04092773 122.38384766 22.06201172 121.03613281 C22.11629928 117.25490035 22.15051229 113.47380973 22.17321777 109.69226074 C22.18257485 108.17409466 22.19444458 106.6559415 22.20910645 105.13781738 C22.28732268 95.80522152 21.79619836 86.80256471 20.46142578 77.56054688 C20.00895275 74.06908299 19.80501156 70.64201071 19.6875 67.125 C19.28475294 60.68836977 17.76963441 54.90331202 15.93823242 48.75805664 C14.48664036 43.87410301 13.38739409 39.08086658 12.5 34.0625 C11.04184609 26.30512118 8.37874105 19.56811157 4 13 C4 11.68 4 10.36 4 9 C3.01 8.67 2.02 8.34 1 8 C0.67 5.36 0.34 2.72 0 0 Z " fill="#A09F9F" transform="translate(476,244)"/>
<path d="M0 0 C0.33 0 0.66 0 1 0 C1.241275 4.42337499 1.21601734 7.85056283 -0.375 12 C-2.27128278 17.08955143 -2.78493374 22.2247113 -3.35302734 27.59179688 C-3.91360442 32.82720884 -3.91360442 32.82720884 -5 35 C-5.66 35 -6.32 35 -7 35 C-7.87572823 50.01248391 -8.21461225 64.96302356 -8 80 C-7.99484375 81.26457031 -7.9896875 82.52914062 -7.984375 83.83203125 C-7.50398284 98.56977659 -3.61432663 113.38657193 -0.10058594 127.65136719 C0.18268555 128.80540039 0.46595703 129.95943359 0.7578125 131.1484375 C1.01965332 132.17888184 1.28149414 133.20932617 1.55126953 134.27099609 C1.99153158 136.94849836 1.89367867 138.47156171 1 141 C-1.91473919 135.06287499 -2.99038881 129.32023477 -4 122.8125 C-5.49297922 113.61399896 -5.49297922 113.61399896 -7.6875 104.5625 C-16.14641977 73.03463826 -11.1411057 29.82102625 0 0 Z " fill="#6D6B6F" transform="translate(127,293)"/>
<path d="M0 0 C0.33 0 0.66 0 1 0 C9.2141335 29.59288273 9.00161554 70.77652958 -1 100 C-1.99 100.99 -1.99 100.99 -3 102 C-3.40841641 96.1800661 -2.73100284 91.66433263 -1.0625 86.0625 C1.41816833 77.37908041 1.8773607 68.98509079 2 60 C2.02046387 58.69192383 2.04092773 57.38384766 2.06201172 56.03613281 C2.11629928 52.25490035 2.15051229 48.47380973 2.17321777 44.69226074 C2.18257485 43.17409466 2.19444458 41.6559415 2.20910645 40.13781738 C2.28771324 30.75862089 1.7836335 21.71461112 0.44311523 12.42626953 C-0.10020481 8.22519322 -0.15097365 4.22726221 0 0 Z " fill="#DBDADA" transform="translate(496,309)"/>
<path d="M0 0 C2.64017635 0.81779841 5.30270591 1.3809489 8 2 C8 2.66 8 3.32 8 4 C8.66 4.33 9.32 4.66 10 5 C5.10256462 4.51985928 2.14365585 3.5426979 -2 1 C-9.41806077 -2.18753954 -17.15018678 -4.19166606 -25 -6 C-25 -6.66 -25 -7.32 -25 -8 C-45.69221126 -11.60515186 -69.91075043 -15.15913211 -90.625 -10.4453125 C-94.72926013 -9.67576373 -98.84203425 -9.83764993 -103 -10 C-103 -10.33 -103 -10.66 -103 -11 C-72.40317139 -18.13926001 -26.93843723 -17.95895815 0 0 Z " fill="#BFBDBE" transform="translate(383,156)"/>
<path d="M0 0 C0.89111809 2.9609329 1.03084699 5.22759306 0.66015625 8.2890625 C0.56645752 9.1354126 0.47275879 9.9817627 0.3762207 10.85375977 C0.27269287 11.76826904 0.16916504 12.68277832 0.0625 13.625 C-1.58561477 29.77598129 -1.7933039 46.18443454 -0.22265625 62.35546875 C0.13215336 66.56961095 0.08584042 70.77474371 0 75 C-0.33 75 -0.66 75 -1 75 C-4.50734456 51.02692678 -7.84496556 23.53489667 0 0 Z " fill="#7B8785" transform="translate(111,321)"/>
<path d="M0 0 C0.66 0.33 1.32 0.66 2 1 C1.31035156 1.70382813 0.62070313 2.40765625 -0.08984375 3.1328125 C-6.24027062 9.54519384 -11.28603533 16.10386247 -15.93359375 23.66796875 C-17.79850939 26.67510115 -19.75572933 29.55976779 -21.8125 32.4375 C-25.77824451 38.03350437 -28.99039368 43.83030704 -32 50 C-32.33 50 -32.66 50 -33 50 C-33.37444256 45.63150344 -32.31190677 43.64465302 -30 40 C-29.55140625 39.23300781 -29.1028125 38.46601563 -28.640625 37.67578125 C-20.54562194 23.9188238 -10.7011791 11.80920309 0 0 Z " fill="#4A4B4C" transform="translate(175,205)"/>
<path d="M0 0 C0.99 0.495 0.99 0.495 2 1 C2.5625 3.6953125 2.5625 3.6953125 3 7.125 C3.73790795 12.56317767 3.73790795 12.56317767 5.0625 17.875 C6.96645474 24.22151579 7.14933298 30.4825746 7.1328125 37.046875 C7.13376923 37.89872375 7.13472595 38.75057251 7.13571167 39.62823486 C7.13638911 41.42338129 7.13456535 43.21853022 7.13037109 45.01367188 C7.12504334 47.72792216 7.13031723 50.44200498 7.13671875 53.15625 C7.14946985 77.27579522 7.14946985 77.27579522 4 82 C4.0721875 80.75992188 4.144375 79.51984375 4.21875 78.2421875 C6.40124327 46.37419839 6.40124327 46.37419839 2 15 C1.58376336 12.94152062 1.18652688 10.87906579 0.8125 8.8125 C0.65394531 7.97332031 0.49539063 7.13414062 0.33203125 6.26953125 C0 4 0 4 0 0 Z " fill="#4F4F50" transform="translate(496,297)"/>
<path d="M0 0 C0.33 0 0.66 0 1 0 C3.2643812 11.6362252 3.27573831 23.10737325 3.20581055 34.91699219 C3.18733976 38.15307353 3.1853029 41.38887096 3.18554688 44.625 C3.180638 46.69010664 3.17481246 48.75521136 3.16796875 50.8203125 C3.16685593 51.78381622 3.1657431 52.74731995 3.16459656 53.74002075 C3.15821671 54.63550629 3.15183685 55.53099182 3.14526367 56.45361328 C3.14145187 57.23745392 3.13764008 58.02129456 3.13371277 58.82888794 C2.99997069 61.00047594 2.59729383 62.91235845 2 65 C1.34 65 0.68 65 0 65 C-0.33 69.29 -0.66 73.58 -1 78 C-1.33 78 -1.66 78 -2 78 C-2.13609097 72.99865674 -1.82434555 68.46872503 -0.93261719 63.5546875 C1.00136206 52.69297109 1.2837471 41.99660831 1.25 31 C1.24895264 30.24462952 1.24790527 29.48925903 1.24682617 28.71099854 C1.303131 19.29547951 1.303131 19.29547951 0 10 C-0.06459042 8.23022239 -0.08611065 6.45829848 -0.0625 4.6875 C-0.05347656 3.80449219 -0.04445313 2.92148437 -0.03515625 2.01171875 C-0.01775391 1.01591797 -0.01775391 1.01591797 0 0 Z " fill="#94A19F" transform="translate(509,315)"/>
<path d="M0 0 C1.21405922 3.49551279 0.777272 5.69093297 -0.3125 9.1875 C-0.57675781 10.06792969 -0.84101563 10.94835937 -1.11328125 11.85546875 C-2 14 -2 14 -4 15 C-5.05441056 17.07979206 -5.05441056 17.07979206 -6 19.5 C-7.77777778 23.88888889 -7.77777778 23.88888889 -10 25 C-10.83821823 26.99680259 -11.46575091 29.02644999 -12.12109375 31.08984375 C-13 33 -13 33 -16 35 C-15.67 32.69 -15.34 30.38 -15 28 C-14.34 28 -13.68 28 -13 28 C-12.34 25.36 -11.68 22.72 -11 20 C-10.01 20 -9.02 20 -8 20 C-7.79503906 19.36191406 -7.59007812 18.72382813 -7.37890625 18.06640625 C-7.10949219 17.24011719 -6.84007812 16.41382813 -6.5625 15.5625 C-6.29566406 14.73878906 -6.02882813 13.91507812 -5.75390625 13.06640625 C-5 11 -5 11 -4 10 C-3.80683287 7.97174509 -3.61674212 5.94276079 -3.4765625 3.91015625 C-3 2 -3 2 0 0 Z " fill="#66696A" transform="translate(486,433)"/>
<path d="M0 0 C0.33 0 0.66 0 1 0 C1 1.65 1 3.3 1 5 C0.360625 5.226875 -0.27875 5.45375 -0.9375 5.6875 C-1.618125 6.120625 -2.29875 6.55375 -3 7 C-3.0825 7.7425 -3.165 8.485 -3.25 9.25 C-4.3249404 13.19144813 -6.78154664 14.51157567 -9.9921875 16.86328125 C-12 18 -12 18 -15 18 C-15.66 17.34 -16.32 16.68 -17 16 C-12.92210637 11.70494044 -8.94153456 8.29435638 -4 5 C-2.62631655 3.36643049 -1.28062485 1.7074998 0 0 Z " fill="#A8D1C9" transform="translate(449,513)"/>
<path d="M0 0 C0 8.59320189 -9.08299173 19.25390672 -14.9375 25.125 C-15.618125 25.74375 -16.29875 26.3625 -17 27 C-15.36041242 21.76727367 -13.61047965 16.84803364 -11 12 C-10.34 12 -9.68 12 -9 12 C-9 11.34 -9 10.68 -9 10 C-8.34 10 -7.68 10 -7 10 C-6.896875 9.360625 -6.79375 8.72125 -6.6875 8.0625 C-6.460625 7.381875 -6.23375 6.70125 -6 6 C-5.01 5.67 -4.02 5.34 -3 5 C-3 4.01 -3 3.02 -3 2 C-2.01 1.34 -1.02 0.68 0 0 Z " fill="#C4C6C8" transform="translate(469,468)"/>
<path d="M0 0 C7 8.44827586 7 8.44827586 7 13 C7.66 13 8.32 13 9 13 C9.19335938 13.66386719 9.38671875 14.32773437 9.5859375 15.01171875 C11.19357981 20.52266994 11.19357981 20.52266994 13.25 25.875 C14.13852192 28.39247878 13.73390373 29.49424299 13 32 C12.60167969 30.96359375 12.20335937 29.9271875 11.79296875 28.859375 C11.25813752 27.4894564 10.72296316 26.11967172 10.1875 24.75 C9.79594727 23.72712891 9.79594727 23.72712891 9.39648438 22.68359375 C8.24007353 19.74259827 7.22503303 17.2959055 5.30078125 14.765625 C4 13 4 13 4 9 C3.01 8.67 2.02 8.34 1 8 C0.67 5.36 0.34 2.72 0 0 Z " fill="#5C5B5D" transform="translate(476,244)"/>
<path d="M0 0 C0.33 0 0.66 0 1 0 C1.241275 4.42337499 1.21601734 7.85056283 -0.375 12 C-2.27852807 17.08501161 -2.75991147 22.22058287 -3.26513672 27.59179688 C-3.7974791 32.7974791 -3.7974791 32.7974791 -6 35 C-6.95717027 22.1491028 -4.38862132 12.01646313 0 0 Z " fill="#AAA9AB" transform="translate(127,293)"/>
<path d="M0 0 C-5.72885914 5.08876314 -10.47027203 6.98047729 -18 8 C-19.66860676 8.32348164 -21.33588132 8.65417072 -23 9 C-23 8.01 -23 7.02 -23 6 C-19.31193524 3.54129016 -15.72194714 2.54948117 -11.5 1.3125 C-10.34177734 0.95575195 -10.34177734 0.95575195 -9.16015625 0.59179688 C-8.41636719 0.37201172 -7.67257812 0.15222656 -6.90625 -0.07421875 C-6.22884766 -0.27619873 -5.55144531 -0.47817871 -4.85351562 -0.6862793 C-3 -1 -3 -1 0 0 Z " fill="#404040" transform="translate(376,566)"/>
<path d="M0 0 C8.60424629 0.60029625 17.14205105 3.83148315 24 9 C26.11264636 9.76681725 26.11264636 9.76681725 28.25 10.1875 C29.4875 10.455625 30.725 10.72375 32 11 C32 11.66 32 12.32 32 13 C32.66 13.33 33.32 13.66 34 14 C27.62163588 13.37467018 27.62163588 13.37467018 24.69921875 11.61328125 C21.56388915 9.7393433 18.45987232 8.66323294 15 7.5 C9.38037467 5.61064321 4.91042762 3.27361841 0 0 Z " fill="#8F8D8E" transform="translate(359,147)"/>
<path d="M0 0 C1.81156197 3.21140531 2.55646342 6.17950693 3.21875 9.796875 C3.53392578 11.48296875 3.53392578 11.48296875 3.85546875 13.203125 C4.06816406 14.37359375 4.28085938 15.5440625 4.5 16.75 C4.92496394 19.05768296 5.352 21.36498544 5.78125 23.671875 C6.08482422 25.3105957 6.08482422 25.3105957 6.39453125 26.98242188 C6.91046928 29.55379042 7.5210484 32.05188331 8.21875 34.578125 C8.96828797 37.8611013 8.93941647 38.94271756 8 42 C5.0043544 35.93167791 3.9259754 29.96727626 2.875 23.3125 C2.54021572 21.26673803 2.20432278 19.2211571 1.8671875 17.17578125 C1.72394043 16.27770752 1.58069336 15.37963379 1.43310547 14.4543457 C1.15815311 12.89623069 0.83608433 11.34514048 0.4519043 9.81030273 C-0.35575667 6.57485916 -0.05530765 3.31845907 0 0 Z " fill="#868385" transform="translate(120,392)"/>
<path d="M0 0 C0.33 0 0.66 0 1 0 C1.13051758 0.60360352 1.26103516 1.20720703 1.39550781 1.82910156 C3.77648759 12.76659712 6.21786875 23.45534835 10 34 C10.7081549 36.32450847 11.36058366 38.65547343 12 41 C7.77110947 38.10654858 6.08462061 36.02869554 5 31 C4.92477031 28.66787973 4.90674124 26.3314689 5 24 C4.34 24 3.68 24 3 24 C2.86722656 23.01257813 2.73445313 22.02515625 2.59765625 21.0078125 C2.42105469 19.72648437 2.24445313 18.44515625 2.0625 17.125 C1.88847656 15.84882813 1.71445313 14.57265625 1.53515625 13.2578125 C1.18566773 10.12440546 1.18566773 10.12440546 0 8 C-0.13415472 5.3276379 -0.04318541 2.67749512 0 0 Z " fill="#9CAEAB" transform="translate(112,406)"/>
<path d="M0 0 C0.33 0 0.66 0 1 0 C0.78114253 8.84184186 0.23293212 17.3351292 -1.9375 25.9375 C-2.10733398 26.61683594 -2.27716797 27.29617188 -2.45214844 27.99609375 C-3.25635201 30.98619923 -3.77484405 32.77484405 -6 35 C-6.46197784 28.41681579 -5.37926929 23.02713064 -3.57226562 16.68505859 C-2.00514225 11.17084778 -0.89398038 5.6579548 0 0 Z " fill="#B0AFB0" transform="translate(499,376)"/>
<path d="M0 0 C2.78091715 0.38623849 4.62199134 0.71019336 6.875 2.4375 C9.73242153 4.53854524 12.58022578 5.14505644 16 6 C17.2065625 6.309375 17.2065625 6.309375 18.4375 6.625 C18.953125 6.74875 19.46875 6.8725 20 7 C20 7.66 20 8.32 20 9 C22.31 9.33 24.62 9.66 27 10 C27 10.99 27 11.98 27 13 C18.10871016 11.47672502 9.50630318 8.33508467 3 2 C2.01 1.34 1.02 0.68 0 0 Z " fill="#4F5050" transform="translate(224,560)"/>
<path d="M0 0 C4.8330731 1.67445052 8.9473463 4.29149497 13.25 7 C13.9821875 7.45117188 14.714375 7.90234375 15.46875 8.3671875 C16.51289063 9.02074219 16.51289063 9.02074219 17.578125 9.6875 C18.21137695 10.08324219 18.84462891 10.47898438 19.49707031 10.88671875 C21 12 21 12 22 14 C19.03 13.505 19.03 13.505 16 13 C15.67 12.01 15.34 11.02 15 10 C14.236875 9.87625 13.47375 9.7525 12.6875 9.625 C10 9 10 9 7 7 C7 6.34 7 5.68 7 5 C5.824375 4.7834375 5.824375 4.7834375 4.625 4.5625 C2 4 2 4 0 3 C0 2.01 0 1.02 0 0 Z " fill="#ACA9AC" transform="translate(395,161)"/>
<path d="M0 0 C0.33 0.66 0.66 1.32 1 2 C-0.4332935 6.21556912 -2.18606803 9.38333506 -4.9375 12.875 C-8.1314495 16.93713028 -10.1156024 21.21141316 -12 26 C-12.33 26 -12.66 26 -13 26 C-13.37464643 21.62912496 -12.31531555 19.64608103 -10 16 C-9.51660156 15.18660156 -9.03320312 14.37320313 -8.53515625 13.53515625 C-5.79904216 8.94109731 -3.01958044 4.41323294 0 0 Z " fill="#3C3E3E" transform="translate(155,229)"/>
<path d="M0 0 C0.66 0 1.32 0 2 0 C1.47458553 7.7498635 -0.55591476 14.6450086 -3 22 C-3.33 22 -3.66 22 -4 22 C-4.05423638 20.08364783 -4.09289963 18.16685075 -4.125 16.25 C-4.14820313 15.18265625 -4.17140625 14.1153125 -4.1953125 13.015625 C-4.00487687 10.07529894 -3.52670104 8.47638122 -2 6 C-1.34 6 -0.68 6 0 6 C0 4.02 0 2.04 0 0 Z " fill="#D6D5D5" transform="translate(491,411)"/>
<path d="M0 0 C1.32 0.33 2.64 0.66 4 1 C2.96001489 2.84619835 1.892186 4.67673494 0.8125 6.5 C0.22082031 7.5209375 -0.37085938 8.541875 -0.98046875 9.59375 C-3 12 -3 12 -5.73828125 12.34375 C-6.85783203 12.17359375 -6.85783203 12.17359375 -8 12 C-7.67 11.34 -7.34 10.68 -7 10 C-6.34 10 -5.68 10 -5 10 C-4.7834375 8.824375 -4.7834375 8.824375 -4.5625 7.625 C-4 5 -4 5 -3 3 C-2.34 3 -1.68 3 -1 3 C-0.67 2.01 -0.34 1.02 0 0 Z " fill="#A5BCB8" transform="translate(458,501)"/>
<path d="M0 0 C6.61026078 6.61026078 5.69390749 17.30275081 6 26 C4.54669607 23.29264156 3.59498571 20.80941256 2.9296875 17.8125 C2.75566406 17.03132813 2.58164062 16.25015625 2.40234375 15.4453125 C2.22832031 14.63835937 2.05429687 13.83140625 1.875 13 C1.69324219 12.19304687 1.51148438 11.38609375 1.32421875 10.5546875 C0.5169209 6.87632285 0 3.80445526 0 0 Z " fill="#C7C6C9" transform="translate(489,276)"/>
<path d="M0 0 C7.32557399 -0.22311393 13.93910871 -0.08354169 21 2 C21.33 2.66 21.66 3.32 22 4 C19.27001324 3.88562349 16.5415418 3.75888594 13.8125 3.625 C13.04357422 3.5940625 12.27464844 3.563125 11.48242188 3.53125 C7.26102289 3.31383889 3.85927672 2.90256928 0 1 C0 0.67 0 0.34 0 0 Z " fill="#A4A3A4" transform="translate(257,563)"/>
<path d="M0 0 C-7.06722017 3.45842689 -14.19508522 6.65100238 -22 8 C-22.66 7.67 -23.32 7.34 -24 7 C-6.52674067 -2.4086781 -6.52674067 -2.4086781 0 0 Z " fill="#7F7A7E" transform="translate(267,149)"/>
<path d="M0 0 C1.37464139 3.71153176 0.43676851 5.43283936 -1 9 C-1.3390402 10.68383379 -1.62181861 12.37983789 -1.8515625 14.08203125 C-1.98046875 15.01337891 -2.109375 15.94472656 -2.2421875 16.90429688 C-2.36851563 17.86400391 -2.49484375 18.82371094 -2.625 19.8125 C-2.7590625 20.79154297 -2.893125 21.77058594 -3.03125 22.77929688 C-3.35989962 25.18548162 -3.68262087 27.59230719 -4 30 C-4.33 30 -4.66 30 -5 30 C-5.36115642 19.98794134 -5.49230502 8.73775798 0 0 Z " fill="#24252A" transform="translate(123,303)"/>
<path d="M0 0 C2.42604752 2.42604752 2.75843519 4.14192776 3.625 7.4375 C3.88539063 8.40558594 4.14578125 9.37367188 4.4140625 10.37109375 C5 13 5 13 5 16 C5.99 16.33 6.98 16.66 8 17 C7.67 18.32 7.34 19.64 7 21 C6.02173256 19.313332 5.04658037 17.62475482 4.08984375 15.92578125 C3.16526151 14.29202123 2.21078034 12.67523843 1.25 11.0625 C-0.3650831 7.1055464 -0.21971524 4.24782799 0 0 Z " fill="#49464A" transform="translate(129,434)"/>
<path d="M0 0 C1.39864092 3.17872935 0.89282517 4.30111022 -0.3125 7.6875 C-2 11 -2 11 -4 12 C-5.13350534 14.01669827 -5.13350534 14.01669827 -6 16 C-6.93045933 13.44855176 -7.08564091 12.25993522 -6.22265625 9.640625 C-5.83980469 8.85171875 -5.45695313 8.0628125 -5.0625 7.25 C-4.68222656 6.45078125 -4.30195313 5.6515625 -3.91015625 4.828125 C-3.60980469 4.22484375 -3.30945313 3.6215625 -3 3 C-2.34 3 -1.68 3 -1 3 C-0.67 2.01 -0.34 1.02 0 0 Z " fill="#454547" transform="translate(141,255)"/>
<path d="M0 0 C1.0209375 0.2165625 1.0209375 0.2165625 2.0625 0.4375 C0.9178125 1.5203125 0.9178125 1.5203125 -0.25 2.625 C-2.64883591 5.13540967 -4.29160221 7.40558302 -5.9375 10.4375 C-7.2575 9.4475 -8.5775 8.4575 -9.9375 7.4375 C-3.86310175 0.57535558 -3.86310175 0.57535558 0 0 Z " fill="#A9C3BF" transform="translate(441.9375,521.5625)"/>
<path d="M0 0 C0.66 0.99 1.32 1.98 2 3 C-1.3 6.3 -4.6 9.6 -8 13 C-8.33 11.68 -8.66 10.36 -9 9 C-7.68 8.34 -6.36 7.68 -5 7 C-5 6.34 -5 5.68 -5 5 C-4.34 5 -3.68 5 -3 5 C-2.690625 4.360625 -2.38125 3.72125 -2.0625 3.0625 C-1 1 -1 1 0 0 Z " fill="#B1CEC9" transform="translate(175,189)"/>
<path d="M0 0 C0.671875 1.6875 0.671875 1.6875 1 4 C-0.109375 6.4375 -0.109375 6.4375 -1.75 9 C-2.54664063 10.2684375 -2.54664063 10.2684375 -3.359375 11.5625 C-4.84213997 13.7654651 -6.38219004 15.89489789 -8 18 C-7.31595098 11.15950976 -4.38240925 5.2588911 0 0 Z " fill="#A9ABAC" transform="translate(150,241)"/>
<path d="M0 0 C5.1915818 5.56240907 7.69172452 12.59965385 9 20 C5.7089159 16.39042389 4.45336079 13.87362847 4 9 C3.01 8.67 2.02 8.34 1 8 C0.67 5.36 0.34 2.72 0 0 Z " fill="#ADAAAC" transform="translate(476,244)"/>
<path d="M0 0 C1.32 0.33 2.64 0.66 4 1 C4 1.66 4 2.32 4 3 C4.66 3 5.32 3 6 3 C10 7.47058824 10 7.47058824 10 10 C8.68 10 7.36 10 6 10 C5.34 8.35 4.68 6.7 4 5 C3.34 5 2.68 5 2 5 C1.34 3.35 0.68 1.7 0 0 Z " fill="#ADC6C2" transform="translate(152,502)"/>
<path d="M0 0 C0.33 0.66 0.66 1.32 1 2 C1.8353125 2.4021875 1.8353125 2.4021875 2.6875 2.8125 C5.87684831 4.45027346 8.28763188 6.65750026 11 9 C8.36749612 10.31625194 7.19820944 9.74813658 4.375 9.0625 C3.55773437 8.86785156 2.74046875 8.67320312 1.8984375 8.47265625 C1.27195313 8.31667969 0.64546875 8.16070313 0 8 C0.99 7.34 1.98 6.68 3 6 C1.68 4.68 0.36 3.36 -1 2 C-0.67 1.34 -0.34 0.68 0 0 Z " fill="#646363" transform="translate(178,528)"/>
<path d="M0 0 C4.8066595 0.43696905 6.83321712 1.38081956 10 5 C10.66 5.33 11.32 5.66 12 6 C12 6.99 12 7.98 12 9 C10.32700041 8.34938905 8.66140763 7.67966676 7 7 C5.948125 6.5978125 5.948125 6.5978125 4.875 6.1875 C2.35138523 4.58921064 1.37258857 2.60791828 0 0 Z " fill="#545454" transform="translate(207,551)"/>
<path d="M0 0 C0.33 0 0.66 0 1 0 C1.19286332 5.49660457 0.90303246 9.81952275 -1 15 C-1.99 15.495 -1.99 15.495 -3 16 C-2.52013969 10.43109483 -1.70084819 5.32932432 0 0 Z " fill="#BFDCD8" transform="translate(506,403)"/>
<path d="M0 0 C0.66 0 1.32 0 2 0 C1.30121844 4.47220196 0.08361385 8.96633729 -2 13 C-2.99 13.66 -3.98 14.32 -5 15 C-4.67 12.69 -4.34 10.38 -4 8 C-3.34 8 -2.68 8 -2 8 C-1.34 5.36 -0.68 2.72 0 0 Z " fill="#B7B9BB" transform="translate(475,453)"/>
<path d="M0 0 C0.66 0.33 1.32 0.66 2 1 C-2.24860632 6.2042199 -6.36629298 10.32084439 -12 14 C-9.48489058 8.05519592 -5.09632389 3.7858406 0 0 Z " fill="#6A6A6C" transform="translate(189,191)"/>
<path d="M0 0 C2.12570312 0.47603774 4.25054427 0.95592598 6.375 1.4375 C8.15003906 1.83775391 8.15003906 1.83775391 9.9609375 2.24609375 C13 3 13 3 15 4 C15 4.66 15 5.32 15 6 C15.66 6.33 16.32 6.66 17 7 C12.1592634 6.52541798 9.04674504 5.66233226 5 3 C3.34630643 2.30177383 1.68272986 1.62501395 0 1 C0 0.67 0 0.34 0 0 Z " fill="#C2C1C2" transform="translate(376,154)"/>
<path d="M0 0 C-2.36386846 3.25031913 -5.25696304 3.82258019 -8.96484375 4.765625 C-11.23267118 5.02679515 -12.83560469 4.67788667 -15 4 C-14.01 4 -13.02 4 -12 4 C-12 3.34 -12 2.68 -12 2 C-10.56656 1.46809459 -9.12804633 0.94984742 -7.6875 0.4375 C-6.48673828 0.00244141 -6.48673828 0.00244141 -5.26171875 -0.44140625 C-3 -1 -3 -1 0 0 Z " fill="#626363" transform="translate(376,566)"/>
<path d="M0 0 C4.85042388 0.41575062 6.84319505 2.41659978 10 6 C10.99 7.485 10.99 7.485 12 9 C7.48780488 9.36585366 7.48780488 9.36585366 5.25 7.6875 C4 6 4 6 3 3 C1.50014391 1.33289654 1.50014391 1.33289654 0 0 Z " fill="#817F82" transform="translate(417,175)"/>
<path d="M0 0 C0.99 0.33 1.98 0.66 3 1 C2.01 2.485 2.01 2.485 1 4 C0.34 4 -0.32 4 -1 4 C-1.061875 4.598125 -1.12375 5.19625 -1.1875 5.8125 C-2.3236757 8.87143458 -4.17330142 9.55041099 -7 11 C-6.67 9.35 -6.34 7.7 -6 6 C-4.68 6 -3.36 6 -2 6 C-2 4.68 -2 3.36 -2 2 C-1.34 2 -0.68 2 0 2 C0 1.34 0 0.68 0 0 Z " fill="#CDCECE" transform="translate(442,502)"/>
<path d="M0 0 C1 2 1 2 0.5 4.8125 C-1.54140684 9.15048955 -3.97596399 10.4663477 -8 13 C-6.53181332 9.89257577 -4.79975 7.09528261 -2.875 4.25 C-2.33617187 3.45078125 -1.79734375 2.6515625 -1.2421875 1.828125 C-0.62730469 0.92320312 -0.62730469 0.92320312 0 0 Z " fill="#5E6160" transform="translate(471,483)"/>
<path d="M0 0 C0.99 0.33 1.98 0.66 3 1 C3.33 2.65 3.66 4.3 4 6 C4.66 6 5.32 6 6 6 C7.06775224 7.96466413 8.06553465 9.96855359 9 12 C8.67 12.66 8.34 13.32 8 14 C4.39363961 9.53174216 1.41963409 5.67853635 0 0 Z " fill="#9F9D9D" transform="translate(152,481)"/>
<path d="M0 0 C0.92277802 3.03001739 1.02219223 5.36540186 0.625 8.5 C0.53476562 9.2528125 0.44453125 10.005625 0.3515625 10.78125 C0.01620485 12.89772937 -0.44521595 14.9313137 -1 17 C-1.66 17 -2.32 17 -3 17 C-3.33 17.99 -3.66 18.98 -4 20 C-3.12224177 13.27052026 -2.15026784 6.45080351 0 0 Z " fill="#94A4A2" transform="translate(504,406)"/>
<path d="M0 0 C0.66 0.33 1.32 0.66 2 1 C-0.75 5.875 -0.75 5.875 -3 7 C-3 6.34 -3 5.68 -3 5 C-5.33075929 5.95865509 -5.33075929 5.95865509 -7 9 C-7.99 8.34 -8.98 7.68 -10 7 C-8.71186658 6.16121545 -7.41936744 5.32913217 -6.125 4.5 C-5.40570313 4.0359375 -4.68640625 3.571875 -3.9453125 3.09375 C-2 2 -2 2 0 2 C0 1.34 0 0.68 0 0 Z " fill="#9BAFAC" transform="translate(416,541)"/>
<path d="M0 0 C3.16532451 1.58266225 3.58369064 4.76444118 4.6875 7.9375 C4.92533203 8.58396484 5.16316406 9.23042969 5.40820312 9.89648438 C6.00302158 11.5762796 6.50797995 13.28727198 7 15 C6.67 15.66 6.34 16.32 6 17 C5.34 16.67 4.68 16.34 4 16 C3.19954337 13.30941402 2.5045341 10.66781273 1.875 7.9375 C1.69324219 7.17888672 1.51148438 6.42027344 1.32421875 5.63867188 C0.87543416 3.76086265 0.43676664 1.88064085 0 0 Z " fill="#B5B3B5" transform="translate(130,434)"/>
<path d="M0 0 C1.66666667 1.66666667 3.33333333 3.33333333 5 5 C5.763125 5.721875 6.52625 6.44375 7.3125 7.1875 C9 9 9 9 9 11 C8.01 11 7.02 11 6 11 C6 10.34 6 9.68 6 9 C5.34 9 4.68 9 4 9 C3.34 7.35 2.68 5.7 2 4 C1.34 4 0.68 4 0 4 C0 2.68 0 1.36 0 0 Z " fill="#ABC2BF" transform="translate(162,512)"/>
<path d="M0 0 C0.99 0.33 1.98 0.66 3 1 C2.01 2.98 1.02 4.96 0 7 C-0.66 5.68 -1.32 4.36 -2 3 C-1.34 2.01 -0.68 1.02 0 0 Z M-3 7 C-2.34 7.33 -1.68 7.66 -1 8 C-2.32 9.65 -3.64 11.3 -5 13 C-4.125 8.125 -4.125 8.125 -3 7 Z " fill="#B8D7D1" transform="translate(478,473)"/>
<path d="M0 0 C0.33 0 0.66 0 1 0 C1 1.98 1 3.96 1 6 C0.34 6 -0.32 6 -1 6 C-1 6.99 -1 7.98 -1 9 C-1.66 9 -2.32 9 -3 9 C-3 10.65 -3 12.3 -3 14 C-3.99 14 -4.98 14 -6 14 C-4.50829734 9.0276578 -2.39542583 4.58154261 0 0 Z " fill="#828F8E" transform="translate(488,452)"/>
<path d="M0 0 C1.16161779 2.86578759 0.9946154 4.01630163 0.00390625 7.015625 C-0.70958984 8.61664063 -0.70958984 8.61664063 -1.4375 10.25 C-1.91058594 11.32765625 -2.38367188 12.4053125 -2.87109375 13.515625 C-3.24363281 14.33546875 -3.61617187 15.1553125 -4 16 C-5.06340773 12.80263986 -4.96582104 11.1018975 -3.6875 8 C-3.40648437 7.3090625 -3.12546875 6.618125 -2.8359375 5.90625 C-1.95601739 3.8997032 -1.04383494 1.92707989 0 0 Z " fill="#4E4C4E" transform="translate(133,273)"/>
<path d="M0 0 C2.3125 -0.25 2.3125 -0.25 5 0 C6.04625409 1.29735507 7.04701223 2.63266972 8 4 C10.09415804 4.79623822 10.09415804 4.79623822 12 5 C12 5.99 12 6.98 12 8 C7.44328408 6.48109469 3.68276708 4.04597738 0 1 C0 0.67 0 0.34 0 0 Z " fill="#A1B6B3" transform="translate(406,156)"/>
<path d="M0 0 C0.33 0 0.66 0 1 0 C1.42927453 6.22448068 0.99400188 9.15878559 -3 14 C-3.33 14 -3.66 14 -4 14 C-4 12.35 -4 10.7 -4 9 C-3.34 9 -2.68 9 -2 9 C-1.34 6.03 -0.68 3.06 0 0 Z " fill="#7D8988" transform="translate(497,429)"/>
<path d="M0 0 C0.66 0 1.32 0 2 0 C1.67 1.32 1.34 2.64 1 4 C-4.445 5.485 -4.445 5.485 -10 7 C-10 6.34 -10 5.68 -10 5 C-8.906875 4.731875 -7.81375 4.46375 -6.6875 4.1875 C-3.26833673 3.08641352 -2.22408019 2.57525074 0 0 Z " fill="#9BACA9" transform="translate(399,552)"/>
<path d="M0 0 C0.99 0.33 1.98 0.66 3 1 C3 1.99 3 2.98 3 4 C3.66 4.33 4.32 4.66 5 5 C5 7.31 5 9.62 5 12 C2.54792359 9.54792359 1.39341806 7.16685923 0 4 C0 2.68 0 1.36 0 0 Z " fill="#8A9997" transform="translate(494,260)"/>
<path d="M0 0 C1.65 0 3.3 0 5 0 C5 0.66 5 1.32 5 2 C5.66 2 6.32 2 7 2 C7.33 3.65 7.66 5.3 8 7 C2.33846154 4.53846154 2.33846154 4.53846154 0.625 1.8125 C0.41875 1.214375 0.2125 0.61625 0 0 Z " fill="#ABC3BF" transform="translate(433,175)"/>
<path d="M0 0 C0.33 1.32 0.66 2.64 1 4 C-1.97 6.475 -1.97 6.475 -5 9 C-4.67 7.35 -4.34 5.7 -4 4 C-3.01 3.67 -2.02 3.34 -1 3 C-0.67 2.01 -0.34 1.02 0 0 Z " fill="#B2CFCA" transform="translate(182,182)"/>
<path d="M0 0 C2.25 -0.25 2.25 -0.25 5 0 C7.3125 2 7.3125 2 9 4 C8.67 4.99 8.34 5.98 8 7 C6.66382648 6.02471263 5.3311249 5.04466681 4 4.0625 C3.2575 3.51722656 2.515 2.97195312 1.75 2.41015625 C1.1725 1.94480469 0.595 1.47945312 0 1 C0 0.67 0 0.34 0 0 Z " fill="#AEC6C2" transform="translate(424,168)"/>
<path d="M0 0 C-3.07692746 2.6815279 -5.19734663 3.42087807 -9.25 3.6875 C-10.14203125 3.75324219 -11.0340625 3.81898438 -11.953125 3.88671875 C-12.62859375 3.92410156 -13.3040625 3.96148438 -14 4 C-13.67 3.34 -13.34 2.68 -13 2 C-8.55499776 0.66649933 -4.6681169 -0.29175731 0 0 Z " fill="#CAC9CB" transform="translate(351,562)"/>
<path d="M0 0 C0.99 0.495 0.99 0.495 2 1 C2 1.66 2 2.32 2 3 C2.66 3 3.32 3 4 3 C6 6 6 6 5.625 8.1875 C5.41875 8.785625 5.2125 9.38375 5 10 C4.731875 9.195625 4.46375 8.39125 4.1875 7.5625 C3.795625 6.716875 3.40375 5.87125 3 5 C2.01 4.67 1.02 4.34 0 4 C0 2.68 0 1.36 0 0 Z " fill="#8F8C8E" transform="translate(466,227)"/>
<path d="M0 0 C3.63 0.33 7.26 0.66 11 1 C11.33 2.32 11.66 3.64 12 5 C10.56068883 4.54738642 9.12361001 4.08767021 7.6875 3.625 C6.88699219 3.36976563 6.08648437 3.11453125 5.26171875 2.8515625 C3 2 3 2 0 0 Z " fill="#849391" transform="translate(381,145)"/>
<path d="M0 0 C0.93423645 3.01031744 1.04449911 3.86650268 0 7 C-0.99 7.33 -1.98 7.66 -3 8 C-3.1875 5.125 -3.1875 5.125 -3 2 C-2.01 1.34 -1.02 0.68 0 0 Z " fill="#9C9D9E" transform="translate(486,433)"/>
<path d="M0 0 C1.40907283 2.81814566 0.50872691 4.17277204 -0.4375 7.125 C-0.72496094 8.03507812 -1.01242187 8.94515625 -1.30859375 9.8828125 C-1.53675781 10.58148438 -1.76492188 11.28015625 -2 12 C-2.33 12 -2.66 12 -3 12 C-3 9.03 -3 6.06 -3 3 C-2.34 3 -1.68 3 -1 3 C-0.67 2.01 -0.34 1.02 0 0 Z " fill="#ADADB0" transform="translate(490,421)"/>
<path d="M0 0 C0.33 0.99 0.66 1.98 1 3 C-0.98 4.98 -2.96 6.96 -5 9 C-5.99 8.67 -6.98 8.34 -8 8 C-6.50260417 6.79557292 -5.00520833 5.59114583 -3.5078125 4.38671875 C-1.74707893 2.87729455 -1.74707893 2.87729455 0 0 Z " fill="#E0E0E1" transform="translate(187,195)"/>
<path d="M0 0 C-2.31 0.33 -4.62 0.66 -7 1 C-7 1.66 -7 2.32 -7 3 C-8.98 3.33 -10.96 3.66 -13 4 C-10.03113509 -0.45329737 -5.1149554 -2.04598216 0 0 Z " fill="#C1E2DC" transform="translate(262,139)"/>
<path d="M0 0 C3.59391114 1.33488128 6.75490696 2.96022723 10 5 C7.50907189 6.24546405 6.58919267 5.7767578 4 5 C4 4.34 4 3.68 4 3 C2.68 3 1.36 3 0 3 C0 2.01 0 1.02 0 0 Z " fill="#5E5B5D" transform="translate(213,543)"/>
<path d="M0 0 C0.33 0 0.66 0 1 0 C1.3125 2.3125 1.3125 2.3125 1 5 C-1.375 6.875 -1.375 6.875 -4 8 C-4.66 7.67 -5.32 7.34 -6 7 C-5.02433888 5.83040013 -4.044375 4.66438823 -3.0625 3.5 C-2.51722656 2.8503125 -1.97195313 2.200625 -1.41015625 1.53125 C-0.71212891 0.77328125 -0.71212891 0.77328125 0 0 Z " fill="#8C9B98" transform="translate(449,513)"/>
<path d="M0 0 C2.96404505 2.80804268 5.44499019 5.18315774 7 9 C5.8225266 8.26708288 4.65823146 7.51296199 3.5 6.75 C2.52546875 6.12351562 2.52546875 6.12351562 1.53125 5.484375 C1.0259375 4.99453125 0.520625 4.5046875 0 4 C0 2.68 0 1.36 0 0 Z " fill="#656263" transform="translate(161,495)"/>
<path d="M0 0 C0 4.03223106 -1.64129026 5.80880447 -4 9 C-4.99 9.495 -4.99 9.495 -6 10 C-5.57742724 8.5164999 -5.13643678 7.03823576 -4.6875 5.5625 C-4.32205078 4.32693359 -4.32205078 4.32693359 -3.94921875 3.06640625 C-3.63597656 2.38449219 -3.32273437 1.70257813 -3 1 C-2.01 0.67 -1.02 0.34 0 0 Z " fill="#A1A2A4" transform="translate(458,485)"/>
<path d="M0 0 C0 0.66 0 1.32 0 2 C-1.28650706 2.69710731 -2.57940665 3.38242876 -3.875 4.0625 C-4.95394531 4.63677734 -4.95394531 4.63677734 -6.0546875 5.22265625 C-6.69664062 5.47917969 -7.33859375 5.73570312 -8 6 C-8.66 5.67 -9.32 5.34 -10 5 C-9.01 4.67 -8.02 4.34 -7 4 C-7 3.34 -7 2.68 -7 2 C-2.25 0 -2.25 0 0 0 Z " fill="#8A8888" transform="translate(399,542)"/>
<path d="M0 0 C1.18771723 3.42943519 0.80226223 5.37784675 -0.4375 8.75 C-0.86869141 9.94882812 -0.86869141 9.94882812 -1.30859375 11.171875 C-1.65083984 12.07679688 -1.65083984 12.07679688 -2 13 C-2.33 13 -2.66 13 -3 13 C-3.31563182 7.73946963 -2.66590937 4.55426184 0 0 Z " fill="#313235" transform="translate(123,303)"/>
<path d="M0 0 C0.33 0 0.66 0 1 0 C1.1875 3.375 1.1875 3.375 1 7 C0.01 7.66 -0.98 8.32 -2 9 C-1.125 1.125 -1.125 1.125 0 0 Z " fill="#E0DFE0" transform="translate(486,426)"/>
<path d="M0 0 C0.66 0 1.32 0 2 0 C2.66 2.97 3.32 5.94 4 9 C3.34 8.67 2.68 8.34 2 8 C2 7.34 2 6.68 2 6 C1.34 6 0.68 6 0 6 C0 4.02 0 2.04 0 0 Z " fill="#ABC1BE" transform="translate(115,424)"/>
<path d="M0 0 C4.12751449 0.60698743 7.3321148 2.03810791 11 4 C9.4375 4.75 9.4375 4.75 7 5 C4.49713591 3.86915563 2.32992278 2.47860484 0 1 C0 0.67 0 0.34 0 0 Z " fill="#474748" transform="translate(376,152)"/>
<path d="M0 0 C-0.33 1.32 -0.66 2.64 -1 4 C-2.98 4.33 -4.96 4.66 -7 5 C-6.67 4.34 -6.34 3.68 -6 3 C-5.34 3 -4.68 3 -4 3 C-4 2.34 -4 1.68 -4 1 C-2 0 -2 0 0 0 Z " fill="#9DAFAC" transform="translate(425,536)"/>
<path d="M0 0 C2 1.375 2 1.375 4 3 C4 3.66 4 4.32 4 5 C2.68 5 1.36 5 0 5 C-0.66 3.68 -1.32 2.36 -2 1 C-1.34 0.67 -0.68 0.34 0 0 Z " fill="#A2B9B6" transform="translate(158,507)"/>
<path d="M0 0 C0.33 0 0.66 0 1 0 C1.25 2.25 1.25 2.25 1 5 C-1 7.3125 -1 7.3125 -3 9 C-2.44271087 5.65626525 -1.64826111 2.96687001 0 0 Z " fill="#C0DFD9" transform="translate(496,438)"/>
<path d="M0 0 C0.66 0.66 1.32 1.32 2 2 C1.9765625 4.6015625 1.9765625 4.6015625 1.625 7.625 C1.51414062 8.62789063 1.40328125 9.63078125 1.2890625 10.6640625 C1.19367188 11.43492187 1.09828125 12.20578125 1 13 C0.67 13 0.34 13 0 13 C-0.19551338 11.39679026 -0.38111983 9.79237014 -0.5625 8.1875 C-0.71912109 6.84751953 -0.71912109 6.84751953 -0.87890625 5.48046875 C-1 3 -1 3 0 0 Z " fill="#B0C9C4" transform="translate(112,304)"/>
<path d="M0 0 C0.99 0 1.98 0 3 0 C2.34 2.64 1.68 5.28 1 8 C0.34 8 -0.32 8 -1 8 C-1.04241723 5.66705225 -1.04092937 3.33297433 -1 1 C-0.67 0.67 -0.34 0.34 0 0 Z " fill="#8FA39F" transform="translate(133,247)"/>
<path d="M0 0 C2.4375 0.8125 2.4375 0.8125 5 2 C5.33 2.99 5.66 3.98 6 5 C3.83125748 4.49396008 2.00032373 4.00016187 0 3 C0 2.01 0 1.02 0 0 Z " fill="#B6B4B7" transform="translate(395,161)"/>
<path d="M0 0 C2.64 0 5.28 0 8 0 C8 0.66 8 1.32 8 2 C8.66 2.33 9.32 2.66 10 3 C3.375 2.25 3.375 2.25 0 0 Z " fill="#8B9A97" transform="translate(361,138)"/>
</svg>
