<?xml version="1.0" encoding="UTF-8"?>
<svg version="1.1" xmlns="http://www.w3.org/2000/svg" width="662" height="684">
<path d="M0 0 C0.89776154 -0.00701431 1.79552307 -0.01402863 2.7204895 -0.02125549 C5.60277383 -0.03866176 8.48485253 -0.0451082 11.3671875 -0.046875 C12.35328003 -0.04754974 13.33937256 -0.04822449 14.35534668 -0.04891968 C29.22568623 -0.03275035 43.58338296 0.51988278 58.2421875 3.203125 C59.61189697 3.42863037 59.61189697 3.42863037 61.00927734 3.65869141 C104.284622 10.82782213 145.97261324 30.00195511 180.2421875 57.203125 C181.23605469 57.98429687 182.22992188 58.76546875 183.25390625 59.5703125 C198.26894484 71.60804672 212.40396916 85.01249085 224.2421875 100.203125 C225.04269531 101.20988281 225.84320312 102.21664062 226.66796875 103.25390625 C237.31634145 116.74434169 246.1825694 131.03724966 254.2421875 146.203125 C254.60054687 146.86924805 254.95890625 147.53537109 255.328125 148.22167969 C261.3524872 159.48338685 265.98797947 171.17102149 270.2421875 183.203125 C270.52336426 183.99589844 270.80454102 184.78867188 271.09423828 185.60546875 C275.72311147 198.87397292 278.76275585 212.38334203 281.2421875 226.203125 C281.49210449 227.53150391 281.49210449 227.53150391 281.74707031 228.88671875 C286.91165577 257.32936332 286.77527893 289.8687738 281.2421875 318.203125 C281.06526367 319.17362793 280.88833984 320.14413086 280.70605469 321.14404297 C278.19821292 334.8332207 274.89442396 348.08621763 270.2421875 361.203125 C269.93909668 362.06035156 269.63600586 362.91757812 269.32373047 363.80078125 C265.31067995 375.01365651 260.81911676 385.80643653 255.23339844 396.32666016 C254.240138 398.20700492 253.27424063 400.09946311 252.3125 401.99609375 C236.32702879 433.19679777 212.08780344 462.9094187 184.2421875 484.203125 C182.74171875 485.39421875 182.74171875 485.39421875 181.2109375 486.609375 C168.34248894 496.78020522 154.70848006 505.48753334 140.2421875 513.203125 C139.60200684 513.54585449 138.96182617 513.88858398 138.30224609 514.24169922 C127.29017849 520.08181326 115.90339551 524.81967642 104.2421875 529.203125 C103.01242187 529.66589844 101.78265625 530.12867188 100.515625 530.60546875 C76.59393489 539.05635928 50.42610088 544.27952864 25.01171875 544.40625 C24.06674026 544.41326431 23.12176178 544.42027863 22.14814758 544.42750549 C19.11694517 544.44490948 16.08593803 544.45135738 13.0546875 544.453125 C11.50210236 544.45413712 11.50210236 544.45413712 9.91815186 544.45516968 C-4.88655871 544.43980882 -19.1924018 544.06527526 -33.7578125 541.203125 C-34.72686523 541.02620117 -35.69591797 540.84927734 -36.69433594 540.66699219 C-50.38521051 538.1592363 -63.63932311 534.85592256 -76.7578125 530.203125 C-78.04365234 529.74848877 -78.04365234 529.74848877 -79.35546875 529.28466797 C-91.25162719 525.02707269 -102.6358426 520.19578458 -113.7578125 514.203125 C-114.86600342 513.61096191 -114.86600342 513.61096191 -115.99658203 513.00683594 C-147.76229353 495.9611699 -177.49247783 472.77368719 -199.7578125 444.203125 C-200.55832031 443.19636719 -201.35882813 442.18960937 -202.18359375 441.15234375 C-212.81976959 427.67736052 -221.79769163 413.40491173 -229.7578125 398.203125 C-230.41716797 396.95958252 -230.41716797 396.95958252 -231.08984375 395.69091797 C-243.77196967 371.50076784 -252.32429853 345.13208926 -256.7578125 318.203125 C-256.91717285 317.33252441 -257.0765332 316.46192383 -257.24072266 315.56494141 C-262.38496635 287.09941991 -262.17268335 254.60239448 -256.7578125 226.203125 C-256.58088867 225.25324707 -256.40396484 224.30336914 -256.22167969 223.32470703 C-247.9387237 179.94290384 -230.45520977 138.82487158 -202.7578125 104.203125 C-202.0565625 103.31109375 -201.3553125 102.4190625 -200.6328125 101.5 C-188.79515486 86.70292795 -175.62420447 72.95840448 -160.7578125 61.203125 C-159.72156103 60.35419973 -158.68643859 59.50389475 -157.65234375 58.65234375 C-114.41389614 23.37700381 -56.20467194 0.2960068 0 0 Z " fill="#BC8E00" transform="translate(312.7578125,18.796875)"/>
<path d="M0 0 C0.89776154 -0.00701431 1.79552307 -0.01402863 2.7204895 -0.02125549 C5.60277383 -0.03866176 8.48485253 -0.0451082 11.3671875 -0.046875 C12.35328003 -0.04754974 13.33937256 -0.04822449 14.35534668 -0.04891968 C29.22568623 -0.03275035 43.58338296 0.51988278 58.2421875 3.203125 C59.61189697 3.42863037 59.61189697 3.42863037 61.00927734 3.65869141 C104.284622 10.82782213 145.97261324 30.00195511 180.2421875 57.203125 C181.23605469 57.98429687 182.22992188 58.76546875 183.25390625 59.5703125 C198.26894484 71.60804672 212.40396916 85.01249085 224.2421875 100.203125 C225.04269531 101.20988281 225.84320312 102.21664062 226.66796875 103.25390625 C237.31634145 116.74434169 246.1825694 131.03724966 254.2421875 146.203125 C254.60054687 146.86924805 254.95890625 147.53537109 255.328125 148.22167969 C261.3524872 159.48338685 265.98797947 171.17102149 270.2421875 183.203125 C270.52336426 183.99589844 270.80454102 184.78867188 271.09423828 185.60546875 C275.72311147 198.87397292 278.76275585 212.38334203 281.2421875 226.203125 C281.49210449 227.53150391 281.49210449 227.53150391 281.74707031 228.88671875 C286.91165577 257.32936332 286.77527893 289.8687738 281.2421875 318.203125 C281.06526367 319.17362793 280.88833984 320.14413086 280.70605469 321.14404297 C278.19821292 334.8332207 274.89442396 348.08621763 270.2421875 361.203125 C269.93909668 362.06035156 269.63600586 362.91757812 269.32373047 363.80078125 C265.31067995 375.01365651 260.81911676 385.80643653 255.23339844 396.32666016 C254.240138 398.20700492 253.27424063 400.09946311 252.3125 401.99609375 C236.32702879 433.19679777 212.08780344 462.9094187 184.2421875 484.203125 C182.74171875 485.39421875 182.74171875 485.39421875 181.2109375 486.609375 C168.34248894 496.78020522 154.70848006 505.48753334 140.2421875 513.203125 C139.60200684 513.54585449 138.96182617 513.88858398 138.30224609 514.24169922 C127.29017849 520.08181326 115.90339551 524.81967642 104.2421875 529.203125 C103.01242187 529.66589844 101.78265625 530.12867188 100.515625 530.60546875 C76.59393489 539.05635928 50.42610088 544.27952864 25.01171875 544.40625 C24.06674026 544.41326431 23.12176178 544.42027863 22.14814758 544.42750549 C19.11694517 544.44490948 16.08593803 544.45135738 13.0546875 544.453125 C11.50210236 544.45413712 11.50210236 544.45413712 9.91815186 544.45516968 C-4.88655871 544.43980882 -19.1924018 544.06527526 -33.7578125 541.203125 C-34.72686523 541.02620117 -35.69591797 540.84927734 -36.69433594 540.66699219 C-50.38521051 538.1592363 -63.63932311 534.85592256 -76.7578125 530.203125 C-78.04365234 529.74848877 -78.04365234 529.74848877 -79.35546875 529.28466797 C-91.25162719 525.02707269 -102.6358426 520.19578458 -113.7578125 514.203125 C-114.86600342 513.61096191 -114.86600342 513.61096191 -115.99658203 513.00683594 C-147.76229353 495.9611699 -177.49247783 472.77368719 -199.7578125 444.203125 C-200.55832031 443.19636719 -201.35882813 442.18960937 -202.18359375 441.15234375 C-212.81976959 427.67736052 -221.79769163 413.40491173 -229.7578125 398.203125 C-230.41716797 396.95958252 -230.41716797 396.95958252 -231.08984375 395.69091797 C-243.77196967 371.50076784 -252.32429853 345.13208926 -256.7578125 318.203125 C-256.91717285 317.33252441 -257.0765332 316.46192383 -257.24072266 315.56494141 C-262.38496635 287.09941991 -262.17268335 254.60239448 -256.7578125 226.203125 C-256.58088867 225.25324707 -256.40396484 224.30336914 -256.22167969 223.32470703 C-247.9387237 179.94290384 -230.45520977 138.82487158 -202.7578125 104.203125 C-202.0565625 103.31109375 -201.3553125 102.4190625 -200.6328125 101.5 C-188.79515486 86.70292795 -175.62420447 72.95840448 -160.7578125 61.203125 C-159.72156103 60.35419973 -158.68643859 59.50389475 -157.65234375 58.65234375 C-114.41389614 23.37700381 -56.20467194 0.2960068 0 0 Z M-25.7578125 72.203125 C-27.01126465 72.46053467 -27.01126465 72.46053467 -28.29003906 72.72314453 C-56.17497796 78.51224409 -82.76330402 89.18531053 -105.7578125 106.203125 C-106.32048828 106.61320801 -106.88316406 107.02329102 -107.46289062 107.44580078 C-114.97008392 112.96089756 -121.89718739 119.02670558 -128.6953125 125.390625 C-129.39317871 126.04369629 -130.09104492 126.69676758 -130.81005859 127.36962891 C-166.40629773 161.24278146 -189.44298642 211.22262507 -191.0483551 260.42520142 C-191.12576541 263.97660411 -191.14346777 267.52597226 -191.1328125 271.078125 C-191.131604 271.83391846 -191.13039551 272.58971191 -191.12915039 273.3684082 C-190.99905014 303.63734149 -184.33801906 333.06713671 -170.7578125 360.203125 C-170.37367188 360.98623047 -169.98953125 361.76933594 -169.59375 362.57617188 C-164.19946506 373.51264956 -158.22609334 383.56313083 -150.7578125 393.203125 C-150.05269531 394.11964844 -149.34757812 395.03617187 -148.62109375 395.98046875 C-140.02630456 406.79941781 -130.53682699 417.51527734 -119.7578125 426.203125 C-118.69606597 427.09961108 -117.63492833 427.99681851 -116.57421875 428.89453125 C-88.12826182 452.64968502 -52.3847301 467.94264315 -15.70678711 472.93676758 C-13.87118322 473.18763114 -12.04073663 473.47543659 -10.2109375 473.765625 C-3.62206323 474.56781179 3.05167887 474.40172989 9.6796875 474.390625 C10.75706177 474.38922012 10.75706177 474.38922012 11.85620117 474.38778687 C22.44826595 474.35780654 32.78368006 474.07794066 43.2421875 472.203125 C44.52174316 471.99308838 44.52174316 471.99308838 45.82714844 471.77880859 C91.35212407 464.17024359 135.73891023 440.12609686 165.2421875 404.203125 C165.9846875 403.36007812 166.7271875 402.51703125 167.4921875 401.6484375 C191.45989221 374.01067801 206.3505285 339.0954642 212.2421875 303.203125 C212.43482178 302.12853027 212.43482178 302.12853027 212.63134766 301.03222656 C216.41646171 279.59207005 215.73676946 255.45064187 211.2421875 234.203125 C211.07589844 233.37377441 210.90960937 232.54442383 210.73828125 231.68994141 C206.6955901 211.8171198 199.91865051 193.01705095 190.2421875 175.203125 C189.62859375 174.0378125 189.015 172.8725 188.3828125 171.671875 C181.05403699 158.22569184 171.67136806 146.37452827 161.2421875 135.203125 C159.76245309 133.51612282 158.28329462 131.8286153 156.8046875 130.140625 C129.04236755 99.4734997 89.41581507 80.18427336 49.2421875 72.203125 C48.54528809 72.05359375 47.84838867 71.9040625 47.13037109 71.75 C23.93276331 66.87844987 -2.62430865 67.18155756 -25.7578125 72.203125 Z " fill="#FED865" transform="translate(312.7578125,18.796875)"/>
<path d="M0 0 C2.62344062 0.02370064 5.24586296 0.0205133 7.86938477 0.01391602 C21.73783686 0.03590972 35.85653785 0.57754052 49.24633789 4.52368164 C49.98625977 4.73726318 50.72618164 4.95084473 51.48852539 5.17089844 C74.14252564 12.04556869 89.03041179 26.87144725 100.03295898 47.32543945 C102.87393149 52.89379965 105.05883789 58.06001058 105.05883789 64.33618164 C104.44433273 64.4444931 103.82982758 64.55280457 103.19670105 64.66439819 C96.75558345 65.79975669 90.31453891 66.93552901 83.87353516 68.0715332 C81.47511608 68.49448925 79.07667888 68.91734254 76.67822266 69.34008789 C73.21520199 69.95048937 69.75224836 70.56126995 66.28930664 71.17211914 C65.23051804 71.35866058 64.17172943 71.54520203 63.08085632 71.73739624 C62.06062881 71.91743195 61.04040131 72.09746765 59.98925781 72.28295898 C58.51070816 72.54287628 58.51070816 72.54287628 57.00228882 72.80804443 C55.00868015 73.16575344 53.01716582 73.53530154 51.02774048 73.91558838 C50.06387421 74.09901794 49.10000793 74.28244751 48.10693359 74.47143555 C47.25436478 74.63753326 46.40179596 74.80363098 45.52339172 74.97476196 C42.99931926 75.34490988 40.60608698 75.39920321 38.05883789 75.33618164 C37.71852539 74.55114258 37.37821289 73.76610352 37.02758789 72.95727539 C32.71454744 63.60853079 27.65413948 57.39689922 18.16821289 53.11352539 C4.68410516 48.14438198 -9.96879318 49.28932251 -23.00366211 54.96118164 C-34.98316907 61.45520595 -41.58483376 71.83969252 -46.08178711 84.30493164 C-48.9614653 94.46234199 -49.34399914 104.27992697 -49.31616211 114.77368164 C-49.31484787 115.97530441 -49.31484787 115.97530441 -49.31350708 117.20120239 C-49.24260533 136.81596169 -47.54125695 154.96326252 -33.94116211 170.33618164 C-25.2616847 177.10251654 -15.0231136 181.8481691 -3.94116211 182.33618164 C-3.08393555 182.38774414 -2.22670898 182.43930664 -1.34350586 182.49243164 C17.11730543 183.08874318 30.96083633 176.62440098 47.05883789 168.33618164 C47.38883789 161.40618164 47.71883789 154.47618164 48.05883789 147.33618164 C32.54883789 147.33618164 17.03883789 147.33618164 1.05883789 147.33618164 C1.05883789 131.82618164 1.05883789 116.31618164 1.05883789 100.33618164 C36.36883789 100.33618164 71.67883789 100.33618164 108.05883789 100.33618164 C108.26508789 116.03180664 108.47133789 131.72743164 108.68383789 147.89868164 C108.77487793 152.84682861 108.86591797 157.79497559 108.9597168 162.89306641 C109.00488281 168.9552002 109.00488281 168.9552002 109.01327515 171.79698181 C109.02858976 173.77357007 109.06367878 175.75006721 109.11459351 177.72605896 C109.52290537 194.41286924 109.52290537 194.41286924 105.93592834 199.125 C103.357124 200.96352938 100.98621302 202.15282681 98.05883789 203.33618164 C96.43372304 204.30987607 94.82069766 205.30436204 93.22680664 206.32836914 C70.41621549 219.69773928 47.50948276 228.79171245 21.05883789 231.33618164 C19.94766602 231.44704102 18.83649414 231.55790039 17.69165039 231.67211914 C-16.23986044 234.5715785 -53.72471069 231.88817834 -80.94116211 209.33618164 C-82.23280273 208.27077148 -82.23280273 208.27077148 -83.55053711 207.18383789 C-93.76052064 198.38159452 -100.69372418 188.14686175 -106.94116211 176.33618164 C-107.76293945 174.82797852 -107.76293945 174.82797852 -108.60131836 173.28930664 C-123.61054399 143.65472304 -123.92952183 103.74272612 -113.81616211 72.58618164 C-108.8905061 58.30799747 -102.25514268 45.47598348 -91.94116211 34.33618164 C-91.19479492 33.49829102 -90.44842773 32.66040039 -89.67944336 31.79711914 C-66.56010461 7.11101529 -32.63241107 -0.31380248 0 0 Z " fill="#FED865" transform="translate(327.941162109375,165.663818359375)"/>
<path d="M0 0 C0.89776154 -0.00701431 1.79552307 -0.01402863 2.7204895 -0.02125549 C5.60277383 -0.03866176 8.48485253 -0.0451082 11.3671875 -0.046875 C12.35328003 -0.04754974 13.33937256 -0.04822449 14.35534668 -0.04891968 C29.22568623 -0.03275035 43.58338296 0.51988278 58.2421875 3.203125 C59.61189697 3.42863037 59.61189697 3.42863037 61.00927734 3.65869141 C104.284622 10.82782213 145.97261324 30.00195511 180.2421875 57.203125 C181.23605469 57.98429687 182.22992188 58.76546875 183.25390625 59.5703125 C198.26894484 71.60804672 212.40396916 85.01249085 224.2421875 100.203125 C225.04269531 101.20988281 225.84320312 102.21664062 226.66796875 103.25390625 C237.31634145 116.74434169 246.1825694 131.03724966 254.2421875 146.203125 C254.60054687 146.86924805 254.95890625 147.53537109 255.328125 148.22167969 C261.3524872 159.48338685 265.98797947 171.17102149 270.2421875 183.203125 C270.52336426 183.99589844 270.80454102 184.78867188 271.09423828 185.60546875 C275.72311147 198.87397292 278.76275585 212.38334203 281.2421875 226.203125 C281.49210449 227.53150391 281.49210449 227.53150391 281.74707031 228.88671875 C286.91165577 257.32936332 286.77527893 289.8687738 281.2421875 318.203125 C281.06526367 319.17362793 280.88833984 320.14413086 280.70605469 321.14404297 C278.19821292 334.8332207 274.89442396 348.08621763 270.2421875 361.203125 C269.93909668 362.06035156 269.63600586 362.91757812 269.32373047 363.80078125 C265.31067995 375.01365651 260.81911676 385.80643653 255.23339844 396.32666016 C254.240138 398.20700492 253.27424063 400.09946311 252.3125 401.99609375 C236.32702879 433.19679777 212.08780344 462.9094187 184.2421875 484.203125 C182.74171875 485.39421875 182.74171875 485.39421875 181.2109375 486.609375 C168.34248894 496.78020522 154.70848006 505.48753334 140.2421875 513.203125 C139.60200684 513.54585449 138.96182617 513.88858398 138.30224609 514.24169922 C127.29017849 520.08181326 115.90339551 524.81967642 104.2421875 529.203125 C103.01242187 529.66589844 101.78265625 530.12867188 100.515625 530.60546875 C76.59393489 539.05635928 50.42610088 544.27952864 25.01171875 544.40625 C24.06674026 544.41326431 23.12176178 544.42027863 22.14814758 544.42750549 C19.11694517 544.44490948 16.08593803 544.45135738 13.0546875 544.453125 C11.50210236 544.45413712 11.50210236 544.45413712 9.91815186 544.45516968 C-4.88655871 544.43980882 -19.1924018 544.06527526 -33.7578125 541.203125 C-34.72686523 541.02620117 -35.69591797 540.84927734 -36.69433594 540.66699219 C-50.38521051 538.1592363 -63.63932311 534.85592256 -76.7578125 530.203125 C-78.04365234 529.74848877 -78.04365234 529.74848877 -79.35546875 529.28466797 C-91.25162719 525.02707269 -102.6358426 520.19578458 -113.7578125 514.203125 C-114.86600342 513.61096191 -114.86600342 513.61096191 -115.99658203 513.00683594 C-147.76229353 495.9611699 -177.49247783 472.77368719 -199.7578125 444.203125 C-200.55832031 443.19636719 -201.35882813 442.18960937 -202.18359375 441.15234375 C-212.81976959 427.67736052 -221.79769163 413.40491173 -229.7578125 398.203125 C-230.41716797 396.95958252 -230.41716797 396.95958252 -231.08984375 395.69091797 C-243.77196967 371.50076784 -252.32429853 345.13208926 -256.7578125 318.203125 C-256.91717285 317.33252441 -257.0765332 316.46192383 -257.24072266 315.56494141 C-262.38496635 287.09941991 -262.17268335 254.60239448 -256.7578125 226.203125 C-256.58088867 225.25324707 -256.40396484 224.30336914 -256.22167969 223.32470703 C-247.9387237 179.94290384 -230.45520977 138.82487158 -202.7578125 104.203125 C-202.0565625 103.31109375 -201.3553125 102.4190625 -200.6328125 101.5 C-188.79515486 86.70292795 -175.62420447 72.95840448 -160.7578125 61.203125 C-159.72156103 60.35419973 -158.68643859 59.50389475 -157.65234375 58.65234375 C-114.41389614 23.37700381 -56.20467194 0.2960068 0 0 Z M-29.7578125 16.203125 C-31.69333984 16.52796875 -31.69333984 16.52796875 -33.66796875 16.859375 C-37.39166301 17.54009386 -41.0747251 18.33419745 -44.7578125 19.203125 C-45.5921582 19.39745117 -46.42650391 19.59177734 -47.28613281 19.79199219 C-90.23514176 29.95573007 -130.06395639 50.46844437 -162.234375 80.83203125 C-164.35802499 82.82747327 -166.52204421 84.71194289 -168.7578125 86.578125 C-202.65705474 116.12591172 -227.46794969 162.02148128 -238.23583984 205.1328125 C-238.74771126 207.1630602 -239.28957445 209.1829855 -239.83984375 211.203125 C-245.15365743 231.04038144 -246.98850803 250.97484635 -247.0078125 271.453125 C-247.00915192 272.29361389 -247.01049133 273.13410278 -247.01187134 274.00006104 C-247.00745521 286.80836914 -246.39387784 299.27909082 -244.15917969 311.91894531 C-243.79217764 314.00755307 -243.47382359 316.09650495 -243.171875 318.1953125 C-237.41493111 354.15752041 -222.07517453 390.71767827 -200.7578125 420.203125 C-200.02046875 421.23308594 -199.283125 422.26304687 -198.5234375 423.32421875 C-156.06123966 481.22037148 -93.93957192 518.57452834 -22.89575195 529.74975586 C-0.02037276 532.91431838 24.41849095 532.46941373 47.2421875 529.203125 C48.01304687 529.10128906 48.78390625 528.99945312 49.578125 528.89453125 C93.79037296 523.02372455 137.7814463 504.6864446 172.2421875 476.203125 C172.77215332 475.76790527 173.30211914 475.33268555 173.84814453 474.88427734 C177.6971106 471.71501017 181.48771166 468.48365621 185.2421875 465.203125 C185.75136719 464.75855957 186.26054687 464.31399414 186.78515625 463.85595703 C235.04463247 421.41180972 265.75285629 358.38467483 270.8359375 294.5 C275.47909708 221.93319474 253.35348802 153.93985377 205.2421875 99.203125 C163.03321057 51.35597361 104.21448979 22.46344124 41.2421875 14.203125 C40.47801514 14.0985498 39.71384277 13.99397461 38.92651367 13.88623047 C30.3451117 12.85980409 21.68487645 12.96121938 13.0546875 12.953125 C12.21203339 12.95178558 11.36937927 12.95044617 10.50119019 12.94906616 C-3.12577197 12.95375558 -16.32761479 13.75968422 -29.7578125 16.203125 Z " fill="#7F7F7E" transform="translate(312.7578125,18.796875)"/>
<path d="M0 0 C0.7480188 -0.00073517 1.4960376 -0.00147034 2.26672363 -0.00222778 C32.62996692 0.07511089 62.13754647 7.0032927 89.375 20.4375 C90.16390625 20.82309082 90.9528125 21.20868164 91.765625 21.60595703 C102.6947697 26.99874161 112.74085141 32.97374784 122.375 40.4375 C123.29152344 41.14261719 124.20804687 41.84773438 125.15234375 42.57421875 C136.00157904 51.19306793 146.58470783 60.70181531 155.375 71.4375 C157.0179787 73.29045579 158.66145946 75.14292446 160.30859375 76.9921875 C161.375 78.4375 161.375 78.4375 161.375 80.4375 C157.95475798 79.29741933 157.57586519 78.62697816 155.625 75.75 C153.08221621 72.21660316 150.4050149 69.54151208 147.03515625 66.80859375 C144.65720645 64.84468698 142.55452096 62.61702096 140.375 60.4375 C138.71229713 59.09922696 137.04583819 57.76560215 135.375 56.4375 C133.0625 54.3125 133.0625 54.3125 131.375 52.4375 C131.375 51.7775 131.375 51.1175 131.375 50.4375 C129.395 49.7775 127.415 49.1175 125.375 48.4375 C125.375 47.7775 125.375 47.1175 125.375 46.4375 C124.715 46.4375 124.055 46.4375 123.375 46.4375 C123.375 45.7775 123.375 45.1175 123.375 44.4375 C122.385 44.4375 121.395 44.4375 120.375 44.4375 C120.375 43.7775 120.375 43.1175 120.375 42.4375 C119.385 42.4375 118.395 42.4375 117.375 42.4375 C117.375 41.7775 117.375 41.1175 117.375 40.4375 C116.385 40.4375 115.395 40.4375 114.375 40.4375 C114.375 39.7775 114.375 39.1175 114.375 38.4375 C113.055 38.4375 111.735 38.4375 110.375 38.4375 C110.045 37.4475 109.715 36.4575 109.375 35.4375 C107.38445124 34.74312253 105.38244615 34.08139782 103.375 33.4375 C102.4675 32.798125 101.56 32.15875 100.625 31.5 C96.42803869 28.83654378 92.15356102 27.68408114 87.375 26.4375 C87.375 26.1075 87.375 25.7775 87.375 25.4375 C85.725 25.1075 84.075 24.7775 82.375 24.4375 C82.375 23.7775 82.375 23.1175 82.375 22.4375 C78.415 21.9425 78.415 21.9425 74.375 21.4375 C74.375 20.7775 74.375 20.1175 74.375 19.4375 C72.6734375 19.31375 72.6734375 19.31375 70.9375 19.1875 C66.16960084 18.66695405 61.59171182 17.62079773 56.9375 16.5 C56.18791016 16.32001465 55.43832031 16.1400293 54.66601562 15.95458984 C53.20820665 15.60355302 51.75051922 15.25201096 50.29296875 14.89990234 C29.12015183 9.7953561 7.96568923 9.79249511 -13.625 11.4375 C-14.72972656 11.5096875 -15.83445312 11.581875 -16.97265625 11.65625 C-22.33848471 12.03613166 -27.34728373 12.75521418 -32.56640625 14.0390625 C-35.15260961 14.53961799 -37.64709688 14.3935941 -40.26953125 14.3203125 C-49.17850861 14.7635452 -58.18069611 17.69407408 -66.625 20.4375 C-66.625 21.0975 -66.625 21.7575 -66.625 22.4375 C-67.19089844 22.54707031 -67.75679687 22.65664062 -68.33984375 22.76953125 C-69.07332031 22.92808594 -69.80679688 23.08664063 -70.5625 23.25 C-71.29339844 23.40082031 -72.02429688 23.55164063 -72.77734375 23.70703125 C-73.38707031 23.94808594 -73.99679688 24.18914062 -74.625 24.4375 C-75.12 25.9225 -75.12 25.9225 -75.625 27.4375 C-78.3984375 28.39453125 -78.3984375 28.39453125 -82 29.25 C-92.40615681 32.04678657 -100.20930598 36.69084764 -108.3359375 43.703125 C-110.625 45.4375 -110.625 45.4375 -113.1328125 46.43359375 C-116.04741679 47.60765849 -117.81921178 49.12688866 -120.125 51.25 C-120.8571875 51.91644531 -121.589375 52.58289063 -122.34375 53.26953125 C-123.92758166 54.77471373 -125.48735236 56.30546116 -127.02734375 57.85546875 C-130.32864975 61.13691727 -133.77797188 64.23537381 -137.25195312 67.33203125 C-139.68431636 69.5320031 -141.83512452 71.70353592 -143.87109375 74.28125 C-144.73927734 75.34859375 -144.73927734 75.34859375 -145.625 76.4375 C-146.285 76.4375 -146.945 76.4375 -147.625 76.4375 C-148.00205078 77.28248047 -148.00205078 77.28248047 -148.38671875 78.14453125 C-149.80523432 80.7712462 -151.51492525 82.84217224 -153.4375 85.125 C-156.65167271 89.06570361 -159.19154688 92.98237673 -161.5390625 97.48046875 C-162.625 99.4375 -162.625 99.4375 -164.75 102.0625 C-166.61061289 104.41927632 -167.6155601 106.6544468 -168.71484375 109.4296875 C-169.80830194 111.84186565 -171.15838788 114.00482824 -172.5625 116.25 C-175.55515948 121.12142586 -177.64769578 126.08979085 -179.625 131.4375 C-180.28764189 133.10577095 -180.9532567 134.77287297 -181.625 136.4375 C-182.285 136.4375 -182.945 136.4375 -183.625 136.4375 C-183.50125 137.9534375 -183.50125 137.9534375 -183.375 139.5 C-183.33740671 146.45475928 -185.49328419 155.17406838 -188.625 161.4375 C-188.64534889 163.43750499 -188.61672828 165.43812677 -188.5625 167.4375 C-188.51187725 172.5560225 -189.03341625 177.01000229 -190.18359375 181.97265625 C-190.8157289 185.5025437 -190.72589406 188.92997421 -190.59765625 192.50390625 C-190.62055233 194.96032855 -190.80997764 197.23642301 -191.10546875 199.66796875 C-193.60019973 220.8544991 -190.38100831 242.04325144 -184.625 262.4375 C-184.37250488 263.33726562 -184.12000977 264.23703125 -183.85986328 265.1640625 C-182.14290511 271.26338106 -180.39618269 277.35371818 -178.625 283.4375 C-178.295 283.4375 -177.965 283.4375 -177.625 283.4375 C-177.13 287.3975 -177.13 287.3975 -176.625 291.4375 C-175.965 291.1075 -175.305 290.7775 -174.625 290.4375 C-174.53863281 291.00597656 -174.45226562 291.57445312 -174.36328125 292.16015625 C-173.40756767 297.41219693 -171.97561497 300.70204891 -168.66796875 304.86328125 C-167.20165354 307.0764836 -167.23467042 308.86132479 -167.625 311.4375 C-166.305 311.7675 -164.985 312.0975 -163.625 312.4375 C-163.625 313.7575 -163.625 315.0775 -163.625 316.4375 C-162.965 316.4375 -162.305 316.4375 -161.625 316.4375 C-161.625 317.4275 -161.625 318.4175 -161.625 319.4375 C-160.965 319.4375 -160.305 319.4375 -159.625 319.4375 C-159.625 320.4275 -159.625 321.4175 -159.625 322.4375 C-158.965 322.4375 -158.305 322.4375 -157.625 322.4375 C-157.625 323.4275 -157.625 324.4175 -157.625 325.4375 C-156.965 325.4375 -156.305 325.4375 -155.625 325.4375 C-155.625 326.0975 -155.625 326.7575 -155.625 327.4375 C-154.965 327.4375 -154.305 327.4375 -153.625 327.4375 C-153.521875 328.076875 -153.41875 328.71625 -153.3125 329.375 C-153.085625 330.055625 -152.85875 330.73625 -152.625 331.4375 C-151.635 331.7675 -150.645 332.0975 -149.625 332.4375 C-148.95833333 333.77083333 -148.29166667 335.10416667 -147.625 336.4375 C-145.98011706 338.12566933 -144.31162458 339.79103315 -142.625 341.4375 C-142.0475 342.22125 -141.47 343.005 -140.875 343.8125 C-138.18190263 346.95444694 -135.15824367 349.23391351 -131.84375 351.69140625 C-128.82422279 354.06768911 -126.25382454 356.76937392 -123.625 359.5625 C-121.68766419 361.37875232 -119.98979308 362.29587575 -117.625 363.4375 C-117.295 364.0975 -116.965 364.7575 -116.625 365.4375 C-115.985625 365.72625 -115.34625 366.015 -114.6875 366.3125 C-112.20498766 367.66659764 -111.65628603 368.85928493 -110.625 371.4375 C-115.58860332 369.87805375 -119.05843252 366.95224719 -123 363.6875 C-123.69536865 363.11620361 -124.3907373 362.54490723 -125.10717773 361.95629883 C-135.24572709 353.53478956 -145.33478122 344.72317625 -153.625 334.4375 C-154.52148608 333.37575347 -155.41869351 332.31461583 -156.31640625 331.25390625 C-174.34401431 309.67647163 -186.78359684 284.3661621 -194.625 257.4375 C-194.9355835 256.3853833 -194.9355835 256.3853833 -195.25244141 255.31201172 C-196.57955467 250.72469436 -197.6727019 246.11632575 -198.625 241.4375 C-198.84929687 240.36701416 -198.84929687 240.36701416 -199.078125 239.27490234 C-203.80489583 215.66651573 -203.72714615 188.94221622 -198.625 165.4375 C-198.45339355 164.60186523 -198.28178711 163.76623047 -198.10498047 162.90527344 C-192.31721815 135.02677576 -181.65025685 108.42092804 -164.625 85.4375 C-164.20959961 84.86950684 -163.79419922 84.30151367 -163.36621094 83.71630859 C-157.98397254 76.4188801 -152.11743248 69.63217894 -145.9375 63 C-145.33204346 62.34974854 -144.72658691 61.69949707 -144.1027832 61.02954102 C-139.8450773 56.53878902 -135.34613288 52.43476132 -130.625 48.4375 C-130.0482251 47.94386963 -129.4714502 47.45023926 -128.87719727 46.94165039 C-93.0706134 16.58219962 -46.8434531 -0.02037586 0 0 Z " fill="#806102" transform="translate(323.625,87.5625)"/>
<path d="M0 0 C1.13622803 0.00123871 1.13622803 0.00123871 2.29541016 0.00250244 C32.89984281 0.07906188 32.89984281 0.07906188 40.75 5.3125 C39.75 6.3125 39.75 6.3125 37.78588867 6.40583801 C36.9219751 6.39155258 36.05806152 6.37726715 35.16796875 6.36254883 C34.18763672 6.34956253 33.20730469 6.33657623 32.19726562 6.32319641 C31.12154297 6.30548691 30.04582031 6.2877774 28.9375 6.26953125 C26.63933221 6.24707524 24.34115438 6.22562758 22.04296875 6.20507812 C18.43672978 6.16854639 14.8310153 6.12636353 11.22509766 6.06567383 C-16.32006272 5.62401007 -41.64723797 9.67483524 -67.3515625 19.6484375 C-69.25 20.3125 -69.25 20.3125 -71.25 20.3125 C-71.25 20.9725 -71.25 21.6325 -71.25 22.3125 C-72.11238281 22.55742188 -72.97476563 22.80234375 -73.86328125 23.0546875 C-88.48301871 27.53169263 -102.66217123 34.20632109 -114.25 44.3125 C-116.16524588 45.85593139 -118.08198728 47.3975083 -120 48.9375 C-123.63995407 51.88564993 -126.9517471 54.98910798 -130.25 58.3125 C-131.77319137 59.72507987 -133.31346189 61.1174476 -134.85473633 62.51025391 C-143.57620978 70.40733522 -151.20589693 78.88705063 -158.4765625 88.140625 C-160.25 90.3125 -160.25 90.3125 -162.875 92.875 C-168.13948818 98.27802734 -171.34342823 104.40939206 -174.25 111.3125 C-175.3570321 113.59214667 -176.48236201 115.8629904 -177.625 118.125 C-177.92809082 118.73029541 -178.23118164 119.33559082 -178.54345703 119.95922852 C-179.92785401 122.72035167 -181.33230784 125.46745711 -182.78125 128.1953125 C-185.32516048 133.03170045 -186.66141256 136.81901723 -187.25 142.3125 C-188.35161733 146.54538115 -189.57667704 150.72447414 -191.28515625 154.75390625 C-192.34207842 157.55667557 -192.81531647 160.16371845 -193.25 163.125 C-193.79578395 166.64036435 -194.38169119 170.06634972 -195.3125 173.5 C-197.09445521 180.74661785 -197.40207678 187.97718824 -197.3828125 195.4140625 C-197.38424759 196.67336075 -197.38424759 196.67336075 -197.38571167 197.95809937 C-197.38638762 199.72450842 -197.38457451 201.49092004 -197.38037109 203.25732422 C-197.37505533 205.90989004 -197.38031517 208.56228339 -197.38671875 211.21484375 C-197.38821795 220.38375796 -197.15405676 229.4228261 -196.26904297 238.55224609 C-196.26275879 239.46312988 -196.25647461 240.37401367 -196.25 241.3125 C-197.24 242.3025 -197.24 242.3025 -198.25 243.3125 C-201.48456514 229.91215872 -202.63033645 216.91425276 -202.5625 203.1875 C-202.56067719 202.41903748 -202.55885437 201.65057495 -202.55697632 200.85882568 C-202.50882543 188.77342418 -201.82030093 177.15343755 -199.25 165.3125 C-199.07839355 164.47686523 -198.90678711 163.64123047 -198.72998047 162.78027344 C-192.94221815 134.90177576 -182.27525685 108.29592804 -165.25 85.3125 C-164.83459961 84.74450684 -164.41919922 84.17651367 -163.99121094 83.59130859 C-158.60897254 76.2938801 -152.74243248 69.50717894 -146.5625 62.875 C-145.95704346 62.22474854 -145.35158691 61.57449707 -144.7277832 60.90454102 C-140.4700773 56.41378902 -135.97113288 52.30976132 -131.25 48.3125 C-130.6732251 47.81886963 -130.0964502 47.32523926 -129.50219727 46.81665039 C-93.45983956 16.25729325 -47.11317249 -0.2185956 0 0 Z " fill="#6B5102" transform="translate(324.25,87.6875)"/>
<path d="M0 0 C0 0.66 0 1.32 0 2 C-0.59167969 1.91621094 -1.18335938 1.83242187 -1.79296875 1.74609375 C-6.17498892 1.18136358 -9.66140871 0.97915499 -14 2 C-14.99 1.67 -15.98 1.34 -17 1 C-24.17394616 1.11716244 -31.22651596 1.55001641 -38 4 C-39.2065625 4.3403125 -39.2065625 4.3403125 -40.4375 4.6875 C-44.53545861 6.78645441 -47.66361525 9.85987317 -51 13 C-51.79535156 13.7425 -52.59070313 14.485 -53.41015625 15.25 C-57.52753324 19.21339379 -60.86382165 22.59672535 -63 28 C-63.391875 28.721875 -63.78375 29.44375 -64.1875 30.1875 C-65.20452795 32.12520782 -65.20452795 32.12520782 -65 35 C-65.309375 35.86625 -65.61875 36.7325 -65.9375 37.625 C-67.23851956 41.75765037 -67.61116781 45.70201557 -68 50 C-68.0928125 50.80824219 -68.185625 51.61648438 -68.28125 52.44921875 C-68.85607578 57.53483017 -69.03745868 62.48624413 -68.96484375 67.6015625 C-68.99926715 69.95000365 -69.23118759 72.17661931 -69.5625 74.5 C-70.3091298 77.84399057 -70.3091298 77.84399057 -69 80 C-68.64386903 81.66194453 -68.30791692 83.328451 -68 85 C-67.67 85 -67.34 85 -67 85 C-66.49236135 87.68625454 -65.99372803 90.37368383 -65.5 93.0625 C-65.35691406 93.81466797 -65.21382813 94.56683594 -65.06640625 95.34179688 C-64.223569 99.97740175 -63.84984738 104.2889615 -64 109 C-73.86180413 100.54702503 -76.76950608 87.44712964 -78 75 C-78.38629478 68.96272733 -78.45976428 62.92280963 -78.5 56.875 C-78.51044342 56.11930725 -78.52088684 55.3636145 -78.53164673 54.58502197 C-78.7297062 36.19663245 -75.73860803 17.81219601 -62.5625 4 C-44.74331835 -12.46239117 -19.8361305 -13.224087 0 0 Z " fill="#816203" transform="translate(356,224)"/>
<path d="M0 0 C2.39471643 3.70584692 2.26373517 7.30637115 2.21118164 11.56665039 C2.2098674 12.32319412 2.20855316 13.07973785 2.2071991 13.85920715 C2.20071731 16.35548493 2.18029033 18.85145457 2.16015625 21.34765625 C2.15388465 23.08352832 2.14864496 24.8194044 2.14439392 26.55528259 C2.13109594 31.12279836 2.10666402 35.69018022 2.07904053 40.25762939 C2.03590703 47.57202019 2.00621733 54.88644746 1.9829998 62.20092583 C1.97276711 64.75745968 1.95571855 67.31388502 1.93800354 69.87037659 C1.93117635 71.43449812 1.9245676 72.99862062 1.91821289 74.56274414 C1.91147552 75.27503174 1.90473816 75.98731934 1.89779663 76.72119141 C1.89073605 79.77082163 2.02684946 82.08054837 3 85 C1.6875 86.9375 1.6875 86.9375 0 89 C-0.27328125 89.62261719 -0.5465625 90.24523437 -0.828125 90.88671875 C-4.61192495 97.71017132 -13.27989541 101.94415411 -19.98828125 105.41796875 C-24.14669465 107.60234933 -28.18761008 109.98095752 -32.22949219 112.37304688 C-35.11420519 114.04932137 -37.6973848 115.42694348 -41 116 C-45.18330107 116.94461637 -48.91484506 117.91484506 -52 121 C-53.65391846 121.39171753 -55.32345271 121.72057545 -57 122 C-59.39914051 122.56450365 -61.65570833 123.21856944 -64 124 C-66.27788334 124.29711522 -68.55665403 124.50528771 -70.84375 124.71875 C-73.17879829 124.95356073 -73.17879829 124.95356073 -76 126 C-96.80045475 129.32807276 -118.60933845 130.8062709 -139.15234375 125.4375 C-141.00790632 124.92319496 -141.00790632 124.92319496 -143 125 C-143 124.34 -143 123.68 -143 123 C-145.64 123.33 -148.28 123.66 -151 124 C-151.66 123.01 -152.32 122.02 -153 121 C-154.485 120.505 -154.485 120.505 -156 120 C-155.67 120.99 -155.34 121.98 -155 123 C-156.9375 122.25 -156.9375 122.25 -159 121 C-159.07734375 120.36835938 -159.1546875 119.73671875 -159.234375 119.0859375 C-159.84958965 116.67601273 -159.84958965 116.67601273 -162.80078125 115.5859375 C-163.95964844 115.18632812 -165.11851562 114.78671875 -166.3125 114.375 C-173.6941959 111.77942048 -173.6941959 111.77942048 -177 110 C-177 109.34 -177 108.68 -177 108 C-176.4743042 108.1861084 -175.9486084 108.3722168 -175.40698242 108.56396484 C-169.44671125 110.61896184 -163.45072208 112.19934842 -157.3125 113.625 C-156.40177734 113.8415625 -155.49105469 114.058125 -154.55273438 114.28125 C-150.05186217 115.34027875 -145.57670923 116.31690907 -141 117 C-141.99 117.495 -141.99 117.495 -143 118 C-143 118.66 -143 119.32 -143 120 C-141.35 120.66 -139.7 121.32 -138 122 C-137.67 121.34 -137.34 120.68 -137 120 C-134.69 120.99 -132.38 121.98 -130 123 C-129.67 122.34 -129.34 121.68 -129 121 C-127.865625 121.33 -126.73125 121.66 -125.5625 122 C-121.00204151 123.15847067 -116.67838994 123.19493291 -112 123 C-112 122.67 -112 122.34 -112 122 C-110.02 122 -108.04 122 -106 122 C-106 122.33 -106 122.66 -106 123 C-99.64012196 123.20190089 -94.14778871 122.6277833 -88 121 C-88 121.66 -88 122.32 -88 123 C-86.576875 122.5359375 -86.576875 122.5359375 -85.125 122.0625 C-81.16188317 120.91165626 -77.24128087 120.55409305 -73.13671875 120.24609375 C-70.95039833 120.11767362 -70.95039833 120.11767362 -69 119 C-67.54108242 119.00563289 -66.08212025 119.05238603 -64.625 119.125 C-60.59834906 119.1698117 -59.07263278 118.67616404 -56 116 C-54.10590421 115.24889305 -52.2087555 114.50334933 -50.2890625 113.8203125 C-47.75346534 112.9116514 -45.25233762 111.93400613 -42.75 110.9375 C-41.94046875 110.61652344 -41.1309375 110.29554688 -40.296875 109.96484375 C-36.60675858 108.41474383 -33.16155554 106.54326701 -29.6875 104.5625 C-26.96110464 103.02806868 -24.42494387 101.77408509 -21.5 100.625 C-16.74800908 98.4187185 -13.02807709 95.31164959 -9 92 C-8.38253906 91.52949219 -7.76507813 91.05898438 -7.12890625 90.57421875 C-4.03922889 88.18101542 -2.57619962 86.85352871 -2 83 C-1.92090336 80.44241757 -1.8942245 77.91401414 -1.91821289 75.35742188 C-1.92127945 74.59273087 -1.92434601 73.82803986 -1.92750549 73.04017639 C-1.93464819 71.38306121 -1.94403173 69.7259545 -1.95540047 68.06886292 C-1.97280555 65.44625283 -1.98309438 62.82370379 -1.99131775 60.2010498 C-2.01576097 52.74546536 -2.05138261 45.28996337 -2.09594727 37.83447266 C-2.12272349 33.27169842 -2.13977007 28.70897153 -2.15081596 24.14613342 C-2.1570253 22.40778349 -2.16703006 20.66944282 -2.18089485 18.93113708 C-2.20010359 16.50155619 -2.20700592 14.0722247 -2.21118164 11.64257812 C-2.21994324 10.92453506 -2.22870483 10.206492 -2.23773193 9.46669006 C-2.23054693 5.80613867 -2.01680429 3.11132548 0 0 Z " fill="#977200" transform="translate(443,279)"/>
<path d="M0 0 C-6.52642513 4.35095009 -14.32926486 5.60471812 -21.9375 7 C-28.77566281 8.30503144 -35.38451221 9.7948374 -42 12 C-42 12.66 -42 13.32 -42 14 C-42.56589844 14.10957031 -43.13179688 14.21914062 -43.71484375 14.33203125 C-44.44832031 14.49058594 -45.18179688 14.64914063 -45.9375 14.8125 C-46.66839844 14.96332031 -47.39929688 15.11414063 -48.15234375 15.26953125 C-49.06693359 15.63111328 -49.06693359 15.63111328 -50 16 C-50.495 17.485 -50.495 17.485 -51 19 C-53.7734375 19.95703125 -53.7734375 19.95703125 -57.375 20.8125 C-67.78115681 23.60928657 -75.58430598 28.25334764 -83.7109375 35.265625 C-86 37 -86 37 -88.5078125 37.99609375 C-91.42241679 39.17015849 -93.19421178 40.68938866 -95.5 42.8125 C-96.2321875 43.47894531 -96.964375 44.14539063 -97.71875 44.83203125 C-99.30258166 46.33721373 -100.86235236 47.86796116 -102.40234375 49.41796875 C-105.70364975 52.69941727 -109.15297188 55.79787381 -112.62695312 58.89453125 C-115.05931636 61.0945031 -117.21012452 63.26603592 -119.24609375 65.84375 C-120.11427734 66.91109375 -120.11427734 66.91109375 -121 68 C-121.66 68 -122.32 68 -123 68 C-123.37705078 68.84498047 -123.37705078 68.84498047 -123.76171875 69.70703125 C-125.18023432 72.3337462 -126.88992525 74.40467224 -128.8125 76.6875 C-132.02667271 80.62820361 -134.56654688 84.54487673 -136.9140625 89.04296875 C-138 91 -138 91 -140.125 93.625 C-141.98561289 95.98177632 -142.9905601 98.2169468 -144.08984375 100.9921875 C-145.18330194 103.40436565 -146.53338788 105.56732824 -147.9375 107.8125 C-150.93015948 112.68392586 -153.02269578 117.65229085 -155 123 C-155.66264189 124.66827095 -156.3282567 126.33537297 -157 128 C-157.66 128 -158.32 128 -159 128 C-158.87625 129.5159375 -158.87625 129.5159375 -158.75 131.0625 C-158.71240671 138.01725928 -160.86828419 146.73656838 -164 153 C-164.27690264 155.68991132 -164.44592722 158.37981504 -164.62109375 161.078125 C-165 164 -165 164 -165.95410156 166.78637695 C-169.2718124 176.98036103 -169.30018172 187.8237921 -169.20581055 198.44116211 C-169.18748349 200.56441296 -169.18530251 202.68722473 -169.18554688 204.81054688 C-169.15496733 218.12104096 -168.1815469 230.55391955 -164.9375 243.5 C-164.3790937 245.75918156 -163.82551103 248.01956223 -163.27734375 250.28125 C-163.03234131 251.26158203 -162.78733887 252.24191406 -162.53491211 253.25195312 C-162.01686414 255.91336251 -161.89929072 258.29717223 -162 261 C-166.06452798 256.93547202 -166.25272518 250.80661944 -166.65625 245.30859375 C-166.94693438 242.87871683 -166.94693438 242.87871683 -167.9609375 240.19140625 C-172.25035333 227.01677191 -171.18847236 212.00850743 -171.1875 198.3125 C-171.18885956 197.05010498 -171.18885956 197.05010498 -171.19024658 195.76220703 C-171.18994904 193.31664686 -171.1809347 190.87130446 -171.16796875 188.42578125 C-171.16616356 187.33122368 -171.16616356 187.33122368 -171.1643219 186.21455383 C-171.12101658 181.39830239 -170.64024062 176.77363156 -170 172 C-169.89341936 170.44940903 -169.8067643 168.89710052 -169.75390625 167.34375 C-169.70459961 166.15072266 -169.70459961 166.15072266 -169.65429688 164.93359375 C-169.59310433 163.31134036 -169.53581167 161.68893517 -169.48242188 160.06640625 C-169.20953369 153.71274546 -168.4851063 147.84645375 -165.5 142.125 C-163.81051386 138.6052372 -163.22200146 135.39316647 -162.51953125 131.578125 C-161.16166451 124.83983892 -158.67867867 119.09214685 -155.24609375 113.1640625 C-154.13710919 111.23811439 -153.11178194 109.30300434 -152.125 107.3125 C-151.8053125 106.673125 -151.485625 106.03375 -151.15625 105.375 C-150.21802975 103.4478449 -149.30782307 101.50706937 -148.40625 99.5625 C-147.8126566 98.31242563 -147.21890548 97.06242614 -146.625 95.8125 C-146.08101562 94.64332031 -145.53703125 93.47414063 -144.9765625 92.26953125 C-142.67349279 88.45990804 -140.48658467 86.72101185 -137 84 C-135.38171997 82.17485611 -135.38171997 82.17485611 -134.125 80.3125 C-129.19663118 73.48263455 -124.1182609 66.81234785 -118 61 C-116.66581266 59.64667473 -115.3325563 58.29243131 -114 56.9375 C-111.13647803 54.06860557 -108.19206068 51.5018854 -105 49 C-103.84757812 47.83791016 -103.84757812 47.83791016 -102.671875 46.65234375 C-98.40026733 42.41196128 -93.6985662 38.75271104 -89 35 C-88.12730469 34.26394531 -87.25460938 33.52789062 -86.35546875 32.76953125 C-80.10070619 27.71382189 -73.59993411 24.05579811 -66.375 20.5625 C-65.50439941 20.13718994 -64.63379883 19.71187988 -63.73681641 19.27368164 C-57.91994394 16.56056767 -52.34287163 14.96425922 -46 14 C-46 13.34 -46 12.68 -46 12 C-37.20573097 8.08217399 -28.36746025 5.08972226 -19.0625 2.625 C-17.60734985 2.23127197 -17.60734985 2.23127197 -16.12280273 1.82958984 C-10.5833108 0.4083763 -5.716855 -0.28348041 0 0 Z " fill="#826200" transform="translate(299,96)"/>
<path d="M0 0 C-0.33 0.66 -0.66 1.32 -1 2 C-2.63415947 2.23831492 -4.26981733 2.4689511 -5.91015625 2.66015625 C-9.75245594 3.28497882 -13.35105942 4.67599205 -17 6 C-17.99 6.35771484 -17.99 6.35771484 -19 6.72265625 C-23.60954973 8.42335706 -28.15869015 10.2658313 -32.703125 12.1328125 C-34.79121484 12.92117295 -36.82489658 13.51110061 -39 14 C-38.67 13.01 -38.34 12.02 -38 11 C-35.10441559 9.5522078 -33.25811062 9 -30 9 C-30 8.34 -30 7.68 -30 7 C-20.25601762 2.94129828 -10.71337131 -0.57910115 0 0 Z M-39 15 C-40.134375 15.59167969 -41.26875 16.18335937 -42.4375 16.79296875 C-43.95841932 17.59098197 -45.4792478 18.38916835 -47 19.1875 C-47.74378906 19.57486328 -48.48757812 19.96222656 -49.25390625 20.36132812 C-53.68675671 22.69339293 -57.97548268 25.16385986 -62.20019531 27.85473633 C-63.73031434 28.82839183 -65.28113699 29.76938806 -66.8359375 30.703125 C-67.67382812 31.21359375 -68.51171875 31.7240625 -69.375 32.25 C-70.62410156 33.00023437 -70.62410156 33.00023437 -71.8984375 33.765625 C-92.73740325 48.77807891 -114.35325529 70.70788404 -127 93 C-127.45576416 93.79486816 -127.91152832 94.58973633 -128.38110352 95.40869141 C-130.98698297 99.99282949 -130.98698297 99.99282949 -132.9375 104.875 C-133.97999435 107.94115987 -135.29205209 110.43148426 -136.875 113.25 C-141.07297021 120.79817515 -143.9659836 128.4880398 -146.3515625 136.7734375 C-146.85125472 138.48924814 -147.41290336 140.18709716 -148 141.875 C-149.59143632 146.84823851 -150.7687812 151.92737853 -152 157 C-152.33 157 -152.66 157 -153 157 C-153.2741206 151.24346744 -152.87731369 147.1103365 -150.8671875 141.75 C-148.94966597 135.669211 -148.0853365 129.27339893 -147 123 C-146.34 123 -145.68 123 -145 123 C-144.82017578 121.92105469 -144.82017578 121.92105469 -144.63671875 120.8203125 C-142.85062109 112.90888607 -138.32477914 105.58894914 -134.40234375 98.5625 C-133.18601291 96.33990103 -132.07847762 94.10370556 -131 91.8125 C-129.20526316 88.14042337 -126.87555594 85.07375635 -124.36328125 81.86328125 C-122.84393523 79.91224091 -122.84393523 79.91224091 -121.625 77.0625 C-119.15435921 72.40629235 -115.55182775 68.86096831 -112 65 C-110.82965316 63.64901267 -109.66279969 62.29498862 -108.5 60.9375 C-103.41782327 55.12432524 -98.08060533 49.76587985 -92 45 C-91.2575 44.2575 -90.515 43.515 -89.75 42.75 C-83.81176696 36.81176696 -78.79124127 32.28052264 -71 29 C-69.32522481 27.72463665 -67.6816999 26.40771943 -66.0625 25.0625 C-59.03537707 19.27545759 -48.42209975 12.32974422 -39 15 Z " fill="#A77E00" transform="translate(287,101)"/>
<path d="M0 0 C-2.33790121 1.47201187 -3.45442072 2.11354207 -6.21484375 1.5390625 C-13.85607291 0.06011492 -22.70859865 1.36268462 -30 4 C-30.804375 4.226875 -31.60875 4.45375 -32.4375 4.6875 C-36.53545861 6.78645441 -39.66361525 9.85987317 -43 13 C-43.79535156 13.7425 -44.59070313 14.485 -45.41015625 15.25 C-49.52753324 19.21339379 -52.86382165 22.59672535 -55 28 C-55.391875 28.721875 -55.78375 29.44375 -56.1875 30.1875 C-57.20452795 32.12520782 -57.20452795 32.12520782 -57 35 C-57.309375 35.86625 -57.61875 36.7325 -57.9375 37.625 C-59.23851956 41.75765037 -59.61116781 45.70201557 -60 50 C-60.0928125 50.80824219 -60.185625 51.61648438 -60.28125 52.44921875 C-60.85607578 57.53483017 -61.03745868 62.48624413 -60.96484375 67.6015625 C-60.99926715 69.95000365 -61.23118759 72.17661931 -61.5625 74.5 C-62.3091298 77.84399057 -62.3091298 77.84399057 -61 80 C-60.64386903 81.66194453 -60.30791692 83.328451 -60 85 C-59.67 85 -59.34 85 -59 85 C-58.49236135 87.68625454 -57.99372803 90.37368383 -57.5 93.0625 C-57.35691406 93.81466797 -57.21382813 94.56683594 -57.06640625 95.34179688 C-56.223569 99.97740175 -55.84984738 104.2889615 -56 109 C-60.81981838 104.8687271 -63.7847751 99.96000986 -66 94 C-65.505 93.01 -65.505 93.01 -65 92 C-63.77604533 87.58101368 -64.05832465 83.36741859 -64.375 78.84765625 C-64.42317871 78.06990341 -64.47135742 77.29215057 -64.52099609 76.49082947 C-64.72624234 73.17951094 -64.94650599 69.86923684 -65.16601562 66.55883789 C-65.32455963 64.13459498 -65.47497884 61.70993917 -65.625 59.28515625 C-65.6770459 58.54435318 -65.7290918 57.80355011 -65.78271484 57.04029846 C-66.04044393 52.85336846 -65.86121197 49.10436196 -65 45 C-64.84660156 44.20335937 -64.69320313 43.40671875 -64.53515625 42.5859375 C-64.37917969 41.85632813 -64.22320312 41.12671875 -64.0625 40.375 C-63.90910156 39.64023437 -63.75570313 38.90546875 -63.59765625 38.1484375 C-62.97605679 35.91392965 -62.0673647 34.05262443 -61 32 C-60.835 31.319375 -60.67 30.63875 -60.5 29.9375 C-60 28 -60 28 -58 25 C-57.56880859 23.55947266 -57.56880859 23.55947266 -57.12890625 22.08984375 C-54.05255733 13.66980225 -43.67658544 6.27626574 -36.05078125 1.875 C-28.48893771 -1.35138658 -19.4827503 -1.28018483 -11.375 -1.75 C-10.48554688 -1.80679932 -9.59609375 -1.86359863 -8.6796875 -1.92211914 C-7.844375 -1.96328857 -7.0090625 -2.00445801 -6.1484375 -2.046875 C-5.39739746 -2.08651367 -4.64635742 -2.12615234 -3.87255859 -2.16699219 C-2 -2 -2 -2 0 0 Z " fill="#9E7700" transform="translate(348,224)"/>
<path d="M0 0 C49.28450936 -0.81032709 49.28450936 -0.81032709 58 5 C57 6 57 6 55.03588867 6.09333801 C53.74001831 6.07190987 53.74001831 6.07190987 52.41796875 6.05004883 C51.43763672 6.03706253 50.45730469 6.02407623 49.44726562 6.01069641 C48.37154297 5.99298691 47.29582031 5.9752774 46.1875 5.95703125 C43.88933221 5.93457524 41.59115438 5.91312758 39.29296875 5.89257812 C35.68672978 5.85604639 32.0810153 5.81386353 28.47509766 5.75317383 C0.92993728 5.31151007 -24.39723797 9.36233524 -50.1015625 19.3359375 C-52 20 -52 20 -54 20 C-54 20.66 -54 21.32 -54 22 C-60.28571429 24.42857143 -60.28571429 24.42857143 -64 23 C-61.62096609 20.62096609 -59.73375141 20.07814125 -56.5625 19 C-53.29536384 17.88630245 -50.89225493 16.92816995 -48 15 C-46.33333333 14.66666667 -44.66666667 14.33333333 -43 14 C-41.0336862 13.31747785 -39.09775134 12.57632547 -37.16015625 11.81640625 C-31.25798485 9.58574834 -25.43101704 8.18794322 -19.25 7 C-18.40695312 6.835 -17.56390625 6.67 -16.6953125 6.5 C-14.99186208 6.16660298 -13.28791941 5.8357113 -11.58349609 5.50732422 C-9.82357949 5.16172729 -8.06611553 4.80345522 -6.31103516 4.43408203 C-0.705684 3.25975628 4.26869126 2.81511907 10 3 C10 2.34 10 1.68 10 1 C6.7 1 3.4 1 0 1 C0 0.67 0 0.34 0 0 Z " fill="#775A00" transform="translate(307,88)"/>
<path d="M0 0 C12.87 0 25.74 0 39 0 C39 2.64 39 5.28 39 8 C37.03258372 9.96741628 33.22432269 9.16388207 30.53515625 9.16796875 C29.4123954 9.17296135 29.4123954 9.17296135 28.26695251 9.17805481 C26.68066016 9.18312693 25.0943571 9.18546305 23.50805664 9.18530273 C21.07615631 9.18748773 18.64471051 9.20563581 16.21289062 9.22460938 C14.67448072 9.22754349 13.13606866 9.22952817 11.59765625 9.23046875 C10.50228294 9.24124702 10.50228294 9.24124702 9.38478088 9.25224304 C4.22882307 9.22882307 4.22882307 9.22882307 2 7 C1.62690101 5.34178227 1.29299023 3.67422986 1 2 C0.67 1.34 0.34 0.68 0 0 Z " fill="#826200" transform="translate(337,313)"/>
<path d="M0 0 C0.95531616 -0.00012085 1.91063232 -0.0002417 2.89489746 -0.00036621 C18.05777903 0.02695888 32.55716765 0.90230342 47.375 4.375 C48.13603027 4.55111816 48.89706055 4.72723633 49.68115234 4.90869141 C53.95767299 5.92572158 58.16756593 7.09840812 62.375 8.375 C63.30183594 8.643125 64.22867188 8.91125 65.18359375 9.1875 C67.58965686 9.89064173 69.98196509 10.62896015 72.375 11.375 C73.22449219 11.62121094 74.07398438 11.86742188 74.94921875 12.12109375 C76.18091797 12.49427734 76.18091797 12.49427734 77.4375 12.875 C78.17097656 13.0915625 78.90445313 13.308125 79.66015625 13.53125 C80.22605469 13.8096875 80.79195313 14.088125 81.375 14.375 C81.87 15.86 81.87 15.86 82.375 17.375 C81.055 17.375 79.735 17.375 78.375 17.375 C78.375 16.715 78.375 16.055 78.375 15.375 C75.735 15.045 73.095 14.715 70.375 14.375 C70.375 13.715 70.375 13.055 70.375 12.375 C69.240625 12.2925 68.10625 12.21 66.9375 12.125 C62.16960084 11.60445405 57.59171182 10.55829773 52.9375 9.4375 C52.18791016 9.25751465 51.43832031 9.0775293 50.66601562 8.89208984 C49.20820665 8.54105302 47.75051922 8.18951096 46.29296875 7.83740234 C25.12015183 2.7328561 3.96568923 2.72999511 -17.625 4.375 C-18.72972656 4.4471875 -19.83445312 4.519375 -20.97265625 4.59375 C-25.69498042 4.92807384 -30.15015094 5.42167893 -34.75 6.5625 C-36.02875 6.830625 -37.3075 7.09875 -38.625 7.375 C-39.285 6.715 -39.945 6.055 -40.625 5.375 C-27.15792691 0.38719515 -14.20459574 -0.02743495 0 0 Z " fill="#9E7700" transform="translate(327.625,94.625)"/>
<path d="M0 0 C1.10003727 3.3001118 0.87442354 4.23107909 0.0625 7.5 C-0.94511815 12.11489114 -1.14166594 16.35617958 -0.97265625 21.06640625 C-0.99555233 23.52282855 -1.18497764 25.79892301 -1.48046875 28.23046875 C-3.97519973 49.4169991 -0.75600831 70.60575144 5 91 C5.25249512 91.89976562 5.50499023 92.79953125 5.76513672 93.7265625 C7.48209489 99.82588106 9.22881731 105.91621818 11 112 C11.33 112 11.66 112 12 112 C12 113.65 12 115.3 12 117 C10.515 116.505 10.515 116.505 9 116 C7.848082 113.55179028 6.92606099 111.23847902 6.0625 108.6875 C5.80235107 107.93637939 5.54220215 107.18525879 5.27416992 106.41137695 C2.79363726 98.93604065 1.29332876 91.33612177 -0.125 83.6015625 C-0.81149353 79.86685545 -1.68214663 76.22623967 -2.6875 72.5625 C-5.59890307 61.28412031 -5.23574699 49.33587505 -5.25 37.75 C-5.25167175 37.02720856 -5.25334351 36.30441711 -5.25506592 35.5597229 C-5.25870588 9.25989514 -5.25870588 9.25989514 0 0 Z " fill="#A37A00" transform="translate(134,259)"/>
<path d="M0 0 C0.33 0 0.66 0 1 0 C1.08636719 0.56847656 1.17273438 1.13695312 1.26171875 1.72265625 C2.21743233 6.97469693 3.64938503 10.26454891 6.95703125 14.42578125 C8.42334646 16.6389836 8.39032958 18.42382479 8 21 C9.32 21.33 10.64 21.66 12 22 C12 23.32 12 24.64 12 26 C12.66 26 13.32 26 14 26 C14 26.99 14 27.98 14 29 C14.66 29 15.32 29 16 29 C16 29.99 16 30.98 16 32 C16.66 32 17.32 32 18 32 C18 32.99 18 33.98 18 35 C18.66 35 19.32 35 20 35 C20 35.66 20 36.32 20 37 C20.66 37 21.32 37 22 37 C22.103125 37.639375 22.20625 38.27875 22.3125 38.9375 C22.539375 39.618125 22.76625 40.29875 23 41 C24.485 41.495 24.485 41.495 26 42 C26.66666667 43.33333333 27.33333333 44.66666667 28 46 C29.64488294 47.68816933 31.31337542 49.35353315 33 51 C33.5775 51.78375 34.155 52.5675 34.75 53.375 C37.44309737 56.51694694 40.46675633 58.79641351 43.78125 61.25390625 C46.80077721 63.63018911 49.37117546 66.33187392 52 69.125 C53.93733581 70.94125232 55.63520692 71.85837575 58 73 C58.33 73.66 58.66 74.32 59 75 C59.639375 75.28875 60.27875 75.5775 60.9375 75.875 C63.42001234 77.22909764 63.96871397 78.42178493 65 81 C60.03639668 79.44055375 56.56656748 76.51474719 52.625 73.25 C51.92963135 72.67870361 51.2342627 72.10740723 50.51782227 71.51879883 C40.37927291 63.09728956 30.29021878 54.28567625 22 44 C21.10351392 42.93825347 20.20630649 41.87711583 19.30859375 40.81640625 C13.67338178 34.07171333 8.48644454 27.09383137 3.75 19.6875 C3.03312012 18.61363037 3.03312012 18.61363037 2.30175781 17.51806641 C-1.06487385 12.07131058 -1.85146202 7.36947007 -1 1 C-0.67 0.67 -0.34 0.34 0 0 Z " fill="#9F7905" transform="translate(148,378)"/>
<path d="M0 0 C8.16568047 -0.27218935 8.16568047 -0.27218935 12 2 C12.99 2 13.98 2 15 2 C27.1543222 7.82635763 37.75820981 16.71024206 47.6015625 25.7890625 C49.22317923 27.28390789 50.86458894 28.75751911 52.5234375 30.2109375 C58.48419448 35.43806285 63.8239389 40.99862207 69 47 C69.55171875 47.62519531 70.1034375 48.25039062 70.671875 48.89453125 C74 52.73683287 74 52.73683287 74 55 C70.57975798 53.85991933 70.20086519 53.18947816 68.25 50.3125 C65.70721621 46.77910316 63.0300149 44.10401208 59.66015625 41.37109375 C57.28220645 39.40718698 55.17952096 37.17952096 53 35 C51.33729713 33.66172696 49.67083819 32.32810215 48 31 C45.6875 28.875 45.6875 28.875 44 27 C44 26.34 44 25.68 44 25 C42.02 24.34 40.04 23.68 38 23 C38 22.34 38 21.68 38 21 C37.34 21 36.68 21 36 21 C36 20.34 36 19.68 36 19 C35.01 19 34.02 19 33 19 C33 18.34 33 17.68 33 17 C32.01 17 31.02 17 30 17 C30 16.34 30 15.68 30 15 C29.01 15 28.02 15 27 15 C27 14.34 27 13.68 27 13 C25.68 13 24.36 13 23 13 C22.67 12.01 22.34 11.02 22 10 C20.00945124 9.30562253 18.00744615 8.64389782 16 8 C15.0925 7.360625 14.185 6.72125 13.25 6.0625 C9.05303869 3.39904378 4.77856102 2.24658114 0 1 C0 0.67 0 0.34 0 0 Z " fill="#967101" transform="translate(411,113)"/>
<path d="M0 0 C-0.9375 1.9375 -0.9375 1.9375 -3 4 C-5.20849953 4.48030376 -7.35115338 4.63610411 -9.60546875 4.7890625 C-11.85615425 4.98732843 -13.82762359 5.39922256 -16 6 C-19.5866313 6.96782114 -23.08986997 7.36478205 -26.78125 7.71875 C-28.92782025 7.99085045 -30.91297144 8.43683356 -33 9 C-36.58343918 9.96695978 -40.07762346 10.37514423 -43.76953125 10.69921875 C-46.03685184 11.00496951 -48.016275 11.605301 -50.1875 12.3125 C-54 13 -54 13 -57.5 11.4375 C-60 9 -60 9 -60.375 6.25 C-60.25125 5.5075 -60.1275 4.765 -60 4 C-59.67 5.32 -59.34 6.64 -59 8 C-56.93690624 7.88521587 -54.87451646 7.75773802 -52.8125 7.625 C-51.08966797 7.52058594 -51.08966797 7.52058594 -49.33203125 7.4140625 C-46.17046576 7.02118332 -43.90759671 6.22883455 -41 5 C-38.7890625 4.65625 -38.7890625 4.65625 -36.625 4.5 C-33.64176884 4.22834816 -31.29163613 3.79237611 -28.375 2.9375 C-24.75742825 1.93261896 -21.73602987 2 -18 2 C-15.99161804 1.35902703 -13.99172182 0.69100553 -12 0 C-7.91916825 -0.79239451 -3.99419801 -1.49782425 0 0 Z " fill="#987300" transform="translate(434,237)"/>
<path d="M0 0 C2.42267348 3.63401022 2.24071426 6.251335 2.16015625 10.44140625 C2.1523539 11.52662819 2.1523539 11.52662819 2.14439392 12.6337738 C2.12659032 14.94355401 2.09541549 17.25288954 2.0625 19.5625 C2.0348912 21.87563734 2.01018587 24.18871231 1.99131775 26.50193787 C1.97905209 27.94101103 1.96144003 29.38005039 1.93800354 30.81898499 C1.84202266 34.53306557 1.84202266 34.53306557 3 38 C3.35613097 39.66194453 3.69208308 41.328451 4 43 C4.33 43 4.66 43 5 43 C5.50763865 45.68625454 6.00627197 48.37368383 6.5 51.0625 C6.64308594 51.81466797 6.78617187 52.56683594 6.93359375 53.34179688 C7.776431 57.97740175 8.15015262 62.2889615 8 67 C3.18018162 62.8687271 0.2152249 57.96000986 -2 52 C-1.67 51.34 -1.34 50.68 -1 50 C0.22395467 45.58101368 -0.05832465 41.36741859 -0.375 36.84765625 C-0.42317871 36.06990341 -0.47135742 35.29215057 -0.52099609 34.49082947 C-0.72624234 31.17951094 -0.94650599 27.86923684 -1.16601562 24.55883789 C-1.32455963 22.13459498 -1.47497884 19.70993917 -1.625 17.28515625 C-1.6770459 16.54435318 -1.7290918 15.80355011 -1.78271484 15.04029846 C-2.11364663 9.66415625 -1.70126091 5.10378274 0 0 Z " fill="#946F00" transform="translate(284,266)"/>
<path d="M0 0 C1.36681327 3.69039583 0.49115121 5.46916696 -1 9 C-1.23125883 10.80539563 -1.39689509 12.62027591 -1.5 14.4375 C-1.67220877 17.46406919 -1.96658243 19.90241282 -2.9519043 22.77978516 C-6.27064526 32.9764293 -6.30020687 43.82096254 -6.20581055 54.44116211 C-6.18748349 56.56441296 -6.18530251 58.68722473 -6.18554688 60.81054688 C-6.15496733 74.12104096 -5.1815469 86.55391955 -1.9375 99.5 C-1.3790937 101.75918156 -0.82551103 104.01956223 -0.27734375 106.28125 C0.09015991 107.75174805 0.09015991 107.75174805 0.46508789 109.25195312 C0.98313586 111.91336251 1.10070928 114.29717223 1 117 C-3.06452798 112.93547202 -3.25272518 106.80661944 -3.65625 101.30859375 C-3.94693438 98.87871683 -3.94693438 98.87871683 -4.9609375 96.19140625 C-11.80154975 75.18095435 -9.42535679 46.44494842 -7.1875 24.6875 C-7.11756836 24.00365234 -7.04763672 23.31980469 -6.97558594 22.61523438 C-6.32171491 17.50409907 -4.74610797 12.81851372 -3 8 C-2.53013672 6.69869141 -2.53013672 6.69869141 -2.05078125 5.37109375 C-1.80714844 4.73300781 -1.56351563 4.09492188 -1.3125 3.4375 C-0.6628125 1.7359375 -0.6628125 1.7359375 0 0 Z " fill="#916D00" transform="translate(136,240)"/>
<path d="M0 0 C1.20305786 -0.00259827 1.20305786 -0.00259827 2.43041992 -0.00524902 C22.56546619 0.01368801 43.74693215 1.9864178 62.625 9.4375 C63.12 10.4275 63.12 10.4275 63.625 11.4375 C61.58333333 11 59.54166667 10.5625 57.5 10.125 C56.21867187 9.85171875 54.93734375 9.5784375 53.6171875 9.296875 C51.0982433 8.75771116 48.58406588 8.20414774 46.0703125 7.640625 C44.93335938 7.38796875 43.79640625 7.1353125 42.625 6.875 C41.614375 6.64683594 40.60375 6.41867188 39.5625 6.18359375 C38.2510623 5.92935359 36.93837621 5.68152836 35.625 5.4375 C34.75794434 5.26250977 33.89088867 5.08751953 32.99755859 4.90722656 C20.50436711 2.72694759 7.88621131 3.21984377 -4.75 3.3125 C-7.14322542 3.32255012 -9.53645493 3.33167237 -11.9296875 3.33984375 C-17.74488202 3.36169553 -23.55992153 3.39501198 -29.375 3.4375 C-29.375 3.1075 -29.375 2.7775 -29.375 2.4375 C-19.58642506 0.38605199 -9.9555859 -0.00051302 0 0 Z " fill="#8C6A00" transform="translate(328.375,92.5625)"/>
<path d="M0 0 C0.33 0 0.66 0 1 0 C2.44506132 8.60021933 3.23204407 17.02886984 3.60302734 25.72851562 C3.89166737 31.9954073 4.51131823 38.17621076 5.33984375 44.39379883 C5.84992905 48.29044475 6.27271407 52.07175688 6 56 C5.34 56.66 4.68 57.32 4 58 C0.64578792 44.10397853 -0.28057201 30.8436943 -0.125 16.625 C-0.11493716 15.00260977 -0.10581722 13.38021341 -0.09765625 11.7578125 C-0.07593419 7.83838617 -0.04159219 3.91926375 0 0 Z " fill="#755A06" transform="translate(122,273)"/>
<path d="M0 0 C0.33 0 0.66 0 1 0 C1.08636719 0.56847656 1.17273438 1.13695312 1.26171875 1.72265625 C2.21743233 6.97469693 3.64938503 10.26454891 6.95703125 14.42578125 C8.42334646 16.6389836 8.39032958 18.42382479 8 21 C9.32 21.33 10.64 21.66 12 22 C12 23.32 12 24.64 12 26 C12.66 26 13.32 26 14 26 C14 26.99 14 27.98 14 29 C14.66 29 15.32 29 16 29 C16 29.99 16 30.98 16 32 C16.66 32 17.32 32 18 32 C18 32.99 18 33.98 18 35 C18.66 35 19.32 35 20 35 C20.33 36.98 20.66 38.96 21 41 C16.23097059 37.6511595 13.26839944 33.60313311 10 28.875 C9.47180664 28.11380859 8.94361328 27.35261719 8.39941406 26.56835938 C-1.98993828 11.39435192 -1.98993828 11.39435192 -1 1 C-0.67 0.67 -0.34 0.34 0 0 Z " fill="#937003" transform="translate(148,378)"/>
<path d="M0 0 C0.5256958 0.1861084 1.0513916 0.3722168 1.59301758 0.56396484 C7.55328875 2.61896184 13.54927792 4.19934842 19.6875 5.625 C21.05358398 5.94984375 21.05358398 5.94984375 22.44726562 6.28125 C26.94813783 7.34027875 31.42329077 8.31690907 36 9 C35.34 9.33 34.68 9.66 34 10 C34 10.66 34 11.32 34 12 C35.32 12.66 36.64 13.32 38 14 C37.34 14.33 36.68 14.66 36 15 C35.01 14.67 34.02 14.34 33 14 C31.50344606 13.80479731 30.00269996 13.640252 28.5 13.5 C25.7435393 13.24273033 23.65482675 12.88494225 21 12 C21.33 12.99 21.66 13.98 22 15 C20.0625 14.25 20.0625 14.25 18 13 C17.92265625 12.36835938 17.8453125 11.73671875 17.765625 11.0859375 C17.15041035 8.67601273 17.15041035 8.67601273 14.19921875 7.5859375 C13.04035156 7.18632812 11.88148438 6.78671875 10.6875 6.375 C3.3058041 3.77942048 3.3058041 3.77942048 0 2 C0 1.34 0 0.68 0 0 Z " fill="#8A6902" transform="translate(266,387)"/>
<path d="M0 0 C-6.52642513 4.35095009 -14.32926486 5.60471812 -21.9375 7 C-28.77566281 8.30503144 -35.38451221 9.7948374 -42 12 C-42 12.66 -42 13.32 -42 14 C-42.56589844 14.10957031 -43.13179687 14.21914062 -43.71484375 14.33203125 C-44.44832031 14.49058594 -45.18179688 14.64914063 -45.9375 14.8125 C-46.66839844 14.96332031 -47.39929688 15.11414063 -48.15234375 15.26953125 C-49.06693359 15.63111328 -49.06693359 15.63111328 -50 16 C-50.33 16.99 -50.66 17.98 -51 19 C-53.50390625 19.94921875 -53.50390625 19.94921875 -56.5625 20.6875 C-57.57441406 20.93886719 -58.58632812 21.19023438 -59.62890625 21.44921875 C-60.41136719 21.63097656 -61.19382813 21.81273438 -62 22 C-61 21 -60 20 -59 19 C-58.55011719 18.46761719 -58.10023438 17.93523437 -57.63671875 17.38671875 C-55.45501106 15.53825519 -53.61235162 15.28520222 -50.8125 14.8125 C-49.91144531 14.65394531 -49.01039063 14.49539062 -48.08203125 14.33203125 C-47.39496094 14.22246094 -46.70789063 14.11289063 -46 14 C-46 13.34 -46 12.68 -46 12 C-37.20573097 8.08217399 -28.36746025 5.08972226 -19.0625 2.625 C-17.60734985 2.23127197 -17.60734985 2.23127197 -16.12280273 1.82958984 C-10.5833108 0.4083763 -5.716855 -0.28348041 0 0 Z " fill="#8E6B00" transform="translate(299,96)"/>
<path d="M0 0 C0.99 0 1.98 0 3 0 C3.33 1.98 3.66 3.96 4 6 C15.22 6 26.44 6 38 6 C38 4.02 38 2.04 38 0 C38.33 0 38.66 0 39 0 C39.09765625 6.15234375 39.09765625 6.15234375 39 8 C37.03258372 9.96741628 33.22432269 9.16388207 30.53515625 9.16796875 C29.4123954 9.17296135 29.4123954 9.17296135 28.26695251 9.17805481 C26.68066016 9.18312693 25.0943571 9.18546305 23.50805664 9.18530273 C21.07615631 9.18748773 18.64471051 9.20563581 16.21289062 9.22460938 C14.67448072 9.22754349 13.13606866 9.22952817 11.59765625 9.23046875 C10.50228294 9.24124702 10.50228294 9.24124702 9.38478088 9.25224304 C4.22882307 9.22882307 4.22882307 9.22882307 2 7 C1.62690101 5.34178227 1.29299023 3.67422986 1 2 C0.67 1.34 0.34 0.68 0 0 Z " fill="#9C7501" transform="translate(337,313)"/>
<path d="M0 0 C3.03175582 -0.29846301 4.49453983 -0.38842748 6.95703125 1.50390625 C7.56933594 2.18324219 8.18164062 2.86257812 8.8125 3.5625 C11.37700773 6.30403531 13.92390308 8.85270132 16.8125 11.25 C23.85484001 17.30222884 30.48201573 24.54814274 36 32 C36 32.66 36 33.32 36 34 C32.57975798 32.85991933 32.20086519 32.18947816 30.25 29.3125 C27.70721621 25.77910316 25.0300149 23.10401208 21.66015625 20.37109375 C19.28220645 18.40718698 17.17952096 16.17952096 15 14 C13.33729713 12.66172696 11.67083819 11.32810215 10 10 C7.6875 7.875 7.6875 7.875 6 6 C6 5.34 6 4.68 6 4 C4.02 3.34 2.04 2.68 0 2 C0 1.34 0 0.68 0 0 Z " fill="#A07A05" transform="translate(449,134)"/>
<path d="M0 0 C0.66 0.33 1.32 0.66 2 1 C-2.81271277 5.38491608 -7.76161468 8.8518529 -13.3515625 12.19140625 C-16.29596735 14.2021134 -18.51798305 16.4381521 -21 19 C-22.28789521 20.21642129 -23.58275642 21.42549068 -24.8828125 22.62890625 C-25.57503906 23.27150391 -26.26726562 23.91410156 -26.98046875 24.57617188 C-28.41630979 25.90609021 -29.85382616 27.23420195 -31.29296875 28.56054688 C-32.32744141 29.52250977 -32.32744141 29.52250977 -33.3828125 30.50390625 C-34.00559082 31.07955322 -34.62836914 31.6552002 -35.27001953 32.24829102 C-37.08028425 33.99170686 -37.08028425 33.99170686 -38.60107422 36.21850586 C-39.06271973 36.80639893 -39.52436523 37.39429199 -40 38 C-40.66 38 -41.32 38 -42 38 C-42.268125 38.61875 -42.53625 39.2375 -42.8125 39.875 C-44 42 -44 42 -47 44 C-42.74594773 34.20892731 -32.28356009 25.5396527 -24 19 C-23.2575 18.2575 -22.515 17.515 -21.75 16.75 C-15.89180299 10.89180299 -10.79661188 5.96271252 -3 3 C-1.11970761 1.46048953 -1.11970761 1.46048953 0 0 Z " fill="#967100" transform="translate(219,127)"/>
<path d="M0 0 C2.52176907 3.78265361 3.73518672 7.80274877 5.14453125 12.08203125 C6.17989024 15.74389839 6.17989024 15.74389839 9 18 C9.6328125 20.72265625 9.6328125 20.72265625 10.125 24.0625 C10.37636719 25.71958984 10.37636719 25.71958984 10.6328125 27.41015625 C10.75398437 28.26480469 10.87515625 29.11945313 11 30 C5.0428419 24.48160074 0.71471303 14.59995755 -0.51953125 6.65625 C-0.5 3.9375 -0.5 3.9375 0 0 Z " fill="#846402" transform="translate(137,358)"/>
<path d="M0 0 C4.94790177 -0.0493651 9.89566083 -0.08570269 14.84375 -0.10986328 C16.52769466 -0.11993317 18.21162179 -0.13358988 19.89550781 -0.15087891 C22.31319501 -0.17508426 24.73065143 -0.18647296 27.1484375 -0.1953125 C27.9036972 -0.20563507 28.65895691 -0.21595764 29.43710327 -0.22659302 C31.2929398 -0.22699318 33.1481928 -0.12222716 35 0 C35.66 0.66 36.32 1.32 37 2 C32.70787199 3.04380545 28.51923005 3.19149158 24.125 3.1875 C23.01910522 3.1884668 23.01910522 3.1884668 21.89086914 3.18945312 C14.48625595 3.11984454 7.30280674 2.19055947 0 1 C0 0.67 0 0.34 0 0 Z " fill="#785D09" transform="translate(307,88)"/>
<path d="M0 0 C4.875 1.75 4.875 1.75 6 4 C4.02580078 4.07347656 4.02580078 4.07347656 2.01171875 4.1484375 C-11.5937297 4.70694319 -11.5937297 4.70694319 -25 7 C-23.3125 4.5 -23.3125 4.5 -21 2 C-18.5 1.75 -18.5 1.75 -16 2 C-15.41734375 1.83113281 -14.8346875 1.66226563 -14.234375 1.48828125 C-11.29451712 0.84582979 -8.73868193 1.14512894 -5.75 1.4375 C-4.67234375 1.53933594 -3.5946875 1.64117187 -2.484375 1.74609375 C-1.66453125 1.82988281 -0.8446875 1.91367188 0 2 C0 1.34 0 0.68 0 0 Z " fill="#916D00" transform="translate(340,219)"/>
<path d="M0 0 C1.85625 0.6496875 1.85625 0.6496875 3.75 1.3125 C9.41697218 3.21052896 15.19021215 4.61390848 21 6 C20.01 6.495 20.01 6.495 19 7 C19.495 7.391875 19.99 7.78375 20.5 8.1875 C22.45593143 10.55091715 22.24207973 12.01435003 22 15 C20.0625 14.25 20.0625 14.25 18 13 C17.92265625 12.36835938 17.8453125 11.73671875 17.765625 11.0859375 C17.15041035 8.67601273 17.15041035 8.67601273 14.19921875 7.5859375 C13.04035156 7.18632812 11.88148438 6.78671875 10.6875 6.375 C3.3058041 3.77942048 3.3058041 3.77942048 0 2 C0 1.34 0 0.68 0 0 Z " fill="#8C6A03" transform="translate(266,387)"/>
<path d="M0 0 C0.66 0 1.32 0 2 0 C2 0.66 2 1.32 2 2 C-0.15542271 3.7757574 -2.32476328 5.45902601 -4.5625 7.125 C-9.44558802 10.84754997 -13.80258943 14.5298739 -17.66796875 19.34375 C-19.01425667 21.01772677 -20.45728369 22.50734233 -22 24 C-20.65161956 18.01025559 -17.4631462 14.92150563 -13.1875 10.8125 C-12.57068359 10.19697266 -11.95386719 9.58144531 -11.31835938 8.94726562 C-8.08285823 5.77365505 -5.02203812 3.16342531 -1 1 C-0.67 0.67 -0.34 0.34 0 0 Z " fill="#8D6A00" transform="translate(311,224)"/>
<path d="M0 0 C0.66 0.33 1.32 0.66 2 1 C1.37339478 1.57331055 1.37339478 1.57331055 0.73413086 2.15820312 C-9.51675426 11.43088872 -9.51675426 11.43088872 -18.80078125 21.64453125 C-20 23 -20 23 -22 24 C-20.75630053 19.43976862 -18.25218702 17.05535233 -14.93359375 13.90234375 C-12.94395365 11.94485945 -11.16776916 9.8879851 -9.375 7.75 C-6.84079369 4.79913365 -4.52086444 2.76043222 -1 1 C-0.67 0.67 -0.34 0.34 0 0 Z " fill="#765900" transform="translate(193,144)"/>
<path d="M0 0 C2.375 0.75 2.375 0.75 5 2 C5.28875 2.61875 5.5775 3.2375 5.875 3.875 C7.18763061 6.35441338 8.14038618 6.80831338 10.5625 8.125 C14 10 14 10 15 12 C15.9590625 12.433125 15.9590625 12.433125 16.9375 12.875 C19.42001234 14.22909764 19.96871397 15.42178493 21 18 C16.21523607 16.44153403 12.71362631 13.75703825 8.8125 10.6875 C8.18408203 10.21376953 7.55566406 9.74003906 6.90820312 9.25195312 C3.38886447 6.50047018 1.19934277 4.47917812 0 0 Z " fill="#A98106" transform="translate(192,441)"/>
<path d="M0 0 C-0.61520508 0.28721924 -1.23041016 0.57443848 -1.86425781 0.87036133 C-4.66174911 2.17967379 -7.45588193 3.49600531 -10.25 4.8125 C-11.70212891 5.49022461 -11.70212891 5.49022461 -13.18359375 6.18164062 C-14.11816406 6.62314453 -15.05273438 7.06464844 -16.015625 7.51953125 C-16.87446289 7.92276611 -17.73330078 8.32600098 -18.61816406 8.74145508 C-20.94930318 9.97321217 -22.94096809 11.35986021 -25 13 C-25.66 12.67 -26.32 12.34 -27 12 C-23.3101667 8.78627422 -19.42656568 6.47586459 -15.14453125 4.16796875 C-13.46069664 3.25090764 -11.81545396 2.26294913 -10.1875 1.25 C-6.36531046 -0.93410831 -4.19062882 -1.15002704 0 0 Z " fill="#745700" transform="translate(243,113)"/>
<path d="M0 0 C0.33 0 0.66 0 1 0 C1.28083777 2.97177425 1.39021281 4.47900742 -0.43359375 6.9140625 C-5.32976308 11.0944176 -9.73401186 13.47701677 -16 15 C-12.3088318 11.07069192 -8.31539138 7.86286217 -3.98828125 4.6484375 C-1.77616499 2.9746237 -1.77616499 2.9746237 0 0 Z " fill="#906D00" transform="translate(441,364)"/>
<path d="M0 0 C2.88916016 -0.34057617 2.88916016 -0.34057617 6.5390625 -0.29296875 C8.49199219 -0.2784668 8.49199219 -0.2784668 10.484375 -0.26367188 C11.86458923 -0.23860388 13.24479756 -0.21320902 14.625 -0.1875 C16.01300663 -0.17245517 17.40102867 -0.15876641 18.7890625 -0.14648438 C22.19309509 -0.1110257 25.59635622 -0.06160298 29 0 C28.67 0.66 28.34 1.32 28 2 C26.83984375 1.98839844 25.6796875 1.97679688 24.484375 1.96484375 C15.59942511 1.90389661 6.84544384 2.02873558 -2 3 C-1.34 2.01 -0.68 1.02 0 0 Z " fill="#AA8000" transform="translate(316,96)"/>
<path d="M0 0 C3.91401605 3.91401605 4.125 10.21493268 4.125 15.5625 C4.08375 16.696875 4.0425 17.83125 4 19 C1.02930459 16.45368965 -0.4775751 13.57769851 -2 10 C-1.67 9.34 -1.34 8.68 -1 8 C-0.35971613 5.22543655 0 2.85859638 0 0 Z " fill="#8F6C04" transform="translate(284,308)"/>
<path d="M0 0 C-3.27645575 1.93007369 -5.91320945 2.30265147 -9.6875 2.5 C-13.6387828 2.75632557 -17.2880198 3.21115334 -21.125 4.1875 C-22.40375 4.455625 -23.6825 4.72375 -25 5 C-25.66 4.34 -26.32 3.68 -27 3 C-21.77064952 -2.22935048 -6.74724479 -0.17966036 0 0 Z " fill="#A77E00" transform="translate(314,97)"/>
<path d="M0 0 C1.41904764 4.47884971 0.07754936 7.91786785 -1.3125 12.25 C-1.76856101 13.71303333 -2.22299563 15.17657467 -2.67578125 16.640625 C-2.89830566 17.35669922 -3.12083008 18.07277344 -3.35009766 18.81054688 C-4.35039341 22.18043881 -5.17665355 25.58291898 -6 29 C-6.33 29 -6.66 29 -7 29 C-7.30098355 20.57246046 -5.83766905 14.51543522 -2 7 C-1.23387061 4.6828111 -0.61468307 2.36416566 0 0 Z " fill="#7B5D00" transform="translate(137,228)"/>
<path d="M0 0 C0.66 0 1.32 0 2 0 C4.13619737 6.20514474 5.36517527 11.42684522 5 18 C2.59881473 15.59881473 2.24779139 13.94503958 1.375 10.6875 C1.11460937 9.74261719 0.85421875 8.79773438 0.5859375 7.82421875 C0.02520352 5.12148098 -0.1101876 2.74968152 0 0 Z " fill="#745802" transform="translate(127,332)"/>
<path d="M0 0 C0.33 0 0.66 0 1 0 C1.50763865 2.68625454 2.00627197 5.37368383 2.5 8.0625 C2.64308594 8.81466797 2.78617187 9.56683594 2.93359375 10.34179688 C3.776431 14.97740175 4.15015262 19.2889615 4 24 C2.5 23 2.5 23 1 21 C0.96716526 19.06275024 0.94585389 17.12314518 1.03125 15.1875 C0.99825678 12.87797467 0.5748688 11.02651794 -0.0625 8.8125 C-0.943627 5.22925019 -1.07876001 3.45203202 0 0 Z " fill="#9F7801" transform="translate(288,309)"/>
<path d="M0 0 C5.57006823 2.68596176 11.01052891 5.32354762 16 9 C16 9.33 16 9.66 16 10 C9.15550444 9.85437243 4.83393195 6.74624157 0 2 C0 1.34 0 0.68 0 0 Z " fill="#8E6C06" transform="translate(425,115)"/>
<path d="M0 0 C-0.84884766 0.16435547 -0.84884766 0.16435547 -1.71484375 0.33203125 C-2.44832031 0.49058594 -3.18179688 0.64914063 -3.9375 0.8125 C-4.66839844 0.96332031 -5.39929688 1.11414063 -6.15234375 1.26953125 C-7.06693359 1.63111328 -7.06693359 1.63111328 -8 2 C-8.33 2.99 -8.66 3.98 -9 5 C-11.50390625 5.94921875 -11.50390625 5.94921875 -14.5625 6.6875 C-16.08037109 7.06455078 -16.08037109 7.06455078 -17.62890625 7.44921875 C-18.41136719 7.63097656 -19.19382813 7.81273438 -20 8 C-19 7 -18 6 -17 5 C-16.54496094 4.47921875 -16.08992187 3.9584375 -15.62109375 3.421875 C-13.5550814 1.60975814 -11.69057298 1.02458993 -9.0625 0.25 C-8.20785156 -0.01296875 -7.35320312 -0.2759375 -6.47265625 -0.546875 C-3.90902331 -1.01667187 -2.43882304 -0.83746128 0 0 Z " fill="#987200" transform="translate(257,110)"/>
<path d="M0 0 C-3.27345993 3.27345993 -7.7972852 3.88053072 -12.3046875 4.125 C-14.20358219 4.125 -16.10231518 4.06777446 -18 4 C-13.08124136 -0.91875864 -6.47794906 -0.23044088 0 0 Z " fill="#916D00" transform="translate(430,237)"/>
<path d="M0 0 C0.671875 1.68359375 0.671875 1.68359375 1 4 C-0.109375 6.47265625 -0.109375 6.47265625 -1.75 9.0625 C-2.28109375 9.91972656 -2.8121875 10.77695313 -3.359375 11.66015625 C-4.77979959 13.68595227 -6.18457571 15.33221563 -8 17 C-6.19389405 10.65660349 -3.74372266 5.43061745 0 0 Z " fill="#886700" transform="translate(155,192)"/>
<path d="M0 0 C0.66 0.33 1.32 0.66 2 1 C-2.23470715 5.68046579 -6.96158898 7.46079719 -13 9 C-9.28570342 4.82141635 -5.35814198 1.82153171 0 0 Z " fill="#997300" transform="translate(234,118)"/>
<path d="M0 0 C-2.89488185 1.6250814 -5.19908712 2.29684434 -8.5 2.5625 C-11.43895859 2.8090907 -14.15358828 3.21723678 -17 4 C-15 1 -15 1 -12.28515625 0.234375 C-11.22167969 0.07453125 -10.15820312 -0.0853125 -9.0625 -0.25 C-8.00160156 -0.42015625 -6.94070313 -0.5903125 -5.84765625 -0.765625 C-3 -1 -3 -1 0 0 Z " fill="#A17900" transform="translate(401,245)"/>
<path d="M0 0 C2.97 0.495 2.97 0.495 6 1 C5.01 1.495 5.01 1.495 4 2 C4.7425 2.5878125 4.7425 2.5878125 5.5 3.1875 C7.45593143 5.55091715 7.24207973 7.01435003 7 10 C5.0625 9.25 5.0625 9.25 3 8 C2.375 6.125 2.375 6.125 2 4 C1.36345658 2.6520257 0.70394612 1.31403276 0 0 Z " fill="#9A7607" transform="translate(281,392)"/>
<path d="M0 0 C-0.84884766 0.16435547 -0.84884766 0.16435547 -1.71484375 0.33203125 C-2.81505859 0.56986328 -2.81505859 0.56986328 -3.9375 0.8125 C-4.66839844 0.96332031 -5.39929688 1.11414063 -6.15234375 1.26953125 C-7.06693359 1.63111328 -7.06693359 1.63111328 -8 2 C-8.33 2.99 -8.66 3.98 -9 5 C-11.64 5 -14.28 5 -17 5 C-14.65117776 2.65117776 -12.72876333 1.96496976 -9.625 0.8125 C-8.66851562 0.44769531 -7.71203125 0.08289063 -6.7265625 -0.29296875 C-3.94714704 -1.01370542 -2.64891897 -0.98549829 0 0 Z " fill="#9C7600" transform="translate(274,104)"/>
<path d="M0 0 C0 3.50481678 -0.49237247 3.92840405 -2.75 6.4375 C-3.29398438 7.0459375 -3.83796875 7.654375 -4.3984375 8.28125 C-6.22024929 10.23636509 -8.07356035 12.14765418 -10 14 C-8.72130795 7.60653976 -4.61738504 4.23081327 0 0 Z " fill="#745700" transform="translate(170,168)"/>
<path d="M0 0 C0.33 0.66 0.66 1.32 1 2 C-0.21484375 4.8203125 -0.21484375 4.8203125 -1.9375 8.125 C-2.50339844 9.22070312 -3.06929687 10.31640625 -3.65234375 11.4453125 C-4.09707031 12.28835937 -4.54179687 13.13140625 -5 14 C-5.68359375 12.328125 -5.68359375 12.328125 -6 10 C-4.78515625 7.421875 -4.78515625 7.421875 -3.0625 4.75 C-2.49660156 3.85796875 -1.93070313 2.9659375 -1.34765625 2.046875 C-0.90292969 1.37140625 -0.45820313 0.6959375 0 0 Z " fill="#997400" transform="translate(153,199)"/>
<path d="M0 0 C2.9719385 1.12451727 5.33440687 2.22293791 8 4 C8 4.66 8 5.32 8 6 C5.36 5.34 2.72 4.68 0 4 C0 2.68 0 1.36 0 0 Z " fill="#906E04" transform="translate(348,220)"/>
<path d="M0 0 C0.61328125 1.875 0.61328125 1.875 1 4 C-0.8125 6 -0.8125 6 -3 8 C-4.23512079 10.13309192 -4.23512079 10.13309192 -5 12 C-5.68359375 10.265625 -5.68359375 10.265625 -6 8 C-4.78515625 5.859375 -4.78515625 5.859375 -3.0625 3.75 C-2.49660156 3.04359375 -1.93070313 2.3371875 -1.34765625 1.609375 C-0.90292969 1.07828125 -0.45820313 0.5471875 0 0 Z " fill="#997300" transform="translate(162,184)"/>
<path d="M0 0 C1.125 1.75 1.125 1.75 2 4 C1.125 6.25 1.125 6.25 0 8 C-0.66 7.34 -1.32 6.68 -2 6 C-1.34 4.02 -0.68 2.04 0 0 Z " fill="#9F7700" transform="translate(439,227)"/>
<path d="M0 0 C0.33 0 0.66 0 1 0 C2.125 7.625 2.125 7.625 1 11 C0.34 10.67 -0.32 10.34 -1 10 C-1.02689216 8.52093108 -1.04634621 7.04172517 -1.0625 5.5625 C-1.07410156 4.73878906 -1.08570313 3.91507812 -1.09765625 3.06640625 C-1 1 -1 1 0 0 Z " fill="#967101" transform="translate(148,378)"/>
<path d="M0 0 C-1.75 1.5625 -1.75 1.5625 -4 3 C-6.25 2.6875 -6.25 2.6875 -8 2 C-5.44123378 -0.55876622 -3.37797483 -1.68898741 0 0 Z " fill="#A37B00" transform="translate(384,400)"/>
<path d="M0 0 C2.875 -0.125 2.875 -0.125 6 0 C6.66 0.66 7.32 1.32 8 2 C4.94736336 2.98120464 3.05263664 2.98120464 0 2 C0 1.34 0 0.68 0 0 Z " fill="#735701" transform="translate(369,94)"/>
</svg>
