<?xml version="1.0" encoding="UTF-8"?>
<svg version="1.1" xmlns="http://www.w3.org/2000/svg" width="777" height="782">
<path d="M0 0 C256.41 0 512.82 0 777 0 C777 256.41 777 512.82 777 777 C732.78 777 688.56 777 643 777 C643 778.65 643 780.3 643 782 C558.62123633 782.16741888 474.25080634 781.74583646 389.87429616 781.1831104 C376.788285 781.09588008 363.70225695 781.01176082 350.61621094 780.92993164 C200.34282845 779.98958396 200.34282845 779.98958396 134 779 C134 778.34 134 777.68 134 777 C89.78 777 45.56 777 0 777 C0 520.59 0 264.18 0 0 Z " fill="#D8DBE0" transform="translate(0,0)"/>
<path d="M0 0 C0.64018066 0.33821777 1.28036133 0.67643555 1.93994141 1.02490234 C21.97086614 11.60922918 39.62215319 25.40136352 56 41 C56.898396 41.85537354 56.898396 41.85537354 57.81494141 42.72802734 C66.15810078 50.73100112 73.80345187 58.94979841 80.68945312 68.24072266 C82.01797091 70.02412413 83.37360037 71.78409516 84.734375 73.54296875 C111.64350488 108.72122336 127.62119684 151.9216297 132.8125 195.6875 C132.99897095 197.23473755 132.99897095 197.23473755 133.18920898 198.81323242 C133.91513818 205.70499928 134.06116819 212.5193291 134.0300293 219.44067383 C134.02786156 220.36276894 134.02569382 221.28486404 134.02346039 222.23490143 C134.01784502 224.48995028 134.00997292 226.74496692 134 229 C49.62123633 229.16741888 -34.74919366 228.74583646 -119.12570384 228.1831104 C-132.211715 228.09588008 -145.29774305 228.01176082 -158.38378906 227.92993164 C-308.65717155 226.98958396 -308.65717155 226.98958396 -375 226 C-374.84780905 222.46522299 -374.69226384 218.93060109 -374.53613281 215.39599609 C-374.47185593 213.90168312 -374.47185593 213.90168312 -374.40628052 212.37718201 C-374.11151495 205.75216279 -373.67772132 199.19522955 -372.75 192.625 C-372.62069092 191.68841553 -372.49138184 190.75183105 -372.3581543 189.78686523 C-368.58535694 163.66799955 -361.63050239 138.74076931 -350 115 C-349.59410645 114.16903809 -349.18821289 113.33807617 -348.77001953 112.48193359 C-333.63420133 81.84001936 -312.4543168 52.89017169 -286 31 C-285.4848584 30.57106445 -284.9697168 30.14212891 -284.43896484 29.70019531 C-275.34945247 22.16429311 -266.00562047 15.26985363 -256 9 C-255.34837891 8.59040039 -254.69675781 8.18080078 -254.02539062 7.75878906 C-177.65226239 -39.77958668 -79.14390198 -43.03726158 0 0 Z " fill="#6F767E" transform="translate(509,553)"/>
<path d="M0 0 C21.03203247 -0.5090961 40.10351031 4.91581169 58.33203125 15.125 C59.3065625 15.66898438 60.28109375 16.21296875 61.28515625 16.7734375 C91.41581083 34.83420998 111.12282495 66.31261922 120.296875 99.62890625 C123.32900349 112.16472107 124.7004946 124.42014272 124.64453125 137.3125 C124.64129852 138.33171539 124.64129852 138.33171539 124.63800049 139.371521 C124.58285454 150.24037215 123.92473508 160.56080622 121.33203125 171.125 C121.14930664 171.91922363 120.96658203 172.71344727 120.77832031 173.53173828 C112.77386126 207.64598045 92.78970004 239.64261898 62.93945312 258.73706055 C51.34459962 265.84058476 38.60413273 271.134919 25.33203125 274.125 C24.67187012 274.29273926 24.01170898 274.46047852 23.33154297 274.63330078 C17.96628131 275.94125014 12.97113414 276.4436622 7.45703125 276.375 C6.64331055 276.36750732 5.82958984 276.36001465 4.99121094 276.35229492 C-28.51671876 275.77623658 -56.33031085 263.16721341 -80.20703125 239.62109375 C-105.21732864 212.79909637 -119.7676671 175.83216662 -119.05322266 139.12841797 C-118.95692291 136.45793304 -118.82044426 133.79283579 -118.66796875 131.125 C-118.6225293 130.20879883 -118.57708984 129.29259766 -118.53027344 128.34863281 C-116.93488396 98.7361456 -106.9771102 70.59825827 -88.66796875 47.125 C-87.76498047 45.89910156 -87.76498047 45.89910156 -86.84375 44.6484375 C-69.78279731 22.11510375 -43.34636745 6.41697057 -15.66796875 1.125 C-10.45112903 0.47523793 -5.24717988 0.24584152 0 0 Z " fill="#6F767E" transform="translate(385.66796875,208.875)"/>
<path d="M0 0 C0.64018066 0.33821777 1.28036133 0.67643555 1.93994141 1.02490234 C21.97086614 11.60922918 39.62215319 25.40136352 56 41 C56.898396 41.85537354 56.898396 41.85537354 57.81494141 42.72802734 C66.15810078 50.73100112 73.80345187 58.94979841 80.68945312 68.24072266 C82.01797091 70.02412413 83.37360037 71.78409516 84.734375 73.54296875 C111.64350488 108.72122336 127.62119684 151.9216297 132.8125 195.6875 C132.99897095 197.23473755 132.99897095 197.23473755 133.18920898 198.81323242 C133.91513818 205.70499928 134.06116819 212.5193291 134.0300293 219.44067383 C134.02786156 220.36276894 134.02569382 221.28486404 134.02346039 222.23490143 C134.01784502 224.48995028 134.00997292 226.74496692 134 229 C49.62123633 229.16741888 -34.74919366 228.74583646 -119.12570384 228.1831104 C-132.211715 228.09588008 -145.29774305 228.01176082 -158.38378906 227.92993164 C-308.65717155 226.98958396 -308.65717155 226.98958396 -375 226 C-374.84780905 222.46522299 -374.69226384 218.93060109 -374.53613281 215.39599609 C-374.47185593 213.90168312 -374.47185593 213.90168312 -374.40628052 212.37718201 C-374.11151495 205.75216279 -373.67772132 199.19522955 -372.75 192.625 C-372.62069092 191.68841553 -372.49138184 190.75183105 -372.3581543 189.78686523 C-368.58535694 163.66799955 -361.63050239 138.74076931 -350 115 C-349.59410645 114.16903809 -349.18821289 113.33807617 -348.77001953 112.48193359 C-333.63420133 81.84001936 -312.4543168 52.89017169 -286 31 C-285.4848584 30.57106445 -284.9697168 30.14212891 -284.43896484 29.70019531 C-275.34945247 22.16429311 -266.00562047 15.26985363 -256 9 C-255.34837891 8.59040039 -254.69675781 8.18080078 -254.02539062 7.75878906 C-177.65226239 -39.77958668 -79.14390198 -43.03726158 0 0 Z M-272 28 C-273.36125 29.07314453 -273.36125 29.07314453 -274.75 30.16796875 C-288.82315211 41.46247293 -301.8214254 53.81399163 -313 68 C-313.79277344 68.98742187 -314.58554687 69.97484375 -315.40234375 70.9921875 C-333.10975141 93.42716529 -346.93748541 118.88673914 -356 146 C-356.36013184 147.0521167 -356.36013184 147.0521167 -356.72753906 148.12548828 C-363.65865474 168.66742216 -368.06903885 191.55599271 -368.01635742 213.26074219 C-368.01399582 214.52247253 -368.01163422 215.78420288 -368.00920105 217.08416748 C-368.0061647 218.04639221 -368.00312836 219.00861694 -368 220 C-325.73584066 220.25996032 -283.47165414 220.51505679 -241.20743057 220.76436454 C-236.12054597 220.79437482 -231.03366159 220.82442203 -225.94677734 220.85449219 C-224.93484426 220.86047342 -223.92291118 220.86645465 -222.88031346 220.87261713 C-208.84081743 220.95567608 -194.80133454 221.04069367 -180.76186049 221.12738395 C-156.45585267 221.27746529 -132.14982344 221.42342273 -107.84375 221.5625 C-106.40861958 221.57072485 -106.40861958 221.57072485 -104.94449663 221.57911587 C-27.62927181 222.02136873 49.68370904 222.12458271 127 222 C127.00709373 219.43871578 127.0122721 216.87745144 127.01635742 214.31616211 C127.01855034 213.59542259 127.02074326 212.87468307 127.02300262 212.13210297 C127.08739558 158.2640303 103.64959239 104.53816355 69 64 C68.35160156 63.23945312 67.70320313 62.47890625 67.03515625 61.6953125 C55.50544243 48.55011095 43.11922137 36.33014172 29 26 C27.87216154 25.15395808 26.74455819 24.30760264 25.6171875 23.4609375 C-1.81190133 3.12145447 -35.39081292 -12.56143728 -69 -19 C-70.2284967 -19.23688789 -70.2284967 -19.23688789 -71.48181152 -19.4785614 C-86.71346463 -22.34165983 -101.45720491 -23.61471924 -116.94921875 -23.46655273 C-120.26352613 -23.43738095 -123.57624119 -23.44606042 -126.890625 -23.45898438 C-179.25757386 -23.40543919 -231.03633552 -4.56849487 -272 28 Z " fill="#050505" transform="translate(509,553)"/>
<path d="M0 0 C21.03203247 -0.5090961 40.10351031 4.91581169 58.33203125 15.125 C59.3065625 15.66898438 60.28109375 16.21296875 61.28515625 16.7734375 C91.41581083 34.83420998 111.12282495 66.31261922 120.296875 99.62890625 C123.32900349 112.16472107 124.7004946 124.42014272 124.64453125 137.3125 C124.64129852 138.33171539 124.64129852 138.33171539 124.63800049 139.371521 C124.58285454 150.24037215 123.92473508 160.56080622 121.33203125 171.125 C121.14930664 171.91922363 120.96658203 172.71344727 120.77832031 173.53173828 C112.77386126 207.64598045 92.78970004 239.64261898 62.93945312 258.73706055 C51.34459962 265.84058476 38.60413273 271.134919 25.33203125 274.125 C24.67187012 274.29273926 24.01170898 274.46047852 23.33154297 274.63330078 C17.96628131 275.94125014 12.97113414 276.4436622 7.45703125 276.375 C6.64331055 276.36750732 5.82958984 276.36001465 4.99121094 276.35229492 C-28.51671876 275.77623658 -56.33031085 263.16721341 -80.20703125 239.62109375 C-105.21732864 212.79909637 -119.7676671 175.83216662 -119.05322266 139.12841797 C-118.95692291 136.45793304 -118.82044426 133.79283579 -118.66796875 131.125 C-118.6225293 130.20879883 -118.57708984 129.29259766 -118.53027344 128.34863281 C-116.93488396 98.7361456 -106.9771102 70.59825827 -88.66796875 47.125 C-87.76498047 45.89910156 -87.76498047 45.89910156 -86.84375 44.6484375 C-69.78279731 22.11510375 -43.34636745 6.41697057 -15.66796875 1.125 C-10.45112903 0.47523793 -5.24717988 0.24584152 0 0 Z M-74.66796875 40.125 C-75.51230469 40.94355469 -76.35664063 41.76210937 -77.2265625 42.60546875 C-99.68088085 65.77832529 -111.80939284 99.1925807 -112.66796875 131.125 C-112.70438477 131.89440918 -112.74080078 132.66381836 -112.77832031 133.45654297 C-114.47848526 170.61014766 -101.26474723 207.04884987 -76.3203125 234.61425781 C-58.4040433 254.01523177 -33.44889011 268.33178196 -6.73461914 270.34619141 C22.29194632 271.46506992 49.70344885 264.27355488 71.71435547 244.50146484 C74.30352621 242.09137653 76.81831664 239.61375574 79.33203125 237.125 C80.30849609 236.23941406 80.30849609 236.23941406 81.3046875 235.3359375 C104.1554317 214.26787547 116.50328214 179.17766762 118.55493164 148.82763672 C119.9663506 107.76540486 108.74555156 70.6134569 80.5859375 40.12109375 C59.93884337 18.35089228 32.76809502 6.69470144 2.89453125 5.875 C-28.07120732 6.67381268 -52.62460621 18.59656314 -74.66796875 40.125 Z " fill="#070708" transform="translate(385.66796875,208.875)"/>
</svg>
