<?xml version="1.0" encoding="UTF-8"?>
<svg version="1.1" xmlns="http://www.w3.org/2000/svg" width="200" height="200">
<path d="M0 0 C1.532864 -0.00856522 1.532864 -0.00856522 3.09669495 -0.01730347 C4.21210663 -0.01842133 5.32751831 -0.01953918 6.47673035 -0.02069092 C8.24564384 -0.02813828 8.24564384 -0.02813828 10.05029297 -0.03573608 C13.28183388 -0.04783167 16.51333864 -0.05529944 19.74489808 -0.05974674 C21.76581426 -0.06268207 23.78672482 -0.06678774 25.80763817 -0.07125092 C32.13638177 -0.0849183 38.46511246 -0.09458868 44.79386979 -0.09845281 C52.08883662 -0.10293191 59.38361592 -0.12047595 66.67852575 -0.1494534 C72.32453282 -0.17109915 77.97048725 -0.18115863 83.61653537 -0.18249393 C86.98534437 -0.18353988 90.35397692 -0.18940284 93.72274208 -0.20731354 C97.48333053 -0.2243725 101.24346262 -0.22249382 105.0040741 -0.21600342 C106.66808258 -0.22982559 106.66808258 -0.22982559 108.3657074 -0.243927 C114.33690331 -0.21165263 118.68126185 0.2155437 123.93449402 3.14044189 C127.36981132 6.69026977 128.05390678 10.33040782 128.07493591 15.14968872 C128.08064606 15.9374469 128.0863562 16.72520508 128.09223938 17.53683472 C128.09391617 18.81957779 128.09391617 18.81957779 128.09562683 20.12823486 C128.10059174 21.03601685 128.10555664 21.94379883 128.110672 22.87908936 C128.12526961 25.88027709 128.1320912 28.881412 128.13761902 31.88262939 C128.1433719 33.97004192 128.14912962 36.05745444 128.15489197 38.14486694 C128.16539474 42.52116136 128.17124233 46.89743743 128.17472839 51.27374268 C128.18021535 56.87815739 128.20425084 62.48232944 128.23270035 68.08666801 C128.25133286 72.39839383 128.25653263 76.71006121 128.25806427 81.02182388 C128.26108931 83.08786472 128.26911279 85.15390457 128.28224945 87.21990585 C128.29932456 90.11141139 128.29742618 93.00232421 128.29093933 95.89385986 C128.30015411 96.74497345 128.3093689 97.59608704 128.31886292 98.47299194 C128.28418054 103.41394524 127.8375076 106.95357044 124.93449402 111.14044189 C119.59467578 116.29478266 113.77125591 115.70105146 106.78215027 115.64215088 C105.56196198 115.64755386 104.34177368 115.65295685 103.08460999 115.65852356 C99.74959646 115.668867 96.41557974 115.66133336 93.08065414 115.64481235 C89.58409507 115.63092334 86.08756489 115.6374263 82.59098816 115.64094543 C76.72005404 115.64364453 70.84932471 115.63019801 64.97843933 115.60699463 C58.19937453 115.58038663 51.42065205 115.57863883 44.64155293 115.59038299 C38.10934398 115.60117759 31.57725837 115.59496056 25.0450592 115.58082771 C22.27006602 115.57508244 19.49516353 115.57513905 16.72016907 115.57989311 C12.84226113 115.58556949 8.96469306 115.56630658 5.08683777 115.54449463 C3.93964264 115.54899628 2.79244751 115.55349792 1.61048889 115.55813599 C-3.99187685 115.50577569 -8.28718326 115.42646925 -13.06550598 112.14044189 C-15.88896964 108.58053633 -16.46070241 105.80534229 -16.57722473 101.32012939 C-16.61283508 100.1634375 -16.64844543 99.00674561 -16.68513489 97.81500244 C-16.70753235 96.56114746 -16.72992981 95.30729248 -16.75300598 94.01544189 C-16.78540962 92.6818488 -16.81846478 91.34827139 -16.85212708 90.01470947 C-16.95208196 85.72358567 -17.0143585 81.43239804 -17.06550598 77.14044189 C-17.07410645 76.42906067 -17.08270691 75.71767944 -17.09156799 74.98474121 C-17.21516646 64.03553585 -17.1916016 53.08949906 -17.06550598 42.14044189 C-17.05690552 41.37173767 -17.04830505 40.60303345 -17.03944397 39.81103516 C-16.98424342 35.19155153 -16.90675104 30.57316892 -16.80104065 25.95455933 C-16.76932493 24.50915687 -16.74209484 23.06364818 -16.71961975 21.61807251 C-16.68651928 19.61742722 -16.63233106 17.61716451 -16.57722473 15.61700439 C-16.55104065 14.48343506 -16.52485657 13.34986572 -16.49787903 12.1819458 C-15.89301863 7.92708935 -14.2968021 5.25258032 -11.12800598 2.39044189 C-7.51925449 0.20331978 -4.16201202 0.01395953 0 0 Z M-6.06550598 14.14044189 C-6.35651133 16.9736771 -6.46496084 19.58624809 -6.43782043 22.41973877 C-6.4414711 23.26391861 -6.44512177 24.10809845 -6.44888306 24.9778595 C-6.4569974 27.7718408 -6.44337118 30.56524375 -6.42878723 33.35919189 C-6.42826873 35.2982788 -6.42878604 37.23736625 -6.43029785 39.17645264 C-6.43020809 43.24184 -6.4197703 47.30702922 -6.40168762 51.37237549 C-6.37900036 56.58810495 -6.37845593 61.80354478 -6.38520527 67.01931 C-6.38854393 71.02382998 -6.38191709 75.02828371 -6.37207603 79.03279114 C-6.36822198 80.95615797 -6.36707667 82.87953218 -6.36866188 84.80290222 C-6.36903201 87.48912643 -6.3564271 90.17497686 -6.34016418 92.86114502 C-6.3426416 93.65916031 -6.34511902 94.4571756 -6.34767151 95.27937317 C-6.31071288 99.09698633 -6.23458048 100.88683015 -4.06550598 104.14044189 C-1.18544009 105.10046386 0.6123474 105.2660736 3.60295105 105.26742554 C5.04145416 105.27165527 5.04145416 105.27165527 6.50901794 105.27597046 C7.55950317 105.27394623 8.6099884 105.271922 9.69230652 105.26983643 C10.79983276 105.27158875 11.90735901 105.27334106 13.04844666 105.27514648 C16.7188116 105.27955699 20.38912857 105.2766298 24.05949402 105.27325439 C26.60392771 105.27392766 29.14836133 105.27489788 31.6927948 105.27615356 C37.02922741 105.27762945 42.36564273 105.2755745 47.70207214 105.27081299 C53.87267478 105.26537077 60.04324437 105.26713358 66.21384621 105.27263939 C72.1485433 105.27772289 78.08323012 105.27718645 84.01792908 105.27425766 C86.54417424 105.2735892 89.07042024 105.27441399 91.59666443 105.27673721 C95.12335972 105.2792685 98.64999101 105.27541633 102.17668152 105.26983643 C103.75240936 105.27287277 103.75240936 105.27287277 105.35997009 105.27597046 C106.31897217 105.27315063 107.27797424 105.27033081 108.26603699 105.26742554 C109.51705704 105.26686 109.51705704 105.26686 110.79335022 105.26628304 C113.12150361 105.22256216 113.12150361 105.22256216 115.93449402 104.14044189 C118.42531761 99.85069553 118.17632754 95.41330645 118.08561707 90.60235596 C118.07383423 89.33082924 118.07383423 89.33082924 118.06181335 88.03361511 C118.0333098 85.24088276 117.99004098 82.44859748 117.94621277 79.65606689 C117.92257361 77.71505626 117.89970114 75.77403615 117.87756348 73.83300781 C117.82908666 69.77114831 117.77372768 65.70946147 117.71305847 61.64776611 C117.63533269 56.42983646 117.57105072 51.211851 117.51140118 45.99368668 C117.46479296 41.98922189 117.41300687 37.98483824 117.35943031 33.98046112 C117.3339465 32.05545312 117.30965373 30.13042898 117.28655052 28.20539093 C117.25321943 25.5238106 117.21337784 22.84240924 117.17155457 20.16094971 C117.16265701 19.35888596 117.15375946 18.5568222 117.14459229 17.73045349 C117.41182069 14.13701903 117.41182069 14.13701903 115.93449402 11.14044189 C114.39793139 11.0380936 112.85668524 11.00524889 111.31672668 11 C110.31840317 10.99428986 109.32007965 10.98857971 108.29150391 10.98269653 C107.18707443 10.98157867 106.08264496 10.98046082 104.94474792 10.97930908 C103.78874588 10.97434418 102.63274384 10.96937927 101.44171143 10.96426392 C97.59815385 10.94959792 93.75463754 10.94283306 89.91105652 10.93731689 C87.92320257 10.93302064 85.93534863 10.9287239 83.94749486 10.92434239 C78.40691303 10.91252085 72.86634125 10.90499035 67.32574809 10.90154719 C60.1529609 10.89706568 52.9803642 10.87951622 45.80763495 10.8505466 C40.26875624 10.82895009 34.72993121 10.818844 29.19101083 10.81750607 C25.88040011 10.81645651 22.57000952 10.80908051 19.25943375 10.79268646 C15.56715052 10.77570703 11.87533516 10.77748653 8.18302917 10.78399658 C7.08264816 10.7747818 5.98226715 10.76556702 4.84854126 10.756073 C3.84457809 10.76164215 2.84061493 10.7672113 1.80622864 10.77294922 C0.93274591 10.77148266 0.05926319 10.7700161 -0.84068871 10.7685051 C-3.57780288 11.22608581 -4.46208261 11.89791359 -6.06550598 14.14044189 Z " fill="#000000" transform="translate(44.06550598144531,41.85955810546875)"/>
<path d="M0 0 C6.6746137 2.4569557 11.80094217 7.76056861 16.91992188 12.55834961 C17.54420074 13.14033112 18.16847961 13.72231262 18.81167603 14.32192993 C26.79213818 22.00741296 31.42648349 28.56564075 31.91699219 39.83631897 C31.95909604 47.31399317 31.21903689 54.74232283 30.04492188 62.12084961 C27.76901894 63.25880108 26.51147917 63.25113462 23.98352051 63.2612915 C22.70898766 63.26985672 22.70898766 63.26985672 21.40870667 63.27859497 C20.47461472 63.27971283 19.54052277 63.28083069 18.578125 63.28198242 C17.59593491 63.28694733 16.61374481 63.29191223 15.60179138 63.29702759 C12.34324451 63.31166832 9.08474627 63.31845346 5.82617188 63.32397461 C3.5693766 63.3297233 1.31258136 63.33548107 -0.94421387 63.34124756 C-5.67879464 63.35176218 -10.41335841 63.35760222 -15.14794922 63.36108398 C-21.22811229 63.36657783 -27.30805244 63.39062301 -33.38814545 63.41905594 C-38.04970976 63.43763437 -42.71121978 63.44288529 -47.37281799 63.44441986 C-49.61521121 63.44745643 -51.85760324 63.45551846 -54.09996033 63.46860504 C-57.22957594 63.48556976 -60.35863894 63.48380909 -63.48828125 63.47729492 C-64.88941917 63.4911171 -64.88941917 63.4911171 -66.31886292 63.50521851 C-67.16855148 63.49964935 -68.01824005 63.4940802 -68.89367676 63.48834229 C-69.63404427 63.48980885 -70.37441177 63.49127541 -71.13721466 63.49278641 C-72.95507812 63.12084961 -72.95507812 63.12084961 -74.95507812 60.12084961 C-76.18686042 55.83760662 -76.13321589 52.42010232 -74.95507812 48.12084961 C-71.6210334 43.03019955 -67.10806095 38.86714904 -62.68164062 34.7355957 C-61.23825727 33.38568938 -59.84054769 31.98716318 -58.45507812 30.57788086 C-55.55061957 27.73582278 -53.99251816 26.22671084 -49.89257812 25.80834961 C-46.47924216 27.33345717 -44.26912609 29.28916694 -41.66601562 31.94116211 C-40.03659863 33.34751857 -40.03659863 33.34751857 -38.06445312 32.86645508 C-31.59163191 30.57849258 -26.59893361 23.78400696 -21.91601562 18.93334961 C-21.38220276 18.38243652 -20.84838989 17.83152344 -20.29840088 17.26391602 C-16.9597335 13.81656333 -16.9597335 13.81656333 -13.64941406 10.34204102 C-12.02508578 8.62705035 -10.37944 6.93519983 -8.72851562 5.24584961 C-8.23773529 4.71580322 -7.74695496 4.18575684 -7.24130249 3.63964844 C-4.81889564 1.1980541 -3.48642108 0.14257918 0 0 Z " fill="#000000" transform="translate(121.955078125,74.879150390625)"/>
<path d="M0 0 C3.97352714 3.6755126 5.65561677 6.33056759 5.9375 11.75 C5.76423062 16.28513767 4.55025696 18.86089344 1.5 22.3125 C-2.65665794 25.98582562 -5.91551097 26.95789679 -11.3203125 26.703125 C-15.58968508 25.93800447 -18.2339385 23.49124691 -21.3125 20.625 C-23.53540693 16.29618125 -24.21773729 11.76724646 -22.83984375 7.0546875 C-21.42128649 3.94190194 -19.89632233 1.69681256 -17.4375 -0.6875 C-11.49468497 -2.71058597 -5.66544788 -2.73155523 0 0 Z " fill="#000000" transform="translate(70.5,63.6875)"/>
</svg>
