<?xml version="1.0" encoding="UTF-8"?>
<svg version="1.1" xmlns="http://www.w3.org/2000/svg" width="814" height="814">
<path d="M0 0 C268.62 0 537.24 0 814 0 C814 268.62 814 537.24 814 814 C545.38 814 276.76 814 0 814 C0 545.38 0 276.76 0 0 Z " fill="#D8DBE0" transform="translate(0,0)"/>
<path d="M0 0 C1.57131577 -0.00913666 1.57131577 -0.00913666 3.1743753 -0.01845789 C6.68412981 -0.0351052 10.19352221 -0.03030944 13.70330811 -0.0255127 C16.21995928 -0.03285208 18.73660709 -0.04143793 21.25325012 -0.05117798 C27.37997106 -0.07110826 33.50655881 -0.07677366 39.63330778 -0.07499009 C44.61545163 -0.07368145 49.59756599 -0.07749181 54.57970428 -0.08491516 C56.01591865 -0.08701441 57.45213302 -0.08911202 58.88834739 -0.09120798 C59.60324929 -0.09225151 60.3181512 -0.09329504 61.0547168 -0.09437019 C74.57164024 -0.11326716 88.0885094 -0.11222432 101.60544059 -0.10540086 C113.95915416 -0.09982843 126.31266016 -0.12063889 138.66632524 -0.15376133 C151.36114065 -0.18753327 164.05585673 -0.20266213 176.75071788 -0.1980443 C183.87381836 -0.1958028 190.9967271 -0.20099548 198.11978912 -0.22593689 C204.82087021 -0.24920138 211.52144963 -0.24632479 218.22256279 -0.22600937 C220.67913333 -0.22259934 223.13573292 -0.22768799 225.59226418 -0.24199295 C228.95206629 -0.26020445 232.31040736 -0.24742014 235.67016602 -0.22705078 C236.63691859 -0.23956863 237.60367117 -0.25208648 238.59971929 -0.26498365 C246.52917904 -0.16227842 253.33715521 2.14251409 259.02655029 7.83190918 C262.58272754 13.66403987 264.03037628 18.02570684 263.98345947 24.87593079 C263.98955058 25.71591903 263.99564168 26.55590727 264.00191736 27.4213497 C264.01853152 30.2286701 264.0137738 33.03553614 264.00897217 35.84289551 C264.01631348 37.85871349 264.02489989 39.87452726 264.03463745 41.89033508 C264.05685721 47.36152119 264.05978384 52.83255671 264.05788994 58.30378175 C264.05777024 62.87376673 264.06633415 67.4437198 264.07466745 72.0136959 C264.09390374 82.7976044 264.09678474 93.58143549 264.09002686 104.36535645 C264.08338784 115.48306034 264.10624448 126.60043232 264.14334059 137.7180689 C264.17405055 147.26901403 264.18539613 156.81985247 264.18150377 166.37084597 C264.17943739 172.07262237 264.18489859 177.77414056 264.20939636 183.47587013 C264.23168172 188.83992652 264.22977041 194.20344398 264.20946884 199.56750298 C264.20606184 201.53266444 264.21113447 203.4978623 264.22545242 205.46297455 C264.35642864 224.77680641 264.35642864 224.77680641 258.58905029 231.39440918 C252.06453446 237.75162974 245.87802317 238.8363478 237.13340759 238.78881836 C235.55490814 238.79795501 235.55490814 238.79795501 233.94451982 238.80727625 C230.41861231 238.82392404 226.89306523 238.81912774 223.36712646 238.81433105 C220.83900069 238.82167037 218.31087828 238.83025619 215.78276062 238.83999634 C209.62830136 238.85992637 203.4739747 238.86559206 197.31948753 238.86380845 C192.31540532 238.86249992 187.31135246 238.86630963 182.30727577 238.87373352 C180.86486715 238.87583276 179.42245853 238.87793036 177.98004991 238.88002634 C176.90308834 238.88159163 176.90308834 238.88159163 175.80436996 238.88318855 C162.22977283 238.90208504 148.65522975 238.90104268 135.08062492 238.89421922 C122.67127071 238.88864552 110.26212308 238.90946277 97.85281714 238.94257969 C85.10263603 238.97634142 72.3525538 238.99148185 59.60232717 238.98686266 C52.44740085 238.9846203 45.29266539 238.98982665 38.13777733 239.01475525 C31.40797278 239.03800357 24.67866795 239.03515556 17.94883156 239.01482773 C15.4805531 239.01141517 13.01224578 239.01651721 10.54400635 239.03081131 C7.1707178 239.04899679 3.79888864 239.03625778 0.42564392 239.01586914 C-0.54791245 239.02838699 -1.52146882 239.04090484 -2.52452689 239.05380201 C-9.23487083 238.96702929 -13.94809054 237.32691125 -19.41094971 233.39440918 C-25.03122905 227.62622775 -26.85965283 221.84023268 -26.80535889 213.91288757 C-26.81144999 213.07289933 -26.81754109 212.23291109 -26.82381678 211.36746866 C-26.84043093 208.56014825 -26.83567321 205.75328222 -26.83087158 202.94592285 C-26.83821289 200.93010487 -26.8467993 198.9142911 -26.85653687 196.89848328 C-26.87875662 191.42729717 -26.88168325 185.95626165 -26.87978935 180.48503661 C-26.87966966 175.91505163 -26.88823356 171.34509856 -26.89656687 166.77512246 C-26.91580316 155.99121396 -26.91868415 145.20738287 -26.91192627 134.42346191 C-26.90528726 123.30575802 -26.92814389 112.18838604 -26.96524 101.07074946 C-26.99594996 91.51980433 -27.00729555 81.96896589 -27.00340319 72.41797239 C-27.0013368 66.71619599 -27.006798 61.0146778 -27.03129578 55.31294823 C-27.05358114 49.94889184 -27.05166983 44.58537437 -27.03136826 39.22131538 C-27.02796125 37.25615392 -27.03303389 35.29095606 -27.04735184 33.32584381 C-27.17832806 14.01201195 -27.17832806 14.01201195 -21.41094971 7.39440918 C-14.90082347 1.05120926 -8.72657226 -0.04765368 0 0 Z " fill="#D8DBE0" transform="translate(288.41094970703125,287.6055908203125)"/>
<path d="M0 0 C9.88871672 2.8812448 18.79937885 14.66596413 25.32421875 22.296875 C30.14767182 27.8583753 35.43489236 32.96603518 40.671875 38.1328125 C63.59071354 60.74440839 63.59071354 60.74440839 63.70201111 73.81007385 C63.68516014 75.56504433 63.68516014 75.56504433 63.66796875 77.35546875 C63.66942398 78.57431259 63.67087921 79.79315643 63.67237854 81.04893494 C63.67072284 83.61834104 63.65919872 86.1877574 63.63842773 88.75708008 C63.60944748 92.6854876 63.61783248 96.61254689 63.63085938 100.54101562 C63.62462232 103.04167321 63.61623165 105.54232655 63.60546875 108.04296875 C63.60840439 109.2149733 63.61134003 110.38697784 63.61436462 111.59449768 C63.48880427 122.46471467 63.48880427 122.46471467 60.171875 126.6328125 C54.97696414 129.3626598 50.63423273 130.06721522 44.76423645 130.02049255 C43.53443268 130.02857086 43.53443268 130.02857086 42.27978438 130.03681237 C39.54680087 130.05106082 36.81430383 130.0439961 34.08129883 130.03686523 C32.11633415 130.04257024 30.15137278 130.04953501 28.18641663 130.05766296 C22.86023826 130.07559002 17.53422468 130.07442742 12.20802522 130.06872058 C7.76178669 130.06562965 3.31557986 130.07171976 -1.13065416 130.07775933 C-11.61569408 130.09179997 -22.1006525 130.09024562 -32.58569336 130.07885742 C-43.40866653 130.06736212 -54.23139232 130.0814767 -65.05433291 130.1082539 C-74.34619716 130.13038364 -83.63798359 130.13705486 -92.92987233 130.13117748 C-98.47996754 130.12780194 -104.02990395 130.13026331 -109.57997704 130.14742851 C-114.79459874 130.16285331 -120.00885231 130.15899187 -125.22345924 130.14012337 C-127.13911492 130.13642582 -129.05479762 130.13957969 -130.97042847 130.15000916 C-133.58119377 130.16314061 -136.19072595 130.15174231 -138.80143738 130.13401794 C-139.94408256 130.14842545 -139.94408256 130.14842545 -141.10981148 130.16312402 C-144.58275112 130.11445467 -146.48205145 129.89544259 -149.28554249 127.76791477 C-153.97615574 121.27559495 -152.41846863 109.55962903 -151.61083984 101.98388672 C-149.67612923 93.70071833 -143.13209793 88.45723717 -136.79394531 83.25732422 C-134.28407469 81.183221 -132.02877634 78.90837652 -129.765625 76.5703125 C-129.07726562 75.89226562 -128.38890625 75.21421875 -127.6796875 74.515625 C-125.9122703 72.71837798 -124.27197765 70.86596907 -122.640625 68.9453125 C-119.12401195 64.88259012 -115.44136918 60.99085052 -111.703125 57.1328125 C-111.1047583 56.49641846 -110.5063916 55.86002441 -109.88989258 55.2043457 C-109.31005615 54.61355225 -108.73021973 54.02275879 -108.1328125 53.4140625 C-107.3591333 52.6106543 -107.3591333 52.6106543 -106.56982422 51.79101562 C-104.14761765 50.1802856 -102.68313585 50.21543579 -99.828125 50.6328125 C-97.87109375 51.94628906 -97.87109375 51.94628906 -96.015625 53.7734375 C-95.33242188 54.43214844 -94.64921875 55.09085937 -93.9453125 55.76953125 C-92.89730469 56.81560547 -92.89730469 56.81560547 -91.828125 57.8828125 C-90.43377986 59.24371394 -89.03798178 60.60312856 -87.640625 61.9609375 C-87.02832031 62.5684082 -86.41601562 63.17587891 -85.78515625 63.80175781 C-83.56352663 65.88037834 -81.22298381 67.75808063 -78.828125 69.6328125 C-78.17328125 68.97273193 -77.5184375 68.31265137 -76.84375 67.63256836 C-74.37822374 65.14984784 -71.91034666 62.66951058 -69.44091797 60.19067383 C-68.37911639 59.12388953 -67.31821942 58.05620397 -66.25830078 56.98754883 C-56.31987754 46.96935543 -56.31987754 46.96935543 -51.828125 43.13671875 C-46.17632948 38.30890013 -41.04632528 32.91865612 -35.828125 27.6328125 C-23.76858651 15.41694666 -23.76858651 15.41694666 -17.46435547 10.05029297 C-16.05271577 8.82737741 -14.71518433 7.51987183 -13.39453125 6.19921875 C-9.22430402 2.02899152 -6.09605032 -0.65164676 0 0 Z " fill="#A1A0A0" transform="translate(450.828125,354.3671875)"/>
<path d="M0 0 C1.57131577 -0.00913666 1.57131577 -0.00913666 3.1743753 -0.01845789 C6.68412981 -0.0351052 10.19352221 -0.03030944 13.70330811 -0.0255127 C16.21995928 -0.03285208 18.73660709 -0.04143793 21.25325012 -0.05117798 C27.37997106 -0.07110826 33.50655881 -0.07677366 39.63330778 -0.07499009 C44.61545163 -0.07368145 49.59756599 -0.07749181 54.57970428 -0.08491516 C56.01591865 -0.08701441 57.45213302 -0.08911202 58.88834739 -0.09120798 C59.60324929 -0.09225151 60.3181512 -0.09329504 61.0547168 -0.09437019 C74.57164024 -0.11326716 88.0885094 -0.11222432 101.60544059 -0.10540086 C113.95915416 -0.09982843 126.31266016 -0.12063889 138.66632524 -0.15376133 C151.36114065 -0.18753327 164.05585673 -0.20266213 176.75071788 -0.1980443 C183.87381836 -0.1958028 190.9967271 -0.20099548 198.11978912 -0.22593689 C204.82087021 -0.24920138 211.52144963 -0.24632479 218.22256279 -0.22600937 C220.67913333 -0.22259934 223.13573292 -0.22768799 225.59226418 -0.24199295 C228.95206629 -0.26020445 232.31040736 -0.24742014 235.67016602 -0.22705078 C236.63691859 -0.23956863 237.60367117 -0.25208648 238.59971929 -0.26498365 C246.52917904 -0.16227842 253.33715521 2.14251409 259.02655029 7.83190918 C262.58272754 13.66403987 264.03037628 18.02570684 263.98345947 24.87593079 C263.98955058 25.71591903 263.99564168 26.55590727 264.00191736 27.4213497 C264.01853152 30.2286701 264.0137738 33.03553614 264.00897217 35.84289551 C264.01631348 37.85871349 264.02489989 39.87452726 264.03463745 41.89033508 C264.05685721 47.36152119 264.05978384 52.83255671 264.05788994 58.30378175 C264.05777024 62.87376673 264.06633415 67.4437198 264.07466745 72.0136959 C264.09390374 82.7976044 264.09678474 93.58143549 264.09002686 104.36535645 C264.08338784 115.48306034 264.10624448 126.60043232 264.14334059 137.7180689 C264.17405055 147.26901403 264.18539613 156.81985247 264.18150377 166.37084597 C264.17943739 172.07262237 264.18489859 177.77414056 264.20939636 183.47587013 C264.23168172 188.83992652 264.22977041 194.20344398 264.20946884 199.56750298 C264.20606184 201.53266444 264.21113447 203.4978623 264.22545242 205.46297455 C264.35642864 224.77680641 264.35642864 224.77680641 258.58905029 231.39440918 C252.06453446 237.75162974 245.87802317 238.8363478 237.13340759 238.78881836 C235.55490814 238.79795501 235.55490814 238.79795501 233.94451982 238.80727625 C230.41861231 238.82392404 226.89306523 238.81912774 223.36712646 238.81433105 C220.83900069 238.82167037 218.31087828 238.83025619 215.78276062 238.83999634 C209.62830136 238.85992637 203.4739747 238.86559206 197.31948753 238.86380845 C192.31540532 238.86249992 187.31135246 238.86630963 182.30727577 238.87373352 C180.86486715 238.87583276 179.42245853 238.87793036 177.98004991 238.88002634 C176.90308834 238.88159163 176.90308834 238.88159163 175.80436996 238.88318855 C162.22977283 238.90208504 148.65522975 238.90104268 135.08062492 238.89421922 C122.67127071 238.88864552 110.26212308 238.90946277 97.85281714 238.94257969 C85.10263603 238.97634142 72.3525538 238.99148185 59.60232717 238.98686266 C52.44740085 238.9846203 45.29266539 238.98982665 38.13777733 239.01475525 C31.40797278 239.03800357 24.67866795 239.03515556 17.94883156 239.01482773 C15.4805531 239.01141517 13.01224578 239.01651721 10.54400635 239.03081131 C7.1707178 239.04899679 3.79888864 239.03625778 0.42564392 239.01586914 C-0.54791245 239.02838699 -1.52146882 239.04090484 -2.52452689 239.05380201 C-9.23487083 238.96702929 -13.94809054 237.32691125 -19.41094971 233.39440918 C-25.03122905 227.62622775 -26.85965283 221.84023268 -26.80535889 213.91288757 C-26.81144999 213.07289933 -26.81754109 212.23291109 -26.82381678 211.36746866 C-26.84043093 208.56014825 -26.83567321 205.75328222 -26.83087158 202.94592285 C-26.83821289 200.93010487 -26.8467993 198.9142911 -26.85653687 196.89848328 C-26.87875662 191.42729717 -26.88168325 185.95626165 -26.87978935 180.48503661 C-26.87966966 175.91505163 -26.88823356 171.34509856 -26.89656687 166.77512246 C-26.91580316 155.99121396 -26.91868415 145.20738287 -26.91192627 134.42346191 C-26.90528726 123.30575802 -26.92814389 112.18838604 -26.96524 101.07074946 C-26.99594996 91.51980433 -27.00729555 81.96896589 -27.00340319 72.41797239 C-27.0013368 66.71619599 -27.006798 61.0146778 -27.03129578 55.31294823 C-27.05358114 49.94889184 -27.05166983 44.58537437 -27.03136826 39.22131538 C-27.02796125 37.25615392 -27.03303389 35.29095606 -27.04735184 33.32584381 C-27.17832806 14.01201195 -27.17832806 14.01201195 -21.41094971 7.39440918 C-14.90082347 1.05120926 -8.72657226 -0.04765368 0 0 Z M-9.41094971 25.39440918 C-9.90451261 28.1691757 -10.0891375 30.3311829 -10.04586792 33.09924316 C-10.05366787 33.8676953 -10.06146783 34.63614744 -10.06950414 35.42788601 C-10.08942581 37.99924804 -10.07365994 40.5691303 -10.05792236 43.14050293 C-10.06469844 44.98532983 -10.07360152 46.83014996 -10.08447266 48.67495728 C-10.10727375 53.68327023 -10.09842626 58.69106841 -10.08257723 63.69939041 C-10.06992248 68.93945966 -10.08165716 74.17948469 -10.08950806 79.41955566 C-10.09860584 88.21952227 -10.08661326 97.0192791 -10.06280518 105.81921387 C-10.03559372 115.99464066 -10.04440778 126.16956654 -10.0719372 136.34498119 C-10.09462353 145.0797387 -10.09783067 153.81434537 -10.08474386 162.54912281 C-10.07694675 167.76674931 -10.07591496 172.98414032 -10.0924263 178.20175171 C-10.1068648 183.10702855 -10.09686058 188.0116593 -10.06795502 192.9168663 C-10.0613409 194.71759849 -10.06324745 196.518385 -10.07426834 198.31909561 C-10.08792318 200.77665726 -10.07081135 203.23214586 -10.04586792 205.6895752 C-10.05702153 206.40309867 -10.06817514 207.11662214 -10.07966673 207.85176754 C-10.00985802 211.3947433 -9.43686441 213.35471262 -7.49043846 216.33627892 C-3.13265842 219.24873605 0.35827871 219.09033875 5.49578857 219.02932739 C7.00373584 219.04102732 7.00373584 219.04102732 8.54214668 219.05296361 C11.91492346 219.07292703 15.28657739 219.05710124 18.65936279 219.04138184 C21.07560893 219.04815598 23.4918499 219.05705796 25.90808105 219.06793213 C31.79202315 219.08838471 37.67567302 219.08536354 43.55960703 219.07086892 C48.34160383 219.05957657 53.12351127 219.05804573 57.90551758 219.06348801 C58.58613538 219.06425417 59.26675318 219.06502034 59.96799576 219.06580972 C61.35066146 219.06740835 62.73332714 219.06902941 64.11599278 219.07067268 C77.08104817 219.08493016 90.04592679 219.06853756 103.01095319 219.04167084 C114.13538137 219.01933198 125.25954869 219.02321212 136.38397217 219.04626465 C149.30264265 219.07302277 162.2211582 219.08355686 175.13985252 219.06820333 C176.51742933 219.06661059 177.89500616 219.06503873 179.27258301 219.06348801 C180.28927195 219.06233094 180.28927195 219.06233094 181.32650006 219.0611505 C186.1027143 219.05683351 190.87883027 219.06411998 195.6550293 219.07588577 C202.08356773 219.09137388 208.51172912 219.08034573 214.94022369 219.05141449 C217.30212839 219.0447927 219.6640745 219.04671986 222.02596283 219.05772781 C225.2453101 219.07135082 228.46306667 219.05430502 231.68231201 219.02932739 C232.62151049 219.040481 233.56070896 219.05163461 234.528368 219.06312621 C238.83803549 218.99807242 241.01302114 218.77938965 244.66853905 216.33627892 C247.03371182 212.71326956 247.2895171 209.88287851 247.22396851 205.6895752 C247.23176846 204.92112306 247.23956841 204.15267092 247.24760473 203.36093235 C247.2675264 200.78957032 247.25176052 198.21968806 247.23602295 195.64831543 C247.24279903 193.80348853 247.2517021 191.9586684 247.26257324 190.11386108 C247.28537433 185.10554813 247.27652685 180.09774995 247.26067781 175.08942795 C247.24802307 169.8493587 247.25975775 164.60933366 247.26760864 159.3692627 C247.27670643 150.56929609 247.26471384 141.76953926 247.24090576 132.96960449 C247.2136943 122.7941777 247.22250837 112.61925182 247.25003779 102.44383717 C247.27272412 93.70907966 247.27593125 84.97447299 247.26284444 76.23969555 C247.25504734 71.02206905 247.25401555 65.80467804 247.27052689 60.58706665 C247.28496539 55.68178981 247.27496116 50.77715906 247.2460556 45.87195206 C247.23944149 44.07121987 247.24134804 42.27043336 247.25236893 40.46972275 C247.26602376 38.0121611 247.24891194 35.5566725 247.22396851 33.09924316 C247.23512211 32.38571969 247.24627572 31.67219622 247.25776732 30.93705082 C247.1879586 27.39407506 246.614965 25.43410573 244.66853905 22.45253944 C240.310759 19.54008231 236.81982187 19.69847961 231.68231201 19.75949097 C230.67701384 19.75169101 229.67171566 19.74389106 228.6359539 19.73585474 C225.26317712 19.71589133 221.8915232 19.73171712 218.51873779 19.74743652 C216.10249166 19.74066238 213.68625069 19.7317604 211.27001953 19.72088623 C205.38607743 19.70043365 199.50242757 19.70345482 193.61849356 19.71794944 C188.83649675 19.72924179 184.05458932 19.73077263 179.27258301 19.72533035 C178.59196521 19.72456419 177.91134741 19.72379802 177.21010482 19.72300864 C175.82743912 19.72141001 174.44477345 19.71978895 173.0621078 19.71814568 C160.09705241 19.7038882 147.13217379 19.7202808 134.1671474 19.74714752 C123.04271921 19.76948638 111.9185519 19.76560624 100.79412842 19.74255371 C87.87545794 19.71579559 74.95694238 19.70526149 62.03824806 19.72061503 C60.66067126 19.72220777 59.28309443 19.72377963 57.90551758 19.72533035 C57.22772495 19.72610173 56.54993232 19.72687311 55.85160053 19.72766786 C51.07538628 19.73198485 46.29927031 19.72469838 41.52307129 19.71293259 C35.09453286 19.69744448 28.66637146 19.70847263 22.23787689 19.73740387 C19.87597219 19.74402566 17.51402609 19.7420985 15.15213776 19.73109055 C11.93279049 19.71746754 8.71503392 19.73451334 5.49578857 19.75949097 C4.5565901 19.74833736 3.61739162 19.73718375 2.64973259 19.72569215 C-2.99752044 19.81093659 -6.1178082 20.34992253 -9.41094971 25.39440918 Z " fill="#A1A0A0" transform="translate(288.41094970703125,287.6055908203125)"/>
<path d="M0 0 C1.57131577 -0.00913666 1.57131577 -0.00913666 3.1743753 -0.01845789 C6.68412981 -0.0351052 10.19352221 -0.03030944 13.70330811 -0.0255127 C16.21995928 -0.03285208 18.73660709 -0.04143793 21.25325012 -0.05117798 C27.37997106 -0.07110826 33.50655881 -0.07677366 39.63330778 -0.07499009 C44.61545163 -0.07368145 49.59756599 -0.07749181 54.57970428 -0.08491516 C56.01591865 -0.08701441 57.45213302 -0.08911202 58.88834739 -0.09120798 C59.60324929 -0.09225151 60.3181512 -0.09329504 61.0547168 -0.09437019 C74.57164024 -0.11326716 88.0885094 -0.11222432 101.60544059 -0.10540086 C113.95915416 -0.09982843 126.31266016 -0.12063889 138.66632524 -0.15376133 C151.36114065 -0.18753327 164.05585673 -0.20266213 176.75071788 -0.1980443 C183.87381836 -0.1958028 190.9967271 -0.20099548 198.11978912 -0.22593689 C204.82087021 -0.24920138 211.52144963 -0.24632479 218.22256279 -0.22600937 C220.67913333 -0.22259934 223.13573292 -0.22768799 225.59226418 -0.24199295 C228.95206629 -0.26020445 232.31040736 -0.24742014 235.67016602 -0.22705078 C236.63691859 -0.23956863 237.60367117 -0.25208648 238.59971929 -0.26498365 C246.52917904 -0.16227842 253.33715521 2.14251409 259.02655029 7.83190918 C262.58272754 13.66403987 264.03037628 18.02570684 263.98345947 24.87593079 C263.98955058 25.71591903 263.99564168 26.55590727 264.00191736 27.4213497 C264.01853152 30.2286701 264.0137738 33.03553614 264.00897217 35.84289551 C264.01631348 37.85871349 264.02489989 39.87452726 264.03463745 41.89033508 C264.05685721 47.36152119 264.05978384 52.83255671 264.05788994 58.30378175 C264.05777024 62.87376673 264.06633415 67.4437198 264.07466745 72.0136959 C264.09390374 82.7976044 264.09678474 93.58143549 264.09002686 104.36535645 C264.08338784 115.48306034 264.10624448 126.60043232 264.14334059 137.7180689 C264.17405055 147.26901403 264.18539613 156.81985247 264.18150377 166.37084597 C264.17943739 172.07262237 264.18489859 177.77414056 264.20939636 183.47587013 C264.23168172 188.83992652 264.22977041 194.20344398 264.20946884 199.56750298 C264.20606184 201.53266444 264.21113447 203.4978623 264.22545242 205.46297455 C264.35642864 224.77680641 264.35642864 224.77680641 258.58905029 231.39440918 C252.06453446 237.75162974 245.87802317 238.8363478 237.13340759 238.78881836 C235.55490814 238.79795501 235.55490814 238.79795501 233.94451982 238.80727625 C230.41861231 238.82392404 226.89306523 238.81912774 223.36712646 238.81433105 C220.83900069 238.82167037 218.31087828 238.83025619 215.78276062 238.83999634 C209.62830136 238.85992637 203.4739747 238.86559206 197.31948753 238.86380845 C192.31540532 238.86249992 187.31135246 238.86630963 182.30727577 238.87373352 C180.86486715 238.87583276 179.42245853 238.87793036 177.98004991 238.88002634 C176.90308834 238.88159163 176.90308834 238.88159163 175.80436996 238.88318855 C162.22977283 238.90208504 148.65522975 238.90104268 135.08062492 238.89421922 C122.67127071 238.88864552 110.26212308 238.90946277 97.85281714 238.94257969 C85.10263603 238.97634142 72.3525538 238.99148185 59.60232717 238.98686266 C52.44740085 238.9846203 45.29266539 238.98982665 38.13777733 239.01475525 C31.40797278 239.03800357 24.67866795 239.03515556 17.94883156 239.01482773 C15.4805531 239.01141517 13.01224578 239.01651721 10.54400635 239.03081131 C7.1707178 239.04899679 3.79888864 239.03625778 0.42564392 239.01586914 C-0.54791245 239.02838699 -1.52146882 239.04090484 -2.52452689 239.05380201 C-9.23487083 238.96702929 -13.94809054 237.32691125 -19.41094971 233.39440918 C-25.03122905 227.62622775 -26.85965283 221.84023268 -26.80535889 213.91288757 C-26.81144999 213.07289933 -26.81754109 212.23291109 -26.82381678 211.36746866 C-26.84043093 208.56014825 -26.83567321 205.75328222 -26.83087158 202.94592285 C-26.83821289 200.93010487 -26.8467993 198.9142911 -26.85653687 196.89848328 C-26.87875662 191.42729717 -26.88168325 185.95626165 -26.87978935 180.48503661 C-26.87966966 175.91505163 -26.88823356 171.34509856 -26.89656687 166.77512246 C-26.91580316 155.99121396 -26.91868415 145.20738287 -26.91192627 134.42346191 C-26.90528726 123.30575802 -26.92814389 112.18838604 -26.96524 101.07074946 C-26.99594996 91.51980433 -27.00729555 81.96896589 -27.00340319 72.41797239 C-27.0013368 66.71619599 -27.006798 61.0146778 -27.03129578 55.31294823 C-27.05358114 49.94889184 -27.05166983 44.58537437 -27.03136826 39.22131538 C-27.02796125 37.25615392 -27.03303389 35.29095606 -27.04735184 33.32584381 C-27.17832806 14.01201195 -27.17832806 14.01201195 -21.41094971 7.39440918 C-14.90082347 1.05120926 -8.72657226 -0.04765368 0 0 Z M-17.72344971 13.01940918 C-20.66732685 17.16264368 -20.55688514 20.35632968 -20.5513916 25.3012085 C-20.55436272 26.12764508 -20.55733385 26.95408166 -20.560395 27.80556178 C-20.5691063 30.59072153 -20.5705923 33.37583842 -20.57208252 36.16101074 C-20.57670902 38.15154615 -20.58173345 40.14208066 -20.58712769 42.13261414 C-20.60027089 47.55214688 -20.60670051 52.97166722 -20.61113834 58.39121342 C-20.61406629 61.77530396 -20.61817059 65.15939109 -20.62264252 68.54347992 C-20.63632319 79.12609633 -20.64598676 89.70870498 -20.64984441 100.29132962 C-20.65432517 112.51716793 -20.67187156 124.74289443 -20.700845 136.96869874 C-20.72244831 146.4116445 -20.73254799 155.85455877 -20.73388553 165.29752898 C-20.73493462 170.94052532 -20.74086459 176.58341665 -20.75870514 182.22638702 C-20.77516218 187.53526623 -20.77735279 192.84396123 -20.76856613 198.15285683 C-20.76779446 200.10153763 -20.77215557 202.05022824 -20.78202438 203.9988842 C-20.79470794 206.65936811 -20.78888663 209.3191961 -20.77844238 211.97967529 C-20.78649879 212.75069651 -20.79455519 213.52171772 -20.80285573 214.31610322 C-20.75264908 219.78519293 -19.66182745 223.98316356 -15.87579346 228.03894043 C-12.03676419 230.97466869 -9.98345009 232.51753368 -5.18356705 232.52863026 C-4.29153588 232.5330881 -3.3995047 232.53754594 -2.48044229 232.54213887 C-1.00119574 232.54186233 -1.00119574 232.54186233 0.50793457 232.5415802 C1.55079943 232.54525689 2.59366429 232.54893358 3.66813111 232.55272168 C7.18572104 232.56379292 10.70328146 232.56760817 14.22088623 232.57141113 C16.73358251 232.57767315 19.24627785 232.58431972 21.75897217 232.59132385 C29.316258 232.61057684 36.87353865 232.62115582 44.43084276 232.63005164 C47.98848519 232.63443321 51.54612614 232.63980037 55.1037674 232.64504051 C66.92824367 232.66205403 78.75271902 232.67654846 90.57720566 232.68378925 C93.64658357 232.68569919 96.71596147 232.68761952 99.78533936 232.6895752 C100.54823187 232.69005894 101.31112439 232.69054268 102.09713486 232.69104107 C114.45699924 232.69934233 126.81676686 232.72468027 139.17658898 232.75715587 C151.86220244 232.79021611 164.5477667 232.80823709 177.23342347 232.81143349 C184.35755806 232.81359961 191.48155158 232.82236283 198.60564423 232.84789467 C205.30658623 232.87185428 212.00723026 232.87543388 218.70822144 232.86513329 C221.16969903 232.86463629 223.63118887 232.87100453 226.09262848 232.88468933 C229.44947025 232.90231017 232.80538999 232.89534967 236.16223145 232.88215637 C237.13947292 232.89312562 238.1167144 232.90409486 239.12356925 232.91539651 C244.79500677 232.86147071 248.10978632 232.22109104 252.58905029 228.39440918 C257.30459777 223.16907278 257.73783959 219.18787671 257.73622131 212.36735535 C257.74173635 211.12641883 257.74173635 211.12641883 257.74736279 209.8604129 C257.75840741 207.07836311 257.76224477 204.29635066 257.76605225 201.51428223 C257.77231623 199.52359905 257.77896297 197.53291705 257.78596497 195.54223633 C257.80337884 190.12689863 257.81392747 184.71156976 257.8221705 179.296211 C257.82731911 175.91429284 257.83339486 172.53237742 257.83968163 169.1504612 C257.85873353 158.5731897 257.8729655 147.9959252 257.88129359 137.41863984 C257.89107144 125.20126867 257.91740534 112.98407842 257.95779449 100.76677102 C257.98792939 91.32805211 258.00275992 81.88938514 258.00607461 72.45061904 C258.00842779 66.81095312 258.01742336 61.17148048 258.04253578 55.53186607 C258.06577596 50.22703895 258.07006601 44.92253294 258.0597744 39.61766815 C258.05927797 37.67059322 258.06562992 35.7235027 258.07933044 33.77647591 C258.09699025 31.11806875 258.08997261 28.4608214 258.07679749 25.80241394 C258.08776673 25.03207484 258.09873598 24.26173575 258.11003762 23.46805304 C258.04810922 18.29182837 256.84209997 15.38762462 253.58905029 11.39440918 C249.75981945 8.02103915 247.44611593 6.27194255 242.36166763 6.2601881 C241.46963646 6.25573026 240.57760529 6.25127241 239.65854287 6.24667948 C238.17929633 6.24695603 238.17929633 6.24695603 236.67016602 6.24723816 C235.62730116 6.24356147 234.5844363 6.23988478 233.50996947 6.23609668 C229.99237955 6.22502544 226.47481913 6.22121019 222.95721436 6.21740723 C220.44451808 6.21114521 217.93182274 6.20449864 215.41912842 6.19749451 C207.86184259 6.17824152 200.30456193 6.16766254 192.74725783 6.15876672 C189.18961539 6.15438515 185.63197445 6.14901799 182.07433319 6.14377785 C170.24985691 6.12676433 158.42538157 6.1122699 146.60089493 6.10502911 C143.53151702 6.10311917 140.46213911 6.10119884 137.39276123 6.09924316 C136.62986871 6.09875942 135.8669762 6.09827568 135.08096573 6.09777728 C122.72110135 6.08947603 110.36133373 6.06413809 98.0015116 6.03166249 C85.31589815 5.99860225 72.63033388 5.98058127 59.94467711 5.97738487 C52.82054252 5.97521875 45.696549 5.96645553 38.57245636 5.94092369 C31.87151436 5.91696408 25.17087032 5.91338448 18.46987915 5.92368507 C16.00840155 5.92418207 13.54691171 5.91781383 11.08547211 5.90412903 C7.72863034 5.88650819 4.3727106 5.89346869 1.01586914 5.90666199 C0.03862767 5.89569274 -0.93861381 5.8847235 -1.94546866 5.87342185 C-9.02563483 5.94074228 -12.92709762 7.5749014 -17.72344971 13.01940918 Z " fill="#010101" transform="translate(288.41094970703125,287.6055908203125)"/>
<path d="M0 0 C1.01361414 -0.00623996 2.02722828 -0.01247993 3.071558 -0.01890898 C6.46639931 -0.03485768 9.86052451 -0.02222688 13.25537109 -0.00964355 C15.68984394 -0.01506381 18.12431351 -0.02218592 20.55877686 -0.03088379 C26.48365522 -0.04723627 32.40834776 -0.04483384 38.33322096 -0.03323323 C43.14902376 -0.02419495 47.96476976 -0.02297659 52.78057861 -0.02732849 C53.46632292 -0.02794142 54.15206723 -0.02855436 54.85859168 -0.02918586 C56.2517241 -0.03046478 57.64485651 -0.03176163 59.0379889 -0.03307623 C72.09747883 -0.04447891 85.1568564 -0.03137326 98.21632791 -0.00987476 C109.41885169 0.00799598 120.62120967 0.00489178 131.82373047 -0.0135498 C144.83689033 -0.03496207 157.84995174 -0.0433803 170.86312675 -0.03110075 C172.25109735 -0.02982657 173.63906795 -0.02856909 175.02703857 -0.02732849 C175.70992372 -0.02671139 176.39280887 -0.02609429 177.09638751 -0.02545848 C181.90569272 -0.02200664 186.71493542 -0.02783033 191.52423096 -0.0372467 C197.99869801 -0.0496449 204.47292559 -0.04080159 210.94736481 -0.01766968 C213.32497894 -0.01237602 215.70261939 -0.01390752 218.08022308 -0.02272034 C221.32304511 -0.03363289 224.56485955 -0.01996291 227.80761719 0 C228.7510026 -0.00892289 229.69438801 -0.01784577 230.66636086 -0.02703905 C236.22866759 0.03948828 239.59370422 0.65160932 243.90380859 4.50793457 C247.7263005 9.00471885 248.48310728 12.6620648 248.41174316 18.40222168 C248.42110311 19.56737383 248.42110311 19.56737383 248.43065214 20.75606441 C248.44656079 23.34944783 248.43398668 25.94188854 248.42138672 28.53527832 C248.4268088 30.39833117 248.43393194 32.26137972 248.44262695 34.12442017 C248.46085302 39.17813262 248.45379568 44.23151823 248.44111061 49.28523636 C248.43097928 54.57554247 248.44037667 59.86582071 248.44665527 65.15612793 C248.45393128 74.04004945 248.44434517 82.92383794 248.42529297 91.80773926 C248.40352436 102.0768306 248.41057576 112.34560427 248.43259859 122.61468792 C248.45075389 131.43354097 248.45331026 140.25229843 248.44284391 149.07116413 C248.43660972 154.33740254 248.43577139 159.60349166 248.44898987 164.86972046 C248.46054957 169.82088965 248.45252029 174.77164951 248.42941284 179.72277451 C248.42412642 181.53921708 248.4256384 183.35569413 248.4344635 185.17212296 C248.44540543 187.65309524 248.43167273 190.13275844 248.41174316 192.61364746 C248.42512749 193.69021307 248.42512749 193.69021307 248.43878222 194.78852749 C248.36026684 199.83238933 247.15589763 202.68217294 243.90380859 206.50793457 C238.78634692 211.08329304 234.37691669 211.07591372 227.84558105 211.00914001 C226.83605047 211.01467441 225.82651988 211.02020881 224.78639746 211.02591091 C221.40536183 211.03951851 218.02506422 211.02454702 214.64404297 211.00964355 C212.21942328 211.01342667 209.79480575 211.01892665 207.37019348 211.02601624 C201.46936973 211.03853782 195.56874128 211.03239966 189.66793978 211.01734065 C182.79432406 211.00046772 175.92076151 211.00369244 169.04713148 211.00743473 C156.78170325 211.01331157 144.51637773 210.99914872 132.25097656 210.9744873 C120.35282542 210.95056703 108.45481149 210.94348326 96.55664062 210.95397949 C83.59622484 210.96539235 70.6358725 210.96731423 57.67545748 210.9528814 C56.29310386 210.95135558 54.91075024 210.94983522 53.52839661 210.94832039 C52.84827557 210.94756257 52.16815453 210.94680476 51.46742377 210.94602398 C46.67766968 210.94128399 41.88794396 210.94313057 37.09819031 210.94738579 C30.65001685 210.95283083 24.20199126 210.94205679 17.75385094 210.92043114 C15.38591338 210.91486208 13.01795755 210.91439904 10.65001869 210.919384 C7.4204795 210.92533063 4.19152282 210.91284295 0.96203613 210.89561462 C0.02254167 210.90162467 -0.91695279 210.90763471 -1.88491678 210.91382688 C-7.0392861 210.86374592 -10.64562944 210.40185492 -15.09619141 207.50793457 C-19.53992232 202.58380031 -20.24499536 199.55474262 -20.24336243 193.09466553 C-20.24887746 191.93463992 -20.24887746 191.93463992 -20.25450391 190.75117946 C-20.26556487 188.14567715 -20.26938866 185.54021469 -20.27319336 182.93469238 C-20.2794562 181.07223381 -20.28610283 179.20977649 -20.29310608 177.34732056 C-20.31053268 172.27695425 -20.32107239 167.20659738 -20.32931161 162.13620853 C-20.33445832 158.96988065 -20.3405342 155.80355572 -20.34682274 152.63722992 C-20.36587957 142.73485023 -20.38010958 132.83247802 -20.38843471 122.93008351 C-20.39820951 111.4914937 -20.42453336 100.05309728 -20.4649356 88.61457562 C-20.49507567 79.77884417 -20.50990159 70.94316822 -20.51321572 62.10738635 C-20.51556865 56.8276403 -20.52456056 51.54810073 -20.5496769 46.26840973 C-20.57292565 41.30092833 -20.5772037 36.33378982 -20.56691551 31.36626816 C-20.56641926 29.54336025 -20.57276597 27.72043565 -20.58647156 25.89757919 C-20.60414434 23.40768681 -20.59710768 20.91903114 -20.5839386 18.42913818 C-20.59490784 17.7086993 -20.60587709 16.98826041 -20.61717874 16.24599004 C-20.55267011 11.18989647 -19.35844246 8.34124474 -16.09619141 4.50793457 C-10.97294081 -0.07592673 -6.54081158 -0.06186541 0 0 Z M-14.09619141 11.50793457 C-14.5897543 14.28270109 -14.7743792 16.44470829 -14.73110962 19.21276855 C-14.73890957 19.98122069 -14.74670953 20.74967283 -14.75474584 21.5414114 C-14.77466751 24.11277343 -14.75890164 26.68265569 -14.74316406 29.25402832 C-14.74994014 31.09885522 -14.75884322 32.94367535 -14.76971436 34.78848267 C-14.79251545 39.79679562 -14.78366796 44.8045938 -14.76781893 49.8129158 C-14.75516418 55.05298505 -14.76689886 60.29301009 -14.77474976 65.53308105 C-14.78384754 74.33304766 -14.77185496 83.13280449 -14.74804688 91.93273926 C-14.72083541 102.10816605 -14.72964948 112.28309193 -14.7571789 122.45850658 C-14.77986523 131.19326409 -14.78307237 139.92787076 -14.76998556 148.6626482 C-14.76218845 153.8802747 -14.76115666 159.09766571 -14.777668 164.3152771 C-14.7921065 169.22055394 -14.78210228 174.12518469 -14.75319672 179.03039169 C-14.7465826 180.83112388 -14.74848915 182.63191039 -14.75951004 184.432621 C-14.77316488 186.89018265 -14.75605305 189.34567125 -14.73110962 191.80310059 C-14.74226323 192.51662406 -14.75341684 193.23014753 -14.76490843 193.96529293 C-14.69509971 197.50826869 -14.12210611 199.46823802 -12.17568016 202.44980431 C-7.81790012 205.36226144 -4.32696299 205.20386414 0.81054688 205.14285278 C2.31849414 205.15455271 2.31849414 205.15455271 3.85690498 205.16648901 C7.22968176 205.18645242 10.60133569 205.17062663 13.97412109 205.15490723 C16.39036723 205.16168137 18.8066082 205.17058335 21.22283936 205.18145752 C27.10678145 205.2019101 32.99043132 205.19888893 38.87436533 205.18439431 C43.65636213 205.17310196 48.43826957 205.17157112 53.22027588 205.1770134 C53.90089368 205.17777956 54.58151148 205.17854573 55.28275406 205.17933511 C56.66541976 205.18093374 58.04808544 205.1825548 59.43075109 205.18419807 C72.39580647 205.19845555 85.36068509 205.18206295 98.32571149 205.15519623 C109.45013967 205.13285737 120.57430699 205.13673751 131.69873047 205.15979004 C144.61740095 205.18654816 157.5359165 205.19708226 170.45461082 205.18172872 C171.83218763 205.18013598 173.20976446 205.17856412 174.58734131 205.1770134 C175.60403025 205.17585633 175.60403025 205.17585633 176.64125836 205.17467589 C181.4174726 205.1703589 186.19358857 205.17764537 190.9697876 205.18941116 C197.39832603 205.20489927 203.82648743 205.19387112 210.25498199 205.16493988 C212.6168867 205.15831809 214.9788328 205.16024525 217.34072113 205.1712532 C220.5600684 205.18487621 223.77782497 205.16783041 226.99707031 205.14285278 C227.93626879 205.15400639 228.87546726 205.16516 229.8431263 205.1766516 C234.15279379 205.11159781 236.32777944 204.89291504 239.98329735 202.44980431 C242.34847012 198.82679495 242.60427541 195.9964039 242.53872681 191.80310059 C242.54652676 191.03464845 242.55432671 190.26619631 242.56236303 189.47445774 C242.5822847 186.90309571 242.56651882 184.33321345 242.55078125 181.76184082 C242.55755733 179.91701392 242.5664604 178.07219379 242.57733154 176.22738647 C242.60013263 171.21907352 242.59128515 166.21127534 242.57543612 161.20295334 C242.56278137 155.96288409 242.57451605 150.72285906 242.58236694 145.48278809 C242.59146473 136.68282148 242.57947215 127.88306465 242.55566406 119.08312988 C242.5284526 108.90770309 242.53726667 98.73277721 242.56479609 88.55736256 C242.58748242 79.82260505 242.59068955 71.08799838 242.57760274 62.35322094 C242.56980564 57.13559444 242.56877385 51.91820343 242.58528519 46.70059204 C242.59972369 41.7953152 242.58971947 36.89068445 242.5608139 31.98547745 C242.55419979 30.18474526 242.55610634 28.38395875 242.56712723 26.58324814 C242.58078207 24.12568649 242.56367024 21.67019789 242.53872681 19.21276855 C242.54988042 18.49924508 242.56103402 17.78572161 242.57252562 17.05057621 C242.5027169 13.50760045 241.9297233 11.54763113 239.98329735 8.56606483 C235.6255173 5.6536077 232.13458017 5.812005 226.99707031 5.87301636 C225.99177214 5.8652164 224.98647396 5.85741645 223.9507122 5.84938014 C220.57793542 5.82941672 217.2062815 5.84524251 213.83349609 5.86096191 C211.41724996 5.85418777 209.00100899 5.84528579 206.58477783 5.83441162 C200.70083573 5.81395904 194.81718587 5.81698021 188.93325186 5.83147483 C184.15125505 5.84276718 179.36934762 5.84429802 174.58734131 5.83885574 C173.90672351 5.83808958 173.22610571 5.83732341 172.52486312 5.83653403 C171.14219742 5.8349354 169.75953175 5.83331434 168.3768661 5.83167107 C155.41181071 5.81741359 142.4469321 5.83380619 129.4819057 5.86067291 C118.35747751 5.88301177 107.2333102 5.87913163 96.10888672 5.8560791 C83.19021624 5.82932098 70.27170068 5.81878689 57.35300636 5.83414042 C55.97542956 5.83573316 54.59785273 5.83730502 53.22027588 5.83885574 C52.54248325 5.83962712 51.86469063 5.8403985 51.16635883 5.84119325 C46.39014458 5.84551024 41.61402861 5.83822377 36.83782959 5.82645798 C30.40929116 5.81096987 23.98112976 5.82199802 17.55263519 5.85092926 C15.19073049 5.85755105 12.82878439 5.85562389 10.46689606 5.84461594 C7.24754879 5.83099293 4.02979222 5.84803873 0.81054688 5.87301636 C-0.1286516 5.86186275 -1.06785007 5.85070914 -2.03550911 5.83921754 C-7.68276214 5.92446198 -10.8030499 6.46344792 -14.09619141 11.50793457 Z " fill="#000000" transform="translate(293.09619140625,301.4920654296875)"/>
<path d="M0 0 C9.88871672 2.8812448 18.79937885 14.66596413 25.32421875 22.296875 C30.14767182 27.8583753 35.43489236 32.96603518 40.671875 38.1328125 C63.59071354 60.74440839 63.59071354 60.74440839 63.70201111 73.81007385 C63.68516014 75.56504433 63.68516014 75.56504433 63.66796875 77.35546875 C63.66942398 78.57431259 63.67087921 79.79315643 63.67237854 81.04893494 C63.67072284 83.61834104 63.65919872 86.1877574 63.63842773 88.75708008 C63.60944748 92.6854876 63.61783248 96.61254689 63.63085938 100.54101562 C63.62462232 103.04167321 63.61623165 105.54232655 63.60546875 108.04296875 C63.60840439 109.2149733 63.61134003 110.38697784 63.61436462 111.59449768 C63.48880427 122.46471467 63.48880427 122.46471467 60.171875 126.6328125 C54.97696414 129.3626598 50.63423273 130.06721522 44.76423645 130.02049255 C43.53443268 130.02857086 43.53443268 130.02857086 42.27978438 130.03681237 C39.54680087 130.05106082 36.81430383 130.0439961 34.08129883 130.03686523 C32.11633415 130.04257024 30.15137278 130.04953501 28.18641663 130.05766296 C22.86023826 130.07559002 17.53422468 130.07442742 12.20802522 130.06872058 C7.76178669 130.06562965 3.31557986 130.07171976 -1.13065416 130.07775933 C-11.61569408 130.09179997 -22.1006525 130.09024562 -32.58569336 130.07885742 C-43.40866653 130.06736212 -54.23139232 130.0814767 -65.05433291 130.1082539 C-74.34619716 130.13038364 -83.63798359 130.13705486 -92.92987233 130.13117748 C-98.47996754 130.12780194 -104.02990395 130.13026331 -109.57997704 130.14742851 C-114.79459874 130.16285331 -120.00885231 130.15899187 -125.22345924 130.14012337 C-127.13911492 130.13642582 -129.05479762 130.13957969 -130.97042847 130.15000916 C-133.58119377 130.16314061 -136.19072595 130.15174231 -138.80143738 130.13401794 C-139.94408256 130.14842545 -139.94408256 130.14842545 -141.10981148 130.16312402 C-144.58275112 130.11445467 -146.48205145 129.89544259 -149.28554249 127.76791477 C-153.97615574 121.27559495 -152.41846863 109.55962903 -151.61083984 101.98388672 C-149.67612923 93.70071833 -143.13209793 88.45723717 -136.79394531 83.25732422 C-134.28407469 81.183221 -132.02877634 78.90837652 -129.765625 76.5703125 C-129.07726562 75.89226562 -128.38890625 75.21421875 -127.6796875 74.515625 C-125.9122703 72.71837798 -124.27197765 70.86596907 -122.640625 68.9453125 C-119.12401195 64.88259012 -115.44136918 60.99085052 -111.703125 57.1328125 C-111.1047583 56.49641846 -110.5063916 55.86002441 -109.88989258 55.2043457 C-109.31005615 54.61355225 -108.73021973 54.02275879 -108.1328125 53.4140625 C-107.3591333 52.6106543 -107.3591333 52.6106543 -106.56982422 51.79101562 C-104.14761765 50.1802856 -102.68313585 50.21543579 -99.828125 50.6328125 C-97.87109375 51.94628906 -97.87109375 51.94628906 -96.015625 53.7734375 C-95.33242188 54.43214844 -94.64921875 55.09085937 -93.9453125 55.76953125 C-92.89730469 56.81560547 -92.89730469 56.81560547 -91.828125 57.8828125 C-90.43377986 59.24371394 -89.03798178 60.60312856 -87.640625 61.9609375 C-87.02832031 62.5684082 -86.41601562 63.17587891 -85.78515625 63.80175781 C-83.56352663 65.88037834 -81.22298381 67.75808063 -78.828125 69.6328125 C-78.17328125 68.97273193 -77.5184375 68.31265137 -76.84375 67.63256836 C-74.37822374 65.14984784 -71.91034666 62.66951058 -69.44091797 60.19067383 C-68.37911639 59.12388953 -67.31821942 58.05620397 -66.25830078 56.98754883 C-56.31987754 46.96935543 -56.31987754 46.96935543 -51.828125 43.13671875 C-46.17632948 38.30890013 -41.04632528 32.91865612 -35.828125 27.6328125 C-23.76858651 15.41694666 -23.76858651 15.41694666 -17.46435547 10.05029297 C-16.05271577 8.82737741 -14.71518433 7.51987183 -13.39453125 6.19921875 C-9.22430402 2.02899152 -6.09605032 -0.65164676 0 0 Z M-8.703125 10.1953125 C-11.120906 12.8799914 -13.58957219 15.32042333 -16.3359375 17.66015625 C-22.13485132 22.67185374 -27.44733902 28.18227559 -32.828125 33.6328125 C-44.77060068 45.73009805 -44.77060068 45.73009805 -51.125 51.15234375 C-53.66160525 53.35732859 -55.97982713 55.72792914 -58.328125 58.1328125 C-62.65630839 62.52014249 -67.13337749 66.64275325 -71.828125 70.6328125 C-73.32988496 71.94329839 -74.82991432 73.25577038 -76.328125 74.5703125 C-77.49479167 75.59114583 -78.66145833 76.61197917 -79.828125 77.6328125 C-80.51648438 76.93414062 -81.20484375 76.23546875 -81.9140625 75.515625 C-85.00945374 72.42023376 -88.22484686 69.46338221 -91.453125 66.5078125 C-92.59168647 65.46413115 -93.72972469 64.41987863 -94.8671875 63.375 C-95.36428223 62.9197998 -95.86137695 62.46459961 -96.37353516 61.99560547 C-97.41548088 61.0194153 -98.42059551 60.00332985 -99.39916992 58.96362305 C-100.7252707 57.43183508 -100.7252707 57.43183508 -102.65234375 57.59765625 C-105.91355475 59.14921983 -108.17299804 61.62514288 -110.640625 64.1953125 C-111.1776001 64.74324463 -111.7145752 65.29117676 -112.26782227 65.85571289 C-115.59191572 69.2722679 -118.75597944 72.79095359 -121.83984375 76.42578125 C-125.17101147 80.12344287 -128.74203606 83.58632701 -132.29858398 87.06616211 C-136.39190219 91.06932293 -136.39190219 91.06932293 -139.828125 95.6328125 C-139.828125 96.2928125 -139.828125 96.9528125 -139.828125 97.6328125 C-140.4675 97.9215625 -141.106875 98.2103125 -141.765625 98.5078125 C-143.98018579 99.46104701 -143.98018579 99.46104701 -144.828125 101.6328125 C-144.91238594 103.3002731 -144.93537643 104.97106437 -144.92578125 106.640625 C-144.92255859 107.62675781 -144.91933594 108.61289062 -144.91601562 109.62890625 C-144.90763672 110.66144531 -144.89925781 111.69398438 -144.890625 112.7578125 C-144.88611328 113.79808594 -144.88160156 114.83835937 -144.87695312 115.91015625 C-144.86514452 118.48443212 -144.84867575 121.05859396 -144.828125 123.6328125 C-118.93357956 123.70282259 -93.03904825 123.75576139 -67.1444273 123.78824902 C-55.12172473 123.80373298 -43.09908089 123.82485168 -31.07641602 123.85913086 C-20.60025981 123.88898643 -10.12414613 123.90837637 0.35205144 123.91507798 C5.90165321 123.91899676 11.45113332 123.92823811 17.00069618 123.95000267 C22.22006452 123.97030715 27.43926063 123.97665856 32.6586647 123.97213554 C34.57796984 123.97296346 36.49728051 123.97896492 38.41655159 123.99042892 C41.03001588 124.00527866 43.64282349 124.00179384 46.25630188 123.99357605 C47.02186207 124.00231457 47.78742225 124.0110531 48.57618123 124.02005643 C52.60476025 123.99894328 52.60476025 123.99894328 56.13900375 122.25742531 C57.59947718 119.96023304 57.61656783 118.17830707 57.70288086 115.46557617 C57.74138657 114.40984909 57.77989227 113.35412201 57.81956482 112.2664032 C57.85280602 110.55092033 57.85280602 110.55092033 57.88671875 108.80078125 C57.91093399 107.61744705 57.93514923 106.43411285 57.96009827 105.21492004 C58.00163726 102.70241483 58.03379658 100.18973992 58.05737305 97.67700195 C58.1086986 93.8704775 58.24022224 90.07200221 58.37304688 86.26757812 C58.92278411 70.57477759 58.92278411 70.57477759 51.5703125 57.33203125 C49.98057553 55.77021765 48.36272754 54.30001434 46.65145874 52.87283325 C44.67569939 51.21697389 42.94637339 49.36226909 41.18359375 47.484375 C40.08096817 46.40327024 38.97318456 45.32739135 37.859375 44.2578125 C34.42684206 40.93291996 31.09322317 37.59449174 27.9765625 33.96875 C23.56004126 28.85978986 18.88252342 24.01338665 14.14672852 19.20263672 C13.11377169 18.14786264 12.08714096 17.08685933 11.06665039 16.02001953 C9.57304484 14.45959291 8.06073324 12.9197063 6.54296875 11.3828125 C5.2115686 10.01382812 5.2115686 10.01382812 3.85327148 8.6171875 C-1.03590833 4.99893624 -4.8282712 5.81323534 -8.703125 10.1953125 Z " fill="#030303" transform="translate(450.828125,354.3671875)"/>
<path d="M0 0 C5.68024196 5.27643329 9.79563111 12.29500681 10.48828125 20.0390625 C10.71965226 29.26954805 8.95246667 36.26338044 3.25 43.625 C-2.90513572 50.06824846 -10.46440239 53.68476659 -19.375 54 C-27.85882424 53.55348293 -34.97704578 50.90764121 -41.21875 45.078125 C-47.05400768 38.58788942 -50.19392355 31.49429774 -49.9296875 22.73046875 C-49.24929126 13.81136153 -46.4788532 6.70592622 -39.75390625 0.546875 C-27.73433041 -8.81430694 -12.23344101 -9.48495867 0 0 Z " fill="#A09F9F" transform="translate(349.75,335.625)"/>
<path d="M0 0 C5.68024196 5.27643329 9.79563111 12.29500681 10.48828125 20.0390625 C10.71965226 29.26954805 8.95246667 36.26338044 3.25 43.625 C-2.90513572 50.06824846 -10.46440239 53.68476659 -19.375 54 C-27.85882424 53.55348293 -34.97704578 50.90764121 -41.21875 45.078125 C-47.05400768 38.58788942 -50.19392355 31.49429774 -49.9296875 22.73046875 C-49.24929126 13.81136153 -46.4788532 6.70592622 -39.75390625 0.546875 C-27.73433041 -8.81430694 -12.23344101 -9.48495867 0 0 Z M-39.56640625 9.56640625 C-43.53855306 15.63605633 -44.86544833 21.24675402 -43.75 28.375 C-41.43628109 35.35728952 -37.80273557 40.25369915 -31.75 44.375 C-30.8425 44.99375 -29.935 45.6125 -29 46.25 C-22.25388379 48.58519407 -15.93383562 48.28141356 -9.4375 45.3125 C-2.50260446 41.4047414 1.9133834 36.03390998 4.25 28.375 C5.10093853 21.0592924 4.13717129 15.4155122 -0.2265625 9.30859375 C-4.72723282 3.72899561 -9.16249615 0.09825511 -16.3515625 -1.03515625 C-25.82651039 -1.55561113 -33.8005128 1.97110752 -39.56640625 9.56640625 Z " fill="#080808" transform="translate(349.75,335.625)"/>
</svg>
