<?xml version="1.0" encoding="UTF-8"?>
<svg version="1.1" xmlns="http://www.w3.org/2000/svg" width="383" height="424">
<path d="M0 0 C5.14502231 2.45781321 8.50241548 5.8906322 11 11 C11.27004865 13.83717271 11.38037599 16.44653457 11.34057617 19.27856445 C11.34123329 20.50860954 11.34123329 20.50860954 11.34190369 21.76350403 C11.33982003 24.46367518 11.31650916 27.16321907 11.29296875 29.86328125 C11.28737129 31.73943238 11.2831019 33.61558791 11.28010559 35.491745 C11.26866866 40.42213108 11.23921133 45.3522507 11.20599365 50.28253174 C11.17526798 55.31657304 11.16159491 60.35065752 11.14648438 65.38476562 C11.11434051 75.25664613 11.06158193 85.12825919 11 95 C16.94 95 22.88 95 29 95 C28.9685791 92.49728516 28.9371582 89.99457031 28.90478516 87.41601562 C28.80519099 79.13009216 28.73902196 70.84414168 28.68912697 62.5577774 C28.65786676 57.53559098 28.61549129 52.51401985 28.54736328 47.4921875 C28.48198085 42.64216601 28.44625403 37.79273484 28.43073654 32.94230652 C28.41968399 31.09554252 28.39810035 29.2488094 28.36561966 27.40229797 C28.07031963 9.9127749 28.07031963 9.9127749 33.46281433 4.26841736 C38.62223547 0.01109213 42.36817018 -0.64733571 48.984375 -0.484375 C54.67557662 0.42975583 58.19188695 3.60242418 61.58003235 8.09513855 C63.4175865 11.8542666 63.39806004 15.1881929 63.34057617 19.27856445 C63.34123329 20.50860954 63.34123329 20.50860954 63.34190369 21.76350403 C63.33982003 24.46367518 63.31650916 27.16321907 63.29296875 29.86328125 C63.28737129 31.73943238 63.2831019 33.61558791 63.28010559 35.491745 C63.26866866 40.42213108 63.23921133 45.3522507 63.20599365 50.28253174 C63.17526798 55.31657304 63.16159491 60.35065752 63.14648438 65.38476562 C63.11434051 75.25664613 63.06158193 85.12825919 63 95 C69.27 95 75.54 95 82 95 C81.9685791 91.23807251 81.9685791 91.23807251 81.93652344 87.40014648 C81.87016356 79.10215514 81.8260287 70.80415189 81.79275131 62.50596523 C81.77190087 57.47608306 81.74362962 52.4464734 81.69824219 47.41674805 C81.65469382 42.56028131 81.63084376 37.70407624 81.62049103 32.84742928 C81.6131158 30.99710027 81.5987136 29.14678515 81.57707977 27.29656792 C81.54792597 24.69927199 81.54404895 22.10304918 81.54589844 19.50561523 C81.53151733 18.74532013 81.51713623 17.98502502 81.50231934 17.20169067 C81.54446634 11.71042242 82.86230606 8.52696395 86 4 C90.96881907 0.04522564 95.03564921 -0.64731807 101.34765625 -0.37890625 C106.69750159 0.38535737 109.74033865 2.4217555 113.15905762 6.70510864 C116.35260661 12.61009436 115.55607976 19.6279155 115.51757812 26.15576172 C115.52300346 27.69882873 115.53012843 29.24189055 115.53881836 30.78494263 C115.55700897 34.96281502 115.55000115 39.140291 115.53730202 43.31817007 C115.52714853 47.69952019 115.53657454 52.08083721 115.54284668 56.46218872 C115.5501178 63.8210456 115.54055109 71.17974176 115.52148438 78.53857422 C115.49973279 87.03139711 115.5067566 95.5238356 115.52879 104.01664913 C115.54697864 111.3213624 115.54948495 118.62596036 115.53903532 125.93068898 C115.5328173 130.28766684 115.53191763 134.64446442 115.54518127 139.00143051 C115.55678915 143.10068752 115.54862471 147.19945229 115.52560425 151.29865646 C115.52034268 152.79777715 115.52178695 154.2969397 115.53065491 155.7960434 C115.5893698 166.73550338 114.28658234 175.19222776 106.71484375 183.49609375 C101.68735567 187.90516644 95.51388194 190.13591839 88.89453125 190.09765625 C87.91162109 190.09443359 86.92871094 190.09121094 85.91601562 190.08789062 C84.89185547 190.07951172 83.86769531 190.07113281 82.8125 190.0625 C81.77673828 190.05798828 80.74097656 190.05347656 79.67382812 190.04882812 C77.11582734 190.0370401 74.55794267 190.02058515 72 190 C72.00368717 191.14282975 72.00737434 192.2856595 72.01117325 193.46312046 C72.09994914 221.26341027 72.16569243 249.0636817 72.20724869 276.86408329 C72.2113281 279.53984146 72.21549338 282.21559949 72.21972656 284.89135742 C72.2207758 285.55642834 72.22182505 286.22149926 72.22290608 286.90672385 C72.24030598 297.67204013 72.27184135 308.43727086 72.30861118 319.20253641 C72.34603224 330.25069715 72.36793894 341.29881069 72.37635398 352.34703153 C72.38157116 358.55183931 72.39384326 364.75645315 72.42292023 370.96119881 C72.45006583 376.80111291 72.45844659 382.64075313 72.45243073 388.48072433 C72.45353133 390.62411296 72.46149009 392.76751073 72.4768219 394.9108448 C72.49673605 397.83832476 72.49193361 400.76477192 72.48101807 403.692276 C72.49849512 404.96321337 72.49849512 404.96321337 72.51632524 406.25982624 C72.45870059 411.98115801 71.29239953 415.29143647 68 420 C62.06657232 425.07637702 55.59781749 424.61633362 48.0390625 424.52148438 C46.00399626 424.50004211 43.97245847 424.52133981 41.9375 424.546875 C29.25570829 424.49655043 29.25570829 424.49655043 24 420 C20.10515538 414.42986091 19.42677109 410.39788253 19.51898193 403.692276 C19.51556423 402.77566285 19.51214653 401.8590497 19.50862527 400.91466039 C19.50205558 397.85432484 19.52400767 394.7948734 19.54589844 391.73461914 C19.54702711 389.53657044 19.54639267 387.33852023 19.54412842 385.14047241 C19.54298113 379.18020086 19.56649329 373.22025153 19.59442425 367.26005483 C19.61943514 361.02872811 19.62177967 354.79739395 19.62652588 348.56602478 C19.63754435 338.10930921 19.66252643 327.65270386 19.69824219 317.19604492 C19.73498378 306.42782174 19.76328499 295.65963067 19.78027344 284.89135742 C19.78132433 284.22709647 19.78237523 283.56283552 19.78345796 282.87844545 C19.78867829 279.5458922 19.79372405 276.21333873 19.79870558 272.88078511 C19.84051193 245.25377451 19.91086589 217.62689557 20 190 C19.38068604 190.02094727 18.76137207 190.04189453 18.12329102 190.06347656 C15.26986458 190.1475182 12.41669964 190.19893445 9.5625 190.25 C8.58861328 190.28351563 7.61472656 190.31703125 6.61132812 190.3515625 C-1.7217112 190.46304129 -7.38321031 188.43437767 -14.25 183.8125 C-20.16114329 177.76701254 -23.11042962 171.11109608 -23.16062927 162.69477844 C-23.16571709 162.05265842 -23.17080491 161.4105384 -23.17604691 160.7489602 C-23.19176517 158.59346583 -23.2002948 156.43800497 -23.20874023 154.2824707 C-23.21827926 152.73837573 -23.22817045 151.19428289 -23.23838806 149.65019226 C-23.26976935 144.57541438 -23.29004031 139.50062013 -23.30859375 134.42578125 C-23.31189107 133.56207405 -23.31518839 132.69836685 -23.31858563 131.8084867 C-23.34936761 123.66106534 -23.37607203 115.51364026 -23.39300442 107.36617756 C-23.41490678 96.9498432 -23.45686997 86.53402457 -23.52644199 76.11789638 C-23.57371431 68.79123512 -23.59794231 61.46471284 -23.6052013 54.13790387 C-23.61015294 49.76338689 -23.62518654 45.38945125 -23.6649456 41.01510048 C-23.7018827 36.89694449 -23.71019899 32.77970013 -23.69693947 28.66140938 C-23.6969933 27.15376381 -23.70724299 25.64607713 -23.7286911 24.13858414 C-23.83149364 16.50196563 -23.87946739 10.35915434 -18.53328037 4.401721 C-12.91099044 -0.73816209 -7.37162707 -1.18404373 0 0 Z " fill="#7F7F7F" transform="translate(268,0)"/>
<path d="M0 0 C18.13304795 13.04605866 29.20284225 31.89119615 35.5625 53 C35.85495605 53.96546753 35.85495605 53.96546753 36.15332031 54.95043945 C39.41656916 66.52288676 40.12867676 78.15337599 40.0625 90.125 C40.05926727 91.18065155 40.05926727 91.18065155 40.05596924 92.25762939 C39.90149273 123.7270832 30.18514344 152.13281707 7.75390625 174.76953125 C4.75 177.375 4.75 177.375 2.52481556 178.20868015 C-0.59121638 179.5419535 -2.14803332 180.68325936 -4.25 183.375 C-6.09267034 190.03682882 -5.40110443 197.3933833 -5.30004883 204.23217773 C-5.30082436 206.39902227 -5.3056141 208.56586854 -5.31411743 210.73269653 C-5.32382019 215.39685428 -5.30515546 220.05973404 -5.26450539 224.72372246 C-5.20043703 232.09840543 -5.19944024 239.47227555 -5.20695496 246.84718323 C-5.21134984 258.51199052 -5.17338129 270.17621521 -5.11738652 281.84087473 C-5.01781545 302.7285203 -4.97599693 323.61624661 -4.97064608 344.50411946 C-4.96690891 351.83498824 -4.94011127 359.16531019 -4.89456809 366.4960345 C-4.86964724 371.05678668 -4.86078641 375.61747433 -4.85580826 380.17828751 C-4.84995646 382.29267167 -4.83717079 384.40704979 -4.81692696 386.52134514 C-4.79010355 389.4090458 -4.78790372 392.29577898 -4.7915802 395.18357849 C-4.77768071 396.01899546 -4.76378121 396.85441242 -4.74946052 397.71514505 C-4.7924941 403.40742794 -5.97877141 406.68871664 -9.25 411.375 C-15.18342768 416.45137702 -21.65218251 415.99133362 -29.2109375 415.89648438 C-31.24600374 415.87504211 -33.27754153 415.89633981 -35.3125 415.921875 C-47.99429171 415.87155043 -47.99429171 415.87155043 -53.25 411.375 C-57.11952054 405.83227348 -57.81701209 401.86621654 -57.69496155 395.19703674 C-57.69457159 393.84283446 -57.69457159 393.84283446 -57.69417375 392.46127456 C-57.68873147 389.44717692 -57.6548855 386.43407172 -57.62133789 383.42016602 C-57.61206053 381.25480864 -57.60470355 379.08944232 -57.59912109 376.92407227 C-57.58398017 372.2662948 -57.557179 367.60878048 -57.52189827 362.95111275 C-57.46811345 355.5846562 -57.4522001 348.21842188 -57.44371033 340.85179138 C-57.414611 319.90604332 -57.34946106 298.96071655 -57.21264648 278.01538086 C-57.13737905 266.44324949 -57.1013405 254.87168024 -57.10867494 243.2992987 C-57.11113987 235.97718008 -57.0653351 228.65745708 -56.9840976 221.33581364 C-56.94518138 216.77910072 -56.95233468 212.22332494 -56.97258759 207.66652679 C-56.97279345 205.55573188 -56.95416865 203.44483722 -56.91519737 201.33440208 C-56.31043021 190.15599534 -56.31043021 190.15599534 -60.68096733 180.38926506 C-63.46079128 178.34783964 -66.13953746 176.84347974 -69.25 175.375 C-83.70823536 163.21781005 -92.65078554 145.66098532 -98.0625 127.8125 C-98.2574707 127.17723389 -98.45244141 126.54196777 -98.65332031 125.88745117 C-101.91914536 114.36346622 -102.61657339 102.54277441 -102.5625 90.625 C-102.55686035 89.31241211 -102.5512207 87.99982422 -102.54541016 86.64746094 C-102.21213491 59.8864489 -94.71076779 32.52053689 -76.25 12.375 C-75.57582031 11.60929687 -74.90164062 10.84359375 -74.20703125 10.0546875 C-54.52044548 -11.10211688 -24.44254606 -15.22958639 0 0 Z " fill="#FEFEFE" transform="translate(102.25,8.625)"/>
<path d="M0 0 C4.55555556 0.55555556 4.55555556 0.55555556 6 2 C6.10038366 4.4515108 6.13617694 6.87486139 6.12939453 9.3269043 C6.13114685 10.09460144 6.13289917 10.86229858 6.13470459 11.65325928 C6.1391306 14.21026832 6.13617878 16.7672089 6.1328125 19.32421875 C6.13348622 21.10529087 6.13445682 22.88636289 6.13571167 24.66743469 C6.13719037 28.41607532 6.13503189 32.1646922 6.13037109 35.91333008 C6.12472721 40.68180879 6.12791737 45.45023055 6.13394356 50.21870708 C6.13759058 53.90711378 6.13639084 57.59550743 6.13381577 61.28391457 C6.13315508 63.03910135 6.1339444 64.79428938 6.13629532 66.54947472 C6.14694393 76.75257207 5.90993819 86.82977067 5 97 C5.57300842 96.67468292 6.14601685 96.34936584 6.73638916 96.01419067 C9.13602352 94.93905587 10.6116804 94.75686222 13.21777344 94.77294922 C14.4485965 94.77317581 14.4485965 94.77317581 15.70428467 94.77340698 C17.01855438 94.78889084 17.01855438 94.78889084 18.359375 94.8046875 C19.26375305 94.8075174 20.1681311 94.81034729 21.09991455 94.81326294 C23.98341195 94.82444218 26.86659675 94.84954267 29.75 94.875 C31.70702676 94.88503272 33.66405839 94.89415806 35.62109375 94.90234375 C40.41418262 94.92437415 45.20703834 94.95888856 50 95 C49.99555878 93.83933014 49.99111755 92.67866028 49.98654175 91.4828186 C49.94606251 80.56407383 49.91604782 69.6453442 49.89637566 58.72654152 C49.88592216 53.1125845 49.87173447 47.49868788 49.84912109 41.88476562 C49.82744846 36.47073139 49.81544319 31.05675538 49.81024551 25.64268112 C49.8065397 23.5733384 49.79930356 21.50399899 49.78853989 19.43468094 C49.77409909 16.54443635 49.77201894 13.6544348 49.77294922 10.76416016 C49.76575867 9.90173203 49.75856812 9.03930389 49.75115967 8.15074158 C49.77189568 2.22810432 49.77189568 2.22810432 52 0 C56.55555556 0.55555556 56.55555556 0.55555556 58 2 C58.09523905 4.89143151 58.12553027 7.75892064 58.11352539 10.65063477 C58.11367142 11.55786285 58.11381744 12.46509094 58.1139679 13.39981079 C58.11326841 16.41369985 58.10547434 19.42752793 58.09765625 22.44140625 C58.0957922 24.52505967 58.09436824 26.60871354 58.09336853 28.69236755 C58.08954234 34.18823446 58.0797112 39.68407513 58.06866455 45.17993164 C58.0584526 50.78336227 58.05387137 56.38679713 58.04882812 61.99023438 C58.03808902 72.99350114 58.02101139 83.99674839 58 95 C59.23153809 94.99476318 60.46307617 94.98952637 61.73193359 94.98413086 C66.29035722 94.96606447 70.84877767 94.95456196 75.40722656 94.94506836 C77.38216687 94.9400319 79.35710343 94.93320249 81.33203125 94.92456055 C84.16667605 94.91246492 87.00127166 94.9067649 89.8359375 94.90234375 C90.72243988 94.89718246 91.60894226 94.89202118 92.52230835 94.88670349 C98.77225659 94.88612829 98.77225659 94.88612829 101 96 C101.02061493 94.82680206 101.04122986 93.65360413 101.06246948 92.44485474 C101.25767436 81.40816304 101.46311675 70.37170352 101.67867851 59.33539009 C101.789179 53.66101087 101.89602525 47.98661112 101.99462891 42.31201172 C102.08985472 36.83944172 102.19453734 31.36712809 102.3058815 25.89486313 C102.34675667 23.80326567 102.38417818 21.71159787 102.41814804 19.61987686 C102.46617505 16.69831062 102.52629022 13.77723179 102.58935547 10.85595703 C102.60086639 9.98417816 102.61237732 9.11239929 102.62423706 8.21420288 C102.77189568 2.22810432 102.77189568 2.22810432 105 0 C108.53571429 0.53571429 108.53571429 0.53571429 110 2 C110.10539265 3.93298216 110.13967426 5.86985589 110.14717102 7.80569458 C110.15432632 9.06749039 110.16148163 10.32928619 110.16885376 11.62931824 C110.17169437 13.04080176 110.17440606 14.45228554 110.17700195 15.86376953 C110.18326385 17.34022686 110.1899104 18.8166826 110.19691467 20.2931366 C110.21435483 24.31614085 110.22488552 28.3391332 110.2331202 32.36216593 C110.23826602 34.87537627 110.24434207 37.3885829 110.25063133 39.90179062 C110.2696954 47.7640058 110.28392158 55.62621154 110.2922433 63.4884454 C110.30200861 72.56519694 110.32830442 81.64170414 110.36874419 90.7183696 C110.39891802 97.73160672 110.41371354 104.74477388 110.41702431 111.75807464 C110.4193742 115.94745002 110.42832575 120.13656475 110.45348549 124.32587051 C110.47679225 128.27068112 110.48098917 132.21506 110.47072411 136.15992165 C110.47022919 137.60507329 110.47653661 139.05024634 110.49028015 140.49533272 C110.61656228 154.56510577 110.61656228 154.56510577 106 160 C100.87218756 163.48202812 97.64611107 164.49230701 91.31640625 164.390625 C90.61603745 164.38496521 89.91566864 164.37930542 89.19407654 164.37347412 C86.98282055 164.3512922 84.77325627 164.30113806 82.5625 164.25 C81.05275797 164.22991115 79.54299025 164.21166458 78.03320312 164.1953125 C74.35493001 164.15148947 70.67763044 164.08259341 67 164 C67.00184359 165.19382231 67.00368717 166.38764462 67.00558662 167.61764336 C67.04886788 195.93313928 67.08186376 224.24863435 67.10213066 252.56415605 C67.10463218 256.04651425 67.10722082 259.52887237 67.10986328 263.01123047 C67.1103879 263.70452847 67.11091252 264.39782648 67.11145304 265.11213352 C67.1201644 276.3496162 67.13593837 287.58707849 67.15430559 298.82454906 C67.17298436 310.34842502 67.18396265 321.87228661 67.18817699 333.39617741 C67.19079105 339.8718339 67.19696175 346.34744409 67.21146011 352.82308578 C67.22498202 358.91162444 67.22923362 365.0000975 67.22621536 371.08864975 C67.22676795 373.32926794 67.23077734 375.56988821 67.23841095 377.81049347 C67.2482879 380.85770225 67.24599557 383.9046598 67.24050903 386.95187378 C67.24633472 387.8487481 67.2521604 388.74562242 67.25816262 389.66967475 C67.22824242 395.77175758 67.22824242 395.77175758 65 398 C62.78515625 398.25878906 62.78515625 398.25878906 60.0625 398.265625 C59.08539063 398.26820313 58.10828125 398.27078125 57.1015625 398.2734375 C56.07804687 398.26570313 55.05453125 398.25796875 54 398.25 C52.46472656 398.26160156 52.46472656 398.26160156 50.8984375 398.2734375 C49.92132813 398.27085937 48.94421875 398.26828125 47.9375 398.265625 C47.03902344 398.26336914 46.14054687 398.26111328 45.21484375 398.25878906 C43 398 43 398 41 396 C40.80626115 392.95387265 40.7396987 389.998928 40.75949097 386.95187378 C40.75778212 386.00278078 40.75607327 385.05368778 40.75431263 384.07583439 C40.75100211 380.87583902 40.76204709 377.67605047 40.77294922 374.47607422 C40.773513 372.19009404 40.77319743 369.90411351 40.77206421 367.61813354 C40.77148838 361.39527848 40.78327976 355.17249991 40.79721212 348.94966269 C40.80968132 342.45270261 40.81088697 335.95574095 40.81326294 329.45877075 C40.81878076 318.54850901 40.8312887 307.63827564 40.84912109 296.72802734 C40.86747163 285.48909649 40.88163217 274.25017328 40.89013672 263.01123047 C40.89092489 261.97254418 40.89092489 261.97254418 40.89172898 260.91287433 C40.89433901 257.43911111 40.89686643 253.96534784 40.89935279 250.49158454 C40.92009524 221.66103771 40.95547785 192.83051953 41 164 C40.06728271 164.02094727 39.13456543 164.04189453 38.17358398 164.06347656 C34.68650274 164.13197396 31.20014459 164.18195446 27.71264648 164.21972656 C26.20829938 164.23974363 24.70402911 164.26696627 23.19995117 164.30175781 C21.02763838 164.35071945 18.85636094 164.37306653 16.68359375 164.390625 C15.37962646 164.41157227 14.07565918 164.43251953 12.73217773 164.45410156 C7.0231489 163.75947256 3.36508067 161.60827953 -0.40713501 157.16401672 C-3.26766612 151.38906572 -2.53856514 144.65926343 -2.48583984 138.37573242 C-2.48798784 136.89027574 -2.49186869 135.4048207 -2.49734497 133.91937256 C-2.50700657 129.90101892 -2.49177834 125.88311221 -2.47143888 121.86481261 C-2.45383252 117.65770867 -2.45739356 113.45061777 -2.4581604 109.2434845 C-2.45629001 102.18478947 -2.43895596 95.12626689 -2.41162109 88.06762695 C-2.38011216 79.90080541 -2.36962712 71.73417223 -2.3710922 63.5672943 C-2.37231139 55.71039219 -2.36211697 47.85355152 -2.34550858 39.99666786 C-2.33843867 36.65180291 -2.3347815 33.30695969 -2.33372116 29.96208763 C-2.33171695 26.02958115 -2.31954581 22.0972337 -2.29938889 18.16477966 C-2.29353265 16.71915981 -2.29108941 15.27352165 -2.29224396 13.8278904 C-2.29322088 11.86055948 -2.28071028 9.8932354 -2.26742554 7.9259491 C-2.26407385 6.82335849 -2.26072216 5.72076788 -2.25726891 4.58476543 C-2 2 -2 2 0 0 Z " fill="#FEFEFE" transform="translate(260,13)"/>
<path d="M0 0 C18.13304795 13.04605866 29.20284225 31.89119615 35.5625 53 C35.85495605 53.96546753 35.85495605 53.96546753 36.15332031 54.95043945 C39.41656916 66.52288676 40.12867676 78.15337599 40.0625 90.125 C40.05926727 91.18065155 40.05926727 91.18065155 40.05596924 92.25762939 C39.90149273 123.7270832 30.18514344 152.13281707 7.75390625 174.76953125 C4.75 177.375 4.75 177.375 2.52481556 178.20868015 C-0.59121638 179.5419535 -2.14803332 180.68325936 -4.25 183.375 C-6.09267034 190.03682882 -5.40110443 197.3933833 -5.30004883 204.23217773 C-5.30082436 206.39902227 -5.3056141 208.56586854 -5.31411743 210.73269653 C-5.32382019 215.39685428 -5.30515546 220.05973404 -5.26450539 224.72372246 C-5.20043703 232.09840543 -5.19944024 239.47227555 -5.20695496 246.84718323 C-5.21134984 258.51199052 -5.17338129 270.17621521 -5.11738652 281.84087473 C-5.01781545 302.7285203 -4.97599693 323.61624661 -4.97064608 344.50411946 C-4.96690891 351.83498824 -4.94011127 359.16531019 -4.89456809 366.4960345 C-4.86964724 371.05678668 -4.86078641 375.61747433 -4.85580826 380.17828751 C-4.84995646 382.29267167 -4.83717079 384.40704979 -4.81692696 386.52134514 C-4.79010355 389.4090458 -4.78790372 392.29577898 -4.7915802 395.18357849 C-4.77768071 396.01899546 -4.76378121 396.85441242 -4.74946052 397.71514505 C-4.7924941 403.40742794 -5.97877141 406.68871664 -9.25 411.375 C-15.18342768 416.45137702 -21.65218251 415.99133362 -29.2109375 415.89648438 C-31.24600374 415.87504211 -33.27754153 415.89633981 -35.3125 415.921875 C-47.99429171 415.87155043 -47.99429171 415.87155043 -53.25 411.375 C-57.11952054 405.83227348 -57.81701209 401.86621654 -57.69496155 395.19703674 C-57.69457159 393.84283446 -57.69457159 393.84283446 -57.69417375 392.46127456 C-57.68873147 389.44717692 -57.6548855 386.43407172 -57.62133789 383.42016602 C-57.61206053 381.25480864 -57.60470355 379.08944232 -57.59912109 376.92407227 C-57.58398017 372.2662948 -57.557179 367.60878048 -57.52189827 362.95111275 C-57.46811345 355.5846562 -57.4522001 348.21842188 -57.44371033 340.85179138 C-57.414611 319.90604332 -57.34946106 298.96071655 -57.21264648 278.01538086 C-57.13737905 266.44324949 -57.1013405 254.87168024 -57.10867494 243.2992987 C-57.11113987 235.97718008 -57.0653351 228.65745708 -56.9840976 221.33581364 C-56.94518138 216.77910072 -56.95233468 212.22332494 -56.97258759 207.66652679 C-56.97279345 205.55573188 -56.95416865 203.44483722 -56.91519737 201.33440208 C-56.31043021 190.15599534 -56.31043021 190.15599534 -60.68096733 180.38926506 C-63.46079128 178.34783964 -66.13953746 176.84347974 -69.25 175.375 C-83.70823536 163.21781005 -92.65078554 145.66098532 -98.0625 127.8125 C-98.2574707 127.17723389 -98.45244141 126.54196777 -98.65332031 125.88745117 C-101.91914536 114.36346622 -102.61657339 102.54277441 -102.5625 90.625 C-102.55686035 89.31241211 -102.5512207 87.99982422 -102.54541016 86.64746094 C-102.21213491 59.8864489 -94.71076779 32.52053689 -76.25 12.375 C-75.57582031 11.60929687 -74.90164062 10.84359375 -74.20703125 10.0546875 C-54.52044548 -11.10211688 -24.44254606 -15.22958639 0 0 Z M-66.28515625 20.97265625 C-85.33374041 44.26267466 -91.72967005 73.74298813 -88.97753906 103.30126953 C-86.3375777 126.39158317 -78.39534587 148.03551318 -61.25 164.375 C-58.02784944 166.90034296 -54.70377489 169.18054375 -51.25 171.375 C-50.26 172.035 -49.27 172.695 -48.25 173.375 C-47.26 173.375 -46.27 173.375 -45.25 173.375 C-45.25116601 175.02668088 -45.25116601 175.02668088 -45.25235558 176.71172905 C-45.27697042 215.29708477 -45.1460637 253.8809973 -44.96247292 292.465868 C-44.90676986 304.20673134 -44.85777232 315.94758567 -44.81685698 327.68851006 C-44.78718967 336.0401393 -44.75001014 344.39171482 -44.70720994 352.74328697 C-44.68201751 357.70137458 -44.66020708 362.65942328 -44.64665604 367.61755753 C-44.63389621 372.23918634 -44.61190962 376.86067652 -44.58261681 381.48222923 C-44.57351519 383.17782159 -44.56784482 384.87343621 -44.56578636 386.56905174 C-44.56248442 388.87392203 -44.54706778 391.17839482 -44.5284729 393.48318481 C-44.52294214 394.77369814 -44.51741138 396.06421146 -44.51171303 397.39383125 C-44.5614599 400.49191308 -44.5614599 400.49191308 -42.25 402.375 C-39.95609569 402.68551841 -39.95609569 402.68551841 -37.3125 402.640625 C-36.33539063 402.64320313 -35.35828125 402.64578125 -34.3515625 402.6484375 C-32.81628906 402.63683594 -32.81628906 402.63683594 -31.25 402.625 C-30.22648437 402.63273437 -29.20296875 402.64046875 -28.1484375 402.6484375 C-26.68277344 402.64457031 -26.68277344 402.64457031 -25.1875 402.640625 C-23.83978516 402.63724121 -23.83978516 402.63724121 -22.46484375 402.63378906 C-20.04457835 402.58308942 -20.04457835 402.58308942 -18.25 400.375 C-18.05635108 397.40402106 -17.989671 394.5265508 -18.00949097 391.55465698 C-18.00692769 390.16776946 -18.00692769 390.16776946 -18.00431263 388.752864 C-18.00100237 385.63578382 -18.01204665 382.51891602 -18.02294922 379.40185547 C-18.023513 377.17498784 -18.02319742 374.94811985 -18.02206421 372.72125244 C-18.02148841 366.65954843 -18.03327943 360.59792294 -18.04721212 354.53623724 C-18.05968169 348.20744057 -18.06088699 341.87864227 -18.06326294 335.54983521 C-18.06878067 324.92204259 -18.08128845 314.29428112 -18.09912109 303.66650391 C-18.11747184 292.71858871 -18.13163228 281.77068137 -18.14013672 270.82275391 C-18.14066217 270.14821835 -18.14118761 269.4736828 -18.14172898 268.77870677 C-18.14433901 265.39484799 -18.14686644 262.01098915 -18.14935279 258.62713027 C-18.170095 230.54306672 -18.2054774 202.45903515 -18.25 174.375 C-17.44393311 173.98973145 -16.63786621 173.60446289 -15.80737305 173.20751953 C-14.74043213 172.68786621 -13.67349121 172.16821289 -12.57421875 171.6328125 C-11.52065186 171.12379395 -10.46708496 170.61477539 -9.3815918 170.09033203 C5.20523735 162.10038414 13.63819782 147.24758389 19.75 132.375 C20.15089844 131.40046875 20.55179687 130.4259375 20.96484375 129.421875 C30.87161341 102.6549049 29.58805528 69.3546484 17.87011719 43.42822266 C9.41006591 25.69549835 -2.10348936 13.17144604 -20.25 5.375 C-36.94420015 -0.21138604 -54.97364328 8.92092157 -66.28515625 20.97265625 Z " fill="#7F7F7F" transform="translate(102.25,8.625)"/>
</svg>
