<?xml version="1.0" encoding="UTF-8"?>
<svg version="1.1" xmlns="http://www.w3.org/2000/svg" width="545" height="328">
<path d="M0 0 C1.38912296 -0.00115337 2.77824562 -0.00274234 4.16736764 -0.00472724 C7.9703948 -0.00889106 11.77339677 -0.00684319 15.576424 -0.00374103 C19.68355501 -0.00147507 23.79068174 -0.00497254 27.89781189 -0.00772095 C35.93894476 -0.01216517 43.98006829 -0.01120805 52.02120153 -0.00830831 C58.55886564 -0.00604852 65.09652713 -0.00574425 71.63419151 -0.00683212 C72.56522838 -0.00698536 73.49626525 -0.00713859 74.45551535 -0.00729647 C76.34702904 -0.0076162 78.23854272 -0.00794041 80.1300564 -0.00826906 C97.86369342 -0.01112002 115.59732526 -0.00784307 133.33096143 -0.00246869 C148.53592573 0.00199679 163.74088239 0.00122478 178.94584656 -0.00338745 C196.6120471 -0.00874378 214.27824311 -0.01084304 231.94444436 -0.00777519 C233.82985731 -0.00745665 235.71527026 -0.00714228 237.60068321 -0.00683212 C238.52828064 -0.00667785 239.45587806 -0.00652357 240.4115845 -0.00636462 C246.93726627 -0.00550248 253.46294516 -0.00695587 259.98862648 -0.00931168 C267.94741167 -0.01212171 275.90618701 -0.01134611 283.86497108 -0.00603093 C287.92300389 -0.00340983 291.98102029 -0.00236179 296.03905296 -0.00568008 C299.75928769 -0.00867604 303.4794909 -0.00699564 307.19972279 -0.00170253 C309.17155647 -0.00006942 311.14339237 -0.00330649 313.11522371 -0.00675976 C325.4031315 0.02014804 335.1795881 0.7188212 346.31816101 6.12698364 C347.93271179 6.90428833 347.93271179 6.90428833 349.57987976 7.69729614 C366.40167949 16.25750192 379.82963903 29.54634633 386.56634521 47.44287109 C390.28510107 59.15628335 392.74660077 71.02507154 395.12675476 83.07229614 C395.57439706 85.30426889 396.02281077 87.53608704 396.47193909 89.76776123 C397.66425555 95.7033152 398.84611139 101.64090339 400.0254097 107.57905579 C401.2489571 113.73310336 402.48058133 119.88553412 403.71147156 126.03811646 C405.18957524 133.42899042 406.66664082 140.82006566 408.13909912 148.21206665 C410.83370518 161.73574532 413.55466679 175.25346114 416.32370567 188.76209641 C417.31274811 193.59174153 418.29571442 198.42262732 419.27875996 203.25349617 C420.0186717 206.88670461 420.76243204 210.51902855 421.51564026 214.14950562 C427.29331635 242.0239197 431.23155359 268.68861448 415.39237976 294.21682739 C402.75467148 311.94769872 385.10102967 324.09344335 363.52372742 327.82962036 C342.21181564 330.70297752 321.56780787 325.55682185 304.31816101 312.62698364 C296.12410273 305.76465567 289.2844755 298.595903 284.69316101 288.87698364 C275.43712829 269.92488448 263.90373471 252.27071838 250.31816101 236.12698364 C249.84845886 235.56849731 249.37875671 235.01001099 248.89482117 234.43460083 C247.31164455 232.55702981 245.72269857 230.68454603 244.13066101 228.81448364 C243.38139343 227.93336914 243.38139343 227.93336914 242.61698914 227.03445435 C242.13294617 226.4707312 241.6489032 225.90700806 241.15019226 225.32620239 C240.72455994 224.8295105 240.29892761 224.3328186 239.86039734 223.82107544 C239.35145935 223.26202515 238.84252136 222.70297485 238.31816101 222.12698364 C237.59303755 221.28152607 236.86791409 220.4360685 236.12081718 219.564991 C232.76319618 216.64422434 231.31892615 216.48306808 226.9334259 216.42477417 C225.6440361 216.39622345 224.3546463 216.36767273 223.02618408 216.33825684 C221.60414366 216.33203058 220.1821005 216.32640498 218.76005554 216.32131958 C217.25655087 216.29816148 215.75307541 216.27303582 214.24963379 216.24609375 C210.1684852 216.18059078 206.08774745 216.14826942 202.00615549 216.12604046 C199.45059532 216.11135647 196.8951458 216.09082623 194.33964157 216.06851959 C186.32792393 216.0001511 178.31646116 215.95182572 170.30447209 215.93251014 C161.08596984 215.91015902 151.8711945 215.8226873 142.65382493 215.67750716 C135.51122304 215.5689551 128.36966173 215.51896411 121.22624481 215.51230454 C116.96825486 215.50709231 112.71376735 215.47821165 108.45665359 215.38820648 C88.3403273 214.20893206 88.3403273 214.20893206 70.85359001 222.26639175 C68.53438784 224.77089399 66.5075299 227.33937436 64.62145615 230.18317413 C62.87947833 232.78126029 60.89421054 235.136434 58.88525581 237.53014755 C57.05203354 239.75273281 55.33956247 242.05802931 53.62431335 244.37210083 C52.30761875 246.14114771 50.96567666 247.88854507 49.61894226 249.63479614 C40.84318269 261.14347494 33.15677667 273.46644114 26.61894226 286.38088989 C26.18783142 287.23005981 25.75672058 288.07922974 25.31254578 288.95413208 C24.51276236 290.55150213 23.72922221 292.15716572 22.96635437 293.77249146 C20.07595579 299.59301478 16.3433287 303.08803307 11.31816101 307.12698364 C9.96340869 308.43887912 8.60912048 309.75125439 7.25566101 311.06448364 C-8.43397263 324.97181811 -28.74071692 329.04905462 -49.12812805 328.2973938 C-65.68987918 327.1922215 -81.5548031 319.19064139 -93.68183899 308.12698364 C-94.59449524 307.35161255 -94.59449524 307.35161255 -95.52558899 306.56057739 C-109.82822105 293.59069059 -116.57213452 273.89933927 -117.62665749 255.08943653 C-117.80236223 242.47249564 -114.78671613 229.77088509 -112.30537415 217.4524231 C-111.96627553 215.74713328 -111.62766198 214.04174696 -111.28948975 212.33627319 C-110.37946207 207.75482936 -109.46225107 203.17485287 -108.54325914 198.59519982 C-107.77313295 194.75379023 -107.0066687 190.91165367 -106.24018991 187.06951493 C-104.43097702 178.00063869 -102.61596323 168.93293729 -100.79707336 159.86599731 C-98.92749534 150.54593578 -97.06701318 141.22409199 -95.2111088 131.90129882 C-93.61001076 123.85993434 -92.00363546 115.81963664 -90.39300573 107.78017586 C-89.43428759 102.9945908 -88.47741667 98.20865696 -87.52548599 93.42171669 C-86.63031308 88.92155802 -85.72848815 84.42278084 -84.82173347 79.92494202 C-84.49211403 78.28443565 -84.16473157 76.64347779 -83.8398838 75.00201988 C-79.08739508 51.00883229 -71.5647832 29.33325894 -51.05293274 14.18557739 C-34.73781435 3.44034295 -19.26189027 -0.03355706 0 0 Z " fill="#656563" transform="translate(117.68183898925781,-0.126983642578125)"/>
<path d="M0 0 C1.38912296 -0.00115337 2.77824562 -0.00274234 4.16736764 -0.00472724 C7.9703948 -0.00889106 11.77339677 -0.00684319 15.576424 -0.00374103 C19.68355501 -0.00147507 23.79068174 -0.00497254 27.89781189 -0.00772095 C35.93894476 -0.01216517 43.98006829 -0.01120805 52.02120153 -0.00830831 C58.55886564 -0.00604852 65.09652713 -0.00574425 71.63419151 -0.00683212 C72.56522838 -0.00698536 73.49626525 -0.00713859 74.45551535 -0.00729647 C76.34702904 -0.0076162 78.23854272 -0.00794041 80.1300564 -0.00826906 C97.86369342 -0.01112002 115.59732526 -0.00784307 133.33096143 -0.00246869 C148.53592573 0.00199679 163.74088239 0.00122478 178.94584656 -0.00338745 C196.6120471 -0.00874378 214.27824311 -0.01084304 231.94444436 -0.00777519 C233.82985731 -0.00745665 235.71527026 -0.00714228 237.60068321 -0.00683212 C238.52828064 -0.00667785 239.45587806 -0.00652357 240.4115845 -0.00636462 C246.93726627 -0.00550248 253.46294516 -0.00695587 259.98862648 -0.00931168 C267.94741167 -0.01212171 275.90618701 -0.01134611 283.86497108 -0.00603093 C287.92300389 -0.00340983 291.98102029 -0.00236179 296.03905296 -0.00568008 C299.75928769 -0.00867604 303.4794909 -0.00699564 307.19972279 -0.00170253 C309.17155647 -0.00006942 311.14339237 -0.00330649 313.11522371 -0.00675976 C325.4031315 0.02014804 335.1795881 0.7188212 346.31816101 6.12698364 C347.93271179 6.90428833 347.93271179 6.90428833 349.57987976 7.69729614 C366.40167949 16.25750192 379.82963903 29.54634633 386.56634521 47.44287109 C390.28510107 59.15628335 392.74660077 71.02507154 395.12675476 83.07229614 C395.57439706 85.30426889 396.02281077 87.53608704 396.47193909 89.76776123 C397.66425555 95.7033152 398.84611139 101.64090339 400.0254097 107.57905579 C401.2489571 113.73310336 402.48058133 119.88553412 403.71147156 126.03811646 C405.18957524 133.42899042 406.66664082 140.82006566 408.13909912 148.21206665 C410.83370518 161.73574532 413.55466679 175.25346114 416.32370567 188.76209641 C417.31274811 193.59174153 418.29571442 198.42262732 419.27875996 203.25349617 C420.0186717 206.88670461 420.76243204 210.51902855 421.51564026 214.14950562 C427.29331635 242.0239197 431.23155359 268.68861448 415.39237976 294.21682739 C402.75467148 311.94769872 385.10102967 324.09344335 363.52372742 327.82962036 C342.21181564 330.70297752 321.56780787 325.55682185 304.31816101 312.62698364 C296.12410273 305.76465567 289.2844755 298.595903 284.69316101 288.87698364 C275.43712829 269.92488448 263.90373471 252.27071838 250.31816101 236.12698364 C249.84845886 235.56849731 249.37875671 235.01001099 248.89482117 234.43460083 C247.31164455 232.55702981 245.72269857 230.68454603 244.13066101 228.81448364 C243.38139343 227.93336914 243.38139343 227.93336914 242.61698914 227.03445435 C242.13294617 226.4707312 241.6489032 225.90700806 241.15019226 225.32620239 C240.72455994 224.8295105 240.29892761 224.3328186 239.86039734 223.82107544 C239.35145935 223.26202515 238.84252136 222.70297485 238.31816101 222.12698364 C237.59303755 221.28152607 236.86791409 220.4360685 236.12081718 219.564991 C232.76319618 216.64422434 231.31892615 216.48306808 226.9334259 216.42477417 C225.6440361 216.39622345 224.3546463 216.36767273 223.02618408 216.33825684 C221.60414366 216.33203058 220.1821005 216.32640498 218.76005554 216.32131958 C217.25655087 216.29816148 215.75307541 216.27303582 214.24963379 216.24609375 C210.1684852 216.18059078 206.08774745 216.14826942 202.00615549 216.12604046 C199.45059532 216.11135647 196.8951458 216.09082623 194.33964157 216.06851959 C186.32792393 216.0001511 178.31646116 215.95182572 170.30447209 215.93251014 C161.08596984 215.91015902 151.8711945 215.8226873 142.65382493 215.67750716 C135.51122304 215.5689551 128.36966173 215.51896411 121.22624481 215.51230454 C116.96825486 215.50709231 112.71376735 215.47821165 108.45665359 215.38820648 C88.3403273 214.20893206 88.3403273 214.20893206 70.85359001 222.26639175 C68.53438784 224.77089399 66.5075299 227.33937436 64.62145615 230.18317413 C62.87947833 232.78126029 60.89421054 235.136434 58.88525581 237.53014755 C57.05203354 239.75273281 55.33956247 242.05802931 53.62431335 244.37210083 C52.30761875 246.14114771 50.96567666 247.88854507 49.61894226 249.63479614 C40.84318269 261.14347494 33.15677667 273.46644114 26.61894226 286.38088989 C26.18783142 287.23005981 25.75672058 288.07922974 25.31254578 288.95413208 C24.51276236 290.55150213 23.72922221 292.15716572 22.96635437 293.77249146 C20.07595579 299.59301478 16.3433287 303.08803307 11.31816101 307.12698364 C9.96340869 308.43887912 8.60912048 309.75125439 7.25566101 311.06448364 C-8.43397263 324.97181811 -28.74071692 329.04905462 -49.12812805 328.2973938 C-65.68987918 327.1922215 -81.5548031 319.19064139 -93.68183899 308.12698364 C-94.59449524 307.35161255 -94.59449524 307.35161255 -95.52558899 306.56057739 C-109.82822105 293.59069059 -116.57213452 273.89933927 -117.62665749 255.08943653 C-117.80236223 242.47249564 -114.78671613 229.77088509 -112.30537415 217.4524231 C-111.96627553 215.74713328 -111.62766198 214.04174696 -111.28948975 212.33627319 C-110.37946207 207.75482936 -109.46225107 203.17485287 -108.54325914 198.59519982 C-107.77313295 194.75379023 -107.0066687 190.91165367 -106.24018991 187.06951493 C-104.43097702 178.00063869 -102.61596323 168.93293729 -100.79707336 159.86599731 C-98.92749534 150.54593578 -97.06701318 141.22409199 -95.2111088 131.90129882 C-93.61001076 123.85993434 -92.00363546 115.81963664 -90.39300573 107.78017586 C-89.43428759 102.9945908 -88.47741667 98.20865696 -87.52548599 93.42171669 C-86.63031308 88.92155802 -85.72848815 84.42278084 -84.82173347 79.92494202 C-84.49211403 78.28443565 -84.16473157 76.64347779 -83.8398838 75.00201988 C-79.08739508 51.00883229 -71.5647832 29.33325894 -51.05293274 14.18557739 C-34.73781435 3.44034295 -19.26189027 -0.03355706 0 0 Z M-54.30683899 34.62698364 C-57.43930854 38.39782377 -59.69725165 42.5369048 -61.93183899 46.87698364 C-62.26135559 47.50797974 -62.59087219 48.13897583 -62.93037415 48.78909302 C-68.4128739 59.97283164 -69.93651873 73.00740159 -72.33436012 85.13352966 C-72.93424577 88.16716682 -73.53775671 91.2000645 -74.14208984 94.2328186 C-75.21242063 99.60715382 -76.27962277 104.98210461 -77.34577942 110.35726929 C-79.24191668 119.91664905 -81.14096201 129.47544821 -83.04512024 139.03323364 C-83.24949203 140.05906744 -83.45386383 141.08490124 -83.66442871 142.14182091 C-86.86087781 158.16965361 -90.19059292 174.16056672 -93.68183899 190.12698364 C-95.28705557 197.48794649 -96.87079191 204.8525911 -98.40693665 212.228302 C-98.84174838 214.29308604 -99.28583278 216.35593822 -99.7389679 218.41677856 C-103.7413197 236.67123257 -108.55836858 259.62125811 -99.68183899 277.12698364 C-99.2345343 278.06155396 -98.78722961 278.99612427 -98.32637024 279.95901489 C-89.53450091 297.18919311 -75.68387821 308.10808335 -57.36933899 314.06448364 C-38.49699776 318.57380411 -20.69827577 313.71303731 -4.59980774 303.85159302 C8.0760003 295.69944905 13.72676101 285.2182872 20.01591492 271.82376099 C27.29745946 256.74465694 37.64490348 242.93871138 48.31816101 230.12698364 C48.75885925 229.59605103 49.1995575 229.06511841 49.65361023 228.51809692 C51.13851806 226.73550355 52.633023 224.96139137 54.13066101 223.18948364 C54.57973816 222.65258911 55.02881531 222.11569458 55.49150085 221.56253052 C56.44296812 220.44781323 57.41465354 219.35008674 58.40418434 218.26901627 C59.81392687 216.69129877 61.16529024 215.06094396 62.48160362 213.40447617 C67.51673125 207.58364921 70.92851538 204.4749171 78.90449524 203.68978882 C81.84601562 203.56749331 84.77565885 203.58114947 87.71903992 203.60842896 C89.34830435 203.58365106 90.9775048 203.55431648 92.60661316 203.52081299 C97.00434255 203.44545935 101.39948404 203.43974884 105.79774523 203.4518137 C109.48513506 203.45623665 113.17200684 203.42802909 116.85927522 203.4006145 C125.57040519 203.33714107 134.28023521 203.33228759 142.99150085 203.36331177 C151.93823199 203.39406738 160.87998611 203.32212755 169.82582152 203.19971776 C177.54035533 203.098076 185.2533124 203.06325828 192.96849382 203.08010554 C197.56176719 203.08936467 202.15140296 203.07412364 206.74405289 202.9933548 C238.24732865 202.48490035 238.24732865 202.48490035 247.6832943 211.00397873 C250.33190346 213.8520578 252.67687372 216.77553481 254.86237717 219.99164581 C256.70695229 222.69726111 258.77576304 225.16712883 260.88404274 227.66882706 C262.68624002 229.8482791 264.36020112 232.11356345 266.03544617 234.3911438 C267.3631801 236.18790593 268.71904706 237.96065869 270.07987976 239.73245239 C278.3077202 250.54897193 285.20721661 261.9614029 291.36503601 274.07229614 C291.88718689 275.09581177 292.40933777 276.11932739 292.9473114 277.17385864 C293.96029271 279.17474668 294.96025376 281.18229864 295.94487 283.19729614 C303.76234264 298.72173759 318.51972592 308.02649067 334.50566101 313.93557739 C350.4399566 318.4482197 368.24220456 315.06628048 382.44316101 307.39260864 C399.38906792 297.75897663 408.33363143 282.80075196 413.61894226 264.52151489 C415.91886961 253.0608525 414.00786654 241.45975545 411.59159851 230.21292114 C411.29190628 228.76159763 410.99362641 227.3099819 410.6966095 225.85810852 C409.88323525 221.90016395 409.05216222 217.94613272 408.21748352 213.99263382 C406.75637045 207.05201718 405.3264686 200.10482861 403.88916779 193.15925026 C403.30175644 190.32379058 402.71223678 187.48877407 402.12266541 184.65376282 C399.10416494 170.10649264 396.21716084 155.53534745 393.36709976 140.95423126 C391.91479831 133.5359632 390.44962556 126.1202235 388.98513603 118.70435333 C387.78294675 112.61056527 386.58902113 106.51538339 385.41307068 100.41647339 C384.2940063 94.61450658 383.15260077 88.8173473 381.99549484 83.02285194 C381.57238931 80.8833932 381.15727588 78.74233471 380.75108719 76.59959984 C377.61302406 60.07874158 373.08843541 44.73436807 361.31816101 32.12698364 C360.69941101 31.45538208 360.08066101 30.78378052 359.44316101 30.09182739 C348.56308478 19.39720701 332.76705908 13.08721139 317.63066101 12.87698364 C314.15442465 12.93108849 310.82927862 13.18960233 307.3773613 13.63174248 C301.60733549 14.27871566 295.87066528 14.26553877 290.07017517 14.25396729 C288.86136523 14.25552728 287.65255529 14.25708727 286.40711474 14.25869453 C283.07361761 14.26197933 279.74017729 14.26081567 276.40668368 14.25770831 C272.80343864 14.2554379 269.20019842 14.25894192 265.59695435 14.26168823 C258.54791588 14.26612682 251.49888809 14.26517812 244.44984922 14.26227559 C238.72165406 14.26001477 232.99346189 14.25971198 227.26526642 14.26079941 C226.04116361 14.26102926 226.04116361 14.26102926 224.79233144 14.26126375 C223.1344189 14.26158348 221.47650637 14.26190769 219.81859383 14.26223634 C204.28647202 14.26508535 188.75435613 14.26181282 173.22223529 14.25643598 C159.8943443 14.2519651 146.56646201 14.25274733 133.23857117 14.25735474 C117.75481007 14.26270493 102.27105414 14.26481425 86.78729224 14.26174247 C85.13679234 14.26142393 83.48629244 14.26110955 81.83579254 14.26079941 C81.02373846 14.26064513 80.21168438 14.26049086 79.37502261 14.26033191 C73.65152087 14.25946834 67.92802241 14.26092612 62.20452118 14.26327896 C55.23299684 14.26608193 48.26148376 14.26532801 41.28996071 14.25999822 C37.73290439 14.25736847 34.17586684 14.25634393 30.61881065 14.25964737 C26.76526722 14.2631721 22.91175461 14.25896615 19.05821228 14.25396729 C17.36752259 14.25731337 17.36752259 14.25731337 15.64267755 14.26072705 C14.6106709 14.2581193 13.57866425 14.25551155 12.51538467 14.25282478 C11.62602195 14.25266243 10.73665923 14.25250008 9.82034612 14.25233281 C7.22953518 14.12254385 4.85304938 13.66136029 2.31816101 13.12698364 C-19.97480863 11.6833837 -38.53277939 18.42466904 -54.30683899 34.62698364 Z " fill="#7E7E7E" transform="translate(117.68183898925781,-0.126983642578125)"/>
<path d="M0 0 C6.34732399 3.69181089 11.29040741 9.30872222 13.625 16.3125 C13.70981773 18.89880224 13.74098229 21.45728056 13.72265625 24.04296875 C13.7212413 24.79338943 13.71982635 25.54381012 13.71836853 26.31697083 C13.7127756 28.7113546 13.70022444 31.10564453 13.6875 33.5 C13.68248408 35.12434761 13.67792134 36.74869668 13.67382812 38.37304688 C13.66280848 42.35290069 13.64554873 46.33268444 13.625 50.3125 C14.64335937 50.29155273 15.66171875 50.27060547 16.7109375 50.24902344 C20.52019976 50.17615316 24.3294015 50.1305312 28.13916016 50.09277344 C29.7821695 50.07276429 31.42510859 50.04554787 33.06787109 50.01074219 C35.44125788 49.96174695 37.81369649 49.93942496 40.1875 49.921875 C41.27393799 49.89090729 41.27393799 49.89090729 42.38232422 49.85931396 C49.20961698 49.85636778 54.24118985 52.25375487 59.375 56.6875 C64.87350126 63.10241814 67.07175518 67.95030824 66.9609375 76.328125 C66.29885718 82.20986183 63.93234888 87.06562599 59.6875 91.19921875 C53.50949955 96.03163198 48.33382254 97.61739542 40.48046875 97.5078125 C39.71068192 97.5049826 38.94089508 97.50215271 38.14778137 97.49923706 C35.70252575 97.48809157 33.25764388 97.46299781 30.8125 97.4375 C29.14909385 97.4274629 27.48568193 97.41833833 25.82226562 97.41015625 C21.75636763 97.38817073 17.69074706 97.35368014 13.625 97.3125 C13.65118408 98.32038574 13.67736816 99.32827148 13.7043457 100.36669922 C13.79568241 104.14983419 13.85254761 107.93287434 13.8996582 111.71679688 C13.92461442 113.34619603 13.95859254 114.97548542 14.00219727 116.60449219 C14.47656936 134.79805716 14.47656936 134.79805716 8.625 142.3125 C2.20034785 148.33537224 -3.77755994 150.80681238 -12.58984375 150.62890625 C-20.38093479 149.74380334 -25.16305567 145.11924883 -30.0625 139.3125 C-33.29263178 134.39039443 -33.65085528 129.94013558 -33.5703125 124.16796875 C-33.5674826 123.39818192 -33.56465271 122.62839508 -33.56173706 121.83528137 C-33.55059157 119.39002575 -33.52549781 116.94514388 -33.5 114.5 C-33.4899629 112.83659385 -33.48083833 111.17318193 -33.47265625 109.50976562 C-33.45067073 105.44386763 -33.41618014 101.37824706 -33.375 97.3125 C-34.90253906 97.3439209 -34.90253906 97.3439209 -36.4609375 97.37597656 C-40.27019976 97.44884684 -44.0794015 97.4944688 -47.88916016 97.53222656 C-49.5321695 97.55223571 -51.17510859 97.57945213 -52.81787109 97.61425781 C-55.19125788 97.66325305 -57.56369649 97.68557504 -59.9375 97.703125 C-61.02393799 97.73409271 -61.02393799 97.73409271 -62.13232422 97.76568604 C-69.01797773 97.7686574 -74.07194855 95.35965685 -79.1875 90.8125 C-84.74298291 84.46337667 -86.86330907 79.61257576 -86.69140625 71.09765625 C-85.92782842 64.37628597 -82.44009044 59.65400609 -77.375 55.3125 C-71.50904295 51.08901092 -67.52564288 50.16599094 -60.42578125 50.21484375 C-59.65316452 50.2162587 -58.88054779 50.21767365 -58.08451843 50.21913147 C-55.61880611 50.22472534 -53.15318485 50.23727667 -50.6875 50.25 C-49.01497527 50.25501579 -47.34244912 50.25957856 -45.66992188 50.26367188 C-41.57157954 50.27469276 -37.47330521 50.29195316 -33.375 50.3125 C-33.39594727 49.32443359 -33.41689453 48.33636719 -33.43847656 47.31835938 C-33.51137008 43.62091809 -33.55697694 39.92353913 -33.59472656 36.22558594 C-33.61473053 34.63107592 -33.64194301 33.03663822 -33.67675781 31.44238281 C-33.89391395 21.23604449 -34.00898168 13.67816299 -27 5.5625 C-19.11743885 -1.19398099 -10.00186377 -4.72468993 0 0 Z " fill="#7E7F7F" transform="translate(416.375,40.6875)"/>
<path d="M0 0 C3.4210839 1.49337749 5.4815723 3.76452719 7.24609375 6.98046875 C7.91678221 10.46942679 7.83025142 13.86824757 7.734375 17.41015625 C7.72730026 18.40048859 7.72022552 19.39082092 7.7129364 20.41116333 C7.68504968 23.56004836 7.62232053 26.70712535 7.55859375 29.85546875 C7.53350354 31.99606799 7.51069164 34.13669522 7.49023438 36.27734375 C7.4352423 41.51233087 7.35167407 46.74627062 7.24609375 51.98046875 C7.79875412 51.97380692 8.35141449 51.96714508 8.92082214 51.96028137 C14.67965876 51.89384392 20.43838627 51.84863333 26.19750977 51.81567383 C28.34599226 51.8005996 30.49444405 51.78013686 32.64282227 51.75415039 C35.73331283 51.71770761 38.82339606 51.70072856 41.9140625 51.6875 C42.87257614 51.67201614 43.83108978 51.65653229 44.81864929 51.64057922 C50.9952331 51.63902511 54.37378161 52.49113156 59.12109375 56.60546875 C60.92548789 60.41474526 60.34110937 63.98255936 59.24609375 67.98046875 C57.0002005 70.97499309 55.79740008 71.79669997 52.24609375 72.98046875 C50.75764659 73.06697459 49.26561118 73.09817048 47.7746582 73.09399414 C46.42359734 73.09388084 46.42359734 73.09388084 45.04524231 73.09376526 C44.0764061 73.08860397 43.10756989 73.08344269 42.109375 73.078125 C40.61750923 73.07600258 40.61750923 73.07600258 39.09550476 73.07383728 C35.91650393 73.06823636 32.73757332 73.05568371 29.55859375 73.04296875 C27.40429789 73.03795387 25.25000093 73.03339094 23.09570312 73.02929688 C17.81247601 73.01826663 12.5292899 73.00152761 7.24609375 72.98046875 C7.2560865 73.8094593 7.2560865 73.8094593 7.26628113 74.65519714 C7.33271858 80.41403376 7.37792917 86.17276127 7.41088867 91.93188477 C7.4259629 94.08036726 7.44642564 96.22881905 7.47241211 98.37719727 C7.50885489 101.46768783 7.52583394 104.55777106 7.5390625 107.6484375 C7.55454636 108.60695114 7.57003021 109.56546478 7.58598328 110.55302429 C7.58722993 115.50762494 7.54243276 118.99229939 4.24609375 122.98046875 C1.54789195 125.09527557 -0.31112559 125.90510183 -3.69140625 126.48046875 C-7.74640319 125.81842843 -10.26899601 124.1745611 -12.75390625 120.98046875 C-14.67140493 115.04147074 -15.02605177 109.65432866 -14.94921875 103.44921875 C-14.94638885 102.57269653 -14.94355896 101.69617432 -14.94064331 100.79309082 C-14.92954117 98.02207176 -14.90445579 95.2513884 -14.87890625 92.48046875 C-14.86886354 90.58984845 -14.85973996 88.69922304 -14.8515625 86.80859375 C-14.8296346 82.19909146 -14.7951747 77.58983681 -14.75390625 72.98046875 C-15.30434601 72.99157181 -15.85478577 73.00267487 -16.42190552 73.01411438 C-22.16456838 73.12495874 -27.90692611 73.2002391 -33.65039062 73.25512695 C-35.79211781 73.28023038 -37.93375966 73.31432043 -40.07519531 73.35766602 C-43.15841755 73.41850025 -46.24050468 73.44672056 -49.32421875 73.46875 C-50.75424728 73.50745964 -50.75424728 73.50745964 -52.21316528 73.54695129 C-56.68055167 73.54882488 -59.77940421 73.45671245 -63.34448242 70.59033203 C-66.38320784 67.2988157 -66.83515235 65.53190898 -67.06640625 61.203125 C-66.51862124 57.30700409 -64.59289608 55.62138952 -61.75390625 52.98046875 C-59.40190565 51.80446845 -58.01656224 51.85962334 -55.39599609 51.86694336 C-54.04482193 51.86705666 -54.04482193 51.86705666 -52.66635132 51.86717224 C-51.69235382 51.87233353 -50.71835632 51.87749481 -49.71484375 51.8828125 C-48.71885162 51.88422745 -47.7228595 51.8856424 -46.69668579 51.88710022 C-43.50739572 51.89270939 -40.31817519 51.90526345 -37.12890625 51.91796875 C-34.9700531 51.92298257 -32.81119884 51.92754568 -30.65234375 51.93164062 C-25.35284075 51.9426818 -20.05337847 51.95942887 -14.75390625 51.98046875 C-14.7696167 50.37776123 -14.7696167 50.37776123 -14.78564453 48.74267578 C-14.8221538 44.73571187 -14.84491799 40.72876233 -14.86376953 36.72167969 C-14.87375724 34.99541746 -14.88735208 33.26917184 -14.90478516 31.54296875 C-15.14758572 6.86300525 -15.14758572 6.86300525 -10.19140625 1.79296875 C-6.30334884 -0.25709789 -4.25956253 -0.40241856 0 0 Z " fill="#D4E6F2" transform="translate(409.75390625,52.01953125)"/>
<path d="M0 0 C5.74768998 5.31023366 9.40384952 11.5031971 10.03515625 19.39453125 C10.09832031 20.14605469 10.16148437 20.89757812 10.2265625 21.671875 C10.63097974 30.13854567 8.11629279 36.13005319 2.78515625 42.64453125 C-2.50749137 48.34605293 -9.27701354 52.78587414 -17.09375 53.80078125 C-27.77864981 54.09251913 -35.86559667 51.37774955 -43.90234375 44.20703125 C-48.70916715 38.87004351 -52.19932007 32.02762781 -52.40234375 24.76953125 C-52.3032961 23.3072751 -52.15718171 21.84746262 -51.96484375 20.39453125 C-51.86945313 19.64300781 -51.7740625 18.89148438 -51.67578125 18.1171875 C-49.99858255 8.49795967 -44.66089488 2.12854563 -36.96484375 -3.60546875 C-25.17854375 -10.82157079 -10.3346959 -8.44445331 0 0 Z " fill="#7F7E7E" transform="translate(161.96484375,149.60546875)"/>
<path d="M0 0 C5.69141091 5.29180121 9.346879 11.56528539 9.9609375 19.39453125 C10.04730469 20.18472656 10.13367188 20.97492188 10.22265625 21.7890625 C10.7945226 30.67205319 7.73768297 37.71501109 2.1796875 44.6015625 C-3.25997834 50.26788108 -9.21628341 53.874131 -17.15234375 54.73046875 C-27.7032114 54.85929497 -34.5192144 52.54658027 -42.25 45.30859375 C-48.31862138 38.81596389 -50.9186988 32.09410631 -51.10546875 23.25 C-50.70956345 12.94446496 -47.44412251 5.92751578 -39.92578125 -1.1015625 C-27.92063396 -10.67088281 -11.74559543 -9.24796881 0 0 Z " fill="#7E7F7E" transform="translate(220.0390625,98.60546875)"/>
<path d="M0 0 C5.69141091 5.29180121 9.346879 11.56528539 9.9609375 19.39453125 C10.04730469 20.18472656 10.13367188 20.97492188 10.22265625 21.7890625 C10.7945226 30.67205319 7.73768297 37.71501109 2.1796875 44.6015625 C-3.25997834 50.26788108 -9.21628341 53.874131 -17.15234375 54.73046875 C-27.7032114 54.85929497 -34.5192144 52.54658027 -42.25 45.30859375 C-48.31862138 38.81596389 -50.9186988 32.09410631 -51.10546875 23.25 C-50.70956345 12.94446496 -47.44412251 5.92751578 -39.92578125 -1.1015625 C-27.92063396 -10.67088281 -11.74559543 -9.24796881 0 0 Z " fill="#7E7F7F" transform="translate(103.0390625,98.60546875)"/>
<path d="M0 0 C1.39481047 0.73437919 2.77167072 1.50422475 4.125 2.3125 C4.75019531 2.663125 5.37539062 3.01375 6.01953125 3.375 C12.89754175 7.69061443 17.00128576 14.59342906 19.125 22.3125 C20.00892544 30.50422759 19.36707464 37.20981582 15.125 44.3125 C14.774375 44.93769531 14.42375 45.56289062 14.0625 46.20703125 C9.74688557 53.08504175 2.84407094 57.18878576 -4.875 59.3125 C-13.06672759 60.19642544 -19.77231582 59.55457464 -26.875 55.3125 C-27.81279297 54.7865625 -27.81279297 54.7865625 -28.76953125 54.25 C-35.66151881 49.92561565 -39.72300733 43.03435606 -41.875 35.3125 C-43.18474448 25.61535338 -41.15628231 18.46760657 -35.875 10.3125 C-27.35682446 -0.22313817 -12.87954601 -5.46606162 0 0 Z " fill="#7F7E7E" transform="translate(152.875,33.6875)"/>
<path d="M0 0 C4.87384873 2.21538578 7.74940992 4.94991716 10.8125 9.3125 C12.39905906 14.07217719 12.79399437 18.7395171 10.9765625 23.50390625 C8.07664573 28.63228255 4.35448333 32.20403165 -1.1875 34.3125 C-6.43069791 35.32946366 -10.8035182 34.91281196 -15.5 32.3125 C-20.19029789 28.92559118 -23.50851736 24.80355234 -24.62890625 19.04296875 C-24.92866847 13.36682601 -23.49832747 9.876073 -20.1875 5.3125 C-14.14647946 -0.275444 -8.06664475 -2.53523121 0 0 Z " fill="#EC8377" transform="translate(147.1875,155.6875)"/>
<path d="M0 0 C5.13096247 2.90137916 8.65403852 6.64363528 10.80859375 12.1640625 C11.92872753 17.83412024 10.82221304 22.45301831 8.015625 27.44140625 C5.40482805 31.1674951 1.9128573 33.37366287 -2.19140625 35.1640625 C-8.64552151 36.19004016 -12.96265725 34.95746864 -18.19140625 31.1640625 C-22.96585588 26.13153451 -24.73450429 21.37719286 -24.57421875 14.5078125 C-23.69698628 9.13700149 -20.45465584 5.33707998 -16.56640625 1.7265625 C-11.57194077 -1.55927005 -5.60054915 -2.13639486 0 0 Z " fill="#C2D878" transform="translate(206.19140625,104.8359375)"/>
<path d="M0 0 C5.13096247 2.90137916 8.65403852 6.64363528 10.80859375 12.1640625 C11.92872753 17.83412024 10.82221304 22.45301831 8.015625 27.44140625 C5.40482805 31.1674951 1.9128573 33.37366287 -2.19140625 35.1640625 C-8.64552151 36.19004016 -12.96265725 34.95746864 -18.19140625 31.1640625 C-22.96585588 26.13153451 -24.73450429 21.37719286 -24.57421875 14.5078125 C-23.69698628 9.13700149 -20.45465584 5.33707998 -16.56640625 1.7265625 C-11.57194077 -1.55927005 -5.60054915 -2.13639486 0 0 Z " fill="#9FD8E3" transform="translate(89.19140625,104.8359375)"/>
<path d="M0 0 C5.04714221 3.01505312 8.86966463 6.34727515 10.7734375 12.05859375 C11.41807753 17.51161434 11.08872014 21.83947797 8.05078125 26.48828125 C4.7615686 30.53190047 1.10166781 33.66514017 -4.2421875 34.296875 C-10.17408754 34.49391364 -13.40149432 33.55913341 -18.2265625 30.05859375 C-22.81902652 25.09376778 -24.71544466 21.08073329 -24.5390625 14.3671875 C-23.83172734 9.141749 -21.05758648 5.58193139 -17.1640625 2.18359375 C-12.0462551 -1.5186499 -5.92589174 -2.50550861 0 0 Z " fill="#F7CF6F" transform="translate(148.2265625,45.94140625)"/>
</svg>
