<?xml version="1.0" encoding="UTF-8"?>
<svg version="1.1" xmlns="http://www.w3.org/2000/svg" width="730" height="617">
<path d="M0 0 C1.15177734 -0.020625 2.30355469 -0.04125 3.49023438 -0.0625 C14.58977178 -0.11230163 24.98839772 1.85676544 35.125 6.4375 C36.13216064 6.88706055 36.13216064 6.88706055 37.15966797 7.34570312 C43.15160508 10.1393484 48.15477624 13.66846156 52.9375 18.25 C53.51886719 18.80300781 54.10023438 19.35601562 54.69921875 19.92578125 C59.16358314 24.63754115 61.50514422 30.29826218 63.9375 36.25 C64.72511719 35.96125 65.51273438 35.6725 66.32421875 35.375 C81.9704033 30.04233592 96.25486063 31.65257026 111 38.875 C132.48536244 49.8888706 147.93383538 67.40628357 155.96875 90.171875 C159.81876933 103.36175605 159.07775491 115.96949017 152.9375 128.25 C153.72125 128.29125 154.505 128.3325 155.3125 128.375 C165.59174614 130.85619734 173.51744337 138.19825849 179.04052734 147.00976562 C190.49688811 166.66673741 193.88236837 190.69529787 188.4375 212.9375 C183.8283838 228.11857502 176.42098976 242.79982832 162.125 250.8125 C158.79303963 252.4710977 155.40482272 253.89917589 151.9375 255.25 C152.1540625 255.77464844 152.370625 256.29929687 152.59375 256.83984375 C157.73926351 271.15675866 155.55715631 286.73216152 149.27246094 300.2722168 C145.66537698 307.69051052 141.55968243 314.16746465 135.9375 320.25 C135.05320312 321.22582031 134.16890625 322.20164062 133.2578125 323.20703125 C120.48706411 336.87949802 103.57274238 347.32819433 84.4921875 348.453125 C76.16628412 348.55918746 68.89086946 347.73820497 60.9375 345.25 C60.463125 346.36375 59.98875 347.4775 59.5 348.625 C52.25129756 362.94498908 38.56290826 370.56647478 23.93823242 375.63671875 C6.94174787 380.84662347 -14.46849591 380.62109818 -31.0625 374.25 C-32.12082031 373.87617188 -33.17914063 373.50234375 -34.26953125 373.1171875 C-46.57650274 368.44208638 -57.33924804 360.73399412 -63.5625 348.875 C-65.0625 345.25 -65.0625 345.25 -65.0625 342.25 C-65.92294922 342.683125 -65.92294922 342.683125 -66.80078125 343.125 C-78.58402916 348.27458331 -92.86224637 347.99532097 -104.8828125 343.63671875 C-115.80288573 338.87427895 -125.18774432 333.31393913 -134.0625 325.25 C-135.00996094 324.42435547 -135.00996094 324.42435547 -135.9765625 323.58203125 C-149.4745651 311.10100145 -158.78153923 292.4289215 -160.06640625 274.15234375 C-160.05615819 266.53803527 -159.16897182 258.78302335 -155.0625 252.25 C-155.67996094 251.9096875 -156.29742187 251.569375 -156.93359375 251.21875 C-174.32795594 241.26398564 -181.87864043 227.92533942 -187.52514648 209.26367188 C-191.72703347 193.51757288 -190.47447547 174.54548478 -185.0625 159.25 C-184.70027344 158.18007812 -184.33804688 157.11015625 -183.96484375 156.0078125 C-179.37886583 143.78890185 -171.36301776 132.79586112 -159.5625 126.8125 C-158.4075 126.296875 -157.2525 125.78125 -156.0625 125.25 C-156.60466274 122.35846536 -157.25435554 119.6292909 -158.125 116.8125 C-162.09077879 100.82920972 -157.19393563 85.07168344 -149.27636719 71.234375 C-137.99328367 52.78930203 -120.15107959 38.03961166 -99.1875 32 C-85.91800764 29.17785848 -74.1629496 30.09520341 -62.0625 36.25 C-61.94777344 35.52296875 -61.83304687 34.7959375 -61.71484375 34.046875 C-59.54994033 24.76501361 -52.55653574 17.6836809 -45.0625 12.25 C-30.51290611 3.62928044 -16.7292765 0.07317343 0 0 Z " fill="#E3D140" transform="translate(362.0625,96.75)"/>
<path d="M0 0 C24.97817609 21.36744272 41.02686747 50.8152988 45.20166016 83.50683594 C47.8694784 119.43109319 37.93738277 154.38241321 14.31494141 181.92480469 C0.1020628 198.01229481 -16.79331477 209.80697245 -36.79833984 217.50683594 C-37.66072266 217.87292969 -38.52310547 218.23902344 -39.41162109 218.61621094 C-68.34263367 230.31459861 -102.27420756 228.01407074 -130.80322266 216.36621094 C-157.85462531 204.71411386 -179.80793055 184.33988731 -193.79833984 158.50683594 C-194.11931641 157.91563965 -194.44029297 157.32444336 -194.77099609 156.71533203 C-200.53457639 145.85435933 -203.79502743 134.38135259 -206.79833984 122.50683594 C-207.06775391 121.47816406 -207.33716797 120.44949219 -207.61474609 119.38964844 C-213.91592011 91.10046158 -206.55327575 57.23211011 -191.45361328 32.86791992 C-187.57281289 26.82610747 -183.41421205 21.00960062 -178.79833984 15.50683594 C-178.14607422 14.72050781 -177.49380859 13.93417969 -176.82177734 13.12402344 C-158.78772748 -7.7954744 -134.48772844 -21.08642301 -107.79833984 -27.49316406 C-106.86376953 -27.71875 -105.92919922 -27.94433594 -104.96630859 -28.17675781 C-68.66155347 -35.5392606 -28.07591553 -23.31147154 0 0 Z " fill="#DFAB27" transform="translate(441.79833984375,186.4931640625)"/>
<path d="M0 0 C8.68277559 5.17003443 13.66214308 14.19333262 16.3046875 23.7265625 C17.95677057 35.69573579 18.02516308 48.78859896 12 59.5 C8.9232156 66.53265005 10.85536799 75.42803968 11.75390625 82.8671875 C11.92468941 84.33020798 11.92468941 84.33020798 12.09892273 85.82278442 C12.47446978 89.00789196 12.86079619 92.19153372 13.25 95.375 C13.38410278 96.47956543 13.51820557 97.58413086 13.65637207 98.72216797 C22.08156324 167.73982698 35.57779078 236.34129637 57.05584717 302.54248047 C58.07487121 305.70048018 59.06737165 308.8668795 60.06640625 312.03125 C75.26171138 359.49378873 95.36468691 406.08089613 121.05908203 448.79003906 C122.57222276 451.30815932 124.06751925 453.83596198 125.55859375 456.3671875 C131.99463994 467.20337592 139.13939904 477.41241906 146.6875 487.5 C147.13480469 488.10183105 147.58210937 488.70366211 148.04296875 489.32373047 C161.15986779 506.92559999 175.81707405 524.39198298 192.6875 538.5 C193.22955078 538.95439453 193.77160156 539.40878906 194.33007812 539.87695312 C212.37418205 554.91040524 231.64970085 567.25094456 253.6875 575.5 C255.92240616 576.33903467 258.15208441 577.19219487 260.375 578.0625 C261.30699219 578.41441406 262.23898437 578.76632812 263.19921875 579.12890625 C267.13657514 581.29846997 269.12652226 584.29790485 271 588.3125 C272.09136938 593.37248532 271.57719328 597.54267477 269.4375 602.25 C266.99364509 605.39209916 264.25201459 607.71774271 260.6875 609.5 C253.28240466 610.30633657 247.36561838 608.78952834 240.5625 606 C239.64944092 605.63688721 238.73638184 605.27377441 237.7956543 604.8996582 C218.34401481 597.02544402 200.10706981 586.59319144 183.6875 573.5 C182.7903125 572.79488281 181.893125 572.08976563 180.96875 571.36328125 C165.05054071 558.62413962 149.37334956 544.19291346 136.765625 528.14453125 C134.85062653 525.7075877 132.87252273 523.33656506 130.86621094 520.97460938 C126.1157802 515.37372699 121.76675042 509.60536818 117.6875 503.5 C117.46835938 504.20125 117.24921875 504.9025 117.0234375 505.625 C112.59809974 518.86503492 104.45948533 527.66880134 92.125 534.25 C73.04914278 543.38736888 49.47996631 544.97357674 29.19140625 538.8203125 C15.24287741 533.56434511 2.7659627 526.20256463 -4.3125 512.5 C-7.46913184 504.56488065 -7.68243857 495.35183187 -4.875 487.25 C1.33576594 473.97857382 13.46270991 466.44288927 26.62719727 461.45214844 C35.91841761 458.13745547 44.97897236 457.11060023 54.8125 457.125 C55.90618896 457.12588623 56.99987793 457.12677246 58.12670898 457.12768555 C70.2200478 457.30315787 80.4414177 460.20111421 91.6875 464.5 C91.10484375 463.46746094 90.5221875 462.43492187 89.921875 461.37109375 C79.14924896 442.18730119 69.15562008 422.68001901 59.77294922 402.78076172 C58.44955296 400.00002221 57.08111965 397.2461161 55.6875 394.5 C55.22601563 394.95890625 54.76453125 395.4178125 54.2890625 395.890625 C43.86342953 405.69813744 32.41521313 406.99811051 18.67578125 406.76953125 C2.69097415 406.15156975 -13.82950499 398.9089968 -25.26171875 387.7265625 C-33.38673444 378.9051169 -36.97474899 372.04902195 -36.65234375 359.875 C-35.97735988 353.17171195 -33.4513784 349.32590767 -28.625 344.75 C-18.38072713 336.42178558 -6.1761487 334.6061091 6.6875 335.5 C15.540936 336.50103318 23.65971795 338.42081856 31.6484375 342.51171875 C33.60980218 343.6453822 33.60980218 343.6453822 35.6875 343.5 C35.51512314 342.97922379 35.34274628 342.45844757 35.16514587 341.92189026 C19.20791087 293.67947517 19.20791087 293.67947517 13.6875 272.5 C13.05884033 272.52094727 12.43018066 272.54189453 11.7824707 272.56347656 C-5.10495148 273.05157913 -18.02233285 272.41721983 -32.3125 262.5 C-33.92125 261.38625 -33.92125 261.38625 -35.5625 260.25 C-40.97872403 254.83377597 -45.13820912 248.47905083 -45.46875 240.65625 C-45.03916232 234.72794008 -43.02191662 230.81240735 -38.75 226.6875 C-30.46227587 220.09943617 -20.58304702 219.44608069 -10.3125 220.5 C-6.28382216 221.39708423 -2.29603265 222.42117777 1.6875 223.5 C1.53192627 222.7879541 1.37635254 222.0759082 1.21606445 221.34228516 C-1.71338317 207.89800184 -4.57728323 194.44774425 -7.1875 180.9375 C-7.40237061 179.83293457 -7.61724121 178.72836914 -7.83862305 177.59033203 C-8.03367432 176.5692334 -8.22872559 175.54813477 -8.4296875 174.49609375 C-8.60097168 173.60075928 -8.77225586 172.7054248 -8.94873047 171.78295898 C-9.3125 169.5 -9.3125 169.5 -9.3125 166.5 C-10.02792969 166.65855469 -10.74335937 166.81710938 -11.48046875 166.98046875 C-25.05538164 169.47076312 -40.74898612 165.96033153 -52.3125 158.5 C-58.53620062 154.07618492 -63.2688433 149.17488333 -64.6875 141.4609375 C-65.0265334 135.9728344 -63.38505727 132.8181886 -60.3125 128.5 C-53.88452032 121.88836376 -43.9683143 120.51263158 -35.125 120.3125 C-28.95822482 120.36318582 -21.91195003 120.70027498 -16.3125 123.5 C-16.45872803 122.35635986 -16.60495605 121.21271973 -16.75561523 120.03442383 C-17.30492586 115.73144773 -17.84995937 111.42793828 -18.39379883 107.12426758 C-18.62833612 105.27288585 -18.86398445 103.42164448 -19.10083008 101.57055664 C-19.44395019 98.88725583 -19.78318873 96.20349339 -20.12109375 93.51953125 C-20.23214447 92.64990753 -20.34319519 91.78028381 -20.45761108 90.88430786 C-21.20687672 84.85401231 -21.65105875 78.88556948 -21.79321289 72.80737305 C-22.06397187 70.33784954 -22.06397187 70.33784954 -24.25170898 69.2668457 C-24.93177002 69.01378662 -25.61183105 68.76072754 -26.3125 68.5 C-35.66342321 58.96205832 -37.60881349 47.01135911 -37.62939453 34.28198242 C-37.45928362 22.63568507 -33.99272413 12.40007961 -25.76953125 3.90625 C-18.72252923 -2.32554613 -8.68812736 -3.83499372 0 0 Z " fill="#040300" transform="translate(64.3125,1.5)"/>
<path d="M0 0 C8.68277559 5.17003443 13.66214308 14.19333262 16.3046875 23.7265625 C18.07692841 36.56626704 18.07859829 50.05230681 10.68676758 61.02612305 C7.23757231 66.72325677 6.43151756 71.90336071 5.82421875 78.45703125 C5.70190384 79.5630217 5.57958893 80.66901215 5.4535675 81.80851746 C5.07134538 85.30785968 4.72232722 88.80953964 4.375 92.3125 C4.00216358 95.83218172 3.62266173 99.35110345 3.24287415 102.87004089 C3.01011772 105.0508472 2.78282141 107.23224502 2.56169128 109.41426086 C2.46100845 110.40266464 2.36032562 111.39106842 2.2565918 112.40942383 C2.17032028 113.27416824 2.08404877 114.13891266 1.99516296 115.02986145 C1.68080491 117.55375299 1.21686893 120.01309478 0.6875 122.5 C1.56148437 122.2834375 1.56148437 122.2834375 2.453125 122.0625 C13.83383699 119.48573502 25.89606796 119.21020485 36.6328125 124.44921875 C40.71547386 127.04447836 44.14664604 129.87743812 45.6875 134.5 C46.31735791 141.53745093 45.77723857 146.4184935 41.421875 152.171875 C33.05552445 161.72134582 19.90857925 165.94381117 7.6875 167.5 C2.80695243 167.81391872 -1.64466496 168.05594501 -6.3125 166.5 C-6.41119385 167.27714355 -6.5098877 168.05428711 -6.61157227 168.85498047 C-7.92697505 178.65095372 -9.75642912 188.30245396 -11.71655273 197.98681641 C-12.25039066 200.62693203 -12.77698046 203.26842022 -13.30273438 205.91015625 C-15.09032617 214.83524582 -16.96741824 223.70176172 -19.3125 232.5 C-18.50482178 232.13648438 -17.69714355 231.77296875 -16.86499023 231.3984375 C-4.8350537 226.05134342 7.42152243 223.38327875 20.40234375 227.32421875 C25.75314944 229.57672098 30.10277943 232.25953298 33.5 237.0625 C35.63721053 243.24916206 35.86292042 249.7273385 33.0625 255.75 C32.31196915 257.02512335 31.5196404 258.27657102 30.6875 259.5 C30.28660156 260.09425781 29.88570312 260.68851562 29.47265625 261.30078125 C21.49791432 271.72573374 8.33921748 276.77402567 -4.3125 278.5 C-13.17985961 279.08515571 -21.26899967 278.52175016 -29.3125 274.5 C-29.52229492 275.18473389 -29.73208984 275.86946777 -29.94824219 276.57495117 C-36.51218652 297.95701741 -43.37017848 319.23814592 -50.3125 340.5 C-49.49193115 340.21995117 -48.6713623 339.93990234 -47.82592773 339.65136719 C-46.74770752 339.28688477 -45.6694873 338.92240234 -44.55859375 338.546875 C-43.4905249 338.18432617 -42.42245605 337.82177734 -41.32202148 337.44824219 C-37.59259407 336.27317152 -34.20437505 335.667693 -30.3125 335.5 C-28.84876953 335.42265625 -28.84876953 335.42265625 -27.35546875 335.34375 C-15.45269752 335.00488107 -3.22690821 336.96972558 5.7265625 345.42578125 C11.90948113 352.18119234 13.289228 357.65396136 13.1171875 366.80078125 C11.84661704 377.73923783 4.93664673 385.71533424 -3.3125 392.5 C-18.69425738 404.00094605 -36.42877452 407.7266987 -55.3125 406.5 C-61.76054797 405.5053543 -66.75073651 403.8710519 -72.3125 400.5 C-72.9725 400.5 -73.6325 400.5 -74.3125 400.5 C-74.92170288 401.77955566 -74.92170288 401.77955566 -75.54321289 403.08496094 C-84.96602021 422.84333656 -94.78130929 442.30804963 -105.3125 461.5 C-103.81589844 461.066875 -103.81589844 461.066875 -102.2890625 460.625 C-83.67190376 455.65334725 -63.64186757 455.17877419 -45.3125 461.5 C-44.37664062 461.80035156 -43.44078125 462.10070312 -42.4765625 462.41015625 C-31.01298084 466.48413681 -20.97523653 474.41494748 -14.875 484.9375 C-10.98454031 493.316145 -10.63629737 502.08216154 -13.35546875 510.87109375 C-19.1350762 523.57975439 -29.6629833 531.58638106 -42.39453125 536.75 C-61.75253006 543.50914721 -83.86501232 544.31664517 -103.3125 537.5 C-104.40691406 537.12617187 -105.50132812 536.75234375 -106.62890625 536.3671875 C-118.53081297 531.86859447 -129.01794985 523.44527327 -134.8125 511.9375 C-135.3075 510.803125 -135.8025 509.66875 -136.3125 508.5 C-137.79235342 510.27026307 -139.27142351 512.04117075 -140.75 513.8125 C-141.43280029 514.62956421 -141.43280029 514.62956421 -142.12939453 515.46313477 C-145.0182958 518.92650494 -147.861789 522.42221182 -150.6875 525.9375 C-163.64499413 541.76689946 -178.14211243 556.95400965 -194.3125 569.5 C-195.09367187 570.14839844 -195.87484375 570.79679688 -196.6796875 571.46484375 C-207.97478598 580.81570397 -220.44174442 588.52469255 -233.3125 595.5 C-234.40820312 596.09554687 -235.50390625 596.69109375 -236.6328125 597.3046875 C-243.28638489 600.77813016 -250.06261727 603.73985024 -257.0625 606.4375 C-257.83037842 606.74437744 -258.59825684 607.05125488 -259.3894043 607.36743164 C-265.02029156 609.45800921 -270.31353958 610.22898929 -276.3125 609.5 C-281.17372924 607.15940814 -283.83438785 604.27266043 -286.3125 599.5 C-287.60297208 595.1601247 -287.51561293 592.16575906 -286.1875 587.8125 C-282.17103117 580.7167384 -277.34734212 578.35812094 -270 575.6875 C-250.81597543 568.33931478 -233.06276302 558.79670446 -217.3125 545.5 C-216.49136719 544.8503125 -215.67023438 544.200625 -214.82421875 543.53125 C-198.60744754 530.65393242 -183.89874186 515.94602269 -171.3125 499.5 C-170.78140625 498.8090625 -170.2503125 498.118125 -169.703125 497.40625 C-114.89848496 425.9219369 -81.73608198 341.10050602 -29.4375 101.1875 C-29.33358948 100.39174561 -29.22967896 99.59599121 -29.12261963 98.77612305 C-28.46451865 93.68964791 -27.85434391 88.60020383 -27.3125 83.5 C-27.23677765 82.79156952 -27.1610553 82.08313904 -27.08303833 81.35324097 C-26.87271841 79.2914331 -26.6873432 77.22908657 -26.51171875 75.1640625 C-26.40690186 73.98150879 -26.30208496 72.79895508 -26.1940918 71.58056641 C-26.35649024 67.35552819 -27.85969256 65.39940814 -30.6796875 62.40234375 C-38.85598884 52.87636587 -38.17632358 38.20045509 -37.3125 26.5 C-35.35963265 16.02147178 -30.08792204 6.66146654 -21.3125 0.5 C-14.77528747 -2.61453055 -6.69156992 -2.95370078 0 0 Z " fill="#040301" transform="translate(683.3125,1.5)"/>
<path d="M0 0 C0.06628601 0.57088852 0.13257202 1.14177704 0.2008667 1.72996521 C4.12644832 36.91257163 4.12644832 36.91257163 9.45068359 71.89990234 C9.97103215 74.83651832 10.47735753 77.77532791 10.98022461 80.71498108 C12.47077417 89.41978791 14.02157579 98.11300639 15.60150146 106.80200195 C15.99072794 108.94885809 16.37587825 111.09641135 16.76025391 113.24414062 C20.20727459 132.42286434 24.38621895 151.38054259 29 170.3125 C29.24526428 171.32555206 29.49052856 172.33860413 29.7432251 173.38235474 C33.12623287 187.29896638 36.98822496 201.01080061 41.2723999 214.67663574 C42.23774941 217.75917869 43.18106445 220.84834222 44.125 223.9375 C44.58640381 225.42926758 44.58640381 225.42926758 45.05712891 226.95117188 C45.72553282 229.11249453 46.38874754 231.27542508 47.04833984 233.43945312 C50.26959743 243.91090786 53.79636943 254.25236219 57.5 264.5625 C57.80335266 265.40726898 58.10670532 266.25203796 58.41925049 267.12240601 C71.41137055 303.17703869 86.77864274 338.80066253 106 372 C106.48919922 372.8465918 106.97839844 373.69318359 107.48242188 374.56542969 C121.33387917 398.38669402 136.80870043 421.26550888 155 442 C155.598125 442.69738281 156.19625 443.39476562 156.8125 444.11328125 C167.64862437 456.77498285 167.64862437 456.77498285 179.78125 468.1484375 C181.54139982 469.61729492 183.26249895 471.13292669 184.96875 472.6640625 C194.03208182 480.75870243 203.70211562 487.56382227 214 494 C214.61875 494.38671875 215.2375 494.7734375 215.875 495.171875 C228.39138272 502.88286078 241.98413634 508.62130596 255.71484375 513.796875 C258.36933751 515.19445462 259.50469869 516.41327297 261 519 C261.84457478 525.54545455 261.84457478 525.54545455 259.9453125 528.81640625 C258.173471 530.99189211 256.52592891 532.73703554 254 534 C247.4126647 533.99912333 241.63684605 532.06261867 235.625 529.5625 C234.76648438 529.21123047 233.90796875 528.85996094 233.0234375 528.49804688 C219.27277729 522.73845016 206.08747961 515.74813699 194 507 C193.39623535 506.56461914 192.7924707 506.12923828 192.17041016 505.68066406 C178.18626866 495.54642175 165.44681763 484.6067623 153.1875 472.4375 C152.31585205 471.57519775 151.4442041 470.71289551 150.54614258 469.82446289 C144.6082199 463.85715854 139.25494529 457.57049959 134 451 C133.13629308 449.9727178 132.26787848 448.94933224 131.390625 447.93359375 C116.37160191 430.42053581 103.59895034 410.90905012 92 391 C91.52771973 390.19224121 91.05543945 389.38448242 90.56884766 388.55224609 C84.31842737 377.83465505 78.33907698 367.05776071 72.92675781 355.89306641 C71.99794801 353.99580846 71.0463588 352.11190196 70.0859375 350.23046875 C63.55864945 337.42054362 57.27386403 324.38031777 52 311 C51.58041016 311.99580078 51.58041016 311.99580078 51.15234375 313.01171875 C47.88784495 320.20201353 45.0117314 323.80234238 37.80859375 326.9609375 C23.35373812 331.892328 6.61188899 329.99713291 -6.953125 323.609375 C-17.57797298 318.09374354 -27.19724136 311.30478251 -31.9375 299.875 C-33.61107741 294.58231143 -33.69530067 290.07938202 -31.5 284.9375 C-28.54102843 279.51447382 -23.7987655 276.39938275 -18.375 273.6875 C-1.13842232 268.69796436 16.49449112 272.96633856 31.9140625 281.1171875 C36.07622411 283.65663294 39.54995604 286.58072831 43 290 C40.81747197 282.32515253 38.18017539 274.86490177 35.4375 267.375 C28.35618014 247.78326089 22.21077843 227.88915173 16.4375 207.875 C16.19805664 207.04685791 15.95861328 206.21871582 15.71191406 205.36547852 C14.55158156 201.26138766 13.60167887 197.23203341 13 193 C11.783125 193.495 10.56625 193.99 9.3125 194.5 C-1.31187168 197.97495099 -11.8707985 196.27817206 -22 192 C-30.11427331 187.80260382 -37.32154891 182.61054469 -41 174 C-41.42334023 169.55492763 -41.63627655 167.16650702 -39.5 163.25 C-33.71787101 158.04608391 -27.92564759 156.31214031 -20.25 156.5 C-19.46866699 156.50918457 -18.68733398 156.51836914 -17.88232422 156.52783203 C-9.50501635 156.78795407 -2.43020104 159.25452013 5 163 C4.86013672 162.4730957 4.72027344 161.94619141 4.57617188 161.40332031 C-0.66089894 141.35594793 -4.23333115 121.03022468 -7.82026672 100.6361084 C-8.50466815 96.74788074 -9.20026294 92.86662312 -10 89 C-10.66773438 89.15984375 -11.33546875 89.3196875 -12.0234375 89.484375 C-25.93044464 91.89346285 -40.03030708 89.62077223 -52 82 C-56.57877408 78.13848379 -59.737751 75.28531273 -60.4375 69.1875 C-60.37809539 65.54401743 -60.09678274 65.10888058 -57.5 62.1875 C-51.19006403 57.79075131 -44.69967909 56.48698334 -37.125 56.625 C-36.33851074 56.63225098 -35.55202148 56.63950195 -34.74169922 56.64697266 C-27.10505389 56.82815983 -20.77752551 58.50486353 -14 62 C-14.10957031 61.31679687 -14.21914063 60.63359375 -14.33203125 59.9296875 C-16.54393321 45.86702624 -18.4555302 31.75456244 -20.1875 17.625 C-20.34605469 16.33851562 -20.50460938 15.05203125 -20.66796875 13.7265625 C-21.01967347 9.77919418 -21.0570747 5.9601062 -21 2 C-20.484375 2.165 -19.96875 2.33 -19.4375 2.5 C-11.66708975 4.09393031 -7.08392898 0 0 0 Z " fill="#DEA927" transform="translate(67,72)"/>
<path d="M0 0 C0.53544434 0.21366211 1.07088867 0.42732422 1.62255859 0.64746094 C2.33234863 0.92364258 3.04213867 1.19982422 3.7734375 1.484375 C4.47388184 1.75991211 5.17432617 2.03544922 5.89599609 2.31933594 C10.94761423 3.95357954 15.90243647 2.88529114 21 2 C20.47400878 14.36428694 19.15210174 26.49841291 17.4375 38.75 C17.08500703 41.29452091 16.73444714 43.83927062 16.38771057 46.38458252 C16.1742941 47.94883846 15.95749008 49.51263743 15.73667908 51.0758667 C15.23296862 54.74434714 14.87667523 58.29570611 15 62 C16.4540625 61.319375 16.4540625 61.319375 17.9375 60.625 C28.49884213 56.20348574 41.85687117 54.65095597 52.75 58.75 C57.35865126 60.96525086 60.23880911 62.85915061 62 67.8125 C62 72.07685958 60.63952369 74.77876311 58 78 C52.8082323 83.00080613 46.77569807 85.75165373 40 88 C38.93265625 88.36222656 37.8653125 88.72445312 36.765625 89.09765625 C32.34075328 90.15797302 28.33828569 90.2583903 23.8125 90.1875 C22.62237305 90.1865332 22.62237305 90.1865332 21.40820312 90.18554688 C17.74862306 90.15789262 14.54170606 89.99358061 11 89 C9.14902519 93.10881718 8.31030629 97.19571915 7.58984375 101.61328125 C7.32453628 103.1676439 7.05872493 104.72192062 6.79248047 106.27612305 C6.58434723 107.50557144 6.58434723 107.50557144 6.37200928 108.75985718 C2.6957692 130.35692847 -1.95815311 151.68514869 -7 173 C-7.26586914 174.12599609 -7.53173828 175.25199219 -7.80566406 176.41210938 C-9.76282422 184.62728233 -11.88779778 192.77825882 -14.2890625 200.875 C-14.50388275 201.6018248 -14.718703 202.3286496 -14.94003296 203.07749939 C-17.46061641 211.5849939 -20.02659871 220.07847104 -22.625 228.5625 C-22.87890503 229.39285767 -23.13281006 230.22321533 -23.39440918 231.07873535 C-27.53932362 244.60244607 -31.97077167 258.0068804 -36.69775391 271.33813477 C-37.13265137 272.57233154 -37.56754883 273.80652832 -38.015625 275.078125 C-38.40008789 276.15481445 -38.78455078 277.23150391 -39.18066406 278.34082031 C-40.14722788 281.01407532 -40.14722788 281.01407532 -40 284 C-39.40574219 283.61328125 -38.81148437 283.2265625 -38.19921875 282.828125 C-23.9354054 273.8661023 -7.9818838 269.73318233 8.8671875 272.46484375 C15.51323282 274.21434789 22.23033378 277.32701946 26.44921875 282.921875 C29.30508837 288.0925021 29.91793223 292.55775415 28.375 298.34375 C24.05255663 310.84796117 14.5083111 317.6299274 3.1328125 323.47265625 C-6.15258054 327.88386098 -14.22890206 329.3616989 -24.4375 329.375 C-25.42298828 329.39949219 -26.40847656 329.42398437 -27.42382812 329.44921875 C-36.52015781 329.48538706 -43.87061893 326.73828232 -51 321 C-52.375 318.25 -52.375 318.25 -53 316 C-53.66 316 -54.32 316 -55 316 C-55.34289062 317.15371094 -55.68578125 318.30742187 -56.0390625 319.49609375 C-58.52842623 326.94239938 -62.01743505 333.97864828 -65.375 341.0625 C-65.90655701 342.18824432 -65.90655701 342.18824432 -66.44885254 343.33673096 C-79.26177645 370.42339883 -94.01813017 396.30555562 -111 421 C-111.42490723 421.62068359 -111.84981445 422.24136719 -112.28759766 422.88085938 C-118.54936268 431.98436874 -125.34579152 440.59924943 -132.41357422 449.08886719 C-133.86196249 450.8337092 -135.29361421 452.5908818 -136.72265625 454.3515625 C-143.08010088 462.07816082 -150.01204596 469.22123012 -157.0625 476.3125 C-157.97249756 477.2317627 -158.88249512 478.15102539 -159.82006836 479.09814453 C-165.90570424 485.15587218 -172.24736732 490.69890905 -179 496 C-179.76159424 496.60062256 -180.52318848 497.20124512 -181.30786133 497.82006836 C-198.47423699 511.1759576 -216.85366986 521.81459415 -237 530 C-238.65902344 530.680625 -238.65902344 530.680625 -240.3515625 531.375 C-249.5267548 534.93626062 -249.5267548 534.93626062 -254 534 C-256.91142104 532.1391625 -259.42802868 530.14394265 -261 527 C-261.68362157 520.04984741 -261.68362157 520.04984741 -259.25 516.3125 C-254.51701151 512.94479665 -249.38365437 511.12329472 -244 509 C-210.40227236 495.17794634 -180.56403059 472.67502153 -157 445 C-156.10968987 443.97238337 -155.21904624 442.94505561 -154.328125 441.91796875 C-148.2294711 434.844378 -142.47351532 427.57147743 -137 420 C-136.55043945 419.3817334 -136.10087891 418.7634668 -135.63769531 418.12646484 C-95.74559387 363.0958916 -68.81439855 300.59296259 -48.0249939 236.2224884 C-46.86070713 232.62027623 -45.67546308 229.02683925 -44.45605469 225.44287109 C-41.40073843 216.45119004 -38.65882226 207.47521411 -36.375 198.25 C-35.78132768 195.90199446 -35.18629327 193.55433285 -34.58984375 191.20703125 C-34.31382324 190.1185791 -34.03780273 189.03012695 -33.75341797 187.90869141 C-32.88587695 184.55940959 -31.93198524 181.25107529 -30.9375 177.9375 C-22.40672667 148.60616021 -17.21587473 118.15544868 -12.05070496 88.07583618 C-11.45552161 84.61238154 -10.85000329 81.15122924 -10.22583008 77.69287109 C-8.63417227 68.85908341 -7.22198107 60.02806913 -6.0625 51.125 C-5.8984668 49.88282715 -5.73443359 48.6406543 -5.56542969 47.36083984 C-3.51399149 31.5974642 -1.75323625 15.79885717 0 0 Z " fill="#DEA927" transform="translate(661,72)"/>
<path d="M0 0 C4.05503188 3.69174815 7.0349856 8.05004259 10.1875 12.5 C14.84522433 19.02753668 19.5817081 25.47007151 24.48828125 31.8125 C26 34 26 34 26 36 C26.54785156 36.15130371 27.09570312 36.30260742 27.66015625 36.45849609 C34.93080537 38.54659105 41.9768133 41.16348593 49.03466797 43.87109375 C51.02304675 44.63384079 53.0132919 45.39154621 55.00390625 46.1484375 C64.66107208 49.83053604 64.66107208 49.83053604 67 51 C65.33375273 56.03865194 62.40083889 60.09420862 59.4375 64.4375 C58.35664465 66.05330102 57.27591683 67.66918735 56.1953125 69.28515625 C54.24912255 72.17642165 52.27049531 75.03696886 50.2421875 77.87109375 C49.43223541 79.03902349 48.62233607 80.20698981 47.8125 81.375 C47.09707031 82.37273437 46.38164062 83.37046875 45.64453125 84.3984375 C43.28200245 89.57243168 43.19709843 94.36275252 43 100 C42.97400726 100.66642517 42.94801453 101.33285034 42.92123413 102.01947021 C42.71813188 107.26201413 42.57281402 112.50533912 42.4375 117.75 C42.39418522 119.33334171 42.35056744 120.91667515 42.30664062 122.5 C42.20094127 126.33324729 42.0993163 130.16658224 42 134 C33.39003737 131.96934844 25.09760577 129.44895322 16.7578125 126.51757812 C15.02101496 125.92087897 13.27627131 125.34681745 11.52441406 124.79589844 C9.93570596 124.29500981 8.36040818 123.74684608 6.81152344 123.13378906 C-2.38718619 120.19581339 -11.80752917 124.8927341 -20.5 127.875 C-23.12119165 128.74921115 -25.74448524 129.61684077 -28.36828613 130.48318481 C-29.99297715 131.02235165 -31.61570715 131.56747158 -33.23620605 132.11911011 C-38.78927298 134 -38.78927298 134 -41 134 C-40.98727051 132.7217334 -40.97454102 131.4434668 -40.96142578 130.12646484 C-40.0579003 96.67680389 -40.0579003 96.67680389 -55.22753906 68.07226562 C-57.98137021 64.85263494 -60.1887563 61.33100783 -62.4375 57.75 C-63.15808594 56.67234375 -63.87867188 55.5946875 -64.62109375 54.484375 C-65.07613281 53.66453125 -65.53117187 52.8446875 -66 52 C-64.27595877 48.55191753 -60.1292496 47.99442023 -56.66015625 46.7421875 C-55.82286484 46.43427277 -54.98557343 46.12635803 -54.12290955 45.80911255 C-52.34953637 45.15857872 -50.57488184 44.51152906 -48.79907227 43.86767578 C-46.07464456 42.87940537 -43.35446362 41.8801097 -40.63476562 40.87890625 C-38.91430187 40.24934546 -37.19360627 39.62041784 -35.47265625 38.9921875 C-34.65491226 38.6922287 -33.83716827 38.3922699 -32.99464417 38.08322144 C-27.23259204 36 -27.23259204 36 -25 36 C-24.75894531 35.46632812 -24.51789063 34.93265625 -24.26953125 34.3828125 C-22.65860988 31.359237 -20.69581172 28.64107566 -18.6875 25.875 C-18.26033691 25.28187012 -17.83317383 24.68874023 -17.39306641 24.07763672 C-15.93149891 22.0497313 -14.46566294 20.02494712 -13 18 C-11.81615666 16.35955509 -10.63257254 14.71892308 -9.44921875 13.078125 C-6.30257911 8.71650553 -3.15241634 4.35744572 0 0 Z " fill="#E3D140" transform="translate(360,211)"/>
<path d="M0 0 C1.15177734 -0.020625 2.30355469 -0.04125 3.49023438 -0.0625 C14.58977178 -0.11230163 24.98839772 1.85676544 35.125 6.4375 C36.13216064 6.88706055 36.13216064 6.88706055 37.15966797 7.34570312 C43.15160508 10.1393484 48.15477624 13.66846156 52.9375 18.25 C53.51886719 18.80300781 54.10023438 19.35601562 54.69921875 19.92578125 C59.16358314 24.63754115 61.50514422 30.29826218 63.9375 36.25 C64.72511719 35.96125 65.51273438 35.6725 66.32421875 35.375 C81.9704033 30.04233592 96.25486063 31.65257026 111 38.875 C132.48536244 49.8888706 147.93383538 67.40628357 155.96875 90.171875 C159.81876933 103.36175605 159.07775491 115.96949017 152.9375 128.25 C153.72125 128.29125 154.505 128.3325 155.3125 128.375 C165.59174614 130.85619734 173.51744337 138.19825849 179.04052734 147.00976562 C190.49688811 166.66673741 193.88236837 190.69529787 188.4375 212.9375 C183.8283838 228.11857502 176.42098976 242.79982832 162.125 250.8125 C158.79303963 252.4710977 155.40482272 253.89917589 151.9375 255.25 C152.1540625 255.77464844 152.370625 256.29929687 152.59375 256.83984375 C157.73926351 271.15675866 155.55715631 286.73216152 149.27246094 300.2722168 C145.66537698 307.69051052 141.55968243 314.16746465 135.9375 320.25 C135.05320312 321.22582031 134.16890625 322.20164062 133.2578125 323.20703125 C120.48706411 336.87949802 103.57274238 347.32819433 84.4921875 348.453125 C76.16628412 348.55918746 68.89086946 347.73820497 60.9375 345.25 C60.463125 346.36375 59.98875 347.4775 59.5 348.625 C52.25129756 362.94498908 38.56290826 370.56647478 23.93823242 375.63671875 C6.94174787 380.84662347 -14.46849591 380.62109818 -31.0625 374.25 C-32.12082031 373.87617188 -33.17914063 373.50234375 -34.26953125 373.1171875 C-46.57650274 368.44208638 -57.33924804 360.73399412 -63.5625 348.875 C-65.0625 345.25 -65.0625 345.25 -65.0625 342.25 C-65.92294922 342.683125 -65.92294922 342.683125 -66.80078125 343.125 C-78.58402916 348.27458331 -92.86224637 347.99532097 -104.8828125 343.63671875 C-115.80288573 338.87427895 -125.18774432 333.31393913 -134.0625 325.25 C-135.00996094 324.42435547 -135.00996094 324.42435547 -135.9765625 323.58203125 C-149.4745651 311.10100145 -158.78153923 292.4289215 -160.06640625 274.15234375 C-160.05615819 266.53803527 -159.16897182 258.78302335 -155.0625 252.25 C-155.67996094 251.9096875 -156.29742187 251.569375 -156.93359375 251.21875 C-174.32795594 241.26398564 -181.87864043 227.92533942 -187.52514648 209.26367188 C-191.72703347 193.51757288 -190.47447547 174.54548478 -185.0625 159.25 C-184.70027344 158.18007812 -184.33804688 157.11015625 -183.96484375 156.0078125 C-179.37886583 143.78890185 -171.36301776 132.79586112 -159.5625 126.8125 C-158.4075 126.296875 -157.2525 125.78125 -156.0625 125.25 C-156.60466274 122.35846536 -157.25435554 119.6292909 -158.125 116.8125 C-162.09077879 100.82920972 -157.19393563 85.07168344 -149.27636719 71.234375 C-137.99328367 52.78930203 -120.15107959 38.03961166 -99.1875 32 C-85.91800764 29.17785848 -74.1629496 30.09520341 -62.0625 36.25 C-61.94777344 35.52296875 -61.83304687 34.7959375 -61.71484375 34.046875 C-59.54994033 24.76501361 -52.55653574 17.6836809 -45.0625 12.25 C-30.51290611 3.62928044 -16.7292765 0.07317343 0 0 Z M-43.0625 19.25 C-44.3928125 20.11625 -44.3928125 20.11625 -45.75 21 C-52.11489796 27.19287369 -55.78844936 33.47320668 -57.0625 42.25 C-64.25470549 43.73804252 -64.25470549 43.73804252 -68.0625 41.4375 C-69.0525 40.715625 -70.0425 39.99375 -71.0625 39.25 C-83.84603851 34.76454789 -96.34624078 37.29179287 -108.3828125 42.7578125 C-116.10053165 46.68053027 -122.62479982 51.48831034 -129.0625 57.25 C-129.68511719 57.77851563 -130.30773437 58.30703125 -130.94921875 58.8515625 C-142.94393456 69.7558496 -151.94299782 86.3903516 -152.71679688 102.63378906 C-152.82618378 110.84102455 -151.9428104 117.38798781 -147.0625 124.25 C-144.77236347 127.6852048 -144.88407027 129.235331 -145.0625 133.25 C-146.0525 132.59 -147.0425 131.93 -148.0625 131.25 C-155.16338778 131.25 -158.83524414 133.6457908 -164.0625 138.25 C-164.64902344 138.70890625 -165.23554688 139.1678125 -165.83984375 139.640625 C-174.79052577 147.35323082 -179.86181397 160.93738255 -182.0625 172.25 C-182.24554688 173.15234375 -182.42859375 174.0546875 -182.6171875 174.984375 C-185.28557679 194.5525631 -182.24038779 215.21839156 -170.48828125 231.46484375 C-168.49445987 233.96121736 -166.4629031 236.13535917 -164.0625 238.25 C-163.47726563 238.77722656 -162.89203125 239.30445313 -162.2890625 239.84765625 C-157.37528089 243.9554223 -153.44925805 245.22043168 -147.0625 245.25 C-146.3125 247.9375 -146.3125 247.9375 -146.0625 251.25 C-147.3504728 252.95196405 -148.69236661 254.61345179 -150.0625 256.25 C-154.7045744 265.61151671 -153.97826443 276.14642021 -151.23046875 285.9765625 C-147.34325224 296.87116931 -141.90314262 306.70474897 -134.0625 315.25 C-133.39863281 316.00539063 -132.73476562 316.76078125 -132.05078125 317.5390625 C-120.04870082 330.45072758 -102.81584213 339.89778828 -85.0625 340.5625 C-80.48220204 340.49048274 -76.63832466 339.29420036 -72.3203125 337.859375 C-68.50559034 336.82979601 -65.64159013 337.65631107 -62.046875 339.0078125 C-59.46076745 340.6266751 -58.88870175 342.15599381 -57.6875 344.9375 C-52.44956289 355.95141005 -43.96282823 362.48986871 -32.6875 367 C-30.48641593 367.77101558 -28.27821408 368.52209393 -26.0625 369.25 C-25.18722656 369.57097656 -24.31195313 369.89195312 -23.41015625 370.22265625 C-3.92592709 376.37406487 17.6904067 372.50908176 35.42919922 363.38037109 C42.75057577 359.41682339 47.85338585 355.46617241 51.875 348.0625 C54.45314433 343.42890361 56.90968395 341.61897236 61.7890625 339.67578125 C64.23574814 339.19089264 65.59247025 339.46034713 67.9375 340.25 C81.85016766 344.88755589 97.08222269 339.82011601 109.5625 333.625 C127.42437521 323.23215297 141.09575975 306.34377986 147.375 286.63720703 C148.36605302 282.43125372 148.33095486 278.30032243 148.25 274 C148.25322266 273.12859375 148.25644531 272.2571875 148.25976562 271.359375 C148.22176173 266.82654724 147.89559016 263.41293151 145.9375 259.25 C146.25 256.8125 146.25 256.8125 146.9375 254.25 C147.27694795 252.25102872 147.61171616 250.25124361 147.9375 248.25 C149.195625 248.085 150.45375 247.92 151.75 247.75 C161.30528117 245.58313309 168.37107185 238.80198743 173.515625 230.7421875 C184.09130808 212.20568803 187.03283843 190.00850181 181.84375 169.32421875 C178.61207831 158.36160832 173.57044578 148.97421464 164.9375 141.25 C164.195 140.569375 163.4525 139.88875 162.6875 139.1875 C158.30120329 136.09715459 153.38582266 133.25 147.9375 133.25 C146.89463667 128.47020973 146.41781308 125.73111082 148.875 121.4375 C153.26217288 112.6325816 152.1605034 99.90429666 149.3125 90.75 C140.70717667 69.14642603 124.4175747 51.90392085 103.16479492 42.49072266 C93.55406266 38.58662226 82.07418774 36.8196685 72.046875 40.234375 C70.6051995 40.95030909 69.1734599 41.68700994 67.7578125 42.453125 C65.9375 43.25 65.9375 43.25 62.125 43.125 C57.95313326 40.67096074 57.53141618 38.41933961 56.0078125 33.9765625 C51.66186926 22.90551 41.6503501 16.7866951 31.3125 12 C6.4979621 1.94513849 -20.74071817 4.68883766 -43.0625 19.25 Z " fill="#040301" transform="translate(362.0625,96.75)"/>
<path d="M0 0 C5.78614961 4.89516642 11.01755059 11.08106273 12.15625 18.82421875 C12.74285815 27.62334096 10.45082207 33.98725366 4.9375 40.87890625 C-4.648789 51.34814292 -20.58155609 58.01891239 -34.76196289 58.95019531 C-54.73345566 59.66225576 -73.96361653 57.04350989 -89.84375 43.82421875 C-95.90543268 37.94195162 -99.85958529 31.20876753 -100.15625 22.63671875 C-100.00503277 14.23728899 -95.86958228 7.94745974 -90.23828125 1.9609375 C-66.67150043 -19.06847377 -24.72074074 -18.50042448 0 0 Z " fill="#E3D140" transform="translate(652.84375,478.17578125)"/>
<path d="M0 0 C5.4113098 4.5788006 9.02772777 9.4235011 11.953125 15.859375 C12.448125 16.849375 12.448125 16.849375 12.953125 17.859375 C14.00594198 27.36480826 12.31261348 34.29383514 6.4140625 41.82421875 C-4.39587012 53.53070976 -21.58612191 59.41892758 -37.203125 60.23046875 C-56.94394599 60.68099681 -75.23841554 56.88931654 -90.1015625 43.01171875 C-95.62319326 36.90244455 -98.41040921 30.24022251 -98.2578125 22 C-97.36704635 12.96037312 -91.65581444 5.78896806 -84.859375 0.171875 C-61.28955246 -17.13105492 -23.86499509 -16.76668886 0 0 Z " fill="#E3D140" transform="translate(162.046875,477.140625)"/>
<path d="M0 0 C24.97817609 21.36744272 41.02686747 50.8152988 45.20166016 83.50683594 C47.8694784 119.43109319 37.93738277 154.38241321 14.31494141 181.92480469 C0.1020628 198.01229481 -16.79331477 209.80697245 -36.79833984 217.50683594 C-37.66072266 217.87292969 -38.52310547 218.23902344 -39.41162109 218.61621094 C-68.34263367 230.31459861 -102.27420756 228.01407074 -130.80322266 216.36621094 C-157.85462531 204.71411386 -179.80793055 184.33988731 -193.79833984 158.50683594 C-194.11931641 157.91563965 -194.44029297 157.32444336 -194.77099609 156.71533203 C-200.53457639 145.85435933 -203.79502743 134.38135259 -206.79833984 122.50683594 C-207.06775391 121.47816406 -207.33716797 120.44949219 -207.61474609 119.38964844 C-213.91592011 91.10046158 -206.55327575 57.23211011 -191.45361328 32.86791992 C-187.57281289 26.82610747 -183.41421205 21.00960062 -178.79833984 15.50683594 C-178.14607422 14.72050781 -177.49380859 13.93417969 -176.82177734 13.12402344 C-158.78772748 -7.7954744 -134.48772844 -21.08642301 -107.79833984 -27.49316406 C-106.86376953 -27.71875 -105.92919922 -27.94433594 -104.96630859 -28.17675781 C-68.66155347 -35.5392606 -28.07591553 -23.31147154 0 0 Z M-90.17041016 -23.38037109 C-116.14373011 -21.90987828 -141.36170252 -11.98552625 -160.79833984 5.50683594 C-161.64984619 6.26988037 -161.64984619 6.26988037 -162.51855469 7.04833984 C-178.56411092 21.68570063 -191.38524267 40.64080759 -197.79833984 61.50683594 C-198.07291016 62.39757812 -198.34748047 63.28832031 -198.63037109 64.20605469 C-204.76253657 85.3816606 -205.19979747 108.37325667 -198.79833984 129.50683594 C-198.5840332 130.25223633 -198.36972656 130.99763672 -198.14892578 131.765625 C-189.86691847 160.30057597 -171.78742039 186.35569649 -145.79833984 201.50683594 C-145.08806641 201.9215918 -144.37779297 202.33634766 -143.64599609 202.76367188 C-128.88107872 211.23544782 -114.77158629 216.44947273 -97.79833984 218.50683594 C-96.10064453 218.77367187 -96.10064453 218.77367187 -94.36865234 219.04589844 C-64.28158561 222.93022434 -34.43776806 213.96357038 -9.98193359 196.49511719 C2.18250873 186.91584019 13.25648062 175.8515096 21.20166016 162.50683594 C21.77158691 161.55019043 21.77158691 161.55019043 22.35302734 160.57421875 C38.07650161 133.65117172 44.38049514 101.1475146 36.73632812 70.52539062 C36.5598877 69.85926758 36.38344727 69.19314453 36.20166016 68.50683594 C36.01361816 67.79688477 35.82557617 67.08693359 35.63183594 66.35546875 C26.8880061 34.78864313 6.44796434 8.64881073 -21.75537109 -7.82519531 C-43.40938873 -20.08476293 -65.50984339 -24.5529917 -90.17041016 -23.38037109 Z " fill="#0A0802" transform="translate(441.79833984375,186.4931640625)"/>
<path d="M0 0 C5.56747531 4.54769023 8.61914747 9.50970403 11.3046875 16.12109375 C11.85189453 17.405 11.85189453 17.405 12.41015625 18.71484375 C14.18988173 23.50222756 13.76123069 27.64475497 11.7421875 32.24609375 C8.47571122 38.10987234 3.87244632 40.81582587 -2.3828125 42.93359375 C-19.02696768 46.92819099 -35.51138743 44.22804796 -50.19921875 35.6796875 C-59.13693724 30.09885858 -66.9688101 23.42100134 -70.2578125 13.01953125 C-71.5628043 7.35679898 -70.83195034 3.05812573 -68.09765625 -1.953125 C-63.98509637 -7.60073509 -57.74848766 -11.09855356 -50.9765625 -12.40234375 C-32.74120681 -15.05081208 -15.06367433 -10.50090921 0 0 Z " fill="#E3D140" transform="translate(104.6953125,356.87890625)"/>
<path d="M0 0 C4.09336764 3.70153815 5.62227832 7.73846459 6.41796875 13.109375 C5.12372449 22.49264591 0.91797622 29.42732129 -6.08203125 35.734375 C-18.71003587 45.24364515 -31.80102369 50.08889486 -47.51953125 50.109375 C-48.50501953 50.13386719 -49.49050781 50.15835938 -50.50585938 50.18359375 C-57.26686433 50.21047647 -62.16577767 48.98300824 -68.08203125 45.734375 C-69.19578125 45.13625 -70.30953125 44.538125 -71.45703125 43.921875 C-74.72497153 41.19859143 -76.5807005 38.96817972 -77.08203125 34.734375 C-76.0041746 29.98137487 -74.13225988 25.63773495 -72.20703125 21.171875 C-71.7275 19.96595703 -71.24796875 18.76003906 -70.75390625 17.51757812 C-66.05510363 6.26158402 -60.64699145 1.8680891 -49.6015625 -2.94140625 C-33.35371303 -9.05463707 -14.65648247 -10.48003349 0 0 Z " fill="#E3D140" transform="translate(684.08203125,351.265625)"/>
<path d="M0 0 C3.65760983 3.48374457 6.596004 7.02543724 9.5 11.1875 C10.36525822 12.41840987 11.23117941 13.6488539 12.09765625 14.87890625 C12.55930176 15.53648926 13.02094727 16.19407227 13.49658203 16.87158203 C16.27952298 20.8114455 19.11078883 24.71648554 21.9375 28.625 C22.77087891 29.77971802 22.77087891 29.77971802 23.62109375 30.95776367 C25.80561189 33.98246481 25.80561189 33.98246481 28 37 C28.64955154 37.98880661 28.64955154 37.98880661 29.31222534 38.99758911 C31.24883722 41.29522564 32.57104027 41.92495414 35.37963867 42.92285156 C36.26032516 43.24288147 37.14101166 43.56291138 38.04838562 43.89263916 C38.99534805 44.22197449 39.94231049 44.55130981 40.91796875 44.890625 C41.89034988 45.24010193 42.86273102 45.58957886 43.86457825 45.949646 C46.96803844 47.06190709 50.07752043 48.15611697 53.1875 49.25 C55.29404143 50.00142318 57.40016691 50.75401356 59.50585938 51.5078125 C64.66582463 53.35210734 69.83084702 55.18162668 75 57 C75 61.06540319 74.79754009 61.81426593 72.7265625 65.01953125 C72.23599365 65.78765137 71.7454248 66.55577148 71.23999023 67.34716797 C70.70704346 68.16072754 70.17409668 68.97428711 69.625 69.8125 C69.08496338 70.65184082 68.54492676 71.49118164 67.98852539 72.35595703 C64.12429755 78.34077698 60.19819644 84.28672851 56.21142578 90.19067383 C55.13289324 91.78837293 54.06600385 93.3939145 53 95 C52.47335251 95.77881027 51.94670502 96.55762054 51.40409851 97.36003113 C49.8599105 100.26339457 49.57905485 102.07757362 49.47583008 105.34106445 C49.43601517 106.3817659 49.39620026 107.42246735 49.35517883 108.4947052 C49.31278328 110.16215034 49.31278328 110.16215034 49.26953125 111.86328125 C49.229384 113.01040085 49.18923676 114.15752045 49.14787292 115.33940125 C49.02289699 118.99680414 48.91745422 122.65447315 48.8125 126.3125 C48.73110507 128.79496442 48.64843782 131.27738747 48.56445312 133.75976562 C48.36154587 139.83944123 48.17466439 145.919451 48 152 C46.58954861 151.69765464 45.1797671 151.39218349 43.77026367 151.08544922 C42.98511887 150.91568573 42.19997406 150.74592224 41.39103699 150.5710144 C37.61264898 149.6686804 33.97770991 148.40206107 30.3125 147.125 C23.46515592 144.78501327 16.60490103 142.67634438 9.625 140.76171875 C7 140 7 140 5 139 C-0.99739302 138.55833152 -5.95445419 139.85783133 -11.625 141.5625 C-12.52782715 141.82627441 -13.4306543 142.09004883 -14.36083984 142.36181641 C-22.08350098 144.64966644 -29.72516509 147.17564295 -37.33447266 149.81469727 C-38.1651123 150.10014404 -38.99575195 150.38559082 -39.8515625 150.6796875 C-40.58197754 150.93476074 -41.31239258 151.18983398 -42.06494141 151.45263672 C-44 152 -44 152 -47 152 C-47.02505615 150.85112305 -47.0501123 149.70224609 -47.07592773 148.51855469 C-47.17104302 144.20206041 -47.27099692 139.88568872 -47.37231445 135.56933594 C-47.41527407 133.71129246 -47.45697104 131.85321931 -47.49731445 129.99511719 C-47.61166485 124.7491161 -47.74645129 119.50461832 -47.92398071 114.26034546 C-47.99079116 112.27381417 -48.04736196 110.28694404 -48.10229492 108.30004883 C-48.42803747 101.78877741 -49.66299222 97.49460518 -53.4375 92.1875 C-53.88125977 91.52226318 -54.32501953 90.85702637 -54.78222656 90.17163086 C-55.70703504 88.7901208 -56.64216747 87.41546693 -57.58740234 86.04785156 C-58.97595486 84.03485839 -60.33068869 82.00317261 -61.67578125 79.9609375 C-64.73205782 75.32772785 -67.79826408 70.70500693 -70.99609375 66.16796875 C-71.83333984 64.97107422 -71.83333984 64.97107422 -72.6875 63.75 C-73.16574219 63.08484375 -73.64398438 62.4196875 -74.13671875 61.734375 C-75 60 -75 60 -74 57 C-72.28094482 56.06546021 -72.28094482 56.06546021 -70.01855469 55.27001953 C-69.17387634 54.96605255 -68.329198 54.66208557 -67.45892334 54.34890747 C-66.53919739 54.03009613 -65.61947144 53.71128479 -64.671875 53.3828125 C-62.73825741 52.68626408 -60.80466445 51.98964732 -58.87109375 51.29296875 C-55.81343082 50.2073586 -52.75415758 49.12646469 -49.69384766 48.04833984 C-46.74469851 47.00485349 -43.80200929 45.94450532 -40.859375 44.8828125 C-39.94774597 44.56804962 -39.03611694 44.25328674 -38.09686279 43.9289856 C-30.1565515 41.05520966 -26.30439357 36.698249 -21.5 29.8125 C-20.63474178 28.58159013 -19.76882059 27.3511461 -18.90234375 26.12109375 C-18.44069824 25.46351074 -17.97905273 24.80592773 -17.50341797 24.12841797 C-14.72047702 20.1885545 -11.88921117 16.28351446 -9.0625 12.375 C-8.50691406 11.60518799 -7.95132813 10.83537598 -7.37890625 10.04223633 C-4.9457504 6.67391074 -2.50013369 3.31908744 0 0 Z M0 10 C-0.87591716 11.09714705 -1.70688619 12.23019847 -2.51953125 13.375 C-3.04200439 14.10589844 -3.56447754 14.83679688 -4.1027832 15.58984375 C-4.66698975 16.38519531 -5.23119629 17.18054688 -5.8125 18 C-10.88753843 25.1088926 -16.05585232 32.1312824 -21.3918457 39.046875 C-24.07804417 42.17097279 -24.07804417 42.17097279 -25 46 C-25.54132568 46.15202881 -26.08265137 46.30405762 -26.64038086 46.46069336 C-34.04388415 48.60594495 -41.28170276 51.16924379 -48.5168457 53.81616211 C-50.58743471 54.57159719 -52.66176663 55.31610099 -54.73632812 56.06054688 C-56.05492861 56.54100547 -57.37329715 57.02210122 -58.69140625 57.50390625 C-59.87935791 57.93517822 -61.06730957 58.3664502 -62.29125977 58.81079102 C-65.12074204 59.70881734 -65.12074204 59.70881734 -66 62 C-64.70244146 64.37782258 -63.34358815 66.60511617 -61.875 68.875 C-61.43285156 69.59929199 -60.99070312 70.32358398 -60.53515625 71.06982422 C-58.11188233 74.98261052 -55.63021022 78.50472654 -52.5078125 81.890625 C-37.85072814 98.93884018 -40.87650228 122.75839154 -41 144 C-34.90161488 142.43197857 -28.90389041 140.67155983 -22.93359375 138.66796875 C-21.70576172 138.26255859 -20.47792969 137.85714844 -19.21289062 137.43945312 C-17.31913115 136.81146563 -15.42531057 136.18327268 -13.5402832 135.52954102 C-5.30256261 132.6850213 0.66154744 131.15960914 9 134 C10.42252075 134.44508911 10.42252075 134.44508911 11.8737793 134.89916992 C14.95341069 135.8889011 18.00816126 136.93493684 21.0625 138 C28.00254234 140.41088947 34.78975323 142.55945122 42 144 C42.02505615 143.03288086 42.0501123 142.06576172 42.07592773 141.06933594 C42.1712913 137.42373124 42.27117731 133.7782612 42.37231445 130.1328125 C42.41518286 128.56578762 42.45688301 126.99873027 42.49731445 125.43164062 C42.61335353 120.9505268 42.76079567 116.47220956 42.93798828 111.99310303 C42.99330788 110.2150899 42.99543042 108.43560419 42.99023438 106.65673828 C43.18946047 97.98044183 46.77340959 92.39726633 51.625 85.375 C52.32496094 84.32054687 53.02492188 83.26609375 53.74609375 82.1796875 C57.63415872 76.35119679 61.65552479 70.62330942 65.76318359 64.94775391 C67.17868454 63.1031491 67.17868454 63.1031491 67 61 C56.83949207 56.87274833 46.65936416 52.80994604 36.375 49 C35.56442139 48.69763428 34.75384277 48.39526855 33.91870117 48.08374023 C30.0620941 46.55351872 30.0620941 46.55351872 26 46 C25.75894531 45.46632812 25.51789063 44.93265625 25.26953125 44.3828125 C23.65863001 41.35927479 21.69605822 38.64087049 19.6875 35.875 C19.04566772 34.98530518 19.04566772 34.98530518 18.39086914 34.07763672 C17.4484763 32.77170409 16.50497964 31.46656751 15.56054688 30.16210938 C13.86035729 27.80652756 12.17186499 25.44281926 10.484375 23.078125 C9.30223279 21.42697632 8.11994293 19.77593334 6.9375 18.125 C6.36539795 17.32175293 5.7932959 16.51850586 5.20385742 15.69091797 C4.67123291 14.94986816 4.1386084 14.20881836 3.58984375 13.4453125 C3.11409912 12.78031738 2.63835449 12.11532227 2.14819336 11.43017578 C1.57983765 10.72223877 1.57983765 10.72223877 1 10 C0.67 10 0.34 10 0 10 Z " fill="#0A0802" transform="translate(360,201)"/>
<path d="M0 0 C7.08439602 3.88629724 11.09774396 10.28207373 13.80078125 17.75 C17.1842446 30.8762072 15.11230473 42.59158685 8.7265625 54.40625 C5.9874122 58.70152888 2.68983324 61.5072327 -2.07421875 63.1875 C-7.8039351 64.00603091 -11.42489883 63.24743825 -16.1875 59.92578125 C-23.19914087 53.46578086 -26.63124292 43.87850892 -27.35546875 34.57421875 C-27.65747427 22.05357319 -25.48477731 12.72991426 -17.07421875 3.1875 C-12.10480168 -1.16494655 -6.15045314 -2.40921705 0 0 Z " fill="#E2D040" transform="translate(679.07421875,6.8125)"/>
<path d="M0 0 C7.08439602 3.88629724 11.09774396 10.28207373 13.80078125 17.75 C17.1842446 30.8762072 15.11230473 42.59158685 8.7265625 54.40625 C5.9874122 58.70152888 2.68983324 61.5072327 -2.07421875 63.1875 C-7.8039351 64.00603091 -11.42489883 63.24743825 -16.1875 59.92578125 C-23.19914087 53.46578086 -26.63124292 43.87850892 -27.35546875 34.57421875 C-27.65747427 22.05357319 -25.48477731 12.72991426 -17.07421875 3.1875 C-12.10480168 -1.16494655 -6.15045314 -2.40921705 0 0 Z " fill="#E2D040" transform="translate(60.07421875,6.8125)"/>
<path d="M0 0 C2.70346941 2.25289118 3.75467057 3.61414972 4.3671875 7.07421875 C4.68247472 12.53610622 3.49490865 16.72294465 0 21 C-7.57752893 29.27287864 -18.8700522 34.71981838 -30.12109375 35.3359375 C-44.77132169 35.640976 -44.77132169 35.640976 -51 31 C-53.86634797 27.77535854 -54.87974448 25.82675673 -55.5 21.5625 C-54.43735813 13.9911767 -50.20794898 9.65515103 -44.56640625 4.859375 C-40.34779454 1.80296834 -35.85123902 -0.15936093 -31 -2 C-29.3603125 -2.6496875 -29.3603125 -2.6496875 -27.6875 -3.3125 C-18.08976486 -5.10190825 -8.56801266 -5.08725752 0 0 Z " fill="#E2D040" transform="translate(707,238)"/>
<path d="M0 0 C0.78205811 0.01063477 1.56411621 0.02126953 2.36987305 0.03222656 C10.25438407 0.28821192 16.91008043 2.19401288 23.8671875 5.890625 C27.68606109 10.0726046 28.3492268 15.07068245 29.5625 20.5 C29.82611328 21.593125 30.08972656 22.68625 30.36132812 23.8125 C31.39073906 28.17613287 32.25 31.99818788 32.25 36.5 C22.06758845 41.29172308 11.88452273 40.43049209 1.39453125 36.828125 C-7.96266884 32.87601565 -16.64234204 27.11523523 -20.75 17.5 C-21.17334023 13.05492763 -21.38627655 10.66650702 -19.25 6.75 C-13.4686825 1.54681425 -7.67511481 -0.18948849 0 0 Z " fill="#E1D040" transform="translate(46.75,228.5)"/>
<path d="M0 0 C2.96663956 2.17071187 3.77547339 3.36851891 5 6.8125 C5 11.07685958 3.63952369 13.77876311 1 17 C-4.1917677 22.00080613 -10.22430193 24.75165373 -17 27 C-18.06863281 27.3609375 -19.13726563 27.721875 -20.23828125 28.09375 C-24.63647521 29.15333567 -28.62388303 29.29478723 -33.125 29.25 C-34.30255859 29.26160156 -34.30255859 29.26160156 -35.50390625 29.2734375 C-39.78537609 29.25899747 -43.09709978 28.97496156 -47 27 C-46.78879507 24.9935532 -46.57127845 22.98767154 -46.33203125 20.984375 C-46.08100132 18.72805895 -45.878501 16.46627237 -45.69921875 14.203125 C-45.5711413 12.86450378 -45.44223309 11.52596178 -45.3125 10.1875 C-45.20550781 8.92292969 -45.09851563 7.65835938 -44.98828125 6.35546875 C-44 3 -44 3 -41.25390625 0.66015625 C-29.1150049 -5.53316076 -12.06921404 -7.09953767 0 0 Z " fill="#E2D040" transform="translate(718,133)"/>
<path d="M0 0 C0.78721436 0.00797607 1.57442871 0.01595215 2.38549805 0.02416992 C8.28572284 0.16831519 13.71818965 0.86284911 19.125 3.375 C20.01058594 3.75011719 20.89617188 4.12523437 21.80859375 4.51171875 C24.125 6.375 24.125 6.375 25.015625 9.84375 C25.15850574 11.18524141 25.27760717 12.5294411 25.375 13.875 C25.84276294 19.19819211 25.84276294 19.19819211 27.125 24.375 C27.16454234 26.70799825 27.16901732 29.04208189 27.125 31.375 C22.92358043 33.410823 19.09363995 33.72515279 14.5 33.6875 C13.79214355 33.68258545 13.08428711 33.6776709 12.35498047 33.67260742 C0.9133741 33.41947454 -10.63114766 29.8246802 -18.9375 21.6875 C-22.35505493 18.06087113 -23.36137903 15.56041371 -23.27734375 10.40625 C-22.70279955 7.50563849 -21.07264623 6.04861827 -18.69775391 4.39379883 C-12.58716706 0.9783851 -6.95221919 -0.12740644 0 0 Z " fill="#E2D040" transform="translate(29.875,128.625)"/>
<path d="M0 0 C4.47870656 2.15937638 7.18198188 4.92952939 10 9 C12.01138947 15.0341684 12.07756502 21.76505033 9.3125 27.5 C2.59412173 34.76311164 2.59412173 34.76311164 -2.609375 35.23828125 C-13.14881343 35.48734758 -13.14881343 35.48734758 -18 31 C-22.7853223 25.69734556 -23.30237723 21.6629316 -23.2109375 14.72265625 C-22.80839243 9.52684308 -20.77220076 6.49715616 -16.9375 3.1875 C-11.51636711 -0.84951386 -6.630144 -0.62483032 0 0 Z " fill="#020100" transform="translate(368,582)"/>
<path d="M0 0 C3.87045242 3.16673379 4.57645553 4.68809978 5.125 9.625 C4.67831385 13.94296607 3.5184289 15.94326548 0.75 19.25 C-2.65798172 21.83536545 -6.0907151 21.68781946 -10.25 21.25 C-14.19177003 18.88493798 -16.08504946 16.69799297 -17.25 12.25 C-17.75756495 8.27407454 -17.42071399 6.56704027 -15.5 3 C-11.07554167 -2.40767129 -6.28755102 -3.38560439 0 0 Z " fill="#DBA727" transform="translate(368.25,589.75)"/>
</svg>
