<?xml version="1.0" encoding="UTF-8"?>
<svg version="1.1" xmlns="http://www.w3.org/2000/svg" width="547" height="555">
<path d="M0 0 C6.22455447 5.64408283 11.69015751 11.70895005 16.72753906 18.44726562 C17.45328125 19.40761719 18.17902344 20.36796875 18.92675781 21.35742188 C44.67723211 56.90476075 52.72542363 101.33527638 46.59375 144.39355469 C45.80112078 149.11938974 44.82388568 153.78320353 43.72753906 158.44726562 C43.51323242 159.37635742 43.29892578 160.30544922 43.078125 161.26269531 C36.5172938 188.96716593 24.51540108 215.41715632 7.72753906 238.44726562 C7.32325684 239.00559082 6.91897461 239.56391602 6.50244141 240.13916016 C1.18279958 247.42388568 -4.58466286 254.17143291 -10.75683594 260.74414062 C-12.81287585 262.95342575 -14.77346366 265.19724945 -16.70996094 267.50976562 C-26.17596099 278.3344151 -37.71658749 287.00080391 -49.27246094 295.44726562 C-49.8630127 295.88393555 -50.45356445 296.32060547 -51.06201172 296.77050781 C-69.60604408 310.33826227 -90.75483934 319.92363387 -112.45019531 327.16259766 C-119.42871611 329.49637163 -126.36676462 331.94977858 -133.31332397 334.37658691 C-136.05986575 335.33532253 -138.80731678 336.29141479 -141.55493164 337.24707031 C-158.26807619 343.06572397 -174.92883649 349.02720773 -191.58178711 355.015625 C-193.82502667 355.82228199 -196.06827216 356.62892248 -198.31152344 357.43554688 C-199.43438248 357.83935577 -200.55724152 358.24316467 -201.71412659 358.65921021 C-209.71315898 361.53361869 -217.71849093 364.38990817 -225.72735405 367.23677254 C-227.66080944 367.92414757 -229.59411159 368.61195176 -231.52735901 369.2999115 C-232.47544638 369.63728065 -232.47544638 369.63728065 -233.44268703 369.98146534 C-234.70929046 370.4321784 -235.97589013 370.88290199 -237.242486 371.33363628 C-240.31627266 372.42721953 -243.39060817 373.51922286 -246.46566772 374.60922241 C-249.88276506 375.82058718 -253.29843187 377.03591162 -256.71386719 378.25195312 C-257.70852997 378.60327805 -258.70319275 378.95460297 -259.72799683 379.3165741 C-274.36342535 383.98290509 -274.36342535 383.98290509 -286.08496094 393.25976562 C-286.53597168 393.78747559 -286.98698242 394.31518555 -287.45166016 394.85888672 C-288.74270142 396.37365299 -290.00840902 397.90990518 -291.27246094 399.44726562 C-292.47594497 400.82651203 -293.6836027 402.20214058 -294.89746094 403.57226562 C-295.43628906 404.19359375 -295.97511719 404.81492187 -296.53027344 405.45507812 C-298.58746492 407.80747198 -300.67843008 410.12761528 -302.77246094 412.44726562 C-305.46229525 415.42789283 -308.13556458 418.41971795 -310.77246094 421.44726562 C-313.4093573 424.4748133 -316.08262663 427.46663842 -318.77246094 430.44726562 C-322.6476824 434.7442799 -326.50379018 439.05624557 -330.27246094 443.44726562 C-331.16320312 444.29546875 -332.05394531 445.14367187 -332.97167969 446.01757812 C-336.47340177 450.24020422 -335.64544387 454.86980481 -335.33496094 460.07226562 C-334.9073299 475.20048823 -339.01363939 487.00263502 -349.58496094 498.19726562 C-364.62088774 512.13300266 -380.79133372 515.30044236 -400.61328125 514.63525391 C-406.19806537 514.24044269 -411.13336851 512.65961035 -416.27246094 510.44726562 C-417.00078125 510.15851562 -417.72910156 509.86976563 -418.47949219 509.57226562 C-432.95718438 503.1758099 -442.44916511 490.72474591 -448.08886719 476.36914062 C-449.37223483 472.38441871 -449.44203567 468.60184646 -449.27246094 464.44726562 C-450.48933594 464.38539063 -451.70621094 464.32351563 -452.95996094 464.25976562 C-467.69566559 462.54792552 -479.7868683 454.19862801 -489.26464844 443.15820312 C-498.71286409 430.40127383 -500.57291072 416.8413399 -499.27246094 401.44726562 C-497.74967041 393.01135217 -494.58542564 386.13171656 -489.27246094 379.44726562 C-488.69753906 378.69832031 -488.12261719 377.949375 -487.53027344 377.17773438 C-478.90124426 366.66893743 -466.7781189 359.47875735 -453.27246094 357.44726562 C-440.98965268 356.63720958 -429.88519462 357.07541294 -418.27246094 361.44726562 C-414.03567451 357.32637913 -410.01565643 353.09016265 -406.15527344 348.61523438 C-404.05670774 346.19883611 -401.91806394 343.82197538 -399.77246094 341.44726562 C-397.08262663 338.46663842 -394.4093573 335.4748133 -391.77246094 332.44726562 C-389.13556458 329.41971795 -386.46229525 326.42789283 -383.77246094 323.44726562 C-380.49909324 319.81882075 -377.23360851 316.18661835 -374.0668335 312.46440125 C-372.27246094 310.44726562 -372.27246094 310.44726562 -370.55718994 308.86775208 C-364.20665226 302.70015192 -362.92864429 295.16161678 -361.13183594 286.83398438 C-360.76342248 285.21686088 -360.39246613 283.60031502 -360.01922607 281.98429871 C-359.19908642 278.42005179 -358.39213875 274.85313473 -357.59301758 271.28411865 C-356.2057571 265.11612979 -354.75428124 258.96402735 -353.29394531 252.81298828 C-350.850524 242.51462515 -348.42555568 232.21213354 -346.01456451 221.90612984 C-344.34640965 214.77588624 -342.67316189 207.64686882 -340.99559402 200.51883411 C-339.89385658 195.83231959 -338.79681205 191.14471499 -337.70095062 186.45682335 C-337.1876723 184.26457489 -336.67274503 182.07271164 -336.15592194 179.88129616 C-333.14001386 167.0851904 -330.37198812 154.27742661 -328.004673 141.3438158 C-320.31642477 99.82670499 -298.35708091 61.3469282 -269.0546875 31.27636719 C-267.2804726 29.45548801 -265.5226458 27.61972633 -263.76464844 25.78320312 C-256.13807572 17.89963879 -248.13427178 10.90696516 -239.27246094 4.44726562 C-238.66740723 4.00318359 -238.06235352 3.55910156 -237.43896484 3.1015625 C-167.60170992 -47.70910714 -68.27574015 -60.30051124 0 0 Z " fill="#F7A246" transform="translate(499.2724609375,40.552734375)"/>
<path d="M0 0 C6.22455447 5.64408283 11.69015751 11.70895005 16.72753906 18.44726562 C17.45328125 19.40761719 18.17902344 20.36796875 18.92675781 21.35742188 C44.67723211 56.90476075 52.72542363 101.33527638 46.59375 144.39355469 C45.80112078 149.11938974 44.82388568 153.78320353 43.72753906 158.44726562 C43.51323242 159.37635742 43.29892578 160.30544922 43.078125 161.26269531 C36.5172938 188.96716593 24.51540108 215.41715632 7.72753906 238.44726562 C7.32325684 239.00559082 6.91897461 239.56391602 6.50244141 240.13916016 C1.18279958 247.42388568 -4.58466286 254.17143291 -10.75683594 260.74414062 C-12.81287585 262.95342575 -14.77346366 265.19724945 -16.70996094 267.50976562 C-26.17596099 278.3344151 -37.71658749 287.00080391 -49.27246094 295.44726562 C-49.8630127 295.88393555 -50.45356445 296.32060547 -51.06201172 296.77050781 C-69.60604408 310.33826227 -90.75483934 319.92363387 -112.45019531 327.16259766 C-119.42871611 329.49637163 -126.36676462 331.94977858 -133.31332397 334.37658691 C-136.05986575 335.33532253 -138.80731678 336.29141479 -141.55493164 337.24707031 C-158.26807619 343.06572397 -174.92883649 349.02720773 -191.58178711 355.015625 C-193.82502667 355.82228199 -196.06827216 356.62892248 -198.31152344 357.43554688 C-199.43438248 357.83935577 -200.55724152 358.24316467 -201.71412659 358.65921021 C-209.71315898 361.53361869 -217.71849093 364.38990817 -225.72735405 367.23677254 C-227.66080944 367.92414757 -229.59411159 368.61195176 -231.52735901 369.2999115 C-232.47544638 369.63728065 -232.47544638 369.63728065 -233.44268703 369.98146534 C-234.70929046 370.4321784 -235.97589013 370.88290199 -237.242486 371.33363628 C-240.31627266 372.42721953 -243.39060817 373.51922286 -246.46566772 374.60922241 C-249.88276506 375.82058718 -253.29843187 377.03591162 -256.71386719 378.25195312 C-257.70852997 378.60327805 -258.70319275 378.95460297 -259.72799683 379.3165741 C-274.36342535 383.98290509 -274.36342535 383.98290509 -286.08496094 393.25976562 C-286.53597168 393.78747559 -286.98698242 394.31518555 -287.45166016 394.85888672 C-288.74270142 396.37365299 -290.00840902 397.90990518 -291.27246094 399.44726562 C-292.47594497 400.82651203 -293.6836027 402.20214058 -294.89746094 403.57226562 C-295.43628906 404.19359375 -295.97511719 404.81492187 -296.53027344 405.45507812 C-298.58746492 407.80747198 -300.67843008 410.12761528 -302.77246094 412.44726562 C-305.46229525 415.42789283 -308.13556458 418.41971795 -310.77246094 421.44726562 C-313.4093573 424.4748133 -316.08262663 427.46663842 -318.77246094 430.44726562 C-322.6476824 434.7442799 -326.50379018 439.05624557 -330.27246094 443.44726562 C-331.16320312 444.29546875 -332.05394531 445.14367187 -332.97167969 446.01757812 C-336.47340177 450.24020422 -335.64544387 454.86980481 -335.33496094 460.07226562 C-334.9073299 475.20048823 -339.01363939 487.00263502 -349.58496094 498.19726562 C-364.62088774 512.13300266 -380.79133372 515.30044236 -400.61328125 514.63525391 C-406.19806537 514.24044269 -411.13336851 512.65961035 -416.27246094 510.44726562 C-417.00078125 510.15851562 -417.72910156 509.86976563 -418.47949219 509.57226562 C-432.95718438 503.1758099 -442.44916511 490.72474591 -448.08886719 476.36914062 C-449.37223483 472.38441871 -449.44203567 468.60184646 -449.27246094 464.44726562 C-450.48933594 464.38539063 -451.70621094 464.32351563 -452.95996094 464.25976562 C-467.69566559 462.54792552 -479.7868683 454.19862801 -489.26464844 443.15820312 C-498.71286409 430.40127383 -500.57291072 416.8413399 -499.27246094 401.44726562 C-497.74967041 393.01135217 -494.58542564 386.13171656 -489.27246094 379.44726562 C-488.69753906 378.69832031 -488.12261719 377.949375 -487.53027344 377.17773438 C-478.90124426 366.66893743 -466.7781189 359.47875735 -453.27246094 357.44726562 C-440.98965268 356.63720958 -429.88519462 357.07541294 -418.27246094 361.44726562 C-414.03567451 357.32637913 -410.01565643 353.09016265 -406.15527344 348.61523438 C-404.05670774 346.19883611 -401.91806394 343.82197538 -399.77246094 341.44726562 C-397.08262663 338.46663842 -394.4093573 335.4748133 -391.77246094 332.44726562 C-389.13556458 329.41971795 -386.46229525 326.42789283 -383.77246094 323.44726562 C-380.49909324 319.81882075 -377.23360851 316.18661835 -374.0668335 312.46440125 C-372.27246094 310.44726562 -372.27246094 310.44726562 -370.55718994 308.86775208 C-364.20665226 302.70015192 -362.92864429 295.16161678 -361.13183594 286.83398438 C-360.76342248 285.21686088 -360.39246613 283.60031502 -360.01922607 281.98429871 C-359.19908642 278.42005179 -358.39213875 274.85313473 -357.59301758 271.28411865 C-356.2057571 265.11612979 -354.75428124 258.96402735 -353.29394531 252.81298828 C-350.850524 242.51462515 -348.42555568 232.21213354 -346.01456451 221.90612984 C-344.34640965 214.77588624 -342.67316189 207.64686882 -340.99559402 200.51883411 C-339.89385658 195.83231959 -338.79681205 191.14471499 -337.70095062 186.45682335 C-337.1876723 184.26457489 -336.67274503 182.07271164 -336.15592194 179.88129616 C-333.14001386 167.0851904 -330.37198812 154.27742661 -328.004673 141.3438158 C-320.31642477 99.82670499 -298.35708091 61.3469282 -269.0546875 31.27636719 C-267.2804726 29.45548801 -265.5226458 27.61972633 -263.76464844 25.78320312 C-256.13807572 17.89963879 -248.13427178 10.90696516 -239.27246094 4.44726562 C-238.66740723 4.00318359 -238.06235352 3.55910156 -237.43896484 3.1015625 C-167.60170992 -47.70910714 -68.27574015 -60.30051124 0 0 Z M-149.99023438 -25.18896484 C-152.02807322 -24.62086386 -154.09103951 -24.14474341 -156.15527344 -23.68164062 C-190.1046944 -15.88446592 -222.53554837 4.64721713 -247.79199219 28.15429688 C-249.90755842 30.10994629 -252.06489385 31.97292443 -254.27246094 33.82226562 C-275.03956043 51.96704298 -291.70054747 77.06201551 -303.3449707 101.86328125 C-304.27246094 103.44726562 -304.27246094 103.44726562 -306.27246094 104.44726562 C-307.19746995 106.77811362 -308.0068465 109.07043573 -308.76855469 111.45507812 C-309.11987206 112.53159134 -309.11987206 112.53159134 -309.47828674 113.62985229 C-309.97537746 115.16038177 -310.46858254 116.69217772 -310.95825195 118.22509766 C-311.6925772 120.51798589 -312.44336648 122.80495909 -313.19628906 125.09179688 C-316.78557197 136.12500113 -319.60397543 147.11048429 -320.87086487 158.66864014 C-322.42429668 172.83764988 -325.08896801 186.36624387 -328.63964844 200.15820312 C-329.16265332 202.23282545 -329.68444553 204.30775381 -330.20510864 206.38296509 C-331.56150799 211.77458947 -332.93514725 217.16167007 -334.3125 222.54797363 C-335.42666078 226.91714536 -336.52845007 231.2893913 -337.62960625 235.6618557 C-346.61818904 271.34948292 -346.61818904 271.34948292 -351.27908325 287.88955688 C-353.34167444 295.05269826 -353.34167444 295.05269826 -353.27246094 302.44726562 C-351.28519358 305.17975824 -348.83879414 307.26710446 -346.27246094 309.44726562 C-345.64726562 310.0015625 -345.02207031 310.55585938 -344.37792969 311.12695312 C-343.06974734 312.28326909 -341.75429294 313.43139715 -340.43261719 314.57226562 C-335.45168337 318.89568015 -330.58923713 323.35514652 -325.69433594 327.77539062 C-321.27124692 331.76431139 -316.82631089 335.7229447 -312.33496094 339.63476562 C-309.09871017 342.47874357 -305.90837426 345.37339263 -302.70996094 348.25976562 C-299.94506266 350.74108459 -297.14915375 353.18438284 -294.34667969 355.62304688 C-291.08694144 358.48989765 -287.8783531 361.41315046 -284.66699219 364.33398438 C-283.87679687 365.03136719 -283.08660156 365.72875 -282.27246094 366.44726562 C-281.53382813 367.23746094 -280.79519531 368.02765625 -280.03417969 368.84179688 C-276.53648218 370.87511183 -274.75367522 370.15814692 -270.95332336 369.21534729 C-265.78866169 367.73564363 -260.74799504 365.92521702 -255.69433594 364.10742188 C-254.47410736 363.67325455 -253.25387878 363.23908722 -251.99667358 362.79176331 C-248.68971506 361.61494977 -245.385143 360.43156601 -242.08097076 359.24695587 C-238.61613203 358.00613337 -235.14898253 356.77180009 -231.68212891 355.53662109 C-218.19156622 350.72739628 -204.7114344 345.88912301 -191.23339844 341.04492188 C-190.05249634 340.62072464 -188.87159424 340.1965274 -187.65490723 339.75947571 C-182.12965536 337.77449652 -176.60549668 335.78661866 -171.08398438 333.79125977 C-131.51595669 319.52018532 -131.51595669 319.52018532 -115.39746094 316.07226562 C-113.2944811 315.61255627 -111.19282369 315.1467402 -109.09277344 314.67382812 C-108.2086377 314.48385254 -107.32450195 314.29387695 -106.41357422 314.09814453 C-104.08516985 313.5738922 -104.08516985 313.5738922 -102.27246094 311.44726562 C-102.27246094 310.78726562 -102.27246094 310.12726563 -102.27246094 309.44726562 C-101.32628906 309.05796875 -100.38011719 308.66867187 -99.40527344 308.26757812 C-77.16083598 298.93448679 -57.31068587 286.43623383 -39.27246094 270.44726562 C-37.94794922 269.28904297 -37.94794922 269.28904297 -36.59667969 268.10742188 C-26.94875331 259.56983228 -18.23522463 250.57797354 -10.27246094 240.44726562 C-9.45777344 239.43792969 -8.64308594 238.42859375 -7.80371094 237.38867188 C-1.50353263 229.50156531 3.7757234 221.23456657 8.72753906 212.44726562 C9.10265625 211.79274414 9.47777344 211.13822266 9.86425781 210.46386719 C16.43758542 198.92689203 21.34129776 186.96647416 25.72753906 174.44726562 C26.06479004 173.4954541 26.40204102 172.54364258 26.74951172 171.56298828 C32.96936511 153.54797251 35.2071136 135.52733581 35.16503906 116.57226562 C35.16509949 115.434104 35.16509949 115.434104 35.16516113 114.27294922 C35.13604995 104.85318451 34.50075083 95.72178349 32.72753906 86.44726562 C32.50892212 85.28807617 32.50892212 85.28807617 32.28588867 84.10546875 C26.91804683 57.32586737 14.58363851 34.17150961 -4.27246094 14.44726562 C-4.85898437 13.79757813 -5.44550781 13.14789063 -6.04980469 12.47851562 C-22.27105421 -4.84308124 -44.97156605 -17.12873929 -67.27246094 -24.55273438 C-68.2740625 -24.88789063 -69.27566406 -25.22304688 -70.30761719 -25.56835938 C-83.41930296 -29.50765819 -97.18281975 -29.99095697 -110.77246094 -29.99023438 C-111.55527435 -29.99196655 -112.33808777 -29.99369873 -113.1446228 -29.9954834 C-125.881387 -29.983175 -137.68953564 -28.6850806 -149.99023438 -25.18896484 Z " fill="#807F7E" transform="translate(499.2724609375,40.552734375)"/>
<path d="M0 0 C7.64293434 6.52833975 15.18195556 13.14314751 22.5769043 19.9519043 C25.35405624 22.50481688 28.14937207 25.02945579 31 27.5 C34.9308925 30.9067735 38.75196573 34.43002785 42.578125 37.953125 C45.96075869 41.06241456 49.39013085 44.10613007 52.86328125 47.11328125 C56.19201581 50.05254778 59.44788872 53.071345 62.70117188 56.09375 C65.70245036 58.86723504 68.77886247 61.48551056 72 64 C70.75214512 68.5754679 68.2276278 70.95839414 64.91015625 74.1328125 C63.0860203 75.91591471 61.41377612 77.75511424 59.75 79.6875 C56.73283281 83.18714213 53.63120277 86.60257089 50.5 90 C47.46095466 93.30013347 44.43843541 96.6094976 41.5 100 C38.5615599 103.3905078 35.53885858 106.6996903 32.5 110 C28.88240616 113.92925597 25.29176237 117.87274761 21.83984375 121.94921875 C20.39855307 123.55575295 18.87170365 125.08559517 17.31640625 126.58203125 C12.1534196 131.34582413 12.1534196 131.34582413 9.5859375 137.609375 C9.87730493 140.14505914 10.38803792 142.52378258 11 145 C12.07452707 154.46607181 9.44524513 164.19874733 3.8125 171.875 C-4.59475522 181.64462494 -15.77022979 188.15980274 -28.7109375 189.22265625 C-39.90181083 189.56043852 -50.73590922 187.495119 -60 181 C-60.76054688 180.46890625 -61.52109375 179.9378125 -62.3046875 179.390625 C-69.48556154 173.73296666 -74.8327562 165.26304698 -76.5234375 156.19140625 C-76.61882812 155.36511719 -76.71421875 154.53882813 -76.8125 153.6875 C-77.70408766 148.21189095 -80.63908088 145.41752278 -84.82421875 141.953125 C-89.04944463 139.3545851 -93.26881589 138.15987172 -98.02368164 136.87280273 C-108.39343679 133.95719146 -116.44741408 127.19883444 -122 118 C-126.57025674 108.38429163 -128.97155474 98.67169746 -126.24609375 88.06640625 C-124.40056726 83.31146152 -122.06684201 79.08912268 -119 75 C-118.278125 74.01 -117.55625 73.02 -116.8125 72 C-113.51746833 68.12528683 -109.31957999 65.60411173 -105 63 C-104.05125 62.4225 -103.1025 61.845 -102.125 61.25 C-91.93513539 57.17405416 -79.34224709 56.08552651 -68.97265625 60 C-65.88076983 61.56737213 -63.56699848 63.6834404 -61 66 C-58.92230911 66.2346647 -58.92230911 66.2346647 -57.66015625 64.671875 C-57.13292969 64.03765625 -56.60570313 63.4034375 -56.0625 62.75 C-52.95431798 59.09026167 -49.75755925 55.52666438 -46.5 52 C-43.46055907 48.70024014 -40.43842542 45.39049087 -37.5 42 C-34.5615599 38.6094922 -31.53885858 35.3003097 -28.5 32 C-24.88034359 28.06850376 -21.31248009 24.10093856 -17.8125 20.0625 C-15.55281494 17.49113424 -13.24562735 14.965449 -10.9375 12.4375 C-7.21217822 8.35386482 -3.56612119 4.22303826 0 0 Z " fill="#FEFEFE" transform="translate(140,353)"/>
<path d="M0 0 C24.8103596 11.1259886 42.73447183 39.36888296 52.69140625 63.4921875 C54.83369898 69.23481101 56.46617432 75.07012038 58 81 C58.433125 82.58167969 58.433125 82.58167969 58.875 84.1953125 C70.44211237 127.68320613 58.45716481 177.41107081 36.53320312 215.55175781 C21.7449887 240.39862259 2.97549174 263.2981226 -20 281 C-21.29164063 282.03447266 -21.29164063 282.03447266 -22.609375 283.08984375 C-38.16828923 295.24249851 -56.17110383 306.72370128 -75 313 C-75 313.99 -75 314.98 -75 316 C-77.60365883 316.73101532 -80.20791927 317.45978145 -82.8125 318.1875 C-83.86147461 318.48237305 -83.86147461 318.48237305 -84.93164062 318.78320312 C-88.97099207 319.91006083 -93.01199138 321.00875484 -97.08325195 322.01464844 C-109.87002394 325.20944567 -122.17395198 329.398287 -134.5625 333.875 C-136.67657197 334.63217556 -138.79091656 335.38859032 -140.90551758 336.14428711 C-145.20643716 337.6826453 -149.50577793 339.22529031 -153.80371094 340.77197266 C-159.4935448 342.81923285 -165.18721354 344.85555998 -170.8828125 346.88671875 C-171.7441127 347.19401917 -172.6054129 347.50131958 -173.49281311 347.81793213 C-176.90206209 349.03424105 -180.31141988 350.25024364 -183.72103882 351.46551514 C-192.92132012 354.74508446 -202.1163571 358.03778034 -211.29689026 361.37229919 C-215.47359568 362.88766339 -219.65328523 364.39468656 -223.83340454 365.90060425 C-225.84782472 366.62872376 -227.86085185 367.36070982 -229.87240601 368.09671021 C-232.65891051 369.11590964 -235.44987283 370.12184939 -238.2421875 371.125 C-239.48750496 371.58621498 -239.48750496 371.58621498 -240.75798035 372.05674744 C-241.52475601 372.32934891 -242.29153168 372.60195038 -243.08154297 372.8828125 C-244.07732864 373.24463623 -244.07732864 373.24463623 -245.0932312 373.61376953 C-247.39689514 374.08039412 -248.79751089 373.77926188 -251 373 C-252.75 371.5625 -252.75 371.5625 -254 370 C-254 369.34 -254 368.68 -254 368 C-253.02897339 367.45811035 -253.02897339 367.45811035 -252.03833008 366.90527344 C-238.27979572 359.22349585 -224.55312513 351.49152476 -210.88330078 343.65283203 C-205.29953387 340.45197666 -199.71249656 337.2568388 -194.125 334.0625 C-193.5296344 333.72208679 -192.9342688 333.38167358 -192.32086182 333.03094482 C-183.31354933 327.88177215 -174.29855718 322.74621738 -165.24853516 317.67236328 C-160.6050323 315.06432377 -155.99703105 312.41404419 -151.43359375 309.66796875 C-142.67283377 304.43166142 -134.89384091 300.10026606 -124.8671875 297.90625 C-98.82037188 291.80234977 -74.42370087 278.72914296 -53 263 C-51.97003906 262.25621094 -50.94007813 261.51242187 -49.87890625 260.74609375 C-40.60157761 253.85339059 -32.29862063 246.02771898 -24 238 C-23.23913086 237.27200195 -23.23913086 237.27200195 -22.46289062 236.52929688 C-16.09943582 230.43509968 -10.35139578 223.99720241 -5 217 C-4.5059668 216.35530762 -4.01193359 215.71061523 -3.50292969 215.04638672 C4.7249632 204.21190939 11.79051344 193.09973277 18 181 C18.3810791 180.27296875 18.7621582 179.5459375 19.15478516 178.796875 C38.47929896 141.64638234 47.78110586 95.73592174 35.35058594 54.86474609 C28.90425475 34.65779673 17.68146663 17.28755848 2 3 C1.01 2.505 1.01 2.505 0 2 C0 1.34 0 0.68 0 0 Z " fill="#F18509" transform="translate(472,37)"/>
<path d="M0 0 C1.01384766 -0.02900391 2.02769531 -0.05800781 3.07226562 -0.08789062 C10.36738789 -0.15057178 10.36738789 -0.15057178 13.75390625 2.10546875 C15.0625 4.3125 15.0625 4.3125 15.0625 7.9375 C14.0625 11.3125 14.0625 11.3125 12.36108398 12.50634766 C9.56020658 13.48866281 7.25417773 13.56855695 4.28515625 13.5859375 C3.14191895 13.60358154 1.99868164 13.62122559 0.82080078 13.6394043 C-1.00862061 13.66321167 -1.00862061 13.66321167 -2.875 13.6875 C-34.42275438 14.49272428 -56.08765637 23.93172454 -79.9375 44.3125 C-81.12826066 45.30676328 -82.31970805 46.30020448 -83.51171875 47.29296875 C-84.75836821 48.34048484 -86.00446736 49.38865622 -87.25 50.4375 C-87.82508301 50.91630615 -88.40016602 51.3951123 -88.99267578 51.88842773 C-92.53957776 54.90591832 -95.60998529 58.09629208 -98.56713867 61.69482422 C-102.41420552 66.23618622 -102.41420552 66.23618622 -105.9375 66.75 C-108.9375 66.3125 -108.9375 66.3125 -110.875 64.75 C-112.02041771 62.12227702 -112.38583158 60.20313203 -111.83203125 57.3671875 C-108.47011045 49.64504627 -100.33028818 43.57059361 -93.9375 38.3125 C-93.3923877 37.85504395 -92.84727539 37.39758789 -92.28564453 36.92626953 C-75.48402098 22.82927588 -57.02534886 7.62551191 -34.9375 3.3125 C-33.96296875 3.12171875 -32.9884375 2.9309375 -31.984375 2.734375 C-21.37725745 0.83053339 -10.76669138 0.10548685 0 0 Z " fill="#827F7D" transform="translate(361.9375,36.6875)"/>
<path d="M0 0 C1.78083984 0.05994141 1.78083984 0.05994141 3.59765625 0.12109375 C4.83386719 0.18425781 6.07007813 0.24742188 7.34375 0.3125 C8.57996094 0.34472656 9.81617188 0.37695312 11.08984375 0.41015625 C20.20074282 0.79595979 20.20074282 0.79595979 23.19726562 3.203125 C24.84375 5.3125 24.84375 5.3125 25.34375 7.8125 C24.66119793 11.22526036 23.62391486 12.22079868 20.84375 14.3125 C17.98735014 14.63614614 15.55678301 14.74031931 12.71875 14.625 C11.96118408 14.60663086 11.20361816 14.58826172 10.4230957 14.56933594 C8.22842725 14.50653069 6.03697527 14.41283005 3.84375 14.3125 C2.26013672 14.26416016 2.26013672 14.26416016 0.64453125 14.21484375 C-3.22423644 13.98931021 -5.51949786 13.73700143 -8.78125 11.5625 C-10.47219446 8.79549998 -10.79317922 7.49714612 -10.15625 4.3125 C-7.05888675 0.29290879 -4.98109399 -0.1716598 0 0 Z " fill="#82807D" transform="translate(398.15625,34.6875)"/>
</svg>
