<?xml version="1.0" encoding="UTF-8"?>
<svg version="1.1" xmlns="http://www.w3.org/2000/svg" width="601" height="599">
<path d="M0 0 C1.12457365 -0.00297112 2.2491473 -0.00594224 3.40779895 -0.0090034 C7.16662353 -0.01765736 10.92541613 -0.01919587 14.68424988 -0.02069092 C17.3836329 -0.02532155 20.08301306 -0.03032643 22.78239441 -0.03573608 C30.11147342 -0.04928383 37.44054694 -0.0553391 44.76963639 -0.05974674 C49.35423475 -0.06251626 53.93883102 -0.06675498 58.52342796 -0.07125092 C71.23941445 -0.08344094 83.95539928 -0.09373948 96.67139149 -0.09712601 C97.48435916 -0.09734557 98.29732682 -0.09756514 99.13492988 -0.09779136 C99.94975194 -0.09800964 100.76457401 -0.09822791 101.60408765 -0.09845281 C103.25499459 -0.09889626 104.90590153 -0.09934282 106.55680847 -0.09979248 C107.37570085 -0.10001391 108.19459323 -0.10023534 109.03830054 -0.10046348 C122.2845942 -0.10440505 135.53083264 -0.12184064 148.77710501 -0.145152 C162.40653177 -0.16894209 176.03593091 -0.1813314 189.66537875 -0.18249393 C197.30568526 -0.18340661 204.94591988 -0.18905528 212.58620644 -0.20731354 C219.09697654 -0.22281856 225.60765254 -0.22777452 232.11843763 -0.21957543 C235.43227141 -0.21570473 238.74576439 -0.21809785 242.05959892 -0.23063278 C261.08948395 -0.29834293 278.84616676 1.02602159 297.21232605 6.32794189 C298.26605408 6.62909912 299.3197821 6.93025635 300.40544128 7.24053955 C321.34764095 13.43679557 340.32336964 23.95527313 357.64982605 37.14044189 C359.01300964 38.16524658 359.01300964 38.16524658 360.4037323 39.21075439 C397.88000512 68.58857779 421.63527195 112.70484563 427.43050802 159.75154293 C427.84832003 164.30251703 427.79781062 168.85891843 427.79699707 173.42573547 C427.80067376 174.54340331 427.80435045 175.66107115 427.80813855 176.81260771 C427.81912889 180.54827395 427.8230114 184.28391233 427.826828 188.01959229 C427.83309641 190.70263328 427.83973147 193.38567137 427.84674072 196.06871033 C427.86644724 204.11449885 427.87656584 212.16028852 427.88546851 220.20609513 C427.88986264 224.00610014 427.89522666 227.80610378 427.90045738 231.60610771 C427.91746701 244.2586046 427.93195621 256.91110066 427.93920612 269.56360722 C427.94111566 272.84255538 427.94303604 276.12150353 427.94499207 279.40045166 C427.94547581 280.21530419 427.94595955 281.03015671 427.94645794 281.86970174 C427.9547397 295.0389463 427.98004633 308.2080995 428.01257274 321.37730426 C428.04578082 334.93442915 428.06366739 348.49150784 428.06685036 362.04867357 C428.06900325 369.64553939 428.07757041 377.24227213 428.10331154 384.83909798 C428.12520769 391.31573557 428.13297763 397.79220776 428.12334476 404.26887817 C428.11885328 407.56304679 428.12263994 410.85660367 428.1401062 414.15076828 C428.39023582 464.17365136 411.5177422 509.00736188 376.64982605 545.14044189 C375.81322449 546.04020752 374.97662292 546.93997314 374.1146698 547.86700439 C347.68836187 575.52893155 311.05518479 592.12219395 273.64982605 598.14044189 C272.67914908 598.31003009 271.70847212 598.47961828 270.7083807 598.65434551 C265.62581397 599.37095812 260.53915219 599.2885169 255.41558838 599.28761292 C254.29131343 599.2912896 253.16703848 599.29496629 252.00869459 599.29875439 C248.24461721 599.30975943 244.48056748 599.31362979 240.71647644 599.31744385 C238.01550129 599.32371123 235.31452903 599.33034609 232.61355591 599.33735657 C224.50801865 599.3570781 216.40248022 599.36718474 208.29692498 599.37608436 C204.46915317 599.38047702 200.64138272 599.38584152 196.81361198 599.39107323 C184.06851139 599.40808625 171.32341163 599.42257464 158.57830143 599.42982197 C155.27409934 599.43173154 151.96989725 599.43365191 148.66569519 599.43560791 C147.43398977 599.43633352 147.43398977 599.43633352 146.17740142 599.43707379 C132.91177122 599.4453524 119.64623183 599.47065211 106.38064117 599.50318859 C92.72523204 599.53640459 79.0698688 599.55428404 65.41441911 599.55746621 C57.7621745 599.55961865 50.11006204 599.56817868 42.45785713 599.59392738 C35.93254914 599.61583464 29.40740536 599.6235883 22.88206477 599.6139606 C19.56347752 599.6094719 16.2454973 599.61324302 12.92691422 599.63072205 C-30.20783464 599.84496405 -68.89976534 588.35667681 -103.35017395 562.14044189 C-104.25896301 561.45723877 -105.16775208 560.77403564 -106.1040802 560.07012939 C-143.52924786 530.73236756 -167.38191982 486.55192768 -173.1350522 439.51731932 C-173.54627707 434.97370104 -173.49443712 430.42513421 -173.49061584 425.86619568 C-173.49358697 424.74978913 -173.49655809 423.63338258 -173.49961925 422.48314553 C-173.50827257 418.75195997 -173.50981167 415.02080661 -173.51130676 411.28961182 C-173.51593744 408.60993297 -173.52094234 405.93025699 -173.52635193 403.25057983 C-173.53989922 395.97521813 -173.54595487 388.69986196 -173.55036259 381.42448974 C-173.55313219 376.87339331 -173.55737093 372.32229899 -173.56186676 367.77120399 C-173.57405674 355.1478638 -173.58435528 342.52452527 -173.58774185 329.90117931 C-173.58796142 329.09414687 -173.58818098 328.28711442 -173.5884072 327.45562645 C-173.58862548 326.64675428 -173.58884376 325.83788211 -173.58906865 325.00449866 C-173.5895121 323.36564966 -173.58995867 321.72680066 -173.59040833 320.08795166 C-173.59062975 319.27504051 -173.59085118 318.46212936 -173.59107932 317.62458453 C-173.59502082 304.47528857 -173.61245622 291.32604825 -173.63576785 278.17677375 C-173.65955882 264.64678807 -173.67194728 251.1168302 -173.67310977 237.58682328 C-173.67402241 230.0024079 -173.67966986 222.41806494 -173.69792938 214.83366966 C-173.71343561 208.37047651 -173.71838967 201.90737815 -173.71019128 195.4441699 C-173.70632102 192.15467144 -173.70871232 188.8654004 -173.72124863 185.5759182 C-173.78905268 166.66157324 -172.465397 148.96591274 -167.22517395 130.70294189 C-166.92731995 129.65582031 -166.62946594 128.60869873 -166.32258606 127.52984619 C-152.640015 81.3288203 -119.16764141 43.18422238 -77.35017395 20.14044189 C-53.7596376 7.53318062 -26.7878381 -0.02228567 0 0 Z " fill="#EF8531" transform="translate(173.3501739501953,-0.14044189453125)"/>
<path d="M0 0 C9.29998788 4.90111093 15.3771045 14.71046096 20.25 23.6875 C21.61733514 26.17095386 22.99418665 28.64901716 24.375 31.125 C24.75309814 31.80369141 25.13119629 32.48238281 25.52075195 33.18164062 C29.46218268 40.18647258 33.76720036 46.94509531 38.08984375 53.71875 C41.29476412 58.74187496 44.43411604 63.8039559 47.5625 68.875 C52.2031719 76.39145373 56.87315875 83.88881913 61.5625 91.375 C67.62047004 101.04996228 73.63073987 110.75349475 79.58300781 120.49389648 C82.50071662 125.26183312 85.43329295 130.00827223 88.515625 134.671875 C88.99475342 135.40470703 89.47388184 136.13753906 89.9675293 136.89257812 C90.82944141 138.20304751 91.70480922 139.50482343 92.59692383 140.79492188 C94.36098617 143.49132426 95.24269198 145.34767717 95.3125 148.59375 C93.861299 152.81930586 91.65155651 156.23015211 89.1875 159.9375 C88.0868011 161.63559178 86.98794156 163.33487682 85.890625 165.03515625 C85.30087891 165.94539551 84.71113281 166.85563477 84.10351562 167.79345703 C80.80669039 172.94105533 77.62831386 178.16128227 74.4375 183.375 C69.16854505 191.9653177 63.85724249 200.52698633 58.5 209.0625 C53.74468563 216.64737642 49.04697536 224.26301919 44.4375 231.9375 C43.69064941 233.17959229 43.69064941 233.17959229 42.92871094 234.44677734 C37.88159582 242.89242558 36.14964352 248.56639934 37.25 258.6875 C38.91548855 263.49822344 41.44144544 267.47466816 44.25 271.6875 C18.8675388 271.80438009 -6.51488197 271.89251124 -31.89755821 271.94656086 C-43.68358743 271.97232579 -55.4694493 272.00744383 -67.25537109 272.06469727 C-77.5298005 272.11458434 -87.80410868 272.14680345 -98.07865584 272.15794247 C-103.5173561 272.16445218 -108.95570959 272.17971659 -114.39429855 272.21615028 C-119.51774108 272.25019335 -124.64069537 272.2605361 -129.76424026 272.25303841 C-131.6403087 272.25440923 -133.51639418 272.26429197 -135.3923645 272.28352737 C-153.50627849 272.46008405 -153.50627849 272.46008405 -161.75 266.6875 C-163.3896875 265.6046875 -163.3896875 265.6046875 -165.0625 264.5 C-170.83849236 258.45535683 -174.18586121 250.54633802 -174.01171875 242.1875 C-172.99059186 232.43345209 -166.47770342 224.15036354 -161.30712891 216.11914062 C-158.37528309 211.54071724 -155.50419006 206.92414434 -152.625 202.3125 C-151.99037842 201.29784668 -151.35575684 200.28319336 -150.7019043 199.23779297 C-145.33647394 190.65123281 -140.02991317 182.02916358 -134.73193359 173.40087891 C-129.66118653 165.14969238 -124.53714494 156.9330913 -119.39453125 148.7265625 C-114.80977338 141.40248389 -110.27124944 134.05092751 -105.75 126.6875 C-100.00968448 117.33866893 -94.21988479 108.02260036 -88.39453125 98.7265625 C-83.80977304 91.40248334 -79.27130531 84.05089366 -74.75 76.6875 C-67.69476524 65.19891987 -60.56675946 53.75730888 -53.40722656 42.33349609 C-51.43732542 39.18827091 -49.47243556 36.03994135 -47.50830078 32.89111328 C-45.93984067 30.378047 -44.36792897 27.86715569 -42.79492188 25.35693359 C-41.79313092 23.7564087 -40.79492142 22.15364381 -39.796875 20.55078125 C-38.14062466 17.91158234 -36.45568257 15.29493993 -34.75 12.6875 C-34.28464844 11.94886719 -33.81929687 11.21023437 -33.33984375 10.44921875 C-25.56194453 -1.05513915 -13.17920159 -4.68853012 0 0 Z " fill="#E3E4E9" transform="translate(242.75,175.3125)"/>
<path d="M0 0 C6.0770461 4.03434153 11.09593033 9.4492055 13.97241211 16.16625977 C17.15824469 23.59460763 21.28903813 30.30102709 25.609375 37.109375 C26.959171 39.25207671 28.30809993 41.39532482 29.65625 43.5390625 C30.35041016 44.64217773 31.04457031 45.74529297 31.75976562 46.88183594 C35.16038633 52.31175727 38.50953352 57.77303373 41.859375 63.234375 C46.98973418 71.5907736 52.15256288 79.92539903 57.359375 88.234375 C63.24798256 97.63135296 69.0726287 107.06611671 74.87451172 116.5168457 C79.37523359 123.84132463 83.91737383 131.13857231 88.484375 138.421875 C93.60960833 146.6047064 98.69737355 154.80940043 103.734375 163.046875 C104.33588379 164.02615967 104.93739258 165.00544434 105.55712891 166.0144043 C106.10804199 166.91843994 106.65895508 167.82247559 107.2265625 168.75390625 C107.71237793 169.54901611 108.19819336 170.34412598 108.69873047 171.16333008 C111.25523364 175.72513412 111.58014118 180.13101906 110.859375 185.234375 C108.47383025 191.13940056 104.06731626 195.66779911 98.859375 199.234375 C95.06986798 200.49754401 91.52155964 200.38245185 87.57330322 200.38154602 C86.71813291 200.38522271 85.8629626 200.3888994 84.98187804 200.3926875 C82.10542569 200.40373405 79.22900946 200.40756982 76.35253906 200.41137695 C74.2945138 200.41764084 72.23648968 200.42428757 70.1784668 200.43128967 C64.57918339 200.44870553 58.97990853 200.45925291 53.38060474 200.4674952 C49.88343215 200.47264384 46.38626221 200.47871961 42.88909149 200.48500633 C31.9503432 200.50405955 21.01160167 200.51829074 10.07283998 200.5266183 C-2.55995227 200.53639395 -15.19256944 200.56272158 -27.82529998 200.60311919 C-37.58590017 200.63326263 -47.34645012 200.64808547 -57.10709596 200.65139931 C-62.93849846 200.65375169 -68.76971396 200.66273676 -74.60106659 200.68786049 C-80.08728514 200.71111527 -85.57319321 200.71538477 -91.05944824 200.70509911 C-93.07221763 200.70460302 -95.08500216 200.71094491 -97.09772491 200.72465515 C-99.84772878 200.74233838 -102.59661408 200.73528549 -105.34661865 200.72212219 C-106.14128155 200.73309144 -106.93594444 200.74406068 -107.75468802 200.75536233 C-114.27423851 200.68012895 -118.48552035 198.71342432 -123.3203125 194.19921875 C-123.87976563 193.53019531 -124.43921875 192.86117187 -125.015625 192.171875 C-125.87800781 191.16447266 -125.87800781 191.16447266 -126.7578125 190.13671875 C-129.98711315 185.69414978 -129.71969992 180.48727477 -129.140625 175.234375 C-128.09184305 172.02573204 -126.57006243 169.21721264 -124.890625 166.296875 C-124.44025879 165.47968994 -123.98989258 164.66250488 -123.52587891 163.82055664 C-119.44411704 156.52110146 -114.9934787 149.45763974 -110.46484375 142.4296875 C-106.66383313 136.52313066 -102.9976091 130.53571669 -99.328125 124.546875 C-94.13602928 116.0857963 -88.91255984 107.64594091 -83.640625 99.234375 C-78.4337449 90.92543628 -73.27141245 82.5905124 -68.140625 74.234375 C-62.40559107 64.89414565 -56.63187328 55.57969375 -50.79614258 46.30200195 C-47.4754948 41.01265632 -44.2054463 35.69739723 -40.99609375 30.33984375 C-40.29327948 29.17364081 -39.59015606 28.00762412 -38.88671875 26.84179688 C-37.56268581 24.64219376 -36.2480766 22.43687581 -34.9453125 20.22460938 C-24.13974513 2.33286467 -24.13974513 2.33286467 -16.08081055 -1.05004883 C-10.51439975 -2.40479018 -5.24045897 -2.54811308 0 0 Z " fill="#E3E4E9" transform="translate(414.140625,246.765625)"/>
<path d="M0 0 C1.12457365 -0.00297112 2.2491473 -0.00594224 3.40779895 -0.0090034 C7.16662353 -0.01765736 10.92541613 -0.01919587 14.68424988 -0.02069092 C17.3836329 -0.02532155 20.08301306 -0.03032643 22.78239441 -0.03573608 C30.11147342 -0.04928383 37.44054694 -0.0553391 44.76963639 -0.05974674 C49.35423475 -0.06251626 53.93883102 -0.06675498 58.52342796 -0.07125092 C71.23941445 -0.08344094 83.95539928 -0.09373948 96.67139149 -0.09712601 C97.48435916 -0.09734557 98.29732682 -0.09756514 99.13492988 -0.09779136 C99.94975194 -0.09800964 100.76457401 -0.09822791 101.60408765 -0.09845281 C103.25499459 -0.09889626 104.90590153 -0.09934282 106.55680847 -0.09979248 C107.37570085 -0.10001391 108.19459323 -0.10023534 109.03830054 -0.10046348 C122.2845942 -0.10440505 135.53083264 -0.12184064 148.77710501 -0.145152 C162.40653177 -0.16894209 176.03593091 -0.1813314 189.66537875 -0.18249393 C197.30568526 -0.18340661 204.94591988 -0.18905528 212.58620644 -0.20731354 C219.09697654 -0.22281856 225.60765254 -0.22777452 232.11843763 -0.21957543 C235.43227141 -0.21570473 238.74576439 -0.21809785 242.05959892 -0.23063278 C261.08948395 -0.29834293 278.84616676 1.02602159 297.21232605 6.32794189 C298.26605408 6.62909912 299.3197821 6.93025635 300.40544128 7.24053955 C321.34764095 13.43679557 340.32336964 23.95527313 357.64982605 37.14044189 C359.01300964 38.16524658 359.01300964 38.16524658 360.4037323 39.21075439 C397.88000512 68.58857779 421.63527195 112.70484563 427.43050802 159.75154293 C427.84832003 164.30251703 427.79781062 168.85891843 427.79699707 173.42573547 C427.80067376 174.54340331 427.80435045 175.66107115 427.80813855 176.81260771 C427.81912889 180.54827395 427.8230114 184.28391233 427.826828 188.01959229 C427.83309641 190.70263328 427.83973147 193.38567137 427.84674072 196.06871033 C427.86644724 204.11449885 427.87656584 212.16028852 427.88546851 220.20609513 C427.88986264 224.00610014 427.89522666 227.80610378 427.90045738 231.60610771 C427.91746701 244.2586046 427.93195621 256.91110066 427.93920612 269.56360722 C427.94111566 272.84255538 427.94303604 276.12150353 427.94499207 279.40045166 C427.94547581 280.21530419 427.94595955 281.03015671 427.94645794 281.86970174 C427.9547397 295.0389463 427.98004633 308.2080995 428.01257274 321.37730426 C428.04578082 334.93442915 428.06366739 348.49150784 428.06685036 362.04867357 C428.06900325 369.64553939 428.07757041 377.24227213 428.10331154 384.83909798 C428.12520769 391.31573557 428.13297763 397.79220776 428.12334476 404.26887817 C428.11885328 407.56304679 428.12263994 410.85660367 428.1401062 414.15076828 C428.39023582 464.17365136 411.5177422 509.00736188 376.64982605 545.14044189 C375.81322449 546.04020752 374.97662292 546.93997314 374.1146698 547.86700439 C347.68836187 575.52893155 311.05518479 592.12219395 273.64982605 598.14044189 C272.67914908 598.31003009 271.70847212 598.47961828 270.7083807 598.65434551 C265.62581397 599.37095812 260.53915219 599.2885169 255.41558838 599.28761292 C254.29131343 599.2912896 253.16703848 599.29496629 252.00869459 599.29875439 C248.24461721 599.30975943 244.48056748 599.31362979 240.71647644 599.31744385 C238.01550129 599.32371123 235.31452903 599.33034609 232.61355591 599.33735657 C224.50801865 599.3570781 216.40248022 599.36718474 208.29692498 599.37608436 C204.46915317 599.38047702 200.64138272 599.38584152 196.81361198 599.39107323 C184.06851139 599.40808625 171.32341163 599.42257464 158.57830143 599.42982197 C155.27409934 599.43173154 151.96989725 599.43365191 148.66569519 599.43560791 C147.43398977 599.43633352 147.43398977 599.43633352 146.17740142 599.43707379 C132.91177122 599.4453524 119.64623183 599.47065211 106.38064117 599.50318859 C92.72523204 599.53640459 79.0698688 599.55428404 65.41441911 599.55746621 C57.7621745 599.55961865 50.11006204 599.56817868 42.45785713 599.59392738 C35.93254914 599.61583464 29.40740536 599.6235883 22.88206477 599.6139606 C19.56347752 599.6094719 16.2454973 599.61324302 12.92691422 599.63072205 C-30.20783464 599.84496405 -68.89976534 588.35667681 -103.35017395 562.14044189 C-104.25896301 561.45723877 -105.16775208 560.77403564 -106.1040802 560.07012939 C-143.52924786 530.73236756 -167.38191982 486.55192768 -173.1350522 439.51731932 C-173.54627707 434.97370104 -173.49443712 430.42513421 -173.49061584 425.86619568 C-173.49358697 424.74978913 -173.49655809 423.63338258 -173.49961925 422.48314553 C-173.50827257 418.75195997 -173.50981167 415.02080661 -173.51130676 411.28961182 C-173.51593744 408.60993297 -173.52094234 405.93025699 -173.52635193 403.25057983 C-173.53989922 395.97521813 -173.54595487 388.69986196 -173.55036259 381.42448974 C-173.55313219 376.87339331 -173.55737093 372.32229899 -173.56186676 367.77120399 C-173.57405674 355.1478638 -173.58435528 342.52452527 -173.58774185 329.90117931 C-173.58796142 329.09414687 -173.58818098 328.28711442 -173.5884072 327.45562645 C-173.58862548 326.64675428 -173.58884376 325.83788211 -173.58906865 325.00449866 C-173.5895121 323.36564966 -173.58995867 321.72680066 -173.59040833 320.08795166 C-173.59062975 319.27504051 -173.59085118 318.46212936 -173.59107932 317.62458453 C-173.59502082 304.47528857 -173.61245622 291.32604825 -173.63576785 278.17677375 C-173.65955882 264.64678807 -173.67194728 251.1168302 -173.67310977 237.58682328 C-173.67402241 230.0024079 -173.67966986 222.41806494 -173.69792938 214.83366966 C-173.71343561 208.37047651 -173.71838967 201.90737815 -173.71019128 195.4441699 C-173.70632102 192.15467144 -173.70871232 188.8654004 -173.72124863 185.5759182 C-173.78905268 166.66157324 -172.465397 148.96591274 -167.22517395 130.70294189 C-166.92731995 129.65582031 -166.62946594 128.60869873 -166.32258606 127.52984619 C-152.640015 81.3288203 -119.16764141 43.18422238 -77.35017395 20.14044189 C-53.7596376 7.53318062 -26.7878381 -0.02228567 0 0 Z M-39.16267395 11.95294189 C-40.03391907 12.21301025 -40.90516418 12.47307861 -41.80281067 12.74102783 C-61.46143382 18.74029107 -79.90811384 27.76931826 -96.35017395 40.14044189 C-97.19450989 40.77337158 -98.03884583 41.40630127 -98.9087677 42.05841064 C-120.37922616 58.71948641 -136.87892446 79.03629483 -149.35017395 103.14044189 C-149.66825012 103.75065186 -149.98632629 104.36086182 -150.31404114 104.98956299 C-164.27426663 132.15875837 -167.66222223 160.79758964 -167.60896301 190.89971924 C-167.61167717 193.4851542 -167.61524048 196.07058838 -167.61958313 198.65602112 C-167.62842362 204.91819221 -167.62657897 211.18031505 -167.62075785 217.44248794 C-167.61621935 222.53828844 -167.61563786 227.63407553 -167.61780548 232.72987747 C-167.61811195 233.45840756 -167.61841841 234.18693765 -167.61873417 234.93754441 C-167.6193737 236.41810897 -167.62002212 237.89867353 -167.62067935 239.37923808 C-167.6263672 253.22641816 -167.61984951 267.07357164 -167.60907862 280.92074735 C-167.60014829 292.7677552 -167.60169388 304.61472382 -167.61091614 316.46173096 C-167.6216527 330.26024699 -167.62581407 344.05873977 -167.61969161 357.85725939 C-167.6190546 359.33263119 -167.61842586 360.80800298 -167.61780548 362.28337479 C-167.61749693 363.00904709 -167.61718838 363.73471938 -167.61687048 364.48238175 C-167.61515338 369.56312368 -167.6180373 374.64385069 -167.62276459 379.7245903 C-167.62900508 386.58163064 -167.62447424 393.43859632 -167.61297607 400.2956295 C-167.61034886 402.80086457 -167.61106108 405.30610591 -167.6155014 407.81133842 C-167.64168852 424.09736121 -167.33034623 440.13433547 -163.60017395 456.07794189 C-163.4295343 456.81552734 -163.25889465 457.55311279 -163.08308411 458.31304932 C-152.37246097 502.91858793 -124.85522347 541.31706463 -86.35017395 566.14044189 C-85.74818176 566.53586182 -85.14618958 566.93128174 -84.5259552 567.33868408 C-52.67165071 588.043982 -17.77735929 593.46542286 19.43083191 593.39923096 C22.00656228 593.4019456 24.58229188 593.40550917 27.15802002 593.40985107 C33.3926485 593.41868549 39.62722849 593.41684977 45.86185878 593.41102579 C50.93522881 593.40648526 56.00858538 593.40590667 61.08195686 593.40807343 C61.8075761 593.40837989 62.53319534 593.40868636 63.28080304 593.40900211 C64.75548907 593.40964165 66.23017509 593.41029007 67.70486111 593.41094729 C81.49243403 593.41663326 95.27998023 593.41012024 109.06754876 593.39934656 C120.86281016 593.39041453 132.65803216 593.3919636 144.45329285 593.40118408 C158.19431742 593.41192076 171.93531865 593.41608211 185.67634684 593.40995955 C187.14552438 593.40932255 188.61470192 593.4086938 190.08387947 593.40807343 C190.80649267 593.40776487 191.52910587 593.40745632 192.27361644 593.40713842 C197.33232861 593.4054215 202.3910258 593.40830482 207.44973564 593.41303253 C214.27642065 593.41927309 221.10303066 593.41474205 227.92970848 593.40324402 C230.42365649 593.40061696 232.9176108 593.40132877 235.41155624 593.40576935 C264.38266252 593.45256704 292.06460671 590.32557257 318.64982605 578.14044189 C319.72417908 577.65486816 319.72417908 577.65486816 320.82023621 577.15948486 C356.53206898 560.81959767 384.20697769 532.42052649 402.64982605 498.14044189 C403.18220886 497.15817627 403.71459167 496.17591064 404.2631073 495.16387939 C410.47714859 483.24961935 414.63227371 471.32519007 417.39982605 458.20294189 C417.59842224 457.2635376 417.79701843 456.3241333 418.00163269 455.35626221 C421.44481491 438.03270556 421.94450531 421.11098921 421.92448425 403.5088501 C421.92883975 400.96078849 421.93402567 398.41272819 421.93997192 395.8646698 C421.9519064 389.70002111 421.95452413 383.53543257 421.95217166 377.3707746 C421.95037771 372.35134167 421.95216102 367.33192184 421.9563961 362.31249046 C421.95699129 361.59400105 421.95758648 360.87551164 421.95819971 360.13524982 C421.95941165 358.67490799 421.96062579 357.21456615 421.96184208 355.75422432 C421.97268262 342.10288944 421.97057193 328.45157935 421.96445724 314.8002431 C421.95929312 302.36162504 421.97053641 289.92308542 421.98955546 277.48448286 C422.00901422 264.65819031 422.01717573 251.83193471 422.0134322 239.00562733 C422.01153204 231.8264671 422.01389055 224.64737353 422.02814674 217.46822548 C422.04143239 210.71042682 422.03869241 203.95280893 422.02573586 197.1950016 C422.02339085 194.73217717 422.02602901 192.26934146 422.03435898 189.80653 C422.09315692 171.05228209 421.27188102 152.2132854 416.02482605 134.07794189 C415.77104187 133.18349365 415.51725769 132.28904541 415.25578308 131.36749268 C402.12546715 87.01672159 370.95066957 49.50138465 330.59587097 27.2288208 C314.73655506 18.7375558 297.91179694 12.41515073 280.27482605 8.82794189 C279.49139832 8.66850098 278.70797058 8.50906006 277.90080261 8.3447876 C267.74623995 6.42144638 257.51874985 5.99097566 247.20500183 6 C245.57532644 5.99554332 245.57532644 5.99554332 243.91272831 5.9909966 C240.30685702 5.98239124 236.70101925 5.98080833 233.09513855 5.97930908 C230.49530976 5.97467512 227.89548164 5.96964969 225.2956543 5.96426392 C218.25599203 5.95075535 211.21633551 5.94466774 204.17666245 5.94025326 C199.77026501 5.93747837 195.36386973 5.93323886 190.95747375 5.92874908 C178.72600442 5.91656667 166.49453679 5.90626503 154.26306152 5.90287399 C153.48216201 5.90265443 152.7012625 5.90243486 151.89669937 5.90220864 C151.11407464 5.90199036 150.33144992 5.90177209 149.52510929 5.90154719 C147.93956566 5.90110375 146.35402203 5.90065719 144.76847839 5.90020752 C143.98201648 5.89998609 143.19555456 5.89976466 142.38526046 5.89953652 C129.65721777 5.895593 116.92923248 5.87814797 104.20121193 5.854848 C91.09258935 5.83104754 77.98399547 5.81866822 64.87535095 5.81750607 C57.53185389 5.81659423 50.18843169 5.81096684 42.84495544 5.79268646 C35.93047573 5.77553291 29.0161394 5.77409728 22.10164452 5.78282547 C19.57831631 5.78359065 17.0549802 5.77932256 14.53167152 5.76936722 C-3.72827948 5.70160819 -21.58916812 6.5586238 -39.16267395 11.95294189 Z " fill="#020100" transform="translate(173.3501739501953,-0.14044189453125)"/>
<path d="M0 0 C7.93952024 5.80988869 12.92523804 12.83266628 17.8125 21.25 C18.50138128 22.40650583 19.19208914 23.56192539 19.88452148 24.71630859 C21.27722421 27.04138262 22.66224238 29.3707422 24.04101562 31.70410156 C26.82148888 36.38211614 29.68660766 41.005263 32.5625 45.625 C33.61981004 47.33201987 34.67710157 49.0390512 35.734375 50.74609375 C39.24572102 56.40243274 42.77944771 62.04470421 46.3125 67.6875 C52.2579799 77.18337946 58.14226751 86.7155535 64.00341797 96.26367188 C68.61062603 103.76205199 73.26212913 111.23146102 77.9375 118.6875 C83.39781159 127.39672894 88.76772077 136.15191805 94 145 C98.81454211 138.29609298 103.26101891 131.45465056 107.5 124.375 C112.58094151 115.95858934 117.72143635 107.58339487 122.9375 99.25 C123.84048828 97.80633057 123.84048828 97.80633057 124.76171875 96.33349609 C125.92437255 94.47794435 127.08943314 92.62389814 128.25708008 90.77148438 C129.46512935 88.8505185 130.66493899 86.92435568 131.8581543 84.99414062 C132.4644165 84.02154297 133.07067871 83.04894531 133.6953125 82.046875 C134.23559082 81.17385742 134.77586914 80.30083984 135.33251953 79.40136719 C139.71069219 73.09628574 145.47042286 68.69186855 153 67 C159.4471949 66.29666965 165.52953974 67.66060067 170.9296875 71.30078125 C176.94696669 76.33182589 180.62337741 82.21711813 184.5625 88.9375 C185.25624356 90.09664357 185.95158818 91.25483025 186.6484375 92.41210938 C188.07648238 94.78482122 189.4990559 97.16068314 190.91845703 99.53857422 C194.0345818 104.74078494 197.26997214 109.86803986 200.5 115 C206.3920393 124.39793072 212.21555503 133.8365519 218.01953125 143.2890625 C222.47995915 150.5470015 226.97639951 157.78128596 231.5 165 C237.38720484 174.39473952 243.21096821 183.82695136 249.01074219 193.27587891 C253.55174772 200.6669018 258.13925327 208.02732634 262.75 215.375 C267.51874036 222.98478548 272.23945272 230.62074848 276.875 238.3125 C277.3812793 239.14894043 277.88755859 239.98538086 278.40917969 240.84716797 C279.09995605 241.99983154 279.09995605 241.99983154 279.8046875 243.17578125 C280.40772705 244.17992065 280.40772705 244.17992065 281.02294922 245.2043457 C283.88729274 250.46852527 283.60986665 256.18499242 283 262 C280.78419864 269.33078208 276.3923559 274.83059139 270 279 C264.93780892 281.49953874 261.29870853 282.37569191 255.56045055 282.38031673 C254.48155603 282.38730661 254.48155603 282.38730661 253.38086566 282.3944377 C250.97598753 282.40636774 248.57167646 282.39700022 246.16679382 282.38768005 C244.42308532 282.39185386 242.67937953 282.39733163 240.93567878 282.40399987 C236.14788051 282.41846728 231.3602542 282.41420566 226.57244647 282.40683305 C221.40735098 282.40210685 216.24229298 282.41460645 211.07720947 282.42485046 C200.95945005 282.44205506 190.84175268 282.44287495 180.72398242 282.43763756 C172.50006708 282.4335974 164.27617009 282.43503759 156.05225563 282.44038582 C154.29704241 282.44150845 154.29704241 282.44150845 152.50637034 282.44265376 C150.12926739 282.44418523 147.75216444 282.44572358 145.37506149 282.44726873 C123.07758319 282.46100001 100.78013997 282.45555187 78.48266248 282.44408352 C58.08470402 282.43415246 37.68683628 282.44708853 17.28889181 282.47101771 C-3.65503736 282.49540227 -24.59892427 282.50501804 -45.54286736 282.49836498 C-57.30153204 282.49487109 -69.06012695 282.49711602 -80.8187809 282.51461601 C-90.82969444 282.52933 -100.8404891 282.52998397 -110.85140029 282.5125451 C-115.95845926 282.50402581 -121.06530579 282.50190831 -126.17235374 282.51719666 C-130.84998927 282.53102605 -135.52723 282.52630296 -140.20484259 282.50695742 C-141.89457013 282.50319172 -143.58432917 282.5061358 -145.2740287 282.51656907 C-157.32963194 282.58569866 -167.12408199 281.53180043 -176.24609375 272.92578125 C-182.42998693 266.13589408 -185.27860256 258.9655949 -185.375 249.75 C-185.40335938 248.52796875 -185.43171875 247.3059375 -185.4609375 246.046875 C-184.86241403 236.6855938 -179.18619105 228.64545184 -174.25 221 C-172.90005492 218.87562671 -171.55113139 216.750604 -170.203125 214.625 C-169.50896484 213.53445313 -168.81480469 212.44390625 -168.09960938 211.3203125 C-164.68010272 205.91272059 -161.34190125 200.45576432 -158 195 C-152.26078515 185.65049938 -146.46987833 176.33509006 -140.64453125 167.0390625 C-136.05977338 159.71498389 -131.52124944 152.36342751 -127 145 C-121.25968448 135.65116893 -115.46988479 126.33510036 -109.64453125 117.0390625 C-105.05977338 109.71498389 -100.52124944 102.36342751 -96 95 C-90.25968448 85.65116893 -84.46988479 76.33510036 -78.64453125 67.0390625 C-74.7416141 60.80421371 -70.86778688 54.55235621 -67.01782227 48.28466797 C-65.67908212 46.10542902 -64.33844215 43.92735595 -62.99584961 41.75048828 C-59.62562765 36.28555262 -56.27922483 30.80839976 -52.97265625 25.3046875 C-51.66949885 23.16131968 -50.36612185 21.01808536 -49.0625 18.875 C-48.48435547 17.89789063 -47.90621094 16.92078125 -47.31054688 15.9140625 C-41.73899918 6.81662089 -35.2073467 -0.1344768 -24.8203125 -3.375 C-15.92594221 -5.34605159 -8.07576825 -4.17251487 0 0 Z M-37 12.375 C-38.02990898 13.89684875 -39.02501083 15.44239535 -40 17 C-40.3393457 17.53351074 -40.67869141 18.06702148 -41.02832031 18.61669922 C-43.12257902 21.90934931 -45.18890366 25.21830828 -47.23828125 28.5390625 C-50.06118623 33.111018 -52.93510046 37.64971795 -55.8125 42.1875 C-62.28286762 52.41236848 -68.64367097 62.70400188 -75 73 C-77.1239327 76.43816071 -79.24897545 79.87563242 -81.375 83.3125 C-81.90818848 84.17447998 -82.44137695 85.03645996 -82.99072266 85.92456055 C-87.07757466 92.5250397 -91.19223213 99.10784327 -95.3125 105.6875 C-101.26312142 115.19143101 -107.15150507 124.73229155 -113.01879883 134.2878418 C-118.08932985 142.53860396 -123.21310704 150.75481082 -128.35546875 158.9609375 C-133.62007033 167.37105575 -138.8203795 175.8197975 -144.01074219 184.27587891 C-148.55175009 191.66690565 -153.1396275 199.02708918 -157.75 206.375 C-162.48076394 213.93203955 -167.18701086 221.50297376 -171.8125 229.125 C-172.55935059 230.34195557 -172.55935059 230.34195557 -173.32128906 231.58349609 C-177.52793606 238.56344701 -180.08338711 244.75568834 -179 253 C-176.579254 261.3852645 -172.97037412 267.11753864 -165.4375 271.75 C-164.01244141 272.63945313 -164.01244141 272.63945313 -162.55859375 273.546875 C-158.06700496 276.09782314 -154.22314367 276.13966925 -149.19831848 276.12025452 C-148.39537894 276.12110894 -147.59243941 276.12196337 -146.76516837 276.12284368 C-144.06583523 276.1244951 -141.36656378 276.11898261 -138.66723633 276.11352539 C-136.73578391 276.11324342 -134.80433138 276.11340145 -132.87287903 276.1139679 C-127.62114871 276.11425549 -122.3694411 276.10836493 -117.11771607 276.10139394 C-111.63240819 276.09515403 -106.14709982 276.09455609 -100.66178894 276.09336853 C-90.27083901 276.0902571 -79.87989956 276.08204623 -69.48895425 276.07201904 C-57.66081609 276.06085208 -45.83267743 276.05534598 -34.00453532 276.05032361 C-9.66968439 276.03986348 14.66515722 276.02226766 39 276 C38.57847656 275.31292969 38.15695312 274.62585938 37.72265625 273.91796875 C37.17480469 273.01691406 36.62695312 272.11585938 36.0625 271.1875 C35.51722656 270.29417969 34.97195313 269.40085937 34.41015625 268.48046875 C31.02420709 262.5245748 30.73220697 255.66125754 32 249 C33.99202982 244.1066497 36.6209545 239.80047947 39.4765625 235.3671875 C41.1393389 232.78348878 42.75902851 230.17571516 44.375 227.5625 C46.89154673 223.50276542 49.42560854 219.45472793 51.97265625 215.4140625 C56.02835925 208.97108575 60.01919998 202.4894423 64 196 C70.02441273 186.18629968 76.09962855 176.40648985 82.21679688 166.65039062 C82.80138672 165.71775391 83.38597656 164.78511719 83.98828125 163.82421875 C84.49915283 163.01041748 85.01002441 162.19661621 85.53637695 161.3581543 C86.01937256 160.57996338 86.50236816 159.80177246 87 159 C87.55679443 158.1327832 88.11358887 157.26556641 88.68725586 156.37207031 C90.22159896 154.0468286 90.22159896 154.0468286 90.015625 151.22265625 C88.61818136 146.78846008 86.30731264 143.29451598 83.75 139.4375 C82.6460741 137.73245751 81.54324707 136.02670316 80.44140625 134.3203125 C79.8705127 133.44149414 79.29961914 132.56267578 78.71142578 131.65722656 C75.97737748 127.4122363 73.3335948 123.11265899 70.6875 118.8125 C66.04775132 111.29547967 61.37677932 103.79871089 56.6875 96.3125 C50.69732211 86.74434844 44.76133879 77.14389571 38.85595703 67.52319336 C35.72530298 62.42370236 32.5877223 57.32920689 29.41796875 52.25390625 C28.29926889 50.46106869 27.18077279 48.66810397 26.0625 46.875 C25.26416748 45.59580688 25.26416748 45.59580688 24.44970703 44.29077148 C21.21366714 39.06891057 18.18364962 33.77123523 15.25 28.375 C10.17404554 19.1110367 3.45159871 7.94893055 -6.75390625 3.91015625 C-18.43500291 0.63495105 -29.27547355 2.71934194 -37 12.375 Z M139.30297852 84.16894531 C135.78502958 88.49356483 132.98307694 93.12546162 130.1875 97.9375 C128.97142938 99.98259045 127.75396133 102.02685052 126.53515625 104.0703125 C125.93848145 105.07610352 125.34180664 106.08189453 124.72705078 107.11816406 C122.2636866 111.22864623 119.70291839 115.27323347 117.125 119.3125 C110.27303442 130.08995042 103.60965913 140.9824836 96.92675781 151.86523438 C89.56699571 163.83930247 82.14595322 175.77470623 74.6875 187.6875 C66.72169751 200.41559086 58.83800116 213.19285187 51 226 C50.50677246 226.80421387 50.01354492 227.60842773 49.50537109 228.43701172 C46.9569347 232.59880653 44.45256018 236.78094824 42 241 C41.45601562 241.91394531 40.91203125 242.82789063 40.3515625 243.76953125 C37.12690872 249.56856333 35.99694722 254.38215752 37 261 C38.8615991 267.20533034 43.97056782 271.18236941 49 275 C52.78950702 276.26316901 56.33781536 276.14807685 60.28607178 276.14717102 C61.56882724 276.15268605 61.56882724 276.15268605 62.87749696 276.1583125 C65.75394931 276.16935905 68.63036554 276.17319482 71.50683594 276.17700195 C73.5648612 276.18326584 75.62288532 276.18991257 77.6809082 276.19691467 C83.28019161 276.21433053 88.87946647 276.22487791 94.47877026 276.2331202 C97.97594285 276.23826884 101.47311279 276.24434461 104.97028351 276.25063133 C115.9090318 276.26968455 126.84777333 276.28391574 137.78653502 276.2922433 C150.41932727 276.30201895 163.05194444 276.32834658 175.68467498 276.36874419 C185.44527517 276.39888763 195.20582512 276.41371047 204.96647096 276.41702431 C210.79787346 276.41937669 216.62908896 276.42836176 222.46044159 276.45348549 C227.94666014 276.47674027 233.43256821 276.48100977 238.91882324 276.47072411 C240.93159263 276.47022802 242.94437716 276.47656991 244.95709991 276.49028015 C247.70710378 276.50796338 250.45598908 276.50091049 253.20599365 276.48774719 C254.00065655 276.49871644 254.79531944 276.50968568 255.61406302 276.52098733 C261.96560094 276.44769276 266.18510468 274.60363543 270.92578125 270.21875 C271.38339844 269.6515625 271.84101562 269.084375 272.3125 268.5 C272.78300781 267.9328125 273.25351562 267.365625 273.73828125 266.78125 C277.20820448 261.88253486 277.80397521 257.89600329 277 252 C274.0219911 244.42146953 269.35214857 237.52860036 265 230.6875 C263.65843874 228.56015776 262.3173005 226.43254869 260.9765625 224.3046875 C260.30786133 223.24604492 259.63916016 222.18740234 258.95019531 221.09667969 C256.06642082 216.51758659 253.21857276 211.91662884 250.375 207.3125 C249.84567871 206.4565625 249.31635742 205.600625 248.77099609 204.71875 C246.65183515 201.29185645 244.53397021 197.86416265 242.41601562 194.43652344 C236.19987441 184.37830233 229.96291243 174.33386603 223.6875 164.3125 C217.02991687 153.67795046 210.4468543 142.99866803 203.87890625 132.30859375 C200.20135835 126.32374476 196.51048921 120.34723655 192.8125 114.375 C192.29606934 113.54073486 191.77963867 112.70646973 191.24755859 111.84692383 C190.75980957 111.05954834 190.27206055 110.27217285 189.76953125 109.4609375 C189.30643555 108.71231445 188.84333984 107.96369141 188.36621094 107.19238281 C187.45057838 105.72305109 186.52663569 104.25886742 185.59472656 102.79980469 C183.45188502 99.4364955 181.52485477 96.25218805 180.125 92.5 C177.05011136 85.30872817 170.45468577 77.36369717 163.125 74.1875 C151.69468653 73.17894293 146.81012139 75.66222457 139.30297852 84.16894531 Z " fill="#060504" transform="translate(248,171)"/>
<path d="M0 0 C8.96259992 7.43101639 15.92855806 16.47041913 17.6875 28.25 C18.58956724 42.4575591 15.94935314 53.3000845 6.90625 64.4453125 C-1.47963156 73.48419304 -11.91753363 78.07653398 -24.125 78.5625 C-36.31193822 78.24129388 -46.47754466 73.83730642 -55.5 65.75 C-63.77857567 57.01711225 -67.72641955 45.74707754 -67.5234375 33.83203125 C-66.49752215 21.27406738 -61.94704462 10.8520473 -52.79296875 2.140625 C-36.80747731 -10.0435921 -16.81866377 -11.73700123 0 0 Z " fill="#FDFDFD" transform="translate(383.3125,106.75)"/>
<path d="M0 0 C1.39090345 1.02033428 2.76710227 2.06113525 4.125 3.125 C4.73859375 3.57617188 5.3521875 4.02734375 5.984375 4.4921875 C14.84228821 11.42957971 21.02761362 22.07876507 23.125 33.125 C23.53252468 41.26601636 23.64470922 49.30370606 21.125 57.125 C20.89167969 57.91003906 20.65835938 58.69507813 20.41796875 59.50390625 C16.4197579 71.16991874 7.64012334 79.99238336 -2.875 86.125 C-15.83222591 92.06013411 -29.33230948 93.02183628 -42.8671875 88.390625 C-47.33681794 86.50989739 -51.06917742 84.10672714 -54.875 81.125 C-55.48859375 80.67382812 -56.1021875 80.22265625 -56.734375 79.7578125 C-66.81603797 71.86199681 -71.83565807 60.55344233 -73.875 48.125 C-74.79519888 34.94138142 -72.55513404 23.96420395 -64.875 13.125 C-64.21371094 12.18720703 -64.21371094 12.18720703 -63.5390625 11.23046875 C-57.05463977 2.92815872 -47.83013082 -2.73407637 -37.875 -5.875 C-37.27429688 -6.06578125 -36.67359375 -6.2565625 -36.0546875 -6.453125 C-23.7274121 -8.83904927 -10.57847336 -6.77878562 0 0 Z M-57.28125 13.1640625 C-65.15050759 22.84633532 -69.15996596 34.57905963 -67.875 47.125 C-66.48387283 59.15935405 -60.29949611 69.641713 -50.875 77.125 C-40.62704823 84.09180932 -29.4161369 86.75397459 -17.15234375 84.66015625 C-6.72437908 82.18149798 2.57951815 76.712564 9.125 68.125 C15.94377683 56.45643423 18.91889977 45.96441134 16.6640625 32.33984375 C13.70865011 21.37004835 7.00934351 11.20125603 -2.84375 5.3671875 C-21.78571001 -4.3382227 -42.23954563 -3.08381628 -57.28125 13.1640625 Z " fill="#0B0806" transform="translate(383.875,99.875)"/>
</svg>
