<?xml version="1.0" encoding="UTF-8"?>
<svg version="1.1" xmlns="http://www.w3.org/2000/svg" width="750" height="750">
<path d="M0 0 C3.33908023 -0.00217687 6.677824 -0.02036428 10.0168457 -0.03930664 C28.59888898 -0.08933925 46.7406918 1.28881072 65.05786133 4.43530273 C66.33169678 4.6536377 67.60553223 4.87197266 68.91796875 5.09692383 C100.13212974 10.59466262 130.54383958 19.8081003 159.30786133 33.18530273 C160.24275391 33.61311035 161.17764648 34.04091797 162.14086914 34.48168945 C187.15541281 45.95598542 210.69022538 60.09162239 232.30786133 77.18530273 C232.91936035 77.66821777 233.53085937 78.15113281 234.16088867 78.64868164 C242.66943056 85.39368766 250.89290654 92.34383338 258.80297852 99.78198242 C260.41864976 101.28861421 262.05247402 102.77352295 263.69067383 104.25561523 C268.90701873 108.98637446 273.99565501 113.66933655 278.51879883 119.08374023 C280.33422488 121.21627127 282.23052838 123.25913901 284.14672852 125.30102539 C346.37819285 191.86069883 378.51081564 283.97957201 378.55786133 374.18530273 C378.55887344 375.9267305 378.55887344 375.9267305 378.55990601 377.70333862 C378.54358154 395.39249752 378.07262395 412.68233235 375.30786133 430.18530273 C375.13625488 431.29405762 374.96464844 432.4028125 374.7878418 433.54516602 C363.24973197 505.87746312 330.39202294 581.1359608 276.85083008 632.64233398 C275.22488163 634.26828244 273.77861055 635.98068087 272.30786133 637.74780273 C215.02277568 704.00370717 121.95640611 741.81715847 36.55395508 749.77514648 C25.82846535 750.53028144 15.05446612 750.42969797 4.30786133 750.43530273 C2.56643356 750.43631485 2.56643356 750.43631485 0.78982544 750.43734741 C-16.89933346 750.42102295 -34.18916829 749.95006535 -51.69213867 747.18530273 C-52.80089355 747.01369629 -53.90964844 746.84208984 -55.05200195 746.6652832 C-124.69865531 735.55557471 -189.24680889 705.39669768 -242.62963867 659.43530273 C-243.23267822 658.91637451 -243.83571777 658.39744629 -244.45703125 657.86279297 C-248.13953315 654.65163499 -251.63183824 651.3063761 -255.04296875 647.80810547 C-256.77190154 646.10681512 -258.57904532 644.55004273 -260.44213867 642.99780273 C-265.51141211 638.62469644 -269.90818657 633.64203344 -274.36352539 628.66235352 C-275.5667623 627.32468661 -276.78672721 626.00211344 -278.00854492 624.68139648 C-311.73503651 588.05889131 -336.50153187 543.03982394 -352.69213867 496.18530273 C-353.21203369 494.68290039 -353.21203369 494.68290039 -353.74243164 493.15014648 C-362.37726683 467.74450645 -368.00828974 440.8876358 -370.69213867 414.18530273 C-370.83244507 412.89293701 -370.83244507 412.89293701 -370.97558594 411.57446289 C-371.97453078 400.92909679 -371.87821519 390.25143932 -371.87744141 379.56860352 C-371.87961571 376.2206527 -371.89779028 372.87303878 -371.91674805 369.52514648 C-371.95263004 355.96031265 -371.32336379 342.65260947 -369.69213867 329.18530273 C-369.55138916 328.00210449 -369.41063965 326.81890625 -369.265625 325.59985352 C-364.67373438 289.82877192 -354.95429598 254.36380341 -339.80151367 221.59057617 C-338.66878683 219.13467283 -337.57072745 216.66500512 -336.47338867 214.19311523 C-326.8874174 192.98022303 -314.67592159 172.78328016 -300.69213867 154.18530273 C-300.2517627 153.59620117 -299.81138672 153.00709961 -299.35766602 152.40014648 C-296.52141441 148.61988717 -293.62557296 144.89094903 -290.69213867 141.18530273 C-289.95479492 140.25331055 -289.21745117 139.32131836 -288.45776367 138.36108398 C-283.25007923 131.88841237 -277.71872766 125.7557637 -272.06518555 119.67602539 C-269.84804809 117.26887011 -267.6829597 114.81506143 -265.50463867 112.37280273 C-262.04579356 108.55822197 -258.48226724 105.09777137 -254.54370117 101.78686523 C-252.71777347 100.2074763 -251.05408293 98.54823303 -249.37963867 96.81030273 C-244.82286258 92.19194859 -239.76057857 88.22320306 -234.69213867 84.18530273 C-233.65284541 83.34313951 -232.6137878 82.50068541 -231.57495117 81.65795898 C-214.94925001 68.27077216 -197.3047442 56.61705775 -178.69213867 46.18530273 C-177.83539551 45.70464355 -176.97865234 45.22398438 -176.09594727 44.72875977 C-137.3612256 23.22761229 -94.86735837 9.97945915 -51.19213867 3.31030273 C-50.17313477 3.15443695 -50.17313477 3.15443695 -49.13354492 2.99542236 C-32.70201893 0.52058391 -16.58457482 -0.00120571 0 0 Z " fill="#FEF1CB" transform="translate(371.692138671875,-0.185302734375)"/>
<path d="M0 0 C4.02604338 1.61041735 7.38221782 3.27959526 11.09375 5.45703125 C11.67280594 5.79589859 12.25186188 6.13476593 12.84846497 6.48390198 C14.73460341 7.58958234 16.61743911 8.70074091 18.5 9.8125 C19.82185675 10.59000986 21.1437155 11.36751634 22.46557617 12.14501953 C30.62618899 16.95532038 38.71416358 21.86922107 46.74291992 26.89697266 C54.85566422 31.95797675 63.08186857 36.82174886 71.3125 41.6875 C79.83116485 46.72410507 88.33949238 51.76026962 96.6887207 57.07495117 C104.02857287 61.70997036 111.52870682 66.08162016 119 70.5 C136.20608476 80.67534931 136.20608476 80.67534931 143 85 C150.7854374 89.95416579 158.74509983 94.61637671 166.6875 99.3125 C176.48965117 105.10834064 186.24407026 110.95968803 195.89794922 117.00048828 C203.96106775 122.02312931 212.13601761 126.85269723 220.3125 131.6875 C236.93267768 141.515986 236.93267768 141.515986 244.125 146.0625 C249.25406524 149.30082956 254.41405931 152.47978049 259.6171875 155.59765625 C260.2970874 156.00587616 260.9769873 156.41409607 261.67749023 156.83468628 C268.44699049 160.89758253 275.222393 164.95064457 282 169 C278.71902718 171.72535098 275.44143068 174.03219711 271.73828125 176.14453125 C270.71541016 176.73105469 269.69253906 177.31757813 268.63867188 177.921875 C267.54103516 178.54578125 266.44339844 179.1696875 265.3125 179.8125 C264.15013283 180.47741412 262.98802819 181.14278737 261.82617188 181.80859375 C259.4145854 183.1900913 257.00188656 184.56961565 254.58837891 185.94775391 C249.04829045 189.11338555 243.52506019 192.30823887 238 195.5 C235.83341204 196.75013641 233.66674512 198.000136 231.5 199.25 C230.4275 199.86875 229.355 200.4875 228.25 201.125 C218.5 206.75 218.5 206.75 215.24951172 208.62524414 C213.08442929 209.87435518 210.91939018 211.12354129 208.75439453 212.37280273 C203.31384294 215.51202309 197.87252784 218.64990563 192.4296875 221.78515625 C180.94693103 228.40141117 169.48039099 235.04390011 158.03857422 241.73071289 C149.61430661 246.65051282 141.16446104 251.52522138 132.7109375 256.39453125 C125.46048459 260.57349158 118.22516137 264.77747989 111 269 C97.26953183 277.02281678 83.48921914 284.95858328 69.70898438 292.89550781 C43.11054736 308.21699264 43.11054736 308.21699264 16.64453125 323.765625 C15.1126416 324.67417236 15.1126416 324.67417236 13.54980469 325.60107422 C11.59475798 326.76202301 9.64093113 327.92502912 7.68847656 329.09033203 C6.82319336 329.60450684 5.95791016 330.11868164 5.06640625 330.6484375 C4.30271729 331.10395996 3.53902832 331.55948242 2.75219727 332.02880859 C1 333 1 333 0 333 C0 223.11 0 113.22 0 0 Z " fill="#FEFEFE" transform="translate(273,207)"/>
<path d="M0 0 C3.33908023 -0.00217687 6.677824 -0.02036428 10.0168457 -0.03930664 C28.59888898 -0.08933925 46.7406918 1.28881072 65.05786133 4.43530273 C66.33169678 4.6536377 67.60553223 4.87197266 68.91796875 5.09692383 C100.13212974 10.59466262 130.54383958 19.8081003 159.30786133 33.18530273 C160.24275391 33.61311035 161.17764648 34.04091797 162.14086914 34.48168945 C187.15541281 45.95598542 210.69022538 60.09162239 232.30786133 77.18530273 C232.91936035 77.66821777 233.53085937 78.15113281 234.16088867 78.64868164 C242.66943056 85.39368766 250.89290654 92.34383338 258.80297852 99.78198242 C260.41864976 101.28861421 262.05247402 102.77352295 263.69067383 104.25561523 C268.90701873 108.98637446 273.99565501 113.66933655 278.51879883 119.08374023 C280.33422488 121.21627127 282.23052838 123.25913901 284.14672852 125.30102539 C346.37819285 191.86069883 378.51081564 283.97957201 378.55786133 374.18530273 C378.55887344 375.9267305 378.55887344 375.9267305 378.55990601 377.70333862 C378.54358154 395.39249752 378.07262395 412.68233235 375.30786133 430.18530273 C375.13625488 431.29405762 374.96464844 432.4028125 374.7878418 433.54516602 C363.24973197 505.87746312 330.39202294 581.1359608 276.85083008 632.64233398 C275.22488163 634.26828244 273.77861055 635.98068087 272.30786133 637.74780273 C215.02277568 704.00370717 121.95640611 741.81715847 36.55395508 749.77514648 C25.82846535 750.53028144 15.05446612 750.42969797 4.30786133 750.43530273 C2.56643356 750.43631485 2.56643356 750.43631485 0.78982544 750.43734741 C-16.89933346 750.42102295 -34.18916829 749.95006535 -51.69213867 747.18530273 C-52.80089355 747.01369629 -53.90964844 746.84208984 -55.05200195 746.6652832 C-124.69865531 735.55557471 -189.24680889 705.39669768 -242.62963867 659.43530273 C-243.23267822 658.91637451 -243.83571777 658.39744629 -244.45703125 657.86279297 C-248.13953315 654.65163499 -251.63183824 651.3063761 -255.04296875 647.80810547 C-256.77190154 646.10681512 -258.57904532 644.55004273 -260.44213867 642.99780273 C-265.51141211 638.62469644 -269.90818657 633.64203344 -274.36352539 628.66235352 C-275.5667623 627.32468661 -276.78672721 626.00211344 -278.00854492 624.68139648 C-311.73503651 588.05889131 -336.50153187 543.03982394 -352.69213867 496.18530273 C-353.21203369 494.68290039 -353.21203369 494.68290039 -353.74243164 493.15014648 C-362.37726683 467.74450645 -368.00828974 440.8876358 -370.69213867 414.18530273 C-370.83244507 412.89293701 -370.83244507 412.89293701 -370.97558594 411.57446289 C-371.97453078 400.92909679 -371.87821519 390.25143932 -371.87744141 379.56860352 C-371.87961571 376.2206527 -371.89779028 372.87303878 -371.91674805 369.52514648 C-371.95263004 355.96031265 -371.32336379 342.65260947 -369.69213867 329.18530273 C-369.55138916 328.00210449 -369.41063965 326.81890625 -369.265625 325.59985352 C-364.67373438 289.82877192 -354.95429598 254.36380341 -339.80151367 221.59057617 C-338.66878683 219.13467283 -337.57072745 216.66500512 -336.47338867 214.19311523 C-326.8874174 192.98022303 -314.67592159 172.78328016 -300.69213867 154.18530273 C-300.2517627 153.59620117 -299.81138672 153.00709961 -299.35766602 152.40014648 C-296.52141441 148.61988717 -293.62557296 144.89094903 -290.69213867 141.18530273 C-289.95479492 140.25331055 -289.21745117 139.32131836 -288.45776367 138.36108398 C-283.25007923 131.88841237 -277.71872766 125.7557637 -272.06518555 119.67602539 C-269.84804809 117.26887011 -267.6829597 114.81506143 -265.50463867 112.37280273 C-262.04579356 108.55822197 -258.48226724 105.09777137 -254.54370117 101.78686523 C-252.71777347 100.2074763 -251.05408293 98.54823303 -249.37963867 96.81030273 C-244.82286258 92.19194859 -239.76057857 88.22320306 -234.69213867 84.18530273 C-233.65284541 83.34313951 -232.6137878 82.50068541 -231.57495117 81.65795898 C-214.94925001 68.27077216 -197.3047442 56.61705775 -178.69213867 46.18530273 C-177.83539551 45.70464355 -176.97865234 45.22398438 -176.09594727 44.72875977 C-137.3612256 23.22761229 -94.86735837 9.97945915 -51.19213867 3.31030273 C-50.17313477 3.15443695 -50.17313477 3.15443695 -49.13354492 2.99542236 C-32.70201893 0.52058391 -16.58457482 -0.00120571 0 0 Z M-10.71356201 13.25817871 C-79.58000917 15.8636554 -146.04860558 37.82192506 -202.69213867 77.18530273 C-203.90437826 78.01472982 -205.11661784 78.8441569 -206.32885742 79.67358398 C-231.86489791 97.34295211 -256.69553135 119.63042882 -275.69213867 144.18530273 C-276.66170807 145.34783144 -277.63605793 146.50638249 -278.61401367 147.66186523 C-287.53540088 158.26423104 -295.24749034 169.50784007 -302.69213867 181.18530273 C-303.11978516 181.85384277 -303.54743164 182.52238281 -303.98803711 183.21118164 C-334.53894704 231.39352618 -351.88181981 285.62147135 -357.69213867 342.18530273 C-357.83462036 343.50933105 -357.83462036 343.50933105 -357.97998047 344.86010742 C-366.54285182 433.46922525 -338.53096012 526.32214665 -283.69213867 596.18530273 C-282.75047852 597.39766602 -282.75047852 597.39766602 -281.78979492 598.63452148 C-279.78746251 601.1773608 -277.74507726 603.68316782 -275.69213867 606.18530273 C-274.94834961 607.11600586 -274.20456055 608.04670898 -273.43823242 609.00561523 C-266.36391546 617.67316044 -258.51585697 625.57795036 -250.62963867 633.49780273 C-249.79810272 634.33710327 -249.79810272 634.33710327 -248.94976807 635.19335938 C-241.86395222 642.33122104 -234.59247398 648.93958864 -226.69213867 655.18530273 C-225.51799379 656.1614911 -224.34690056 657.14137511 -223.18041992 658.12670898 C-201.31487739 676.30597588 -176.36071094 691.04754463 -150.69213867 703.18530273 C-149.95769531 703.53657227 -149.22325195 703.8878418 -148.46655273 704.24975586 C-128.98845726 713.51103899 -108.95587731 720.53386219 -88.12963867 726.06030273 C-87.07604156 726.34127808 -87.07604156 726.34127808 -86.00115967 726.62792969 C-70.48624552 730.7359018 -54.89131138 733.59235936 -38.94213867 735.37280273 C-38.1696579 735.4593512 -37.39717712 735.54589966 -36.60128784 735.6350708 C-9.19346816 738.60912188 19.98933614 739.33277163 47.30786133 735.18530273 C47.93267395 735.09057678 48.55748657 734.99585083 49.20123291 734.89825439 C91.20996573 728.47971974 131.43472944 717.34014154 169.19799805 697.30444336 C170.72998361 696.49182801 172.266017 695.68682941 173.80444336 694.88647461 C187.30280592 687.85235779 199.98444515 680.11760218 212.30786133 671.18530273 C213.02200195 670.66935547 213.73614258 670.1534082 214.47192383 669.62182617 C223.75895128 662.87502348 232.69923314 655.78108013 241.30786133 648.18530273 C242.03384521 647.54689453 242.7598291 646.90848633 243.5078125 646.25073242 C249.66038066 640.78259702 255.57646146 635.10297067 261.39453125 629.28393555 C262.86742105 627.81323864 264.34816398 626.35076739 265.8293457 624.88842773 C272.09874093 618.65573911 277.80723031 612.1104828 283.30786133 605.18530273 C284.2603528 604.046075 285.21668875 602.91003608 286.17895508 601.77905273 C301.01922891 584.04082221 313.52182898 564.07709924 324.08959961 543.54858398 C325.18336095 541.42681851 326.3012156 539.32037574 327.42895508 537.21655273 C334.05061249 524.66162803 339.14398313 511.38816243 344.30786133 498.18530273 C344.62529297 497.37947754 344.94272461 496.57365234 345.26977539 495.7434082 C354.82860123 471.1917841 359.45849574 445.13970784 363.30786133 419.18530273 C363.45626465 418.19884766 363.60466797 417.21239258 363.75756836 416.19604492 C369.47225193 375.97258637 366.27428887 331.48222502 356.30786133 292.18530273 C355.87449463 290.46972168 355.87449463 290.46972168 355.43237305 288.71948242 C341.82972039 235.70654966 317.81916151 186.05775755 282.30786133 144.18530273 C281.53571289 143.22881836 280.76356445 142.27233398 279.96801758 141.28686523 C273.0587215 132.83503473 265.43997898 125.10163502 257.74536133 117.37280273 C257.21483154 116.83709656 256.68430176 116.30139038 256.13769531 115.74945068 C249.19528489 108.75373189 242.03259171 102.32572024 234.30786133 96.18530273 C232.49278103 94.62580089 230.67969807 93.06396462 228.87036133 91.49780273 C162.80074064 36.51082809 74.42284933 10.18885672 -10.71356201 13.25817871 Z " fill="#807F7F" transform="translate(371.692138671875,-0.185302734375)"/>
<path d="M0 0 C3.9669087 1.06309999 7.16946773 2.64523521 10.62939453 4.78417969 C11.27234467 5.1689447 11.9152948 5.55370972 12.57772827 5.95013428 C14.66183996 7.20132184 16.73537232 8.4689654 18.80908203 9.73730469 C20.26360273 10.61518205 21.7186861 11.49212779 23.17431641 12.36816406 C31.68649334 17.50269665 40.15151884 22.71457053 48.57983398 27.9855957 C57.34476772 33.44832368 66.2442 38.68230647 75.13378906 43.93847656 C82.94319959 48.55746816 90.7283031 53.19757463 98.38378906 58.06884766 C105.61777231 62.63594253 113.00819037 66.94603324 120.37158203 71.29980469 C129.3608537 76.61500389 138.33061759 81.94747027 147.18408203 87.48730469 C155.93507161 92.96210541 164.79885577 98.23461026 173.68408203 103.48730469 C183.38628124 109.22297041 193.03868804 115.01709062 202.59423828 120.99511719 C210.55054607 125.95068918 218.6156877 130.71749819 226.68408203 135.48730469 C236.37747374 141.21776367 246.02296551 147.00390595 255.56787109 152.97973633 C265.13851788 158.94392933 274.86456565 164.64970726 284.58447266 170.36621094 C304.19923909 181.92065021 304.19923909 181.92065021 306.24658203 186.42480469 C305.52360053 191.00368752 304.19334606 192.27151323 300.60205078 195.06542969 C295.54032985 198.39925392 290.23308278 201.25771511 284.90283203 204.13574219 C279.25752329 207.19325864 273.72034893 210.42504044 268.18408203 213.67480469 C259.74186459 218.61978262 251.28599878 223.53952099 242.80908203 228.42480469 C241.73094238 229.04629395 240.65280273 229.6677832 239.54199219 230.30810547 C235.15945002 232.83375989 230.7762428 235.35825897 226.39306641 237.8828125 C214.80726437 244.5568678 203.2285485 251.24194553 191.68408203 257.98730469 C177.95353015 266.0099798 164.17330237 273.94588728 150.39306641 281.8828125 C138.80726437 288.5568678 127.2285485 295.24194553 115.68408203 301.98730469 C101.95353015 310.0099798 88.17330237 317.94588728 74.39306641 325.8828125 C63.73254262 332.02385695 53.07298814 338.16645608 42.44262695 344.35961914 C40.4544613 345.51786318 38.46506065 346.67399018 36.47436523 347.82788086 C31.47449705 350.73480031 26.51870286 353.6944725 21.60986328 356.75292969 C20.62469727 357.35862793 19.63953125 357.96432617 18.62451172 358.58837891 C16.76455129 359.73483908 14.9141053 360.89694651 13.07568359 362.07763672 C8.19879386 365.06461467 4.44336128 366.61154024 -1.31030273 366.57568359 C-4.22018483 365.72202372 -5.41147734 364.32798236 -7.31591797 361.98730469 C-7.81731462 359.1996069 -7.81731462 359.1996069 -7.81928253 355.91526794 C-7.82971352 354.66271493 -7.84014451 353.41016191 -7.85089159 352.11965275 C-7.84224309 350.72714574 -7.83321645 349.33464105 -7.82385254 347.94213867 C-7.82845994 346.46485243 -7.83481178 344.98757077 -7.84276152 343.51029873 C-7.85950029 339.44517092 -7.85118803 335.38041744 -7.83881664 331.31528807 C-7.82978697 326.93348336 -7.84372549 322.55174419 -7.85473633 318.16995239 C-7.87254847 309.58380306 -7.86866959 300.99779337 -7.85708576 292.4116385 C-7.8480623 285.4352111 -7.84682273 278.45882291 -7.85118103 271.48239136 C-7.85179396 270.49050888 -7.85240689 269.49862641 -7.8530384 268.47668689 C-7.85431727 266.46186994 -7.85561412 264.447053 -7.85692877 262.43223608 C-7.86834246 243.52707466 -7.85520849 224.62199076 -7.8337273 205.71684206 C-7.81585561 189.48566838 -7.81895949 173.25460911 -7.83740234 157.0234375 C-7.85879513 138.18719758 -7.86724375 119.35102564 -7.85495329 100.51477528 C-7.85367906 98.5072562 -7.85242157 96.49973711 -7.85118103 94.49221802 C-7.85056393 93.50440934 -7.84994683 92.51660066 -7.84931102 91.49885839 C-7.84585334 84.52859045 -7.85169546 77.55836553 -7.86109924 70.58810425 C-7.87230293 62.09683856 -7.8693136 53.60572083 -7.84797627 45.11447215 C-7.83744382 40.77979559 -7.83338118 36.44536596 -7.84657288 32.11069107 C-7.85845748 28.14562849 -7.85199987 24.18104264 -7.83066267 20.21602356 C-7.82617981 18.7786704 -7.82850048 17.34127728 -7.83816582 15.90394962 C-7.85026544 13.95577429 -7.83550626 12.00748678 -7.81928253 10.05934143 C-7.81863312 8.97550958 -7.81798371 7.89167772 -7.81731462 6.77500248 C-6.9574965 1.99452967 -4.8319396 -0.01849955 0 0 Z M5.68408203 17.98730469 C5.68408203 127.87730469 5.68408203 237.76730469 5.68408203 350.98730469 C12.61408203 347.02730469 12.61408203 347.02730469 19.68408203 342.98730469 C22.47259935 341.43921364 25.26313304 339.8966754 28.05908203 338.36230469 C37.24368838 333.28855037 46.29390292 327.99222594 55.34814453 322.69042969 C61.73690238 318.95095854 68.14527436 315.24610973 74.55908203 311.54980469 C75.63722168 310.92831543 76.71536133 310.30682617 77.82617188 309.66650391 C82.20871404 307.14084949 86.59192126 304.6163504 90.97509766 302.09179688 C103.55172123 294.8469742 116.1144516 287.57997659 128.64550781 280.2565918 C137.06977542 275.33679187 145.519621 270.46208331 153.97314453 265.59277344 C161.22359744 261.41381311 168.45892066 257.2098248 175.68408203 252.98730469 C187.23130689 246.24017355 198.81310322 239.55391098 210.40185547 232.87841797 C216.91137792 229.12784069 223.41802983 225.37228479 229.92480469 221.61694336 C235.38942866 218.46345307 240.85556105 215.31263428 246.32470703 212.16699219 C260.16747494 204.20083261 273.95558344 196.14889919 287.68408203 187.98730469 C283.98061944 184.87860636 280.10222572 182.32419046 275.93408203 179.89746094 C275.288302 179.51694077 274.64252197 179.13642059 273.97717285 178.74436951 C272.5972837 177.93151527 271.21643785 177.12028325 269.8347168 176.31054688 C266.18551218 174.17131511 262.54401072 172.01906723 258.90283203 169.86621094 C258.18276978 169.44066925 257.46270752 169.01512756 256.7208252 168.57669067 C251.16280446 165.28571528 245.65775375 161.9168643 240.18408203 158.48730469 C230.62953377 152.5077994 220.93593233 146.77239746 211.234375 141.03613281 C203.42496447 136.41714121 195.63986096 131.77703475 187.984375 126.90576172 C180.75039175 122.33866685 173.35997369 118.02857613 165.99658203 113.67480469 C156.19443086 107.87896405 146.44001177 102.02761666 136.78613281 95.98681641 C128.02072468 90.52670834 119.12313383 85.29181201 110.234375 80.03613281 C102.42867341 75.41933492 94.6464129 70.78261231 86.99536133 65.91235352 C79.65550432 61.27733126 72.15532102 56.90578503 64.68408203 52.48730469 C47.31509331 42.21448449 47.31509331 42.21448449 40.24658203 37.73730469 C33.89315702 33.71497941 27.48002421 29.79363524 21.04171753 25.90881348 C19.33679573 24.87904371 17.63456015 23.84483076 15.93237305 22.81054688 C14.89395264 22.18567383 13.85553223 21.56080078 12.78564453 20.91699219 C11.85059082 20.35222168 10.91553711 19.78745117 9.95214844 19.20556641 C7.81952041 17.82957309 7.81952041 17.82957309 5.68408203 17.98730469 Z " fill="#808080" transform="translate(267.31591796875,189.0126953125)"/>
</svg>
