<?xml version="1.0" encoding="UTF-8"?>
<svg version="1.1" xmlns="http://www.w3.org/2000/svg" width="363" height="360">
<path d="M0 0 C4.28264414 0.72724146 5.61370399 2.45016848 8.47265625 5.578125 C10.26032287 7.50622403 12.11824327 9.17914924 14.125 10.875 C17.33583755 13.63868029 20.33517165 16.54869596 23.3125 19.5625 C26.22876603 22.51433025 29.15855835 25.36638859 32.3125 28.0625 C36.38873219 31.54702107 40.10800873 35.34331981 43.875 39.15625 C45.96250635 41.21699345 48.08419223 43.15765626 50.3125 45.0625 C53.52204781 47.85112351 56.70282077 50.66246206 59.8125 53.5625 C60.6684375 54.34625 61.524375 55.13 62.40625 55.9375 C64.91941536 59.3982523 64.92182804 61.37336969 64.3125 65.5625 C62.84375 67.75 62.84375 67.75 60.8125 69.5625 C60.07773438 70.23539062 59.34296875 70.90828125 58.5859375 71.6015625 C57.83570313 72.24867187 57.08546875 72.89578125 56.3125 73.5625 C55.66539062 74.12710938 55.01828125 74.69171875 54.3515625 75.2734375 C53.05294659 76.40243827 51.75073304 77.52731163 50.4453125 78.6484375 C47.97317964 80.86701828 45.64687822 83.19956669 43.3125 85.5625 C39.79143677 89.12650302 36.18063992 92.46554168 32.375 95.71875 C29.02350948 98.7147794 25.91614972 101.95146618 22.7578125 105.1484375 C20.02575352 107.84558199 17.17835388 110.34847051 14.25 112.828125 C12.0967625 114.75561986 10.16206779 116.82830258 8.1875 118.9375 C5.65671715 121.50308733 4.48459313 122.50405328 1 123.6875 C-1.6875 123.5625 -1.6875 123.5625 -4.6875 121.5625 C-5.11987305 118.58154297 -5.11987305 118.58154297 -5.19921875 114.8046875 C-5.21716995 114.14163605 -5.23512115 113.47858459 -5.25361633 112.79544067 C-5.30782924 110.67619197 -5.34164771 108.55716975 -5.375 106.4375 C-5.40816367 105.00127048 -5.44265245 103.5650709 -5.47851562 102.12890625 C-5.56355964 98.60698871 -5.63031873 95.08499241 -5.6875 91.5625 C-24.81687853 103.21723124 -37.3075666 118.65064743 -42.796875 140.7890625 C-47.10267896 161.09576208 -42.29837514 181.08049371 -31.6875 198.5625 C-20.54268736 214.95313105 -3.27371784 226.01777562 16.11328125 229.9375 C37.00773012 233.4290006 56.56028683 228.34158748 74.0703125 216.734375 C76.24841577 215.09526 78.28892075 213.38752346 80.3125 211.5625 C80.89902344 211.0675 81.48554688 210.5725 82.08984375 210.0625 C95.90307695 197.5334903 103.02005144 178.43451086 104.59765625 160.28125 C105.16979696 140.18169808 98.48774734 121.67462131 85.3125 106.5625 C83.2053016 104.43398087 81.08440356 102.36615257 78.84375 100.37890625 C76.90395819 98.07787769 76.44834778 96.56051988 76.3125 93.5625 C77.32421875 91.74609375 77.32421875 91.74609375 79 90 C79.64453125 89.319375 80.2890625 88.63875 80.953125 87.9375 C82.12101562 86.761875 82.12101562 86.761875 83.3125 85.5625 C84.26587471 84.58357646 85.21898443 83.60439481 86.171875 82.625 C91.66251017 77.0260839 97.23031756 71.52500794 103.3125 66.5625 C103.9209375 65.98628906 104.529375 65.41007812 105.15625 64.81640625 C107.3125 63.5625 107.3125 63.5625 110.265625 63.609375 C123.68805967 67.8081879 134.68357708 88.6651459 140.984375 100.6796875 C145.08525063 108.95887729 147.84612952 117.67959987 150.3125 126.5625 C150.60060547 127.56966064 150.60060547 127.56966064 150.89453125 128.59716797 C156.30791942 148.3550017 154.68862952 170.98947217 149.3125 190.5625 C149.13589844 191.22991211 148.95929688 191.89732422 148.77734375 192.58496094 C143.42789651 212.24913273 132.1647151 228.87373905 118.3125 243.5625 C117.70019531 244.23925781 117.08789062 244.91601562 116.45703125 245.61328125 C98.73101184 264.47316117 71.84084648 276.71368452 46.3125 279.5625 C44.91644531 279.72685547 44.91644531 279.72685547 43.4921875 279.89453125 C12.19326201 283.16391762 -19.67738085 274.80220314 -44.6875 255.5625 C-49.97645519 251.18974177 -54.901347 246.47800849 -59.6875 241.5625 C-60.1825 241.12421875 -60.6775 240.6859375 -61.1875 240.234375 C-82.14756232 221.02098454 -92.57817448 188.58886745 -93.84765625 161.09375 C-94.62249665 127.40503701 -82.52661847 95.77179409 -59.53125 71.15234375 C-45.61475444 56.58688228 -27.4309664 43.81029869 -7.6875 38.5625 C-6.6975 38.5625 -5.7075 38.5625 -4.6875 38.5625 C-4.69797363 37.48242676 -4.70844727 36.40235352 -4.71923828 35.28955078 C-4.75538194 31.29023541 -4.77837984 27.29093454 -4.79736328 23.29150391 C-4.80743376 21.55905735 -4.82109089 19.82662784 -4.83837891 18.09423828 C-4.86258162 15.60705361 -4.87397239 13.12009325 -4.8828125 10.6328125 C-4.89313507 9.85567902 -4.90345764 9.07854553 -4.91409302 8.27786255 C-4.91449271 6.37124507 -4.8098214 4.46518964 -4.6875 2.5625 C-2.6875 0.5625 -2.6875 0.5625 0 0 Z " fill="#D3D3D3" transform="translate(151.6875,24.4375)"/>
<path d="M0 0 C4.28264414 0.72724146 5.61370399 2.45016848 8.47265625 5.578125 C10.26032287 7.50622403 12.11824327 9.17914924 14.125 10.875 C17.33583755 13.63868029 20.33517165 16.54869596 23.3125 19.5625 C26.22876603 22.51433025 29.15855835 25.36638859 32.3125 28.0625 C36.38873219 31.54702107 40.10800873 35.34331981 43.875 39.15625 C45.96250635 41.21699345 48.08419223 43.15765626 50.3125 45.0625 C53.52204781 47.85112351 56.70282077 50.66246206 59.8125 53.5625 C60.6684375 54.34625 61.524375 55.13 62.40625 55.9375 C64.91941536 59.3982523 64.92182804 61.37336969 64.3125 65.5625 C62.84375 67.75 62.84375 67.75 60.8125 69.5625 C60.07773438 70.23539062 59.34296875 70.90828125 58.5859375 71.6015625 C57.83570313 72.24867187 57.08546875 72.89578125 56.3125 73.5625 C55.66539062 74.12710938 55.01828125 74.69171875 54.3515625 75.2734375 C53.05294659 76.40243827 51.75073304 77.52731163 50.4453125 78.6484375 C47.97317964 80.86701828 45.64687822 83.19956669 43.3125 85.5625 C39.79143677 89.12650302 36.18063992 92.46554168 32.375 95.71875 C29.02350948 98.7147794 25.91614972 101.95146618 22.7578125 105.1484375 C20.02575352 107.84558199 17.17835388 110.34847051 14.25 112.828125 C12.0967625 114.75561986 10.16206779 116.82830258 8.1875 118.9375 C5.65671715 121.50308733 4.48459313 122.50405328 1 123.6875 C-1.6875 123.5625 -1.6875 123.5625 -4.6875 121.5625 C-5.11987305 118.58154297 -5.11987305 118.58154297 -5.19921875 114.8046875 C-5.21716995 114.14163605 -5.23512115 113.47858459 -5.25361633 112.79544067 C-5.30782924 110.67619197 -5.34164771 108.55716975 -5.375 106.4375 C-5.40816367 105.00127048 -5.44265245 103.5650709 -5.47851562 102.12890625 C-5.56355964 98.60698871 -5.63031873 95.08499241 -5.6875 91.5625 C-24.81687853 103.21723124 -37.3075666 118.65064743 -42.796875 140.7890625 C-47.10267896 161.09576208 -42.29837514 181.08049371 -31.6875 198.5625 C-20.54268736 214.95313105 -3.27371784 226.01777562 16.11328125 229.9375 C37.00773012 233.4290006 56.56028683 228.34158748 74.0703125 216.734375 C76.24841577 215.09526 78.28892075 213.38752346 80.3125 211.5625 C80.89902344 211.0675 81.48554688 210.5725 82.08984375 210.0625 C95.90307695 197.5334903 103.02005144 178.43451086 104.59765625 160.28125 C105.16979696 140.18169808 98.48774734 121.67462131 85.3125 106.5625 C83.2053016 104.43398087 81.08440356 102.36615257 78.84375 100.37890625 C76.90395819 98.07787769 76.44834778 96.56051988 76.3125 93.5625 C77.32421875 91.74609375 77.32421875 91.74609375 79 90 C79.64453125 89.319375 80.2890625 88.63875 80.953125 87.9375 C82.12101562 86.761875 82.12101562 86.761875 83.3125 85.5625 C84.26587471 84.58357646 85.21898443 83.60439481 86.171875 82.625 C91.66251017 77.0260839 97.23031756 71.52500794 103.3125 66.5625 C103.9209375 65.98628906 104.529375 65.41007812 105.15625 64.81640625 C107.3125 63.5625 107.3125 63.5625 110.265625 63.609375 C123.68805967 67.8081879 134.68357708 88.6651459 140.984375 100.6796875 C145.08525063 108.95887729 147.84612952 117.67959987 150.3125 126.5625 C150.60060547 127.56966064 150.60060547 127.56966064 150.89453125 128.59716797 C156.30791942 148.3550017 154.68862952 170.98947217 149.3125 190.5625 C149.13589844 191.22991211 148.95929688 191.89732422 148.77734375 192.58496094 C143.42789651 212.24913273 132.1647151 228.87373905 118.3125 243.5625 C117.70019531 244.23925781 117.08789062 244.91601562 116.45703125 245.61328125 C98.73101184 264.47316117 71.84084648 276.71368452 46.3125 279.5625 C44.91644531 279.72685547 44.91644531 279.72685547 43.4921875 279.89453125 C12.19326201 283.16391762 -19.67738085 274.80220314 -44.6875 255.5625 C-49.97645519 251.18974177 -54.901347 246.47800849 -59.6875 241.5625 C-60.1825 241.12421875 -60.6775 240.6859375 -61.1875 240.234375 C-82.14756232 221.02098454 -92.57817448 188.58886745 -93.84765625 161.09375 C-94.62249665 127.40503701 -82.52661847 95.77179409 -59.53125 71.15234375 C-45.61475444 56.58688228 -27.4309664 43.81029869 -7.6875 38.5625 C-6.6975 38.5625 -5.7075 38.5625 -4.6875 38.5625 C-4.69797363 37.48242676 -4.70844727 36.40235352 -4.71923828 35.28955078 C-4.75538194 31.29023541 -4.77837984 27.29093454 -4.79736328 23.29150391 C-4.80743376 21.55905735 -4.82109089 19.82662784 -4.83837891 18.09423828 C-4.86258162 15.60705361 -4.87397239 13.12009325 -4.8828125 10.6328125 C-4.89313507 9.85567902 -4.90345764 9.07854553 -4.91409302 8.27786255 C-4.91449271 6.37124507 -4.8098214 4.46518964 -4.6875 2.5625 C-2.6875 0.5625 -2.6875 0.5625 0 0 Z M3.3125 13.5625 C3.3125 24.1225 3.3125 34.6825 3.3125 45.5625 C0.6725 45.8925 -1.9675 46.2225 -4.6875 46.5625 C-33.84273024 55.12891696 -57.43375368 76.36666002 -71.94140625 102.578125 C-76.41128653 110.95005719 -79.5082793 119.29841201 -81.6875 128.5625 C-81.93757813 129.49094727 -82.18765625 130.41939453 -82.4453125 131.37597656 C-84.56944312 139.65857593 -85.16037251 147.40505337 -85.0625 155.9375 C-85.05307373 157.21318848 -85.04364746 158.48887695 -85.03393555 159.80322266 C-84.89043417 168.7529059 -84.25259835 176.94666561 -81.6875 185.5625 C-81.3471875 186.77035156 -81.006875 187.97820312 -80.65625 189.22265625 C-74.89677635 208.03823401 -65.1626675 223.27355685 -51.6875 237.5625 C-51.07519531 238.23925781 -50.46289062 238.91601562 -49.83203125 239.61328125 C-37.46464078 252.77176279 -19.98927482 262.58740685 -2.6875 267.5625 C-2.06697754 267.74296875 -1.44645508 267.9234375 -0.80712891 268.109375 C17.99656821 273.36393657 39.49614469 274.07583829 58.3125 268.5625 C59.00037598 268.36914062 59.68825195 268.17578125 60.39697266 267.9765625 C90.06883715 259.50449015 115.37377637 240.80506813 130.57421875 213.640625 C146.56436368 183.57199777 149.44519888 151.89820165 139.5625 119.25 C133.36817981 102.27027524 123.39154964 86.10348747 110.3125 73.5625 C107.305682 74.90249498 105.31487391 76.36095291 103.0625 78.75 C100.54063295 81.35845476 97.95327918 83.77669693 95.1875 86.125 C91.81489463 89.02517816 89.04695916 92.05897421 86.3125 95.5625 C86.78558594 95.97757812 87.25867188 96.39265625 87.74609375 96.8203125 C97.00167176 105.44441832 103.90580644 116.73571213 108.3125 128.5625 C108.9003125 130.09777344 108.9003125 130.09777344 109.5 131.6640625 C116.03320534 151.76274282 113.68503936 174.04036075 104.5625 192.8125 C94.33601783 212.69441833 79.26550716 226.57820432 58.3125 234.5625 C35.04515494 241.74309213 12.56412888 241.20447798 -9.27270508 229.71899414 C-30.10763002 218.16020574 -43.24900589 200.97210511 -50 178.1875 C-56.0866708 156.2549394 -52.30951914 133.90670533 -41.375 114.25 C-30.62641853 96.95880372 -16.91497382 86.87600635 1.3125 78.5625 C1.9725 78.2325 2.6325 77.9025 3.3125 77.5625 C3.3125 88.4525 3.3125 99.3425 3.3125 110.5625 C8.84253144 105.84363058 8.84253144 105.84363058 14.21484375 100.9765625 C14.87355469 100.35974609 15.53226562 99.74292969 16.2109375 99.10742188 C16.88382812 98.47384766 17.55671875 97.84027344 18.25 97.1875 C18.95511719 96.52556641 19.66023438 95.86363281 20.38671875 95.18164062 C24.53450963 91.27580422 28.6039425 87.30971934 32.59765625 83.24609375 C34.41990081 81.45705638 36.31366818 79.78956595 38.25 78.125 C42.84434003 74.17404881 47.06630784 69.88052624 51.3125 65.5625 C52.6446844 64.22801873 53.97766432 62.89432929 55.3125 61.5625 C51.13771153 57.30073677 46.9797103 53.06062953 42.4375 49.1875 C39.06692279 46.30035219 35.92745793 43.22003382 32.8125 40.0625 C29.12571848 36.32539558 25.34728869 32.78291071 21.34765625 29.3828125 C17.99961043 26.38820722 14.91537089 23.13270166 11.8046875 19.89453125 C8.90824786 17.05687179 8.90824786 17.05687179 3.3125 13.5625 Z " fill="#141414" transform="translate(151.6875,24.4375)"/>
<path d="M0 0 C1.32 0 2.64 0 4 0 C3.60196439 2.88575819 3.20990931 3.82189513 0.9375 5.75 C0.298125 6.1625 -0.34125 6.575 -1 7 C-1.66 6.67 -2.32 6.34 -3 6 C-2.01 4.02 -1.02 2.04 0 0 Z " fill="#C9C9C9" transform="translate(187,99)"/>
</svg>
