<?xml version="1.0" encoding="UTF-8"?>
<svg version="1.1" xmlns="http://www.w3.org/2000/svg" width="993" height="784">
<path d="M0 0 C1.13856445 0.17692383 2.27712891 0.35384766 3.45019531 0.53613281 C26.44957198 4.15970808 48.95601729 9.50054711 71 17 C72.23073242 17.41258057 72.23073242 17.41258057 73.48632812 17.83349609 C106.30491607 28.92948321 137.42635587 44.42769443 166 64 C166.65677734 64.44972168 167.31355469 64.89944336 167.99023438 65.36279297 C192.81535008 82.49004756 217.30131835 102.65032814 236.94140625 125.6015625 C238.57844954 127.50885772 240.23311597 129.394556 241.90234375 131.2734375 C255.39888365 146.53199724 266.96126067 162.89256985 278 180 C278.41846191 180.64727051 278.83692383 181.29454102 279.26806641 181.96142578 C295.44130721 207.24832633 307.80246826 234.8550051 317.3125 263.25 C317.68631805 264.36240555 317.68631805 264.36240555 318.06768799 265.49728394 C321.87899293 276.90573945 324.93121695 288.33862441 328 300 C366.28 300.33 404.56 300.66 444 301 C440.2600147 305.98664706 436.89326376 310.3575058 432.6875 314.8125 C429.18445717 318.56228611 425.83231098 322.36438461 422.625 326.375 C418.57333783 331.41416406 414.22645384 336.10465771 409.79736328 340.80810547 C406.55451548 344.27061478 403.46570521 347.79286848 400.5 351.5 C396.49652544 356.5043432 392.18663292 361.14699302 387.796875 365.80859375 C384.55421929 369.27096211 381.46555917 372.79305103 378.5 376.5 C373.93958074 382.19631705 368.98265337 387.47319066 363.99609375 392.79296875 C359.61883286 397.4639332 355.4485711 402.29747541 351.30078125 407.171875 C350.28418244 408.36486315 349.26724412 409.55756205 348.25 410.75 C347.73518066 411.35368408 347.22036133 411.95736816 346.68994141 412.5793457 C342.86787748 417.03960984 338.92778734 421.37267114 334.93017578 425.67529297 C332.03251776 428.81503117 329.29653427 432.04166489 326.625 435.375 C323.09282208 439.76806716 319.36102491 443.89915298 315.5 448 C310.84569712 452.94373124 306.45681117 458.00910389 302.2109375 463.3125 C298.3228843 468.03861414 294.15850507 472.51159265 290 477 C285.67015816 475.42365096 283.26745349 472.07269874 280.4375 468.625 C279.36899556 467.3487445 278.29864611 466.07403165 277.2265625 464.80078125 C276.68805664 464.16092285 276.14955078 463.52106445 275.59472656 462.86181641 C273.23878784 460.11129763 270.78265904 457.46019487 268.3125 454.8125 C264.94336115 451.18795197 261.72073053 447.4876146 258.625 443.625 C254.57333783 438.58583594 250.22645384 433.89534229 245.79736328 429.19189453 C242.55451548 425.72938522 239.46570521 422.20713152 236.5 418.5 C231.93958074 412.80368295 226.98265337 407.52680934 221.99609375 402.20703125 C217.61883286 397.5360668 213.4485711 392.70252459 209.30078125 387.828125 C208.28418244 386.63513685 207.26724412 385.44243795 206.25 384.25 C205.73518066 383.64631592 205.22036133 383.04263184 204.68994141 382.4206543 C201.3089801 378.47514717 197.84897957 374.61880634 194.3125 370.8125 C190.94416553 367.18716792 187.7207798 363.48767607 184.625 359.625 C180.57333783 354.58583594 176.22645384 349.89534229 171.79736328 345.19189453 C168.55451548 341.72938522 165.46570521 338.20713152 162.5 334.5 C157.46867746 328.21548827 151.94512525 322.41958523 146.44482422 316.54931641 C144.58437164 314.55431268 142.75004311 312.53862376 140.9375 310.5 C140.45152344 309.9534375 139.96554687 309.406875 139.46484375 308.84375 C137.48259126 306.34875486 135.76759948 303.65139921 134 301 C164.69 301 195.38 301 227 301 C219.11206768 279.71801192 219.11206768 279.71801192 210 259 C209.64921387 258.26571777 209.29842773 257.53143555 208.93701172 256.77490234 C199.63702036 237.59134206 187.56369008 219.43625502 174 203 C173.3203418 202.17024658 173.3203418 202.17024658 172.62695312 201.32373047 C160.24196767 186.29966254 146.54008583 171.78417385 131 160 C130.00226562 159.20851562 129.00453125 158.41703125 127.9765625 157.6015625 C86.87250407 125.09336197 37.71558782 104.6815651 -14 97 C-15.85733765 96.72071655 -15.85733765 96.72071655 -17.75219727 96.43579102 C-30.00172113 94.72705731 -42.21201177 94.64257996 -54.5625 94.6875 C-56.15996567 94.69073273 -56.15996567 94.69073273 -57.78970337 94.69403076 C-73.09430851 94.74377565 -87.92670581 95.15608105 -103 98 C-104.60391602 98.27408691 -104.60391602 98.27408691 -106.24023438 98.55371094 C-133.52139378 103.23905388 -160.20352152 111.63828756 -185 124 C-186.22589844 124.59385498 -186.22589844 124.59385498 -187.4765625 125.19970703 C-207.75852001 135.05769976 -226.69561034 147.54580802 -244 162 C-244.55236328 162.4522998 -245.10472656 162.90459961 -245.67382812 163.37060547 C-260.64025166 175.63404864 -274.39179816 189.37162883 -286.3125 204.625 C-286.77760986 205.21982178 -287.24271973 205.81464355 -287.72192383 206.42749023 C-295.81798769 216.85629503 -303.3843177 227.56161801 -310 239 C-310.66104736 240.13574463 -310.66104736 240.13574463 -311.33544922 241.29443359 C-322.41291402 260.48962065 -331.64870047 280.7354281 -338 302 C-347.26783194 299.60190988 -356.36359373 296.71122181 -365.47265625 293.78125 C-367.04716166 293.27682642 -368.62174301 292.77263982 -370.19639587 292.26867676 C-374.31454234 290.95011663 -378.43183332 289.62890678 -382.54888916 288.3069458 C-389.13920582 286.191253 -395.73073364 284.07933927 -402.32244682 281.96800232 C-404.60581818 281.23616573 -406.88876129 280.50300595 -409.17164612 279.76965332 C-416.42687769 277.44183357 -423.68756291 275.14324209 -431 273 C-420.98586544 231.87508292 -399.11688348 191.77059964 -374 158 C-373.26394531 156.989375 -372.52789062 155.97875 -371.76953125 154.9375 C-366.17372704 147.3311679 -360.16916357 140.14075967 -354 133 C-353.38382812 132.28199219 -352.76765625 131.56398437 -352.1328125 130.82421875 C-341.17287504 118.15998479 -329.77124617 105.86111196 -317 95 C-316.04222656 94.15308594 -315.08445312 93.30617188 -314.09765625 92.43359375 C-288.24467542 69.67396613 -258.97206172 50.81451535 -227.93164062 35.93115234 C-225.97238507 34.98668815 -224.02523482 34.02000283 -222.078125 33.05078125 C-155.34273058 0.2524711 -73.40500744 -11.9604125 0 0 Z " fill="#D8D8D8" transform="translate(549,4)"/>
<path d="M0 0 C4.32984184 1.57634904 6.73254651 4.92730126 9.5625 8.375 C10.63100444 9.6512555 11.70135389 10.92596835 12.7734375 12.19921875 C13.58119629 13.15900635 13.58119629 13.15900635 14.40527344 14.13818359 C16.76121216 16.88870237 19.21734096 19.53980513 21.6875 22.1875 C25.05663885 25.81204803 28.27926947 29.5123854 31.375 33.375 C35.42666217 38.41416406 39.77354616 43.10465771 44.20263672 47.80810547 C47.44548452 51.27061478 50.53429479 54.79286848 53.5 58.5 C58.06041926 64.19631705 63.01734663 69.47319066 68.00390625 74.79296875 C72.38116714 79.4639332 76.5514289 84.29747541 80.69921875 89.171875 C81.71581756 90.36486315 82.73275588 91.55756205 83.75 92.75 C84.26481934 93.35368408 84.77963867 93.95736816 85.31005859 94.5793457 C88.6910199 98.52485283 92.15102043 102.38119366 95.6875 106.1875 C99.05583447 109.81283208 102.2792202 113.51232393 105.375 117.375 C109.42666217 122.41416406 113.77354616 127.10465771 118.20263672 131.80810547 C121.44548452 135.27061478 124.53429479 138.79286848 127.5 142.5 C132.53132254 148.78451173 138.05487475 154.58041477 143.55517578 160.45068359 C145.41562836 162.44568732 147.24995689 164.46137624 149.0625 166.5 C149.54847656 167.0465625 150.03445313 167.593125 150.53515625 168.15625 C152.51740874 170.65124514 154.23240052 173.34860079 156 176 C125.31 176 94.62 176 63 176 C75.91884854 205.3610194 89.58659328 232.2633718 110 257 C110.45310547 257.55316895 110.90621094 258.10633789 111.37304688 258.67626953 C123.76247317 273.70572459 137.46625204 288.19950086 153 300 C154.23578447 300.98521381 155.47003655 301.97235145 156.703125 302.9609375 C166.86557071 311.02265061 177.52548896 317.97878446 188.66845703 324.60742188 C190.62455381 325.77575445 192.56315951 326.96588084 194.49609375 328.171875 C221.92576087 344.74610582 253.66204687 355.02626026 285 361 C286.61745117 361.31541748 286.61745117 361.31541748 288.26757812 361.63720703 C305.44972234 364.83795159 322.44260778 365.38750634 339.875 365.4375 C340.89369171 365.44376404 341.91238342 365.45002808 342.96194458 365.45648193 C362.15468385 365.53113401 381.22332308 363.87045225 400 359.75 C400.97670654 359.53875488 401.95341309 359.32750977 402.9597168 359.10986328 C442.54421442 350.2879762 481.74794059 333.91354734 514 309 C514.53012695 308.59313965 515.06025391 308.1862793 515.60644531 307.76708984 C519.77714933 304.56004422 523.89856233 301.29501415 528 298 C528.52819336 297.57912109 529.05638672 297.15824219 529.60058594 296.72460938 C560.49387123 271.97099908 584.81495678 239.99313096 603 205 C603.56364258 203.92177979 603.56364258 203.92177979 604.13867188 202.82177734 C611.55655958 188.43917445 616.77957597 173.27981118 622 158 C638.17814617 162.58150439 654.16589113 167.78392889 670.17950439 172.90325928 C676.14202796 174.80910713 682.10546462 176.7120927 688.06917 178.61423874 C690.12649816 179.2708403 692.18344349 179.92862976 694.24034119 180.58657837 C701.14092902 182.79103087 708.05052835 184.95415516 715 187 C704.11601045 232.99532123 678.29598772 277.34321135 649 314 C647.86111328 315.42892578 647.86111328 315.42892578 646.69921875 316.88671875 C642.36450456 322.25457726 637.87972479 327.45340415 633.23046875 332.55078125 C631.78261105 334.14063551 630.34689357 335.74166323 628.92578125 337.35546875 C619.95369914 347.52161724 610.39788636 357.28614043 600 366 C599.11957031 366.76957031 598.23914063 367.53914063 597.33203125 368.33203125 C576.56032868 386.39762093 553.83806379 401.34680063 530 415 C529.28682617 415.4110498 528.57365234 415.82209961 527.83886719 416.24560547 C485.27751029 440.54078319 436.34973255 454.73859881 388 461 C387.12666016 461.11327637 386.25332031 461.22655273 385.35351562 461.34326172 C292.31995705 472.87228337 195.28959537 448.73315743 98.76342773 382.0012207 C80.43754874 367.69927139 62.19515072 352.08688514 47.05859375 334.3984375 C45.42155046 332.49114228 43.76688403 330.605444 42.09765625 328.7265625 C28.60111635 313.46800276 17.03873933 297.10743015 6 280 C5.58153809 279.35272949 5.16307617 278.70545898 4.73193359 278.03857422 C-11.95803535 251.94376799 -24.40410054 223.3653009 -34.1875 194.0625 C-34.43237152 193.32964783 -34.67724304 192.59679565 -34.92953491 191.84173584 C-39 179.58770435 -39 179.58770435 -39 176 C-76.95 176 -114.9 176 -154 176 C-150.17487582 170.89983443 -146.53922907 166.24642001 -142.1875 161.6875 C-138.49102351 157.75404798 -134.93556248 153.78193978 -131.5625 149.5625 C-127.53488871 144.54077775 -123.20654144 139.87417239 -118.79711914 135.19165039 C-115.55436739 131.72921156 -112.46563219 128.20704024 -109.5 124.5 C-105.49652544 119.4956568 -101.18663292 114.85300698 -96.796875 110.19140625 C-93.55421929 106.72903789 -90.46555917 103.20694897 -87.5 99.5 C-82.93958074 93.80368295 -77.98265337 88.52680934 -72.99609375 83.20703125 C-68.61883286 78.5360668 -64.4485711 73.70252459 -60.30078125 68.828125 C-59.28418244 67.63513685 -58.26724412 66.44243795 -57.25 65.25 C-56.477771 64.34447388 -56.477771 64.34447388 -55.68994141 63.4206543 C-51.86787748 58.96039016 -47.92778734 54.62732886 -43.93017578 50.32470703 C-41.03251776 47.18496883 -38.29653427 43.95833511 -35.625 40.625 C-32.09282026 36.23193057 -28.36100902 32.10086463 -24.5 28 C-19.82521072 23.03413131 -15.4102974 17.94736577 -11.14453125 12.62109375 C-7.58740754 8.27349811 -3.79695559 4.13805325 0 0 Z " fill="#D8D8D8" transform="translate(154,320)"/>
<path d="M0 0 C1.13856445 0.17692383 2.27712891 0.35384766 3.45019531 0.53613281 C26.44957198 4.15970808 48.95601729 9.50054711 71 17 C72.23073242 17.41258057 72.23073242 17.41258057 73.48632812 17.83349609 C106.30491607 28.92948321 137.42635587 44.42769443 166 64 C166.65677734 64.44972168 167.31355469 64.89944336 167.99023438 65.36279297 C192.81535008 82.49004756 217.30131835 102.65032814 236.94140625 125.6015625 C238.57844954 127.50885772 240.23311597 129.394556 241.90234375 131.2734375 C255.39888365 146.53199724 266.96126067 162.89256985 278 180 C278.41846191 180.64727051 278.83692383 181.29454102 279.26806641 181.96142578 C295.44130721 207.24832633 307.80246826 234.8550051 317.3125 263.25 C317.68631805 264.36240555 317.68631805 264.36240555 318.06768799 265.49728394 C321.87899293 276.90573945 324.93121695 288.33862441 328 300 C366.28 300.33 404.56 300.66 444 301 C440.2600147 305.98664706 436.89326376 310.3575058 432.6875 314.8125 C429.18445717 318.56228611 425.83231098 322.36438461 422.625 326.375 C418.57333783 331.41416406 414.22645384 336.10465771 409.79736328 340.80810547 C406.55451548 344.27061478 403.46570521 347.79286848 400.5 351.5 C396.49652544 356.5043432 392.18663292 361.14699302 387.796875 365.80859375 C384.55421929 369.27096211 381.46555917 372.79305103 378.5 376.5 C373.93958074 382.19631705 368.98265337 387.47319066 363.99609375 392.79296875 C359.61883286 397.4639332 355.4485711 402.29747541 351.30078125 407.171875 C350.28418244 408.36486315 349.26724412 409.55756205 348.25 410.75 C347.73518066 411.35368408 347.22036133 411.95736816 346.68994141 412.5793457 C342.86787748 417.03960984 338.92778734 421.37267114 334.93017578 425.67529297 C332.03251776 428.81503117 329.29653427 432.04166489 326.625 435.375 C323.09282208 439.76806716 319.36102491 443.89915298 315.5 448 C310.84569712 452.94373124 306.45681117 458.00910389 302.2109375 463.3125 C298.3228843 468.03861414 294.15850507 472.51159265 290 477 C285.67015816 475.42365096 283.26745349 472.07269874 280.4375 468.625 C279.36899556 467.3487445 278.29864611 466.07403165 277.2265625 464.80078125 C276.68805664 464.16092285 276.14955078 463.52106445 275.59472656 462.86181641 C273.23878784 460.11129763 270.78265904 457.46019487 268.3125 454.8125 C264.94336115 451.18795197 261.72073053 447.4876146 258.625 443.625 C254.57333783 438.58583594 250.22645384 433.89534229 245.79736328 429.19189453 C242.55451548 425.72938522 239.46570521 422.20713152 236.5 418.5 C231.93958074 412.80368295 226.98265337 407.52680934 221.99609375 402.20703125 C217.61883286 397.5360668 213.4485711 392.70252459 209.30078125 387.828125 C208.28418244 386.63513685 207.26724412 385.44243795 206.25 384.25 C205.73518066 383.64631592 205.22036133 383.04263184 204.68994141 382.4206543 C201.3089801 378.47514717 197.84897957 374.61880634 194.3125 370.8125 C190.94416553 367.18716792 187.7207798 363.48767607 184.625 359.625 C180.57333783 354.58583594 176.22645384 349.89534229 171.79736328 345.19189453 C168.55451548 341.72938522 165.46570521 338.20713152 162.5 334.5 C157.46867746 328.21548827 151.94512525 322.41958523 146.44482422 316.54931641 C144.58437164 314.55431268 142.75004311 312.53862376 140.9375 310.5 C140.45152344 309.9534375 139.96554687 309.406875 139.46484375 308.84375 C137.48259126 306.34875486 135.76759948 303.65139921 134 301 C164.69 301 195.38 301 227 301 C219.11206768 279.71801192 219.11206768 279.71801192 210 259 C209.64921387 258.26571777 209.29842773 257.53143555 208.93701172 256.77490234 C199.63702036 237.59134206 187.56369008 219.43625502 174 203 C173.3203418 202.17024658 173.3203418 202.17024658 172.62695312 201.32373047 C160.24196767 186.29966254 146.54008583 171.78417385 131 160 C130.00226562 159.20851562 129.00453125 158.41703125 127.9765625 157.6015625 C86.87250407 125.09336197 37.71558782 104.6815651 -14 97 C-15.85733765 96.72071655 -15.85733765 96.72071655 -17.75219727 96.43579102 C-30.00172113 94.72705731 -42.21201177 94.64257996 -54.5625 94.6875 C-56.15996567 94.69073273 -56.15996567 94.69073273 -57.78970337 94.69403076 C-73.09430851 94.74377565 -87.92670581 95.15608105 -103 98 C-104.60391602 98.27408691 -104.60391602 98.27408691 -106.24023438 98.55371094 C-133.52139378 103.23905388 -160.20352152 111.63828756 -185 124 C-186.22589844 124.59385498 -186.22589844 124.59385498 -187.4765625 125.19970703 C-207.75852001 135.05769976 -226.69561034 147.54580802 -244 162 C-244.55236328 162.4522998 -245.10472656 162.90459961 -245.67382812 163.37060547 C-260.64025166 175.63404864 -274.39179816 189.37162883 -286.3125 204.625 C-286.77760986 205.21982178 -287.24271973 205.81464355 -287.72192383 206.42749023 C-295.81798769 216.85629503 -303.3843177 227.56161801 -310 239 C-310.66104736 240.13574463 -310.66104736 240.13574463 -311.33544922 241.29443359 C-322.41291402 260.48962065 -331.64870047 280.7354281 -338 302 C-347.26783194 299.60190988 -356.36359373 296.71122181 -365.47265625 293.78125 C-367.04716166 293.27682642 -368.62174301 292.77263982 -370.19639587 292.26867676 C-374.31454234 290.95011663 -378.43183332 289.62890678 -382.54888916 288.3069458 C-389.13920582 286.191253 -395.73073364 284.07933927 -402.32244682 281.96800232 C-404.60581818 281.23616573 -406.88876129 280.50300595 -409.17164612 279.76965332 C-416.42687769 277.44183357 -423.68756291 275.14324209 -431 273 C-420.98586544 231.87508292 -399.11688348 191.77059964 -374 158 C-373.26394531 156.989375 -372.52789062 155.97875 -371.76953125 154.9375 C-366.17372704 147.3311679 -360.16916357 140.14075967 -354 133 C-353.38382812 132.28199219 -352.76765625 131.56398437 -352.1328125 130.82421875 C-341.17287504 118.15998479 -329.77124617 105.86111196 -317 95 C-316.04222656 94.15308594 -315.08445312 93.30617188 -314.09765625 92.43359375 C-288.24467542 69.67396613 -258.97206172 50.81451535 -227.93164062 35.93115234 C-225.97238507 34.98668815 -224.02523482 34.02000283 -222.078125 33.05078125 C-155.34273058 0.2524711 -73.40500744 -11.9604125 0 0 Z M-109.625 6.25 C-110.40991821 6.36015442 -111.19483643 6.47030884 -112.00354004 6.58380127 C-124.84439831 8.39993341 -137.46597754 10.62283599 -150 14 C-150.93602051 14.24975586 -151.87204102 14.49951172 -152.83642578 14.75683594 C-205.3393963 28.9628061 -256.12473594 52.92613233 -298 88 C-298.74926758 88.62406738 -298.74926758 88.62406738 -299.51367188 89.26074219 C-310.6133897 98.51494871 -321.29603411 108.10911488 -331.51391602 118.32861328 C-333.05923066 119.8717353 -334.61240446 121.40664306 -336.16601562 122.94140625 C-342.56321113 129.3031641 -348.37840462 135.93155774 -354 143 C-355.58037469 144.83588437 -357.16305074 146.66979575 -358.75 148.5 C-364.8818539 155.84108596 -370.14886119 163.74917781 -375.45556641 171.69726562 C-376.8546761 173.78332358 -378.27180194 175.85513329 -379.69921875 177.921875 C-389.07086006 191.57148023 -396.81963629 206.13567493 -404.03662109 221.02001953 C-404.99858724 222.99709643 -405.97745836 224.96519292 -406.95703125 226.93359375 C-411.09852786 235.36876527 -414.68989586 243.97951624 -418.0625 252.75 C-418.67242798 254.30460937 -418.67242798 254.30460937 -419.29467773 255.890625 C-419.66278564 256.8703125 -420.03089355 257.85 -420.41015625 258.859375 C-420.90721069 260.16600098 -420.90721069 260.16600098 -421.41430664 261.49902344 C-422.09519935 264.40651196 -421.95526871 266.17911911 -421 269 C-418.23664857 270.5792401 -418.23664857 270.5792401 -414.75 271.5625 C-413.61046875 271.93503906 -412.4709375 272.30757813 -411.296875 272.69140625 C-409.865568 273.13082441 -408.4331615 273.56666855 -407 274 C-398.84584444 276.47100371 -390.73052177 279.04629017 -382.625 281.671875 C-379.48789221 282.6850407 -376.35064094 283.69776126 -373.21337891 284.71044922 C-371.05606186 285.40835653 -368.89949425 286.10858435 -366.74365234 286.81103516 C-363.60206302 287.83386716 -360.45761543 288.84744583 -357.3125 289.859375 C-356.35102051 290.17493347 -355.38954102 290.49049194 -354.39892578 290.81561279 C-353.50028809 291.10301331 -352.60165039 291.39041382 -351.67578125 291.68652344 C-350.89114502 291.94093201 -350.10650879 292.19534058 -349.2980957 292.4574585 C-346.7952772 293.04833159 -344.56262987 293.09528744 -342 293 C-341.71503662 292.21858643 -341.71503662 292.21858643 -341.42431641 291.42138672 C-329.05299775 257.71413215 -312.93645033 226.76776261 -290 199 C-289.53706543 198.43941895 -289.07413086 197.87883789 -288.59716797 197.30126953 C-285.44062867 193.49706725 -282.23655069 189.73626728 -279 186 C-278.20464844 185.07960937 -277.40929687 184.15921875 -276.58984375 183.2109375 C-272.59243441 178.6718552 -268.50170304 174.52365041 -263.875 170.62890625 C-262.09431042 169.08193218 -260.49460779 167.46273524 -258.875 165.75 C-253.4390214 160.24022984 -247.14958417 155.67381119 -241 151 C-240.40654785 150.5457666 -239.8130957 150.0915332 -239.20166016 149.62353516 C-214.08608865 130.47437932 -186.61632101 115.91440276 -157 105 C-156.26072266 104.72720215 -155.52144531 104.4544043 -154.75976562 104.17333984 C-136.59458488 97.57711971 -117.47312833 93.15161827 -98.375 90.375 C-97.52824707 90.2517334 -96.68149414 90.1284668 -95.80908203 90.00146484 C-83.6361369 88.30667583 -71.58583814 87.82571016 -59.3125 87.875 C-58.55422913 87.87754791 -57.79595825 87.88009583 -57.01470947 87.88272095 C-17.29440788 88.0392815 22.2812918 94.27608368 59 110 C59.82999512 110.35175293 60.65999023 110.70350586 61.51513672 111.06591797 C80.31667381 119.09690665 98.10612902 128.4766462 115 140 C115.90177979 140.61029053 115.90177979 140.61029053 116.82177734 141.23291016 C136.94838885 154.93291348 156.36790398 171.29093605 172 190 C172.70987061 190.84135498 172.70987061 190.84135498 173.43408203 191.69970703 C186.95761867 207.78072743 198.56785484 224.76704032 209 243 C209.61270752 244.06637695 209.61270752 244.06637695 210.23779297 245.15429688 C219.3917064 261.25904353 226.62268418 278.5701305 232.0625 296.26953125 C232.92824731 299.168012 232.92824731 299.168012 235 302 C235.33 303.65 235.66 305.3 236 307 C206.96 307 177.92 307 148 307 C151.85844702 312.14459602 155.55668133 316.87889228 159.9375 321.5 C160.99940257 322.6360605 162.06060516 323.77277571 163.12109375 324.91015625 C163.62237793 325.44656738 164.12366211 325.98297852 164.64013672 326.53564453 C168.45197873 330.64038931 172.07370194 334.9103379 175.703125 339.17578125 C176.71843394 340.36745686 177.73406967 341.5588541 178.75 342.75 C179.52210815 343.65540527 179.52210815 343.65540527 180.30981445 344.57910156 C183.69089354 348.52465831 187.15094207 352.38110932 190.6875 356.1875 C194.05583447 359.81283208 197.2792202 363.51232393 200.375 367.375 C204.98571639 373.10522487 209.97756638 378.43085078 215.00390625 383.79296875 C219.38116714 388.4639332 223.5514289 393.29747541 227.69921875 398.171875 C228.71581756 399.36486315 229.73275588 400.55756205 230.75 401.75 C231.26481934 402.35368408 231.77963867 402.95736816 232.31005859 403.5793457 C235.6910199 407.52485283 239.15102043 411.38119366 242.6875 415.1875 C246.05583447 418.81283208 249.2792202 422.51232393 252.375 426.375 C255.90717974 430.76806943 259.63899098 434.89913537 263.5 439 C268.17478928 443.96586869 272.5897026 449.05263423 276.85546875 454.37890625 C280.41259246 458.72650189 284.20304441 462.86194675 288 467 C292.32984184 465.42365096 294.73254651 462.07269874 297.5625 458.625 C298.63100444 457.3487445 299.70135389 456.07403165 300.7734375 454.80078125 C301.31194336 454.16092285 301.85044922 453.52106445 302.40527344 452.86181641 C304.76121216 450.11129763 307.21734096 447.46019487 309.6875 444.8125 C313.05663885 441.18795197 316.27926947 437.4876146 319.375 433.625 C323.42666217 428.58583594 327.77354616 423.89534229 332.20263672 419.19189453 C335.44548452 415.72938522 338.53429479 412.20713152 341.5 408.5 C346.06041926 402.80368295 351.01734663 397.52680934 356.00390625 392.20703125 C360.38116714 387.5360668 364.5514289 382.70252459 368.69921875 377.828125 C369.71581756 376.63513685 370.73275588 375.44243795 371.75 374.25 C372.26481934 373.64631592 372.77963867 373.04263184 373.31005859 372.4206543 C377.13212252 367.96039016 381.07221266 363.62732886 385.06982422 359.32470703 C387.96748224 356.18496883 390.70346573 352.95833511 393.375 349.625 C396.90717792 345.23193284 400.63897509 341.10084702 404.5 337 C409.15503722 332.05548876 413.54627688 326.99101889 417.7890625 321.68359375 C421.08311368 317.68533729 424.60056323 313.90867939 428.12890625 310.1171875 C430.11036931 308.34603187 430.11036931 308.34603187 430 307 C394.69 306.67 359.38 306.34 323 306 C321.02 297.75 319.04 289.5 317 281 C316.01 278.36 315.02 275.72 314 273 C313.31695594 271.04072535 312.64198736 269.07860974 311.9765625 267.11328125 C296.19818724 221.231695 273.22185653 179.23410922 242 142 C241.48405273 141.37963867 240.96810547 140.75927734 240.43652344 140.12011719 C234.39377757 132.86498548 228.16848622 125.96331482 221.375 119.40234375 C219.0531644 117.05377649 217.05885641 114.57778949 215 112 C213.86608129 110.92277722 212.69892871 109.87936572 211.5 108.875 C208.49248307 106.3091073 205.55830317 103.68321743 202.66308594 100.9909668 C196.97854896 95.71156587 191.16188363 90.7221111 185 86 C184.42266113 85.55543457 183.84532227 85.11086914 183.25048828 84.65283203 C133.15024278 46.17450645 73.19534975 17.53006224 10.32836914 8.34326172 C7.45078915 7.91903214 4.57728036 7.47026803 1.703125 7.0234375 C-0.5311085 6.68136621 -2.76548031 6.34019685 -5 6 C-5.94464111 5.85433594 -6.88928223 5.70867188 -7.86254883 5.55859375 C-23.49074105 3.24146702 -38.91764045 2.72261289 -54.6875 2.75 C-55.62490021 2.75086609 -56.56230042 2.75173218 -57.52810669 2.75262451 C-75.05575349 2.7944415 -92.26502305 3.79055429 -109.625 6.25 Z " fill="#030303" transform="translate(549,4)"/>
<path d="M0 0 C4.32984184 1.57634904 6.73254651 4.92730126 9.5625 8.375 C10.63100444 9.6512555 11.70135389 10.92596835 12.7734375 12.19921875 C13.58119629 13.15900635 13.58119629 13.15900635 14.40527344 14.13818359 C16.76121216 16.88870237 19.21734096 19.53980513 21.6875 22.1875 C25.05663885 25.81204803 28.27926947 29.5123854 31.375 33.375 C35.42666217 38.41416406 39.77354616 43.10465771 44.20263672 47.80810547 C47.44548452 51.27061478 50.53429479 54.79286848 53.5 58.5 C58.06041926 64.19631705 63.01734663 69.47319066 68.00390625 74.79296875 C72.38116714 79.4639332 76.5514289 84.29747541 80.69921875 89.171875 C81.71581756 90.36486315 82.73275588 91.55756205 83.75 92.75 C84.26481934 93.35368408 84.77963867 93.95736816 85.31005859 94.5793457 C88.6910199 98.52485283 92.15102043 102.38119366 95.6875 106.1875 C99.05583447 109.81283208 102.2792202 113.51232393 105.375 117.375 C109.42666217 122.41416406 113.77354616 127.10465771 118.20263672 131.80810547 C121.44548452 135.27061478 124.53429479 138.79286848 127.5 142.5 C132.53132254 148.78451173 138.05487475 154.58041477 143.55517578 160.45068359 C145.41562836 162.44568732 147.24995689 164.46137624 149.0625 166.5 C149.54847656 167.0465625 150.03445313 167.593125 150.53515625 168.15625 C152.51740874 170.65124514 154.23240052 173.34860079 156 176 C125.31 176 94.62 176 63 176 C75.91884854 205.3610194 89.58659328 232.2633718 110 257 C110.45310547 257.55316895 110.90621094 258.10633789 111.37304688 258.67626953 C123.76247317 273.70572459 137.46625204 288.19950086 153 300 C154.23578447 300.98521381 155.47003655 301.97235145 156.703125 302.9609375 C166.86557071 311.02265061 177.52548896 317.97878446 188.66845703 324.60742188 C190.62455381 325.77575445 192.56315951 326.96588084 194.49609375 328.171875 C221.92576087 344.74610582 253.66204687 355.02626026 285 361 C286.61745117 361.31541748 286.61745117 361.31541748 288.26757812 361.63720703 C305.44972234 364.83795159 322.44260778 365.38750634 339.875 365.4375 C340.89369171 365.44376404 341.91238342 365.45002808 342.96194458 365.45648193 C362.15468385 365.53113401 381.22332308 363.87045225 400 359.75 C400.97670654 359.53875488 401.95341309 359.32750977 402.9597168 359.10986328 C442.54421442 350.2879762 481.74794059 333.91354734 514 309 C514.53012695 308.59313965 515.06025391 308.1862793 515.60644531 307.76708984 C519.77714933 304.56004422 523.89856233 301.29501415 528 298 C528.52819336 297.57912109 529.05638672 297.15824219 529.60058594 296.72460938 C560.49387123 271.97099908 584.81495678 239.99313096 603 205 C603.56364258 203.92177979 603.56364258 203.92177979 604.13867188 202.82177734 C611.55655958 188.43917445 616.77957597 173.27981118 622 158 C638.17814617 162.58150439 654.16589113 167.78392889 670.17950439 172.90325928 C676.14202796 174.80910713 682.10546462 176.7120927 688.06917 178.61423874 C690.12649816 179.2708403 692.18344349 179.92862976 694.24034119 180.58657837 C701.14092902 182.79103087 708.05052835 184.95415516 715 187 C704.11601045 232.99532123 678.29598772 277.34321135 649 314 C647.86111328 315.42892578 647.86111328 315.42892578 646.69921875 316.88671875 C642.36450456 322.25457726 637.87972479 327.45340415 633.23046875 332.55078125 C631.78261105 334.14063551 630.34689357 335.74166323 628.92578125 337.35546875 C619.95369914 347.52161724 610.39788636 357.28614043 600 366 C599.11957031 366.76957031 598.23914063 367.53914063 597.33203125 368.33203125 C576.56032868 386.39762093 553.83806379 401.34680063 530 415 C529.28682617 415.4110498 528.57365234 415.82209961 527.83886719 416.24560547 C485.27751029 440.54078319 436.34973255 454.73859881 388 461 C387.12666016 461.11327637 386.25332031 461.22655273 385.35351562 461.34326172 C292.31995705 472.87228337 195.28959537 448.73315743 98.76342773 382.0012207 C80.43754874 367.69927139 62.19515072 352.08688514 47.05859375 334.3984375 C45.42155046 332.49114228 43.76688403 330.605444 42.09765625 328.7265625 C28.60111635 313.46800276 17.03873933 297.10743015 6 280 C5.58153809 279.35272949 5.16307617 278.70545898 4.73193359 278.03857422 C-11.95803535 251.94376799 -24.40410054 223.3653009 -34.1875 194.0625 C-34.43237152 193.32964783 -34.67724304 192.59679565 -34.92953491 191.84173584 C-39 179.58770435 -39 179.58770435 -39 176 C-76.95 176 -114.9 176 -154 176 C-150.17487582 170.89983443 -146.53922907 166.24642001 -142.1875 161.6875 C-138.49102351 157.75404798 -134.93556248 153.78193978 -131.5625 149.5625 C-127.53488871 144.54077775 -123.20654144 139.87417239 -118.79711914 135.19165039 C-115.55436739 131.72921156 -112.46563219 128.20704024 -109.5 124.5 C-105.49652544 119.4956568 -101.18663292 114.85300698 -96.796875 110.19140625 C-93.55421929 106.72903789 -90.46555917 103.20694897 -87.5 99.5 C-82.93958074 93.80368295 -77.98265337 88.52680934 -72.99609375 83.20703125 C-68.61883286 78.5360668 -64.4485711 73.70252459 -60.30078125 68.828125 C-59.28418244 67.63513685 -58.26724412 66.44243795 -57.25 65.25 C-56.477771 64.34447388 -56.477771 64.34447388 -55.68994141 63.4206543 C-51.86787748 58.96039016 -47.92778734 54.62732886 -43.93017578 50.32470703 C-41.03251776 47.18496883 -38.29653427 43.95833511 -35.625 40.625 C-32.09282026 36.23193057 -28.36100902 32.10086463 -24.5 28 C-19.82521072 23.03413131 -15.4102974 17.94736577 -11.14453125 12.62109375 C-7.58740754 8.27349811 -3.79695559 4.13805325 0 0 Z M-1.91796875 11.90625 C-2.66691406 12.7621875 -3.41585937 13.618125 -4.1875 14.5 C-5.40566406 15.88445312 -5.40566406 15.88445312 -6.6484375 17.296875 C-7.42445313 18.18890625 -8.20046875 19.0809375 -9 20 C-9.85464844 20.96679688 -9.85464844 20.96679688 -10.7265625 21.953125 C-13.4202476 25.00508348 -16.07715859 28.08711071 -18.71484375 31.1875 C-24.05658872 37.46033472 -29.46164546 43.63922067 -35.06982422 49.67529297 C-37.96748224 52.81503117 -40.70346573 56.04166489 -43.375 59.375 C-47.42666217 64.41416406 -51.77354616 69.10465771 -56.20263672 73.80810547 C-59.44548452 77.27061478 -62.53429479 80.79286848 -65.5 84.5 C-70.06041926 90.19631705 -75.01734663 95.47319066 -80.00390625 100.79296875 C-84.38116714 105.4639332 -88.5514289 110.29747541 -92.69921875 115.171875 C-93.71581756 116.36486315 -94.73275588 117.55756205 -95.75 118.75 C-96.26481934 119.35368408 -96.77963867 119.95736816 -97.31005859 120.5793457 C-101.13212252 125.03960984 -105.07221266 129.37267114 -109.06982422 133.67529297 C-111.96748224 136.81503117 -114.70346573 140.04166489 -117.375 143.375 C-121.47317072 148.47921985 -125.86793506 153.24482105 -130.39599609 157.96630859 C-131.18224365 158.79509521 -131.18224365 158.79509521 -131.984375 159.640625 C-132.67611816 160.36040527 -132.67611816 160.36040527 -133.38183594 161.09472656 C-135.77597139 163.91365129 -137.85034406 166.99048168 -140 170 C-105.02 170 -70.04 170 -34 170 C-33.34 173.3 -32.68 176.6 -32 180 C-31.30078093 182.40467393 -30.55330725 184.79603674 -29.75 187.16796875 C-29.53601563 187.80165878 -29.32203125 188.43534882 -29.1015625 189.08824158 C-28.40963563 191.12439607 -27.70635558 193.15630897 -27 195.1875 C-26.75701172 195.89042175 -26.51402344 196.59334351 -26.26367188 197.31756592 C-21.80533597 210.17056711 -16.80897005 222.69088864 -11 235 C-10.35877197 236.36294189 -10.35877197 236.36294189 -9.70458984 237.75341797 C-0.16802033 257.82650112 10.95576968 277.00098452 24 295 C24.47791992 295.66193359 24.95583984 296.32386719 25.44824219 297.00585938 C32.51530554 306.74228812 40.02989202 315.99154285 48 325 C48.81597656 325.928125 49.63195312 326.85625 50.47265625 327.8125 C54.60234814 332.45928882 58.86647563 336.90972557 63.30078125 341.265625 C65 343 65 343 67 345.5625 C69.30024851 348.36592787 71.8478967 350.56865165 74.6015625 352.91796875 C76.88978454 354.90432436 79.11807711 356.94574581 81.33691406 359.0090332 C87.02145104 364.28843413 92.83811637 369.2778889 99 374 C99.57733887 374.44456543 100.15467773 374.88913086 100.74951172 375.34716797 C147.27532291 411.08023261 200.64798532 436.43450352 258 449 C258.69706055 449.15758789 259.39412109 449.31517578 260.11230469 449.47753906 C267.74742203 451.19342516 275.44897194 452.42584356 283.1875 453.5625 C283.96375732 453.67746826 284.74001465 453.79243652 285.53979492 453.91088867 C288.35658876 454.30676697 291.1759714 454.6591292 294 455 C295.02201004 455.12547211 295.02201004 455.12547211 296.06466675 455.253479 C309.63012233 456.88199778 323.03274968 457.32766886 336.6875 457.25 C337.69834656 457.24623352 338.70919312 457.24246704 339.75067139 457.23858643 C378.24140181 457.07080963 416.57469606 452.33516597 453.25 440.25 C453.91432037 440.03312531 454.57864075 439.81625061 455.26309204 439.59280396 C497.33593805 425.84621808 536.59984008 406.74640819 572 380 C572.62455078 379.52852539 573.24910156 379.05705078 573.89257812 378.57128906 C596.83690346 361.13409683 618.79529625 341.41012099 636.76171875 318.8125 C638.34359708 316.82479948 639.94156871 314.87496879 641.58203125 312.9375 C659.70177384 291.28366408 674.85542553 266.38124059 687.05273438 240.96386719 C688.00414723 238.99140198 688.97725843 237.03077605 689.953125 235.0703125 C694.08580881 226.65734904 697.62545783 218.08111016 700.9375 209.3125 C701.52229126 207.77045898 701.52229126 207.77045898 702.11889648 206.19726562 C703.86447447 201.48432173 705.45990208 197.03234097 706 192 C697.73926893 188.49776161 689.26930798 185.73069106 680.7265625 183.015625 C679.2706517 182.55067141 677.81479118 182.08556032 676.35897827 181.62030029 C673.32914811 180.65302846 670.29842781 179.68860977 667.26708984 178.72607422 C663.38474467 177.49291287 659.50523968 176.25106228 655.62639809 175.0069313 C652.63026372 174.04725383 649.63245534 173.09289527 646.6341362 172.14006805 C645.20223644 171.68417003 643.77091614 171.22644775 642.34019852 170.76685333 C640.34650897 170.12712381 638.35062191 169.49477803 636.35400391 168.86425781 C635.22056549 168.50325989 634.08712708 168.14226196 632.91934204 167.77032471 C629.85860739 166.82990897 629.85860739 166.82990897 626 167 C625.79431396 167.55236328 625.58862793 168.10472656 625.37670898 168.67382812 C610.80857757 207.6729623 591.46781937 242.85653103 563.11328125 273.69921875 C561.63379055 275.30997664 560.17437949 276.93930319 558.73046875 278.58203125 C554.75210986 283.10258556 550.7368919 287.30212619 546.12890625 291.1796875 C543.70090762 293.25573771 541.39224363 295.439328 539.0625 297.625 C528.26210091 307.46536362 516.35906712 316.22496433 504 324 C502.92363281 324.680625 501.84726562 325.36125 500.73828125 326.0625 C480.82406425 338.44002064 459.98125898 347.90862896 438 356 C437.22688477 356.28987793 436.45376953 356.57975586 435.65722656 356.87841797 C420.87519832 362.38637117 405.2167168 365.29324817 389.75 368.1875 C388.93716553 368.34226807 388.12433105 368.49703613 387.28686523 368.65649414 C372.51976272 371.31917691 357.80017146 372.38147921 342.8125 372.3125 C341.59483444 372.31026428 341.59483444 372.31026428 340.35256958 372.3079834 C310.64739434 372.21106012 281.44635159 368.75359241 253 360 C251.64914307 359.59056152 251.64914307 359.59056152 250.27099609 359.17285156 C234.55898356 354.3584377 219.7367792 348.25729537 205 341 C203.71802734 340.36940674 203.71802734 340.36940674 202.41015625 339.72607422 C183.63084529 330.38462787 166.32331956 319.15642009 150 306 C149.42588379 305.53770996 148.85176758 305.07541992 148.26025391 304.59912109 C135.33739997 294.10528862 122.69921713 282.77242183 112 270 C111.52530273 269.43764648 111.05060547 268.87529297 110.56152344 268.29589844 C93.24128943 247.6991547 78.38190804 225.4247192 67 201 C66.62214355 200.18966309 66.24428711 199.37932617 65.85498047 198.54443359 C64.64338239 195.9298807 63.44362958 193.31030206 62.25 190.6875 C61.70243042 189.48770508 61.70243042 189.48770508 61.14379883 188.26367188 C58.44186495 182.23709037 56.27252112 176.24943309 54 170 C83.04 170 112.08 170 142 170 C138.14155298 164.85540398 134.44331867 160.12110772 130.0625 155.5 C129.00059743 154.3639395 127.93939484 153.22722429 126.87890625 152.08984375 C126.12697998 151.28522705 126.12697998 151.28522705 125.35986328 150.46435547 C121.54802127 146.35961069 117.92629806 142.0896621 114.296875 137.82421875 C113.28156606 136.63254314 112.26593033 135.4411459 111.25 134.25 C110.73526123 133.64639648 110.22052246 133.04279297 109.69018555 132.42089844 C106.30910646 128.47534169 102.84905793 124.61889068 99.3125 120.8125 C95.94416553 117.18716792 92.7207798 113.48767607 89.625 109.625 C85.01428361 103.89477513 80.02243362 98.56914922 74.99609375 93.20703125 C70.61883286 88.5360668 66.4485711 83.70252459 62.30078125 78.828125 C61.28418244 77.63513685 60.26724412 76.44243795 59.25 75.25 C58.73518066 74.64631592 58.22036133 74.04263184 57.68994141 73.4206543 C54.3089801 69.47514717 50.84897957 65.61880634 47.3125 61.8125 C43.94416553 58.18716792 40.7207798 54.48767607 37.625 50.625 C34.09282026 46.23193057 30.36100902 42.10086463 26.5 38 C21.82415876 33.03301384 17.41284257 27.94056017 13.13671875 22.62109375 C10.83522713 19.79787459 8.4721529 17.04395075 6.0625 14.3125 C5.33160156 13.48363281 4.60070312 12.65476562 3.84765625 11.80078125 C1.25336666 9.27230873 0.64508789 9.35885358 -1.91796875 11.90625 Z " fill="#030303" transform="translate(154,320)"/>
</svg>
