<?xml version="1.0" encoding="UTF-8"?>
<svg version="1.1" xmlns="http://www.w3.org/2000/svg" width="571" height="571">
<path d="M0 0 C2.36491558 1.8827139 3.42867431 3.25582483 5.10644531 5.67382812 C6.99067764 7.884802 8.04390936 8.93264628 10.88237 9.64823914 C13.67863295 9.78158826 16.39976153 9.70379024 19.1953125 9.5546875 C21.34491747 9.51173327 23.49458128 9.47165073 25.64428711 9.43408203 C27.33278275 9.38867279 27.33278275 9.38867279 29.0553894 9.34234619 C53.12413608 8.78591399 73.23347465 12.10250656 95.64746094 20.59863281 C99.21563262 21.94744178 102.81633731 23.14410816 106.45703125 24.28515625 C107.44517822 24.59501465 108.4333252 24.90487305 109.45141602 25.22412109 C110.34787842 25.50465332 111.24434082 25.78518555 112.16796875 26.07421875 C125.4221359 30.25778551 131.56542212 38.51177886 139.60546875 49.32421875 C140.2490332 50.18523193 140.89259766 51.04624512 141.55566406 51.93334961 C144.91993147 56.44132031 148.26363218 60.96388309 151.58984375 65.5 C152.53923828 66.79405762 152.53923828 66.79405762 153.5078125 68.11425781 C154.7162151 69.76399561 155.92205304 71.41561581 157.125 73.06933594 C157.67027344 73.81473633 158.21554688 74.56013672 158.77734375 75.328125 C159.25268555 75.98111572 159.72802734 76.63410645 160.21777344 77.30688477 C161.5753264 79.03583021 163.01843673 80.55599716 164.60546875 82.07421875 C165.29511719 81.543125 165.98476562 81.01203125 166.6953125 80.46484375 C178.83436065 71.33974308 188.42344409 68.00827921 203.60546875 69.07421875 C214.35067082 71.31224076 222.07503345 77.77202224 228.90234375 86.08203125 C229.464375 86.73945312 230.02640625 87.396875 230.60546875 88.07421875 C231.32605469 88.945625 232.04664063 89.81703125 232.7890625 90.71484375 C236.43350196 93.76788319 239.30243512 94.14714085 243.91796875 94.69921875 C248.39764 95.29170431 252.41011003 95.89957865 256.57421875 97.7109375 C261.17069205 99.54478411 264.98799264 98.97842737 269.79296875 98.26171875 C287.57150245 96.08682699 308.39887577 94.43438102 324.7109375 103.3046875 C326.63755942 104.27322502 326.63755942 104.27322502 328.97265625 103.73046875 C332.16347984 104.1470748 332.51887637 104.76571453 334.5078125 107.1875 C335.53817609 108.57357236 336.54895672 109.97434989 337.54296875 111.38671875 C338.07583496 112.12075928 338.60870117 112.8547998 339.15771484 113.61108398 C342.52258554 118.32097429 345.43950496 123.11466196 348.078125 128.26953125 C350.27886824 132.31079377 352.85870872 136.07771645 355.43530273 139.88378906 C359.1273044 145.3387369 362.71822554 150.85432923 366.29296875 156.38671875 C371.57213124 164.53426178 376.89613264 172.59142969 382.85546875 180.26171875 C390.22165963 190.00473389 390.5056811 201.30439373 389.60546875 213.07421875 C385.97165578 236.10379779 371.15233346 255.85901775 355.828125 272.62890625 C353.6949848 274.97573537 351.61914802 277.36456461 349.54296875 279.76171875 C345.84152816 283.92039612 341.86835494 287.50495472 337.60546875 291.07421875 C336.65929687 291.89664062 335.713125 292.7190625 334.73828125 293.56640625 C288.62866798 333.52471365 225.8476341 365.57759155 163.60546875 362.07421875 C155.03631824 361.22096797 147.26235844 358.96924524 139.60546875 355.07421875 C136.94808523 353.97660382 134.33338986 352.98352579 131.60546875 352.07421875 C126.49230175 346.23545821 122.62665724 339.50718702 118.87695312 332.74780273 C115.21182524 326.22125715 111.01566905 320.07377062 106.828125 313.875 C103.43143047 308.84189609 100.14396333 303.7408908 96.85546875 298.63671875 C93.44034314 293.34415229 89.99495723 288.12502858 86.23046875 283.07421875 C85.62589844 282.23632812 85.02132812 281.3984375 84.3984375 280.53515625 C83.1504214 278.82219297 81.85734931 277.14153501 80.53125 275.48828125 C73.74674945 265.97131978 74.96212136 256.12507082 76.60546875 245.07421875 C79.68216394 228.15239518 88.33133104 213.55663738 98.60546875 200.07421875 C101.57808646 195.61529219 102.13721504 191.39168165 101.60546875 186.07421875 C100.14292789 183.28362355 98.40267173 180.99213856 96.46484375 178.51171875 C89.73172586 169.68511042 89.59181213 159.72997496 90.60546875 149.07421875 C92.23790432 139.48197339 98.46337834 131.40470798 105.60546875 125.07421875 C106.26546875 125.07421875 106.92546875 125.07421875 107.60546875 125.07421875 C104.70525418 119.78908968 101.50976885 115.099632 97.68994141 110.41479492 C95.32144235 107.46475588 93.31137556 104.64756306 91.6328125 101.25 C86.26435814 91.12859912 78.40900531 87.50893159 67.79296875 84.19921875 C52.19294222 79.46265618 36.842973 78.59062351 20.60546875 79.07421875 C20.32630615 79.95412476 20.32630615 79.95412476 20.04150391 80.85180664 C15.32560589 95.40666075 7.27408667 107.5694182 -6.39453125 115.07421875 C-17.22168398 120.49651263 -28.81255676 121.9167897 -40.7421875 119.35546875 C-56.62814685 113.81437463 -67.34332501 102.66984676 -74.64453125 87.76171875 C-82.54229748 69.49549472 -83.76834963 46.77055707 -76.39453125 28.07421875 C-69.6103771 11.74655241 -59.83287353 -0.22685371 -43.40234375 -7.19921875 C-28.1382654 -12.72279574 -13.12798457 -8.20250776 0 0 Z " fill="#7F7F7F" transform="translate(80.39453125,8.92578125)"/>
<path d="M0 0 C1.22799316 -0.01458252 2.45598633 -0.02916504 3.72119141 -0.04418945 C15.80383611 0.09089907 27.96132527 2.71483039 37.0234375 11.15625 C43.41597637 18.01653562 44.89754305 24.91718658 44.8684082 34.15185547 C43.88026381 58.24929268 24.15659722 80.05104874 8.3125 96.5625 C6.94931641 97.98755859 6.94931641 97.98755859 5.55859375 99.44140625 C-0.50546697 105.64348258 -6.83723721 111.24718726 -13.6875 116.5625 C-14.26064941 117.01206055 -14.83379883 117.46162109 -15.42431641 117.92480469 C-31.46782844 130.46582997 -48.68928926 141.0685436 -66.6875 150.5625 C-67.36522461 150.92907715 -68.04294922 151.2956543 -68.74121094 151.67333984 C-101.19585786 169.05474493 -145.1504853 183.35655358 -181.6875 172.5625 C-184.95574564 171.1950332 -187.80093774 169.6068804 -190.6875 167.5625 C-191.595 166.964375 -192.5025 166.36625 -193.4375 165.75 C-199.39047617 159.96238428 -201.56863642 154.27053126 -201.77734375 146.00390625 C-200.68871942 118.28585607 -182.02455466 96.74628734 -163.6875 77.5625 C-163.05199219 76.88574219 -162.41648438 76.20898438 -161.76171875 75.51171875 C-156.81530756 70.37642312 -151.25623042 65.99908701 -145.6875 61.5625 C-144.58963368 60.67343642 -143.49198347 59.78410594 -142.39453125 58.89453125 C-134.15111996 52.26073838 -125.62321204 46.22716584 -116.6875 40.5625 C-116.0992041 40.18915527 -115.5109082 39.81581055 -114.90478516 39.43115234 C-91.63920952 24.80062253 -66.35888321 12.51660306 -39.6875 5.5625 C-38.44009033 5.22412109 -38.44009033 5.22412109 -37.16748047 4.87890625 C-24.78576446 1.60601115 -12.81539195 0.08655829 0 0 Z " fill="#5B605F" transform="translate(412.6875,182.4375)"/>
<path d="M0 0 C4.20236341 4.36111937 6.66703001 9.53578882 9.25341797 14.96386719 C13.80877378 24.45903972 20.15780084 32.82252058 26.4765625 41.20703125 C27.9453125 43.38671875 27.9453125 43.38671875 27.9453125 45.38671875 C27.16671875 45.24234375 26.388125 45.09796875 25.5859375 44.94921875 C-27.63467164 36.11999327 -84.67148177 61.9693262 -127.25683594 92.09912109 C-137.76644911 99.6259679 -147.8437742 107.5101511 -157.54296875 116.05859375 C-158.91262686 117.26191095 -160.2954364 118.4502178 -161.6796875 119.63671875 C-166.60449557 123.89601222 -170.87466687 128.40447194 -175.0546875 133.38671875 C-175.88871094 134.33289063 -176.72273438 135.2790625 -177.58203125 136.25390625 C-192.0906144 152.79642705 -202.87093859 170.86734006 -208.0546875 192.38671875 C-210.90192329 189.6945838 -213.08553192 187.03306065 -215.15625 183.7109375 C-215.72448486 182.80738525 -216.29271973 181.90383301 -216.87817383 180.97290039 C-217.47267334 180.01633545 -218.06717285 179.05977051 -218.6796875 178.07421875 C-223.79298924 169.8780161 -223.79298924 169.8780161 -229.16015625 161.84765625 C-229.85214111 160.84665894 -229.85214111 160.84665894 -230.55810547 159.82543945 C-231.40197721 158.61597389 -232.255792 157.41335599 -233.12158203 156.21948242 C-235.86742537 152.26652637 -236.71014579 149.1588785 -237.0546875 144.38671875 C-237.10310791 143.72212646 -237.15152832 143.05753418 -237.20141602 142.37280273 C-238.66493408 117.94417654 -226.01710696 98.11815803 -210.3984375 80.3359375 C-207.67768522 77.29437423 -204.88197157 74.32916714 -202.0546875 71.38671875 C-201.56709961 70.8772168 -201.07951172 70.36771484 -200.57714844 69.84277344 C-193.80735992 62.80836778 -186.78917861 56.36792496 -179.0546875 50.38671875 C-178.48298828 49.9386084 -177.91128906 49.49049805 -177.32226562 49.02880859 C-139.61458334 19.5509776 -47.2498366 -37.0992063 0 0 Z " fill="#DCDCDC" transform="translate(407.0546875,127.61328125)"/>
<path d="M0 0 C0.67418976 -0.01168213 1.34837952 -0.02336426 2.04299927 -0.03540039 C4.2705931 -0.06894892 6.49751742 -0.07973156 8.7253418 -0.08740234 C10.29738069 -0.09960982 11.86941744 -0.11209662 13.44145203 -0.12484741 C16.74764177 -0.14733205 20.05360139 -0.15687594 23.35986328 -0.15917969 C26.70296851 -0.16336259 30.04448448 -0.1906937 33.38720703 -0.24121094 C52.41491679 -0.52379857 69.46554091 -0.13536419 87.56015015 6.53192139 C90.83749196 7.71311424 94.15628797 8.70146819 97.49824524 9.68154907 C100.48754907 10.55835313 103.4616205 11.48130165 106.43676758 12.40478516 C107.91413143 12.86109327 109.39304077 13.31242141 110.87329102 13.75927734 C131.65924402 20.03850727 131.65924402 20.03850727 136.79956055 28.57666016 C137.45311523 29.62080078 138.10666992 30.66494141 138.7800293 31.74072266 C139.1414502 32.32370117 139.50287109 32.90667969 139.87524414 33.50732422 C142.34725458 37.39344564 144.99799432 41.16038617 147.61206055 44.95166016 C148.72965656 46.5894023 149.84685115 48.22741845 150.96362305 49.86572266 C152.86787536 52.6525735 154.79379051 55.41951829 156.76049805 58.16259766 C157.86264648 59.72880859 157.86264648 59.72880859 158.98706055 61.32666016 C159.62385742 62.21095703 160.2606543 63.09525391 160.91674805 64.00634766 C162.11206055 66.45166016 162.11206055 66.45166016 162.1784668 68.98681641 C160.68200732 72.44566596 158.22405205 74.00674157 155.17456055 76.01416016 C154.56281982 76.43036621 153.9510791 76.84657227 153.32080078 77.27539062 C151.98177697 78.18365033 150.63854182 79.08572404 149.29174805 79.98242188 C146.9767422 81.54287273 144.70058481 83.1513592 142.42456055 84.76806641 C140.84196461 85.87198888 139.25864118 86.97486921 137.67456055 88.07666016 C136.55803101 88.87632202 136.55803101 88.87632202 135.41894531 89.69213867 C132.08545286 91.96665594 129.44583121 93.36866853 125.4987793 94.35009766 C120.09341135 92.91614768 118.2605432 89.01225306 115.36206055 84.45166016 C114.75861816 83.55133057 114.15517578 82.65100098 113.53344727 81.72338867 C111.15675414 78.16963372 108.83638834 74.58149534 106.52905273 70.98242188 C105.55986018 69.4732688 104.58362028 67.96861123 103.59936523 66.46923828 C102.71766553 65.12298713 101.85486635 63.76408475 101.01538086 62.39111328 C98.39216157 58.3746401 96.26112796 56.92793972 91.65057373 55.33311462 C89.79216781 54.68781555 87.94789952 54.00140219 86.11309814 53.29176331 C65.63380522 45.38977843 47.57258178 43.10698768 25.73809814 43.59289551 C19.86529277 43.71704383 13.99221653 43.76732014 8.11824226 43.78884315 C6.09828619 43.80666455 4.07874061 43.85991554 2.05943298 43.91410828 C-8.0200779 44.0184142 -8.0200779 44.0184142 -11.63378906 41.17944336 C-16.72863441 35.01409006 -16.25405036 29.88128377 -16.26293945 22.07666016 C-16.28743164 20.95259766 -16.31192383 19.82853516 -16.3371582 18.67041016 C-16.35905185 12.49640109 -16.36720515 8.14495221 -11.88793945 3.45166016 C-7.86790512 0.50523002 -4.94377332 0.05888302 0 0 Z " fill="#DCDCDC" transform="translate(71.887939453125,31.54833984375)"/>
<path d="M0 0 C7.43154677 0.86694519 14.7185538 2.22419231 22.04345703 3.73657227 C23.50587293 4.03543066 24.96975895 4.32718953 26.43505859 4.61157227 C39.79906704 7.20770754 52.22020966 10.8368327 61 22 C67.57366197 31.75121212 68.94139376 41.37378705 68 53 C65.60556522 64.70007904 59.46632842 72.9406697 50 80 C41.05035866 85.89904491 30.37567255 87.0208432 20 85 C9.41338951 82.32107113 0.8515082 74.80650769 -4.8125 65.5703125 C-11.48059099 51.13740502 -8.14337782 36.54962684 -4.98876953 21.7331543 C-4.49445184 19.41144137 -4.01005041 17.08782408 -3.52734375 14.76367188 C-3.21670419 13.27852893 -2.90552644 11.79349844 -2.59375 10.30859375 C-2.44893188 9.61801376 -2.30411377 8.92743378 -2.15490723 8.21592712 C-1.55716986 5.41272452 -0.90743078 2.72229234 0 0 Z " fill="#7E7F7F" transform="translate(380,344)"/>
<path d="M0 0 C4.11166031 1.32057533 8.21899404 2.65367577 12.32299805 3.99780273 C13.7154671 4.45199106 15.10900297 4.90292367 16.50366211 5.3503418 C29.07422333 9.38717434 41.58546577 13.54555523 48.3125 25.8125 C52.95191162 36.23117868 52.8694815 46.9897589 49.3125 57.75 C45.46924793 67.35813018 38.80837024 74.94780631 29.375 79.3125 C20.38318007 82.9668484 12.68047774 82.87716227 3.6796875 79.32421875 C-4.45624993 75.3036899 -9.81930899 68.57723493 -13.0859375 60.22265625 C-18.70719549 40.40411847 -8.24060246 17.73269829 0 0 Z " fill="#7E7F7F" transform="translate(438,477)"/>
<path d="M0 0 C7.4193001 1.4651559 14.38529832 3.70234036 21.5 6.25 C22.57636719 6.61996094 23.65273438 6.98992187 24.76171875 7.37109375 C36.64099762 11.61059278 44.39216824 16.56749734 49.99609375 28.0390625 C53.81611853 37.21443302 53.49353752 46.46788612 51 56 C49.34144942 59.9215729 47.33907924 63.44741348 45 67 C44.42958984 67.89332031 44.42958984 67.89332031 43.84765625 68.8046875 C39.26898672 75.09424778 31.34192496 78.98927181 24 81 C13.09571142 82.09937728 5.33583652 80.62557407 -3.25 73.875 C-10.03669475 67.53444255 -13.07995657 59.09312358 -14 50 C-14.24483655 39.6483554 -10.34257695 30.12187385 -7 20.5 C-6.43377197 18.84152911 -5.86865904 17.18267707 -5.3046875 15.5234375 C-4.27638001 12.50345271 -3.24209656 9.48568733 -2.19921875 6.47070312 C-1.45524391 4.31753814 -0.72039003 2.1611701 0 0 Z " fill="#7E7F7F" transform="translate(518,387)"/>
<path d="M0 0 C7.0204055 2.27420158 14.01659534 4.614691 21 7 C21.76086914 7.25587891 22.52173828 7.51175781 23.30566406 7.77539062 C33.59789494 11.28839468 42.84195451 15.99758704 48.5 25.75 C52.79807798 36.15587302 52.61458248 46.43724482 49 57 C44.70496807 65.97568592 37.23355103 73.00007648 27.8359375 76.33984375 C18.53354231 78.50527734 9.31243602 77.79678208 1 73 C-6.30353554 68.15961762 -10.64595388 61.37221622 -13 53 C-14.6087249 40.67118797 -11.43275094 30.86634822 -6.97119141 19.51025391 C-5.40342003 15.45801024 -3.98944654 11.35345196 -2.5625 7.25 C-2.06466823 5.83823594 -1.56606025 4.42674516 -1.06640625 3.015625 C-0.71449219 2.02046875 -0.36257813 1.0253125 0 0 Z " fill="#7E7F7F" transform="translate(484,242)"/>
<path d="M0 0 C0.495 0.99 0.495 0.99 1 2 C0.443125 2.08636719 -0.11375 2.17273438 -0.6875 2.26171875 C-9.53280647 3.89033092 -15.82690593 7.60986561 -21 15 C-24.89134439 21.7885497 -24.51546358 28.63869928 -24.5 36.3125 C-24.54253906 38.21418945 -24.54253906 38.21418945 -24.5859375 40.15429688 C-24.60314625 48.46182264 -23.23667144 53.91097717 -19 61 C-18.67 61.99 -18.34 62.98 -18 64 C-16.13908723 65.11036951 -16.13908723 65.11036951 -14 66 C-13.43861328 66.34450195 -12.87722656 66.68900391 -12.29882812 67.04394531 C-6.22769131 70.59606348 -0.40752894 70.65911146 6.5 70.75 C7.60859375 70.77964844 8.7171875 70.80929688 9.859375 70.83984375 C12.57298752 70.91002338 15.2857668 70.96297612 18 71 C16.59965742 78.80699076 11.83751685 84.74623483 6 90 C4.700625 91.2684375 4.700625 91.2684375 3.375 92.5625 C-2.78508293 97.55374668 -10.75966166 99.70067324 -18.59375 99.31640625 C-29.64700872 97.8629745 -37.10672588 91.70745671 -44.1796875 83.4140625 C-54.02390856 70.35885088 -56.48781049 53.12943803 -54.5390625 37.2421875 C-52.03260182 22.88164217 -46.17412883 11.29691435 -34.6328125 2.1171875 C-23.90439854 -5.36019193 -11.63903713 -6.68573622 0 0 Z " fill="#EBCF64" transform="translate(68,17)"/>
<path d="M0 0 C7.28927278 1.43657201 14.09652807 3.61925957 21.0625 6.1875 C22.09955078 6.54908203 23.13660156 6.91066406 24.20507812 7.28320312 C32.51169227 10.34353465 39.23694597 14.20578911 43.4375 22.25 C46.99941331 30.23635272 47.41920646 39.07973972 44.4375 47.375 C40.82676537 55.17925451 34.92151849 59.9259779 27 63 C24.5625 63.75 24.5625 63.75 22 64 C21.35546875 64.06316406 20.7109375 64.12632812 20.046875 64.19140625 C11.81106996 64.63775233 4.99506466 61.91459788 -1.375 56.75 C-7.30516107 51.17924263 -10.05060644 44.29274033 -10.375 36.23046875 C-10.30279251 28.47718957 -7.57010478 21.52000525 -5 14.3125 C-4.51668233 12.91785281 -4.03489993 11.52267258 -3.5546875 10.12695312 C-2.38740278 6.74498157 -1.19959388 3.37066739 0 0 Z " fill="#7E7F7F" transform="translate(293,507)"/>
<path d="M0 0 C6.80484731 1.9939912 13.54635981 4.12607666 20.25 6.4375 C21.10851562 6.72431641 21.96703125 7.01113281 22.8515625 7.30664062 C32.08770772 10.49666309 39.06602253 15.351024 44.109375 23.875 C47.40012304 31.32575028 47.07896141 39.89158291 44.3125 47.4375 C42.49386601 51.4397755 40.4167639 54.16658604 37 57 C35.8553125 58.051875 35.8553125 58.051875 34.6875 59.125 C27.55697795 64.09978282 20.51853338 64.98670271 12 64 C5.74451393 62.38624076 1.17784446 60.03798891 -3 55 C-3.70125 54.236875 -4.4025 53.47375 -5.125 52.6875 C-10.15135724 45.48305463 -10.87238669 38.58105839 -10 30 C-8.66184238 24.62483578 -6.86947494 19.4594362 -5 14.25 C-4.51653689 12.85996243 -4.03475436 11.46933916 -3.5546875 10.078125 C-2.38904402 6.71179171 -1.20101602 3.35390112 0 0 Z " fill="#7E7F7F" transform="translate(281,379)"/>
<path d="M0 0 C6.11277841 -0.3018656 11.51140434 0.80954178 17.4375 2.25 C18.79198242 2.55744141 18.79198242 2.55744141 20.17382812 2.87109375 C29.46403237 5.09105566 36.49638646 7.95889486 42 16 C45.80214829 22.33691382 45.66239453 28.74125998 45 36 C43.875 39.8125 43.875 39.8125 42 43 C41.60941406 43.66644531 41.21882813 44.33289063 40.81640625 45.01953125 C37.05449673 50.76363672 32.61031136 54.07716144 26 56 C18.97253639 56.892251 11.89260585 57.10880634 5.67578125 53.328125 C-0.46710589 48.45963636 -4.38371161 42.48349804 -5.46875 34.58984375 C-5.57119149 22.61699477 -3.00268908 11.55076989 0 0 Z " fill="#7DDCDD" transform="translate(390,360)"/>
<path d="M0 0 C1.96900761 0.94887414 3.70523063 1.97762561 5.48828125 3.23828125 C6.43703125 3.89828125 7.38578125 4.55828125 8.36328125 5.23828125 C10.41316984 7.16758816 11.46726172 8.63932246 12.48828125 11.23828125 C9.82151622 12.57166376 7.39309424 12.64760238 4.42578125 12.98828125 C-24.00822985 17.05440251 -50.01091382 31.36093551 -70.51171875 51.23828125 C-71.24261719 51.89570313 -71.97351563 52.553125 -72.7265625 53.23046875 C-83.10334094 62.8960093 -90.7367638 75.37255883 -96.51171875 88.23828125 C-97.17171875 88.23828125 -97.83171875 88.23828125 -98.51171875 88.23828125 C-102.41302883 81.24843401 -102.63944136 73.62337526 -101.0078125 65.83203125 C-98.1562937 57.35894682 -91.86011783 52.70547831 -84.88671875 47.73828125 C-83.17563411 46.49890103 -81.46470081 45.25931185 -79.75390625 44.01953125 C-78.88217773 43.39175781 -78.01044922 42.76398438 -77.11230469 42.1171875 C-73.05688167 39.18717102 -69.03537332 36.21168525 -65.01171875 33.23828125 C-63.43505119 32.07661203 -61.85822767 30.91515446 -60.28125 29.75390625 C-57.04740655 27.3712844 -53.81592129 24.98550748 -50.5859375 22.59765625 C-45.90107853 19.13558226 -41.21028225 15.68173471 -36.51171875 12.23828125 C-35.82078125 11.73184082 -35.12984375 11.22540039 -34.41796875 10.70361328 C-32.51576663 9.31364967 -30.60868402 7.93074397 -28.69921875 6.55078125 C-27.64089844 5.78378906 -26.58257812 5.01679687 -25.4921875 4.2265625 C-17.52347863 -1.08939139 -9.42656307 -2.85875552 0 0 Z " fill="#EACE64" transform="translate(285.51171875,91.76171875)"/>
<path d="M0 0 C5.34274303 0.66033903 10.06216538 2.28827528 15.0625 4.1875 C15.85205078 4.46658203 16.64160156 4.74566406 17.45507812 5.03320312 C24.26922834 7.6206382 27.23895476 10.84226371 30.8125 17.25 C33.19387699 24.77013785 32.60753242 31.41273561 29.390625 38.60546875 C25.81307346 44.76569092 20.84025004 49.54733332 13.93359375 51.59375 C8.79862259 52.67261263 5.35402663 52.47735352 0.8125 49.875 C-3.70222749 46.7951859 -6.26897241 43.19308278 -8 38 C-8.84004531 28.55293309 -7.16240212 20.84617891 -4 12 C-3.24680132 9.73022561 -2.49664636 7.45943821 -1.75 5.1875 C-1.16821601 3.45781144 -0.5854889 1.72843799 0 0 Z " fill="#7DDBDC" transform="translate(445,494)"/>
<path d="M0 0 C8.719589 1.18652635 20.95983254 3.70819776 26.9375 10.625 C27.9584375 12.295625 27.9584375 12.295625 29 14 C29.36609375 14.59039062 29.7321875 15.18078125 30.109375 15.7890625 C32.50485083 21.73572617 31.89209931 30.31815523 29.9375 36.375 C27.28572618 42.1640837 23.13733582 46.68471642 17.75 50 C12.14438753 51.49482999 6.41262379 52.3575078 0.87890625 50.15625 C-3.77770935 47.19203878 -6.53542954 43.29107825 -8 38 C-10.462803 24.79715386 -4.50762218 12.15919094 0 0 Z " fill="#7DDCDD" transform="translate(526,404)"/>
<path d="M0 0 C0 0.66 0 1.32 0 2 C-0.79776855 2.22929199 -1.59553711 2.45858398 -2.41748047 2.69482422 C-10.24675865 5.01405672 -17.67751547 7.78641096 -25.125 11.125 C-26.20539551 11.60654541 -27.28579102 12.08809082 -28.39892578 12.58422852 C-57.84614138 25.86310814 -84.85473083 43.2107873 -108.7265625 65.01171875 C-111.35708559 67.3122965 -114.0153722 69.19351475 -117 71 C-115.51008115 60.64600699 -107.60798937 51.71346128 -101 44 C-100.33484375 43.18917969 -99.6696875 42.37835938 -98.984375 41.54296875 C-74.4400975 12.6807165 -37.0521683 -1.04394926 0 0 Z " fill="#DADADA" transform="translate(317,115)"/>
<path d="M0 0 C22.29518315 5.85633843 22.29518315 5.85633843 27.875 13.0625 C31.27829903 19.2512684 31.12795581 26.47217738 29.44921875 33.2109375 C27.02304944 39.41867797 23.2677213 43.52591522 17.28125 46.2734375 C11.99397982 47.95739684 6.97446103 47.64549688 1.75 45.9375 C-2.92426402 42.64426853 -6.99376864 38.79935494 -8 33 C-9.686234 21.48378826 -5.09475517 10.18951034 0 0 Z " fill="#7DDCDD" transform="translate(492,259)"/>
<path d="M0 0 C9.09516433 1.65518616 17.67254042 3.9264267 23.8125 11.125 C25.59088873 15.43057271 25.66935907 19.41010925 25 24 C22.38679161 29.13308791 19.46062759 32.1797908 14 34 C9.2762819 34.54885106 5.89865118 34.46596728 1.625 32.25 C-3.00363759 28.28259635 -4.77066267 25.33159621 -5.375 19.1875 C-5.35259449 12.42103741 -2.46769224 6.19567016 0 0 Z " fill="#7DDBDC" transform="translate(289,396)"/>
<path d="M0 0 C8.90687942 1.35193705 17.41536065 2.85320112 23.01171875 10.4140625 C25.57910677 14.53406067 25.41782525 18.24322023 25 23 C23.42415066 28.12151037 20.71365613 30.51610395 16.1796875 33.08203125 C11.9991891 34.84263541 8.36658811 34.93243571 4.046875 33.23046875 C-0.14146258 31.02191259 -2.95473428 28.66067637 -4.6875 24.25 C-5.95161705 15.14835726 -3.30209002 8.3967432 0 0 Z " fill="#7DDBDC" transform="translate(301,524)"/>
<path d="M0 0 C1.875 1.125 1.875 1.125 3 3 C3.583638 6.7519586 3.19716893 8.62143565 1.4375 12 C-3.14776582 17.64340408 -7.97462346 21.86729641 -15 24 C-21.31034483 23.68965517 -21.31034483 23.68965517 -24 21 C-24 14.5992254 -21.41980856 10.52413881 -17 6 C-11.66735902 1.92505736 -6.8690888 -0.57242407 0 0 Z " fill="#181A19" transform="translate(394,209)"/>
<path d="M0 0 C0.66 0.66 1.32 1.32 2 2 C1.78982657 7.46450927 0.47838531 10.80809976 -3 15 C-7.89973326 19.29495447 -12.51787161 22.65178716 -19.125 23.3125 C-22 23 -22 23 -23.875 21.875 C-25.57133822 19.04776963 -25.44601397 17.24953036 -25 14 C-21.80473288 7.86508713 -16.6949133 3.12515377 -10.5 0.0625 C-6.49816141 -1.15234386 -4.03058673 -1.02740446 0 0 Z " fill="#181A19" transform="translate(357,210)"/>
<path d="M0 0 C2.375 1.5 2.375 1.5 4 3 C3.72976788 9.48557094 1.40568415 13.28622605 -3 18 C-7.53097349 21.58702068 -11.92972881 23.64299172 -17.6875 24.3125 C-20 24 -20 24 -21.8125 22.875 C-23.5958666 20.059158 -23.45027801 18.28059691 -23 15 C-18.7148656 6.77254194 -9.78407126 -1.27618321 0 0 Z " fill="#181A19" transform="translate(432,209)"/>
<path d="M0 0 C0.76441406 -0.01675781 1.52882813 -0.03351563 2.31640625 -0.05078125 C4.96511247 0.40286457 5.85834989 1.16647548 7.4375 3.3125 C7.32609411 8.32576502 5.55898144 11.47067669 2.4375 15.3125 C-3.59774253 20.51743195 -8.35728137 23.90924317 -16.5625 23.3125 C-17.5525 22.6525 -18.5425 21.9925 -19.5625 21.3125 C-20.10955932 17.2486308 -19.87102524 14.91720947 -18 11.25 C-13.21137136 5.47908856 -7.88734897 0.0400373 0 0 Z " fill="#171918" transform="translate(362.5625,237.6875)"/>
<path d="M0 0 C0.99 0.66 1.98 1.32 3 2 C2.59751055 7.836097 1.96233713 11.4433123 -2 16 C-8.20680614 20.71584737 -12.97974456 23.86749702 -21 23 C-23.0625 21.9375 -23.0625 21.9375 -24 20 C-23.89713397 14.54810067 -22.51476857 11.12985307 -19 7 C-12.84844691 2.31518733 -7.97129628 -0.93129996 0 0 Z " fill="#171918" transform="translate(372,274)"/>
<path d="M0 0 C2.0625 1.125 2.0625 1.125 3 3 C2.88876302 8.00566392 1.05268828 11.12226083 -2 15 C-7.03271959 19.80904316 -11.79116875 22.73698104 -18.8125 23.3125 C-22 23 -22 23 -24 21 C-24.45638077 17.0447 -24.2914897 14.60832634 -22.5625 11 C-16.32653922 3.69936299 -9.83296374 -1.10390861 0 0 Z " fill="#171918" transform="translate(334,274)"/>
<path d="M0 0 C2 2 2 2 2.5 4.5625 C1.6546531 10.37425993 -1.48785314 14.99879827 -6.07421875 18.65234375 C-11.38506393 22.03911193 -15.58049992 23.45853572 -22 23 C-24 21.9375 -24 21.9375 -25 20 C-25.18738033 15.22180156 -23.89900347 12.45997789 -20.9375 8.875 C-14.95398424 2.61119735 -9.032065 -1.78017879 0 0 Z " fill="#171918" transform="translate(296,274)"/>
<path d="M0 0 C1.65983138 3.21592331 0.87179681 5.50843255 0 8.9375 C-3.12945292 15.32679971 -8.78299874 18.82899937 -15 21.9375 C-17.09375 22.140625 -17.09375 22.140625 -19.5 22.1875 C-20.2940625 22.21328125 -21.088125 22.2390625 -21.90625 22.265625 C-22.5971875 22.15734375 -23.288125 22.0490625 -24 21.9375 C-26.06157237 18.84514145 -26.4439513 17.57986546 -25.79296875 13.97265625 C-23.52079765 8.14112352 -18.34224553 3.3518325 -12.9375 0.375 C-8.60777895 -1.4830299 -4.32464911 -2.29746984 0 0 Z " fill="#171918" transform="translate(265,309.0625)"/>
<path d="M0 0 C0.66 0.66 1.32 1.32 2 2 C1.88349864 7.94156927 0.11976737 11.87080524 -4 16 C-9.44338135 20.31290599 -14.17909949 22.70661002 -21.1875 22.40625 C-23 22 -23 22 -25 20 C-25.49993313 16.33382373 -25.19044129 14.37294752 -23.5 11.0625 C-16.98747435 3.08465608 -10.79048239 -2.49011132 0 0 Z " fill="#171918" transform="translate(341,309)"/>
<path d="M0 0 C1.17755859 -0.02126953 1.17755859 -0.02126953 2.37890625 -0.04296875 C4.4375 0.1875 4.4375 0.1875 6.4375 2.1875 C6.54577006 8.4671632 4.92936213 11.84066543 0.6015625 16.35546875 C-4.0174979 20.26582854 -9.00383802 22.81533098 -15 23.6875 C-17.5625 23.1875 -17.5625 23.1875 -19.5 22.125 C-21.28020333 18.87874687 -20.49637391 16.68952716 -19.5625 13.1875 C-15.632291 5.55444946 -8.76994711 0.07224009 0 0 Z " fill="#171918" transform="translate(401.5625,237.8125)"/>
<path d="M0 0 C2 2 2 2 2.4375 4.625 C1.74774938 9.94593337 -0.74408814 13.91721626 -4.6796875 17.55078125 C-9.92819408 21.5046562 -15.32383606 23.74179599 -22 23 C-23.9375 21.9375 -23.9375 21.9375 -25 20 C-25.18738033 15.22180156 -23.89900347 12.45997789 -20.9375 8.875 C-14.95398424 2.61119735 -9.032065 -1.78017879 0 0 Z " fill="#171918" transform="translate(329,238)"/>
<path d="M0 0 C0.99 0.66 1.98 1.32 3 2 C3.54705932 6.0638692 3.30852524 8.39529053 1.4375 12.0625 C-2.46477927 16.76524682 -6.88696721 21.50901639 -13 23 C-15.75928501 23.24598277 -18.20753509 23.18311245 -21 23 C-23 21 -23 21 -23.5 17.875 C-22.69095816 11.60492574 -19.5560169 7.97682095 -14.62109375 4.16015625 C-9.73400028 0.9891414 -5.98057705 -0.97642074 0 0 Z " fill="#171918" transform="translate(301,308)"/>
</svg>
