<?xml version="1.0" encoding="UTF-8"?>
<svg version="1.1" xmlns="http://www.w3.org/2000/svg" width="804" height="781">
<path d="M0 0 C2.06800968 1.81693279 3.97387904 3.59165422 5.875 5.5625 C6.39255859 6.0898877 6.91011719 6.61727539 7.44335938 7.16064453 C11.42975047 11.2788477 15.09426485 15.60575649 18.66015625 20.09375 C20.85026172 22.81401456 23.10230017 25.45911926 25.39257812 28.09448242 C27.44857272 30.46400969 29.48282588 32.85146449 31.51123047 35.24462891 C32.48555289 36.39342822 33.46360763 37.539075 34.44580078 38.68115234 C42.45281976 48.0659029 47.9033806 57.85493374 47.328125 70.61328125 C46.86244248 74.00056717 45.93216734 77.13288104 44.86328125 80.375 C41.97113799 89.16920936 40.39448709 97.75943872 40 107 C39.94714844 107.92425781 39.89429688 108.84851563 39.83984375 109.80078125 C39.60616439 117.47156021 40.45487023 124.95503891 41.375 132.5625 C41.56400879 134.15239746 41.56400879 134.15239746 41.75683594 135.77441406 C41.88606445 136.77827148 42.01529297 137.78212891 42.1484375 138.81640625 C42.26364746 139.71818604 42.37885742 140.61996582 42.49755859 141.54907227 C42.99912892 143.99575083 43.77671553 145.83448997 45 148 C45.8971875 147.443125 46.794375 146.88625 47.71875 146.3125 C56.90788106 140.66819306 66.25564698 135.61587343 76 131 C76.60295898 130.70915527 77.20591797 130.41831055 77.82714844 130.11865234 C99.35416227 119.813167 122.58450824 113.28005942 146 109 C147.43786865 108.73316406 147.43786865 108.73316406 148.90478516 108.4609375 C177.96658879 103.35651198 211.00942489 103.63953398 240 109 C241.04188477 109.18804199 242.08376953 109.37608398 243.15722656 109.56982422 C266.59515633 113.94485803 289.2204793 121.34325794 311 131 C312.83410519 122.28463943 313.27430155 113.76541412 313.375 104.875 C313.41367188 103.23168701 313.41367188 103.23168701 313.453125 101.55517578 C313.4693123 94.8202478 312.44124732 89.66495439 309.91259766 83.43408203 C306.92820482 75.47410435 308.59222272 66.51268151 311.5390625 58.79296875 C315.50461399 51.21176737 320.8381429 44.40529253 325.9375 37.5625 C334.18294723 26.64845698 334.18294723 26.64845698 341.65234375 15.20703125 C346.88389267 6.41660551 353.22760111 0.18738147 363 -3.33984375 C374.44756495 -5.85890427 385.44199035 -4.76697994 395.390625 1.5078125 C403.06555014 6.97174927 408.06345462 13.98801507 410.5703125 23.0859375 C410.99896632 25.99298979 410.97237644 28.71508149 410.84057617 31.64501953 C410.4288069 40.93036102 412.53496674 47.14910559 417.02099609 55.22265625 C417.95991845 56.9272335 418.8351299 58.6664377 419.70703125 60.40625 C438.24206118 96.86860396 472.75277628 122.43743494 511 135 C523.05874712 138.81394207 535.49239118 140.41648126 548 142 C548.12375 143.175625 548.12375 143.175625 548.25 144.375 C548.70728053 147.11110796 548.70728053 147.11110796 550.84375 148.09765625 C551.5553125 148.39542969 552.266875 148.69320312 553 149 C560.48883041 155.55272661 563.66752196 163.8477903 564.875 173.5625 C565.53845143 185.22265885 561.67181158 194.01741078 554.0625 202.6875 C546.06922324 211.24217747 537.87929598 219.74558228 528.91796875 227.29296875 C526.50934066 229.4366968 524.30424 231.7452343 522.0625 234.0625 C514.32362542 241.83676578 505.09821314 248.69076036 493.7265625 249.125 C488.76279764 248.84730686 484.41816127 248.19293057 479.75 246.4921875 C474.71155242 244.75120031 469.92732625 244.36525816 464.625 244.1875 C463.67979492 244.14963379 462.73458984 244.11176758 461.76074219 244.07275391 C446.50449876 243.37983691 446.50449876 243.37983691 432 247 C432.47308594 247.93714844 432.94617188 248.87429687 433.43359375 249.83984375 C443.09508333 269.40769938 449.99366666 289.79552987 454.2183075 311.20704651 C454.76212877 313.84579358 455.34803652 316.43855178 455.991745 319.05126953 C459.76727538 335.27508161 459.59173259 351.51294447 459.53730202 368.06072903 C459.52700757 372.18333849 459.53661168 376.30591655 459.54284668 380.42852783 C459.55007288 387.34060171 459.54066562 394.25250322 459.52148438 401.16455078 C459.4996907 409.10879147 459.5068054 417.05262173 459.52879 424.99685264 C459.54704743 431.87480247 459.54945325 438.75263012 459.53903532 445.6305964 C459.53286118 449.71375761 459.53179462 453.79672699 459.54518127 457.87987518 C459.64930123 494.64346575 459.64930123 494.64346575 451.734375 512.1171875 C450.81831058 514.12899365 450.81831058 514.12899365 451 517 C468.61011043 522.06459817 488.55264275 527.71131203 506.50390625 521.6796875 C515.44114882 519.24607215 524.45496778 521.16360103 532.54296875 525.30078125 C539.74096224 529.58555433 545.841271 535.05440647 552.0859375 540.58203125 C555.92373137 543.96486861 559.87170103 547.19075286 563.875 550.375 C564.81605591 551.12499268 564.81605591 551.12499268 565.77612305 551.89013672 C569.16860244 554.58157884 572.60150109 557.20950417 576.0625 559.8125 C583.70951149 565.77774392 588.3819781 572.52791242 590.75 582 C591.75732808 594.08793693 589.96770647 604.4423657 582 614 C575.31659698 621.2583194 566.71441574 625.53658987 556.7890625 626.1328125 C556.07492187 626.13023437 555.36078125 626.12765625 554.625 626.125 C553.91601562 626.12757813 553.20703125 626.13015625 552.4765625 626.1328125 C550 626 550 626 546.6953125 625.34765625 C542.38440132 624.94208427 539.21851021 625.81388196 535.25 627.3125 C534.15788208 627.7142041 534.15788208 627.7142041 533.04370117 628.12402344 C502.19527708 639.93761609 476.13010393 661.55027 458 689 C457.60538574 689.59683594 457.21077148 690.19367187 456.80419922 690.80859375 C446.29514041 706.94301339 438.73939092 725.45968254 435.99829102 744.57836914 C434.54270453 754.45646159 434.54270453 754.45646159 430.3125 757.625 C428.88383706 758.43250514 427.44626711 759.22446546 426 760 C424.76053244 761.02938831 423.53141794 762.07135907 422.3125 763.125 C415.40181821 768.28425163 406.12920244 770.80203427 397.53515625 770.3828125 C380.67662077 767.83714767 370.69199265 756.76476978 360.48828125 744.05859375 C357.69885455 740.6298322 354.82665683 737.28210156 351.9375 733.9375 C334.76446343 713.97181348 334.76446343 713.97181348 331 701 C330.79246094 700.38125 330.58492187 699.7625 330.37109375 699.125 C329.85518759 696.17075844 330.29122532 693.64520643 330.75 690.6875 C330.90984375 689.59824219 331.0696875 688.50898437 331.234375 687.38671875 C332 684 332 684 333.47265625 680.609375 C335.17194451 676.59366565 335.97164984 672.83804219 336.6875 668.5625 C336.81705078 667.83095703 336.94660156 667.09941406 337.08007812 666.34570312 C337.39429815 664.565123 337.69824068 662.78273417 338 661 C337.01 661.33 336.02 661.66 335 662 C327.49517661 662.76972548 321.76772272 661.19053647 315.3125 657.4375 C308.52303336 650.28103517 306.39826814 640.29831335 304 631 C301.7658847 633.83461804 300.01418129 636.68758244 298.36328125 639.89453125 C297.87255127 640.84303955 297.38182129 641.79154785 296.8762207 642.76879883 C296.10217896 644.27543091 296.10217896 644.27543091 295.3125 645.8125 C294.22921793 647.89585999 293.14588456 649.9791933 292.0625 652.0625 C290.26714505 655.52999927 288.49106912 659.00496496 286.75 662.5 C279.02390122 677.86069676 269.48821265 686.40174569 253.25 691.9375 C242.57882887 694.60529278 232.38043043 692.90078671 222.99609375 687.2734375 C212.47015027 680.55825634 208.54386703 670.23082729 204.125 658.9375 C203.62334383 657.67735657 203.12074544 656.41758781 202.6171875 655.15820312 C201.40218224 652.10900723 200.19674572 649.05639783 199 646 C196.63962178 648.95220199 194.95432383 651.91636691 193.328125 655.32421875 C192.82796875 656.35353516 192.3278125 657.38285156 191.8125 658.44335938 C190.78140827 660.58416357 189.75525609 662.72735478 188.734375 664.87304688 C182.66168197 677.32051843 175.37634998 687.20470472 162 692 C149.97503758 695.20364852 134.20543934 694.41007601 123 689 C111.21017235 682.16189997 105.36930556 669.43927191 99.0625 657.875 C98.37226897 656.61950335 97.68151667 655.36429313 96.99023438 654.109375 C95.32082115 651.07618371 93.65842353 648.03921704 92 645 C91.34 645 90.68 645 90 645 C88.93139005 646.16629452 87.9197002 647.38505932 86.9375 648.625 C80.1311452 656.53773757 72.41880038 660.73558248 62 662 C57.61999075 661.94384604 53.33998592 661.58099812 49 661 C48.94144824 664.52076232 48.9062194 668.0413976 48.875 671.5625 C48.85824219 672.55314453 48.84148437 673.54378906 48.82421875 674.56445312 C48.7871026 680.15043398 49.33349629 684.62873035 51 690 C52.35545456 705.46163867 48.68967795 715.03762421 39 727 C36.34445702 730.12990395 33.64238488 733.21860087 30.93115234 736.30029297 C27.36698406 740.3663986 23.95936534 744.50795416 20.6875 748.8125 C19.48867188 750.38644531 19.48867188 750.38644531 18.265625 751.9921875 C16.8078501 753.92750935 15.35915334 755.86972046 13.921875 757.8203125 C7.32602708 766.51956074 -0.08010713 772.08422932 -11 774 C-22.8271543 775.11460093 -32.52413481 772.18534148 -42 765 C-47.73399878 759.28788671 -52.57675086 751.70456719 -53.18896484 743.453125 C-53.10693487 740.83621779 -52.93747384 738.23636134 -52.75 735.625 C-52.34407251 723.65064765 -55.64661958 714.56794462 -61 704 C-61.36335449 703.27554688 -61.72670898 702.55109375 -62.10107422 701.8046875 C-69.9571194 686.43986481 -80.04355062 673.36638479 -92 661 C-92.61359375 660.33484375 -93.2271875 659.6696875 -93.859375 658.984375 C-111.54890345 640.24398348 -138.86260882 625.43024495 -164.234375 620.80078125 C-165.31203125 620.60186279 -166.3896875 620.40294434 -167.5 620.19799805 C-169.62455895 619.82342324 -171.75510389 619.48100074 -173.890625 619.17504883 C-181.13649911 617.92787658 -181.13649911 617.92787658 -183.70288086 615.17016602 C-185.01171875 613.04296875 -185.01171875 613.04296875 -186.00268555 610.98120117 C-187.08862127 608.82395065 -188.36787902 607.3942451 -190.0625 605.6875 C-196.59053609 598.18110191 -197.68290585 589.31758601 -197.37890625 579.6484375 C-195.69584024 563.44242044 -184.67436072 554.43179979 -172.92675781 544.61230469 C-171.11690864 543.09782877 -169.31804439 541.57154739 -167.5234375 540.0390625 C-164.36290328 537.34248985 -161.18430348 534.66847881 -158 532 C-157.030625 531.18402344 -156.06125 530.36804688 -155.0625 529.52734375 C-134.9857688 512.82461877 -134.9857688 512.82461877 -121.44140625 513.0625 C-114.81337046 513.87557777 -108.74950864 515.51407323 -102.59765625 518.09765625 C-97.26258525 519.95089144 -91.79490442 520.12347882 -86.19140625 520.09765625 C-84.95068359 520.09443359 -83.70996094 520.09121094 -82.43164062 520.08789062 C-81.15482422 520.07951172 -79.87800781 520.07113281 -78.5625 520.0625 C-77.25861328 520.05798828 -75.95472656 520.05347656 -74.61132812 520.04882812 C-71.40750448 520.03709251 -68.20377637 520.02067363 -65 520 C-65.35473389 519.06043457 -65.70946777 518.12086914 -66.07495117 517.15283203 C-71.08188584 503.89122129 -73.45191758 491.36392403 -73.41992188 477.14892578 C-73.42728652 475.72096097 -73.43587956 474.29300207 -73.44558716 472.86505127 C-73.46759008 469.02495734 -73.47074364 465.18507941 -73.46883965 461.34493113 C-73.46871866 458.10635826 -73.47733672 454.86782903 -73.48561716 451.62926853 C-73.50478513 443.95773061 -73.50776347 436.28630139 -73.50097656 428.61474609 C-73.49438111 420.79302684 -73.51703249 412.9717846 -73.55429029 405.15016186 C-73.58539393 398.36554459 -73.59630303 391.58107719 -73.59245348 384.79639041 C-73.59042267 380.77572618 -73.59527133 376.75543107 -73.62034607 372.73483658 C-73.83623299 335.1447695 -67.90813607 299.61918188 -53.99462891 264.5234375 C-52.61837886 261.03180263 -51.30685098 257.51812582 -50 254 C-50.81247192 253.73606445 -50.81247192 253.73606445 -51.64135742 253.46679688 C-56.45185 251.88616961 -61.20320312 250.19620348 -65.93676758 248.39916992 C-81.51191063 242.50427198 -96.76111503 238.87786885 -113.5 238.75 C-114.25361816 238.74073486 -115.00723633 238.73146973 -115.78369141 238.72192383 C-120.30515476 238.74768859 -123.68856569 239.55913206 -128 241 C-140.41238656 242.42657095 -150.79154586 241.22092052 -160.8125 233.4375 C-162.55257193 231.97117771 -164.28099989 230.49096948 -166 229 C-167.52273271 227.70587598 -169.04553815 226.41183506 -170.5703125 225.12011719 C-171.65468117 224.20141595 -172.738004 223.28147895 -173.8203125 222.36035156 C-178.09523587 218.73216018 -182.43480962 215.19085227 -186.8125 211.6875 C-187.45010254 211.17711182 -188.08770508 210.66672363 -188.74462891 210.14086914 C-191.96530321 207.57672664 -195.21700082 205.0880872 -198.5625 202.6875 C-206.15940883 197.01865697 -211.18547526 189.38075053 -213 180 C-213.96479096 167.58424743 -212.0843303 157.67885286 -203.984375 148.00390625 C-198.45220337 142.41728411 -190.69302379 137.25901246 -182.61743164 136.89160156 C-179.99163903 136.99281969 -177.37279304 137.15199236 -174.75 137.3125 C-162.74475789 137.65905765 -153.59389521 134.37617307 -143 129 C-141.88939209 128.43901611 -141.88939209 128.43901611 -140.75634766 127.86669922 C-131.96057246 123.3335072 -123.79199261 118.11298965 -116 112 C-114.64841797 110.95392578 -114.64841797 110.95392578 -113.26953125 109.88671875 C-84.99723953 87.4363658 -64.09937126 54.783805 -58.30859375 18.84765625 C-58.19233643 18.16227783 -58.0760791 17.47689941 -57.95629883 16.77075195 C-57.64419059 14.8670527 -57.37155932 12.95700173 -57.1015625 11.046875 C-56 8 -56 8 -53.17578125 6.328125 C-52.12777344 5.88984375 -51.07976562 5.4515625 -50 5 C-47.67376306 3.09443154 -47.67376306 3.09443154 -45.5625 1 C-32.65850447 -10.81962616 -13.97609478 -9.21386989 0 0 Z " fill="#BBB6B2" transform="translate(213,7)"/>
<path d="M0 0 C6.16915364 4.4363626 10.86688089 10.04250091 15.5625 15.9609375 C18.23640136 19.294744 21.01307976 22.52191289 23.8125 25.75 C28.13867928 30.77210561 32.39168098 35.8479998 36.5625 41 C37.06305908 41.61069336 37.56361816 42.22138672 38.0793457 42.85058594 C45.08784931 51.58028674 47.07504518 59.87686589 46 71 C45.17578125 73.21875 45.17578125 73.21875 44.125 75.25 C38.59282292 85.95336589 39.608329 100.84687799 39.625 112.6875 C39.62188812 113.42036224 39.61877625 114.15322449 39.61557007 114.90829468 C39.59062595 125.16757327 40.22589357 134.87326297 43.01611328 144.82104492 C43.61328125 147.11328125 43.61328125 147.11328125 44 151 C41.9609375 153.77734375 41.9609375 153.77734375 39 156 C38.08863281 156.70640625 37.17726562 157.4128125 36.23828125 158.140625 C35.27277344 158.83671875 34.30726563 159.5328125 33.3125 160.25 C28.38509576 163.88962865 23.80264905 167.73276531 19.30078125 171.8828125 C17.21508832 173.80207493 15.09043777 175.6570513 12.9375 177.5 C5.68995967 183.84523612 -0.74128362 190.67171885 -6.75390625 198.1953125 C-8.21686491 200.02210262 -9.70296955 201.83066949 -11.21484375 203.6171875 C-20.11367105 214.1581534 -27.4845012 225.55477313 -33.95703125 237.72143555 C-35.92363298 241.36011257 -37.89616725 244.25108983 -41 247 C-41.88816406 246.57589844 -42.77632812 246.15179688 -43.69140625 245.71484375 C-51.90954457 241.90186444 -60.20393959 238.81967324 -68.875 236.1875 C-69.8244751 235.8980249 -70.7739502 235.6085498 -71.75219727 235.31030273 C-81.4089155 232.45089118 -90.94023787 230.5767597 -101 230 C-102.63582031 229.90138672 -102.63582031 229.90138672 -104.3046875 229.80078125 C-111.46446807 229.56101955 -115.89054136 230.39321117 -122 234 C-124.4375 234.75 -124.4375 234.75 -127 235 C-127.96679688 235.09474609 -127.96679688 235.09474609 -128.953125 235.19140625 C-138.924225 235.73179803 -146.58540525 231.2303192 -154 225 C-154.99 224.16984375 -155.98 223.3396875 -157 222.484375 C-159.24236121 220.59499359 -161.47635479 218.69612398 -163.70703125 216.79296875 C-166.6074331 214.32362807 -169.54446618 211.90325889 -172.5 209.5 C-174.33440984 208.0013167 -176.16768052 206.5012383 -178 205 C-178.54221191 204.55624023 -179.08442383 204.11248047 -179.64306641 203.65527344 C-199.76793503 187.12351931 -199.76793503 187.12351931 -201.1953125 173.078125 C-201.65921611 164.35673715 -198.88047559 156.81546169 -193.3125 150.125 C-188.11745181 144.71672222 -182.43348533 141.19584496 -175 140 C-173.2242297 140.00925318 -171.44817906 140.07381313 -169.67578125 140.18359375 C-154.93902957 140.83677521 -144.79293351 139.2464103 -132 132 C-130.58931164 131.25647202 -129.17654718 130.51686948 -127.76171875 129.78125 C-119.24914479 125.27242499 -111.48277631 120.08768242 -104 114 C-103.44070801 113.54753906 -102.88141602 113.09507813 -102.30517578 112.62890625 C-89.73695035 102.39403688 -79.19380666 91.24957385 -70.18212891 77.75927734 C-69.06703236 76.09975944 -67.91542735 74.46494167 -66.76171875 72.83203125 C-57.29121797 58.48329738 -52.26815613 41.20335608 -47.02734375 24.9296875 C-43.03361881 12.61977449 -39.08327132 4.09349306 -27.078125 -2.125 C-18.12119519 -5.89633887 -8.31958734 -4.77530785 0 0 Z " fill="#B7B6BB" transform="translate(207,9)"/>
<path d="M0 0 C7.97913286 4.54278631 13.89521108 10.92036997 17.0234375 19.625 C18.05427879 24.6587185 17.77019877 29.70799497 17.6640625 34.81640625 C17.45682067 54.69089818 33.96175248 75.32515677 46.625 89.5625 C47.99205078 90.88894531 47.99205078 90.88894531 49.38671875 92.2421875 C51.625 94.5625 51.625 94.5625 51.625 96.5625 C52.22699219 96.83191406 52.82898438 97.10132812 53.44921875 97.37890625 C55.64412064 98.57290135 56.79397551 99.64820519 58.4375 101.5 C80.24910467 123.91877996 111.2616076 135.24798416 141.125 141.75 C147.50548443 143.14007215 153.05395175 145.1142907 158.625 148.5625 C159.5325 149.119375 160.44 149.67625 161.375 150.25 C167.41986397 156.46277685 170.75777081 163.50745841 170.9375 172.125 C170.97488281 173.28128906 171.01226563 174.43757812 171.05078125 175.62890625 C169.64102645 188.65297126 161.35662401 195.5834244 152.375 204.25 C151.06246892 205.54096367 149.7512597 206.83327272 148.44140625 208.12695312 C142.80931866 213.66711914 137.14706258 219.14671262 131.13330078 224.27514648 C129.8615018 225.36064276 128.63058803 226.49377471 127.41015625 227.63671875 C120.45599005 234.14935059 112.46911173 237.88262674 102.83984375 237.79296875 C99.66419591 237.46252215 96.8668375 236.45852298 93.8984375 235.31640625 C88.61036446 233.56280127 83.30043928 233.41364858 77.77734375 233.4296875 C77.04302628 233.42873077 76.3087088 233.42777405 75.55213928 233.42678833 C74.00831008 233.42611125 72.46447795 233.42793242 70.9206543 233.43212891 C68.5661782 233.43749162 66.21189217 233.43216392 63.85742188 233.42578125 C62.35156208 233.42644197 60.84570241 233.42772299 59.33984375 233.4296875 C58.29122414 233.42665115 58.29122414 233.42665115 57.22142029 233.42355347 C53.55147505 233.44105562 50.19814797 233.74370895 46.625 234.5625 C43.47680083 235.08438132 40.74841035 235.32069866 37.625 234.5625 C35.16773717 232.30793806 33.86279805 229.5792732 32.375 226.625 C31.44824435 224.9589874 30.51309028 223.29762351 29.5703125 221.640625 C29.09110352 220.79177734 28.61189453 219.94292969 28.11816406 219.06835938 C15.39699639 197.71942789 -3.82564994 177.7313939 -23.375 162.5625 C-24.6526129 161.54460857 -25.92993668 160.52635418 -27.20703125 159.5078125 C-38.19942391 150.8310336 -49.71836348 143.01164468 -62.17578125 136.5703125 C-65.0761352 135.03663532 -67.78679042 133.57774716 -70.375 131.5625 C-71.25 128.3125 -71.25 128.3125 -70.375 124.5625 C-68.60190421 116.535796 -68.03804988 108.83534992 -68.0625 100.625 C-68.04638672 99.51576172 -68.03027344 98.40652344 -68.01367188 97.26367188 C-68.01302734 96.19826172 -68.01238281 95.13285156 -68.01171875 94.03515625 C-68.00873779 93.07875244 -68.00575684 92.12234863 -68.00268555 91.13696289 C-68.43717666 88.13256368 -69.41231567 86.82922266 -71.375 84.5625 C-74.95564305 77.51909515 -75.60567963 69.2785374 -74.375 61.5625 C-71.61832878 54.51425942 -67.4433545 48.53714213 -62.875 42.5625 C-61.63321213 40.90953174 -60.39234984 39.25586781 -59.15234375 37.6015625 C-58.52569824 36.76915039 -57.89905273 35.93673828 -57.25341797 35.07910156 C-54.26120997 31.0703051 -51.35270807 27.00241564 -48.4375 22.9375 C-46.86582116 20.76469356 -45.29188636 18.59354073 -43.71728516 16.42285156 C-42.57488287 14.83952937 -41.44788372 13.24511191 -40.32421875 11.6484375 C-30.8712134 -1.34672848 -15.14677832 -6.93906977 0 0 Z " fill="#B7B6BB" transform="translate(601.375,11.4375)"/>
<path d="M0 0 C3.19553682 0.58760904 6.33624403 1.32371382 9.484375 2.12109375 C31.34681525 8.47202547 31.34681525 8.47202547 53.35546875 7.16015625 C53.96003906 6.79792969 54.56460938 6.43570313 55.1875 6.0625 C62.5484187 2.03321568 70.84704222 1.99026845 78.9375 4 C88.21126011 7.1057663 95.41837453 14.21663244 102.48046875 20.72265625 C105.0295329 23.02669407 107.6451077 25.20943259 110.3125 27.375 C138.0983668 49.95840664 138.0983668 49.95840664 139.43359375 61.8671875 C139.45714028 63.20291811 139.45792923 64.53921808 139.4375 65.875 C139.42920166 66.57753906 139.42090332 67.28007813 139.41235352 68.00390625 C139.09167671 77.88212138 134.98553165 84.25957472 128 91 C120.50344975 97.0298339 112.43408462 98.72691439 103 98 C101.865625 97.79375 100.73125 97.5875 99.5625 97.375 C90.23630161 96.39329491 81.94935617 99.93314168 73.75 104 C72.74855957 104.48984375 71.74711914 104.9796875 70.71533203 105.484375 C57.00309246 112.33056957 45.4551 120.9008098 34 131 C33.22785156 131.6496875 32.45570313 132.299375 31.66015625 132.96875 C22.19146341 140.9653428 15.00412726 150.85371954 8 161 C7.57283691 161.61391602 7.14567383 162.22783203 6.70556641 162.86035156 C-3.60752418 178.01740843 -9.46782313 196.12550646 -14.7109375 213.58203125 C-18.05782529 224.71514392 -22.30368909 232.86626326 -32.5625 239.125 C-39.79375757 242.30494269 -48.92423384 242.33572794 -56.5234375 240.3359375 C-58.57252987 239.40453188 -60.21379263 238.36711999 -62 237 C-62.63808594 236.525625 -63.27617188 236.05125 -63.93359375 235.5625 C-68.79847808 231.61748659 -72.62865882 226.97535814 -76.515625 222.08984375 C-79.2724208 218.66118734 -82.12426843 215.32872051 -85 212 C-87.00240075 209.66871933 -89.0016799 207.3347789 -91 205 C-91.84304688 204.01515625 -92.68609375 203.0303125 -93.5546875 202.015625 C-101.46283095 192.58975705 -109.11674771 182.95427348 -108 170 C-107.56973617 168.63618678 -107.10287478 167.28363254 -106.609375 165.94140625 C-104.84649357 160.81017143 -103.86696893 155.64834018 -102.9375 150.3125 C-100.12170043 134.33368555 -100.12170043 134.33368555 -95.5 131 C-90.0340794 126.49576741 -86.38069044 120.81628979 -82.41113281 115.03466797 C-79.89088244 111.40079832 -77.28422484 107.82940546 -74.6875 104.25 C-73.58051741 102.71890307 -72.47374862 101.18765155 -71.3671875 99.65625 C-69.68270915 97.3267564 -67.99809271 94.9973627 -66.31347656 92.66796875 C-60.85849271 85.12417934 -55.40372803 77.58062703 -50 70 C-43.48260504 60.85706385 -36.89322028 51.76607414 -30.31347656 42.66796875 C-20.08808797 28.52710597 -9.8886778 14.3791885 0 0 Z " fill="#B7B6BB" transform="translate(658,530)"/>
<path d="M0 0 C4.17105259 1.95407064 8.26914967 2.77065129 12.8125 3.3125 C13.55564453 3.40176758 14.29878906 3.49103516 15.06445312 3.58300781 C20.20278898 4.07779519 25.14179607 3.98985057 30.29296875 3.65234375 C49.4278596 2.54231538 49.4278596 2.54231538 54.29150391 5.34863281 C57.85353463 8.70799457 59.98731654 12.76329355 62.07666016 17.14404297 C63.50430877 19.92226556 65.43611428 22.10707407 67.5 24.4375 C72.31816077 30.23127414 76.58553252 36.36486354 80.89453125 42.5390625 C84.05010921 47.05987503 87.26625245 51.53488105 90.5 56 C91.03979492 56.74580322 91.57958984 57.49160645 92.13574219 58.26000977 C93.23069373 59.77232609 94.32590887 61.28445159 95.42138672 62.79638672 C98.13898173 66.548948 100.85044473 70.30593419 103.5625 74.0625 C104.64580362 75.56252146 105.72913696 77.06252146 106.8125 78.5625 C113.3125 87.5625 113.3125 87.5625 114.9387207 89.81420898 C116.01796124 91.30852955 117.09722542 92.80283304 118.17651367 94.29711914 C121.51634921 98.92123519 124.85543289 103.54589238 128.19335938 108.17138672 C129.30178442 109.70625288 130.4111379 111.24044905 131.52148438 112.77392578 C133.85887973 116.00254274 136.19033168 119.23373781 138.48046875 122.49609375 C139.16753906 123.46675781 139.85460937 124.43742188 140.5625 125.4375 C141.1296875 126.24960937 141.696875 127.06171875 142.28125 127.8984375 C145.01733209 131.22253724 147.85627925 133.58437356 151.87109375 135.17578125 C154.0625 137.0625 154.0625 137.0625 154.39111328 139.13427734 C154.41155914 141.85462525 154.2980554 144.53507713 154.125 147.25 C153.71993172 153.90336295 153.77726181 158.30967926 157.13012695 164.13891602 C158.75058249 167.48208679 158.70318607 170.77989691 158.625 174.4375 C158.61186768 175.18354492 158.59873535 175.92958984 158.58520508 176.69824219 C158.09194579 188.61414369 150.99211259 195.92717871 143.43505859 204.48828125 C141.43883069 206.77780055 139.5329764 209.13675054 137.625 211.5 C132.70052392 217.54931144 127.6261768 223.46772252 122.51904297 229.36303711 C121.51143023 230.53869789 120.51640305 231.72521957 119.53173828 232.92016602 C114.71379076 238.72238422 109.70763961 243.22096442 101.93017578 244.38037109 C99.57114466 244.5790843 97.24213105 244.66443091 94.875 244.6875 C94.12702148 244.69837646 93.37904297 244.70925293 92.60839844 244.72045898 C84.27716631 244.50822755 77.94172663 240.65199047 71.890625 235.125 C67.12679992 229.75042812 64.03684757 222.81006486 64.07592773 215.57739258 C64.16015991 214.28031372 64.16015991 214.28031372 64.24609375 212.95703125 C64.91646964 198.50272324 63.12193824 188.6224172 56.0625 176.0625 C55.31963967 174.65015628 54.58003526 173.23609507 53.84375 171.8203125 C49.32861997 163.30546914 44.10062801 155.58919429 38.0625 148.0625 C37.32 147.11632812 36.5775 146.17015625 35.8125 145.1953125 C16.17437049 120.57946266 -9.65398929 104.89622759 -39.1875 94.875 C-71.40391899 83.816419 -71.40391899 83.816419 -78.02734375 71.17578125 C-81.25248476 63.68736371 -80.69260182 55.6037409 -77.84375 48.0859375 C-73.69969725 38.83326801 -65.72429847 32.77696284 -58.015625 26.57421875 C-55.26308389 24.32817315 -52.56573047 22.03607089 -49.88183594 19.70947266 C-26.90699242 -0.19397016 -26.90699242 -0.19397016 -17.9375 -1.9375 C-17.1125 -2.185 -16.2875 -2.4325 -15.4375 -2.6875 C-9.87131626 -3.24411837 -4.96440982 -2.61387393 0 0 Z " fill="#B7B6BB" transform="translate(100.9375,529.9375)"/>
<path d="M0 0 C2.06800968 1.81693279 3.97387904 3.59165422 5.875 5.5625 C6.39255859 6.0898877 6.91011719 6.61727539 7.44335938 7.16064453 C11.42975047 11.2788477 15.09426485 15.60575649 18.66015625 20.09375 C20.85026172 22.81401456 23.10230017 25.45911926 25.39257812 28.09448242 C27.44857272 30.46400969 29.48282588 32.85146449 31.51123047 35.24462891 C32.48555289 36.39342822 33.46360763 37.539075 34.44580078 38.68115234 C42.45281976 48.0659029 47.9033806 57.85493374 47.328125 70.61328125 C46.86244248 74.00056717 45.93216734 77.13288104 44.86328125 80.375 C41.97113799 89.16920936 40.39448709 97.75943872 40 107 C39.94714844 107.92425781 39.89429688 108.84851563 39.83984375 109.80078125 C39.60616439 117.47156021 40.45487023 124.95503891 41.375 132.5625 C41.56400879 134.15239746 41.56400879 134.15239746 41.75683594 135.77441406 C41.88606445 136.77827148 42.01529297 137.78212891 42.1484375 138.81640625 C42.26364746 139.71818604 42.37885742 140.61996582 42.49755859 141.54907227 C42.99912892 143.99575083 43.77671553 145.83448997 45 148 C45.8971875 147.443125 46.794375 146.88625 47.71875 146.3125 C56.90788106 140.66819306 66.25564698 135.61587343 76 131 C76.60295898 130.70915527 77.20591797 130.41831055 77.82714844 130.11865234 C99.35416227 119.813167 122.58450824 113.28005942 146 109 C147.43786865 108.73316406 147.43786865 108.73316406 148.90478516 108.4609375 C177.96658879 103.35651198 211.00942489 103.63953398 240 109 C241.04188477 109.18804199 242.08376953 109.37608398 243.15722656 109.56982422 C266.59515633 113.94485803 289.2204793 121.34325794 311 131 C312.83410519 122.28463943 313.27430155 113.76541412 313.375 104.875 C313.41367188 103.23168701 313.41367188 103.23168701 313.453125 101.55517578 C313.4693123 94.8202478 312.44124732 89.66495439 309.91259766 83.43408203 C306.92820482 75.47410435 308.59222272 66.51268151 311.5390625 58.79296875 C315.50461399 51.21176737 320.8381429 44.40529253 325.9375 37.5625 C334.18294723 26.64845698 334.18294723 26.64845698 341.65234375 15.20703125 C346.88389267 6.41660551 353.22760111 0.18738147 363 -3.33984375 C374.44756495 -5.85890427 385.44199035 -4.76697994 395.390625 1.5078125 C403.06555014 6.97174927 408.06345462 13.98801507 410.5703125 23.0859375 C410.99896632 25.99298979 410.97237644 28.71508149 410.84057617 31.64501953 C410.4288069 40.93036102 412.53496674 47.14910559 417.02099609 55.22265625 C417.95991845 56.9272335 418.8351299 58.6664377 419.70703125 60.40625 C438.24206118 96.86860396 472.75277628 122.43743494 511 135 C523.05874712 138.81394207 535.49239118 140.41648126 548 142 C548.12375 143.175625 548.12375 143.175625 548.25 144.375 C548.70728053 147.11110796 548.70728053 147.11110796 550.84375 148.09765625 C551.5553125 148.39542969 552.266875 148.69320312 553 149 C560.48883041 155.55272661 563.66752196 163.8477903 564.875 173.5625 C565.53845143 185.22265885 561.67181158 194.01741078 554.0625 202.6875 C546.06922324 211.24217747 537.87929598 219.74558228 528.91796875 227.29296875 C526.50934066 229.4366968 524.30424 231.7452343 522.0625 234.0625 C514.32362542 241.83676578 505.09821314 248.69076036 493.7265625 249.125 C488.76279764 248.84730686 484.41816127 248.19293057 479.75 246.4921875 C474.71155242 244.75120031 469.92732625 244.36525816 464.625 244.1875 C463.67979492 244.14963379 462.73458984 244.11176758 461.76074219 244.07275391 C446.50449876 243.37983691 446.50449876 243.37983691 432 247 C432.47308594 247.93714844 432.94617188 248.87429687 433.43359375 249.83984375 C443.09508333 269.40769938 449.99366666 289.79552987 454.2183075 311.20704651 C454.76212877 313.84579358 455.34803652 316.43855178 455.991745 319.05126953 C459.76727538 335.27508161 459.59173259 351.51294447 459.53730202 368.06072903 C459.52700757 372.18333849 459.53661168 376.30591655 459.54284668 380.42852783 C459.55007288 387.34060171 459.54066562 394.25250322 459.52148438 401.16455078 C459.4996907 409.10879147 459.5068054 417.05262173 459.52879 424.99685264 C459.54704743 431.87480247 459.54945325 438.75263012 459.53903532 445.6305964 C459.53286118 449.71375761 459.53179462 453.79672699 459.54518127 457.87987518 C459.64930123 494.64346575 459.64930123 494.64346575 451.734375 512.1171875 C450.81831058 514.12899365 450.81831058 514.12899365 451 517 C468.61011043 522.06459817 488.55264275 527.71131203 506.50390625 521.6796875 C515.44114882 519.24607215 524.45496778 521.16360103 532.54296875 525.30078125 C539.74096224 529.58555433 545.841271 535.05440647 552.0859375 540.58203125 C555.92373137 543.96486861 559.87170103 547.19075286 563.875 550.375 C564.81605591 551.12499268 564.81605591 551.12499268 565.77612305 551.89013672 C569.16860244 554.58157884 572.60150109 557.20950417 576.0625 559.8125 C583.70951149 565.77774392 588.3819781 572.52791242 590.75 582 C591.75732808 594.08793693 589.96770647 604.4423657 582 614 C575.31659698 621.2583194 566.71441574 625.53658987 556.7890625 626.1328125 C556.07492187 626.13023437 555.36078125 626.12765625 554.625 626.125 C553.91601562 626.12757813 553.20703125 626.13015625 552.4765625 626.1328125 C550 626 550 626 546.6953125 625.34765625 C542.38440132 624.94208427 539.21851021 625.81388196 535.25 627.3125 C534.15788208 627.7142041 534.15788208 627.7142041 533.04370117 628.12402344 C502.19527708 639.93761609 476.13010393 661.55027 458 689 C457.60538574 689.59683594 457.21077148 690.19367187 456.80419922 690.80859375 C446.29514041 706.94301339 438.73939092 725.45968254 435.99829102 744.57836914 C434.54270453 754.45646159 434.54270453 754.45646159 430.3125 757.625 C428.88383706 758.43250514 427.44626711 759.22446546 426 760 C424.76053244 761.02938831 423.53141794 762.07135907 422.3125 763.125 C415.40181821 768.28425163 406.12920244 770.80203427 397.53515625 770.3828125 C380.67662077 767.83714767 370.69199265 756.76476978 360.48828125 744.05859375 C357.69885455 740.6298322 354.82665683 737.28210156 351.9375 733.9375 C334.76446343 713.97181348 334.76446343 713.97181348 331 701 C330.79246094 700.38125 330.58492187 699.7625 330.37109375 699.125 C329.85518759 696.17075844 330.29122532 693.64520643 330.75 690.6875 C330.90984375 689.59824219 331.0696875 688.50898437 331.234375 687.38671875 C332 684 332 684 333.47265625 680.609375 C335.17194451 676.59366565 335.97164984 672.83804219 336.6875 668.5625 C336.81705078 667.83095703 336.94660156 667.09941406 337.08007812 666.34570312 C337.39429815 664.565123 337.69824068 662.78273417 338 661 C337.01 661.33 336.02 661.66 335 662 C327.49517661 662.76972548 321.76772272 661.19053647 315.3125 657.4375 C308.52303336 650.28103517 306.39826814 640.29831335 304 631 C301.7658847 633.83461804 300.01418129 636.68758244 298.36328125 639.89453125 C297.87255127 640.84303955 297.38182129 641.79154785 296.8762207 642.76879883 C296.10217896 644.27543091 296.10217896 644.27543091 295.3125 645.8125 C294.22921793 647.89585999 293.14588456 649.9791933 292.0625 652.0625 C290.26714505 655.52999927 288.49106912 659.00496496 286.75 662.5 C279.02390122 677.86069676 269.48821265 686.40174569 253.25 691.9375 C242.57882887 694.60529278 232.38043043 692.90078671 222.99609375 687.2734375 C212.47015027 680.55825634 208.54386703 670.23082729 204.125 658.9375 C203.62334383 657.67735657 203.12074544 656.41758781 202.6171875 655.15820312 C201.40218224 652.10900723 200.19674572 649.05639783 199 646 C196.63962178 648.95220199 194.95432383 651.91636691 193.328125 655.32421875 C192.82796875 656.35353516 192.3278125 657.38285156 191.8125 658.44335938 C190.78140827 660.58416357 189.75525609 662.72735478 188.734375 664.87304688 C182.66168197 677.32051843 175.37634998 687.20470472 162 692 C149.97503758 695.20364852 134.20543934 694.41007601 123 689 C111.21017235 682.16189997 105.36930556 669.43927191 99.0625 657.875 C98.37226897 656.61950335 97.68151667 655.36429313 96.99023438 654.109375 C95.32082115 651.07618371 93.65842353 648.03921704 92 645 C91.34 645 90.68 645 90 645 C88.93139005 646.16629452 87.9197002 647.38505932 86.9375 648.625 C80.1311452 656.53773757 72.41880038 660.73558248 62 662 C57.61999075 661.94384604 53.33998592 661.58099812 49 661 C48.94144824 664.52076232 48.9062194 668.0413976 48.875 671.5625 C48.85824219 672.55314453 48.84148437 673.54378906 48.82421875 674.56445312 C48.7871026 680.15043398 49.33349629 684.62873035 51 690 C52.35545456 705.46163867 48.68967795 715.03762421 39 727 C36.34445702 730.12990395 33.64238488 733.21860087 30.93115234 736.30029297 C27.36698406 740.3663986 23.95936534 744.50795416 20.6875 748.8125 C19.48867188 750.38644531 19.48867188 750.38644531 18.265625 751.9921875 C16.8078501 753.92750935 15.35915334 755.86972046 13.921875 757.8203125 C7.32602708 766.51956074 -0.08010713 772.08422932 -11 774 C-22.8271543 775.11460093 -32.52413481 772.18534148 -42 765 C-47.73399878 759.28788671 -52.57675086 751.70456719 -53.18896484 743.453125 C-53.10693487 740.83621779 -52.93747384 738.23636134 -52.75 735.625 C-52.34407251 723.65064765 -55.64661958 714.56794462 -61 704 C-61.36335449 703.27554688 -61.72670898 702.55109375 -62.10107422 701.8046875 C-69.9571194 686.43986481 -80.04355062 673.36638479 -92 661 C-92.61359375 660.33484375 -93.2271875 659.6696875 -93.859375 658.984375 C-111.54890345 640.24398348 -138.86260882 625.43024495 -164.234375 620.80078125 C-165.31203125 620.60186279 -166.3896875 620.40294434 -167.5 620.19799805 C-169.62455895 619.82342324 -171.75510389 619.48100074 -173.890625 619.17504883 C-181.13649911 617.92787658 -181.13649911 617.92787658 -183.70288086 615.17016602 C-185.01171875 613.04296875 -185.01171875 613.04296875 -186.00268555 610.98120117 C-187.08862127 608.82395065 -188.36787902 607.3942451 -190.0625 605.6875 C-196.59053609 598.18110191 -197.68290585 589.31758601 -197.37890625 579.6484375 C-195.69584024 563.44242044 -184.67436072 554.43179979 -172.92675781 544.61230469 C-171.11690864 543.09782877 -169.31804439 541.57154739 -167.5234375 540.0390625 C-164.36290328 537.34248985 -161.18430348 534.66847881 -158 532 C-157.030625 531.18402344 -156.06125 530.36804688 -155.0625 529.52734375 C-134.9857688 512.82461877 -134.9857688 512.82461877 -121.44140625 513.0625 C-114.81337046 513.87557777 -108.74950864 515.51407323 -102.59765625 518.09765625 C-97.26258525 519.95089144 -91.79490442 520.12347882 -86.19140625 520.09765625 C-84.95068359 520.09443359 -83.70996094 520.09121094 -82.43164062 520.08789062 C-81.15482422 520.07951172 -79.87800781 520.07113281 -78.5625 520.0625 C-77.25861328 520.05798828 -75.95472656 520.05347656 -74.61132812 520.04882812 C-71.40750448 520.03709251 -68.20377637 520.02067363 -65 520 C-65.35473389 519.06043457 -65.70946777 518.12086914 -66.07495117 517.15283203 C-71.08188584 503.89122129 -73.45191758 491.36392403 -73.41992188 477.14892578 C-73.42728652 475.72096097 -73.43587956 474.29300207 -73.44558716 472.86505127 C-73.46759008 469.02495734 -73.47074364 465.18507941 -73.46883965 461.34493113 C-73.46871866 458.10635826 -73.47733672 454.86782903 -73.48561716 451.62926853 C-73.50478513 443.95773061 -73.50776347 436.28630139 -73.50097656 428.61474609 C-73.49438111 420.79302684 -73.51703249 412.9717846 -73.55429029 405.15016186 C-73.58539393 398.36554459 -73.59630303 391.58107719 -73.59245348 384.79639041 C-73.59042267 380.77572618 -73.59527133 376.75543107 -73.62034607 372.73483658 C-73.83623299 335.1447695 -67.90813607 299.61918188 -53.99462891 264.5234375 C-52.61837886 261.03180263 -51.30685098 257.51812582 -50 254 C-50.81247192 253.73606445 -50.81247192 253.73606445 -51.64135742 253.46679688 C-56.45185 251.88616961 -61.20320312 250.19620348 -65.93676758 248.39916992 C-81.51191063 242.50427198 -96.76111503 238.87786885 -113.5 238.75 C-114.25361816 238.74073486 -115.00723633 238.73146973 -115.78369141 238.72192383 C-120.30515476 238.74768859 -123.68856569 239.55913206 -128 241 C-140.41238656 242.42657095 -150.79154586 241.22092052 -160.8125 233.4375 C-162.55257193 231.97117771 -164.28099989 230.49096948 -166 229 C-167.52273271 227.70587598 -169.04553815 226.41183506 -170.5703125 225.12011719 C-171.65468117 224.20141595 -172.738004 223.28147895 -173.8203125 222.36035156 C-178.09523587 218.73216018 -182.43480962 215.19085227 -186.8125 211.6875 C-187.45010254 211.17711182 -188.08770508 210.66672363 -188.74462891 210.14086914 C-191.96530321 207.57672664 -195.21700082 205.0880872 -198.5625 202.6875 C-206.15940883 197.01865697 -211.18547526 189.38075053 -213 180 C-213.96479096 167.58424743 -212.0843303 157.67885286 -203.984375 148.00390625 C-198.45220337 142.41728411 -190.69302379 137.25901246 -182.61743164 136.89160156 C-179.99163903 136.99281969 -177.37279304 137.15199236 -174.75 137.3125 C-162.74475789 137.65905765 -153.59389521 134.37617307 -143 129 C-141.88939209 128.43901611 -141.88939209 128.43901611 -140.75634766 127.86669922 C-131.96057246 123.3335072 -123.79199261 118.11298965 -116 112 C-114.64841797 110.95392578 -114.64841797 110.95392578 -113.26953125 109.88671875 C-84.99723953 87.4363658 -64.09937126 54.783805 -58.30859375 18.84765625 C-58.19233643 18.16227783 -58.0760791 17.47689941 -57.95629883 16.77075195 C-57.64419059 14.8670527 -57.37155932 12.95700173 -57.1015625 11.046875 C-56 8 -56 8 -53.17578125 6.328125 C-52.12777344 5.88984375 -51.07976562 5.4515625 -50 5 C-47.67376306 3.09443154 -47.67376306 3.09443154 -45.5625 1 C-32.65850447 -10.81962616 -13.97609478 -9.21386989 0 0 Z M-46 10 C-49.28885551 15.45971724 -51.22404485 21.32677195 -53.125 27.375 C-61.33047574 52.43940794 -70.19216234 75.10763285 -88 95 C-88.45342773 95.51755859 -88.90685547 96.03511719 -89.37402344 96.56835938 C-96.03261596 104.15657503 -102.91428663 110.9027569 -111 117 C-112.010625 117.78761719 -113.02125 118.57523437 -114.0625 119.38671875 C-123.94560302 126.90363304 -134.80884888 132.66958933 -146 138 C-147.19967407 138.59687622 -147.19967407 138.59687622 -148.42358398 139.20581055 C-155.22381813 142.31134866 -161.17463863 142.38797609 -168.5625 142.0625 C-179.29987293 141.6299059 -187.58384351 142.34669415 -196.1484375 149.2734375 C-202.94229668 155.60863952 -206.97913133 163.0686081 -207.375 172.4375 C-206.872108 184.46500044 -201.37776212 192.00760683 -192.8125 199.9375 C-188.26420564 203.96406019 -183.60675633 207.83912754 -178.87890625 211.65234375 C-176.28970578 213.76375418 -173.74482867 215.9150273 -171.20947266 218.09008789 C-155.42671523 232.51553128 -155.42671523 232.51553128 -135.33984375 237.296875 C-129.80096665 236.59411263 -124.64840409 235.09893606 -120 232 C-94.87819184 229.44269019 -68.62994569 239.14572693 -46 249 C-43.52223097 245.1017552 -41.07999292 241.19525365 -38.81640625 237.16796875 C-29.94602558 221.43210251 -19.4434165 207.09478668 -7 194 C-5.80523226 192.63131037 -4.61719728 191.25670024 -3.4375 189.875 C3.69521887 181.7114453 11.54246175 174.756711 20 168 C22.76827887 165.71672956 25.53324608 163.42952012 28.296875 161.140625 C31.45539383 158.63937021 34.70636335 156.32014798 38 154 C37.52504948 150.89517294 37.04431252 147.79126899 36.5625 144.6875 C36.42779297 143.80642578 36.29308594 142.92535156 36.15429688 142.01757812 C36.02216797 141.17001953 35.89003906 140.32246094 35.75390625 139.44921875 C35.63345947 138.66893311 35.5130127 137.88864746 35.38891602 137.0847168 C35.01511389 134.81720203 35.01511389 134.81720203 34 132 C33.79068319 127.37779228 33.81420734 122.75261658 33.81469727 118.1262207 C33.81255066 115.86584472 33.79450563 113.60599008 33.77539062 111.34570312 C33.67421749 85.89368265 33.67421749 85.89368265 38.125 77.25 C41.41261219 70.79790716 40.87779364 63.29819703 39 56.4375 C35.57372357 47.56760681 28.6195497 40.40321435 22.2734375 33.515625 C19.99013223 30.98908102 17.83068094 28.39609344 15.6875 25.75 C12.11019947 21.3519878 8.52008686 16.96696684 4.875 12.625 C4.39635498 12.04202148 3.91770996 11.45904297 3.42456055 10.85839844 C-2.41835483 3.94688783 -9.44649484 -1.19311198 -18.6015625 -2.3203125 C-29.72566427 -2.79034497 -38.8220541 1.45349632 -46 10 Z M350.125 13.4765625 C349.07631616 14.85406098 348.03503136 16.23721402 347 17.625 C346.43821045 18.36919189 345.8764209 19.11338379 345.29760742 19.88012695 C339.59716032 27.46512426 334.04271697 35.15520634 328.52685547 42.875 C327.05288186 44.92640171 325.56281438 46.96492549 324.06640625 49 C323.61031982 49.62495361 323.1542334 50.24990723 322.68432617 50.89379883 C321.46756483 52.56069154 320.24570842 54.22386179 319.0234375 55.88671875 C313.47357969 64.42578569 312.51116524 72.82928566 314.57421875 82.765625 C315.5436602 85.86373419 316.39407166 88.30020765 318.53662109 90.7746582 C320.35625536 93.54175302 320.37353954 95.18140986 320.36328125 98.47265625 C320.36263672 99.53806641 320.36199219 100.60347656 320.36132812 101.70117188 C320.34521484 102.81041016 320.32910156 103.91964844 320.3125 105.0625 C320.31572266 106.14466797 320.31894531 107.22683594 320.32226562 108.34179688 C320.28729656 113.64119996 319.98757077 118.66283584 318.98046875 123.87109375 C318.8112793 124.75893555 318.64208984 125.64677734 318.46777344 126.56152344 C318.3134082 127.3662207 318.15904297 128.17091797 318 129 C317.11552044 132.74527913 317.11552044 132.74527913 318 136 C320.56000256 138.32411719 323.48993413 139.7639525 326.5625 141.3125 C328.31855456 142.26166109 330.07243982 143.21484575 331.82421875 144.171875 C332.70126465 144.64431641 333.57831055 145.11675781 334.48193359 145.60351562 C360.09922023 159.81050414 384.10682504 180.93965406 402 204 C403.01789143 205.2776129 404.03614582 206.55493668 405.0546875 207.83203125 C409.7055031 213.73408501 414.26043366 219.53501188 417.9609375 226.09375 C418.43225098 226.92382568 418.90356445 227.75390137 419.38916016 228.60913086 C420.27715316 230.21003536 421.13533284 231.82795006 421.95849609 233.46313477 C423.16053885 235.63963029 424.16642852 237.31768079 426 239 C429.89724829 239.94604554 433.4483204 239.35059075 437.3112793 238.4777832 C440.71286102 237.87332525 444.06032154 237.81838864 447.50390625 237.796875 C448.22303696 237.79117493 448.94216766 237.78547485 449.68309021 237.77960205 C451.20350694 237.77018382 452.72394378 237.76363074 454.24438477 237.75976562 C456.53114212 237.7501321 458.81697153 237.71911007 461.10351562 237.6875 C470.99475773 237.61699723 479.56065755 238.85355252 489 242 C498.4371061 242.84259876 506.78367095 239.61928744 514.10546875 233.69921875 C516.76636515 231.31264156 519.28682947 228.8122842 521.75 226.22265625 C523.62191957 224.3734857 525.5227468 222.66676435 527.515625 220.953125 C532.58729845 216.54478789 537.42281688 211.90642482 542.21044922 207.19458008 C543.23780797 206.18888937 544.27138778 205.18951514 545.31103516 204.1965332 C552.78306451 197.05473981 557.9503184 190.8337892 559.56640625 180.3125 C559.55697973 172.31881139 558.41481311 166.7053973 554 160 C553.401875 159.071875 552.80375 158.14375 552.1875 157.1875 C545.95958144 150.95958144 538.46841359 148.23356723 530 146.4375 C497.87405054 139.09969036 470.02384795 127.65912759 446.015625 104.7421875 C444.10535969 102.92958435 444.10535969 102.92958435 441.859375 102.0078125 C439.45982864 100.70721804 439.15424138 99.44064781 438 97 C436.57504012 95.42743472 435.11108126 93.8899372 433.625 92.375 C420.35288782 77.971306 405.65937619 57.42307582 406.08227539 37.18603516 C406.29407997 26.65874257 404.70493951 19.94668693 397.9375 11.6875 C391.23589588 4.75668792 384.57639378 1.78249294 374.9375 1.4375 C364.62192514 1.83338281 356.60176391 5.32119516 350.125 13.4765625 Z M10 184 C9.34064453 184.63212402 8.68128906 185.26424805 8.00195312 185.91552734 C-0.95338942 194.54637138 -9.41229184 203.27601839 -16.76904297 213.3203125 C-17.99785707 214.9970759 -19.24944508 216.65487153 -20.50390625 218.3125 C-36.33225537 239.52205509 -48.17183176 263.76832525 -56 289 C-56.3204126 290.0101416 -56.6408252 291.0202832 -56.97094727 292.06103516 C-59.91262052 301.76106085 -61.61157385 311.50383412 -63.1875 321.5 C-63.44909642 323.11991675 -63.71146265 324.73970937 -63.97460938 326.359375 C-64.45419895 329.31762588 -64.92944935 332.27649466 -65.39916992 335.23632812 C-65.75198683 337.44641566 -66.12126787 339.65418554 -66.52919483 341.8547678 C-66.99774641 344.98494482 -67.12860054 347.92430544 -67.13371277 351.08738708 C-67.13797775 352.28559586 -67.14224274 353.48380463 -67.14663696 354.71832275 C-67.14618378 356.01969177 -67.14573059 357.32106079 -67.14526367 358.66186523 C-67.14825857 360.05711456 -67.15166186 361.45236305 -67.15544128 362.84761047 C-67.16425708 366.62913792 -67.16661853 370.41064271 -67.16725707 374.19217944 C-67.16796955 376.56125353 -67.17010773 378.93032193 -67.17275429 381.29939461 C-67.18200342 389.5836333 -67.18609018 397.86785593 -67.18530273 406.15209961 C-67.18470376 413.84090777 -67.19522119 421.52964537 -67.2110464 429.2184357 C-67.22418884 435.84294346 -67.22948376 442.46742837 -67.22884732 449.09194905 C-67.22859407 453.03773388 -67.23134805 456.98345612 -67.24202538 460.92922783 C-67.2518185 464.64996972 -67.25171011 468.37059066 -67.24450874 472.0913372 C-67.24299016 474.0815376 -67.25123281 476.07173828 -67.25994873 478.06192017 C-67.19559949 496.83343613 -64.01114594 510.59280114 -53 526 C-52.52884766 526.66032227 -52.05769531 527.32064453 -51.57226562 528.00097656 C-48.30483808 532.5674262 -45.00910219 537.11295124 -41.70556641 541.65332031 C-38.96137041 545.42904489 -36.23121718 549.21488249 -33.5 553 C-32.41673803 554.50005154 -31.33340459 556.00005147 -30.25 557.5 C-28.08333333 560.5 -25.91666667 563.5 -23.75 566.5 C-23.2135083 567.24282227 -22.6770166 567.98564453 -22.12426758 568.75097656 C-21.04332809 570.24768701 -19.96243599 571.74443168 -18.8815918 573.24121094 C-16.1370246 577.04182637 -13.39158034 580.84180298 -10.64453125 584.640625 C-5.34317769 591.97333833 -0.05344563 599.31361844 5.19873047 606.68164062 C9.09547082 612.1436315 13.01860065 617.58648229 16.95727539 623.01831055 C19.83275591 626.98578852 22.687198 630.96594122 25.5078125 634.97265625 C26.08233154 635.7831543 26.65685059 636.59365234 27.2487793 637.42871094 C28.34272764 638.97292253 29.43054391 640.52150403 30.51098633 642.07519531 C35.6995571 649.36976945 41.00381587 654.22552331 50 656 C60.61542707 657.0332349 69.12731447 655.0006732 77.85546875 648.87109375 C83.22016744 644.19041857 87.35173129 637.95935679 89 631 C89.66 631 90.32 631 91 631 C91.27457031 631.73250977 91.54914063 632.46501953 91.83203125 633.21972656 C92.93290075 635.8402746 94.17298545 638.08501051 95.6875 640.484375 C96.21649902 641.32919434 96.74549805 642.17401367 97.29052734 643.04443359 C98.13671631 644.38368896 98.13671631 644.38368896 99 645.75 C102.82340592 651.8388137 106.57893857 657.94240795 110.13134766 664.19360352 C115.79927287 674.1352823 121.29003546 682.11515546 132.78564453 685.53051758 C137.34329692 686.49682029 142.04630771 686.27058676 146.6875 686.3125 C147.73873047 686.34150391 148.78996094 686.37050781 149.87304688 686.40039062 C158.59973709 686.47098613 166.00008214 684.60763054 172.61328125 678.57421875 C178.93330095 671.39966117 182.65476928 661.87384573 186.84228516 653.35205078 C189.02625923 648.91501867 191.23187283 644.48879631 193.4375 640.0625 C193.87481445 639.17965332 194.31212891 638.29680664 194.76269531 637.38720703 C195.1697168 636.56978027 195.57673828 635.75235352 195.99609375 634.91015625 C196.35888428 634.17933838 196.7216748 633.44852051 197.09545898 632.69555664 C198 631 198 631 199 630 C200.78003486 634.0885416 202.55810357 638.17793124 204.33447266 642.26806641 C204.93714277 643.65501122 205.54031953 645.04173601 206.14404297 646.42822266 C207.01928847 648.4385295 207.89295335 650.44951209 208.765625 652.4609375 C209.19205795 653.44302185 209.19205795 653.44302185 209.62710571 654.44494629 C211.23358546 658.16383288 212.76356165 661.90230738 214.2265625 665.6796875 C217.94773436 675.08250124 223.98644862 680.58777205 233 685 C241.31639262 687.77213087 249.50938688 686.26297515 257.5 683.25 C258.16990967 682.99790771 258.83981934 682.74581543 259.5300293 682.48608398 C272.49202337 677.25133836 278.24190811 666.35511817 283.8125 654.25 C284.72286036 652.309224 285.63760282 650.37055082 286.55241394 648.43186951 C287.16174651 647.13944887 287.76951306 645.84628871 288.37568665 644.55238342 C291.46741396 637.96174062 294.74458173 631.46794953 298.06762695 624.99121094 C298.44363037 624.25032227 298.81963379 623.50943359 299.20703125 622.74609375 C299.5316333 622.11372803 299.85623535 621.4813623 300.19067383 620.82983398 C301.03989762 618.90979406 301.55022926 617.04732019 302 615 C302.66 615 303.32 615 304 615 C304.37125 616.175625 304.7425 617.35125 305.125 618.5625 C306.79743483 623.58773072 308.73340445 628.49968242 310.74121094 633.3984375 C311.90474 636.23784913 313.02207115 639.06595378 313.99609375 641.9765625 C315.77579683 647.21284445 317.7593322 650.90081449 322.4609375 654 C328.48353574 656.37197715 335.28802925 656.00434652 341.46875 654.33203125 C347.88881245 651.50473452 351.86992809 646.42870298 354.828125 640.23046875 C356.92934655 635.93808625 359.56631077 632.31827489 362.5 628.5625 C366.76289013 622.99354684 370.91586486 617.3707652 374.9375 611.625 C380.66870065 603.44962462 386.50094516 595.35101214 392.35888672 587.26611328 C395.07648173 583.513552 397.78794473 579.75656581 400.5 576 C401.58330362 574.49997854 402.66663696 572.99997854 403.75 571.5 C404.28625 570.7575 404.8225 570.015 405.375 569.25 C410.25 562.5 410.25 562.5 411.87597656 560.2487793 C412.95622118 558.75296853 414.03630007 557.25703807 415.11621094 555.76098633 C417.87043544 551.94587842 420.62775803 548.13307354 423.390625 544.32421875 C426.115448 540.5672002 428.82721698 536.80101314 431.53369141 533.03076172 C432.8784015 531.16840764 434.23937564 529.31934314 435.60546875 527.47265625 C441.03269606 519.97271901 444.74218561 512.65948082 448 504 C448.31710937 503.1646875 448.63421875 502.329375 448.9609375 501.46875 C452.58331383 491.28305813 453.2980068 481.48078988 453.29052734 470.71972656 C453.29652467 469.30568593 453.30333295 467.89164855 453.31088257 466.47761536 C453.32844054 462.6607186 453.33323398 458.84391174 453.33451414 455.02697849 C453.33594363 452.63034974 453.34022849 450.23374324 453.34550858 447.83712006 C453.36398455 439.44104078 453.37218341 431.04502471 453.37060547 422.64892578 C453.36940903 414.88169683 453.39041938 407.11474798 453.4220928 399.34758973 C453.44846646 392.6354095 453.45896384 385.92331943 453.45769465 379.21108794 C453.45719058 375.22202802 453.46255785 371.23321657 453.48405075 367.24420929 C453.57167655 349.7800862 453.00444055 333.09900372 449 316 C448.70768057 314.6464697 448.41847748 313.29226087 448.1330719 311.93725586 C440.38266506 275.61255152 424.98788398 240.67344917 401.44189453 211.77392578 C400.31738191 210.39046681 399.20649572 208.99592837 398.10107422 207.59716797 C392.30446187 200.34848542 386.06610754 193.66644892 379.5 187.125 C378.9766507 186.60186218 378.45330139 186.07872437 377.91409302 185.53973389 C369.18412204 176.84473915 360.16799453 168.99357098 350 162 C349.37367676 161.56091309 348.74735352 161.12182617 348.10205078 160.66943359 C314.09860271 136.89617333 275.94455396 121.60153734 235 115 C233.73929687 114.78472656 232.47859375 114.56945312 231.1796875 114.34765625 C152.1871235 101.3091246 67.41569653 128.700482 10 184 Z M-159.36328125 540.83203125 C-162.41254495 543.50619658 -165.5259103 546.08386658 -168.6875 548.625 C-185.11376611 561.45480704 -185.11376611 561.45480704 -192.23828125 580.32421875 C-192.53794492 589.86614098 -189.42846234 596.92526294 -183.26953125 604.11328125 C-176.63796993 609.62626596 -168.8732288 612.27225088 -160.75 614.8125 C-115.69174399 629.43502165 -79.32551097 653.82176284 -57.08496094 696.92431641 C-56.35651738 698.31793188 -55.60670474 699.7005675 -54.83691406 701.07177734 C-48.92441486 711.63895432 -47.17700762 720.36315233 -47.85522461 732.50195312 C-48.36299203 741.92535602 -46.80033123 749.73510291 -40.7421875 757.1796875 C-34.69281084 763.50033666 -28.52261124 767.18119259 -19.71875 767.4831543 C-9.18682935 767.55885248 -2.28554932 766.06063232 5.5703125 758.5390625 C8.16171316 755.77331684 10.59634991 752.92993949 13 750 C13.72703125 749.12085938 14.4540625 748.24171875 15.203125 747.3359375 C16.67161275 745.54522762 18.13236633 743.74815165 19.5859375 741.9453125 C21.83081196 739.20642036 24.12617082 736.5243351 26.44799805 733.85107422 C41.20058607 717.86460534 41.20058607 717.86460534 46.4375 697.5625 C46.45748047 696.85029297 46.47746094 696.13808594 46.49804688 695.40429688 C46.49435998 691.34502061 45.994515 688.65986254 43.953125 685.12890625 C41.2374117 680.23097715 41.90872142 675.80726396 42.3125 670.375 C42.79639559 663.62384984 42.79639559 663.62384984 40.29296875 657.65234375 C38.00884122 656.26123453 38.00884122 656.26123453 35.48828125 655.1953125 C27.19465923 651.21124918 21.41414562 639.00777449 16.203125 631.55859375 C13.03062449 627.02991723 9.80489994 622.54130907 6.5625 618.0625 C6.02496094 617.31967773 5.48742187 616.57685547 4.93359375 615.81152344 C3.84077118 614.30204596 2.74767134 612.79276918 1.65429688 611.28369141 C-1.12918202 607.44120888 -3.90874599 603.5959003 -6.6875 599.75 C-7.23140381 598.99726807 -7.77530762 598.24453613 -8.33569336 597.46899414 C-11.57060956 592.98886281 -14.79224637 588.49961122 -18 584 C-35.58273849 559.18437506 -35.58273849 559.18437506 -54.28125 535.2109375 C-56 533 -56 533 -57.3671875 529.7421875 C-60.59630084 526.37892701 -61.56582171 526.57873213 -66.1015625 526.484375 C-68.61016085 526.54680466 -71.11817562 526.63688642 -73.625 526.75 C-76.25766215 526.80919749 -78.89049368 526.86129253 -81.5234375 526.90625 C-82.80444336 526.93074219 -84.08544922 526.95523438 -85.40527344 526.98046875 C-95.27350093 527.03408585 -105.18639481 526.48215888 -114.078125 521.8984375 C-131.66145249 513.67858928 -147.3635369 530.27763426 -159.36328125 540.83203125 Z M445 523 C443.07226865 525.41731392 441.34250126 527.81336456 439.625 530.375 C438.54403954 531.94735127 437.46197217 533.51894202 436.37890625 535.08984375 C435.82090332 535.90437012 435.26290039 536.71889648 434.68798828 537.55810547 C432.03703456 541.39305472 429.30170702 545.16532742 426.5625 548.9375 C425.4738818 550.44135085 424.38534062 551.94525746 423.296875 553.44921875 C422.75482422 554.1973584 422.21277344 554.94549805 421.65429688 555.71630859 C418.87081798 559.55879112 416.09125401 563.4040997 413.3125 567.25 C412.76859619 568.00273193 412.22469238 568.75546387 411.66430664 569.53100586 C408.42939142 574.01113583 405.20756872 578.50025797 402 583 C395.48260504 592.14293615 388.89322028 601.23392586 382.31347656 610.33203125 C380.64616235 612.63778826 378.97922543 614.94381735 377.3125 617.25 C376.77165771 617.99813965 376.23081543 618.7462793 375.67358398 619.51708984 C372.76567159 623.54302233 369.87099686 627.57779758 366.99414062 631.62597656 C365.39110283 633.87954068 363.78108475 636.12801531 362.16748047 638.37402344 C361.38077549 639.46968533 360.59598207 640.56672198 359.81298828 641.66503906 C358.65536822 643.2833203 357.48407887 644.89179562 356.3125 646.5 C355.31669922 647.87671875 355.31669922 647.87671875 354.30078125 649.28125 C352.33229428 651.60733986 350.78584778 652.88944354 348.37109375 654.62890625 C343.61379583 658.58343804 343.43552538 663.56955176 342.75 669.4375 C341.86147048 676.13991743 340.9809756 681.89996546 338 688 C335.72933722 696.25695557 337.14254846 703.65606431 341.11328125 711.08203125 C345.08479417 717.39661963 350.10024823 722.91526893 354.98828125 728.5234375 C357.55281025 731.46834349 360.04235714 734.46487822 362.5 737.5 C366.01829631 741.8115122 369.5480384 746.11204576 373.125 750.375 C373.60388672 750.95830078 374.08277344 751.54160156 374.57617188 752.14257812 C379.99514763 758.55219883 386.07205036 763.497148 394.63671875 764.37109375 C405.27920762 764.69446621 412.74340792 763.09411159 420.875 755.75 C426.47898056 749.54184992 428.65069533 741.3323806 431.125 733.5 C437.16581903 715.0411091 443.55526354 696.85304651 455 681 C455.42313477 680.41299316 455.84626953 679.82598633 456.28222656 679.22119141 C463.60348579 669.19400809 471.46530176 659.97903694 481 652 C481.83789062 651.25105469 482.67578125 650.50210938 483.5390625 649.73046875 C499.3659666 635.8873777 522.27728957 620.18279981 544 620 C545.34275126 620.29310056 546.67820554 620.62350527 548 621 C556.79977718 621.95683852 564.54286616 620.1908314 571.77734375 615.01171875 C578.0609587 609.66926199 581.39397411 604.81807767 584 597 C584.87703394 585.96190136 584.52077225 577.4833117 577.05078125 568.7109375 C572.38755071 563.83840577 567.20880529 559.59616513 561.953125 555.3828125 C558.75786128 552.80462352 555.62592164 550.16130126 552.5 547.5 C534.45759844 531.04114259 534.45759844 531.04114259 511.52734375 525.73828125 C506.86850426 526.22072676 502.22247233 527.58298744 498.25390625 530.11328125 C494.80476593 531.47022207 491.43881101 531.06621472 487.8125 530.8125 C486.62297729 530.7357605 486.62297729 530.7357605 485.40942383 530.6574707 C473.4219947 529.77738698 461.93809214 527.62211468 450.5390625 523.76953125 C447.96367975 522.85497587 447.96367975 522.85497587 445 523 Z " fill="#030303" transform="translate(213,7)"/>
<path d="M0 0 C1.10503372 0.39241379 2.21006744 0.78482758 3.34858704 1.18913269 C5.67298249 2.01736626 7.99499389 2.85231798 10.31469727 3.69360352 C13.85788619 4.97851228 17.40754349 6.24395972 20.95898438 7.50585938 C23.22305677 8.31528681 25.48674242 9.12579702 27.75 9.9375 C28.80636154 10.31574417 29.86272308 10.69398834 30.95109558 11.08369446 C43.10161028 15.49693081 51.80137747 21.11105101 57.57958984 33.07446289 C58.98111263 36.39829984 60.3113643 39.74138109 61.61328125 43.10546875 C62.57086612 45.53154555 63.52919812 47.9573276 64.48828125 50.3828125 C65.17664063 52.13634033 65.17664063 52.13634033 65.87890625 53.92529297 C66.97180868 56.65796052 68.10802272 59.35681155 69.30078125 62.046875 C73.26549363 71.01937336 75.66932783 79.76083175 77.44921875 89.4140625 C77.96160598 92.96387199 77.96160598 92.96387199 79.17578125 95.16796875 C79.52293511 97.47552085 79.82876426 99.78935939 80.11328125 102.10546875 C80.67436418 106.62953516 81.33244029 111.08585328 82.30078125 115.54296875 C83.20461212 120.32753375 83.39112633 125.00062919 83.42578125 129.85546875 C83.43955811 130.90710205 83.43955811 130.90710205 83.45361328 131.97998047 C83.36249468 147.46649716 75.04136043 159.9547198 64.58203125 170.82421875 C60.67795886 174.38126249 55.99460925 176.20188693 51.17578125 178.16796875 C50.51578125 178.49796875 49.85578125 178.82796875 49.17578125 179.16796875 C47.37543372 179.27920953 45.57102733 179.32719302 43.76733398 179.3449707 C42.06932899 179.36422356 42.06932899 179.36422356 40.33702087 179.38386536 C39.10689774 179.39125229 37.8767746 179.39863922 36.609375 179.40625 C35.34617935 179.41432175 34.0829837 179.42239349 32.7815094 179.43070984 C30.10064009 179.44456502 27.41989432 179.45557571 24.73901367 179.46313477 C21.32508531 179.47414646 17.91181831 179.50848061 14.49812222 179.54830647 C11.22277281 179.58095408 7.94736228 179.58526882 4.671875 179.59375 C3.45592148 179.61125809 2.23996796 179.62876617 0.98716736 179.64680481 C-13.15672724 179.61094999 -22.19945055 173.2575749 -31.91381836 163.51000977 C-51.42835495 143.30498878 -50.98118145 117.84655174 -50.9921875 91.546875 C-50.9954112 89.70800248 -50.99877605 87.8691302 -51.00227356 86.03025818 C-51.00820746 82.20904953 -51.01011904 78.38786331 -51.00952148 74.56665039 C-51.00941925 69.68933316 -51.02315969 64.81215951 -51.04029369 59.93487644 C-51.05143898 56.15062301 -51.05344005 52.36640431 -51.05291176 48.58213615 C-51.05408465 46.78373652 -51.0584672 44.98533579 -51.06624413 43.18695259 C-51.07611208 40.67344229 -51.07314124 38.16024453 -51.06713867 35.64672852 C-51.07275818 34.91876068 -51.07837769 34.19079285 -51.08416748 33.44076538 C-51.0210334 22.96422181 -48.28229724 13.83512686 -40.88671875 6.15625 C-28.05395595 -4.71857289 -15.14805841 -5.54290785 0 0 Z " fill="#444C57" transform="translate(512.82421875,249.83203125)"/>
<path d="M0 0 C9.50943888 4.73280235 15.22754058 11.17127228 19.23828125 20.89624023 C20.15613112 23.64978985 20.37307291 25.31899058 20.39891052 28.16004944 C20.41397896 29.4650666 20.41397896 29.4650666 20.42935181 30.79644775 C20.4351828 31.7485614 20.44101379 32.70067505 20.44702148 33.68164062 C20.45680527 34.68704391 20.46658905 35.6924472 20.47666931 36.72831726 C20.50665472 40.06683027 20.52803097 43.40530263 20.546875 46.74389648 C20.55344683 47.88813017 20.56001865 49.03236385 20.56678963 50.21127129 C20.59941481 56.28145994 20.6238445 62.35163096 20.64331055 68.421875 C20.66103706 73.41986146 20.6957136 78.41727449 20.74584961 83.41503906 C20.80649467 89.46809604 20.83684888 95.52062642 20.84648323 101.5739727 C20.85497334 103.86738648 20.87362895 106.16078868 20.90322685 108.45402718 C21.19007798 131.96734551 16.5591785 149.65468185 -0.19921875 166.83374023 C-0.81982178 167.47335693 -1.4404248 168.11297363 -2.07983398 168.77197266 C-6.25774962 172.89083648 -10.3518021 175.64160608 -15.76171875 177.89624023 C-16.50882614 178.2372023 -17.25593353 178.57816437 -18.02568054 178.92945862 C-21.02538731 179.98940776 -23.33599584 180.16237223 -26.51074219 180.18676758 C-28.20840729 180.20590714 -28.20840729 180.20590714 -29.94036865 180.22543335 C-31.15500793 180.227659 -32.36964722 180.22988464 -33.62109375 180.23217773 C-34.88004456 180.23883453 -36.13899536 180.24549133 -37.43609619 180.25234985 C-40.09914291 180.26247041 -42.76178134 180.26803307 -45.42480469 180.2668457 C-48.81515542 180.26664305 -52.20466282 180.29389694 -55.5948143 180.32839012 C-58.85354125 180.35616204 -62.11226467 180.35481269 -65.37109375 180.35717773 C-66.57763611 180.37154877 -67.78417847 180.3859198 -69.02728271 180.40072632 C-76.1986042 180.36216675 -81.50571409 179.45043462 -87.76171875 175.89624023 C-89.24671875 175.09186523 -89.24671875 175.09186523 -90.76171875 174.27124023 C-98.43366225 168.1976183 -104.34055533 160.59074702 -108.76171875 151.89624023 C-109.17550781 151.1137793 -109.58929688 150.33131836 -110.015625 149.52514648 C-116.20878886 135.69302789 -112.81987823 119.12200698 -109.76171875 104.89624023 C-109.43224339 102.77380596 -109.1190442 100.64876443 -108.82421875 98.52124023 C-108.02211713 93.23525907 -107.0465883 88.00267048 -105.94921875 82.77124023 C-105.73761108 81.69737061 -105.73761108 81.69737061 -105.52172852 80.60180664 C-104.37985085 75.34308097 -102.43319964 70.76866438 -100.13745117 65.9128418 C-98.65637881 62.66525882 -97.35500283 59.38158511 -96.078125 56.04858398 C-95.62501953 54.86586914 -95.17191406 53.6831543 -94.70507812 52.46459961 C-93.78369919 50.04190733 -92.86703732 47.61741589 -91.95507812 45.19116211 C-87.65866325 34.02048342 -82.65128614 21.99615696 -71.76171875 15.89624023 C-68.65098028 14.5494207 -65.47244 13.43647659 -62.26953125 12.32983398 C-61.36476044 12.00966812 -60.45998962 11.68950226 -59.52780151 11.3596344 C-56.65012853 10.34317079 -53.76860755 9.33818098 -50.88671875 8.33374023 C-48.01294115 7.32311477 -45.13998479 6.31017925 -42.26705933 5.2971344 C-40.48465322 4.66961682 -38.70158898 4.04396434 -36.91775513 3.42051697 C-33.05309622 2.06855248 -29.2080513 0.69077783 -25.38867188 -0.78466797 C-17.17824742 -3.77072904 -7.99795643 -3.5043567 0 0 Z " fill="#444C57" transform="translate(338.76171875,249.103759765625)"/>
<path d="M0 0 C1.10503372 0.39241379 2.21006744 0.78482758 3.34858704 1.18913269 C5.67298249 2.01736626 7.99499389 2.85231798 10.31469727 3.69360352 C13.85788619 4.97851228 17.40754349 6.24395972 20.95898438 7.50585938 C23.22305677 8.31528681 25.48674242 9.12579702 27.75 9.9375 C28.80636154 10.31574417 29.86272308 10.69398834 30.95109558 11.08369446 C43.10161028 15.49693081 51.80137747 21.11105101 57.57958984 33.07446289 C58.98111263 36.39829984 60.3113643 39.74138109 61.61328125 43.10546875 C62.57086612 45.53154555 63.52919812 47.9573276 64.48828125 50.3828125 C65.17664063 52.13634033 65.17664063 52.13634033 65.87890625 53.92529297 C66.97180868 56.65796052 68.10802272 59.35681155 69.30078125 62.046875 C73.26549363 71.01937336 75.66932783 79.76083175 77.44921875 89.4140625 C77.96160598 92.96387199 77.96160598 92.96387199 79.17578125 95.16796875 C79.52293511 97.47552085 79.82876426 99.78935939 80.11328125 102.10546875 C80.67436418 106.62953516 81.33244029 111.08585328 82.30078125 115.54296875 C83.20461212 120.32753375 83.39112633 125.00062919 83.42578125 129.85546875 C83.43955811 130.90710205 83.43955811 130.90710205 83.45361328 131.97998047 C83.36249468 147.46649716 75.04136043 159.9547198 64.58203125 170.82421875 C60.67795886 174.38126249 55.99460925 176.20188693 51.17578125 178.16796875 C50.51578125 178.49796875 49.85578125 178.82796875 49.17578125 179.16796875 C47.37543372 179.27920953 45.57102733 179.32719302 43.76733398 179.3449707 C42.06932899 179.36422356 42.06932899 179.36422356 40.33702087 179.38386536 C39.10689774 179.39125229 37.8767746 179.39863922 36.609375 179.40625 C35.34617935 179.41432175 34.0829837 179.42239349 32.7815094 179.43070984 C30.10064009 179.44456502 27.41989432 179.45557571 24.73901367 179.46313477 C21.32508531 179.47414646 17.91181831 179.50848061 14.49812222 179.54830647 C11.22277281 179.58095408 7.94736228 179.58526882 4.671875 179.59375 C3.45592148 179.61125809 2.23996796 179.62876617 0.98716736 179.64680481 C-13.15672724 179.61094999 -22.19945055 173.2575749 -31.91381836 163.51000977 C-51.42835495 143.30498878 -50.98118145 117.84655174 -50.9921875 91.546875 C-50.9954112 89.70800248 -50.99877605 87.8691302 -51.00227356 86.03025818 C-51.00820746 82.20904953 -51.01011904 78.38786331 -51.00952148 74.56665039 C-51.00941925 69.68933316 -51.02315969 64.81215951 -51.04029369 59.93487644 C-51.05143898 56.15062301 -51.05344005 52.36640431 -51.05291176 48.58213615 C-51.05408465 46.78373652 -51.0584672 44.98533579 -51.06624413 43.18695259 C-51.07611208 40.67344229 -51.07314124 38.16024453 -51.06713867 35.64672852 C-51.07275818 34.91876068 -51.07837769 34.19079285 -51.08416748 33.44076538 C-51.0210334 22.96422181 -48.28229724 13.83512686 -40.88671875 6.15625 C-28.05395595 -4.71857289 -15.14805841 -5.54290785 0 0 Z M-37.82421875 11.16796875 C-41.58378967 16.47559828 -44.92133295 21.59878459 -44.98484802 28.24195862 C-44.99489365 29.06989929 -45.00493927 29.89783997 -45.01528931 30.75086975 C-45.0211203 31.65622971 -45.02695129 32.56158966 -45.03295898 33.49438477 C-45.04274277 34.4510202 -45.05252655 35.40765564 -45.06260681 36.39328003 C-45.09258834 39.56946429 -45.11396827 42.7456058 -45.1328125 45.921875 C-45.13938433 47.01094587 -45.14595615 48.10001675 -45.15272713 49.22208977 C-45.1853518 55.0005043 -45.20978071 60.77890033 -45.22924805 66.55737305 C-45.24696825 71.31286031 -45.28163417 76.06774419 -45.33178711 80.82299805 C-45.39247199 86.58428556 -45.42279175 92.34501939 -45.43242073 98.10661125 C-45.4409048 100.28838476 -45.45954489 102.47014636 -45.48916435 104.65173531 C-45.74619749 124.68182843 -42.62512554 142.65982414 -28.57421875 157.91796875 C-14.39725447 171.08454805 1.7123169 173.35880913 20.27416992 173.40820312 C22.47287969 173.41790082 24.67064945 173.44899499 26.86914062 173.48046875 C42.60308235 173.60235288 55.24300901 169.86603136 66.703125 158.70703125 C75.64845209 148.14588158 79.95051709 133.45030443 79.6015625 119.67578125 C78.3589988 109.43888033 75.32154062 99.34912104 71.98608398 89.61499023 C71.07499072 86.86359288 70.26697453 84.08913959 69.44921875 81.30859375 C66.96551663 73.19941246 63.90481855 65.33144129 60.79492188 57.44628906 C59.79861049 54.91244802 58.81906143 52.37251908 57.83984375 49.83203125 C53.27913798 37.79852832 53.27913798 37.79852832 46.17578125 27.16796875 C45.66644043 26.55163574 45.15709961 25.93530273 44.63232422 25.30029297 C38.28783263 18.74378829 29.37775752 16.7187553 20.92578125 14.04296875 C17.85559674 13.04787647 14.78894225 12.04218756 11.72265625 11.03515625 C10.98446655 10.79496765 10.24627686 10.55477905 9.48571777 10.30731201 C4.05828232 8.52108088 -1.20088337 6.45646758 -6.43261719 4.15283203 C-17.20921948 -0.28498071 -29.65073894 2.87487704 -37.82421875 11.16796875 Z " fill="#040404" transform="translate(512.82421875,249.83203125)"/>
<path d="M0 0 C9.50943888 4.73280235 15.22754058 11.17127228 19.23828125 20.89624023 C20.15613112 23.64978985 20.37307291 25.31899058 20.39891052 28.16004944 C20.41397896 29.4650666 20.41397896 29.4650666 20.42935181 30.79644775 C20.4351828 31.7485614 20.44101379 32.70067505 20.44702148 33.68164062 C20.45680527 34.68704391 20.46658905 35.6924472 20.47666931 36.72831726 C20.50665472 40.06683027 20.52803097 43.40530263 20.546875 46.74389648 C20.55344683 47.88813017 20.56001865 49.03236385 20.56678963 50.21127129 C20.59941481 56.28145994 20.6238445 62.35163096 20.64331055 68.421875 C20.66103706 73.41986146 20.6957136 78.41727449 20.74584961 83.41503906 C20.80649467 89.46809604 20.83684888 95.52062642 20.84648323 101.5739727 C20.85497334 103.86738648 20.87362895 106.16078868 20.90322685 108.45402718 C21.19007798 131.96734551 16.5591785 149.65468185 -0.19921875 166.83374023 C-0.81982178 167.47335693 -1.4404248 168.11297363 -2.07983398 168.77197266 C-6.25774962 172.89083648 -10.3518021 175.64160608 -15.76171875 177.89624023 C-16.50882614 178.2372023 -17.25593353 178.57816437 -18.02568054 178.92945862 C-21.02538731 179.98940776 -23.33599584 180.16237223 -26.51074219 180.18676758 C-28.20840729 180.20590714 -28.20840729 180.20590714 -29.94036865 180.22543335 C-31.15500793 180.227659 -32.36964722 180.22988464 -33.62109375 180.23217773 C-34.88004456 180.23883453 -36.13899536 180.24549133 -37.43609619 180.25234985 C-40.09914291 180.26247041 -42.76178134 180.26803307 -45.42480469 180.2668457 C-48.81515542 180.26664305 -52.20466282 180.29389694 -55.5948143 180.32839012 C-58.85354125 180.35616204 -62.11226467 180.35481269 -65.37109375 180.35717773 C-66.57763611 180.37154877 -67.78417847 180.3859198 -69.02728271 180.40072632 C-76.1986042 180.36216675 -81.50571409 179.45043462 -87.76171875 175.89624023 C-89.24671875 175.09186523 -89.24671875 175.09186523 -90.76171875 174.27124023 C-98.43366225 168.1976183 -104.34055533 160.59074702 -108.76171875 151.89624023 C-109.17550781 151.1137793 -109.58929688 150.33131836 -110.015625 149.52514648 C-116.20878886 135.69302789 -112.81987823 119.12200698 -109.76171875 104.89624023 C-109.43224339 102.77380596 -109.1190442 100.64876443 -108.82421875 98.52124023 C-108.02211713 93.23525907 -107.0465883 88.00267048 -105.94921875 82.77124023 C-105.73761108 81.69737061 -105.73761108 81.69737061 -105.52172852 80.60180664 C-104.37985085 75.34308097 -102.43319964 70.76866438 -100.13745117 65.9128418 C-98.65637881 62.66525882 -97.35500283 59.38158511 -96.078125 56.04858398 C-95.62501953 54.86586914 -95.17191406 53.6831543 -94.70507812 52.46459961 C-93.78369919 50.04190733 -92.86703732 47.61741589 -91.95507812 45.19116211 C-87.65866325 34.02048342 -82.65128614 21.99615696 -71.76171875 15.89624023 C-68.65098028 14.5494207 -65.47244 13.43647659 -62.26953125 12.32983398 C-61.36476044 12.00966812 -60.45998962 11.68950226 -59.52780151 11.3596344 C-56.65012853 10.34317079 -53.76860755 9.33818098 -50.88671875 8.33374023 C-48.01294115 7.32311477 -45.13998479 6.31017925 -42.26705933 5.2971344 C-40.48465322 4.66961682 -38.70158898 4.04396434 -36.91775513 3.42051697 C-33.05309622 2.06855248 -29.2080513 0.69077783 -25.38867188 -0.78466797 C-17.17824742 -3.77072904 -7.99795643 -3.5043567 0 0 Z M-25.44921875 5.64624023 C-27.18016009 6.30337727 -28.91199755 6.95815676 -30.64453125 7.61108398 C-31.60004883 7.97572754 -32.55556641 8.34037109 -33.54003906 8.71606445 C-36.51693689 9.80657098 -39.51079022 10.81930174 -42.52574158 11.79916382 C-45.27922303 12.69440508 -48.02503786 13.61210381 -50.77090454 14.53039551 C-52.11894423 14.97574167 -53.4699698 15.41216891 -54.82406616 15.83874512 C-65.61196851 19.25341785 -75.53555782 24.36406554 -81.1640625 34.72045898 C-81.70655957 35.99555894 -82.21750541 37.28445765 -82.69921875 38.58374023 C-82.99731445 39.31431641 -83.29541016 40.04489258 -83.60253906 40.79760742 C-84.28395423 42.48727343 -84.94976213 44.1832856 -85.60302734 45.8840332 C-86.70674926 48.7533381 -87.84052597 51.60951089 -88.98268127 54.46369934 C-90.33687938 57.85347701 -91.67536585 61.24939506 -93.01171875 64.64624023 C-93.26847382 65.29692474 -93.52522888 65.94760925 -93.7897644 66.61801147 C-96.93312531 74.62198757 -99.68166867 82.62592739 -101.9362793 90.93041992 C-102.641729 93.46511469 -103.43139958 95.92297609 -104.32421875 98.39624023 C-110.15071211 115.68363812 -110.5075463 132.2685282 -103.40625 149.11108398 C-97.5653791 160.52661988 -87.99984189 168.2666269 -75.88720703 172.56079102 C-68.93418705 174.42963278 -61.73187561 174.19840606 -54.58789062 174.15698242 C-52.39815358 174.14629604 -50.20924286 174.15690687 -48.01953125 174.16967773 C-30.61073125 174.18891098 -14.66611157 170.87809559 -1.453125 158.78295898 C9.71304382 147.2778508 14.48223733 133.67420933 14.60473633 117.83764648 C14.62703308 116.39432449 14.62703308 116.39432449 14.64978027 114.92184448 C14.69564714 111.76751826 14.7274691 108.61325133 14.7578125 105.45874023 C14.78417673 103.2511347 14.81093167 101.0435338 14.83805847 98.8359375 C14.89234114 94.21968925 14.93915726 89.60343578 14.98120117 84.98706055 C15.03593454 79.08582723 15.1134714 73.18514068 15.19714832 67.28425598 C15.25849301 62.72889132 15.3055642 58.17346042 15.34860802 53.6178894 C15.37126327 51.44264105 15.39879788 49.2674376 15.43140602 47.09231567 C15.47534903 44.0464236 15.49947853 41.00096876 15.51879883 37.95483398 C15.5357933 37.06625702 15.55278778 36.17768005 15.57029724 35.26217651 C15.585515 26.12199785 13.16323777 18.02221539 6.70703125 11.30249023 C-2.3932259 2.86406997 -14.05770343 1.08743001 -25.44921875 5.64624023 Z " fill="#040404" transform="translate(338.76171875,249.103759765625)"/>
</svg>
