<?xml version="1.0" encoding="UTF-8"?>
<svg version="1.1" xmlns="http://www.w3.org/2000/svg" width="545" height="545">
<path d="M0 0 C1.05928711 0.19335938 2.11857422 0.38671875 3.20996094 0.5859375 C27.82125417 5.24232232 51.53382529 12.91170504 74 24 C75.18964355 24.58152832 75.18964355 24.58152832 76.40332031 25.17480469 C105.57511623 39.56622401 135.34200474 60.62828491 156.2265625 85.859375 C157.64225008 87.56817851 159.10641735 89.23678072 160.5859375 90.890625 C196.41547037 131.07479641 218.87860607 183.6745806 225 237 C225.08619598 237.74687073 225.17239197 238.49374146 225.26119995 239.26324463 C225.90070377 245.18143655 226.17258686 251.02606837 226.203125 256.9765625 C226.21013931 257.89661072 226.21715363 258.81665894 226.22438049 259.7645874 C226.24178801 262.71810865 226.24823297 265.67142934 226.25 268.625 C226.25101212 270.13915497 226.25101212 270.13915497 226.25204468 271.68389893 C226.23611063 286.67649575 225.81192282 301.2318699 223 316 C222.75056641 317.37478516 222.75056641 317.37478516 222.49609375 318.77734375 C213.27661971 368.56250356 190.80665965 415.41784166 156.24609375 452.56640625 C154.36544087 454.60405276 152.58355404 456.68092606 150.8125 458.8125 C141.18565771 469.84043201 129.7085334 479.27975407 118 488 C117.42926758 488.42764648 116.85853516 488.85529297 116.27050781 489.29589844 C83.57525587 513.65598181 45.9933282 529.65859004 6.125 537.8125 C5.17641113 538.0074707 4.22782227 538.20244141 3.25048828 538.40332031 C-13.16394313 541.57273377 -29.43999457 542.37645341 -46.125 542.3125 C-47.11445618 542.31067719 -48.10391235 542.30885437 -49.12335205 542.30697632 C-63.95529707 542.26101852 -78.39163471 541.78150284 -93 539 C-93.91652344 538.83371094 -94.83304688 538.66742187 -95.77734375 538.49609375 C-134.78314875 531.27279653 -171.66096593 515.98416243 -204 493 C-204.57041016 492.59539551 -205.14082031 492.19079102 -205.72851562 491.77392578 C-221.13209702 480.7478579 -237.10408203 467.78605826 -249.2265625 453.140625 C-250.64225008 451.43182149 -252.10641735 449.76321928 -253.5859375 448.109375 C-303.5260526 392.09965383 -322.15646198 319.46511241 -318.90686035 245.89123535 C-318.46381589 238.1769036 -317.40137795 230.59333597 -316 223 C-315.80664062 221.94071289 -315.61328125 220.88142578 -315.4140625 219.79003906 C-310.75880506 195.18470462 -303.09926068 171.45687042 -292 149 C-291.64470215 148.27699707 -291.2894043 147.55399414 -290.92333984 146.80908203 C-279.79764283 124.42033371 -265.68301919 103.8669507 -248.5234375 85.67578125 C-246.05858519 83.06212207 -243.68348337 80.38621316 -241.3125 77.6875 C-238.0868315 74.09579819 -234.74826498 70.85432971 -231.0546875 67.75 C-229.65357578 66.5566577 -228.28431673 65.32513517 -226.9453125 64.0625 C-168.55472061 9.10664881 -78.38421534 -14.4660939 0 0 Z " fill="#CDE0FE" transform="translate(319,3)"/>
<path d="M0 0 C0.82242188 0.66902344 1.64484375 1.33804688 2.4921875 2.02734375 C15.75782927 13.2503521 24.8802755 27.87049357 31 44 C31.350625 44.80050781 31.70125 45.60101563 32.0625 46.42578125 C37.07001166 60.17557368 36.98627281 79.37712636 32 93 C31.58621094 94.24265625 31.17242187 95.4853125 30.74609375 96.765625 C21.21453021 124.60421405 0.36328288 144.9303421 -25.578125 157.95678711 C-64.47121084 176.78141025 -109.59547524 180.00545395 -150.609375 165.84936523 C-166.46596498 160.05713587 -180.97905947 151.7574437 -194 141 C-194.73992187 140.39542969 -195.47984375 139.79085937 -196.2421875 139.16796875 C-213.50861616 124.5004662 -226.41829693 102.91134701 -228.79296875 80.15625 C-230.61167293 52.4295901 -221.73997501 29.98057362 -203.875 9 C-183.53741009 -13.01491691 -154.10090789 -26.01483377 -125 -31 C-123.94039063 -31.20625 -122.88078125 -31.4125 -121.7890625 -31.625 C-79.50345833 -38.99682446 -32.99308744 -27.40625797 0 0 Z " fill="#69A2FC" transform="translate(369,292)"/>
<path d="M0 0 C12.34319197 10.4965727 21.28246822 22.67844794 26.48046875 38.109375 C26.79886719 39.05425781 27.11726562 39.99914062 27.4453125 40.97265625 C33.2899588 61.73865761 29.35440243 83.27970328 19.359375 101.99609375 C16.47619061 106.77342838 13.219783 110.97644872 9.48046875 115.109375 C8.8153125 115.86734375 8.15015625 116.6253125 7.46484375 117.40625 C-1.90557603 127.47077495 -13.49705105 133.94283491 -26.51953125 138.109375 C-27.41285156 138.42777344 -28.30617188 138.74617187 -29.2265625 139.07421875 C-48.35814674 145.01349454 -69.48063834 141.29863124 -86.92749023 132.31225586 C-92.67148985 129.1927376 -97.703033 125.53853248 -102.51953125 121.109375 C-103.298125 120.41070312 -104.07671875 119.71203125 -104.87890625 118.9921875 C-119.8861709 104.84104198 -128.22119305 84.8603953 -128.86914062 64.41064453 C-129.11475163 42.14978598 -121.22342378 22.11023284 -105.83203125 5.921875 C-76.44108709 -22.03317571 -32.19377614 -25.13160135 0 0 Z " fill="#69A2FC" transform="translate(321.51953125,95.890625)"/>
<path d="M0 0 C1.05928711 0.19335938 2.11857422 0.38671875 3.20996094 0.5859375 C27.82125417 5.24232232 51.53382529 12.91170504 74 24 C75.18964355 24.58152832 75.18964355 24.58152832 76.40332031 25.17480469 C105.57511623 39.56622401 135.34200474 60.62828491 156.2265625 85.859375 C157.64225008 87.56817851 159.10641735 89.23678072 160.5859375 90.890625 C196.41547037 131.07479641 218.87860607 183.6745806 225 237 C225.08619598 237.74687073 225.17239197 238.49374146 225.26119995 239.26324463 C225.90070377 245.18143655 226.17258686 251.02606837 226.203125 256.9765625 C226.21013931 257.89661072 226.21715363 258.81665894 226.22438049 259.7645874 C226.24178801 262.71810865 226.24823297 265.67142934 226.25 268.625 C226.25101212 270.13915497 226.25101212 270.13915497 226.25204468 271.68389893 C226.23611063 286.67649575 225.81192282 301.2318699 223 316 C222.75056641 317.37478516 222.75056641 317.37478516 222.49609375 318.77734375 C213.27661971 368.56250356 190.80665965 415.41784166 156.24609375 452.56640625 C154.36544087 454.60405276 152.58355404 456.68092606 150.8125 458.8125 C141.18565771 469.84043201 129.7085334 479.27975407 118 488 C117.42926758 488.42764648 116.85853516 488.85529297 116.27050781 489.29589844 C83.57525587 513.65598181 45.9933282 529.65859004 6.125 537.8125 C5.17641113 538.0074707 4.22782227 538.20244141 3.25048828 538.40332031 C-13.16394313 541.57273377 -29.43999457 542.37645341 -46.125 542.3125 C-47.11445618 542.31067719 -48.10391235 542.30885437 -49.12335205 542.30697632 C-63.95529707 542.26101852 -78.39163471 541.78150284 -93 539 C-93.91652344 538.83371094 -94.83304688 538.66742187 -95.77734375 538.49609375 C-134.78314875 531.27279653 -171.66096593 515.98416243 -204 493 C-204.57041016 492.59539551 -205.14082031 492.19079102 -205.72851562 491.77392578 C-221.13209702 480.7478579 -237.10408203 467.78605826 -249.2265625 453.140625 C-250.64225008 451.43182149 -252.10641735 449.76321928 -253.5859375 448.109375 C-303.5260526 392.09965383 -322.15646198 319.46511241 -318.90686035 245.89123535 C-318.46381589 238.1769036 -317.40137795 230.59333597 -316 223 C-315.80664062 221.94071289 -315.61328125 220.88142578 -315.4140625 219.79003906 C-310.75880506 195.18470462 -303.09926068 171.45687042 -292 149 C-291.64470215 148.27699707 -291.2894043 147.55399414 -290.92333984 146.80908203 C-279.79764283 124.42033371 -265.68301919 103.8669507 -248.5234375 85.67578125 C-246.05858519 83.06212207 -243.68348337 80.38621316 -241.3125 77.6875 C-238.0868315 74.09579819 -234.74826498 70.85432971 -231.0546875 67.75 C-229.65357578 66.5566577 -228.28431673 65.32513517 -226.9453125 64.0625 C-168.55472061 9.10664881 -78.38421534 -14.4660939 0 0 Z M-85.625 5.3125 C-86.37950439 5.44366211 -87.13400879 5.57482422 -87.91137695 5.70996094 C-90.27644829 6.12874769 -92.63842675 6.56194652 -95 7 C-95.75555176 7.13776855 -96.51110352 7.27553711 -97.28955078 7.41748047 C-133.37899031 14.11217598 -169.57317846 28.66858604 -199.140625 50.62304688 C-201.07816095 52.0578818 -203.03723486 53.45929446 -205 54.859375 C-214.71373103 61.86913955 -223.43164638 69.645688 -232 78 C-232.63856934 78.61278809 -233.27713867 79.22557617 -233.93505859 79.85693359 C-242.78996994 88.35738264 -250.69334976 97.14370346 -258 107 C-258.94608731 108.25170079 -259.8927119 109.50299565 -260.83984375 110.75390625 C-302.20244065 165.78150055 -320.81449811 236.85854227 -311.20214844 305.0994873 C-304.30506638 351.75515919 -286.63257861 394.51348485 -258 432 C-257.31164062 432.90363281 -256.62328125 433.80726563 -255.9140625 434.73828125 C-242.87759817 451.41963459 -227.63362303 467.1827129 -210.61425781 479.79589844 C-209.06785334 480.94938708 -207.54498312 482.13422576 -206.0234375 483.3203125 C-198.04241272 489.4943128 -189.66676549 494.85596673 -181 500 C-180.26313965 500.44102051 -179.5262793 500.88204102 -178.76708984 501.33642578 C-151.53570853 517.47289453 -121.2073553 527.93173779 -90 533 C-89.10925781 533.14953125 -88.21851563 533.2990625 -87.30078125 533.453125 C-62.08214469 537.53312757 -34.27594824 538.2621184 -9 534 C-8.02095703 533.83870605 -7.04191406 533.67741211 -6.03320312 533.51123047 C8.64507076 531.03310909 22.91334928 527.82375639 37 523 C37.92458008 522.68579102 38.84916016 522.37158203 39.80175781 522.04785156 C69.11655619 511.9369378 95.75762255 497.30637971 120 478 C120.56960449 477.54753906 121.13920898 477.09507812 121.72607422 476.62890625 C136.77826133 464.52752657 151.51706812 450.56294797 163 435 C163.49016602 434.34322266 163.98033203 433.68644531 164.48535156 433.00976562 C182.25814579 409.13712086 195.60964872 383.89308517 206 356 C206.27424805 355.2790918 206.54849609 354.55818359 206.83105469 353.81542969 C221.78179036 314.20909483 223.96696846 267.5015104 217 226 C216.86078125 225.14277344 216.7215625 224.28554687 216.578125 223.40234375 C211.92215995 195.50966423 202.31658588 168.89594808 189 144 C188.65501465 143.34870117 188.3100293 142.69740234 187.95458984 142.02636719 C176.747931 121.00683606 162.51190128 102.12486106 146 85 C145.07695068 84.03610352 145.07695068 84.03610352 144.13525391 83.05273438 C135.84246503 74.431375 127.39703255 66.41958062 117.76953125 59.30761719 C115.91902962 57.94016593 114.08436198 56.55307165 112.25 55.1640625 C86.92137115 36.11963845 57.63641334 21.30688819 27 13 C25.75734375 12.61585937 24.5146875 12.23171875 23.234375 11.8359375 C-10.91238803 1.61406126 -50.51392972 -0.89267188 -85.625 5.3125 Z " fill="#030304" transform="translate(319,3)"/>
<path d="M0 0 C0.82242188 0.66902344 1.64484375 1.33804688 2.4921875 2.02734375 C15.75782927 13.2503521 24.8802755 27.87049357 31 44 C31.350625 44.80050781 31.70125 45.60101563 32.0625 46.42578125 C37.07001166 60.17557368 36.98627281 79.37712636 32 93 C31.58621094 94.24265625 31.17242187 95.4853125 30.74609375 96.765625 C21.21453021 124.60421405 0.36328288 144.9303421 -25.578125 157.95678711 C-64.47121084 176.78141025 -109.59547524 180.00545395 -150.609375 165.84936523 C-166.46596498 160.05713587 -180.97905947 151.7574437 -194 141 C-194.73992187 140.39542969 -195.47984375 139.79085937 -196.2421875 139.16796875 C-213.50861616 124.5004662 -226.41829693 102.91134701 -228.79296875 80.15625 C-230.61167293 52.4295901 -221.73997501 29.98057362 -203.875 9 C-183.53741009 -13.01491691 -154.10090789 -26.01483377 -125 -31 C-123.94039063 -31.20625 -122.88078125 -31.4125 -121.7890625 -31.625 C-79.50345833 -38.99682446 -32.99308744 -27.40625797 0 0 Z M-131 -24 C-131.7513623 -23.82839355 -132.50272461 -23.65678711 -133.27685547 -23.47998047 C-163.66239598 -16.30214221 -192.43088279 0.3692586 -209.9609375 26.6953125 C-218.36425422 40.31448098 -223.41505283 54.31376133 -223.3125 70.375 C-223.30686035 71.30401123 -223.3012207 72.23302246 -223.29541016 73.19018555 C-223.17619648 79.91631559 -222.39730991 85.68557616 -220 92 C-219.58621094 93.25039063 -219.17242187 94.50078125 -218.74609375 95.7890625 C-213.8381175 110.27181305 -205.63056234 121.20403994 -195 132 C-194.24332031 132.78117188 -193.48664063 133.56234375 -192.70703125 134.3671875 C-172.19784472 154.20567774 -144.40205311 162.53395704 -117 167 C-115.544729 167.26478149 -115.544729 167.26478149 -114.06005859 167.53491211 C-77.85421195 173.03771551 -39.27278966 162.19506181 -9.64501953 141.23144531 C-4.7282726 137.55081731 -0.33644685 133.33644685 4 129 C4.81339844 128.18660156 5.62679687 127.37320313 6.46484375 126.53515625 C19.53303625 112.75212245 27.7965249 95.00943624 29 76 C29.07734375 74.84628906 29.1546875 73.69257813 29.234375 72.50390625 C30.06624863 49.18833711 19.86003135 29.32093091 4.55859375 12.28125 C-19.14861189 -12.37728813 -55.16948857 -26.40045996 -89.1640625 -27.30078125 C-91.65096984 -27.32008134 -94.13804246 -27.32358241 -96.625 -27.3125 C-97.93952148 -27.30758545 -99.25404297 -27.3026709 -100.60839844 -27.29760742 C-110.99215515 -27.17332357 -120.88422073 -26.34003019 -131 -24 Z " fill="#07080B" transform="translate(369,292)"/>
<path d="M0 0 C12.34319197 10.4965727 21.28246822 22.67844794 26.48046875 38.109375 C26.79886719 39.05425781 27.11726562 39.99914062 27.4453125 40.97265625 C33.2899588 61.73865761 29.35440243 83.27970328 19.359375 101.99609375 C16.47619061 106.77342838 13.219783 110.97644872 9.48046875 115.109375 C8.8153125 115.86734375 8.15015625 116.6253125 7.46484375 117.40625 C-1.90557603 127.47077495 -13.49705105 133.94283491 -26.51953125 138.109375 C-27.41285156 138.42777344 -28.30617188 138.74617187 -29.2265625 139.07421875 C-48.35814674 145.01349454 -69.48063834 141.29863124 -86.92749023 132.31225586 C-92.67148985 129.1927376 -97.703033 125.53853248 -102.51953125 121.109375 C-103.298125 120.41070312 -104.07671875 119.71203125 -104.87890625 118.9921875 C-119.8861709 104.84104198 -128.22119305 84.8603953 -128.86914062 64.41064453 C-129.11475163 42.14978598 -121.22342378 22.11023284 -105.83203125 5.921875 C-76.44108709 -22.03317571 -32.19377614 -25.13160135 0 0 Z M-58.26953125 -10.83203125 C-75.31797716 -9.90670442 -91.84318912 0.10848514 -103.51953125 12.109375 C-118.10468384 28.7739172 -123.77039424 48.16026977 -122.51953125 70.109375 C-120.7401118 84.50798008 -115.18022626 98.24676253 -105.51953125 109.109375 C-105.07351562 109.69589844 -104.6275 110.28242188 -104.16796875 110.88671875 C-94.5203953 123.32701082 -78.2780744 131.65935909 -63.02734375 134.67578125 C-40.57811897 137.45068543 -20.20388246 132.04705252 -2.1484375 118.3046875 C12.33548348 106.20546755 21.2647316 88.75686197 23.48046875 70.109375 C24.54826013 49.55439103 20.05920336 31.02666946 6.48046875 15.109375 C6.05765625 14.54476562 5.63484375 13.98015625 5.19921875 13.3984375 C-5.05390737 0.22436266 -23.1058572 -8.65983888 -39.51953125 -10.890625 C-45.80181156 -11.22028921 -51.98567233 -10.96592029 -58.26953125 -10.83203125 Z " fill="#07080B" transform="translate(321.51953125,95.890625)"/>
</svg>
