<?xml version="1.0" encoding="UTF-8"?>
<svg version="1.1" xmlns="http://www.w3.org/2000/svg" width="421" height="646">
<path d="M0 0 C2.85351904 3.09729559 4.94169659 6.43296373 6.9609375 10.11328125 C7.50741943 11.10118652 8.05390137 12.0890918 8.61694336 13.10693359 C9.19710205 14.16477051 9.77726074 15.22260742 10.375 16.3125 C15.12788679 24.89574605 19.96000347 33.42005499 24.9375 41.875 C30.62213652 51.5503985 36.10791759 61.32558651 41.53710938 71.14624023 C46.72896015 80.53321966 52.02439531 89.85632169 57.36767578 99.15771484 C60.54220823 104.68537066 63.70986656 110.21695856 66.875 115.75 C67.21389252 116.34232422 67.55278503 116.93464844 67.90194702 117.54492188 C73.32135571 127.02103276 78.67359241 136.53327014 83.99609375 146.06420898 C89.59481163 156.08275754 95.29067843 166.0442014 101 176 C103.62677914 180.58231646 106.25208512 185.16547084 108.875 189.75 C109.21380188 190.34214294 109.55260376 190.93428589 109.90167236 191.54437256 C115.32116483 201.02067043 120.67349308 210.53309226 125.99609375 220.06420898 C131.5948141 230.08276196 137.29099755 240.04401632 143 250 C145.44041209 254.25808589 147.87958378 258.51687603 150.31695557 262.77670288 C151.34174506 264.56690696 152.36785789 266.35634761 153.39404297 268.14575195 C154.03486816 269.26554443 154.67569336 270.38533691 155.3359375 271.5390625 C155.95694336 272.62348633 156.57794922 273.70791016 157.21777344 274.82519531 C158.92372544 277.8641268 160.5460259 280.9370869 162.1640625 284.0234375 C164.35111212 288.06445578 166.68392435 290.79775978 170 294 C172.7510563 297.72696381 175.30426043 301.58474442 177.875 305.4375 C178.62498011 306.55272417 179.37555861 307.66754614 180.12670898 308.78198242 C181.66554285 311.06579606 183.20193518 313.35122368 184.73681641 315.63769531 C188.14977052 320.71566954 191.60809831 325.762676 195.0625 330.8125 C199.57674876 337.41529975 204.04918115 344.03712205 208.38671875 350.7578125 C209.92337509 353.03239046 209.92337509 353.03239046 211.87255859 354.81567383 C214.12939502 357.13285486 215.84887193 359.50780771 217.65234375 362.19140625 C218.33981689 363.20904053 219.02729004 364.2266748 219.7355957 365.27514648 C220.46222412 366.35997314 221.18885254 367.4447998 221.9375 368.5625 C222.70028529 369.6944152 223.46355553 370.82600374 224.22729492 371.95727539 C225.38404525 373.67093375 226.54042241 375.38483243 227.69508362 377.09989929 C231.03854028 382.06587955 234.42196172 387.00362092 237.8125 391.9375 C239.87816687 394.95617794 241.93955461 397.97775644 244 401 C244.56187012 401.82242187 245.12374023 402.64484375 245.70263672 403.4921875 C247.39158329 405.96962676 249.07192751 408.45268605 250.75 410.9375 C251.52114136 412.0656311 251.52114136 412.0656311 252.30786133 413.21655273 C253.0139856 414.26758179 253.0139856 414.26758179 253.734375 415.33984375 C254.14913086 415.95206787 254.56388672 416.56429199 254.99121094 417.19506836 C256.06444338 419.11530249 256.5653277 420.85180685 257 423 C249.60031578 428.34178388 242.17102357 433.60239425 234.5546875 438.6328125 C229.88106609 441.73111779 225.25598811 444.9010026 220.625 448.0625 C219.20997192 449.02845093 219.20997192 449.02845093 217.76635742 450.01391602 C215.81891072 451.343604 213.87156493 452.67343979 211.92431641 454.00341797 C208.14295311 456.58515023 204.35933712 459.16356924 200.57568359 461.74194336 C192.87873738 466.98726463 185.18578138 472.23833248 177.5 477.5 C167.94149987 484.04372629 158.37059362 490.56918841 148.79833984 497.09277344 C144.19844649 500.22786041 139.59924642 503.36396408 135 506.5 C129.46519571 510.27395415 123.93023417 514.04767656 118.39453125 517.8203125 C109.75820486 523.70652378 101.12413521 529.5959377 92.5 535.5 C82.94149987 542.04372629 73.37059362 548.56918841 63.79833984 555.09277344 C61.02812395 556.98083194 58.2581493 558.86924374 55.48828125 560.7578125 C54.58110352 561.3763208 53.67392578 561.9948291 52.73925781 562.63208008 C50.92203483 563.87125771 49.10497587 565.1106759 47.28808594 566.3503418 C42.49705105 569.61871463 37.70236242 572.88155121 32.90234375 576.13671875 C31.90396484 576.81476562 30.90558594 577.4928125 29.87695312 578.19140625 C27.96662836 579.48865004 26.05522852 580.78431257 24.14257812 582.078125 C22.84803711 582.95791016 22.84803711 582.95791016 21.52734375 583.85546875 C20.77187256 584.36746826 20.01640137 584.87946777 19.23803711 585.40698242 C16.94415176 586.98093872 16.94415176 586.98093872 14.79736328 588.9453125 C11.02812657 591.71384943 7.03844088 593.28555331 2.71484375 595.01953125 C1.33865372 595.5834684 1.33865372 595.5834684 -0.06533813 596.15879822 C-3.06124455 597.38457922 -6.06170526 598.59874087 -9.0625 599.8125 C-12.1768868 601.08120235 -15.29027208 602.35233981 -18.40357971 603.62368774 C-20.51013877 604.4837097 -22.61710558 605.34273355 -24.72447205 606.20077515 C-31.48642936 608.95765957 -38.22418394 611.76621887 -44.9453125 614.62109375 C-46.614494 615.32773689 -48.28368322 616.03436178 -49.95288086 616.7409668 C-52.30824996 617.73860659 -54.66216752 618.73911206 -57.01223755 619.74917603 C-59.15443955 620.66931629 -61.30117523 621.57797504 -63.44921875 622.484375 C-65.24879028 623.25346191 -65.24879028 623.25346191 -67.0847168 624.03808594 C-70 625 -70 625 -73 624 C-74.0037384 622.34823608 -74.0037384 622.34823608 -74.89770508 620.17724609 C-75.23848587 619.36484467 -75.57926666 618.55244324 -75.93037415 617.71542358 C-76.28979599 616.82706818 -76.64921783 615.93871277 -77.01953125 615.0234375 C-77.40058517 614.10599762 -77.7816391 613.18855774 -78.17424011 612.24331665 C-79.39732233 609.29135729 -80.60495802 606.33334553 -81.8125 603.375 C-82.61424806 601.43448803 -83.41697175 599.49437885 -84.22070312 597.5546875 C-88.13853517 588.07963868 -91.99050495 578.57899373 -95.78198242 569.05273438 C-96.78411776 566.54106866 -97.79871123 564.03571768 -98.828125 561.53515625 C-102.56978809 552.3968637 -105.27894128 543.90597338 -106 534 C-106.05414063 533.34902344 -106.10828125 532.69804688 -106.1640625 532.02734375 C-106.99260257 512.48133027 -99.03143423 494.33772659 -86.91015625 479.4296875 C-77.94015859 469.84164531 -65.66382591 462.41745769 -53 459 C-51.7934375 458.96003906 -50.586875 458.92007812 -49.34375 458.87890625 C-45.07959351 458.66305535 -41.5739013 458.39253872 -38 456 C-32.7251563 449.89938204 -29.25223226 442.41547256 -25.64794922 435.25683594 C-23.64214652 431.29277549 -21.51272716 427.40617814 -19.36621094 423.51708984 C-17.87123297 420.80566778 -16.39717564 418.08365438 -14.92578125 415.359375 C-11.0858559 408.28724538 -7.0710385 401.31723656 -3.0625 394.33984375 C0.67493226 387.83416556 4.36398464 381.30137665 8.04980469 374.76635742 C10.90298497 369.70801749 13.76422813 364.65455673 16.640625 359.609375 C17.23431885 358.56571777 17.8280127 357.52206055 18.43969727 356.44677734 C19.57830068 354.4456727 20.71929582 352.44592643 21.86303711 350.44775391 C22.37616455 349.54460449 22.88929199 348.64145508 23.41796875 347.7109375 C24.09508911 346.52443604 24.09508911 346.52443604 24.78588867 345.31396484 C26.66340241 341.768253 26.66340241 341.768253 28 338 C27.17897135 335.90053652 27.17897135 335.90053652 25.51953125 334.06640625 C24.93816406 333.34259766 24.35679687 332.61878906 23.7578125 331.87304688 C23.11585938 331.11056641 22.47390625 330.34808594 21.8125 329.5625 C21.16410156 328.76263672 20.51570312 327.96277344 19.84765625 327.13867188 C18.52720468 325.51020158 17.19989525 323.88726761 15.86572266 322.27001953 C13.35866017 319.21968362 10.92726374 316.11386942 8.5 313 C7.61105353 311.86949556 6.72172291 310.73929308 5.83203125 309.609375 C0.79481371 303.19804597 -4.19959424 296.75321077 -9.20166016 290.31445312 C-12.13299363 286.54184366 -15.06659198 282.77099645 -18 279 C-19.16667794 277.50000877 -20.3333446 276.00000876 -21.5 274.5 C-22.0775 273.7575 -22.655 273.015 -23.25 272.25 C-28.5 265.5 -28.5 265.5 -30.25073242 263.24902344 C-31.41491259 261.75224357 -32.5791377 260.25549866 -33.7434082 258.75878906 C-36.69849173 254.95980942 -39.65274014 251.16018535 -42.60546875 247.359375 C-47.88821794 240.56070648 -53.17457332 233.76531519 -58.5 227 C-64.43274019 219.46316591 -70.31721918 211.88902129 -76.20166016 204.31445312 C-79.13299363 200.54184366 -82.06659198 196.77099645 -85 193 C-86.16667794 191.50000877 -87.3333446 190.00000876 -88.5 188.5 C-89.36625 187.38625 -89.36625 187.38625 -90.25 186.25 C-95.5 179.5 -95.5 179.5 -97.25073242 177.24902344 C-98.41491259 175.75224357 -99.5791377 174.25549866 -100.7434082 172.75878906 C-103.69849173 168.95980942 -106.65274014 165.16018535 -109.60546875 161.359375 C-115.32084856 154.00392967 -121.04630165 146.65708615 -126.80834961 139.33813477 C-132.33441977 132.313332 -137.82876493 125.26298993 -143.28979492 118.1875 C-144.49373651 116.64755473 -145.71716142 115.12274271 -146.9543457 113.609375 C-147.58945068 112.82433594 -148.22455566 112.03929688 -148.87890625 111.23046875 C-149.75011108 110.17122192 -149.75011108 110.17122192 -150.63891602 109.09057617 C-152.97696729 105.49941328 -152.7898368 103.16459402 -152 99 C-150.4375 97 -150.4375 97 -148 96 C-147.03320312 96.13535156 -146.06640625 96.27070312 -145.0703125 96.41015625 C-138.9623451 96.4751262 -134.16624239 91.83225228 -129.4375 88.4375 C-128.32563701 87.65734092 -127.21258014 86.8788808 -126.09838867 86.10205078 C-123.8224838 84.5128768 -121.5522547 82.91607909 -119.28613281 81.31298828 C-114.50459136 77.93734086 -109.65674908 74.65969074 -104.8125 71.375 C-103.01003104 70.14639889 -101.20794728 68.91723247 -99.40625 67.6875 C-95.74014566 65.18667411 -92.07345675 62.68670905 -88.40625 60.1875 C-78.99242729 53.77163163 -69.5830511 47.34940112 -60.18286133 40.91357422 C-53.20709352 36.13880277 -46.22434015 31.37429715 -39.23535156 26.61889648 C-34.6291923 23.48312725 -30.03244886 20.33501349 -25.453125 17.16015625 C-24.13828125 16.25136719 -24.13828125 16.25136719 -22.796875 15.32421875 C-21.13275121 14.17311472 -19.47117296 13.01831957 -17.8125 11.859375 C-17.07515625 11.35019531 -16.3378125 10.84101563 -15.578125 10.31640625 C-14.93262695 9.86724854 -14.28712891 9.41809082 -13.62207031 8.95532227 C-12 8 -12 8 -10 8 C-10.061875 7.236875 -10.12375 6.47375 -10.1875 5.6875 C-10 3 -10 3 -8.9375 1.1875 C-5.82867965 -0.71790602 -3.55240769 -0.49858354 0 0 Z " fill="#7F7F7F" transform="translate(153,0)"/>
<path d="M0 0 C0.30067383 0.55647217 0.60134766 1.11294434 0.91113281 1.6862793 C7.88645198 14.57849335 15.00944076 27.37196221 22.31933594 40.07714844 C25.51242187 45.6302607 28.69464681 51.1895891 31.875 56.75 C32.38293091 57.63780655 32.38293091 57.63780655 32.90112305 58.54354858 C38.3208141 68.0201136 43.67333175 77.53280337 48.99609375 87.06420898 C54.59481163 97.08275754 60.29067843 107.0442014 66 117 C68.62677914 121.58231646 71.25208512 126.16547084 73.875 130.75 C74.21380188 131.34214294 74.55260376 131.93428589 74.90167236 132.54437256 C80.32116483 142.02067043 85.67349308 151.53309226 90.99609375 161.06420898 C96.59481163 171.08275754 102.29067843 181.0442014 108 191 C110.62677914 195.58231646 113.25208512 200.16547084 115.875 204.75 C116.21380188 205.34214294 116.55260376 205.93428589 116.90167236 206.54437256 C122.31823234 216.01554281 127.66804917 225.5226066 132.98730469 235.04882812 C138.09132382 244.18295041 143.27356604 253.27083999 148.47949219 262.34716797 C151.24147467 267.16600253 153.99511251 271.98960703 156.75 276.8125 C157.7655915 278.58986289 158.78121323 280.36720851 159.796875 282.14453125 C160.53125 283.4296875 161.265625 284.71484375 162 286 C159.45632411 287.69578393 157.96848976 288.44012762 155.140625 289.26171875 C154.36654297 289.48988281 153.59246094 289.71804688 152.79492188 289.953125 C151.95509766 290.19546875 151.11527344 290.4378125 150.25 290.6875 C148.43212529 291.22209081 146.61442359 291.75727022 144.796875 292.29296875 C143.37084961 292.7113501 143.37084961 292.7113501 141.91601562 293.13818359 C137.10124194 294.56117012 132.30119423 296.03197686 127.5 297.5 C119.52603581 299.93220532 111.54540146 302.34081588 103.55859375 304.73046875 C97.20001276 306.63501995 90.84918925 308.56439418 84.5 310.5 C81.61870471 311.3767998 78.73733288 312.25334777 75.85595703 313.12988281 C73.94768476 313.71127129 72.03980806 314.29395966 70.13232422 314.87792969 C67.40173714 315.71367915 64.66976769 316.54476413 61.9375 317.375 C60.71546875 317.75108398 60.71546875 317.75108398 59.46875 318.13476562 C57.31950225 318.78533893 55.16322142 319.39789093 53 320 C51.38158203 320.48146484 51.38158203 320.48146484 49.73046875 320.97265625 C47 321 47 321 44.6484375 319.03515625 C43.89820313 318.05417969 43.14796875 317.07320313 42.375 316.0625 C41.95387939 315.52399414 41.53275879 314.98548828 41.09887695 314.43066406 C39.70802509 312.63781869 38.35211161 310.82220567 37 309 C36.0485359 307.73280342 35.09670709 306.46588061 34.14453125 305.19921875 C32.64934119 303.20538306 31.1574097 301.20940575 29.67333984 299.20727539 C26.07264389 294.36458533 22.33325363 289.66013466 18.5 285 C13.64721371 279.09712388 9.00465801 273.07397486 4.45361328 266.9362793 C0.53630013 261.66992771 -3.52616995 256.53610098 -7.64526367 251.42675781 C-11.18422526 247.03324534 -14.65110992 242.59379169 -18.07958984 238.11328125 C-21.61391982 233.4954239 -25.17783604 228.90114535 -28.75 224.3125 C-29.34280762 223.55090576 -29.93561523 222.78931152 -30.54638672 222.00463867 C-31.75934681 220.44654195 -32.97240086 218.88851837 -34.18554688 217.33056641 C-37.12513339 213.55482732 -40.06244872 209.77732256 -43 206 C-43.57500244 205.26080322 -44.15000488 204.52160645 -44.74243164 203.76000977 C-47.69786359 199.96064102 -50.65242048 196.16059682 -53.60546875 192.359375 C-58.88821794 185.56070648 -64.17457332 178.76531519 -69.5 172 C-75.43274019 164.46316591 -81.31721918 156.88902129 -87.20166016 149.31445312 C-90.13299363 145.54184366 -93.06659198 141.77099645 -96 138 C-97.16667794 136.50000877 -98.3333446 135.00000876 -99.5 133.5 C-100.36625 132.38625 -100.36625 132.38625 -101.25 131.25 C-103 129 -104.75 126.75 -106.5 124.5 C-107.0784668 123.75637207 -107.65693359 123.01274414 -108.25292969 122.24658203 C-109.41028224 120.75832627 -110.56718917 119.26972386 -111.72363281 117.78076172 C-114.77909239 113.8480005 -117.84385266 109.92294753 -120.921875 106.0078125 C-121.56253906 105.19054687 -122.20320313 104.37328125 -122.86328125 103.53125 C-124.09221357 101.96391603 -125.32385214 100.39869902 -126.55859375 98.8359375 C-127.11160156 98.12953125 -127.66460937 97.423125 -128.234375 96.6953125 C-128.72131836 96.07672363 -129.20826172 95.45813477 -129.70996094 94.82080078 C-131.0325186 92.95410225 -132.03227521 91.06969711 -133 89 C-125.60031578 83.65821612 -118.17102357 78.39760575 -110.5546875 73.3671875 C-105.88106609 70.26888221 -101.25598811 67.0989974 -96.625 63.9375 C-95.68164795 63.29353271 -94.7382959 62.64956543 -93.76635742 61.98608398 C-91.81891072 60.656396 -89.87156493 59.32656021 -87.92431641 57.99658203 C-84.14295311 55.41484977 -80.35933712 52.83643076 -76.57568359 50.25805664 C-68.10521138 44.48559223 -59.64084418 38.70432046 -51.18286133 32.91357422 C-44.20659818 28.13846371 -37.22439716 23.3720533 -30.2331543 18.61889648 C-25.63432048 15.49005797 -21.04910997 12.34419243 -16.48828125 9.16015625 C-15.61623047 8.55429687 -14.74417969 7.9484375 -13.84570312 7.32421875 C-12.19325238 6.17502016 -10.54461302 5.02031583 -8.90039062 3.859375 C-8.16626953 3.35019531 -7.43214844 2.84101563 -6.67578125 2.31640625 C-5.7153894 1.64266968 -5.7153894 1.64266968 -4.7355957 0.95532227 C-3 0 -3 0 0 0 Z " fill="#FECFBA" transform="translate(144,8)"/>
<path d="M0 0 C5.83381359 5.21507578 9.62213009 11.80617217 13.828125 18.33984375 C16.91356446 23.0686151 19.93085064 27.05843123 24 31 C25.73884892 33.32337723 27.30688641 35.74666206 28.875 38.1875 C29.74892358 39.5267447 30.6239271 40.8652853 31.5 42.203125 C31.92410156 42.85216797 32.34820312 43.50121094 32.78515625 44.16992188 C34.42213032 46.63591014 36.14489365 49.0362317 37.875 51.4375 C39.94420589 54.3518745 41.69842297 57.217686 43.25 60.4375 C44.75764424 63.50663291 45.61557926 64.79242888 48 67 C49.33333333 68.33333333 50.66666667 69.66666667 52 71 C48.88756621 74.36294675 45.45072874 76.84167384 41.625 79.3125 C40.27785432 80.19671192 38.93155256 81.08221048 37.5859375 81.96875 C36.85342773 82.45085937 36.12091797 82.93296875 35.36621094 83.4296875 C30.96633793 86.34961973 26.60999215 89.3334888 22.25 92.3125 C21.30914551 92.95485596 20.36829102 93.59721191 19.39892578 94.2590332 C12.65560864 98.86483079 5.91639834 103.47664078 -0.82202148 108.08959961 C-9.60706747 114.102634 -18.40452818 120.09744154 -27.20166016 126.09277344 C-31.80155351 129.22786041 -36.40075358 132.36396408 -41 135.5 C-46.53480429 139.27395415 -52.06976583 143.04767656 -57.60546875 146.8203125 C-66.24179514 152.70652378 -74.87586479 158.5959377 -83.5 164.5 C-93.05850013 171.04372629 -102.62940638 177.56918841 -112.20166016 184.09277344 C-115.88705069 186.60457511 -119.57199139 189.11703612 -123.25683594 191.62963867 C-125.08680387 192.87735889 -126.91688216 194.12491728 -128.74707031 195.37231445 C-134.267046 199.13482008 -139.78388838 202.9018392 -145.29638672 206.67529297 C-147.14757663 207.93828485 -149.0021067 209.1963942 -150.85986328 210.44970703 C-155.18844655 213.37171005 -159.46648838 216.32282882 -163.64453125 219.45703125 C-180.71732758 231.96910256 -200.47450967 239.20235709 -220 247 C-221.03695007 247.41560181 -221.03695007 247.41560181 -222.09484863 247.83959961 C-229.03974451 250.62273589 -236.00204238 253.35314319 -243 256 C-251.35296566 240.99710051 -254.46876161 226.21853643 -250.375 209.3125 C-245.65663301 193.33627494 -236.13976172 180.25280214 -221.52734375 172.05078125 C-216.85783531 169.62734184 -212.20732711 167.40161345 -207.20703125 165.73828125 C-201.82004277 163.76093502 -197.41988648 160.35332529 -192.8125 157 C-191.07001945 155.74859381 -189.3265605 154.49854861 -187.58203125 153.25 C-186.82124268 152.69828125 -186.0604541 152.1465625 -185.27661133 151.578125 C-184.14968872 150.79695313 -184.14968872 150.79695313 -183 150 C-182.21181885 149.38535889 -181.4236377 148.77071777 -180.61157227 148.13745117 C-178 147 -178 147 -174.97314453 147.8527832 C-173.31968018 148.69329224 -173.31968018 148.69329224 -171.6328125 149.55078125 C-171.03499969 149.84357468 -170.43718689 150.1363681 -169.82125854 150.43803406 C-167.91159276 151.37590059 -166.01798123 152.34145023 -164.125 153.3125 C-162.23806622 154.26996563 -160.3486234 155.22040991 -158.45016479 156.15483093 C-156.72090612 157.00735131 -155.00291355 157.88261225 -153.28564453 158.7590332 C-149.59626113 160.15248957 -146.9125747 160.37697583 -143 160 C-140.60608824 158.07172228 -140.60608824 158.07172228 -140.95874023 154.60913086 C-141.65687299 150.80033699 -141.65687299 150.80033699 -144.86743164 148.92016602 C-146.1191453 148.33706151 -147.38469761 147.78305956 -148.66015625 147.25390625 C-149.65685585 146.80264626 -149.65685585 146.80264626 -150.6736908 146.3422699 C-152.79285939 145.38981796 -154.92635164 144.47613789 -157.0625 143.5625 C-158.50436218 142.92240965 -159.94513437 142.27985792 -161.38476562 141.63476562 C-164.91117819 140.06103262 -168.45090791 138.52185322 -172 137 C-171.4017874 132.83535522 -169.98967637 129.82547971 -167.91015625 126.18359375 C-167.29076172 125.08982422 -166.67136719 123.99605469 -166.03320312 122.86914062 C-165.38287109 121.73669922 -164.73253906 120.60425781 -164.0625 119.4375 C-162.78190591 117.18656542 -161.50193173 114.93527801 -160.22265625 112.68359375 C-159.65297119 111.68900146 -159.08328613 110.69440918 -158.49633789 109.66967773 C-157.2642171 107.47140055 -156.10031636 105.26622786 -155 103 C-151.06904139 104.52317186 -147.26491922 106.24779336 -143.44921875 108.0390625 C-141.52433527 108.92951276 -139.59824107 109.81731036 -137.67211914 110.70507812 C-136.35208521 111.31694771 -135.03434715 111.93379557 -133.71899414 112.55566406 C-131.80203541 113.46030166 -129.87683925 114.34491495 -127.94921875 115.2265625 C-126.80799561 115.75846191 -125.66677246 116.29036133 -124.4909668 116.83837891 C-120.34971216 118.21638363 -117.33396562 118.21068919 -113 118 C-112.9175 116.741875 -112.835 115.48375 -112.75 114.1875 C-112.70359375 113.47980469 -112.6571875 112.77210938 -112.609375 112.04296875 C-112.80864072 109.88478464 -112.80864072 109.88478464 -114.57617188 108.58203125 C-117.62998189 106.58881118 -120.8467776 105.11503192 -124.171875 103.64453125 C-124.8542926 103.33803146 -125.53671021 103.03153168 -126.23980713 102.71574402 C-128.40780437 101.74329925 -130.57882067 100.77781605 -132.75 99.8125 C-134.22546547 99.15215069 -135.70072825 98.49134828 -137.17578125 97.83007812 C-140.78152815 96.214796 -144.38999768 94.60574778 -148 93 C-146.50400128 88.98562789 -144.61341264 85.34262768 -142.5234375 81.60546875 C-142.19332672 81.01325027 -141.86321594 80.4210318 -141.52310181 79.81086731 C-140.47653441 77.9348315 -139.42584018 76.06114515 -138.375 74.1875 C-137.66118365 72.90965861 -136.94763914 71.63166533 -136.234375 70.35351562 C-134.49272484 67.23391361 -132.74736793 64.11640374 -131 61 C-126.90096229 62.57950363 -122.94276084 64.41125988 -118.9765625 66.29296875 C-116.90624973 67.25983962 -114.83452136 68.22363248 -112.76269531 69.18725586 C-111.33842918 69.85368098 -109.91685298 70.52588568 -108.49804688 71.20385742 C-106.43565184 72.18750899 -104.3638274 73.14823833 -102.2890625 74.10546875 C-101.66278961 74.41058884 -101.03651672 74.71570892 -100.39126587 75.03007507 C-95.88567794 77.07341513 -92.78893426 77.0710776 -88 76 C-87.67 73.69 -87.34 71.38 -87 69 C-91.26926001 66.00060064 -95.58935129 63.65543717 -100.3671875 61.546875 C-101.04677521 61.24179016 -101.72636292 60.93670532 -102.42654419 60.62237549 C-104.5737882 59.65981037 -106.72429284 58.70479825 -108.875 57.75 C-110.34136892 57.09424863 -111.80751705 56.4380033 -113.2734375 55.78125 C-116.84643222 54.18178033 -120.42236885 52.58907033 -124 51 C-122.70552773 47.56285662 -121.60509219 45.55010343 -119 43 C-118.01371583 40.96922316 -118.01371583 40.96922316 -117.3125 38.8125 C-116.879375 37.554375 -116.44625 36.29625 -116 35 C-113.03 35 -110.06 35 -107 35 C-107 34.34 -107 33.68 -107 33 C-95.78823122 29.09091587 -84.50007756 25.68741371 -73.05102539 22.54125977 C-66.10420578 20.62113478 -59.28975578 18.50437352 -52.47265625 16.1640625 C-48.15386068 14.71636725 -43.79469907 13.43457834 -39.42163086 12.16455078 C-32.31499624 10.09951099 -25.22176439 7.99043235 -18.13186646 5.86877441 C-16.75520048 5.45712877 -15.37830893 5.04623677 -14.00119019 4.6361084 C-12.05365123 4.05604923 -10.10688788 3.47338789 -8.16015625 2.890625 C-7.02199463 2.55063477 -5.88383301 2.21064453 -4.71118164 1.86035156 C-2.06879939 1.09928637 -2.06879939 1.09928637 0 0 Z " fill="#5B9AD4" transform="translate(312,305)"/>
<path d="M0 0 C1.63818359 2.02197266 1.63818359 2.02197266 3.3984375 4.6640625 C4.04296875 5.62183594 4.6875 6.57960938 5.3515625 7.56640625 C6.01929688 8.57574219 6.68703125 9.58507812 7.375 10.625 C8.69467544 12.59678069 10.01497476 14.56814399 11.3359375 16.5390625 C12.27324707 17.94720215 12.27324707 17.94720215 13.22949219 19.38378906 C14.76710208 21.65585575 16.35121116 23.87642182 17.9765625 26.0859375 C20 29 20 29 20 31 C18.42138672 32.27416992 18.42138672 32.27416992 16.1796875 33.73046875 C15.34550293 34.27840088 14.51131836 34.82633301 13.65185547 35.39086914 C12.73549316 35.98375732 11.81913086 36.57664551 10.875 37.1875 C8.93677921 38.45984016 6.99930224 39.73331402 5.0625 41.0078125 C4.05832031 41.6668457 3.05414063 42.32587891 2.01953125 43.00488281 C-2.7285888 46.14214324 -7.42812308 49.34922119 -12.125 52.5625 C-13.0423291 53.18922607 -13.9596582 53.81595215 -14.90478516 54.46166992 C-17.60399822 56.30660187 -20.30215158 58.15307325 -23 60 C-24.61195508 61.10289979 -26.22393339 62.20576562 -27.8359375 63.30859375 C-30.16528029 64.90235461 -32.49452776 66.4962539 -34.82348633 68.09057617 C-43.60800249 74.10334559 -52.40501318 80.09777207 -61.20166016 86.09277344 C-65.80155351 89.22786041 -70.40075358 92.36396408 -75 95.5 C-80.53480429 99.27395415 -86.06976583 103.04767656 -91.60546875 106.8203125 C-101.00874538 113.22924964 -110.40826161 119.64355344 -119.79736328 126.07324219 C-124.10217698 129.02030734 -128.41048154 131.9621514 -132.72265625 134.8984375 C-133.69460937 135.56037109 -134.6665625 136.22230469 -135.66796875 136.90429688 C-137.53346719 138.17439669 -139.39932522 139.44396859 -141.265625 140.71289062 C-142.12800781 141.30005859 -142.99039063 141.88722656 -143.87890625 142.4921875 C-144.71953613 143.06420898 -145.56016602 143.63623047 -146.42626953 144.22558594 C-149.97979401 146.67550207 -153.48483803 149.19257012 -156.98413086 151.71923828 C-159 153 -159 153 -161 153 C-161 153.99 -161 154.98 -161 156 C-162.59448242 157.40356445 -162.59448242 157.40356445 -164.85546875 158.86328125 C-166.11593018 159.68916748 -166.11593018 159.68916748 -167.40185547 160.53173828 C-168.32111816 161.11938965 -169.24038086 161.70704102 -170.1875 162.3125 C-172.11092941 163.56601915 -174.03409885 164.81993729 -175.95703125 166.07421875 C-176.95299316 166.7192334 -177.94895508 167.36424805 -178.97509766 168.02880859 C-184.68535895 171.74992641 -190.32803529 175.57304409 -195.98120117 179.38012695 C-202.17494337 183.52372036 -208.29070143 187.49254207 -215.25 190.25 C-216.08015625 190.58515625 -216.9103125 190.9203125 -217.765625 191.265625 C-220 192 -220 192 -223 192 C-223 192.66 -223 193.32 -223 194 C-236.2161715 199.83497743 -249.49074944 205.53832053 -262.80212402 211.15255737 C-264.43514054 211.84298386 -266.06673731 212.53677795 -267.69689941 213.23391724 C-270.00770055 214.22116078 -272.32337038 215.19598797 -274.640625 216.16796875 C-275.33969971 216.46953888 -276.03877441 216.77110901 -276.7590332 217.08181763 C-281.65761917 219.11412694 -281.65761917 219.11412694 -285 218 C-286.18831977 215.75669891 -287.18329567 213.60339668 -288.13671875 211.26171875 C-288.42102249 210.584543 -288.70532623 209.90736725 -288.99824524 209.20967102 C-289.59759965 207.775188 -290.19155353 206.33843845 -290.78051758 204.8996582 C-291.68186037 202.70125524 -292.60212604 200.51153859 -293.52539062 198.32226562 C-294.10531369 196.92755972 -294.68412662 195.53239158 -295.26171875 194.13671875 C-295.53666672 193.48241379 -295.81161469 192.82810883 -296.09489441 192.15397644 C-297.45147185 188.81316766 -298 186.67614971 -298 183 C-296.84814209 182.50709473 -295.69628418 182.01418945 -294.50952148 181.50634766 C-292.88004188 180.8089279 -291.25056631 180.11149872 -289.62109375 179.4140625 C-288.75052338 179.04151337 -287.879953 178.66896423 -286.98300171 178.28512573 C-282.18928208 176.23316595 -277.39673644 174.17852465 -272.60620117 172.11914062 C-270.67760305 171.29029143 -268.7489737 170.46151489 -266.8203125 169.6328125 C-265.87076187 169.22480408 -264.92121124 168.81679565 -263.94288635 168.39642334 C-258.84658133 166.21000121 -253.74148904 164.04962838 -248.6171875 161.9296875 C-238.30945994 157.64060492 -229.068481 153.0048749 -220.02490234 146.45166016 C-215.98717158 143.55699569 -211.85867614 140.79252742 -207.75 138 C-206.36735962 137.0550769 -206.36735962 137.0550769 -204.95678711 136.09106445 C-197.50856744 131.00409024 -190.01127707 125.99303624 -182.5 121 C-171.50651365 113.69059082 -160.57531088 106.29435854 -149.68261719 98.83544922 C-145.0638166 95.67526149 -140.43752926 92.52606115 -135.8125 89.375 C-129.03716357 84.75656346 -122.26605377 80.1320242 -115.5 75.5 C-105.94149987 68.95627371 -96.37059362 62.43081159 -86.79833984 55.90722656 C-82.19844649 52.77213959 -77.59924642 49.63603592 -73 46.5 C-67.46519571 42.72604585 -61.93023417 38.95232344 -56.39453125 35.1796875 C-54.53384777 33.91146772 -52.67317065 32.6432386 -50.8125 31.375 C-49.90016602 30.75326904 -48.98783203 30.13153809 -48.04785156 29.4909668 C-42.89821204 25.98039291 -37.75426526 22.46172062 -32.6159668 18.93457031 C-29.5310836 16.81962201 -26.44055003 14.71301571 -23.34960938 12.60693359 C-20.86759571 10.90944669 -18.3950443 9.19862235 -15.921875 7.48828125 C-14.28161805 6.36664908 -12.64100521 5.24553714 -11 4.125 C-10.23977539 3.59430908 -9.47955078 3.06361816 -8.69628906 2.5168457 C-7.99213867 2.03948975 -7.28798828 1.56213379 -6.5625 1.0703125 C-5.94503906 0.64508301 -5.32757813 0.21985352 -4.69140625 -0.21826172 C-3 -1 -3 -1 0 0 Z " fill="#FEFEFE" transform="translate(372,389)"/>
<path d="M0 0 C1.28110735 -0.01173486 1.28110735 -0.01173486 2.58809566 -0.02370679 C3.99600542 -0.01366855 3.99600542 -0.01366855 5.43235779 -0.00342751 C6.42919114 -0.00810748 7.42602449 -0.01278745 8.45306492 -0.01760924 C11.80884485 -0.02961972 15.16422097 -0.02007827 18.52000427 -0.01066017 C20.91949198 -0.01472318 23.31897781 -0.02006352 25.71846008 -0.02659035 C31.56851979 -0.03887649 37.41847379 -0.03704137 43.26853061 -0.02835242 C48.02197134 -0.02158387 52.77537969 -0.02065556 57.52882385 -0.02392387 C58.20473936 -0.02438357 58.88065486 -0.02484327 59.57705265 -0.0253169 C60.95005887 -0.02627605 62.32306507 -0.02724869 63.69607127 -0.02823468 C76.57803408 -0.03679424 89.45993289 -0.02694558 102.34188521 -0.01083358 C113.40096476 0.00257014 124.45994986 0.0002422 135.51902771 -0.01358986 C148.35413513 -0.0296357 161.18918643 -0.03597021 174.02430248 -0.02675307 C175.39232571 -0.0257974 176.76034895 -0.02485428 178.12837219 -0.02392387 C178.801508 -0.02346105 179.4746438 -0.02299822 180.16817766 -0.02252137 C184.91723161 -0.01992848 189.66625002 -0.02430889 194.41529846 -0.03136253 C200.8043175 -0.04064317 207.19319981 -0.03405847 213.58220291 -0.01667976 C215.93205085 -0.01270081 218.28191377 -0.01387286 220.63175583 -0.02046776 C223.82965585 -0.02861768 227.0269756 -0.01844096 230.22483826 -0.00342751 C231.16344476 -0.01011967 232.10205126 -0.01681184 233.06910038 -0.02370679 C233.92317195 -0.01588355 234.77724352 -0.00806031 235.65719604 0 C236.39564475 0.00048706 237.13409346 0.00097411 237.8949194 0.00147593 C240.42100159 0.49272968 241.30326752 1.32983169 242.82859802 3.37752342 C243.48428714 9.49728849 243.48428714 9.49728849 241.56587315 12.07267821 C239.4223731 13.68263379 238.31887169 13.75329129 235.65719604 13.75504684 C234.37608869 13.76678171 234.37608869 13.76678171 233.06910038 13.77875364 C232.13049388 13.77206147 231.19188738 13.76536931 230.22483826 13.75847435 C228.72958823 13.76549431 228.72958823 13.76549431 227.20413113 13.77265608 C223.84835119 13.78466656 220.49297508 13.77512511 217.13719177 13.76570702 C214.73770407 13.76977002 212.33821823 13.77511037 209.93873596 13.78163719 C204.08867625 13.79392333 198.23872225 13.79208822 192.38866544 13.78339927 C187.63522471 13.77663072 182.88181635 13.7757024 178.12837219 13.77897072 C177.45245669 13.77943042 176.77654118 13.77989012 176.08014339 13.78036375 C174.70713718 13.7813229 173.33413097 13.78229554 171.96112478 13.78328152 C159.07916197 13.79184108 146.19726315 13.78199243 133.31531084 13.76588042 C122.25623128 13.75247671 111.19724619 13.75480464 100.13816833 13.7686367 C87.30306091 13.78468255 74.46800961 13.79101706 61.63289356 13.78179991 C60.26487033 13.78084424 58.8968471 13.77990113 57.52882385 13.77897072 C56.85568805 13.77850789 56.18255224 13.77804507 55.48901838 13.77756821 C50.73996444 13.77497533 45.99094602 13.77935573 41.24189758 13.78640938 C34.85287855 13.79569002 28.46399624 13.78910532 22.07499313 13.77172661 C19.72514519 13.76774766 17.37528227 13.76891971 15.02544022 13.7755146 C11.82754019 13.78366453 8.63022044 13.7734878 5.43235779 13.75847435 C4.02444804 13.7685126 4.02444804 13.7685126 2.58809566 13.77875364 C1.7340241 13.7709304 0.87995253 13.76310715 0 13.75504684 C-0.73844871 13.75455979 -1.47689741 13.75407273 -2.23772335 13.75357091 C-4.76380555 13.26231717 -5.64607148 12.42521516 -7.17140198 10.37752342 C-7.82709109 4.25775835 -7.82709109 4.25775835 -5.9086771 1.68236864 C-3.76517706 0.07241306 -2.66167565 0.00175556 0 0 Z " fill="#7E7E7E" transform="translate(178.17140197753906,632.6224765777588)"/>
</svg>
